<!-- Generator: Adobe Illustrator 19.2.1, SVG Export Plug-In  -->
<svg version="1.1"
	 xmlns="http://www.w3.org/2000/svg" xmlns:xlink="http://www.w3.org/1999/xlink" xmlns:a="http://ns.adobe.com/AdobeSVGViewerExtensions/3.0/"
	 x="0px" y="0px" width="66.4px" height="50.9px" viewBox="0 0 66.4 50.9" style="enable-background:new 0 0 66.4 50.9;"
	 xml:space="preserve">
<style type="text/css">
	.st0{clip-path:url(#SVGID_2_);fill:#DCDCDC;}
	.st1{clip-path:url(#SVGID_4_);fill:#DCDCDC;}
</style>
<defs>
</defs>
<g>
	<defs>
		<rect id="SVGID_1_" x="0" y="0" width="66.4" height="50.9"/>
	</defs>
	<clipPath id="SVGID_2_">
		<use xlink:href="#SVGID_1_"  style="overflow:visible;"/>
	</clipPath>
	<path class="st0" d="M66.4,9.9c0-1.1-0.4-2.1-1.2-2.9l-5.8-5.8C58.6,0.4,57.6,0,56.5,0c-1.1,0-2.1,0.4-2.9,1.2L25.5,29.4L12.9,16.7
		c-0.8-0.8-1.8-1.2-2.9-1.2c-1.1,0-2.1,0.4-2.9,1.2l-5.8,5.8C0.4,23.3,0,24.4,0,25.5c0,1.1,0.4,2.1,1.2,2.9l15.5,15.5l5.8,5.8
		c0.8,0.8,1.8,1.2,2.9,1.2c1.1,0,2.1-0.4,2.9-1.2l5.8-5.8l31-31C66,12.1,66.4,11,66.4,9.9"/>
</g>
</svg>
