<!-- Generator: Adobe Illustrator 19.2.1, SVG Export Plug-In  -->
<svg version="1.1"
	 xmlns="http://www.w3.org/2000/svg" xmlns:xlink="http://www.w3.org/1999/xlink" xmlns:a="http://ns.adobe.com/AdobeSVGViewerExtensions/3.0/"
	 x="0px" y="0px" width="192.1px" height="40.6px" viewBox="0 0 192.1 40.6" style="enable-background:new 0 0 192.1 40.6;"
	 xml:space="preserve">
<style type="text/css">
	.st0{clip-path:url(#SVGID_2_);fill:#2DA1B4;}
	.st1{clip-path:url(#SVGID_4_);fill:#2DA1B4;}
</style>
<defs>
</defs>
<g>
	<defs>
		<rect id="SVGID_1_" width="192.1" height="40.6"/>
	</defs>
	<clipPath id="SVGID_2_">
		<use xlink:href="#SVGID_1_"  style="overflow:visible;"/>
	</clipPath>
	<path class="st0" d="M177.5,40.6c11.8,0,14.6-9.3,14.6-20.6c0-11.1-2.8-20-14.6-20c-11.8,0-14.7,8.9-14.7,20
		C162.8,31.3,165.6,40.6,177.5,40.6 M177.5,6.3c5.3,0,6.7,5.9,6.7,13.7s-1.4,14.4-6.7,14.4s-6.7-6.6-6.7-14.4S172.2,6.3,177.5,6.3
		 M144.2,6.9c2.4,0,7,0.7,7,6.7c0,4.2-3.1,9.5-18.4,19.3V40h27v-6.7h-16.3v-0.1c9.9-6.9,15.7-13.2,15.7-21.3
		C159.1,5.3,154.9,0,146,0c-5,0-8.5,1-13.2,2.9l2.3,6C139.1,7.2,141.6,6.9,144.2,6.9 M107.3,27.8h24.1v-6.3h-24.1V27.8z M99.6,7.4
		C93.5,16.5,87.8,29.7,86.1,40h8.4c2.3-14.2,7.9-24.5,13.3-34V0.6H82.6v6.7h17.1V7.4z M71.4,9.2V40H79V0.3h-5.5
		c-2.9,2.4-7.7,4.6-12.2,6.4l1.9,6.3L71.4,9.2z M44.7,40.6c11.8,0,14.6-9.3,14.6-20.6c0-11.1-2.8-20-14.6-20S30,8.9,30,20
		C30,31.3,32.9,40.6,44.7,40.6 M44.7,6.3c5.3,0,6.7,5.9,6.7,13.7S50,34.4,44.7,34.4S38,27.8,38,20S39.4,6.3,44.7,6.3 M11.5,6.9
		c2.4,0,7,0.7,7,6.7c0,4.2-3.1,9.5-18.4,19.3V40h27v-6.7H10.7v-0.1c9.9-6.9,15.7-13.2,15.7-21.3C26.4,5.3,22.2,0,13.2,0
		C8.2,0,4.8,1,0,2.9l2.3,6C6.4,7.2,8.9,6.9,11.5,6.9"/>
</g>
</svg>
