<!-- Generator: Adobe Illustrator 19.2.1, SVG Export Plug-In  -->
<svg version="1.1"
	 xmlns="http://www.w3.org/2000/svg" xmlns:xlink="http://www.w3.org/1999/xlink" xmlns:a="http://ns.adobe.com/AdobeSVGViewerExtensions/3.0/"
	 x="0px" y="0px" width="268px" height="258px" viewBox="0 0 268 258" style="enable-background:new 0 0 268 258;"
	 xml:space="preserve">
<style type="text/css">
	.st0{clip-path:url(#SVGID_2_);fill:#2DA1B4;}
	.st1{clip-path:url(#SVGID_2_);fill:#FFFFFF;}
	.st2{fill:#FFFFFF;}
	.st3{font-family:'Prelo-Bold';}
	.st4{font-size:31px;}
	.st5{clip-path:url(#SVGID_4_);fill:#FFFFFF;}
	.st6{clip-path:url(#SVGID_6_);fill:#2DA1B4;}
	.st7{clip-path:url(#SVGID_6_);fill:#FFFFFF;}
	.st8{clip-path:url(#SVGID_8_);fill:#FFFFFF;}
</style>
<defs>
</defs>
<g>
	<defs>
		<rect id="SVGID_1_" width="268" height="258"/>
	</defs>
	<clipPath id="SVGID_2_">
		<use xlink:href="#SVGID_1_"  style="overflow:visible;"/>
	</clipPath>
	<path class="st0" d="M134,257c69,0,125-56,125-125C259,63,203,7,134,7S9,63,9,132C9,201,65,257,134,257"/>
	<path class="st1" d="M183.8,117.4c0-2.6,0.7-4.7,3-4.7c1.3,0,2.3,0.6,2.8,1v7.5c-0.5,0.4-1.5,1-2.8,1
		C184.4,122.1,183.8,120,183.8,117.4 M189.6,125.1h4v-21.7h-4v7.6h-0.1c-1-1.1-2.5-1.7-4.1-1.7c-4.3,0-5.9,3.7-5.9,8.1
		c0,4.4,1.3,8.1,5.7,8.1c1.7,0,3.4-0.8,4.3-1.9h0.1V125.1z M167.4,113.8c0.8-0.5,2-1.2,3.3-1.2c1.8,0,2.5,1,2.5,2.8v9.7h4v-10.6
		c0-3.2-1.6-5.2-4.7-5.2c-2,0-3.7,0.9-5.1,2.3h-0.1v-2h-4v15.5h4V113.8z M153.7,112.7c2,0,3,0.5,3,2.1v1.1h-2.9
		c-3,0-6.5,1.1-6.5,4.8c0,2.7,1.7,4.8,4.8,4.8c2,0,3.3-0.5,4.6-1.9h0.1v1.6h4v-10.6c0-4.2-2.2-5.2-6.1-5.2c-1.9,0-4.2,0.3-6.4,0.7
		l0.6,3.2C151.1,112.8,152.5,112.7,153.7,112.7 M156.7,121.4c-0.6,0.4-1.7,1-3,1c-1.3,0-2.4-0.7-2.4-2c0-1.4,0.9-2.1,2.7-2.1h2.7
		V121.4z M131.8,120.7c0,3.3,1.4,4.7,4.9,4.7c0.8,0,2.3-0.1,3.2-0.3l-0.3-3.1c-0.6,0.1-1.1,0.2-1.4,0.2c-1.6,0-2.3-0.8-2.3-2.2v-7.5
		h3.9v-2.9h-3.9v-4.3h-3.5l-0.5,4.3l-2.1,0.2v2.6h2.1V120.7z M128.4,120.4c0-3.6-3.4-4.4-6.3-5c-2-0.4-2.5-0.8-2.5-1.6
		c0-0.5,0.5-1.3,2.3-1.3c1.2,0,3,0.1,5.6,0.7l0.7-3.2c-1.9-0.5-4-0.7-6.5-0.7c-3.8,0-6.1,1.3-6.1,4.7c0,3.5,2.7,4.6,6.2,5.2
		c1.9,0.4,2.7,0.7,2.7,1.5c0,0.6-0.6,1.5-2.5,1.5c-1.2,0-3.3-0.1-5.9-0.7l-0.7,3.2c1.9,0.5,4.6,0.7,7.1,0.7
		C126,125.4,128.4,123.9,128.4,120.4 M109,120.9c-0.8,0.5-2,1.2-3.3,1.2c-1.6,0-2.5-1-2.5-2.8v-9.7h-4v10.6c0,3.2,1.6,5.2,4.7,5.2
		c2,0,3.7-0.9,5.1-2.3h0.1v2h4v-15.5h-4V120.9z M91.8,114.3c1.2-0.6,3.3-1.2,5.4-1.2v-3.8c-2.5,0-4.4,1.4-5.4,2.8h-0.1v-2.5h-4v15.5
		h4V114.3z M88.7,107.9V104H73.4v3.8h5.5v17.3h4.3v-17.3H88.7z"/>
</g>
<text transform="matrix(1 0 0 1 193.624 125.125)" class="st2 st3 st4"> </text>
<text transform="matrix(1 0 0 1 199.2041 125.125)" class="st2 st3 st4"> </text>
<g>
	<defs>
		<rect id="SVGID_3_" width="268" height="258"/>
	</defs>
	<clipPath id="SVGID_4_">
		<use xlink:href="#SVGID_3_"  style="overflow:visible;"/>
	</clipPath>
	<path class="st5" d="M178.3,157.7c0,3.3,1.4,4.7,4.9,4.7c0.8,0,2.3-0.1,3.2-0.3l-0.3-3.1c-0.6,0.1-1.1,0.2-1.4,0.2
		c-1.6,0-2.3-0.8-2.3-2.2v-7.5h3.9v-2.9h-3.9v-4.3h-3.5l-0.5,4.3l-2.1,0.2v2.6h2.1V157.7z M161.9,154.4c0,4.9,2,8.1,8,8.1
		c2,0,3.6-0.3,5.4-0.7l-0.7-3.2c-2.6,0.6-3.6,0.6-4.7,0.6c-2.4,0-3.7-1.6-3.7-4.7s1.3-4.7,3.7-4.7c1.1,0,2.1,0,4.7,0.6l0.7-3.2
		c-1.9-0.5-3.4-0.7-5.4-0.7C163.9,146.3,161.9,149.5,161.9,154.4 M153.2,149.4c1.9,0,2.6,0.9,2.7,2.1c0,0.4,0,0.8-0.1,1.2h-6
		C150,150.7,151,149.4,153.2,149.4 M159.8,155.2c0.2-1.4,0.3-2.7,0.1-3.9c-0.3-2.7-1.9-5-6.5-5c-5.9,0-8,3.2-8,8.1
		c0,4.9,2.1,8.1,8.1,8.1c2,0,3.8-0.2,5.9-0.7l-0.5-3.2c-2,0.6-3.5,0.6-4.8,0.6c-2.9,0-4.2-1.6-4.2-3.9H159.8z M139.2,154.4
		c0,2.6-0.7,4.7-3,4.7c-1.3,0-2.3-0.6-2.8-1v-7.5c0.5-0.4,1.5-1,2.8-1C138.5,149.7,139.2,151.7,139.2,154.4 M133.4,146.6h-4v21.7h4
		v-7.6h0.1c1,1.1,2.6,1.7,4.1,1.7c4.3,0,5.9-3.6,5.9-8.1c0-4.4-1.3-8.1-5.6-8.1c-1.7,0-3.4,0.8-4.4,1.9h-0.1V146.6z M127.2,157.4
		c0-3.6-3.4-4.4-6.3-5c-2-0.4-2.5-0.8-2.5-1.6c0-0.5,0.5-1.3,2.3-1.3c1.2,0,3,0.1,5.6,0.7l0.7-3.2c-1.9-0.5-4-0.7-6.5-0.7
		c-3.8,0-6.1,1.3-6.1,4.6c0,3.5,2.7,4.7,6.2,5.2c1.9,0.4,2.7,0.7,2.7,1.5c0,0.6-0.6,1.5-2.5,1.5c-1.2,0-3.3-0.1-5.9-0.7l-0.7,3.2
		c1.9,0.5,4.6,0.7,7.1,0.7C124.8,162.4,127.2,160.9,127.2,157.4 M105.5,149.4c1.9,0,2.6,0.9,2.7,2.1c0,0.4,0,0.8-0.1,1.2h-6
		C102.3,150.7,103.2,149.4,105.5,149.4 M112.1,155.2c0.2-1.4,0.3-2.7,0.1-3.9c-0.3-2.7-1.9-5-6.5-5c-5.9,0-8,3.2-8,8.1
		c0,4.9,2.1,8.1,8.1,8.1c2,0,3.8-0.2,5.9-0.7l-0.5-3.2c-2,0.6-3.5,0.6-4.8,0.6c-2.9,0-4.2-1.6-4.2-3.9H112.1z M84.9,144.9h4.2
		c1.8,0,3.1,0.8,3.1,3c0,2.2-1.4,3-3.1,3h-4.2V144.9z M97.3,162.1l-4.9-8.2c2.9-0.8,4.2-3.2,4.2-6.1c0-4.1-2.5-6.8-7-6.8h-9v21.1
		h4.3v-7.5h3l4.4,7.5H97.3z"/>
</g>
</svg>
