<!-- Generator: Adobe Illustrator 19.2.1, SVG Export Plug-In  -->
<svg version="1.1"
	 xmlns="http://www.w3.org/2000/svg" xmlns:xlink="http://www.w3.org/1999/xlink" xmlns:a="http://ns.adobe.com/AdobeSVGViewerExtensions/3.0/"
	 x="0px" y="0px" width="586.6px" height="57.2px" viewBox="0 0 586.6 57.2" style="enable-background:new 0 0 586.6 57.2;"
	 xml:space="preserve">
<style type="text/css">
	.st0{clip-path:url(#SVGID_2_);fill:#2B5972;}
	.st1{clip-path:url(#SVGID_4_);fill:#2B5972;}
</style>
<defs>
</defs>
<g>
	<defs>
		<rect id="SVGID_1_" width="586.6" height="57.2"/>
	</defs>
	<clipPath id="SVGID_2_">
		<use xlink:href="#SVGID_1_"  style="overflow:visible;"/>
	</clipPath>
	<path class="st0" d="M578.3,40.5c-4.5,0-8.4,3.8-8.4,8.3c0,4.5,3.9,8.4,8.4,8.4c4.4,0,8.3-3.9,8.3-8.4
		C586.6,44.3,582.8,40.5,578.3,40.5 M557.3,40.5c-4.5,0-8.4,3.8-8.4,8.3c0,4.5,3.9,8.4,8.4,8.4c4.4,0,8.3-3.9,8.3-8.4
		C565.6,44.3,561.8,40.5,557.3,40.5 M536.3,40.5c-4.5,0-8.4,3.8-8.4,8.3c0,4.5,3.9,8.4,8.4,8.4c4.4,0,8.3-3.9,8.3-8.4
		C544.6,44.3,540.7,40.5,536.3,40.5 M504.3,28.3c4.8,0,8.3,3.6,8.3,8.8s-3.5,8.8-8.3,8.8c-4.8,0-8.3-3.6-8.3-8.8
		S499.5,28.3,504.3,28.3 M504.3,16.9c-11.9,0-20.7,8.6-20.7,20.2s8.8,20.2,20.7,20.2c12,0,20.8-8.6,20.8-20.2S516.3,16.9,504.3,16.9
		 M480,17.9H467V6.8h-12.2v11.2h-7.1v10.8h7.1v12.8c0,9.6,4.6,15.7,14.9,15.7c6.2,0,10-1.8,13.6-4.3l-4.2-9.5
		c-1.9,1.1-4.4,2.4-6.6,2.4c-3.1,0-5.4-1.5-5.4-5.9V28.7H480V17.9z M409,27.3c3.5,0,5.9,2,6.9,5.8H402
		C402.9,29.3,405.2,27.3,409,27.3 M409,16.9c-11.6,0-19.6,8.3-19.6,20.4c0,11.9,8.2,19.9,20.2,19.9c7.1,0,12.9-2.3,16.8-6.3
		l-7.9-7.3c-2.4,2.2-5.5,3.4-8.3,3.4c-4.2,0-7.2-1.9-8.2-6.1h25.9c0.2-0.8,0.2-2.5,0.2-3.8C428.1,25.1,420.3,16.9,409,16.9
		 M384.1,16.9c-4.7,0-8.2,1.8-10.5,5.5v-4.4h-11.7v38.3h12.2V35.5c0-4.8,2.7-6.9,7-6.9c2.2,0,4.5,0.5,6.1,1l1.1-12.2
		C387.4,17.2,385.9,16.9,384.1,16.9 M338,27.3c3.6,0,5.9,2,6.9,5.8H331C331.9,29.3,334.2,27.3,338,27.3 M338,16.9
		c-11.6,0-19.6,8.3-19.6,20.4c0,11.9,8.2,19.9,20.2,19.9c7.1,0,12.9-2.3,16.8-6.3l-7.9-7.3c-2.4,2.2-5.5,3.4-8.3,3.4
		c-4.2,0-7.2-1.9-8.2-6.1h25.9c0.2-0.8,0.2-2.5,0.2-3.8C357.1,25.1,349.3,16.9,338,16.9 M289.4,0h-12.2v56.2h12.2V35.6
		c0-5,2.8-7.3,6.2-7.3c3.8,0,6,2.5,6,7.1v20.8h12.2V31.1c0-8.9-5.9-14.2-13.6-14.2c-4.8,0-8.5,1.6-10.9,5.1V0z M235.6,27.3
		c3.5,0,5.9,2,6.9,5.8h-13.9C229.5,29.3,231.8,27.3,235.6,27.3 M235.5,16.9c-11.6,0-19.6,8.3-19.6,20.4c0,11.9,8.2,19.9,20.2,19.9
		c7.1,0,12.9-2.3,16.8-6.3l-7.9-7.3c-2.4,2.2-5.5,3.4-8.3,3.4c-4.2,0-7.2-1.9-8.2-6.1h25.9c0.2-0.8,0.2-2.5,0.2-3.8
		C254.6,25.1,246.9,16.9,235.5,16.9 M210.6,16.9c-4.7,0-8.2,1.8-10.5,5.5v-4.4h-11.7v38.3h12.2V35.5c0-4.8,2.7-6.9,7-6.9
		c2.2,0,4.5,0.5,6.1,1l1.1-12.2C214,17.2,212.4,16.9,210.6,16.9 M161.8,28.3c4.8,0,8.2,3.7,8.2,8.8s-3.4,8.8-8.2,8.8
		c-4.9,0-8.2-3.8-8.2-8.8S156.9,28.3,161.8,28.3 M181.7,17.9h-11.8v4.1c-2.3-3-5.8-5.2-11-5.2c-10.3,0-17.8,8.9-17.8,20.1
		c0,11.3,7.6,20.2,17.8,20.2c5.2,0,8.7-2.1,11-5.1v4.1h11.8V17.9z M101.5,27.3c3.5,0,5.9,2,6.9,5.8H94.5
		C95.4,29.3,97.7,27.3,101.5,27.3 M101.4,16.9c-11.6,0-19.6,8.3-19.6,20.4c0,11.9,8.2,19.9,20.2,19.9c7.1,0,12.9-2.3,16.8-6.3
		l-7.9-7.3c-2.4,2.2-5.5,3.4-8.3,3.4c-4.2,0-7.2-1.9-8.2-6.1h25.9c0.2-0.8,0.2-2.5,0.2-3.8C120.6,25.1,112.8,16.9,101.4,16.9
		 M83.5,1.6H70.2L59.8,40.8L48.9,1.6H34.8L23.9,40.7L13.5,1.6H0l15.9,54.6h15.5L41.7,21L52,56.2h15.5L83.5,1.6z"/>
</g>
</svg>
