<!-- Generator: Adobe Illustrator 19.2.1, SVG Export Plug-In  -->
<svg version="1.1"
	 xmlns="http://www.w3.org/2000/svg" xmlns:xlink="http://www.w3.org/1999/xlink" xmlns:a="http://ns.adobe.com/AdobeSVGViewerExtensions/3.0/"
	 x="0px" y="0px" width="821.4px" height="361px" viewBox="0 0 821.4 361" style="enable-background:new 0 0 821.4 361;"
	 xml:space="preserve">
<style type="text/css">
	.st0{clip-path:url(#SVGID_2_);fill:#2DA1B4;}
	.st1{fill:#2DA1B4;}
	.st2{fill:#FFFFFF;}
	.st3{clip-path:url(#SVGID_4_);fill:#2DA1B4;}
</style>
<defs>
</defs>
<g>
	<defs>
		<rect id="SVGID_1_" width="821.4" height="361"/>
	</defs>
	<clipPath id="SVGID_2_">
		<use xlink:href="#SVGID_1_"  style="overflow:visible;"/>
	</clipPath>
	<path class="st0" d="M118.8,0c0,0-50.8,0-50.8,50.8v227.6c0,0,0,50.8,50.8,50.8h641.7c0,0,50.8,0,50.8-50.8V50.8
		c0,0,0-50.8-50.8-50.8H118.8z"/>
</g>
<polygon class="st1" points="0,220.6 68,279.2 68,220.6 "/>
<g>
	<path class="st2" d="M143,34.5h-14.1l-1.3,9.2h12.2l-0.4,2.7h-12.3l-1.4,10.2h14.3l-0.4,2.7h-17.3l3.8-27.4h17.1L143,34.5z"/>
	<path class="st2" d="M147.5,59.2h-2.8l2.8-20.2h2.8l-0.4,2.9h0.1c2.3-2,5-3.3,7.9-3.3c4,0,5.7,2.3,5.1,6.6l-1.9,14h-2.8l1.9-13.3
		c0.4-2.8-0.4-4.8-3.8-4.8c-2.7,0-5.3,1.7-6.7,2.7L147.5,59.2z"/>
	<path class="st2" d="M168.9,59.2H166l4-28.2h2.8l-1.5,11h0.1c2.3-2,5-3.3,7.9-3.3c4,0,5.7,2.3,5.1,6.6l-1.9,14h-2.8l1.9-13.3
		c0.4-2.8-0.4-4.8-3.8-4.8c-2.7,0-5.3,1.7-6.7,2.7L168.9,59.2z"/>
	<path class="st2" d="M201.3,57.2L201.3,57.2c-1.8,1.4-4.4,2.4-6.9,2.4c-5.6,0-6.8-4.6-6-10.5c0.8-5.9,3.5-10.5,9.1-10.5
		c2.4,0,4.7,0.9,6.1,2.3h0.1l0.8-2h2.2l-2.9,20.2H201L201.3,57.2z M195.9,57.3c2.5,0,4.7-1.2,5.7-1.9l1.7-12.3
		c-0.8-0.8-2.7-1.9-5.2-1.9c-4.4,0-6.1,3.8-6.7,8.1C190.8,53.5,191.5,57.3,195.9,57.3z"/>
	<path class="st2" d="M211.6,59.2h-2.8l2.8-20.2h2.8L214,42h0.1c2.3-2,5-3.3,7.9-3.3c4,0,5.7,2.3,5.1,6.6l-1.9,14h-2.8l1.9-13.3
		c0.4-2.8-0.4-4.8-3.8-4.8c-2.7,0-5.3,1.7-6.7,2.7L211.6,59.2z"/>
	<path class="st2" d="M242.3,38.7c2.5,0,4.3,0.3,6.6,0.9l-0.8,2.3C245,41,243.3,41,242,41c-4.8,0-7.1,3.5-7.8,8.1
		c-0.7,4.6,0.7,8.1,5.5,8.1c1.3,0,3,0,6.3-0.8l0.2,2.3c-2.5,0.6-4.4,0.9-6.9,0.9c-7.1,0-9-4.3-8.1-10.5
		C232.1,42.9,235.1,38.7,242.3,38.7z"/>
	<path class="st2" d="M255.2,39.1l-2.8,20.2h-2.8l2.8-20.2H255.2z M256.2,31.8l-0.6,4.8h-2.8l0.6-4.8H256.2z"/>
	<path class="st2" d="M260.1,59.2h-2.8l2.8-20.2h2.8l-0.4,2.9h0.1c2.3-2,5-3.3,7.9-3.3c4,0,5.7,2.3,5.1,6.6l-1.9,14h-2.8l1.9-13.3
		c0.4-2.8-0.4-4.8-3.8-4.8c-2.7,0-5.3,1.7-6.7,2.7L260.1,59.2z"/>
	<path class="st2" d="M292.6,57.2L292.6,57.2c-1.8,1.4-4.4,2.4-6.9,2.4c-5.6,0-6.8-4.6-6-10.5c0.8-5.9,3.5-10.5,9.1-10.5
		c2.4,0,4.7,0.9,6.1,2.3h0.1l0.8-2h2.2l-2.8,19.6c-0.8,5.6-3.8,9.2-10.9,9.2c-2.5,0-4.3-0.3-6.7-0.9l0.8-2.3
		c3.1,0.8,4.8,0.8,6.1,0.8c4.8,0,7.1-2.1,7.8-6.8L292.6,57.2z M287.1,57.3c2.5,0,4.7-1.2,5.7-1.9l1.7-12.3c-0.8-0.8-2.7-1.9-5.2-1.9
		c-4.4,0-6.1,3.8-6.7,8.1C282,53.5,282.7,57.3,287.1,57.3z"/>
	<path class="st2" d="M308.3,49.1c0.9-6.2,3.9-10.5,10.5-10.5c6.6,0,8.4,4.3,7.6,10.5c-0.9,6.2-4,10.5-10.5,10.5
		S307.4,55.4,308.3,49.1z M311.3,49.1c-0.6,4.5,0.2,8.1,4.9,8.1c4.7,0,6.5-3.6,7.2-8.1c0.6-4.5-0.2-8.1-4.9-8.1
		S311.9,44.7,311.3,49.1z"/>
	<path class="st2" d="M345.9,39.1h2.8l-2.8,20.2h-2.8l0.4-2.9h-0.1c-2.3,1.9-5,3.3-8,3.3c-4,0-5.7-2.3-5.1-6.6l1.9-14h2.8l-1.9,13.3
		c-0.4,2.8,0.4,4.8,3.8,4.8c2.7,0,5.2-1.7,6.7-2.7L345.9,39.1z"/>
	<path class="st2" d="M353.7,59.2h-2.8l2.8-20.2h2.8l-0.4,3.2h0.1c2.1-1.8,5.2-3.6,8.4-3.6l-0.4,2.7c-3.2,0-6.6,1.6-8.4,2.7
		L353.7,59.2z"/>
	<path class="st2" d="M393.6,34.5h-13.7l-1.4,10h11.8l-0.3,2.7h-11.9l-1.7,12.1h-3l3.8-27.4h16.7L393.6,34.5z"/>
	<path class="st2" d="M399,39.1l-2.8,20.2h-2.8l2.8-20.2H399z M400,31.8l-0.6,4.8h-2.8l0.6-4.8H400z"/>
	<path class="st2" d="M405.2,41.1H402l0.2-1.9l3.2-0.2l1.1-5.6h2.5l-0.8,5.6h6l-0.3,2.1h-5.9l-1.7,11.7c-0.4,2.9,0.2,4.5,3.1,4.5
		c0.6,0,1.2,0,2.2-0.2l0,2.2c-1.1,0.2-2.5,0.3-3.4,0.3c-3.9,0-5.4-1.6-4.7-6.3L405.2,41.1z"/>
	<path class="st2" d="M419,59.2h-2.8l2.8-20.2h2.8l-0.4,2.9h0.1c2.3-2,5-3.3,7.9-3.3c4,0,5.7,2.3,5.1,6.6l-1.9,14h-2.8l1.9-13.3
		c0.4-2.8-0.4-4.8-3.8-4.8c-2.7,0-5.3,1.7-6.7,2.7L419,59.2z"/>
	<path class="st2" d="M441.6,49.5c-0.6,4.5,0.8,7.7,6.1,7.7c2.1,0,4.1-0.1,6.4-0.8l0.1,2.3c-2.5,0.7-4.6,0.9-7.2,0.9
		c-7.3,0-9.3-4.3-8.4-10.5c0.9-6.2,4-10.5,11.1-10.5c6.3,0,7.3,3.9,6.9,7.3c-0.1,1.2-0.4,2.4-0.8,3.6H441.6z M441.8,47.7h11.5
		c0.3-0.8,0.4-1.6,0.5-2.4c0.2-2.3-0.9-4.4-4.5-4.4C444.6,40.9,442.7,43.9,441.8,47.7z"/>
	<path class="st2" d="M466.7,59.6c-3.1,0-5.9-0.3-8.3-0.9l0.8-2.3c3.1,0.8,6.1,0.9,7.5,0.9c4.3,0,5-2.7,5.2-3.5
		c0.2-1.5-0.5-2.7-4.6-3.5c-4-0.8-7.1-2.1-6.5-6.2c0.5-3.6,3.3-5.4,8-5.4c3.1,0,5.4,0.3,7.7,0.9l-0.8,2.3c-3.1-0.8-5.7-0.9-7.1-0.9
		c-4.2,0-4.9,2.4-5,3.1c-0.2,1.5,0.3,2.8,4.4,3.6c4.3,0.9,7.3,2.1,6.7,6C474.2,57.5,471.4,59.6,466.7,59.6z"/>
	<path class="st2" d="M486.1,59.6c-3.1,0-5.9-0.3-8.3-0.9l0.8-2.3c3.1,0.8,6.1,0.9,7.5,0.9c4.3,0,5-2.7,5.2-3.5
		c0.2-1.5-0.5-2.7-4.6-3.5c-4-0.8-7.1-2.1-6.5-6.2c0.5-3.6,3.3-5.4,8-5.4c3.1,0,5.4,0.3,7.7,0.9l-0.8,2.3C492,41,489.4,41,488,41
		c-4.2,0-4.9,2.4-5,3.1c-0.2,1.5,0.3,2.8,4.4,3.6c4.3,0.9,7.3,2.1,6.7,6C493.6,57.5,490.7,59.6,486.1,59.6z"/>
	<path class="st2" d="M509.1,41.1h-3.2l0.2-1.9l3.2-0.2l1.1-5.6h2.5l-0.8,5.6h6l-0.3,2.1h-5.9l-1.7,11.7c-0.4,2.9,0.2,4.5,3.1,4.5
		c0.6,0,1.2,0,2.2-0.2l0,2.2c-1.1,0.2-2.5,0.3-3.4,0.3c-3.9,0-5.4-1.6-4.7-6.3L509.1,41.1z"/>
	<path class="st2" d="M518.9,49.1c0.9-6.2,3.9-10.5,10.5-10.5c6.6,0,8.4,4.3,7.6,10.5c-0.9,6.2-4,10.5-10.5,10.5
		S518,55.4,518.9,49.1z M521.8,49.1c-0.6,4.5,0.2,8.1,4.9,8.1s6.5-3.6,7.2-8.1c0.6-4.5-0.2-8.1-4.9-8.1
		C524.3,41,522.4,44.7,521.8,49.1z"/>
	<path class="st2" d="M561.1,34.5l-3.5,24.8h-3l3.5-24.8h-7.7l0.4-2.7h18.5l-0.4,2.7H561.1z"/>
	<path class="st2" d="M567.2,49.5c-0.6,4.5,0.8,7.7,6.1,7.7c2.1,0,4.1-0.1,6.4-0.8l0.1,2.3c-2.5,0.7-4.6,0.9-7.2,0.9
		c-7.3,0-9.3-4.3-8.4-10.5c0.9-6.2,4-10.5,11.1-10.5c6.3,0,7.3,3.9,6.9,7.3c-0.1,1.2-0.4,2.4-0.8,3.6H567.2z M567.4,47.7h11.5
		c0.3-0.8,0.4-1.6,0.5-2.4c0.2-2.3-0.9-4.4-4.5-4.4C570.2,40.9,568.3,43.9,567.4,47.7z"/>
	<path class="st2" d="M598.5,57.2L598.5,57.2c-1.8,1.4-4.4,2.4-6.9,2.4c-5.6,0-6.8-4.6-6-10.5c0.8-5.9,3.5-10.5,9.1-10.5
		c2.4,0,4.7,0.9,6.1,2.3h0.1l0.8-2h2.2L601,59.2h-2.8L598.5,57.2z M593,57.3c2.5,0,4.7-1.2,5.7-1.9l1.7-12.3
		c-0.8-0.8-2.7-1.9-5.2-1.9c-4.4,0-6.1,3.8-6.7,8.1C587.9,53.5,588.6,57.3,593,57.3z"/>
	<path class="st2" d="M618,38.7c2.5,0,4.3,0.3,6.6,0.9l-0.8,2.3c-3.1-0.8-4.8-0.8-6.1-0.8c-4.8,0-7.1,3.5-7.8,8.1
		c-0.7,4.6,0.7,8.1,5.5,8.1c1.3,0,3,0,6.3-0.8l0.2,2.3c-2.5,0.6-4.4,0.9-6.9,0.9c-7.1,0-9-4.3-8.1-10.5
		C607.8,42.9,610.9,38.7,618,38.7z"/>
	<path class="st2" d="M628.1,59.2h-2.8l4-28.2h2.8l-1.5,11h0.1c2.3-2,5-3.3,7.9-3.3c4,0,5.7,2.3,5.1,6.6l-1.9,14h-2.8l1.9-13.3
		c0.4-2.8-0.4-4.8-3.8-4.8c-2.7,0-5.3,1.7-6.7,2.7L628.1,59.2z"/>
</g>
<g>
	<path class="st2" d="M127.4,89.5L127.4,89.5c1.8-1.4,4.3-2.4,6.8-2.4c5.6,0,6.9,4.6,6.1,10.5c-0.8,5.9-3.5,10.5-9.2,10.5
		c-2.5,0-4.6-0.9-5.9-2.3h-0.1l-1.5,10h-2.8l4-28.2h2.8L127.4,89.5z M132.9,89.4c-2.5,0-4.7,1.2-5.7,1.9l-1.7,12.3
		c0.8,0.8,2.7,1.9,5.2,1.9c4.4,0,6.1-3.8,6.7-8.1C138,93.2,137.3,89.4,132.9,89.4z"/>
	<path class="st2" d="M146.3,107.6h-2.8l2.8-20.2h2.8l-0.4,3.2h0.1c2.1-1.8,5.2-3.6,8.4-3.6l-0.4,2.7c-3.2,0-6.6,1.6-8.4,2.7
		L146.3,107.6z"/>
	<path class="st2" d="M156.6,97.5c0.9-6.2,3.9-10.5,10.5-10.5c6.6,0,8.4,4.3,7.6,10.5c-0.9,6.2-4,10.5-10.5,10.5
		S155.8,103.8,156.6,97.5z M159.6,97.5c-0.6,4.5,0.2,8.1,4.9,8.1c4.7,0,6.5-3.6,7.2-8.1c0.6-4.5-0.2-8.1-4.9-8.1
		S160.2,93.1,159.6,97.5z"/>
	<path class="st2" d="M189.9,87.1c2.5,0,4.3,0.3,6.6,0.9l-0.8,2.3c-3.1-0.8-4.8-0.8-6.1-0.8c-4.8,0-7.1,3.5-7.8,8.1
		c-0.7,4.6,0.7,8.1,5.5,8.1c1.3,0,3,0,6.3-0.8l0.2,2.3c-2.5,0.6-4.4,0.9-6.9,0.9c-7.1,0-9-4.3-8.1-10.5
		C179.7,91.3,182.8,87.1,189.9,87.1z"/>
	<path class="st2" d="M199.9,97.9c-0.6,4.5,0.8,7.7,6.1,7.7c2.1,0,4.1-0.1,6.4-0.8l0.1,2.3c-2.5,0.7-4.6,0.9-7.2,0.9
		c-7.3,0-9.3-4.3-8.4-10.5c0.9-6.2,4-10.5,11.1-10.5c6.3,0,7.3,3.9,6.9,7.3c-0.1,1.2-0.4,2.4-0.8,3.6H199.9z M200.1,96.1h11.5
		c0.3-0.8,0.4-1.6,0.5-2.4c0.2-2.3-0.9-4.4-4.5-4.4C202.9,89.3,201,92.3,200.1,96.1z"/>
	<path class="st2" d="M225,108c-3.1,0-5.9-0.3-8.3-0.9l0.8-2.3c3.1,0.8,6.1,0.9,7.5,0.9c4.3,0,5-2.7,5.2-3.5
		c0.2-1.5-0.5-2.7-4.6-3.5c-4-0.8-7.1-2.1-6.5-6.2c0.5-3.6,3.3-5.4,8-5.4c3.1,0,5.4,0.3,7.7,0.9l-0.8,2.3c-3.1-0.8-5.7-0.9-7.1-0.9
		c-4.2,0-4.9,2.4-5,3.1c-0.2,1.5,0.3,2.8,4.4,3.6c4.3,0.9,7.3,2.1,6.7,6C232.5,105.9,229.7,108,225,108z"/>
	<path class="st2" d="M244.4,108c-3.1,0-5.9-0.3-8.3-0.9l0.8-2.3c3.1,0.8,6.1,0.9,7.5,0.9c4.3,0,5-2.7,5.2-3.5
		c0.2-1.5-0.5-2.7-4.6-3.5c-4-0.8-7.1-2.1-6.5-6.2c0.5-3.6,3.3-5.4,8-5.4c3.1,0,5.4,0.3,7.7,0.9l-0.8,2.3c-3.1-0.8-5.7-0.9-7.1-0.9
		c-4.2,0-4.9,2.4-5,3.1c-0.2,1.5,0.3,2.8,4.4,3.6c4.3,0.9,7.3,2.1,6.7,6C251.9,105.9,249.1,108,244.4,108z"/>
	<path class="st2" d="M268.9,87.5l-2.8,20.2h-2.8l2.8-20.2H268.9z M269.9,80.2l-0.6,4.8h-2.8l0.6-4.8H269.9z"/>
	<path class="st2" d="M278.7,108c-3.1,0-5.9-0.3-8.3-0.9l0.8-2.3c3.1,0.8,6.1,0.9,7.5,0.9c4.3,0,5-2.7,5.2-3.5
		c0.2-1.5-0.5-2.7-4.6-3.5c-4-0.8-7.1-2.1-6.5-6.2c0.5-3.6,3.3-5.4,8-5.4c3.1,0,5.4,0.3,7.7,0.9l-0.8,2.3c-3.1-0.8-5.7-0.9-7.1-0.9
		c-4.2,0-4.9,2.4-5,3.1c-0.2,1.5,0.3,2.8,4.4,3.6c4.3,0.9,7.3,2.1,6.7,6C286.2,105.9,283.4,108,278.7,108z"/>
	<path class="st2" d="M309.7,87.1c2.5,0,4.3,0.3,6.6,0.9l-0.8,2.3c-3.1-0.8-4.8-0.8-6.1-0.8c-4.8,0-7.1,3.5-7.8,8.1
		c-0.7,4.6,0.7,8.1,5.5,8.1c1.3,0,3,0,6.3-0.8l0.2,2.3c-2.5,0.6-4.4,0.9-6.9,0.9c-7.1,0-9-4.3-8.1-10.5
		C299.5,91.3,302.6,87.1,309.7,87.1z"/>
	<path class="st2" d="M319.7,97.9c-0.6,4.5,0.8,7.7,6.1,7.7c2.1,0,4.1-0.1,6.4-0.8l0.1,2.3c-2.5,0.7-4.6,0.9-7.2,0.9
		c-7.3,0-9.3-4.3-8.4-10.5c0.9-6.2,4-10.5,11.1-10.5c6.3,0,7.3,3.9,6.9,7.3c-0.1,1.2-0.4,2.4-0.8,3.6H319.7z M319.9,96.1h11.5
		c0.3-0.8,0.4-1.6,0.5-2.4c0.2-2.3-0.9-4.4-4.5-4.4C322.7,89.3,320.8,92.3,319.9,96.1z"/>
	<path class="st2" d="M339.9,107.6h-2.8l2.8-20.2h2.8l-0.4,2.9h0.1c2.3-2,5-3.3,7.9-3.3c4,0,5.7,2.3,5.1,6.6l-1.9,14h-2.8l1.9-13.3
		c0.4-2.8-0.4-4.8-3.8-4.8c-2.7,0-5.3,1.7-6.7,2.7L339.9,107.6z"/>
	<path class="st2" d="M362.6,89.5h-3.2l0.2-1.9l3.2-0.2l1.1-5.6h2.5l-0.8,5.6h6l-0.3,2.1h-5.9l-1.7,11.7c-0.4,2.9,0.2,4.5,3.1,4.5
		c0.6,0,1.2,0,2.2-0.2l0,2.2c-1.1,0.2-2.5,0.3-3.4,0.3c-3.9,0-5.4-1.6-4.7-6.3L362.6,89.5z"/>
	<path class="st2" d="M376.4,107.6h-2.8l2.8-20.2h2.8l-0.4,3.2h0.1c2.1-1.8,5.2-3.6,8.4-3.6l-0.4,2.7c-3.2,0-6.6,1.6-8.4,2.7
		L376.4,107.6z"/>
	<path class="st2" d="M399.7,105.6L399.7,105.6c-1.8,1.4-4.4,2.4-6.9,2.4c-5.6,0-6.8-4.6-6-10.5c0.8-5.9,3.5-10.5,9.1-10.5
		c2.4,0,4.7,0.9,6.1,2.3h0.1l0.8-2h2.2l-2.9,20.2h-2.8L399.7,105.6z M394.2,105.7c2.5,0,4.7-1.2,5.7-1.9l1.7-12.3
		c-0.8-0.8-2.7-1.9-5.2-1.9c-4.4,0-6.1,3.8-6.7,8.1C389.1,101.9,389.9,105.7,394.2,105.7z"/>
	<path class="st2" d="M411.1,79.4h2.8l-4,28.2h-2.8L411.1,79.4z"/>
	<path class="st2" d="M426.3,89.5h-3.2l0.2-1.9l3.2-0.2l1.1-5.6h2.5l-0.8,5.6h6l-0.3,2.1h-5.9l-1.7,11.7c-0.4,2.9,0.2,4.5,3.1,4.5
		c0.6,0,1.2,0,2.2-0.2l0,2.2c-1.1,0.2-2.5,0.3-3.4,0.3c-3.9,0-5.4-1.6-4.7-6.3L426.3,89.5z"/>
	<path class="st2" d="M436.1,97.5c0.9-6.2,3.9-10.5,10.5-10.5c6.6,0,8.4,4.3,7.6,10.5c-0.9,6.2-4,10.5-10.5,10.5
		S435.2,103.8,436.1,97.5z M439.1,97.5c-0.6,4.5,0.2,8.1,4.9,8.1c4.7,0,6.5-3.6,7.2-8.1c0.6-4.5-0.2-8.1-4.9-8.1
		C441.6,89.4,439.7,93.1,439.1,97.5z"/>
	<path class="st2" d="M467.4,107.6h-2.8l2.8-20.2h2.8l-0.4,2.9h0.1c1.9-1.7,4.2-3.3,7.2-3.3c2.9,0,4.7,1.2,5.1,3.6
		c2.1-2,4.9-3.6,7.8-3.6c4,0,5.7,2.3,5.1,6.6l-1.9,14h-2.8l1.9-13.3c0.4-2.8-0.4-4.8-3.8-4.8c-2.4,0-4.6,1.7-6.1,2.8
		c0,0.6-0.1,1.4-0.2,2.2l-1.9,13.2h-2.8l1.9-13.5c0.3-2.7-0.5-4.7-3.8-4.7c-2.4,0-4.5,1.6-6,2.7L467.4,107.6z"/>
	<path class="st2" d="M512,105.6L512,105.6c-1.8,1.4-4.4,2.4-6.9,2.4c-5.6,0-6.8-4.6-6-10.5c0.8-5.9,3.5-10.5,9.1-10.5
		c2.4,0,4.7,0.9,6.1,2.3h0.1l0.8-2h2.2l-2.9,20.2h-2.8L512,105.6z M506.5,105.7c2.5,0,4.7-1.2,5.7-1.9l1.7-12.3
		c-0.8-0.8-2.7-1.9-5.2-1.9c-4.4,0-6.1,3.8-6.7,8.1C501.4,101.9,502.1,105.7,506.5,105.7z"/>
	<path class="st2" d="M525.1,87.5l-2.8,20.2h-2.8l2.8-20.2H525.1z M526.1,80.2l-0.6,4.8h-2.8l0.6-4.8H526.1z"/>
	<path class="st2" d="M530,107.6h-2.8l2.8-20.2h2.8l-0.4,2.9h0.1c2.3-2,5-3.3,7.9-3.3c4,0,5.7,2.3,5.1,6.6l-1.9,14h-2.8l1.9-13.3
		c0.4-2.8-0.4-4.8-3.8-4.8c-2.7,0-5.3,1.7-6.7,2.7L530,107.6z"/>
	<path class="st2" d="M552.7,89.5h-3.2l0.2-1.9l3.2-0.2l1.1-5.6h2.5l-0.8,5.6h6l-0.3,2.1h-5.9l-1.7,11.7c-0.4,2.9,0.2,4.5,3.1,4.5
		c0.6,0,1.2,0,2.2-0.2l0,2.2c-1.1,0.2-2.5,0.3-3.4,0.3c-3.9,0-5.4-1.6-4.7-6.3L552.7,89.5z"/>
	<path class="st2" d="M575.4,105.6L575.4,105.6c-1.8,1.4-4.4,2.4-6.9,2.4c-5.6,0-6.8-4.6-6-10.5c0.8-5.9,3.5-10.5,9.1-10.5
		c2.4,0,4.7,0.9,6.1,2.3h0.1l0.8-2h2.2l-2.9,20.2H575L575.4,105.6z M569.9,105.7c2.5,0,4.7-1.2,5.7-1.9l1.7-12.3
		c-0.8-0.8-2.7-1.9-5.2-1.9c-4.4,0-6.1,3.8-6.7,8.1C564.8,101.9,565.5,105.7,569.9,105.7z"/>
	<path class="st2" d="M588.5,87.5l-2.8,20.2h-2.8l2.8-20.2H588.5z M589.5,80.2l-0.6,4.8H586l0.6-4.8H589.5z"/>
	<path class="st2" d="M593.4,107.6h-2.8l2.8-20.2h2.8l-0.4,2.9h0.1c2.3-2,5-3.3,7.9-3.3c4,0,5.7,2.3,5.1,6.6l-1.9,14h-2.8l1.9-13.3
		c0.4-2.8-0.4-4.8-3.8-4.8c-2.7,0-5.3,1.7-6.7,2.7L593.4,107.6z"/>
	<path class="st2" d="M617.6,87.5l-2.8,20.2h-2.8l2.8-20.2H617.6z M618.6,80.2L618,85h-2.8l0.6-4.8H618.6z"/>
	<path class="st2" d="M622.5,107.6h-2.8l2.8-20.2h2.8l-0.4,2.9h0.1c2.3-2,5-3.3,7.9-3.3c4,0,5.7,2.3,5.1,6.6l-1.9,14h-2.8l1.9-13.3
		c0.4-2.8-0.4-4.8-3.8-4.8c-2.7,0-5.3,1.7-6.7,2.7L622.5,107.6z"/>
	<path class="st2" d="M655,105.6L655,105.6c-1.8,1.4-4.4,2.4-6.9,2.4c-5.6,0-6.8-4.6-6-10.5c0.8-5.9,3.5-10.5,9.1-10.5
		c2.4,0,4.7,0.9,6.1,2.3h0.1l0.8-2h2.2l-2.8,19.6c-0.8,5.6-3.8,9.2-10.9,9.2c-2.5,0-4.3-0.3-6.7-0.9l0.8-2.3
		c3.1,0.8,4.8,0.8,6.1,0.8c4.8,0,7.1-2.1,7.8-6.8L655,105.6z M649.5,105.7c2.5,0,4.7-1.2,5.7-1.9l1.7-12.3c-0.8-0.8-2.7-1.9-5.2-1.9
		c-4.4,0-6.1,3.8-6.7,8.1C644.4,101.9,645.1,105.7,649.5,105.7z"/>
	<path class="st2" d="M675.1,89.5L675.1,89.5c1.8-1.4,4.3-2.4,6.8-2.4c5.6,0,6.9,4.6,6.1,10.5c-0.8,5.9-3.5,10.5-9.2,10.5
		c-2.5,0-4.6-0.9-5.9-2.3h-0.1l-1.5,10h-2.8l4-28.2h2.8L675.1,89.5z M680.5,89.4c-2.5,0-4.7,1.2-5.7,1.9l-1.7,12.3
		c0.8,0.8,2.7,1.9,5.2,1.9c4.4,0,6.1-3.8,6.7-8.1C685.6,93.2,684.9,89.4,680.5,89.4z"/>
	<path class="st2" d="M707.5,87.5h2.8l-2.8,20.2h-2.8l0.4-2.9H705c-2.3,1.9-5,3.3-8,3.3c-4,0-5.7-2.3-5.1-6.6l1.9-14h2.8l-1.9,13.3
		c-0.4,2.8,0.4,4.8,3.8,4.8c2.7,0,5.2-1.7,6.7-2.7L707.5,87.5z"/>
	<path class="st2" d="M717.8,89.5L717.8,89.5c1.8-1.4,4.3-2.4,6.8-2.4c5.6,0,6.9,4.6,6.1,10.5c-0.8,5.9-3.5,10.5-9.2,10.5
		c-2.5,0-4.7-0.9-6.1-2.3h-0.1l-0.8,2h-2.2l4-28.3h2.8L717.8,89.5z M723.3,89.4c-2.5,0-4.7,1.2-5.7,1.9l-1.7,12.3
		c0.8,0.8,2.7,1.9,5.2,1.9c4.4,0,6.1-3.8,6.7-8.1C728.3,93.2,727.7,89.4,723.3,89.4z"/>
	<path class="st2" d="M737.8,79.4h2.8l-4,28.2h-2.8L737.8,79.4z"/>
	<path class="st2" d="M747.2,87.5l-2.8,20.2h-2.8l2.8-20.2H747.2z M748.2,80.2l-0.6,4.8h-2.8l0.6-4.8H748.2z"/>
	<path class="st2" d="M761.4,87.1c2.5,0,4.3,0.3,6.6,0.9l-0.8,2.3c-3.1-0.8-4.8-0.8-6.1-0.8c-4.8,0-7.1,3.5-7.8,8.1
		c-0.7,4.6,0.7,8.1,5.5,8.1c1.3,0,3,0,6.3-0.8l0.2,2.3c-2.5,0.6-4.4,0.9-6.9,0.9c-7.1,0-9-4.3-8.1-10.5
		C751.2,91.3,754.3,87.1,761.4,87.1z"/>
</g>
<g>
	<path class="st2" d="M134.2,135.5c2.5,0,4.3,0.3,6.6,0.9l-0.8,2.3c-3.1-0.8-4.8-0.8-6.1-0.8c-4.8,0-7.1,3.5-7.8,8.1
		c-0.7,4.6,0.7,8.1,5.5,8.1c1.3,0,3,0,6.3-0.8l0.2,2.3c-2.5,0.6-4.4,0.9-6.9,0.9c-7.1,0-9-4.3-8.1-10.5
		C124,139.7,127,135.5,134.2,135.5z"/>
	<path class="st2" d="M141.2,145.9c0.9-6.2,3.9-10.5,10.5-10.5c6.6,0,8.4,4.3,7.6,10.5c-0.9,6.2-4,10.5-10.5,10.5
		S140.3,152.2,141.2,145.9z M144.2,145.9c-0.6,4.5,0.2,8.1,4.9,8.1c4.7,0,6.5-3.6,7.2-8.1c0.6-4.5-0.2-8.1-4.9-8.1
		S144.8,141.5,144.2,145.9z"/>
	<path class="st2" d="M165.2,156h-2.8l2.8-20.2h2.8l-0.4,2.9h0.1c2.3-2,5-3.3,7.9-3.3c4,0,5.7,2.3,5.1,6.6l-1.9,14H176l1.9-13.3
		c0.4-2.8-0.4-4.8-3.8-4.8c-2.7,0-5.3,1.7-6.7,2.7L165.2,156z"/>
	<path class="st2" d="M188.3,134.6c0.7-4.7,3.3-6.8,8.2-6.8c1.4,0,4.5,0.4,6.6,1.3l-0.6,2.1c-2.2-0.9-4.6-1.1-6-1.1
		c-3.8,0-5,1.7-5.4,4.5l-0.2,1.3h11.9l-2.8,20.2h-2.8l2.5-18.1h-9.1l-3.7,26.2h-2.8l3.7-26.2h-3.2l0.2-1.9l3.2-0.2L188.3,134.6z"/>
	<path class="st2" d="M218.9,154C218.9,154,218.9,154,218.9,154c-1.8,1.4-4.4,2.4-6.9,2.4c-5.6,0-6.8-4.6-6-10.5
		c0.8-5.9,3.5-10.5,9.1-10.5c2.4,0,4.6,0.9,6,2.3c0,0,0,0,0.1,0l1.4-10h2.8l-4,28.2h-2.8L218.9,154z M213.4,154.1
		c2.5,0,4.7-1.2,5.7-1.9l1.7-12.3c-0.8-0.8-2.7-1.9-5.2-1.9c-4.4,0-6.1,3.8-6.7,8.1C208.4,150.3,209.1,154.1,213.4,154.1z"/>
	<path class="st2" d="M230.4,146.3c-0.6,4.5,0.8,7.7,6.1,7.7c2.1,0,4.1-0.1,6.4-0.8l0.1,2.3c-2.5,0.7-4.6,0.9-7.2,0.9
		c-7.3,0-9.3-4.3-8.4-10.5c0.9-6.2,4-10.5,11.1-10.5c6.3,0,7.3,3.9,6.9,7.3c-0.1,1.2-0.4,2.4-0.8,3.6H230.4z M230.6,144.5h11.5
		c0.3-0.8,0.4-1.6,0.5-2.4c0.2-2.3-0.9-4.4-4.5-4.4C233.4,137.7,231.5,140.7,230.6,144.5z"/>
	<path class="st2" d="M250.6,156h-2.8l2.8-20.2h2.8l-0.4,2.9h0.1c2.3-2,5-3.3,7.9-3.3c4,0,5.7,2.3,5.1,6.6l-1.9,14h-2.8l1.9-13.3
		c0.4-2.8-0.4-4.8-3.8-4.8c-2.7,0-5.3,1.7-6.7,2.7L250.6,156z"/>
	<path class="st2" d="M281.2,135.5c2.5,0,4.3,0.3,6.6,0.9l-0.8,2.3c-3.1-0.8-4.8-0.8-6.1-0.8c-4.8,0-7.1,3.5-7.8,8.1
		c-0.7,4.6,0.7,8.1,5.5,8.1c1.3,0,3,0,6.3-0.8l0.2,2.3c-2.5,0.6-4.4,0.9-6.9,0.9c-7.1,0-9-4.3-8.1-10.5
		C271,139.7,274.1,135.5,281.2,135.5z"/>
	<path class="st2" d="M291.2,146.3c-0.6,4.5,0.8,7.7,6.1,7.7c2.1,0,4.1-0.1,6.4-0.8l0.1,2.3c-2.5,0.7-4.6,0.9-7.2,0.9
		c-7.3,0-9.3-4.3-8.4-10.5c0.9-6.2,4-10.5,11.1-10.5c6.3,0,7.3,3.9,6.9,7.3c-0.1,1.2-0.4,2.4-0.8,3.6H291.2z M291.4,144.5h11.5
		c0.3-0.8,0.4-1.6,0.5-2.4c0.2-2.3-0.9-4.4-4.5-4.4C294.3,137.7,292.3,140.7,291.4,144.5z"/>
	<path class="st2" d="M321.5,135.9l-2.8,20.2h-2.8l2.8-20.2H321.5z M322.5,128.6l-0.6,4.8H319l0.6-4.8H322.5z"/>
	<path class="st2" d="M326.4,156h-2.8l2.8-20.2h2.8l-0.4,2.9h0.1c2.3-2,5-3.3,7.9-3.3c4,0,5.7,2.3,5.1,6.6l-1.9,14h-2.8l1.9-13.3
		c0.4-2.8-0.4-4.8-3.8-4.8c-2.7,0-5.3,1.7-6.7,2.7L326.4,156z"/>
	<path class="st2" d="M356.4,137.9h-3.2l0.2-1.9l3.2-0.2l1.1-5.6h2.5l-0.8,5.6h6l-0.3,2.1h-5.9l-1.7,11.7c-0.4,2.9,0.2,4.5,3.1,4.5
		c0.6,0,1.2,0,2.2-0.2l0,2.2c-1.1,0.2-2.5,0.3-3.4,0.3c-3.9,0-5.4-1.6-4.7-6.3L356.4,137.9z"/>
	<path class="st2" d="M370.2,156h-2.8l4-28.2h2.8l-1.5,11h0.1c2.3-2,5-3.3,7.9-3.3c4,0,5.7,2.3,5.1,6.6l-1.9,14H381l1.9-13.3
		c0.4-2.8-0.4-4.8-3.8-4.8c-2.7,0-5.3,1.7-6.7,2.7L370.2,156z"/>
	<path class="st2" d="M392.7,146.3c-0.6,4.5,0.8,7.7,6.1,7.7c2.1,0,4.1-0.1,6.4-0.8l0.1,2.3c-2.5,0.7-4.6,0.9-7.2,0.9
		c-7.3,0-9.3-4.3-8.4-10.5c0.9-6.2,4-10.5,11.1-10.5c6.3,0,7.3,3.9,6.9,7.3c-0.1,1.2-0.4,2.4-0.8,3.6H392.7z M393,144.5h11.5
		c0.3-0.8,0.4-1.6,0.5-2.4c0.2-2.3-0.9-4.4-4.5-4.4C395.8,137.7,393.8,140.7,393,144.5z"/>
	<path class="st2" d="M421.5,137.9h-3.2l0.2-1.9l3.2-0.2l1.1-5.6h2.5l-0.8,5.6h6l-0.3,2.1h-5.9l-1.7,11.7c-0.4,2.9,0.2,4.5,3.1,4.5
		c0.6,0,1.2,0,2.2-0.2l0,2.2c-1.1,0.2-2.5,0.3-3.4,0.3c-3.9,0-5.4-1.6-4.7-6.3L421.5,137.9z"/>
	<path class="st2" d="M434.3,146.3c-0.6,4.5,0.8,7.7,6.1,7.7c2.1,0,4.1-0.1,6.4-0.8l0.1,2.3c-2.5,0.7-4.6,0.9-7.2,0.9
		c-7.3,0-9.3-4.3-8.4-10.5c0.9-6.2,4-10.5,11.1-10.5c6.3,0,7.3,3.9,6.9,7.3c-0.1,1.2-0.4,2.4-0.8,3.6H434.3z M434.6,144.5H446
		c0.3-0.8,0.4-1.6,0.5-2.4c0.2-2.3-0.9-4.4-4.5-4.4C437.4,137.7,435.4,140.7,434.6,144.5z"/>
	<path class="st2" d="M465.6,154L465.6,154c-1.8,1.4-4.4,2.4-6.9,2.4c-5.6,0-6.8-4.6-6-10.5c0.8-5.9,3.5-10.5,9.1-10.5
		c2.4,0,4.7,0.9,6.1,2.3h0.1l0.8-2h2.2l-2.9,20.2h-2.8L465.6,154z M460.1,154.1c2.5,0,4.7-1.2,5.7-1.9l1.7-12.3
		c-0.8-0.8-2.7-1.9-5.2-1.9c-4.4,0-6.1,3.8-6.7,8.1C455,150.3,455.8,154.1,460.1,154.1z"/>
	<path class="st2" d="M485.2,135.5c2.5,0,4.3,0.3,6.6,0.9l-0.8,2.3c-3.1-0.8-4.8-0.8-6.1-0.8c-4.8,0-7.1,3.5-7.8,8.1
		c-0.7,4.6,0.7,8.1,5.5,8.1c1.3,0,3,0,6.3-0.8l0.2,2.3c-2.5,0.6-4.4,0.9-6.9,0.9c-7.1,0-9-4.3-8.1-10.5
		C475,139.7,478,135.5,485.2,135.5z"/>
	<path class="st2" d="M495.3,156h-2.8l4-28.2h2.8l-1.5,11h0.1c2.3-2,5-3.3,7.9-3.3c4,0,5.7,2.3,5.1,6.6l-1.9,14h-2.8l1.9-13.3
		c0.4-2.8-0.4-4.8-3.8-4.8c-2.7,0-5.3,1.7-6.7,2.7L495.3,156z"/>
	<path class="st2" d="M519.5,135.9l-2.8,20.2h-2.8l2.8-20.2H519.5z M520.5,128.6l-0.6,4.8H517l0.6-4.8H520.5z"/>
	<path class="st2" d="M524.4,156h-2.8l2.8-20.2h2.8l-0.4,2.9h0.1c2.3-2,5-3.3,7.9-3.3c4,0,5.7,2.3,5.1,6.6l-1.9,14h-2.8l1.9-13.3
		c0.4-2.8-0.4-4.8-3.8-4.8c-2.7,0-5.3,1.7-6.7,2.7L524.4,156z"/>
	<path class="st2" d="M556.8,154L556.8,154c-1.8,1.4-4.4,2.4-6.9,2.4c-5.6,0-6.8-4.6-6-10.5c0.8-5.9,3.5-10.5,9.1-10.5
		c2.4,0,4.7,0.9,6.1,2.3h0.1l0.8-2h2.2l-2.8,19.6c-0.8,5.6-3.8,9.2-10.9,9.2c-2.5,0-4.3-0.3-6.7-0.9l0.8-2.3
		c3.1,0.8,4.8,0.8,6.1,0.8c4.8,0,7.1-2.1,7.8-6.8L556.8,154z M551.4,154.1c2.5,0,4.7-1.2,5.7-1.9l1.7-12.3c-0.8-0.8-2.7-1.9-5.2-1.9
		c-4.4,0-6.1,3.8-6.7,8.1C546.3,150.3,547,154.1,551.4,154.1z"/>
	<path class="st2" d="M576.9,137.9L576.9,137.9c1.8-1.4,4.3-2.4,6.8-2.4c5.6,0,6.9,4.6,6.1,10.5c-0.8,5.9-3.5,10.5-9.2,10.5
		c-2.5,0-4.6-0.9-5.9-2.3h-0.1l-1.5,10h-2.8l4-28.2h2.8L576.9,137.9z M582.4,137.8c-2.5,0-4.7,1.2-5.7,1.9l-1.7,12.3
		c0.8,0.8,2.7,1.9,5.2,1.9c4.4,0,6.1-3.8,6.7-8.1C587.5,141.6,586.8,137.8,582.4,137.8z"/>
	<path class="st2" d="M595.8,156h-2.8l2.8-20.2h2.8l-0.4,3.2h0.1c2.1-1.8,5.2-3.6,8.4-3.6l-0.4,2.7c-3.2,0-6.6,1.6-8.4,2.7
		L595.8,156z"/>
	<path class="st2" d="M606.2,145.9c0.9-6.2,3.9-10.5,10.5-10.5c6.6,0,8.4,4.3,7.6,10.5c-0.9,6.2-4,10.5-10.5,10.5
		C607.1,156.4,605.3,152.2,606.2,145.9z M609.2,145.9c-0.6,4.5,0.2,8.1,4.9,8.1c4.7,0,6.5-3.6,7.2-8.1c0.6-4.5-0.2-8.1-4.9-8.1
		S609.8,141.5,609.2,145.9z"/>
	<path class="st2" d="M634.6,135.9h5.2l-0.3,2.1h-5.1l-3.7,26.2h-2.8l3.7-26.2h-3.2l0.2-1.9l3.2-0.2l0.4-2.7
		c0.5-3.8,2.2-5.3,6.3-5.3c0.9,0,2,0.1,3,0.3l-0.6,2.2c-0.9-0.2-1.6-0.2-2.2-0.2c-2.6,0-3.5,0.8-3.8,3.3L634.6,135.9z"/>
	<path class="st2" d="M642.8,146.3c-0.6,4.5,0.8,7.7,6.1,7.7c2.1,0,4.1-0.1,6.4-0.8l0.1,2.3c-2.5,0.7-4.6,0.9-7.2,0.9
		c-7.3,0-9.3-4.3-8.4-10.5c0.9-6.2,4-10.5,11.1-10.5c6.3,0,7.3,3.9,6.9,7.3c-0.1,1.2-0.4,2.4-0.8,3.6H642.8z M643,144.5h11.5
		c0.3-0.8,0.4-1.6,0.5-2.4c0.2-2.3-0.9-4.4-4.5-4.4C645.9,137.7,643.9,140.7,643,144.5z"/>
	<path class="st2" d="M667.9,156.4c-3.1,0-5.9-0.3-8.3-0.9l0.8-2.3c3.1,0.8,6.1,0.9,7.5,0.9c4.3,0,5-2.7,5.2-3.5
		c0.2-1.5-0.5-2.7-4.6-3.5c-4-0.8-7.1-2.1-6.5-6.2c0.5-3.6,3.3-5.4,8-5.4c3.1,0,5.4,0.3,7.7,0.9l-0.8,2.3c-3.1-0.8-5.7-0.9-7.1-0.9
		c-4.2,0-4.9,2.4-5,3.1c-0.2,1.5,0.3,2.8,4.4,3.6c4.3,0.9,7.3,2.1,6.7,6C675.4,154.3,672.6,156.4,667.9,156.4z"/>
	<path class="st2" d="M687.3,156.4c-3.1,0-5.9-0.3-8.3-0.9l0.8-2.3c3.1,0.8,6.1,0.9,7.5,0.9c4.3,0,5-2.7,5.2-3.5
		c0.2-1.5-0.5-2.7-4.6-3.5c-4-0.8-7.1-2.1-6.5-6.2c0.5-3.6,3.3-5.4,8-5.4c3.1,0,5.4,0.3,7.7,0.9l-0.8,2.3c-3.1-0.8-5.7-0.9-7.1-0.9
		c-4.2,0-4.9,2.4-5,3.1c-0.2,1.5,0.3,2.8,4.4,3.6c4.3,0.9,7.3,2.1,6.7,6C694.8,154.3,692,156.4,687.3,156.4z"/>
	<path class="st2" d="M704.6,135.9l-2.8,20.2h-2.8l2.8-20.2H704.6z M705.6,128.6l-0.6,4.8h-2.8l0.6-4.8H705.6z"/>
	<path class="st2" d="M707.7,145.9c0.9-6.2,3.9-10.5,10.5-10.5c6.6,0,8.4,4.3,7.6,10.5c-0.9,6.2-4,10.5-10.5,10.5
		S706.8,152.2,707.7,145.9z M710.6,145.9c-0.6,4.5,0.2,8.1,4.9,8.1c4.7,0,6.5-3.6,7.2-8.1c0.6-4.5-0.2-8.1-4.9-8.1
		C713.1,137.8,711.2,141.5,710.6,145.9z"/>
	<path class="st2" d="M731.7,156h-2.8l2.8-20.2h2.8l-0.4,2.9h0.1c2.3-2,5-3.3,7.9-3.3c4,0,5.7,2.3,5.1,6.6l-1.9,14h-2.8l1.9-13.3
		c0.4-2.8-0.4-4.8-3.8-4.8c-2.7,0-5.3,1.7-6.7,2.7L731.7,156z"/>
	<path class="st2" d="M753.7,151.1L753,156h-2.8l0.7-4.9H753.7z"/>
</g>
<g>
	<path class="st2" d="M138.2,191.8h-11.5v5.2h9.9v4.4h-9.9v6h11.7v4.4h-16.7v-24.4h16.5V191.8z"/>
	<path class="st2" d="M142.3,211.8v-24.4h9.1c8.4,0,10.8,5.1,10.8,12c0,7-2.4,12.4-10.8,12.4H142.3z M151.4,207.4
		c4.6,0,5.6-3.2,5.6-8s-1-7.6-5.6-7.6h-4.2v15.6H151.4z"/>
	<path class="st2" d="M165.6,211.8v-24.4h4.9v24.4H165.6z"/>
	<path class="st2" d="M185.4,191.8v20h-4.9v-20h-6.4v-4.4h17.8v4.4H185.4z"/>
	<path class="st2" d="M195.4,211.8v-24.4h4.9v9.6h9.3v-9.6h4.9v24.4h-4.9v-10.4h-9.3v10.4H195.4z"/>
	<path class="st2" d="M224.9,210.8l0.9-4.1c3.8,0.9,6.5,1.1,8.4,1.1c2.5,0,4-1.1,4-2.8c0-2.3-2.8-2.7-5.6-3.5
		c-4.2-1.2-7.3-3.5-7.3-7.6c0-4.9,4.1-6.8,8.9-6.8c2.8,0,5.3,0.4,8.6,1.4l-1.1,4.1c-3.8-0.9-5.6-1.1-7.5-1.1c-2.5,0-3.7,1.1-3.7,2.5
		c0,2,2.6,2.7,5.6,3.4c4.2,1,7.4,3,7.4,7.2c0,5.2-4,7.5-9.2,7.5C231.3,212.1,228.2,211.8,224.9,210.8z"/>
	<path class="st2" d="M261.5,195.3l-3.7,16.6h-6.3l-6-24.6h5.5l3.9,18.3h0l3.9-18.3h5.8l4,18.3h0l3.8-18.3h5.2l-6,24.6h-6.3
		L261.5,195.3L261.5,195.3z"/>
	<path class="st2" d="M280.2,211.8v-24.4h4.9v24.4H280.2z"/>
	<path class="st2" d="M289.4,211.8v-24.4h4.9l9.8,15.3h0.1v-15.3h4.8v24.4H304l-9.8-14.8h-0.1v14.8H289.4z"/>
	<path class="st2" d="M318.1,187.4v20h11.4v4.4h-16.3v-24.4H318.1z"/>
	<path class="st2" d="M349.5,191.8H338v5.2h9.9v4.4H338v6h11.7v4.4H333v-24.4h16.5V191.8z"/>
	<path class="st2" d="M363,198.2l4.8-10.8h5.3l-7.8,15.8v8.6h-4.9v-8.6l-7.9-15.8h5.6L363,198.2L363,198.2z"/>
	<path class="st2" d="M372.5,216.4l0.9-4.7c-0.6,0-1.3,0-1.9,0v-5.2h4.7v5.2l-2.2,4.7H372.5z"/>
	<path class="st2" d="M396.7,187c2.9,0,5.5,0.4,8.8,1.4l-1.1,4.1c-3.8-0.9-5.4-1.1-7.3-1.1c-4.5,0-6.1,3.1-6.1,8
		c0,5.2,1.5,8.4,6.1,8.4c1.9,0,3.4-0.2,7.3-1.1l1.1,4.1c-3.3,1-5.9,1.3-8.8,1.3c-8.6,0-10.9-5.7-10.9-12.7
		C385.8,192.5,388.1,187,396.7,187z"/>
	<path class="st2" d="M407.1,199.4c0-6.9,2.3-12.4,10.9-12.4c8.6,0,10.8,5.5,10.8,12.4c0,7-2.3,12.7-10.8,12.7
		C409.4,212.1,407.1,206.3,407.1,199.4z M412.3,199.4c0,4.8,0.9,8.6,5.7,8.6s5.6-3.8,5.6-8.6s-0.8-8.2-5.6-8.2
		S412.3,194.5,412.3,199.4z"/>
	<path class="st2" d="M432.3,211.8v-24.4h4.9l9.8,15.3h0.1v-15.3h4.8v24.4h-4.9l-9.8-14.8h-0.1v14.8H432.3z"/>
	<path class="st2" d="M465.5,205.8l5.5-18.4h5.2l-7.8,24.6h-6l-7.9-24.6h5.5L465.5,205.8L465.5,205.8z"/>
	<path class="st2" d="M495.4,191.8h-11.5v5.2h9.9v4.4h-9.9v6h11.7v4.4h-16.7v-24.4h16.5V191.8z"/>
	<path class="st2" d="M499.4,211.8v-24.4h4.9l9.8,15.3h0.1v-15.3h4.8v24.4H514l-9.8-14.8h-0.1v14.8H499.4z"/>
	<path class="st2" d="M539.7,191.8h-11.5v5.2h9.9v4.4h-9.9v6h11.7v4.4h-16.7v-24.4h16.5V191.8z"/>
	<path class="st2" d="M557.4,211.8l-5.1-8.7h-3.5v8.7h-4.9v-24.4h10.4c5.1,0,8.1,3.1,8.1,7.9c0,3.3-1.5,6.1-4.8,7l5.7,9.5H557.4z
		 M548.7,198.7h4.8c2,0,3.6-0.9,3.6-3.4c0-2.5-1.5-3.4-3.5-3.4h-4.9V198.7z"/>
	<path class="st2" d="M566.7,216.4l0.9-4.7c-0.6,0-1.3,0-1.9,0v-5.2h4.7v5.2l-2.2,4.7H566.7z"/>
</g>
<g>
	<path class="st2" d="M126.7,246.2v8.6h-4.9v-24.4h10.4c5.1,0,8.1,3.2,8.1,7.9c0,4.8-2.9,7.9-8.1,7.9H126.7z M126.7,241.8h4.9
		c2.1,0,3.5-1,3.5-3.5c0-2.5-1.5-3.5-3.5-3.5h-4.9V241.8z"/>
	<path class="st2" d="M157.3,254.8l-5.1-8.7h-3.5v8.7h-4.9v-24.4h10.4c5.1,0,8.1,3.1,8.1,7.9c0,3.3-1.5,6.1-4.8,7l5.7,9.5H157.3z
		 M148.7,241.7h4.8c2,0,3.6-0.9,3.6-3.4c0-2.5-1.5-3.4-3.5-3.4h-4.9V241.7z"/>
	<path class="st2" d="M165.3,242.4c0-6.9,2.3-12.4,10.9-12.4c8.6,0,10.8,5.5,10.8,12.4c0,7-2.3,12.7-10.8,12.7
		C167.6,255.1,165.3,249.4,165.3,242.4z M170.5,242.4c0,4.8,0.9,8.6,5.7,8.6s5.6-3.8,5.6-8.6s-0.8-8.2-5.6-8.2
		S170.5,237.6,170.5,242.4z"/>
	<path class="st2" d="M206.6,234.8h-11.2v5.9h9.6v4.4h-9.6v9.7h-4.9v-24.4h16.1V234.8z"/>
	<path class="st2" d="M226.7,234.8h-11.5v5.2h9.9v4.4h-9.9v6h11.7v4.4h-16.7v-24.4h16.5V234.8z"/>
	<path class="st2" d="M230.4,253.8l0.9-4.1c3.8,0.9,6.5,1.1,8.4,1.1c2.5,0,4-1.1,4-2.8c0-2.3-2.8-2.7-5.6-3.5
		c-4.2-1.2-7.3-3.5-7.3-7.6c0-4.9,4.1-6.8,8.9-6.8c2.8,0,5.3,0.4,8.6,1.4l-1.1,4.1c-3.8-0.9-5.6-1.1-7.5-1.1c-2.5,0-3.7,1.1-3.7,2.5
		c0,2,2.6,2.7,5.6,3.4c4.2,1,7.4,3,7.4,7.2c0,5.2-4,7.5-9.2,7.5C236.9,255.1,233.7,254.8,230.4,253.8z"/>
	<path class="st2" d="M251.4,253.8l0.9-4.1c3.8,0.9,6.5,1.1,8.4,1.1c2.5,0,4-1.1,4-2.8c0-2.3-2.8-2.7-5.6-3.5
		c-4.2-1.2-7.3-3.5-7.3-7.6c0-4.9,4.1-6.8,8.9-6.8c2.8,0,5.3,0.4,8.6,1.4l-1.1,4.1c-3.8-0.9-5.6-1.1-7.5-1.1c-2.5,0-3.7,1.1-3.7,2.5
		c0,2,2.6,2.7,5.6,3.4c4.2,1,7.4,3,7.4,7.2c0,5.2-4,7.5-9.2,7.5C257.9,255.1,254.7,254.8,251.4,253.8z"/>
	<path class="st2" d="M273.2,254.8v-24.4h4.9v24.4H273.2z"/>
	<path class="st2" d="M281.5,242.4c0-6.9,2.3-12.4,10.9-12.4c8.6,0,10.8,5.5,10.8,12.4c0,7-2.3,12.7-10.8,12.7
		C283.8,255.1,281.5,249.4,281.5,242.4z M286.7,242.4c0,4.8,0.9,8.6,5.7,8.6s5.6-3.8,5.6-8.6s-0.8-8.2-5.6-8.2
		S286.7,237.6,286.7,242.4z"/>
	<path class="st2" d="M306.7,254.8v-24.4h4.9l9.8,15.3h0.1v-15.3h4.8v24.4h-4.9l-9.8-14.8h-0.1v14.8H306.7z"/>
	<path class="st2" d="M343.5,249.3h-7.7l-1.6,5.5h-5.2l7.9-24.6h6l7.8,24.6h-5.5L343.5,249.3z M339.6,236.4l-2.8,8.8h5.7
		L339.6,236.4L339.6,236.4z"/>
	<path class="st2" d="M358.3,230.4v20h11.4v4.4h-16.3v-24.4H358.3z"/>
	<path class="st2" d="M393.2,254.8l-5.1-8.7h-3.5v8.7h-4.9v-24.4H390c5.1,0,8.1,3.1,8.1,7.9c0,3.3-1.5,6.1-4.8,7l5.7,9.5H393.2z
		 M384.5,241.7h4.8c2,0,3.6-0.9,3.6-3.4c0-2.5-1.5-3.4-3.5-3.4h-4.9V241.7z"/>
	<path class="st2" d="M418.6,234.8h-11.5v5.2h9.9v4.4h-9.9v6h11.7v4.4h-16.7v-24.4h16.5V234.8z"/>
	<path class="st2" d="M422.4,242.4c0-6.9,2.3-12.4,10.9-12.4c2.9,0,5.4,0.4,8.7,1.4l-1.1,4.1c-3.8-0.9-5.3-1.1-7.2-1.1
		c-4.5,0-6.1,3.1-6.1,8c0,5.2,1.5,8.4,6.1,8.4c1.3,0,2.3-0.3,3.4-0.7v-4h-3.8v-4.4h8.7v11.8c-3,1.1-5.5,1.7-8.7,1.7
		C424.7,255.1,422.4,249.4,422.4,242.4z"/>
	<path class="st2" d="M460.4,246.2v-15.8h4.9v15.8c0,6.4-3.8,9-9.6,9s-9.6-2.6-9.6-9v-15.8h4.9v15.8c0,2.6,0.8,4.8,4.7,4.8
		C459.5,251,460.4,248.8,460.4,246.2z"/>
	<path class="st2" d="M474.5,230.4v20h11.4v4.4h-16.3v-24.4H474.5z"/>
	<path class="st2" d="M502.9,249.3h-7.7l-1.6,5.5h-5.2l7.9-24.6h6l7.8,24.6h-5.5L502.9,249.3z M499.1,236.4l-2.8,8.8h5.7
		L499.1,236.4L499.1,236.4z"/>
	<path class="st2" d="M520.1,234.8v20h-4.9v-20h-6.4v-4.4h17.8v4.4H520.1z"/>
	<path class="st2" d="M528.8,242.4c0-6.9,2.3-12.4,10.9-12.4s10.8,5.5,10.8,12.4c0,7-2.3,12.7-10.8,12.7S528.8,249.4,528.8,242.4z
		 M534,242.4c0,4.8,0.9,8.6,5.7,8.6s5.6-3.8,5.6-8.6s-0.8-8.2-5.6-8.2S534,237.6,534,242.4z"/>
	<path class="st2" d="M567.6,254.8l-5.1-8.7H559v8.7H554v-24.4h10.4c5.1,0,8.1,3.1,8.1,7.9c0,3.3-1.5,6.1-4.8,7l5.7,9.5H567.6z
		 M559,241.7h4.8c2,0,3.6-0.9,3.6-3.4c0-2.5-1.5-3.4-3.5-3.4H559V241.7z"/>
	<path class="st2" d="M584,241.2l4.8-10.8h5.3l-7.8,15.8v8.6h-4.9v-8.6l-7.9-15.8h5.6L584,241.2L584,241.2z"/>
</g>
<g>
	<path class="st2" d="M135.3,292.3h-7.7l-1.6,5.5h-5.2l7.9-24.6h6l7.8,24.6h-5.5L135.3,292.3z M131.4,279.4l-2.8,8.8h5.7
		L131.4,279.4L131.4,279.4z"/>
	<path class="st2" d="M144.1,296.8l0.9-4.1c3.8,0.9,6.5,1.1,8.4,1.1c2.5,0,4-1.1,4-2.8c0-2.3-2.8-2.7-5.6-3.5
		c-4.2-1.2-7.3-3.5-7.3-7.6c0-4.9,4.1-6.8,8.9-6.8c2.8,0,5.3,0.4,8.6,1.4l-1.1,4.1c-3.8-0.9-5.6-1.1-7.5-1.1c-2.5,0-3.7,1.1-3.7,2.5
		c0,2,2.6,2.7,5.6,3.4c4.2,1,7.4,3,7.4,7.2c0,5.2-4,7.5-9.2,7.5C150.5,298.2,147.4,297.8,144.1,296.8z"/>
	<path class="st2" d="M165.1,296.8l0.9-4.1c3.8,0.9,6.5,1.1,8.4,1.1c2.5,0,4-1.1,4-2.8c0-2.3-2.8-2.7-5.6-3.5
		c-4.2-1.2-7.3-3.5-7.3-7.6c0-4.9,4.1-6.8,8.9-6.8c2.8,0,5.3,0.4,8.6,1.4l-1.1,4.1c-3.8-0.9-5.6-1.1-7.5-1.1c-2.5,0-3.7,1.1-3.7,2.5
		c0,2,2.6,2.7,5.6,3.4c4.2,1,7.4,3,7.4,7.2c0,5.2-4,7.5-9.2,7.5C171.5,298.2,168.4,297.8,165.1,296.8z"/>
	<path class="st2" d="M201.7,289.2v-15.8h4.9v15.8c0,6.4-3.8,9-9.6,9s-9.6-2.6-9.6-9v-15.8h4.9v15.8c0,2.6,0.8,4.8,4.7,4.8
		C200.9,294,201.7,291.8,201.7,289.2z"/>
	<path class="st2" d="M224.5,297.8l-5.1-8.7h-3.5v8.7h-4.9v-24.4h10.4c5.1,0,8.1,3.1,8.1,7.9c0,3.3-1.5,6.1-4.8,7l5.7,9.5H224.5z
		 M215.8,284.7h4.8c2,0,3.6-0.9,3.6-3.4c0-2.5-1.5-3.4-3.5-3.4h-4.9V284.7z"/>
	<path class="st2" d="M247,292.3h-7.7l-1.6,5.5h-5.2l7.9-24.6h6l7.8,24.6h-5.5L247,292.3z M243.1,279.4l-2.8,8.8h5.7L243.1,279.4
		L243.1,279.4z"/>
	<path class="st2" d="M256.8,297.8v-24.4h4.9l9.8,15.3h0.1v-15.3h4.8v24.4h-4.9l-9.8-14.8h-0.1v14.8H256.8z"/>
	<path class="st2" d="M290.6,273.1c2.9,0,5.5,0.4,8.8,1.4l-1.1,4.1c-3.8-0.9-5.4-1.1-7.3-1.1c-4.5,0-6.1,3.1-6.1,8
		c0,5.2,1.5,8.4,6.1,8.4c1.9,0,3.4-0.2,7.3-1.1l1.1,4.1c-3.3,1-5.9,1.3-8.8,1.3c-8.6,0-10.9-5.7-10.9-12.7
		C279.7,278.6,282,273.1,290.6,273.1z"/>
	<path class="st2" d="M318.8,277.8h-11.5v5.2h9.9v4.4h-9.9v6H319v4.4h-16.7v-24.4h16.5V277.8z"/>
	<path class="st2" d="M339.8,273.1c2.9,0,5.5,0.4,8.8,1.4l-1.1,4.1c-3.8-0.9-5.4-1.1-7.3-1.1c-4.5,0-6.1,3.1-6.1,8
		c0,5.2,1.5,8.4,6.1,8.4c1.9,0,3.4-0.2,7.3-1.1l1.1,4.1c-3.3,1-5.9,1.3-8.8,1.3c-8.6,0-10.9-5.7-10.9-12.7
		C328.9,278.6,331.2,273.1,339.8,273.1z"/>
	<path class="st2" d="M350.2,285.4c0-6.9,2.3-12.4,10.9-12.4c8.6,0,10.8,5.5,10.8,12.4c0,7-2.3,12.7-10.8,12.7
		C352.4,298.2,350.2,292.4,350.2,285.4z M355.4,285.4c0,4.8,0.9,8.6,5.7,8.6s5.6-3.8,5.6-8.6s-0.8-8.2-5.6-8.2
		S355.4,280.6,355.4,285.4z"/>
	<path class="st2" d="M387.9,289.6L387.9,289.6l5.8-16.2h6.5v24.4h-4.9v-15.5h-0.1l-5.8,15.5h-3.6l-5.7-15.5h-0.1v15.5h-4.8v-24.4
		h6.6L387.9,289.6z"/>
	<path class="st2" d="M417.1,289.6L417.1,289.6l5.8-16.2h6.5v24.4h-4.9v-15.5h-0.1l-5.8,15.5h-3.6l-5.7-15.5h-0.1v15.5h-4.8v-24.4
		h6.6L417.1,289.6z"/>
	<path class="st2" d="M433.7,297.8v-24.4h4.9v24.4H433.7z"/>
	<path class="st2" d="M453.5,277.8v20h-4.9v-20h-6.4v-4.4h17.8v4.4H453.5z"/>
	<path class="st2" d="M474.1,277.8v20h-4.9v-20h-6.4v-4.4h17.8v4.4H474.1z"/>
	<path class="st2" d="M500.5,277.8h-11.5v5.2h9.9v4.4h-9.9v6h11.7v4.4H484v-24.4h16.5V277.8z"/>
	<path class="st2" d="M521,277.8h-11.5v5.2h9.9v4.4h-9.9v6h11.7v4.4h-16.7v-24.4H521V277.8z"/>
	<path class="st2" d="M525.5,302.5l0.9-4.7c-0.6,0-1.3,0-1.9,0v-5.2h4.7v5.2l-2.2,4.7H525.5z"/>
	<path class="st2" d="M552.9,297.8l-5.1-8.7h-3.5v8.7h-4.9v-24.4h10.4c5.1,0,8.1,3.1,8.1,7.9c0,3.3-1.5,6.1-4.8,7l5.7,9.5H552.9z
		 M544.2,284.7h4.8c2,0,3.6-0.9,3.6-3.4c0-2.5-1.5-3.4-3.5-3.4h-4.9V284.7z"/>
	<path class="st2" d="M578.3,277.8h-11.5v5.2h9.9v4.4h-9.9v6h11.7v4.4h-16.7v-24.4h16.5V277.8z"/>
	<path class="st2" d="M582.1,285.4c0-6.9,2.3-12.4,10.9-12.4c2.9,0,5.4,0.4,8.7,1.4l-1.1,4.1c-3.8-0.9-5.3-1.1-7.2-1.1
		c-4.5,0-6.1,3.1-6.1,8c0,5.2,1.5,8.4,6.1,8.4c1.3,0,2.3-0.3,3.4-0.7v-4h-3.8v-4.4h8.7v11.8c-3,1.1-5.5,1.7-8.7,1.7
		C584.3,298.2,582.1,292.4,582.1,285.4z"/>
	<path class="st2" d="M605.9,297.8v-24.4h4.9v24.4H605.9z"/>
	<path class="st2" d="M614,296.8l0.9-4.1c3.8,0.9,6.5,1.1,8.4,1.1c2.5,0,4-1.1,4-2.8c0-2.3-2.8-2.7-5.6-3.5
		c-4.2-1.2-7.3-3.5-7.3-7.6c0-4.9,4.1-6.8,8.9-6.8c2.8,0,5.3,0.4,8.6,1.4l-1.1,4.1c-3.8-0.9-5.6-1.1-7.5-1.1c-2.5,0-3.7,1.1-3.7,2.5
		c0,2,2.6,2.7,5.6,3.4c4.2,1,7.4,3,7.4,7.2c0,5.2-4,7.5-9.2,7.5C620.5,298.2,617.4,297.8,614,296.8z"/>
	<path class="st2" d="M646.3,277.8v20h-4.9v-20H635v-4.4h17.8v4.4H646.3z"/>
	<path class="st2" d="M669.8,297.8l-5.1-8.7h-3.5v8.7h-4.9v-24.4h10.4c5.1,0,8.1,3.1,8.1,7.9c0,3.3-1.5,6.1-4.8,7l5.7,9.5H669.8z
		 M661.2,284.7h4.8c2,0,3.6-0.9,3.6-3.4c0-2.5-1.5-3.4-3.5-3.4h-4.9V284.7z"/>
	<path class="st2" d="M692.3,292.3h-7.7l-1.6,5.5h-5.2l7.9-24.6h6l7.8,24.6H694L692.3,292.3z M688.4,279.4l-2.8,8.8h5.7L688.4,279.4
		L688.4,279.4z"/>
	<path class="st2" d="M702.1,297.8v-24.4h4.9l9.8,15.3h0.1v-15.3h4.8v24.4h-4.9L707,283h-0.1v14.8H702.1z"/>
	<path class="st2" d="M736.5,277.8v20h-4.9v-20h-6.4v-4.4h17.8v4.4H736.5z"/>
</g>
</svg>
