<!-- Generator: Adobe Illustrator 19.2.1, SVG Export Plug-In  -->
<svg version="1.1"
	 xmlns="http://www.w3.org/2000/svg" xmlns:xlink="http://www.w3.org/1999/xlink" xmlns:a="http://ns.adobe.com/AdobeSVGViewerExtensions/3.0/"
	 x="0px" y="0px" width="268px" height="258px" viewBox="0 0 268 258" style="enable-background:new 0 0 268 258;"
	 xml:space="preserve">
<style type="text/css">
	.st0{clip-path:url(#SVGID_2_);fill:#762708;}
	.st1{clip-path:url(#SVGID_2_);fill:#FFFFFF;}
	.st2{clip-path:url(#SVGID_4_);fill:#762708;}
	.st3{clip-path:url(#SVGID_4_);fill:#FFFFFF;}
</style>
<defs>
</defs>
<g>
	<defs>
		<rect id="SVGID_1_" width="268" height="258"/>
	</defs>
	<clipPath id="SVGID_2_">
		<use xlink:href="#SVGID_1_"  style="overflow:visible;"/>
	</clipPath>
	<path class="st0" d="M134,257c69,0,125-56,125-125C259,63,203,7,134,7S9,63,9,132C9,201,65,257,134,257"/>
	<path class="st1" d="M179.8,143.8c-0.6,1.7-1.8,2.9-3.3,2.9c-0.3,0-1-0.1-1.5-0.2l-0.4,3.3c0.8,0.2,2,0.3,2.8,0.3
		c3.4,0,5.4-1.5,6.9-6l5.5-16.1h-4.3l-3.4,11.3h-0.1l-3.5-11.3h-4.5L179.8,143.8z M164.2,139.2c0,3.3,1.4,4.7,4.9,4.7
		c0.8,0,2.3-0.1,3.2-0.3l-0.3-3.1c-0.6,0.1-1.1,0.2-1.4,0.2c-1.6,0-2.3-0.8-2.3-2.2V131h3.9v-2.9h-3.9v-4.3h-3.5l-0.5,4.3l-2.1,0.2
		v2.6h2.1V139.2z M156.3,126.8h4v-4.3h-4V126.8z M156.3,143.6h4v-15.5h-4V143.6z M148.9,132.8c1.2-0.6,3.3-1.2,5.4-1.2v-3.8
		c-2.5,0-4.4,1.4-5.4,2.8h-0.1v-2.5h-4v15.5h4V132.8z M129.4,142.9c-1.7,0.8-2.4,1.8-2.4,3.2c0,2.8,2.1,4,6.7,4
		c6.3,0,9.3-1.7,9.3-5.6c0-2.4-1.6-3.7-4.7-3.9l-5.3-0.4c-1-0.1-1.1-0.9-0.8-1.6c0.1-0.2,0.2-0.5,0.4-0.7c0.3,0.1,1,0.3,2,0.3
		c3.7,0,6.4-1.6,6.4-5.2c0-1-0.3-1.9-0.9-2.5h2.5v-2.4h-5.7c-0.6-0.2-1.4-0.3-2.2-0.3c-4,0-6.5,1.7-6.5,5.3c0,2,1,3.6,2.5,4.3v0.1
		c-1.6,0.8-2.4,2.1-2.4,3.3C128.1,141.6,128.5,142.4,129.4,142.9L129.4,142.9z M134.6,135.7c-1.7,0-2.8-0.8-2.8-2.6
		c0-1.7,1-2.6,2.8-2.6c1.6,0,2.7,0.9,2.7,2.6C137.3,134.8,136.2,135.7,134.6,135.7 M130.3,145.4c0-1,0.5-1.4,1.1-1.9l5.4,0.3
		c1.4,0.1,1.9,0.7,1.9,1.4c0,1.6-2.1,2.3-4.4,2.3C132.1,147.5,130.3,147,130.3,145.4 M118.7,130.9c1.9,0,2.6,0.9,2.7,2.1
		c0,0.4,0,0.8-0.1,1.2h-6C115.5,132.2,116.4,130.9,118.7,130.9 M125.3,136.7c0.2-1.4,0.3-2.7,0.1-3.9c-0.3-2.7-1.9-5-6.5-5
		c-5.9,0-8,3.2-8,8.1c0,4.9,2.1,8.1,8.1,8.1c2,0,3.8-0.2,5.9-0.7l-0.5-3.2c-2,0.6-3.5,0.6-4.8,0.6c-2.9,0-4.2-1.6-4.2-3.9H125.3z
		 M102,139.2c0,3.3,1.4,4.7,4.9,4.7c0.8,0,2.3-0.1,3.2-0.3l-0.3-3.1c-0.6,0.1-1.1,0.2-1.4,0.2c-1.6,0-2.3-0.8-2.3-2.2V131h3.9v-2.9
		H106v-4.3h-3.5l-0.5,4.3l-2.1,0.2v2.6h2.1V139.2z M88.3,132.3c0.8-0.5,2-1.2,3.3-1.2c1.8,0,2.5,1,2.5,2.8v9.7h4V133
		c0-3.2-1.6-5.2-4.7-5.2c-2,0-3.7,0.9-5.1,2.3h-0.1v-2h-4v15.5h4V132.3z M81.4,122.5h-4.3v21.1h4.3V122.5z"/>
</g>
</svg>
