<!-- Generator: Adobe Illustrator 19.2.1, SVG Export Plug-In  -->
<svg version="1.1"
	 xmlns="http://www.w3.org/2000/svg" xmlns:xlink="http://www.w3.org/1999/xlink" xmlns:a="http://ns.adobe.com/AdobeSVGViewerExtensions/3.0/"
	 x="0px" y="0px" width="643.2px" height="510.8px" viewBox="0 0 643.2 510.8" style="enable-background:new 0 0 643.2 510.8;"
	 xml:space="preserve">
<style type="text/css">
	.st0{fill:none;stroke:#FFFFFF;stroke-miterlimit:10;}
	.st1{fill:#FFFFFF;}
</style>
<defs>
</defs>
<line class="st0" x1="0" y1="256.7" x2="643.2" y2="256.7"/>
<line class="st0" x1="0" y1="402.1" x2="643.2" y2="402.1"/>
<line class="st0" x1="0" y1="510.3" x2="643.2" y2="510.3"/>
<g>
	<path class="st1" d="M48.4,40.6h-11l-7.3-24.9l-7.3,24.9h-11L0.5,2h9.5l7.4,27.7L25.2,2h10l7.7,27.8L50.2,2h9.4L48.4,40.6z"/>
	<path class="st1" d="M70.7,16.4c1.7-2.5,4.3-3.6,7.7-3.6c5.4,0,9.6,3.8,9.6,10.1v17.8h-8.6V25.9c0-3.2-1.6-5-4.3-5
		c-2.4,0-4.4,1.6-4.4,5.1v14.6h-8.6V0.8h8.6V16.4z"/>
	<path class="st1" d="M120.3,40.6h-8.4v-2.9c-1.6,2.1-4.1,3.6-7.8,3.6c-7.2,0-12.6-6.3-12.6-14.3c0-8,5.4-14.3,12.6-14.3
		c3.6,0,6.1,1.5,7.8,3.7v-2.9h8.4V40.6z M100.4,27.1c0,3.5,2.3,6.2,5.8,6.2c3.4,0,5.8-2.6,5.8-6.2s-2.4-6.2-5.8-6.2
		C102.7,20.9,100.4,23.5,100.4,27.1z"/>
	<path class="st1" d="M146,21.2h-9.3v7.9c0,3.1,1.7,4.2,3.8,4.2c1.6,0,3.3-0.9,4.7-1.7l3,6.7c-2.5,1.8-5.2,3-9.6,3
		c-7.3,0-10.5-4.3-10.5-11.1v-9h-5.1v-7.7h5.1V5.6h8.6v7.9h9.3V21.2z"/>
	<path class="st1" d="M172.5,5.2c0,2.9-2.3,5.1-5.2,5.1c-2.9,0-5.2-2.2-5.2-5.1c0-2.9,2.2-5.2,5.2-5.2C170.2,0,172.5,2.3,172.5,5.2z
		 M171.7,40.6H163V13.5h8.6V40.6z"/>
	<path class="st1" d="M197.1,21.2h-9.3v7.9c0,3.1,1.7,4.2,3.8,4.2c1.6,0,3.3-0.9,4.7-1.7l3,6.7c-2.5,1.8-5.2,3-9.6,3
		c-7.3,0-10.5-4.3-10.5-11.1v-9h-5.1v-7.7h5.1V5.6h8.6v7.9h9.3V21.2z"/>
</g>
<g>
	<path class="st1" d="M46.3,78.1v17.8h-8.6V81.1c0-3.2-1.6-5-4.3-5c-2.4,0-4.4,1.6-4.4,5.1v14.6h-8.6V81.1c0-3.2-1.6-5-4.3-5
		c-2.4,0-4.4,1.6-4.4,5.1v14.6H3V68.8h8.3v3.4c1.7-2.8,4.4-4.1,8.1-4.1c3.6,0,6.6,1.6,8.3,4.5c1.8-3.1,4.9-4.5,8.6-4.5
		C42.4,68,46.3,71.8,46.3,78.1z"/>
	<path class="st1" d="M77.3,82.3c0,0.9-0.1,2.1-0.2,2.7H58.8c0.7,3,2.8,4.3,5.8,4.3c2,0,4.2-0.8,5.9-2.4l5.6,5.2
		c-2.8,2.8-6.9,4.4-11.9,4.4c-8.5,0-14.3-5.7-14.3-14.1c0-8.5,5.7-14.4,13.9-14.4C71.8,68,77.3,73.8,77.3,82.3z M58.8,79.5h9.9
		c-0.7-2.7-2.4-4.1-4.9-4.1C61.1,75.4,59.5,76.8,58.8,79.5z"/>
	<path class="st1" d="M108.2,95.9h-8.4v-2.9c-1.6,2.1-4.1,3.6-7.8,3.6c-7.2,0-12.6-6.3-12.6-14.3c0-8,5.4-14.3,12.6-14.3
		c3.6,0,6.1,1.5,7.8,3.7v-2.9h8.4V95.9z M88.4,82.3c0,3.5,2.3,6.2,5.8,6.2c3.4,0,5.8-2.6,5.8-6.2s-2.4-6.2-5.8-6.2
		C90.7,76.1,88.4,78.8,88.4,82.3z"/>
	<path class="st1" d="M139.3,78.1v17.8h-8.6V81.1c0-3.2-1.6-5-4.3-5c-2.4,0-4.4,1.6-4.4,5.1v14.6h-8.6V68.8h8.3v3.4
		c1.7-2.8,4.4-4.1,8.1-4.1C135.1,68,139.3,71.8,139.3,78.1z"/>
	<path class="st1" d="M164.4,77.1c-2.7-1.1-6.2-2.1-8.9-2.1c-2.3,0-3.1,0.7-3.1,1.7c0,1.2,1.7,1.4,4.4,1.9l2,0.3
		c5.8,0.9,8.9,3.7,8.9,8.2c0,5.9-4.6,9.5-12.5,9.5c-4.6,0-9.4-0.8-12.5-2.8l3-6.7c2.7,1.6,5.8,2.5,9.6,2.5c2.7,0,3.8-0.6,3.8-1.8
		c0-1-1.2-1.5-4.3-1.9l-1.6-0.2c-6.5-1-9.6-3.7-9.6-8.5c0-5.8,4.3-9.1,11.7-9.1c4.4,0,7.2,0.6,11.7,2.3L164.4,77.1z"/>
	<path class="st1" d="M204.2,76.4H195v7.9c0,3.1,1.7,4.2,3.8,4.2c1.6,0,3.3-0.9,4.7-1.7l3,6.7c-2.5,1.8-5.2,3-9.6,3
		c-7.3,0-10.5-4.3-10.5-11.1v-9h-5.1v-7.7h5.1v-7.9h8.6v7.9h9.3V76.4z"/>
	<path class="st1" d="M236.4,82.3c0,8.2-6.2,14.3-14.7,14.3c-8.5,0-14.7-6.1-14.7-14.3S213.3,68,221.7,68
		C230.2,68,236.4,74.1,236.4,82.3z M215.8,82.3c0,3.6,2.5,6.2,5.9,6.2c3.4,0,5.9-2.6,5.9-6.2s-2.5-6.2-5.9-6.2
		C218.3,76.1,215.8,78.7,215.8,82.3z"/>
	<path class="st1" d="M261.1,107h-9.4l9.3-17.1l-11.4-21.1h9.9l6.2,12.2l6-12.2h9.4L261.1,107z"/>
	<path class="st1" d="M309.5,82.3c0,8.2-6.2,14.3-14.7,14.3c-8.5,0-14.7-6.1-14.7-14.3S286.3,68,294.8,68
		C303.2,68,309.5,74.1,309.5,82.3z M288.9,82.3c0,3.6,2.5,6.2,5.9,6.2c3.4,0,5.9-2.6,5.9-6.2s-2.5-6.2-5.9-6.2
		C291.4,76.1,288.9,78.7,288.9,82.3z"/>
	<path class="st1" d="M338.9,84.3c0,8.5-5.9,12.3-13.1,12.3c-7.2,0-13.1-3.8-13.1-12.3V68.8h8.6v14.7c0,3.5,1.9,5,4.4,5
		c2.6,0,4.4-1.6,4.4-5V68.8h8.6V84.3z"/>
</g>
<g>
	<path class="st1" d="M1.9,149.8c0-6.7,2-12.2,10.2-12.2c8.2,0,10.2,5.5,10.2,12.2c0,6.8-2,12.5-10.2,12.5
		C4,162.3,1.9,156.6,1.9,149.8z M5.5,149.8c0,5.1,1,9.7,6.7,9.7c5.7,0,6.7-4.6,6.7-9.7s-1-9.4-6.7-9.4
		C6.4,140.4,5.5,144.7,5.5,149.8z"/>
	<path class="st1" d="M38.3,144.3h3.2V162h-3.2v-2.5h-0.1c-1.7,1.7-3.8,2.8-6.3,2.8c-3.5,0-5.3-2.1-5.3-5.8v-12.2h3.2v11.5
		c0,2.3,1,3.9,3.5,3.9c2,0,3.9-1.2,4.9-2V144.3z"/>
	<path class="st1" d="M49,162h-3.2v-17.7H49v2.8h0.1c1.4-1.6,3.8-3.2,6.6-3.2v3c-2.6,0-5.3,1.1-6.7,2V162z"/>
	<path class="st1" d="M73,162.3c-2.8,0-5.5-0.2-7.6-0.8L66,159c2.8,0.7,5.4,0.8,6.7,0.8c3.2,0,3.7-1.9,3.7-2.6c0-1.2-0.8-2-4-2.6
		c-3.7-0.7-6.6-1.9-6.6-5.6c0-3.4,2.4-4.9,6.5-4.9c2.7,0,4.9,0.3,7.1,0.8l-0.6,2.5c-2.8-0.7-5-0.8-6.3-0.8c-3.2,0-3.5,1.7-3.5,2.3
		c0,1.1,0.6,2,3.8,2.7c3.7,0.8,6.8,1.8,6.8,5.4C79.5,160.5,77.1,162.3,73,162.3z"/>
	<path class="st1" d="M84.8,146.6h-2.6v-2.1l2.6-0.2l0.4-4.9H88v4.9h4.9v2.3H88v9.7c0,2.3,0.7,3.5,3,3.5c0.5,0,1.1-0.1,1.8-0.2
		l0.3,2.5c-1,0.1-2.3,0.2-3.2,0.2c-3.6,0-5.1-1.5-5.1-5.5V146.6z"/>
	<path class="st1" d="M97.6,147.3l-0.5-2.6c2.4-0.5,4.9-0.7,6.8-0.7c4.2,0,6.5,1.2,6.5,5.8V162h-3.2v-1.8c0,0,0,0-0.1,0
		c-1.7,1.5-3.3,2.1-5.6,2.1c-3.5,0-5.6-2.1-5.6-5.2c0-4,3.2-5.4,7.4-5.4h3.9V150c0-2.3-1.2-3.4-4.1-3.4
		C101.9,146.6,100.2,146.8,97.6,147.3z M107.3,153.7h-3.7c-3.3,0-4.4,1.2-4.4,3.2c0,1.9,1.4,3,3.7,3c2,0,3.6-0.8,4.4-1.5V153.7z"/>
	<path class="st1" d="M117.9,151.5l8.5-7.2h3.9l-6.7,6.1l7.1,11.5h-3.8l-5.5-9.7l-3.4,2.9v6.9h-3.2v-24.7h3.2V151.5z"/>
	<path class="st1" d="M135.7,153.7c0.1,3.5,1.7,6,5.8,6c1.7,0,3.5-0.1,5.5-0.7l0.4,2.6c-2.2,0.6-4.1,0.8-6.4,0.8
		c-6.5,0-8.8-3.7-8.8-9.2c0-5.5,2.3-9.2,8.7-9.2c5.4,0,6.9,3.1,7.1,6.1c0.1,1.1,0,2.4-0.2,3.6H135.7z M135.7,151.7h9
		c0.1-0.6,0.2-1.3,0.1-1.9c-0.1-1.8-1.2-3.4-4-3.4C137.2,146.4,136,148.7,135.7,151.7z"/>
	<path class="st1" d="M154.9,162h-3.2v-24.7h3.2v9.5h0.1c1.7-1.7,3.8-2.8,6.3-2.8c3.5,0,5.3,2.1,5.3,5.8V162h-3.2v-11.5
		c0-2.3-0.9-3.9-3.5-3.9c-2,0-3.9,1.2-4.9,2V162z"/>
	<path class="st1" d="M170.2,153.2c0-5.5,2.2-9.2,8.1-9.2c5.9,0,8.1,3.7,8.1,9.2c0,5.5-2.2,9.2-8.1,9.2
		C172.4,162.3,170.2,158.6,170.2,153.2z M173.6,153.2c0,3.7,1.1,6.5,4.8,6.5c3.7,0,4.8-2.8,4.8-6.5s-1.1-6.5-4.8-6.5
		C174.7,146.6,173.6,149.4,173.6,153.2z"/>
	<path class="st1" d="M190.3,137.3h3.2V162h-3.2V137.3z"/>
	<path class="st1" d="M209.4,160.2C209.3,160.2,209.3,160.2,209.4,160.2c-1.3,1.2-3.4,2.1-5.5,2.1c-4.9,0-6.5-4.1-6.5-9.2
		s1.8-9.2,6.7-9.2c2,0,4,0.8,5.2,2c0,0,0,0,0.1,0v-8.8h3.2V162h-3.2V160.2z M205.1,159.7c1.9,0,3.5-0.9,4.2-1.5v-10.1
		c-0.7-0.6-2.3-1.5-4.2-1.5c-3.5,0-4.4,3-4.4,6.5S201.7,159.7,205.1,159.7z"/>
	<path class="st1" d="M219.8,153.7c0.1,3.5,1.7,6,5.8,6c1.7,0,3.5-0.1,5.5-0.7l0.4,2.6c-2.2,0.6-4.1,0.8-6.4,0.8
		c-6.5,0-8.8-3.7-8.8-9.2c0-5.5,2.3-9.2,8.7-9.2c5.4,0,6.9,3.1,7.1,6.1c0.1,1.1,0,2.4-0.2,3.6H219.8z M219.8,151.7h9
		c0.1-0.6,0.2-1.3,0.1-1.9c-0.1-1.8-1.2-3.4-4-3.4C221.3,146.4,220,148.7,219.8,151.7z"/>
	<path class="st1" d="M238.9,162h-3.2v-17.7h3.2v2.8h0.1c1.4-1.6,3.8-3.2,6.6-3.2v3c-2.6,0-5.3,1.1-6.7,2V162z"/>
	<path class="st1" d="M255.9,162.3c-2.8,0-5.5-0.2-7.6-0.8l0.6-2.6c2.8,0.7,5.4,0.8,6.7,0.8c3.2,0,3.7-1.9,3.7-2.6
		c0-1.2-0.8-2-4-2.6c-3.7-0.7-6.6-1.9-6.6-5.6c0-3.4,2.4-4.9,6.5-4.9c2.7,0,4.9,0.3,7.1,0.8l-0.6,2.5c-2.8-0.7-5-0.8-6.3-0.8
		c-3.2,0-3.5,1.7-3.5,2.3c0,1.1,0.6,2,3.8,2.7c3.7,0.8,6.8,1.8,6.8,5.4C262.5,160.5,260.1,162.3,255.9,162.3z"/>
	<path class="st1" d="M279.9,162.3c-2.8,0-5.5-0.2-7.6-0.8l0.6-2.6c2.8,0.7,5.4,0.8,6.7,0.8c3.2,0,3.7-1.9,3.7-2.6
		c0-1.2-0.8-2-4-2.6c-3.7-0.7-6.6-1.9-6.6-5.6c0-3.4,2.4-4.9,6.5-4.9c2.7,0,4.9,0.3,7.1,0.8l-0.6,2.5c-2.8-0.7-5-0.8-6.3-0.8
		c-3.2,0-3.5,1.7-3.5,2.3c0,1.1,0.6,2,3.8,2.7c3.7,0.8,6.8,1.8,6.8,5.4C286.4,160.5,284,162.3,279.9,162.3z"/>
	<path class="st1" d="M292.9,153.7c0.1,3.5,1.7,6,5.8,6c1.7,0,3.5-0.1,5.5-0.7l0.4,2.6c-2.2,0.6-4.1,0.8-6.4,0.8
		c-6.5,0-8.8-3.7-8.8-9.2c0-5.5,2.3-9.2,8.7-9.2c5.4,0,6.9,3.1,7.1,6.1c0.1,1.1,0,2.4-0.2,3.6H292.9z M292.9,151.7h9
		c0.1-0.6,0.2-1.3,0.1-1.9c-0.1-1.8-1.2-3.4-4-3.4C294.5,146.4,293.2,148.7,292.9,151.7z"/>
	<path class="st1" d="M311.8,153.7c0.1,3.5,1.7,6,5.8,6c1.7,0,3.5-0.1,5.5-0.7l0.4,2.6c-2.2,0.6-4.1,0.8-6.4,0.8
		c-6.5,0-8.8-3.7-8.8-9.2c0-5.5,2.3-9.2,8.7-9.2c5.4,0,6.9,3.1,7.1,6.1c0.1,1.1,0,2.4-0.2,3.6H311.8z M311.8,151.7h9
		c0.1-0.6,0.2-1.3,0.1-1.9c-0.1-1.8-1.2-3.4-4-3.4C313.3,146.4,312.1,148.7,311.8,151.7z"/>
	<path class="st1" d="M337.7,162h-3.2v-24.7h3.2v9.5h0.1c1.7-1.7,3.8-2.8,6.3-2.8c3.5,0,5.3,2.1,5.3,5.8V162h-3.2v-11.5
		c0-2.3-0.9-3.9-3.5-3.9c-2,0-3.9,1.2-4.9,2V162z"/>
	<path class="st1" d="M353.1,153.2c0-5.5,2.2-9.2,8.1-9.2c5.9,0,8.1,3.7,8.1,9.2c0,5.5-2.2,9.2-8.1,9.2
		C355.2,162.3,353.1,158.6,353.1,153.2z M356.4,153.2c0,3.7,1.1,6.5,4.8,6.5c3.7,0,4.8-2.8,4.8-6.5s-1.1-6.5-4.8-6.5
		C357.5,146.6,356.4,149.4,356.4,153.2z"/>
	<path class="st1" d="M384.1,149.2l-3.6,12.9H377l-5.4-17.8h3.5l3.9,14.3h0.1l3.5-14.3h3.1l3.7,14.3h0.1l3.7-14.3h3.4l-5.3,17.8
		h-3.5L384.1,149.2L384.1,149.2z"/>
	<path class="st1" d="M419,149.2l-3.6,12.9h-3.5l-5.4-17.8h3.5l3.9,14.3h0.1l3.5-14.3h3.1l3.7,14.3h0.1l3.7-14.3h3.4l-5.3,17.8h-3.5
		L419,149.2L419,149.2z"/>
	<path class="st1" d="M437.3,153.7c0.1,3.5,1.7,6,5.8,6c1.7,0,3.5-0.1,5.5-0.7l0.4,2.6c-2.2,0.6-4.1,0.8-6.4,0.8
		c-6.5,0-8.8-3.7-8.8-9.2c0-5.5,2.3-9.2,8.7-9.2c5.4,0,6.9,3.1,7.1,6.1c0.1,1.1,0,2.4-0.2,3.6H437.3z M437.3,151.7h9
		c0.1-0.6,0.2-1.3,0.1-1.9c-0.1-1.8-1.2-3.4-4-3.4C438.9,146.4,437.6,148.7,437.3,151.7z"/>
	<path class="st1" d="M467.1,162.3c-2.8,0-5.5-0.2-7.6-0.8l0.6-2.6c2.8,0.7,5.4,0.8,6.7,0.8c3.2,0,3.7-1.9,3.7-2.6
		c0-1.2-0.8-2-4-2.6c-3.7-0.7-6.6-1.9-6.6-5.6c0-3.4,2.4-4.9,6.5-4.9c2.7,0,4.9,0.3,7.1,0.8l-0.6,2.5c-2.8-0.7-5-0.8-6.3-0.8
		c-3.2,0-3.5,1.7-3.5,2.3c0,1.1,0.6,2,3.8,2.7c3.7,0.8,6.8,1.8,6.8,5.4C473.6,160.5,471.2,162.3,467.1,162.3z"/>
	<path class="st1" d="M480.3,146.1L480.3,146.1c1.3-1.2,3.4-2.1,5.5-2.1c4.9,0,6.5,4.1,6.5,9.2s-1.8,9.2-6.7,9.2c-2,0-4-0.8-5.2-2
		h-0.1v8.7h-3.2v-24.7h3.2V146.1z M484.5,146.6c-1.9,0-3.5,0.9-4.2,1.5v10.1c0.7,0.6,2.3,1.5,4.2,1.5c3.4,0,4.4-3,4.4-6.5
		S487.9,146.6,484.5,146.6z"/>
	<path class="st1" d="M499,153.7c0.1,3.5,1.7,6,5.8,6c1.7,0,3.5-0.1,5.5-0.7l0.4,2.6c-2.2,0.6-4.1,0.8-6.4,0.8
		c-6.5,0-8.8-3.7-8.8-9.2c0-5.5,2.3-9.2,8.7-9.2c5.4,0,6.9,3.1,7.1,6.1c0.1,1.1,0,2.4-0.2,3.6H499z M499,151.7h9
		c0.1-0.6,0.2-1.3,0.1-1.9c-0.1-1.8-1.2-3.4-4-3.4C500.5,146.4,499.3,148.7,499,151.7z"/>
	<path class="st1" d="M518.1,162H515v-17.7h3.2v2.5h0.1c1.7-1.7,3.8-2.8,6.3-2.8c3.5,0,5.3,2.1,5.3,5.8V162h-3.2v-11.5
		c0-2.3-0.9-3.9-3.5-3.9c-2,0-3.9,1.2-4.9,2V162z"/>
	<path class="st1" d="M545.7,160.2C545.6,160.2,545.6,160.2,545.7,160.2c-1.3,1.2-3.4,2.1-5.5,2.1c-4.9,0-6.5-4.1-6.5-9.2
		s1.8-9.2,6.7-9.2c2,0,4,0.8,5.2,2c0,0,0,0,0.1,0v-8.8h3.2V162h-3.2V160.2z M541.4,159.7c1.9,0,3.5-0.9,4.2-1.5v-10.1
		c-0.7-0.6-2.3-1.5-4.2-1.5c-3.5,0-4.4,3-4.4,6.5S538,159.7,541.4,159.7z"/>
</g>
<g>
	<path class="st1" d="M5.1,199.1H1.9v-17.7h3.2v2.8h0.1c1.4-1.6,3.8-3.2,6.6-3.2v3c-2.6,0-5.3,1.1-6.7,2V199.1z"/>
	<path class="st1" d="M17.7,190.8c0.1,3.5,1.7,6,5.8,6c1.7,0,3.5-0.1,5.5-0.7l0.4,2.6c-2.2,0.6-4.1,0.8-6.4,0.8
		c-6.5,0-8.8-3.7-8.8-9.2c0-5.5,2.3-9.2,8.7-9.2c5.4,0,6.9,3.1,7.1,6.1c0.1,1.1,0,2.4-0.2,3.6H17.7z M17.7,188.8h9
		c0.1-0.6,0.2-1.3,0.1-1.9c-0.1-1.8-1.2-3.4-4-3.4C19.2,183.6,18,185.8,17.7,188.8z"/>
	<path class="st1" d="M35.4,197.9c-1-0.5-1.4-1.4-1.3-2.4c0-1.2,0.8-2.5,2.3-3.4V192c-1.8-0.9-2.9-2.6-2.9-4.9c0-3.9,2.8-6,7.2-6
		c1,0,1.8,0.2,2.4,0.4h6.2v1.9h-3.4c1.4,1,1.7,2.5,1.7,3.7c0,4-3,5.8-7,5.8c-1,0-2-0.2-2.6-0.4c-0.3,0.3-0.5,0.7-0.7,1
		c-0.5,1.1-0.4,2.3,1,2.3l6.4,0.4c3.6,0.2,5.2,1.7,5.2,4.1c0,4.1-3.2,6.2-10.2,6.2c-4.8,0-7.2-1.4-7.2-4.6
		C32.4,200.3,33.3,199.1,35.4,197.9L35.4,197.9z M40.2,204.4c3.4,0,6.3-1.1,6.3-3.5c0-1.1-0.7-2-2.9-2.1l-6.5-0.4
		c-1.1,0.8-2,1.5-2,2.9C35,203.3,36.8,204.4,40.2,204.4z M44.7,187.1c0-2.4-1.6-3.9-4.1-3.9c-2.8,0-4.2,1.5-4.2,3.9
		c0,2.4,1.6,3.7,4.2,3.7C43.1,190.8,44.7,189.4,44.7,187.1z"/>
	<path class="st1" d="M56.2,175.1v4.4H53v-4.4H56.2z M56.2,181.4v17.7H53v-17.7H56.2z"/>
	<path class="st1" d="M67.1,199.4c-2.8,0-5.5-0.2-7.6-0.8l0.6-2.6c2.8,0.7,5.4,0.8,6.7,0.8c3.2,0,3.7-1.9,3.7-2.6c0-1.2-0.8-2-4-2.6
		c-3.7-0.7-6.6-1.9-6.6-5.6c0-3.4,2.4-4.9,6.5-4.9c2.7,0,4.9,0.3,7.1,0.8l-0.6,2.5c-2.8-0.7-5-0.8-6.3-0.8c-3.2,0-3.5,1.7-3.5,2.3
		c0,1.1,0.6,2,3.8,2.7c3.7,0.8,6.8,1.8,6.8,5.4C73.6,197.6,71.2,199.4,67.1,199.4z"/>
	<path class="st1" d="M78.9,183.7h-2.6v-2.1l2.6-0.2l0.4-4.9h2.8v4.9h4.9v2.3h-4.9v9.7c0,2.3,0.7,3.5,3,3.5c0.5,0,1.1-0.1,1.8-0.2
		l0.3,2.5c-1,0.1-2.3,0.2-3.2,0.2c-3.6,0-5.1-1.5-5.1-5.5V183.7z"/>
	<path class="st1" d="M93.8,199.1h-3.2v-17.7h3.2v2.8h0.1c1.4-1.6,3.8-3.2,6.6-3.2v3c-2.6,0-5.3,1.1-6.7,2V199.1z"/>
	<path class="st1" d="M104.6,184.4l-0.5-2.6c2.4-0.5,4.9-0.7,6.8-0.7c4.2,0,6.5,1.2,6.5,5.8v12.2h-3.2v-1.8c0,0,0,0-0.1,0
		c-1.7,1.5-3.3,2.1-5.6,2.1c-3.5,0-5.6-2.1-5.6-5.2c0-4,3.2-5.4,7.4-5.4h3.9v-1.8c0-2.3-1.2-3.4-4.1-3.4
		C108.9,183.7,107.2,183.9,104.6,184.4z M114.3,190.8h-3.7c-3.3,0-4.4,1.2-4.4,3.2c0,1.9,1.4,3,3.7,3c2,0,3.6-0.8,4.4-1.5V190.8z"/>
	<path class="st1" d="M124.9,199.1h-3.2v-17.7h3.2v2.5h0.1c1.7-1.7,3.8-2.8,6.3-2.8c3.5,0,5.3,2.1,5.3,5.8v12.2h-3.2v-11.5
		c0-2.3-0.9-3.9-3.5-3.9c-2,0-3.9,1.2-4.9,2V199.1z"/>
	<path class="st1" d="M142.1,183.7h-2.6v-2.1l2.6-0.2l0.4-4.9h2.8v4.9h4.9v2.3h-4.9v9.7c0,2.3,0.7,3.5,3,3.5c0.5,0,1.1-0.1,1.8-0.2
		l0.3,2.5c-1,0.1-2.3,0.2-3.2,0.2c-3.6,0-5.1-1.5-5.1-5.5V183.7z"/>
	<path class="st1" d="M161.1,199.4c-2.8,0-5.5-0.2-7.6-0.8l0.6-2.6c2.8,0.7,5.4,0.8,6.7,0.8c3.2,0,3.7-1.9,3.7-2.6
		c0-1.2-0.8-2-4-2.6c-3.7-0.7-6.6-1.9-6.6-5.6c0-3.4,2.4-4.9,6.5-4.9c2.7,0,4.9,0.3,7.1,0.8l-0.6,2.5c-2.8-0.7-5-0.8-6.3-0.8
		c-3.2,0-3.5,1.7-3.5,2.3c0,1.1,0.6,2,3.8,2.7c3.7,0.8,6.8,1.8,6.8,5.4C167.6,197.6,165.2,199.4,161.1,199.4z"/>
	<path class="st1" d="M171.2,184.3l0.7-4.6c-0.4,0-0.8,0-1.2,0v-4.6h3.2v4.6l-1.6,4.6H171.2z"/>
	<path class="st1" d="M189.3,181.4h4.2v2.3h-4.2v15.4h-3.2v-15.4h-2.6v-2.1l2.6-0.2v-2.2c0-3.4,1.2-4.9,5.1-4.9
		c0.8,0,1.9,0.1,2.8,0.3l-0.3,2.5c-0.7-0.1-1.3-0.2-1.8-0.2c-2,0-2.6,0.6-2.6,2.5V181.4z"/>
	<path class="st1" d="M199.5,190.8c0.1,3.5,1.7,6,5.8,6c1.7,0,3.5-0.1,5.5-0.7l0.4,2.6c-2.2,0.6-4.1,0.8-6.4,0.8
		c-6.5,0-8.8-3.7-8.8-9.2c0-5.5,2.3-9.2,8.7-9.2c5.4,0,6.9,3.1,7.1,6.1c0.1,1.1,0,2.4-0.2,3.6H199.5z M199.5,188.8h9
		c0.1-0.6,0.2-1.3,0.1-1.9c-0.1-1.8-1.2-3.4-4-3.4C201,183.6,199.7,185.8,199.5,188.8z"/>
	<path class="st1" d="M218.4,190.8c0.1,3.5,1.7,6,5.8,6c1.7,0,3.5-0.1,5.5-0.7l0.4,2.6c-2.2,0.6-4.1,0.8-6.4,0.8
		c-6.5,0-8.8-3.7-8.8-9.2c0-5.5,2.3-9.2,8.7-9.2c5.4,0,6.9,3.1,7.1,6.1c0.1,1.1,0,2.4-0.2,3.6H218.4z M218.4,188.8h9
		c0.1-0.6,0.2-1.3,0.1-1.9c-0.1-1.8-1.2-3.4-4-3.4C219.9,183.6,218.6,185.8,218.4,188.8z"/>
	<path class="st1" d="M241.1,199.4c-2.8,0-5.5-0.2-7.6-0.8l0.6-2.6c2.8,0.7,5.4,0.8,6.7,0.8c3.2,0,3.7-1.9,3.7-2.6
		c0-1.2-0.8-2-4-2.6c-3.7-0.7-6.6-1.9-6.6-5.6c0-3.4,2.4-4.9,6.5-4.9c2.7,0,4.9,0.3,7.1,0.8l-0.6,2.5c-2.8-0.7-5-0.8-6.3-0.8
		c-3.2,0-3.5,1.7-3.5,2.3c0,1.1,0.6,2,3.8,2.7c3.7,0.8,6.8,1.8,6.8,5.4C247.7,197.6,245.3,199.4,241.1,199.4z"/>
	<path class="st1" d="M259.2,184.4l-0.5-2.6c2.4-0.5,4.9-0.7,6.8-0.7c4.2,0,6.5,1.2,6.5,5.8v12.2h-3.2v-1.8c0,0,0,0-0.1,0
		c-1.7,1.5-3.3,2.1-5.6,2.1c-3.5,0-5.6-2.1-5.6-5.2c0-4,3.2-5.4,7.4-5.4h3.9v-1.8c0-2.3-1.2-3.4-4.1-3.4
		C263.5,183.7,261.8,183.9,259.2,184.4z M268.9,190.8h-3.7c-3.3,0-4.4,1.2-4.4,3.2c0,1.9,1.4,3,3.7,3c2,0,3.6-0.8,4.4-1.5V190.8z"/>
	<path class="st1" d="M279.5,199.1h-3.2v-17.7h3.2v2.5h0.1c1.7-1.7,3.8-2.8,6.3-2.8c3.5,0,5.3,2.1,5.3,5.8v12.2H288v-11.5
		c0-2.3-0.9-3.9-3.5-3.9c-2,0-3.9,1.2-4.9,2V199.1z"/>
	<path class="st1" d="M307,197.3C307,197.3,307,197.3,307,197.3c-1.3,1.2-3.4,2.1-5.5,2.1c-4.9,0-6.5-4.1-6.5-9.2s1.8-9.2,6.7-9.2
		c2,0,4,0.8,5.2,2c0,0,0,0,0.1,0v-8.8h3.2v24.7H307V197.3z M302.8,196.8c1.9,0,3.5-0.9,4.2-1.5v-10.1c-0.7-0.6-2.3-1.5-4.2-1.5
		c-3.5,0-4.4,3-4.4,6.5S299.3,196.8,302.8,196.8z"/>
	<path class="st1" d="M320.8,190.3c0-5.5,2.2-9.2,8.1-9.2c5.9,0,8.1,3.7,8.1,9.2c0,5.5-2.2,9.2-8.1,9.2
		C322.9,199.4,320.8,195.7,320.8,190.3z M324.1,190.3c0,3.7,1.1,6.5,4.8,6.5c3.7,0,4.8-2.8,4.8-6.5s-1.1-6.5-4.8-6.5
		C325.2,183.7,324.1,186.6,324.1,190.3z"/>
	<path class="st1" d="M341.8,183.7h-2.6v-2.1l2.6-0.2l0.4-4.9h2.8v4.9h4.9v2.3H345v9.7c0,2.3,0.7,3.5,3,3.5c0.5,0,1.1-0.1,1.8-0.2
		l0.3,2.5c-1,0.1-2.3,0.2-3.2,0.2c-3.6,0-5.1-1.5-5.1-5.5V183.7z"/>
	<path class="st1" d="M356.7,199.1h-3.2v-24.7h3.2v9.5h0.1c1.7-1.7,3.8-2.8,6.3-2.8c3.5,0,5.3,2.1,5.3,5.8v12.2h-3.2v-11.5
		c0-2.3-0.9-3.9-3.5-3.9c-2,0-3.9,1.2-4.9,2V199.1z"/>
	<path class="st1" d="M375.5,190.8c0.1,3.5,1.7,6,5.8,6c1.7,0,3.5-0.1,5.5-0.7l0.4,2.6c-2.2,0.6-4.1,0.8-6.4,0.8
		c-6.5,0-8.8-3.7-8.8-9.2c0-5.5,2.3-9.2,8.7-9.2c5.4,0,6.9,3.1,7.1,6.1c0.1,1.1,0,2.4-0.2,3.6H375.5z M375.5,188.8h9
		c0.1-0.6,0.2-1.3,0.1-1.9c-0.1-1.8-1.2-3.4-4-3.4C377.1,183.6,375.8,185.8,375.5,188.8z"/>
	<path class="st1" d="M394.7,199.1h-3.2v-17.7h3.2v2.8h0.1c1.4-1.6,3.8-3.2,6.6-3.2v3c-2.6,0-5.3,1.1-6.7,2V199.1z"/>
	<path class="st1" d="M414.8,199.1h-3.2v-17.7h3.2v2.8h0.1c1.4-1.6,3.8-3.2,6.6-3.2v3c-2.6,0-5.3,1.1-6.7,2V199.1z"/>
	<path class="st1" d="M427.4,190.8c0.1,3.5,1.7,6,5.8,6c1.7,0,3.5-0.1,5.5-0.7l0.4,2.6c-2.2,0.6-4.1,0.8-6.4,0.8
		c-6.5,0-8.8-3.7-8.8-9.2c0-5.5,2.3-9.2,8.7-9.2c5.4,0,6.9,3.1,7.1,6.1c0.1,1.1,0,2.4-0.2,3.6H427.4z M427.4,188.8h9
		c0.1-0.6,0.2-1.3,0.1-1.9c-0.1-1.8-1.2-3.4-4-3.4C428.9,183.6,427.6,185.8,427.4,188.8z"/>
	<path class="st1" d="M450.1,199.4c-2.8,0-5.5-0.2-7.6-0.8l0.6-2.6c2.8,0.7,5.4,0.8,6.7,0.8c3.2,0,3.7-1.9,3.7-2.6
		c0-1.2-0.8-2-4-2.6c-3.7-0.7-6.6-1.9-6.6-5.6c0-3.4,2.4-4.9,6.5-4.9c2.7,0,4.9,0.3,7.1,0.8l-0.6,2.5c-2.8-0.7-5-0.8-6.3-0.8
		c-3.2,0-3.5,1.7-3.5,2.3c0,1.1,0.6,2,3.8,2.7c3.7,0.8,6.8,1.8,6.8,5.4C456.7,197.6,454.3,199.4,450.1,199.4z"/>
	<path class="st1" d="M459.8,190.3c0-5.5,2.2-9.2,8.1-9.2c5.9,0,8.1,3.7,8.1,9.2c0,5.5-2.2,9.2-8.1,9.2
		C461.9,199.4,459.8,195.7,459.8,190.3z M463.1,190.3c0,3.7,1.1,6.5,4.8,6.5c3.7,0,4.8-2.8,4.8-6.5s-1.1-6.5-4.8-6.5
		C464.2,183.7,463.1,186.6,463.1,190.3z"/>
	<path class="st1" d="M491.4,181.4h3.2v17.7h-3.2v-2.5h-0.1c-1.7,1.7-3.8,2.8-6.3,2.8c-3.5,0-5.3-2.1-5.3-5.8v-12.2h3.2v11.5
		c0,2.3,1,3.9,3.5,3.9c2,0,3.9-1.2,4.9-2V181.4z"/>
	<path class="st1" d="M502.1,199.1h-3.2v-17.7h3.2v2.8h0.1c1.4-1.6,3.8-3.2,6.6-3.2v3c-2.6,0-5.3,1.1-6.7,2V199.1z"/>
	<path class="st1" d="M520,181.1c2.2,0,3.9,0.3,6,0.8l-0.6,2.5c-2.8-0.7-4.2-0.7-5.4-0.7c-3.7,0-5.3,2.6-5.3,6.5s1.6,6.5,5.3,6.5
		c1.2,0,2.6,0,5.4-0.7l0.6,2.6c-2.1,0.5-3.8,0.8-6,0.8c-6.5,0-8.7-3.7-8.7-9.2C511.3,184.8,513.5,181.1,520,181.1z"/>
	<path class="st1" d="M531.4,190.8c0.1,3.5,1.7,6,5.8,6c1.7,0,3.5-0.1,5.5-0.7l0.4,2.6c-2.2,0.6-4.1,0.8-6.4,0.8
		c-6.5,0-8.8-3.7-8.8-9.2c0-5.5,2.3-9.2,8.7-9.2c5.4,0,6.9,3.1,7.1,6.1c0.1,1.1,0,2.4-0.2,3.6H531.4z M531.4,188.8h9
		c0.1-0.6,0.2-1.3,0.1-1.9c-0.1-1.8-1.2-3.4-4-3.4C532.9,183.6,531.7,185.8,531.4,188.8z"/>
	<path class="st1" d="M554.2,199.4c-2.8,0-5.5-0.2-7.6-0.8l0.6-2.6c2.8,0.7,5.4,0.8,6.7,0.8c3.2,0,3.7-1.9,3.7-2.6
		c0-1.2-0.8-2-4-2.6c-3.7-0.7-6.6-1.9-6.6-5.6c0-3.4,2.4-4.9,6.5-4.9c2.7,0,4.9,0.3,7.1,0.8l-0.6,2.5c-2.8-0.7-5-0.8-6.3-0.8
		c-3.2,0-3.5,1.7-3.5,2.3c0,1.1,0.6,2,3.8,2.7c3.7,0.8,6.8,1.8,6.8,5.4C560.7,197.6,558.3,199.4,554.2,199.4z"/>
</g>
<g>
	<path class="st1" d="M5,227.9c0.1,3.5,1.7,6,5.8,6c1.7,0,3.5-0.1,5.5-0.7l0.4,2.6c-2.2,0.6-4.1,0.8-6.4,0.8c-6.5,0-8.8-3.7-8.8-9.2
		c0-5.5,2.3-9.2,8.7-9.2c5.4,0,6.9,3.1,7.1,6.1c0.1,1.1,0,2.4-0.2,3.6H5z M5,225.9h9c0.1-0.6,0.2-1.3,0.1-1.9
		c-0.1-1.8-1.2-3.4-4-3.4C6.5,220.7,5.3,222.9,5,225.9z"/>
	<path class="st1" d="M25.5,220.8v15.4h-3.2v-15.4h-2.6v-2.1l2.6-0.2V217c0-4,1.5-5.5,5.1-5.5c0.8,0,1.9,0.1,2.8,0.3l-0.3,2.5
		c-0.7-0.1-1.3-0.2-1.8-0.2c-2.1,0-2.6,1.2-2.6,3.5v1h7.2v-1c0-4,1.9-6,6.7-6c1.4,0,4.4,0.4,6.2,1.2l-0.4,2.3
		c-1.8-0.7-4.1-0.9-5.5-0.9c-3.2,0-3.9,1.4-3.9,3.5v1h10.4v17.7h-3.2v-15.4h-7.2v15.4h-3.2v-15.4H25.5z"/>
	<path class="st1" d="M58.8,218.2c2.2,0,3.9,0.3,6,0.8l-0.6,2.5c-2.8-0.7-4.2-0.7-5.4-0.7c-3.7,0-5.3,2.6-5.3,6.5s1.6,6.5,5.3,6.5
		c1.2,0,2.6,0,5.4-0.7l0.6,2.6c-2.1,0.5-3.8,0.8-6,0.8c-6.5,0-8.7-3.7-8.7-9.2C50.2,221.9,52.4,218.2,58.8,218.2z"/>
	<path class="st1" d="M71,212.2v4.4h-3.2v-4.4H71z M71,218.5v17.7h-3.2v-17.7H71z"/>
	<path class="st1" d="M78.2,227.9c0.1,3.5,1.7,6,5.8,6c1.7,0,3.5-0.1,5.5-0.7l0.4,2.6c-2.2,0.6-4.1,0.8-6.4,0.8
		c-6.5,0-8.8-3.7-8.8-9.2c0-5.5,2.3-9.2,8.7-9.2c5.4,0,6.9,3.1,7.1,6.1c0.1,1.1,0,2.4-0.2,3.6H78.2z M78.2,225.9h9
		c0.1-0.6,0.2-1.3,0.1-1.9c-0.1-1.8-1.2-3.4-4-3.4C79.7,220.7,78.5,222.9,78.2,225.9z"/>
	<path class="st1" d="M97.3,236.2h-3.2v-17.7h3.2v2.5h0.1c1.7-1.7,3.8-2.8,6.3-2.8c3.5,0,5.3,2.1,5.3,5.8v12.2h-3.2v-11.5
		c0-2.3-0.9-3.9-3.5-3.9c-2,0-3.9,1.2-4.9,2V236.2z"/>
	<path class="st1" d="M114.5,220.8h-2.6v-2.1l2.6-0.2l0.4-4.9h2.8v4.9h4.9v2.3h-4.9v9.7c0,2.3,0.7,3.5,3,3.5c0.5,0,1.1-0.1,1.8-0.2
		l0.3,2.5c-1,0.1-2.3,0.2-3.2,0.2c-3.6,0-5.1-1.5-5.1-5.5V220.8z"/>
	<path class="st1" d="M126.2,211.5h3.2v24.7h-3.2V211.5z"/>
	<path class="st1" d="M132.7,218.5h3.6l5.1,14.4h0.1l4.8-14.4h3.4l-6.6,18.7c-1.6,4.6-3.7,6.4-7.1,6.4c-0.8,0-1.9-0.1-2.6-0.2
		l0.3-2.6c0.6,0.1,1.2,0.2,1.7,0.2c2.3,0,3.6-2.3,4.4-4.3L132.7,218.5z"/>
	<path class="st1" d="M161.2,221.5l-0.5-2.6c2.4-0.5,4.9-0.7,6.8-0.7c4.2,0,6.5,1.2,6.5,5.8v12.2h-3.2v-1.8c0,0,0,0-0.1,0
		c-1.7,1.5-3.3,2.1-5.6,2.1c-3.5,0-5.6-2.1-5.6-5.2c0-4,3.2-5.4,7.4-5.4h3.9v-1.8c0-2.3-1.2-3.4-4.1-3.4
		C165.4,220.8,163.8,221,161.2,221.5z M170.8,227.9h-3.7c-3.3,0-4.4,1.2-4.4,3.2c0,1.9,1.4,3,3.7,3c2,0,3.6-0.8,4.4-1.5V227.9z"/>
	<path class="st1" d="M181.5,236.2h-3.2v-17.7h3.2v2.5h0.1c1.7-1.7,3.8-2.8,6.3-2.8c3.5,0,5.3,2.1,5.3,5.8v12.2H190v-11.5
		c0-2.3-0.9-3.9-3.5-3.9c-2,0-3.9,1.2-4.9,2V236.2z"/>
	<path class="st1" d="M209,234.4C209,234.4,209,234.4,209,234.4c-1.3,1.2-3.4,2.1-5.5,2.1c-4.9,0-6.5-4.1-6.5-9.2s1.8-9.2,6.7-9.2
		c2,0,4,0.8,5.2,2c0,0,0,0,0.1,0v-8.8h3.2v24.7H209V234.4z M204.8,233.9c1.9,0,3.5-0.9,4.2-1.5v-10.1c-0.7-0.6-2.3-1.5-4.2-1.5
		c-3.5,0-4.4,3-4.4,6.5S201.3,233.9,204.8,233.9z"/>
	<path class="st1" d="M226.2,227.9c0.1,3.5,1.7,6,5.8,6c1.7,0,3.5-0.1,5.5-0.7l0.4,2.6c-2.2,0.6-4.1,0.8-6.4,0.8
		c-6.5,0-8.8-3.7-8.8-9.2c0-5.5,2.3-9.2,8.7-9.2c5.4,0,6.9,3.1,7.1,6.1c0.1,1.1,0,2.4-0.2,3.6H226.2z M226.2,225.9h9
		c0.1-0.6,0.2-1.3,0.1-1.9c-0.1-1.8-1.2-3.4-4-3.4C227.7,220.7,226.4,222.9,226.2,225.9z"/>
	<path class="st1" d="M253.9,217c0-4,1.5-5.5,5.1-5.5c0.8,0,1.9,0.1,2.8,0.3l-0.3,2.5c-0.7-0.1-1.3-0.2-1.8-0.2
		c-2.1,0-2.6,1.2-2.6,3.5v1h4.6v2.3h-4.6v15.4h-3.2v-15.4h-7.2v15.4h-3.2v-15.4h-2.6v-2.1l2.6-0.2V217c0-4,1.5-5.5,5.1-5.5
		c0.8,0,1.9,0.1,2.8,0.3l-0.3,2.5c-0.7-0.1-1.3-0.2-1.8-0.2c-2.1,0-2.6,1.2-2.6,3.5v1h7.2V217z"/>
	<path class="st1" d="M267.2,227.9c0.1,3.5,1.7,6,5.8,6c1.7,0,3.5-0.1,5.5-0.7l0.4,2.6c-2.2,0.6-4.1,0.8-6.4,0.8
		c-6.5,0-8.8-3.7-8.8-9.2c0-5.5,2.3-9.2,8.7-9.2c5.4,0,6.9,3.1,7.1,6.1c0.1,1.1,0,2.4-0.2,3.6H267.2z M267.2,225.9h9
		c0.1-0.6,0.2-1.3,0.1-1.9c-0.1-1.8-1.2-3.4-4-3.4C268.7,220.7,267.4,222.9,267.2,225.9z"/>
	<path class="st1" d="M291.3,218.2c2.2,0,3.9,0.3,6,0.8l-0.6,2.5c-2.8-0.7-4.2-0.7-5.4-0.7c-3.7,0-5.3,2.6-5.3,6.5s1.6,6.5,5.3,6.5
		c1.2,0,2.6,0,5.4-0.7l0.6,2.6c-2.1,0.5-3.8,0.8-6,0.8c-6.5,0-8.7-3.7-8.7-9.2C282.7,221.9,284.8,218.2,291.3,218.2z"/>
	<path class="st1" d="M302.4,220.8h-2.6v-2.1l2.6-0.2l0.4-4.9h2.8v4.9h4.9v2.3h-4.9v9.7c0,2.3,0.7,3.5,3,3.5c0.5,0,1.1-0.1,1.8-0.2
		l0.3,2.5c-1,0.1-2.3,0.2-3.2,0.2c-3.6,0-5.1-1.5-5.1-5.5V220.8z"/>
	<path class="st1" d="M317.3,212.2v4.4h-3.2v-4.4H317.3z M317.3,218.5v17.7h-3.2v-17.7H317.3z"/>
	<path class="st1" d="M327.1,236.4l-6.5-17.8h3.6l4.9,14.3h0.1l5-14.3h3.4l-6.6,17.8H327.1z"/>
	<path class="st1" d="M343.1,227.9c0.1,3.5,1.7,6,5.8,6c1.7,0,3.5-0.1,5.5-0.7l0.4,2.6c-2.2,0.6-4.1,0.8-6.4,0.8
		c-6.5,0-8.8-3.7-8.8-9.2c0-5.5,2.3-9.2,8.7-9.2c5.4,0,6.9,3.1,7.1,6.1c0.1,1.1,0,2.4-0.2,3.6H343.1z M343.1,225.9h9
		c0.1-0.6,0.2-1.3,0.1-1.9c-0.1-1.8-1.2-3.4-4-3.4C344.6,220.7,343.4,222.9,343.1,225.9z"/>
	<path class="st1" d="M359.1,211.5h3.2v24.7h-3.2V211.5z"/>
	<path class="st1" d="M365.6,218.5h3.6l5.1,14.4h0.1l4.8-14.4h3.4l-6.6,18.7c-1.6,4.6-3.7,6.4-7.1,6.4c-0.8,0-1.9-0.1-2.6-0.2
		l0.3-2.6c0.6,0.1,1.2,0.2,1.7,0.2c2.3,0,3.6-2.3,4.4-4.3L365.6,218.5z"/>
</g>
<g>
	<path class="st1" d="M11.5,286.3v21H8.2v-21H1.6v-3h16.6v3H11.5z"/>
	<path class="st1" d="M22,299c0.1,3.5,1.7,6,5.8,6c1.7,0,3.5-0.1,5.5-0.7l0.4,2.6c-2.2,0.6-4.1,0.8-6.4,0.8c-6.5,0-8.8-3.7-8.8-9.2
		s2.3-9.2,8.7-9.2c5.4,0,6.9,3.1,7.1,6.1c0.1,1.1,0,2.4-0.2,3.6H22z M22,297h9c0.1-0.6,0.2-1.3,0.1-1.9c-0.1-1.8-1.2-3.4-4-3.4
		C23.5,291.8,22.2,294,22,297z"/>
	<path class="st1" d="M38.5,292.6L38,290c2.4-0.5,4.9-0.7,6.8-0.7c4.2,0,6.5,1.2,6.5,5.8v12.2h-3.2v-1.8c0,0,0,0-0.1,0
		c-1.7,1.5-3.3,2.1-5.6,2.1c-3.5,0-5.6-2.1-5.6-5.2c0-4,3.2-5.4,7.4-5.4h3.9v-1.8c0-2.3-1.2-3.4-4.1-3.4
		C42.8,291.9,41.1,292.1,38.5,292.6z M48.2,299h-3.7c-3.3,0-4.4,1.2-4.4,3.2c0,1.9,1.4,3,3.7,3c2,0,3.6-0.8,4.4-1.5V299z"/>
	<path class="st1" d="M63.8,289.3c2.2,0,3.9,0.3,6,0.8l-0.6,2.5c-2.8-0.7-4.2-0.7-5.4-0.7c-3.7,0-5.3,2.6-5.3,6.5s1.6,6.5,5.3,6.5
		c1.2,0,2.6,0,5.4-0.7l0.6,2.6c-2.1,0.5-3.8,0.8-6,0.8c-6.5,0-8.7-3.7-8.7-9.2S57.3,289.3,63.8,289.3z"/>
	<path class="st1" d="M75.9,307.3h-3.2v-24.7h3.2v9.5H76c1.7-1.7,3.8-2.8,6.3-2.8c3.5,0,5.3,2.1,5.3,5.8v12.2h-3.2v-11.5
		c0-2.3-0.9-3.9-3.5-3.9c-2,0-3.9,1.2-4.9,2V307.3z"/>
	<path class="st1" d="M94.7,299c0.1,3.5,1.7,6,5.8,6c1.7,0,3.5-0.1,5.5-0.7l0.4,2.6c-2.2,0.6-4.1,0.8-6.4,0.8
		c-6.5,0-8.8-3.7-8.8-9.2s2.3-9.2,8.7-9.2c5.4,0,6.9,3.1,7.1,6.1c0.1,1.1,0,2.4-0.2,3.6H94.7z M94.7,297h9c0.1-0.6,0.2-1.3,0.1-1.9
		c-0.1-1.8-1.2-3.4-4-3.4C96.2,291.8,95,294,94.7,297z"/>
	<path class="st1" d="M113.9,307.3h-3.2v-17.7h3.2v2.8h0.1c1.4-1.6,3.8-3.2,6.6-3.2v3c-2.6,0-5.3,1.1-6.7,2V307.3z"/>
	<path class="st1" d="M130.9,307.7c-2.8,0-5.5-0.2-7.6-0.8l0.6-2.6c2.8,0.7,5.4,0.8,6.7,0.8c3.2,0,3.7-1.9,3.7-2.6
		c0-1.2-0.8-2-4-2.6c-3.7-0.7-6.6-1.9-6.6-5.6c0-3.4,2.4-4.9,6.5-4.9c2.7,0,4.9,0.3,7.1,0.8l-0.6,2.5c-2.8-0.7-5-0.8-6.3-0.8
		c-3.2,0-3.5,1.7-3.5,2.3c0,1.1,0.6,2,3.8,2.7c3.7,0.8,6.8,1.8,6.8,5.4C137.4,305.8,135,307.7,130.9,307.7z"/>
	<path class="st1" d="M151,307.3h-3.2v-17.7h3.2v2.8h0.1c1.4-1.6,3.8-3.2,6.6-3.2v3c-2.6,0-5.3,1.1-6.7,2V307.3z"/>
	<path class="st1" d="M163.6,299c0.1,3.5,1.7,6,5.8,6c1.7,0,3.5-0.1,5.5-0.7l0.4,2.6c-2.2,0.6-4.1,0.8-6.4,0.8
		c-6.5,0-8.8-3.7-8.8-9.2s2.3-9.2,8.7-9.2c5.4,0,6.9,3.1,7.1,6.1c0.1,1.1,0,2.4-0.2,3.6H163.6z M163.6,297h9
		c0.1-0.6,0.2-1.3,0.1-1.9c-0.1-1.8-1.2-3.4-4-3.4C165.1,291.8,163.9,294,163.6,297z"/>
	<path class="st1" d="M187.7,289.3c2.2,0,3.9,0.3,6,0.8l-0.6,2.5c-2.8-0.7-4.2-0.7-5.4-0.7c-3.7,0-5.3,2.6-5.3,6.5s1.6,6.5,5.3,6.5
		c1.2,0,2.6,0,5.4-0.7l0.6,2.6c-2.1,0.5-3.8,0.8-6,0.8c-6.5,0-8.7-3.7-8.7-9.2S181.3,289.3,187.7,289.3z"/>
	<path class="st1" d="M199.2,299c0.1,3.5,1.7,6,5.8,6c1.7,0,3.5-0.1,5.5-0.7l0.4,2.6c-2.2,0.6-4.1,0.8-6.4,0.8
		c-6.5,0-8.8-3.7-8.8-9.2s2.3-9.2,8.7-9.2c5.4,0,6.9,3.1,7.1,6.1c0.1,1.1,0,2.4-0.2,3.6H199.2z M199.2,297h9
		c0.1-0.6,0.2-1.3,0.1-1.9c-0.1-1.8-1.2-3.4-4-3.4C200.7,291.8,199.4,294,199.2,297z"/>
	<path class="st1" d="M218.3,283.3v4.4h-3.2v-4.4H218.3z M218.3,289.6v17.7h-3.2v-17.7H218.3z"/>
	<path class="st1" d="M228.2,307.5l-6.5-17.8h3.6l4.9,14.3h0.1l5-14.3h3.4l-6.6,17.8H228.2z"/>
	<path class="st1" d="M244.2,299c0.1,3.5,1.7,6,5.8,6c1.7,0,3.5-0.1,5.5-0.7l0.4,2.6c-2.2,0.6-4.1,0.8-6.4,0.8
		c-6.5,0-8.8-3.7-8.8-9.2s2.3-9.2,8.7-9.2c5.4,0,6.9,3.1,7.1,6.1c0.1,1.1,0,2.4-0.2,3.6H244.2z M244.2,297h9
		c0.1-0.6,0.2-1.3,0.1-1.9c-0.1-1.8-1.2-3.4-4-3.4C245.7,291.8,244.4,294,244.2,297z"/>
	<path class="st1" d="M270,283.3v4.4h-3.2v-4.4H270z M270,289.6v17.7h-3.2v-17.7H270z"/>
	<path class="st1" d="M277.5,307.3h-3.2v-17.7h3.2v2.5h0.1c1.4-1.5,3.3-2.8,5.8-2.8c2.5,0,4.1,1.1,4.8,3.1c1.7-1.8,3.8-3.1,6.3-3.1
		c3.5,0,5.3,2.1,5.3,5.8v12.2h-3.2v-11.5c0-2.3-1-3.9-3.5-3.9c-1.8,0-3.4,1.2-4.5,2.1c0.1,0.6,0.1,1.2,0.1,1.9v11.3h-3.2v-11.6
		c-0.1-2.2-1-3.8-3.5-3.8c-1.9,0-3.4,1.2-4.4,2V307.3z"/>
	<path class="st1" d="M307.3,291.4L307.3,291.4c1.3-1.2,3.4-2.1,5.5-2.1c4.9,0,6.5,4.1,6.5,9.2s-1.8,9.2-6.7,9.2c-2,0-4-0.8-5.2-2
		h-0.1v8.7h-3.2v-24.7h3.2V291.4z M311.5,291.9c-1.9,0-3.5,0.9-4.2,1.5v10.1c0.7,0.6,2.3,1.5,4.2,1.5c3.4,0,4.4-3,4.4-6.5
		S314.9,291.9,311.5,291.9z"/>
	<path class="st1" d="M326.3,307.3h-3.2v-17.7h3.2v2.8h0.1c1.4-1.6,3.8-3.2,6.6-3.2v3c-2.6,0-5.3,1.1-6.7,2V307.3z"/>
	<path class="st1" d="M335.5,298.5c0-5.5,2.2-9.2,8.1-9.2c5.9,0,8.1,3.7,8.1,9.2s-2.2,9.2-8.1,9.2
		C337.7,307.7,335.5,303.9,335.5,298.5z M338.9,298.5c0,3.7,1.1,6.5,4.8,6.5c3.7,0,4.8-2.8,4.8-6.5s-1.1-6.5-4.8-6.5
		C339.9,291.9,338.9,294.8,338.9,298.5z"/>
	<path class="st1" d="M360.4,307.5l-6.5-17.8h3.6l4.9,14.3h0.1l5-14.3h3.4l-6.6,17.8H360.4z"/>
	<path class="st1" d="M376.4,299c0.1,3.5,1.7,6,5.8,6c1.7,0,3.5-0.1,5.5-0.7l0.4,2.6c-2.2,0.6-4.1,0.8-6.4,0.8
		c-6.5,0-8.8-3.7-8.8-9.2s2.3-9.2,8.7-9.2c5.4,0,6.9,3.1,7.1,6.1c0.1,1.1,0,2.4-0.2,3.6H376.4z M376.4,297h9
		c0.1-0.6,0.2-1.3,0.1-1.9c-0.1-1.8-1.2-3.4-4-3.4C378,291.8,376.7,294,376.4,297z"/>
	<path class="st1" d="M403.9,305.5C403.9,305.5,403.9,305.5,403.9,305.5c-1.3,1.2-3.4,2.1-5.5,2.1c-4.9,0-6.5-4.1-6.5-9.2
		s1.8-9.2,6.7-9.2c2,0,4,0.8,5.2,2c0,0,0,0,0.1,0v-8.8h3.2v24.7h-3.2V305.5z M399.7,305c1.9,0,3.5-0.9,4.2-1.5v-10.1
		c-0.7-0.6-2.3-1.5-4.2-1.5c-3.5,0-4.4,3-4.4,6.5S396.2,305,399.7,305z"/>
	<path class="st1" d="M421.2,291.4L421.2,291.4c1.3-1.2,3.4-2.1,5.5-2.1c4.9,0,6.5,4.1,6.5,9.2s-1.8,9.2-6.7,9.2c-2,0-4-0.8-5.2-2
		h-0.1v8.7H418v-24.7h3.2V291.4z M425.4,291.9c-1.9,0-3.5,0.9-4.2,1.5v10.1c0.7,0.6,2.3,1.5,4.2,1.5c3.4,0,4.4-3,4.4-6.5
		S428.9,291.9,425.4,291.9z"/>
	<path class="st1" d="M440.2,307.3h-3.2v-17.7h3.2v2.8h0.1c1.4-1.6,3.8-3.2,6.6-3.2v3c-2.6,0-5.3,1.1-6.7,2V307.3z"/>
	<path class="st1" d="M449.4,298.5c0-5.5,2.2-9.2,8.1-9.2c5.9,0,8.1,3.7,8.1,9.2s-2.2,9.2-8.1,9.2
		C451.6,307.7,449.4,303.9,449.4,298.5z M452.8,298.5c0,3.7,1.1,6.5,4.8,6.5c3.7,0,4.8-2.8,4.8-6.5s-1.1-6.5-4.8-6.5
		C453.9,291.9,452.8,294.8,452.8,298.5z"/>
	<path class="st1" d="M473.7,289.6h4.2v2.3h-4.2v15.4h-3.2v-15.4h-2.6v-2.1l2.6-0.2v-2.2c0-3.4,1.2-4.9,5.1-4.9
		c0.8,0,1.9,0.1,2.8,0.3l-0.3,2.5c-0.7-0.1-1.3-0.2-1.8-0.2c-2,0-2.6,0.6-2.6,2.5V289.6z"/>
	<path class="st1" d="M483.8,299c0.1,3.5,1.7,6,5.8,6c1.7,0,3.5-0.1,5.5-0.7l0.4,2.6c-2.2,0.6-4.1,0.8-6.4,0.8
		c-6.5,0-8.8-3.7-8.8-9.2s2.3-9.2,8.7-9.2c5.4,0,6.9,3.1,7.1,6.1c0.1,1.1,0,2.4-0.2,3.6H483.8z M483.8,297h9
		c0.1-0.6,0.2-1.3,0.1-1.9c-0.1-1.8-1.2-3.4-4-3.4C485.3,291.8,484.1,294,483.8,297z"/>
	<path class="st1" d="M506.6,307.7c-2.8,0-5.5-0.2-7.6-0.8l0.6-2.6c2.8,0.7,5.4,0.8,6.7,0.8c3.2,0,3.7-1.9,3.7-2.6
		c0-1.2-0.8-2-4-2.6c-3.7-0.7-6.6-1.9-6.6-5.6c0-3.4,2.4-4.9,6.5-4.9c2.7,0,4.9,0.3,7.1,0.8l-0.6,2.5c-2.8-0.7-5-0.8-6.3-0.8
		c-3.2,0-3.5,1.7-3.5,2.3c0,1.1,0.6,2,3.8,2.7c3.7,0.8,6.8,1.8,6.8,5.4C513.1,305.8,510.7,307.7,506.6,307.7z"/>
	<path class="st1" d="M523.5,307.7c-2.8,0-5.5-0.2-7.6-0.8l0.6-2.6c2.8,0.7,5.4,0.8,6.7,0.8c3.2,0,3.7-1.9,3.7-2.6
		c0-1.2-0.8-2-4-2.6c-3.7-0.7-6.6-1.9-6.6-5.6c0-3.4,2.4-4.9,6.5-4.9c2.7,0,4.9,0.3,7.1,0.8l-0.6,2.5c-2.8-0.7-5-0.8-6.3-0.8
		c-3.2,0-3.5,1.7-3.5,2.3c0,1.1,0.6,2,3.8,2.7c3.7,0.8,6.8,1.8,6.8,5.4C530,305.8,527.6,307.7,523.5,307.7z"/>
	<path class="st1" d="M536.7,283.3v4.4h-3.2v-4.4H536.7z M536.7,289.6v17.7h-3.2v-17.7H536.7z"/>
	<path class="st1" d="M540.5,298.5c0-5.5,2.2-9.2,8.1-9.2c5.9,0,8.1,3.7,8.1,9.2s-2.2,9.2-8.1,9.2
		C542.7,307.7,540.5,303.9,540.5,298.5z M543.9,298.5c0,3.7,1.1,6.5,4.8,6.5c3.7,0,4.8-2.8,4.8-6.5s-1.1-6.5-4.8-6.5
		C544.9,291.9,543.9,294.8,543.9,298.5z"/>
	<path class="st1" d="M563.7,307.3h-3.2v-17.7h3.2v2.5h0.1c1.7-1.7,3.8-2.8,6.3-2.8c3.5,0,5.3,2.1,5.3,5.8v12.2h-3.2v-11.5
		c0-2.3-0.9-3.9-3.5-3.9c-2,0-3.9,1.2-4.9,2V307.3z"/>
	<path class="st1" d="M580.4,292.6l-0.5-2.6c2.4-0.5,4.9-0.7,6.8-0.7c4.2,0,6.5,1.2,6.5,5.8v12.2H590v-1.8c0,0,0,0-0.1,0
		c-1.7,1.5-3.3,2.1-5.6,2.1c-3.5,0-5.6-2.1-5.6-5.2c0-4,3.2-5.4,7.4-5.4h3.9v-1.8c0-2.3-1.2-3.4-4.1-3.4
		C584.6,291.9,583,292.1,580.4,292.6z M590,299h-3.7c-3.3,0-4.4,1.2-4.4,3.2c0,1.9,1.4,3,3.7,3c2,0,3.6-0.8,4.4-1.5V299z"/>
	<path class="st1" d="M597.9,307.3v-24h3.4v24H597.9z"/>
</g>
<g>
	<path class="st1" d="M1.9,319.7h3.2v24.7H1.9V319.7z"/>
	<path class="st1" d="M12.3,336.1c0.1,3.5,1.7,6,5.8,6c1.7,0,3.5-0.1,5.5-0.7l0.4,2.6c-2.2,0.6-4.1,0.8-6.4,0.8
		c-6.5,0-8.8-3.7-8.8-9.2s2.3-9.2,8.7-9.2c5.4,0,6.9,3.1,7.1,6.1c0.1,1.1,0,2.4-0.2,3.6H12.3z M12.3,334.1h9
		c0.1-0.6,0.2-1.3,0.1-1.9c-0.1-1.8-1.2-3.4-4-3.4C13.8,328.9,12.6,331.1,12.3,334.1z"/>
	<path class="st1" d="M28.8,329.7l-0.5-2.6c2.4-0.5,4.9-0.7,6.8-0.7c4.2,0,6.5,1.2,6.5,5.8v12.2h-3.2v-1.8c0,0,0,0-0.1,0
		c-1.7,1.5-3.3,2.1-5.6,2.1c-3.5,0-5.6-2.1-5.6-5.2c0-4,3.2-5.4,7.4-5.4h3.9v-1.8c0-2.3-1.2-3.4-4.1-3.4
		C33.1,329,31.5,329.2,28.8,329.7z M38.5,336.1h-3.7c-3.3,0-4.4,1.2-4.4,3.2c0,1.9,1.4,3,3.7,3c2,0,3.6-0.8,4.4-1.5V336.1z"/>
	<path class="st1" d="M49.2,344.4H46v-17.7h3.2v2.8h0.1c1.4-1.6,3.8-3.2,6.6-3.2v3c-2.6,0-5.3,1.1-6.7,2V344.4z"/>
	<path class="st1" d="M62.3,344.4h-3.2v-17.7h3.2v2.5h0.1c1.7-1.7,3.8-2.8,6.3-2.8c3.5,0,5.3,2.1,5.3,5.8v12.2h-3.2v-11.5
		c0-2.3-0.9-3.9-3.5-3.9c-2,0-3.9,1.2-4.9,2V344.4z"/>
	<path class="st1" d="M81.5,320.4v4.4h-3.2v-4.4H81.5z M81.5,326.8v17.7h-3.2v-17.7H81.5z"/>
	<path class="st1" d="M88.9,344.4h-3.2v-17.7h3.2v2.5H89c1.7-1.7,3.8-2.8,6.3-2.8c3.5,0,5.3,2.1,5.3,5.8v12.2h-3.2v-11.5
		c0-2.3-0.9-3.9-3.5-3.9c-2,0-3.9,1.2-4.9,2V344.4z"/>
	<path class="st1" d="M106.5,343.2c-1-0.5-1.4-1.4-1.3-2.4c0-1.2,0.8-2.5,2.3-3.4v-0.1c-1.8-0.9-2.9-2.6-2.9-4.9c0-3.9,2.8-6,7.2-6
		c1,0,1.8,0.2,2.4,0.4h6.2v1.9H117c1.4,1,1.7,2.5,1.7,3.7c0,4-3,5.8-7,5.8c-1,0-2-0.2-2.6-0.4c-0.3,0.3-0.5,0.7-0.7,1
		c-0.5,1.1-0.4,2.3,1,2.3l6.4,0.4c3.6,0.2,5.2,1.7,5.2,4.1c0,4.1-3.2,6.2-10.2,6.2c-4.8,0-7.2-1.4-7.2-4.6
		C103.4,345.6,104.4,344.4,106.5,343.2L106.5,343.2z M111.3,349.7c3.4,0,6.3-1.1,6.3-3.5c0-1.1-0.7-2-2.9-2.1l-6.5-0.4
		c-1.1,0.8-2,1.5-2,2.9C106.1,348.6,107.9,349.7,111.3,349.7z M115.8,332.4c0-2.4-1.6-3.9-4.1-3.9c-2.8,0-4.2,1.5-4.2,3.9
		c0,2.4,1.6,3.7,4.2,3.7C114.2,336.1,115.8,334.7,115.8,332.4z"/>
	<path class="st1" d="M138,344.8c-2.8,0-5.5-0.2-7.6-0.8l0.6-2.6c2.8,0.7,5.4,0.8,6.7,0.8c3.2,0,3.7-1.9,3.7-2.6c0-1.2-0.8-2-4-2.6
		c-3.7-0.7-6.6-1.9-6.6-5.6c0-3.4,2.4-4.9,6.5-4.9c2.7,0,4.9,0.3,7.1,0.8l-0.6,2.5c-2.8-0.7-5-0.8-6.3-0.8c-3.2,0-3.5,1.7-3.5,2.3
		c0,1.1,0.6,2,3.8,2.7c3.7,0.8,6.8,1.8,6.8,5.4C144.5,342.9,142.1,344.8,138,344.8z"/>
	<path class="st1" d="M151,336.1c0.1,3.5,1.7,6,5.8,6c1.7,0,3.5-0.1,5.5-0.7l0.4,2.6c-2.2,0.6-4.1,0.8-6.4,0.8
		c-6.5,0-8.8-3.7-8.8-9.2s2.3-9.2,8.7-9.2c5.4,0,6.9,3.1,7.1,6.1c0.1,1.1,0,2.4-0.2,3.6H151z M151,334.1h9c0.1-0.6,0.2-1.3,0.1-1.9
		c-0.1-1.8-1.2-3.4-4-3.4C152.5,328.9,151.3,331.1,151,334.1z"/>
	<path class="st1" d="M170.1,344.4H167v-17.7h3.2v2.8h0.1c1.4-1.6,3.8-3.2,6.6-3.2v3c-2.6,0-5.3,1.1-6.7,2V344.4z"/>
	<path class="st1" d="M186.4,344.6l-6.5-17.8h3.6l4.9,14.3h0.1l5-14.3h3.4l-6.6,17.8H186.4z"/>
	<path class="st1" d="M203.3,320.4v4.4h-3.2v-4.4H203.3z M203.3,326.8v17.7h-3.2v-17.7H203.3z"/>
	<path class="st1" d="M215.8,326.4c2.2,0,3.9,0.3,6,0.8l-0.6,2.5c-2.8-0.7-4.2-0.7-5.4-0.7c-3.7,0-5.3,2.6-5.3,6.5s1.6,6.5,5.3,6.5
		c1.2,0,2.6,0,5.4-0.7l0.6,2.6c-2.1,0.5-3.8,0.8-6,0.8c-6.5,0-8.7-3.7-8.7-9.2S209.3,326.4,215.8,326.4z"/>
	<path class="st1" d="M227.2,336.1c0.1,3.5,1.7,6,5.8,6c1.7,0,3.5-0.1,5.5-0.7l0.4,2.6c-2.2,0.6-4.1,0.8-6.4,0.8
		c-6.5,0-8.8-3.7-8.8-9.2s2.3-9.2,8.7-9.2c5.4,0,6.9,3.1,7.1,6.1c0.1,1.1,0,2.4-0.2,3.6H227.2z M227.2,334.1h9
		c0.1-0.6,0.2-1.3,0.1-1.9c-0.1-1.8-1.2-3.4-4-3.4C228.7,328.9,227.5,331.1,227.2,334.1z"/>
	<path class="st1" d="M250,344.8c-2.8,0-5.5-0.2-7.6-0.8l0.6-2.6c2.8,0.7,5.4,0.8,6.7,0.8c3.2,0,3.7-1.9,3.7-2.6c0-1.2-0.8-2-4-2.6
		c-3.7-0.7-6.6-1.9-6.6-5.6c0-3.4,2.4-4.9,6.5-4.9c2.7,0,4.9,0.3,7.1,0.8l-0.6,2.5c-2.8-0.7-5-0.8-6.3-0.8c-3.2,0-3.5,1.7-3.5,2.3
		c0,1.1,0.6,2,3.8,2.7c3.7,0.8,6.8,1.8,6.8,5.4C256.5,342.9,254.1,344.8,250,344.8z"/>
	<path class="st1" d="M268.4,329h-2.6V327l2.6-0.2l0.4-4.9h2.8v4.9h4.9v2.3h-4.9v9.7c0,2.3,0.7,3.5,3,3.5c0.5,0,1.1-0.1,1.8-0.2
		l0.3,2.5c-1,0.1-2.3,0.2-3.2,0.2c-3.6,0-5.1-1.5-5.1-5.5V329z"/>
	<path class="st1" d="M283.3,344.4h-3.2v-24.7h3.2v9.5h0.1c1.7-1.7,3.8-2.8,6.3-2.8c3.5,0,5.3,2.1,5.3,5.8v12.2h-3.2v-11.5
		c0-2.3-0.9-3.9-3.5-3.9c-2,0-3.9,1.2-4.9,2V344.4z"/>
	<path class="st1" d="M302.4,344.4h-3.2v-17.7h3.2v2.8h0.1c1.4-1.6,3.8-3.2,6.6-3.2v3c-2.6,0-5.3,1.1-6.7,2V344.4z"/>
	<path class="st1" d="M311.6,335.6c0-5.5,2.2-9.2,8.1-9.2c5.9,0,8.1,3.7,8.1,9.2s-2.2,9.2-8.1,9.2
		C313.8,344.8,311.6,341.1,311.6,335.6z M315,335.6c0,3.7,1.1,6.5,4.8,6.5c3.7,0,4.8-2.8,4.8-6.5s-1.1-6.5-4.8-6.5
		C316,329,315,331.9,315,335.6z"/>
	<path class="st1" d="M343.2,326.8h3.2v17.7h-3.2v-2.5h-0.1c-1.7,1.7-3.8,2.8-6.3,2.8c-3.5,0-5.3-2.1-5.3-5.8v-12.2h3.2v11.5
		c0,2.3,1,3.9,3.5,3.9c2,0,3.9-1.2,4.9-2V326.8z"/>
	<path class="st1" d="M352.4,343.2c-1-0.5-1.4-1.4-1.3-2.4c0-1.2,0.8-2.5,2.3-3.4v-0.1c-1.8-0.9-2.9-2.6-2.9-4.9c0-3.9,2.8-6,7.2-6
		c1,0,1.8,0.2,2.4,0.4h6.2v1.9h-3.4c1.4,1,1.7,2.5,1.7,3.7c0,4-3,5.8-7,5.8c-1,0-2-0.2-2.6-0.4c-0.3,0.3-0.5,0.7-0.7,1
		c-0.5,1.1-0.4,2.3,1,2.3l6.4,0.4c3.6,0.2,5.2,1.7,5.2,4.1c0,4.1-3.2,6.2-10.2,6.2c-4.8,0-7.2-1.4-7.2-4.6
		C349.4,345.6,350.3,344.4,352.4,343.2L352.4,343.2z M357.2,349.7c3.4,0,6.3-1.1,6.3-3.5c0-1.1-0.7-2-2.9-2.1l-6.5-0.4
		c-1.1,0.8-2,1.5-2,2.9C352,348.6,353.8,349.7,357.2,349.7z M361.7,332.4c0-2.4-1.6-3.9-4.1-3.9c-2.8,0-4.2,1.5-4.2,3.9
		c0,2.4,1.6,3.7,4.2,3.7C360.2,336.1,361.7,334.7,361.7,332.4z"/>
	<path class="st1" d="M373.2,344.4H370v-24.7h3.2v9.5h0.1c1.7-1.7,3.8-2.8,6.3-2.8c3.5,0,5.3,2.1,5.3,5.8v12.2h-3.2v-11.5
		c0-2.3-0.9-3.9-3.5-3.9c-2,0-3.9,1.2-4.9,2V344.4z"/>
	<path class="st1" d="M397.2,329h-2.6V327l2.6-0.2l0.4-4.9h2.8v4.9h4.9v2.3h-4.9v9.7c0,2.3,0.7,3.5,3,3.5c0.5,0,1.1-0.1,1.8-0.2
		l0.3,2.5c-1,0.1-2.3,0.2-3.2,0.2c-3.6,0-5.1-1.5-5.1-5.5V329z"/>
	<path class="st1" d="M412.1,344.4h-3.2v-24.7h3.2v9.5h0.1c1.7-1.7,3.8-2.8,6.3-2.8c3.5,0,5.3,2.1,5.3,5.8v12.2h-3.2v-11.5
		c0-2.3-0.9-3.9-3.5-3.9c-2,0-3.9,1.2-4.9,2V344.4z"/>
	<path class="st1" d="M430.9,336.1c0.1,3.5,1.7,6,5.8,6c1.7,0,3.5-0.1,5.5-0.7l0.4,2.6c-2.2,0.6-4.1,0.8-6.4,0.8
		c-6.5,0-8.8-3.7-8.8-9.2s2.3-9.2,8.7-9.2c5.4,0,6.9,3.1,7.1,6.1c0.1,1.1,0,2.4-0.2,3.6H430.9z M430.9,334.1h9
		c0.1-0.6,0.2-1.3,0.1-1.9c-0.1-1.8-1.2-3.4-4-3.4C432.4,328.9,431.1,331.1,430.9,334.1z"/>
</g>
<g>
	<path class="st1" d="M14.2,375.9L14.2,375.9l7.3-18.4H26v24h-3.4v-17.8h-0.1l-7.3,17.8h-2.5l-7.2-17.8H5.5v17.8H2.3v-24h4.4
		L14.2,375.9z"/>
	<path class="st1" d="M29.7,363.9h3.6l5.1,14.4h0.1l4.8-14.4h3.4L40,382.6c-1.6,4.6-3.7,6.4-7.1,6.4c-0.8,0-1.9-0.1-2.6-0.2l0.3-2.6
		c0.6,0.1,1.2,0.2,1.7,0.2c2.3,0,3.6-2.3,4.4-4.3L29.7,363.9z"/>
	<path class="st1" d="M53.7,372v9.5h-3.4v-24h9.9c4.8,0,7.4,3,7.4,7.2c0,4.4-2.6,7.2-7.4,7.2H53.7z M53.7,369h6.2
		c2.6,0,4.3-1.3,4.3-4.2c0-2.7-1.7-4.2-4.3-4.2h-6.2V369z"/>
	<path class="st1" d="M74.4,381.5h-3.2v-17.7h3.2v2.8h0.1c1.4-1.6,3.8-3.2,6.6-3.2v3c-2.6,0-5.3,1.1-6.7,2V381.5z"/>
	<path class="st1" d="M83.6,372.7c0-5.5,2.2-9.2,8.1-9.2c5.9,0,8.1,3.7,8.1,9.2s-2.2,9.2-8.1,9.2C85.8,381.9,83.6,378.2,83.6,372.7z
		 M87,372.7c0,3.7,1.1,6.5,4.8,6.5c3.7,0,4.8-2.8,4.8-6.5s-1.1-6.5-4.8-6.5C88,366.2,87,369,87,372.7z"/>
	<path class="st1" d="M107.9,363.9h4.2v2.3h-4.2v15.4h-3.2v-15.4H102v-2.1l2.6-0.2v-2.2c0-3.4,1.2-4.9,5.1-4.9
		c0.8,0,1.9,0.1,2.8,0.3l-0.3,2.5c-0.7-0.1-1.3-0.2-1.8-0.2c-2,0-2.6,0.6-2.6,2.5V363.9z"/>
	<path class="st1" d="M118,373.2c0.1,3.5,1.7,6,5.8,6c1.7,0,3.5-0.1,5.5-0.7l0.4,2.6c-2.2,0.6-4.1,0.8-6.4,0.8
		c-6.5,0-8.8-3.7-8.8-9.2s2.3-9.2,8.7-9.2c5.4,0,6.9,3.1,7.1,6.1c0.1,1.1,0,2.4-0.2,3.6H118z M118,371.2h9c0.1-0.6,0.2-1.3,0.1-1.9
		c-0.1-1.8-1.2-3.4-4-3.4C119.5,366,118.2,368.2,118,371.2z"/>
	<path class="st1" d="M140.7,381.9c-2.8,0-5.5-0.2-7.6-0.8l0.6-2.6c2.8,0.7,5.4,0.8,6.7,0.8c3.2,0,3.7-1.9,3.7-2.6
		c0-1.2-0.8-2-4-2.6c-3.7-0.7-6.6-1.9-6.6-5.6c0-3.4,2.4-4.9,6.5-4.9c2.7,0,4.9,0.3,7.1,0.8l-0.6,2.5c-2.8-0.7-5-0.8-6.3-0.8
		c-3.2,0-3.5,1.7-3.5,2.3c0,1.1,0.6,2,3.8,2.7c3.7,0.8,6.8,1.8,6.8,5.4C147.3,380,144.9,381.9,140.7,381.9z"/>
	<path class="st1" d="M157.6,381.9c-2.8,0-5.5-0.2-7.6-0.8l0.6-2.6c2.8,0.7,5.4,0.8,6.7,0.8c3.2,0,3.7-1.9,3.7-2.6
		c0-1.2-0.8-2-4-2.6c-3.7-0.7-6.6-1.9-6.6-5.6c0-3.4,2.4-4.9,6.5-4.9c2.7,0,4.9,0.3,7.1,0.8l-0.6,2.5c-2.8-0.7-5-0.8-6.3-0.8
		c-3.2,0-3.5,1.7-3.5,2.3c0,1.1,0.6,2,3.8,2.7c3.7,0.8,6.8,1.8,6.8,5.4C164.1,380,161.7,381.9,157.6,381.9z"/>
	<path class="st1" d="M170.8,357.5v4.4h-3.2v-4.4H170.8z M170.8,363.9v17.7h-3.2v-17.7H170.8z"/>
	<path class="st1" d="M174.6,372.7c0-5.5,2.2-9.2,8.1-9.2c5.9,0,8.1,3.7,8.1,9.2s-2.2,9.2-8.1,9.2
		C176.8,381.9,174.6,378.2,174.6,372.7z M178,372.7c0,3.7,1.1,6.5,4.8,6.5c3.7,0,4.8-2.8,4.8-6.5s-1.1-6.5-4.8-6.5
		C179,366.2,178,369,178,372.7z"/>
	<path class="st1" d="M197.9,381.5h-3.2v-17.7h3.2v2.5h0.1c1.7-1.7,3.8-2.8,6.3-2.8c3.5,0,5.3,2.1,5.3,5.8v12.2h-3.2V370
		c0-2.3-0.9-3.9-3.5-3.9c-2,0-3.9,1.2-4.9,2V381.5z"/>
	<path class="st1" d="M214.5,366.8l-0.5-2.6c2.4-0.5,4.9-0.7,6.8-0.7c4.2,0,6.5,1.2,6.5,5.8v12.2h-3.2v-1.8c0,0,0,0-0.1,0
		c-1.7,1.5-3.3,2.1-5.6,2.1c-3.5,0-5.6-2.1-5.6-5.2c0-4,3.2-5.4,7.4-5.4h3.9v-1.8c0-2.3-1.2-3.4-4.1-3.4
		C218.8,366.2,217.1,366.3,214.5,366.8z M224.2,373.2h-3.7c-3.3,0-4.4,1.2-4.4,3.2c0,1.9,1.4,3,3.7,3c2,0,3.6-0.8,4.4-1.5V373.2z"/>
	<path class="st1" d="M231.6,356.8h3.2v24.7h-3.2V356.8z"/>
	<path class="st1" d="M242.9,357.5v21h11.8v3h-15.2v-24H242.9z"/>
	<path class="st1" d="M261,373.2c0.1,3.5,1.7,6,5.8,6c1.7,0,3.5-0.1,5.5-0.7l0.4,2.6c-2.2,0.6-4.1,0.8-6.4,0.8
		c-6.5,0-8.8-3.7-8.8-9.2s2.3-9.2,8.7-9.2c5.4,0,6.9,3.1,7.1,6.1c0.1,1.1,0,2.4-0.2,3.6H261z M261,371.2h9c0.1-0.6,0.2-1.3,0.1-1.9
		c-0.1-1.8-1.2-3.4-4-3.4C262.5,366,261.3,368.2,261,371.2z"/>
	<path class="st1" d="M277.5,366.8l-0.5-2.6c2.4-0.5,4.9-0.7,6.8-0.7c4.2,0,6.5,1.2,6.5,5.8v12.2h-3.2v-1.8c0,0,0,0-0.1,0
		c-1.7,1.5-3.3,2.1-5.6,2.1c-3.5,0-5.6-2.1-5.6-5.2c0-4,3.2-5.4,7.4-5.4h3.9v-1.8c0-2.3-1.2-3.4-4.1-3.4
		C281.8,366.2,280.2,366.3,277.5,366.8z M287.2,373.2h-3.7c-3.3,0-4.4,1.2-4.4,3.2c0,1.9,1.4,3,3.7,3c2,0,3.6-0.8,4.4-1.5V373.2z"/>
	<path class="st1" d="M297.9,381.5h-3.2v-17.7h3.2v2.8h0.1c1.4-1.6,3.8-3.2,6.6-3.2v3c-2.6,0-5.3,1.1-6.7,2V381.5z"/>
	<path class="st1" d="M311,381.5h-3.2v-17.7h3.2v2.5h0.1c1.7-1.7,3.8-2.8,6.3-2.8c3.5,0,5.3,2.1,5.3,5.8v12.2h-3.2V370
		c0-2.3-0.9-3.9-3.5-3.9c-2,0-3.9,1.2-4.9,2V381.5z"/>
	<path class="st1" d="M330.1,357.5v4.4H327v-4.4H330.1z M330.1,363.9v17.7H327v-17.7H330.1z"/>
	<path class="st1" d="M337.6,381.5h-3.2v-17.7h3.2v2.5h0.1c1.7-1.7,3.8-2.8,6.3-2.8c3.5,0,5.3,2.1,5.3,5.8v12.2h-3.2V370
		c0-2.3-0.9-3.9-3.5-3.9c-2,0-3.9,1.2-4.9,2V381.5z"/>
	<path class="st1" d="M355.2,380.4c-1-0.5-1.4-1.4-1.3-2.4c0-1.2,0.8-2.5,2.3-3.4v-0.1c-1.8-0.9-2.9-2.6-2.9-4.9c0-3.9,2.8-6,7.2-6
		c1,0,1.8,0.2,2.4,0.4h6.2v1.9h-3.4c1.4,1,1.7,2.5,1.7,3.7c0,4-3,5.8-7,5.8c-1,0-2-0.2-2.6-0.4c-0.3,0.3-0.5,0.7-0.7,1
		c-0.5,1.1-0.4,2.3,1,2.3l6.4,0.4c3.6,0.2,5.2,1.7,5.2,4.1c0,4.1-3.2,6.2-10.2,6.2c-4.8,0-7.2-1.4-7.2-4.6
		C352.1,382.8,353.1,381.5,355.2,380.4L355.2,380.4z M360,386.8c3.4,0,6.3-1.1,6.3-3.5c0-1.1-0.7-2-2.9-2.1l-6.5-0.4
		c-1.1,0.8-2,1.5-2,2.9C354.8,385.8,356.6,386.8,360,386.8z M364.5,369.5c0-2.4-1.6-3.9-4.1-3.9c-2.8,0-4.2,1.5-4.2,3.9
		c0,2.4,1.6,3.7,4.2,3.7C362.9,373.2,364.5,371.8,364.5,369.5z"/>
	<path class="st1" d="M386.7,381.9c-2.8,0-5.5-0.2-7.6-0.8l0.6-2.6c2.8,0.7,5.4,0.8,6.7,0.8c3.2,0,3.7-1.9,3.7-2.6
		c0-1.2-0.8-2-4-2.6c-3.7-0.7-6.6-1.9-6.6-5.6c0-3.4,2.4-4.9,6.5-4.9c2.7,0,4.9,0.3,7.1,0.8l-0.6,2.5c-2.8-0.7-5-0.8-6.3-0.8
		c-3.2,0-3.5,1.7-3.5,2.3c0,1.1,0.6,2,3.8,2.7c3.7,0.8,6.8,1.8,6.8,5.4C393.2,380,390.8,381.9,386.7,381.9z"/>
	<path class="st1" d="M396.2,363.9h3.6l5.1,14.4h0.1l4.8-14.4h3.4l-6.6,18.7c-1.6,4.6-3.7,6.4-7.1,6.4c-0.8,0-1.9-0.1-2.6-0.2
		l0.3-2.6c0.6,0.1,1.2,0.2,1.7,0.2c2.3,0,3.6-2.3,4.4-4.3L396.2,363.9z"/>
	<path class="st1" d="M423.1,381.9c-2.8,0-5.5-0.2-7.6-0.8l0.6-2.6c2.8,0.7,5.4,0.8,6.7,0.8c3.2,0,3.7-1.9,3.7-2.6
		c0-1.2-0.8-2-4-2.6c-3.7-0.7-6.6-1.9-6.6-5.6c0-3.4,2.4-4.9,6.5-4.9c2.7,0,4.9,0.3,7.1,0.8l-0.6,2.5c-2.8-0.7-5-0.8-6.3-0.8
		c-3.2,0-3.5,1.7-3.5,2.3c0,1.1,0.6,2,3.8,2.7c3.7,0.8,6.8,1.8,6.8,5.4C429.7,380,427.3,381.9,423.1,381.9z"/>
	<path class="st1" d="M435,366.2h-2.6v-2.1l2.6-0.2l0.4-4.9h2.8v4.9h4.9v2.3h-4.9v9.7c0,2.3,0.7,3.5,3,3.5c0.5,0,1.1-0.1,1.8-0.2
		l0.3,2.5c-1,0.1-2.3,0.2-3.2,0.2c-3.6,0-5.1-1.5-5.1-5.5V366.2z"/>
	<path class="st1" d="M449.1,373.2c0.1,3.5,1.7,6,5.8,6c1.7,0,3.5-0.1,5.5-0.7l0.4,2.6c-2.2,0.6-4.1,0.8-6.4,0.8
		c-6.5,0-8.8-3.7-8.8-9.2s2.3-9.2,8.7-9.2c5.4,0,6.9,3.1,7.1,6.1c0.1,1.1,0,2.4-0.2,3.6H449.1z M449.1,371.2h9
		c0.1-0.6,0.2-1.3,0.1-1.9c-0.1-1.8-1.2-3.4-4-3.4C450.6,366,449.4,368.2,449.1,371.2z"/>
	<path class="st1" d="M468.3,381.5h-3.2v-17.7h3.2v2.5h0.1c1.4-1.5,3.3-2.8,5.8-2.8c2.5,0,4.1,1.1,4.8,3.1c1.7-1.8,3.8-3.1,6.3-3.1
		c3.5,0,5.3,2.1,5.3,5.8v12.2h-3.2V370c0-2.3-1-3.9-3.5-3.9c-1.8,0-3.4,1.2-4.5,2.1c0.1,0.6,0.1,1.2,0.1,1.9v11.3h-3.2v-11.6
		c-0.1-2.2-1-3.8-3.5-3.8c-1.9,0-3.4,1.2-4.4,2V381.5z"/>
	<path class="st1" d="M504.6,365.6L504.6,365.6c1.3-1.2,3.4-2.1,5.5-2.1c4.9,0,6.5,4.1,6.5,9.2s-1.8,9.2-6.7,9.2c-2,0-4-0.8-5.2-2
		h-0.1v8.7h-3.2v-24.7h3.2V365.6z M508.9,366.2c-1.9,0-3.5,0.9-4.2,1.5v10.1c0.7,0.6,2.3,1.5,4.2,1.5c3.4,0,4.4-3,4.4-6.5
		S512.3,366.2,508.9,366.2z"/>
	<path class="st1" d="M523.7,357.5v4.4h-3.2v-4.4H523.7z M523.7,363.9v17.7h-3.2v-17.7H523.7z"/>
	<path class="st1" d="M528,356.8h3.2v24.7H528V356.8z"/>
	<path class="st1" d="M534.9,372.7c0-5.5,2.2-9.2,8.1-9.2c5.9,0,8.1,3.7,8.1,9.2s-2.2,9.2-8.1,9.2
		C537.1,381.9,534.9,378.2,534.9,372.7z M538.3,372.7c0,3.7,1.1,6.5,4.8,6.5c3.7,0,4.8-2.8,4.8-6.5s-1.1-6.5-4.8-6.5
		C539.3,366.2,538.3,369,538.3,372.7z"/>
	<path class="st1" d="M556,366.2h-2.6v-2.1l2.6-0.2l0.4-4.9h2.8v4.9h4.9v2.3h-4.9v9.7c0,2.3,0.7,3.5,3,3.5c0.5,0,1.1-0.1,1.8-0.2
		l0.3,2.5c-1,0.1-2.3,0.2-3.2,0.2c-3.6,0-5.1-1.5-5.1-5.5V366.2z"/>
</g>
<g>
	<path class="st1" d="M1.9,440.4c0-6.7,2-12.2,10.2-12.2c8.2,0,10.2,5.5,10.2,12.2c0,6.8-2,12.5-10.2,12.5
		C4,453,1.9,447.3,1.9,440.4z M5.5,440.4c0,5.1,1,9.7,6.7,9.7c5.7,0,6.7-4.6,6.7-9.7s-1-9.4-6.7-9.4C6.4,431.1,5.5,435.3,5.5,440.4z
		"/>
	<path class="st1" d="M38.3,435h3.2v17.7h-3.2v-2.5h-0.1c-1.7,1.7-3.8,2.8-6.3,2.8c-3.5,0-5.3-2.1-5.3-5.8V435h3.2v11.5
		c0,2.3,1,3.9,3.5,3.9c2,0,3.9-1.2,4.9-2V435z"/>
	<path class="st1" d="M49,452.6h-3.2V435H49v2.8h0.1c1.4-1.6,3.8-3.2,6.6-3.2v3c-2.6,0-5.3,1.1-6.7,2V452.6z"/>
	<path class="st1" d="M74.2,434.6c2.2,0,3.9,0.3,6,0.8l-0.6,2.5c-2.8-0.7-4.2-0.7-5.4-0.7c-3.7,0-5.3,2.6-5.3,6.5s1.6,6.5,5.3,6.5
		c1.2,0,2.6,0,5.4-0.7l0.6,2.6c-2.1,0.5-3.8,0.8-6,0.8c-6.5,0-8.7-3.7-8.7-9.2S67.8,434.6,74.2,434.6z"/>
	<path class="st1" d="M94.9,435H98v17.7h-3.2v-2.5h-0.1c-1.7,1.7-3.8,2.8-6.3,2.8c-3.5,0-5.3-2.1-5.3-5.8V435h3.2v11.5
		c0,2.3,1,3.9,3.5,3.9c2,0,3.9-1.2,4.9-2V435z"/>
	<path class="st1" d="M109,453c-2.8,0-5.5-0.2-7.6-0.8l0.6-2.6c2.8,0.7,5.4,0.8,6.7,0.8c3.2,0,3.7-1.9,3.7-2.6c0-1.2-0.8-2-4-2.6
		c-3.7-0.7-6.6-1.9-6.6-5.6c0-3.4,2.4-4.9,6.5-4.9c2.7,0,4.9,0.3,7.1,0.8l-0.6,2.5c-2.8-0.7-5-0.8-6.3-0.8c-3.2,0-3.5,1.7-3.5,2.3
		c0,1.1,0.6,2,3.8,2.7c3.7,0.8,6.8,1.8,6.8,5.4C115.6,451.1,113.2,453,109,453z"/>
	<path class="st1" d="M120.9,437.3h-2.6v-2.1l2.6-0.2l0.4-4.9h2.8v4.9h4.9v2.3H124v9.7c0,2.3,0.7,3.5,3,3.5c0.5,0,1.1-0.1,1.8-0.2
		l0.3,2.5c-1,0.1-2.3,0.2-3.2,0.2c-3.6,0-5.1-1.5-5.1-5.5V437.3z"/>
	<path class="st1" d="M131.6,443.8c0-5.5,2.2-9.2,8.1-9.2c5.9,0,8.1,3.7,8.1,9.2s-2.2,9.2-8.1,9.2
		C133.8,453,131.6,449.3,131.6,443.8z M135,443.8c0,3.7,1.1,6.5,4.8,6.5c3.7,0,4.8-2.8,4.8-6.5s-1.1-6.5-4.8-6.5
		C136,437.3,135,440.1,135,443.8z"/>
	<path class="st1" d="M154.9,452.6h-3.2V435h3.2v2.5h0.1c1.4-1.5,3.3-2.8,5.8-2.8c2.5,0,4.1,1.1,4.8,3.1c1.7-1.8,3.8-3.1,6.3-3.1
		c3.5,0,5.3,2.1,5.3,5.8v12.2h-3.2v-11.5c0-2.3-1-3.9-3.5-3.9c-1.8,0-3.4,1.2-4.5,2.1c0.1,0.6,0.1,1.2,0.1,1.9v11.3h-3.2V441
		c-0.1-2.2-1-3.8-3.5-3.8c-1.9,0-3.4,1.2-4.4,2V452.6z"/>
	<path class="st1" d="M184.3,444.3c0.1,3.5,1.7,6,5.8,6c1.7,0,3.5-0.1,5.5-0.7l0.4,2.6c-2.2,0.6-4.1,0.8-6.4,0.8
		c-6.5,0-8.8-3.7-8.8-9.2s2.3-9.2,8.7-9.2c5.4,0,6.9,3.1,7.1,6.1c0.1,1.1,0,2.4-0.2,3.6H184.3z M184.3,442.3h9
		c0.1-0.6,0.2-1.3,0.1-1.9c-0.1-1.8-1.2-3.4-4-3.4C185.8,437.1,184.5,439.3,184.3,442.3z"/>
	<path class="st1" d="M203.4,452.6h-3.2V435h3.2v2.8h0.1c1.4-1.6,3.8-3.2,6.6-3.2v3c-2.6,0-5.3,1.1-6.7,2V452.6z"/>
	<path class="st1" d="M220.5,453c-2.8,0-5.5-0.2-7.6-0.8l0.6-2.6c2.8,0.7,5.4,0.8,6.7,0.8c3.2,0,3.7-1.9,3.7-2.6c0-1.2-0.8-2-4-2.6
		c-3.7-0.7-6.6-1.9-6.6-5.6c0-3.4,2.4-4.9,6.5-4.9c2.7,0,4.9,0.3,7.1,0.8l-0.6,2.5c-2.8-0.7-5-0.8-6.3-0.8c-3.2,0-3.5,1.7-3.5,2.3
		c0,1.1,0.6,2,3.8,2.7c3.7,0.8,6.8,1.8,6.8,5.4C227,451.1,224.6,453,220.5,453z"/>
	<path class="st1" d="M240.4,444.3c0.1,3.5,1.7,6,5.8,6c1.7,0,3.5-0.1,5.5-0.7l0.4,2.6c-2.2,0.6-4.1,0.8-6.4,0.8
		c-6.5,0-8.8-3.7-8.8-9.2s2.3-9.2,8.7-9.2c5.4,0,6.9,3.1,7.1,6.1c0.1,1.1,0,2.4-0.2,3.6H240.4z M240.4,442.3h9
		c0.1-0.6,0.2-1.3,0.1-1.9c-0.1-1.8-1.2-3.4-4-3.4C241.9,437.1,240.6,439.3,240.4,442.3z"/>
	<path class="st1" d="M263.6,445.8L263.6,445.8l-4.7,6.8h-3.4l6.5-9.2l-5.9-8.5h3.7l4.3,6.1h0.1l4.2-6.1h3.3l-5.9,8.4l6.6,9.3h-3.8
		L263.6,445.8z"/>
	<path class="st1" d="M278.6,436.7L278.6,436.7c1.3-1.2,3.4-2.1,5.5-2.1c4.9,0,6.5,4.1,6.5,9.2s-1.8,9.2-6.7,9.2c-2,0-4-0.8-5.2-2
		h-0.1v8.7h-3.2V435h3.2V436.7z M282.8,437.3c-1.9,0-3.5,0.9-4.2,1.5v10.1c0.7,0.6,2.3,1.5,4.2,1.5c3.4,0,4.4-3,4.4-6.5
		S286.3,437.3,282.8,437.3z"/>
	<path class="st1" d="M297.3,444.3c0.1,3.5,1.7,6,5.8,6c1.7,0,3.5-0.1,5.5-0.7l0.4,2.6c-2.2,0.6-4.1,0.8-6.4,0.8
		c-6.5,0-8.8-3.7-8.8-9.2s2.3-9.2,8.7-9.2c5.4,0,6.9,3.1,7.1,6.1c0.1,1.1,0,2.4-0.2,3.6H297.3z M297.3,442.3h9
		c0.1-0.6,0.2-1.3,0.1-1.9c-0.1-1.8-1.2-3.4-4-3.4C298.9,437.1,297.6,439.3,297.3,442.3z"/>
	<path class="st1" d="M316.5,452.6h-3.2V435h3.2v2.8h0.1c1.4-1.6,3.8-3.2,6.6-3.2v3c-2.6,0-5.3,1.1-6.7,2V452.6z"/>
	<path class="st1" d="M329.6,428.6v4.4h-3.2v-4.4H329.6z M329.6,435v17.7h-3.2V435H329.6z"/>
	<path class="st1" d="M336.8,444.3c0.1,3.5,1.7,6,5.8,6c1.7,0,3.5-0.1,5.5-0.7l0.4,2.6c-2.2,0.6-4.1,0.8-6.4,0.8
		c-6.5,0-8.8-3.7-8.8-9.2s2.3-9.2,8.7-9.2c5.4,0,6.9,3.1,7.1,6.1c0.1,1.1,0,2.4-0.2,3.6H336.8z M336.8,442.3h9
		c0.1-0.6,0.2-1.3,0.1-1.9c-0.1-1.8-1.2-3.4-4-3.4C338.3,437.1,337,439.3,336.8,442.3z"/>
	<path class="st1" d="M355.9,452.6h-3.2V435h3.2v2.5h0.1c1.7-1.7,3.8-2.8,6.3-2.8c3.5,0,5.3,2.1,5.3,5.8v12.2h-3.2v-11.5
		c0-2.3-0.9-3.9-3.5-3.9c-2,0-3.9,1.2-4.9,2V452.6z"/>
	<path class="st1" d="M380,434.6c2.2,0,3.9,0.3,6,0.8l-0.6,2.5c-2.8-0.7-4.2-0.7-5.4-0.7c-3.7,0-5.3,2.6-5.3,6.5s1.6,6.5,5.3,6.5
		c1.2,0,2.6,0,5.4-0.7l0.6,2.6c-2.1,0.5-3.8,0.8-6,0.8c-6.5,0-8.7-3.7-8.7-9.2S373.5,434.6,380,434.6z"/>
	<path class="st1" d="M391.4,444.3c0.1,3.5,1.7,6,5.8,6c1.7,0,3.5-0.1,5.5-0.7l0.4,2.6c-2.2,0.6-4.1,0.8-6.4,0.8
		c-6.5,0-8.8-3.7-8.8-9.2s2.3-9.2,8.7-9.2c5.4,0,6.9,3.1,7.1,6.1c0.1,1.1,0,2.4-0.2,3.6H391.4z M391.4,442.3h9
		c0.1-0.6,0.2-1.3,0.1-1.9c-0.1-1.8-1.2-3.4-4-3.4C393,437.1,391.7,439.3,391.4,442.3z"/>
	<path class="st1" d="M417.3,452.6h-3.2v-24.7h3.2v9.5h0.1c1.7-1.7,3.8-2.8,6.3-2.8c3.5,0,5.3,2.1,5.3,5.8v12.2h-3.2v-11.5
		c0-2.3-0.9-3.9-3.5-3.9c-2,0-3.9,1.2-4.9,2V452.6z"/>
	<path class="st1" d="M436.4,428.6v4.4h-3.2v-4.4H436.4z M436.4,435v17.7h-3.2V435H436.4z"/>
	<path class="st1" d="M442.3,451.5c-1-0.5-1.4-1.4-1.3-2.4c0-1.2,0.8-2.5,2.3-3.4v-0.1c-1.8-0.9-2.9-2.6-2.9-4.9c0-3.9,2.8-6,7.2-6
		c1,0,1.8,0.2,2.4,0.4h6.2v1.9h-3.4c1.4,1,1.7,2.5,1.7,3.7c0,4-3,5.8-7,5.8c-1,0-2-0.2-2.6-0.4c-0.3,0.3-0.5,0.7-0.7,1
		c-0.5,1.1-0.4,2.3,1,2.3l6.4,0.4c3.6,0.2,5.2,1.7,5.2,4.1c0,4.1-3.2,6.2-10.2,6.2c-4.8,0-7.2-1.4-7.2-4.6
		C439.3,453.9,440.2,452.6,442.3,451.5L442.3,451.5z M447.1,457.9c3.4,0,6.3-1.1,6.3-3.5c0-1.1-0.7-2-2.9-2.1L444,452
		c-1.1,0.8-2,1.5-2,2.9C442,456.9,443.8,457.9,447.1,457.9z M451.7,440.6c0-2.4-1.6-3.9-4.1-3.9c-2.8,0-4.2,1.5-4.2,3.9
		c0,2.4,1.6,3.7,4.2,3.7C450.1,444.3,451.7,442.9,451.7,440.6z"/>
	<path class="st1" d="M463.1,452.6h-3.2v-24.7h3.2v9.5h0.1c1.7-1.7,3.8-2.8,6.3-2.8c3.5,0,5.3,2.1,5.3,5.8v12.2h-3.2v-11.5
		c0-2.3-0.9-3.9-3.5-3.9c-2,0-3.9,1.2-4.9,2V452.6z"/>
	<path class="st1" d="M492.9,442v2.6h-13.8V442H492.9z"/>
	<path class="st1" d="M509.1,450.9L509.1,450.9c-1.3,1.2-3.4,2.1-5.5,2.1c-4.9,0-6.5-4.1-6.5-9.2s1.8-9.2,6.7-9.2c2,0,4.1,0.8,5.4,2
		h0.1l0.6-1.8h2.4v24.8h-3.2V450.9z M504.9,450.3c1.9,0,3.5-0.9,4.2-1.5v-10.1c-0.7-0.6-2.3-1.5-4.2-1.5c-3.5,0-4.4,3-4.4,6.5
		S501.4,450.3,504.9,450.3z"/>
	<path class="st1" d="M528.2,435h3.2v17.7h-3.2v-2.5h-0.1c-1.7,1.7-3.8,2.8-6.3,2.8c-3.5,0-5.3-2.1-5.3-5.8V435h3.2v11.5
		c0,2.3,1,3.9,3.5,3.9c2,0,3.9-1.2,4.9-2V435z"/>
	<path class="st1" d="M536.4,437.9l-0.5-2.6c2.4-0.5,4.9-0.7,6.8-0.7c4.2,0,6.5,1.2,6.5,5.8v12.2h-3.2v-1.8c0,0,0,0-0.1,0
		c-1.7,1.5-3.3,2.1-5.6,2.1c-3.5,0-5.6-2.1-5.6-5.2c0-4,3.2-5.4,7.4-5.4h3.9v-1.8c0-2.3-1.2-3.4-4.1-3.4
		C540.7,437.3,539.1,437.4,536.4,437.9z M546.1,444.3h-3.7c-3.3,0-4.4,1.2-4.4,3.2c0,1.9,1.4,3,3.7,3c2,0,3.6-0.8,4.4-1.5V444.3z"/>
	<path class="st1" d="M553.6,427.9h3.2v24.7h-3.2V427.9z"/>
	<path class="st1" d="M564.2,428.6v4.4H561v-4.4H564.2z M564.2,435v17.7H561V435H564.2z"/>
	<path class="st1" d="M569.8,437.3h-2.6v-2.1l2.6-0.2l0.4-4.9h2.8v4.9h4.9v2.3H573v9.7c0,2.3,0.7,3.5,3,3.5c0.5,0,1.1-0.1,1.8-0.2
		l0.3,2.5c-1,0.1-2.3,0.2-3.2,0.2c-3.6,0-5.1-1.5-5.1-5.5V437.3z"/>
	<path class="st1" d="M581.2,435h3.6l5.1,14.4h0.1l4.8-14.4h3.4l-6.6,18.7c-1.6,4.6-3.7,6.4-7.1,6.4c-0.8,0-1.9-0.1-2.6-0.2l0.3-2.6
		c0.6,0.1,1.2,0.2,1.7,0.2c2.3,0,3.6-2.3,4.4-4.3L581.2,435z"/>
</g>
<g>
	<path class="st1" d="M9,490.1c-2.8,0-5.5-0.2-7.6-0.8l0.6-2.6c2.8,0.7,5.4,0.8,6.7,0.8c3.2,0,3.7-1.9,3.7-2.6c0-1.2-0.8-2-4-2.6
		c-3.7-0.7-6.6-1.9-6.6-5.6c0-3.4,2.4-4.9,6.5-4.9c2.7,0,4.9,0.3,7.1,0.8l-0.6,2.5c-2.8-0.7-5-0.8-6.3-0.8c-3.2,0-3.5,1.7-3.5,2.3
		c0,1.1,0.6,2,3.8,2.7c3.7,0.8,6.8,1.8,6.8,5.4C15.5,488.2,13.1,490.1,9,490.1z"/>
	<path class="st1" d="M22,481.4c0.1,3.5,1.7,6,5.8,6c1.7,0,3.5-0.1,5.5-0.7l0.4,2.6c-2.2,0.6-4.1,0.8-6.4,0.8
		c-6.5,0-8.8-3.7-8.8-9.2s2.3-9.2,8.7-9.2c5.4,0,6.9,3.1,7.1,6.1c0.1,1.1,0,2.4-0.2,3.6H22z M22,479.4h9c0.1-0.6,0.2-1.3,0.1-1.9
		c-0.1-1.8-1.2-3.4-4-3.4C23.5,474.2,22.3,476.5,22,479.4z"/>
	<path class="st1" d="M41.2,489.7H38v-17.7h3.2v2.8h0.1c1.4-1.6,3.8-3.2,6.6-3.2v3c-2.6,0-5.3,1.1-6.7,2V489.7z"/>
	<path class="st1" d="M57.4,489.9l-6.5-17.8h3.6l4.9,14.3h0.1l5-14.3h3.4l-6.6,17.8H57.4z"/>
	<path class="st1" d="M74.4,465.7v4.4h-3.2v-4.4H74.4z M74.4,472.1v17.7h-3.2v-17.7H74.4z"/>
	<path class="st1" d="M86.8,471.7c2.2,0,3.9,0.3,6,0.8l-0.6,2.5c-2.8-0.7-4.2-0.7-5.4-0.7c-3.7,0-5.3,2.6-5.3,6.5s1.6,6.5,5.3,6.5
		c1.2,0,2.6,0,5.4-0.7l0.6,2.6c-2.1,0.5-3.8,0.8-6,0.8c-6.5,0-8.7-3.7-8.7-9.2S80.3,471.7,86.8,471.7z"/>
	<path class="st1" d="M98.3,481.4c0.1,3.5,1.7,6,5.8,6c1.7,0,3.5-0.1,5.5-0.7l0.4,2.6c-2.2,0.6-4.1,0.8-6.4,0.8
		c-6.5,0-8.8-3.7-8.8-9.2s2.3-9.2,8.7-9.2c5.4,0,6.9,3.1,7.1,6.1c0.1,1.1,0,2.4-0.2,3.6H98.3z M98.3,479.4h9
		c0.1-0.6,0.2-1.3,0.1-1.9c-0.1-1.8-1.2-3.4-4-3.4C99.8,474.2,98.5,476.5,98.3,479.4z"/>
	<path class="st1" d="M121,490.1c-2.8,0-5.5-0.2-7.6-0.8l0.6-2.6c2.8,0.7,5.4,0.8,6.7,0.8c3.2,0,3.7-1.9,3.7-2.6c0-1.2-0.8-2-4-2.6
		c-3.7-0.7-6.6-1.9-6.6-5.6c0-3.4,2.4-4.9,6.5-4.9c2.7,0,4.9,0.3,7.1,0.8l-0.6,2.5c-2.8-0.7-5-0.8-6.3-0.8c-3.2,0-3.5,1.7-3.5,2.3
		c0,1.1,0.6,2,3.8,2.7c3.7,0.8,6.8,1.8,6.8,5.4C127.6,488.2,125.2,490.1,121,490.1z"/>
	<path class="st1" d="M142.5,472.1h4.2v2.3h-4.2v15.4h-3.2v-15.4h-2.6v-2.1l2.6-0.2v-2.2c0-3.4,1.2-4.9,5.1-4.9
		c0.8,0,1.9,0.1,2.8,0.3l-0.3,2.5c-0.7-0.1-1.3-0.2-1.8-0.2c-2,0-2.6,0.6-2.6,2.5V472.1z"/>
	<path class="st1" d="M153.3,489.7h-3.2v-17.7h3.2v2.8h0.1c1.4-1.6,3.8-3.2,6.6-3.2v3c-2.6,0-5.3,1.1-6.7,2V489.7z"/>
	<path class="st1" d="M162.5,480.9c0-5.5,2.2-9.2,8.1-9.2c5.9,0,8.1,3.7,8.1,9.2s-2.2,9.2-8.1,9.2
		C164.7,490.1,162.5,486.4,162.5,480.9z M165.9,480.9c0,3.7,1.1,6.5,4.8,6.5c3.7,0,4.8-2.8,4.8-6.5s-1.1-6.5-4.8-6.5
		C166.9,474.4,165.9,477.2,165.9,480.9z"/>
	<path class="st1" d="M185.7,489.7h-3.2v-17.7h3.2v2.5h0.1c1.4-1.5,3.3-2.8,5.8-2.8c2.5,0,4.1,1.1,4.8,3.1c1.7-1.8,3.8-3.1,6.3-3.1
		c3.5,0,5.3,2.1,5.3,5.8v12.2h-3.2v-11.5c0-2.3-1-3.9-3.5-3.9c-1.8,0-3.4,1.2-4.5,2.1c0.1,0.6,0.1,1.2,0.1,1.9v11.3h-3.2v-11.6
		c-0.1-2.2-1-3.8-3.5-3.8c-1.9,0-3.4,1.2-4.4,2V489.7z"/>
	<path class="st1" d="M230.9,477l-3.6,12.9h-3.5l-5.4-17.8h3.5l3.9,14.3h0.1l3.5-14.3h3.1l3.7,14.3h0.1l3.7-14.3h3.4l-5.3,17.8h-3.5
		L230.9,477L230.9,477z"/>
	<path class="st1" d="M249.2,481.4c0.1,3.5,1.7,6,5.8,6c1.7,0,3.5-0.1,5.5-0.7l0.4,2.6c-2.2,0.6-4.1,0.8-6.4,0.8
		c-6.5,0-8.8-3.7-8.8-9.2s2.3-9.2,8.7-9.2c5.4,0,6.9,3.1,7.1,6.1c0.1,1.1,0,2.4-0.2,3.6H249.2z M249.2,479.4h9
		c0.1-0.6,0.2-1.3,0.1-1.9c-0.1-1.8-1.2-3.4-4-3.4C250.7,474.2,249.5,476.5,249.2,479.4z"/>
	<path class="st1" d="M265.2,465h3.2v24.7h-3.2V465z"/>
	<path class="st1" d="M272.7,465h3.2v24.7h-3.2V465z"/>
	<path class="st1" d="M294,479.1v2.6h-13.8v-2.6H294z"/>
	<path class="st1" d="M299,474.4h-2.6v-2.1l2.6-0.2l0.4-4.9h2.8v4.9h4.9v2.3h-4.9v9.7c0,2.3,0.7,3.5,3,3.5c0.5,0,1.1-0.1,1.8-0.2
		l0.3,2.5c-1,0.1-2.3,0.2-3.2,0.2c-3.6,0-5.1-1.5-5.1-5.5V474.4z"/>
	<path class="st1" d="M313.9,489.7h-3.2v-17.7h3.2v2.8h0.1c1.4-1.6,3.8-3.2,6.6-3.2v3c-2.6,0-5.3,1.1-6.7,2V489.7z"/>
	<path class="st1" d="M324.6,475l-0.5-2.6c2.4-0.5,4.9-0.7,6.8-0.7c4.2,0,6.5,1.2,6.5,5.8v12.2h-3.2V488c0,0,0,0-0.1,0
		c-1.7,1.5-3.3,2.1-5.6,2.1c-3.5,0-5.6-2.1-5.6-5.2c0-4,3.2-5.4,7.4-5.4h3.9v-1.8c0-2.3-1.2-3.4-4.1-3.4
		C328.9,474.4,327.2,474.5,324.6,475z M334.3,481.4h-3.7c-3.3,0-4.4,1.2-4.4,3.2c0,1.9,1.4,3,3.7,3c2,0,3.6-0.8,4.4-1.5V481.4z"/>
	<path class="st1" d="M345,465.7v4.4h-3.2v-4.4H345z M345,472.1v17.7h-3.2v-17.7H345z"/>
	<path class="st1" d="M352.4,489.7h-3.2v-17.7h3.2v2.5h0.1c1.7-1.7,3.8-2.8,6.3-2.8c3.5,0,5.3,2.1,5.3,5.8v12.2h-3.2v-11.5
		c0-2.3-0.9-3.9-3.5-3.9c-2,0-3.9,1.2-4.9,2V489.7z"/>
	<path class="st1" d="M371.2,481.4c0.1,3.5,1.7,6,5.8,6c1.7,0,3.5-0.1,5.5-0.7l0.4,2.6c-2.2,0.6-4.1,0.8-6.4,0.8
		c-6.5,0-8.8-3.7-8.8-9.2s2.3-9.2,8.7-9.2c5.4,0,6.9,3.1,7.1,6.1c0.1,1.1,0,2.4-0.2,3.6H371.2z M371.2,479.4h9
		c0.1-0.6,0.2-1.3,0.1-1.9c-0.1-1.8-1.2-3.4-4-3.4C372.8,474.2,371.5,476.5,371.2,479.4z"/>
	<path class="st1" d="M398.7,488C398.7,488,398.7,488,398.7,488c-1.3,1.2-3.4,2.1-5.5,2.1c-4.9,0-6.5-4.1-6.5-9.2s1.8-9.2,6.7-9.2
		c2,0,4,0.8,5.2,2c0,0,0,0,0.1,0V465h3.2v24.7h-3.2V488z M394.5,487.4c1.9,0,3.5-0.9,4.2-1.5v-10.1c-0.7-0.6-2.3-1.5-4.2-1.5
		c-3.5,0-4.4,3-4.4,6.5S391,487.4,394.5,487.4z"/>
	<path class="st1" d="M419.9,490.1c-2.8,0-5.5-0.2-7.6-0.8l0.6-2.6c2.8,0.7,5.4,0.8,6.7,0.8c3.2,0,3.7-1.9,3.7-2.6
		c0-1.2-0.8-2-4-2.6c-3.7-0.7-6.6-1.9-6.6-5.6c0-3.4,2.4-4.9,6.5-4.9c2.7,0,4.9,0.3,7.1,0.8l-0.6,2.5c-2.8-0.7-5-0.8-6.3-0.8
		c-3.2,0-3.5,1.7-3.5,2.3c0,1.1,0.6,2,3.8,2.7c3.7,0.8,6.8,1.8,6.8,5.4C426.4,488.2,424,490.1,419.9,490.1z"/>
	<path class="st1" d="M431.7,474.4H429v-2.1l2.6-0.2l0.4-4.9h2.8v4.9h4.9v2.3h-4.9v9.7c0,2.3,0.7,3.5,3,3.5c0.5,0,1.1-0.1,1.8-0.2
		l0.3,2.5c-1,0.1-2.3,0.2-3.2,0.2c-3.6,0-5.1-1.5-5.1-5.5V474.4z"/>
	<path class="st1" d="M444.5,475l-0.5-2.6c2.4-0.5,4.9-0.7,6.8-0.7c4.2,0,6.5,1.2,6.5,5.8v12.2h-3.2V488c0,0,0,0-0.1,0
		c-1.7,1.5-3.3,2.1-5.6,2.1c-3.5,0-5.6-2.1-5.6-5.2c0-4,3.2-5.4,7.4-5.4h3.9v-1.8c0-2.3-1.2-3.4-4.1-3.4
		C448.7,474.4,447.1,474.5,444.5,475z M454.1,481.4h-3.7c-3.3,0-4.4,1.2-4.4,3.2c0,1.9,1.4,3,3.7,3c2,0,3.6-0.8,4.4-1.5V481.4z"/>
	<path class="st1" d="M473.2,470.5c0-4,1.5-5.5,5.1-5.5c0.8,0,1.9,0.1,2.8,0.3l-0.3,2.5c-0.7-0.1-1.3-0.2-1.8-0.2
		c-2.1,0-2.6,1.2-2.6,3.5v1h4.6v2.3h-4.6v15.4h-3.2v-15.4H466v15.4h-3.2v-15.4h-2.6v-2.1l2.6-0.2v-1.6c0-4,1.5-5.5,5.1-5.5
		c0.8,0,1.9,0.1,2.8,0.3l-0.3,2.5c-0.7-0.1-1.3-0.2-1.8-0.2c-2.1,0-2.6,1.2-2.6,3.5v1h7.2V470.5z"/>
</g>
</svg>
