<!-- Generator: Adobe Illustrator 19.2.1, SVG Export Plug-In  -->
<svg version="1.1"
	 xmlns="http://www.w3.org/2000/svg" xmlns:xlink="http://www.w3.org/1999/xlink" xmlns:a="http://ns.adobe.com/AdobeSVGViewerExtensions/3.0/"
	 x="0px" y="0px" width="489.1px" height="73px" viewBox="0 0 489.1 73" style="enable-background:new 0 0 489.1 73;"
	 xml:space="preserve">
<style type="text/css">
	.st0{clip-path:url(#SVGID_2_);fill:#2B5972;}
	.st1{clip-path:url(#SVGID_4_);fill:#2B5972;}
</style>
<defs>
</defs>
<g>
	<defs>
		<rect id="SVGID_1_" width="489.1" height="73"/>
	</defs>
	<clipPath id="SVGID_2_">
		<use xlink:href="#SVGID_1_"  style="overflow:visible;"/>
	</clipPath>
	<path class="st0" d="M488,21.4c-6.3-2.4-10.3-3.3-16.5-3.3c-10.4,0-16.5,4.6-16.5,12.8c0,6.9,4.3,10.7,13.5,12.1l2.2,0.3
		c4.3,0.7,6,1.2,6,2.7c0,1.6-1.6,2.5-5.3,2.5c-5.3,0-9.7-1.3-13.5-3.6l-4.3,9.4c4.4,2.8,11.1,4,17.7,4c11.2,0,17.7-5,17.7-13.4
		c0-6.4-4.3-10.4-12.5-11.6l-2.8-0.4c-3.7-0.6-6.2-1-6.2-2.6c0-1.4,1.2-2.3,4.4-2.3c3.9,0,8.8,1.4,12.6,3L488,21.4z M435.1,18.1
		c-5.3,0-9.6,2-12.1,6.4c-2.3-4.1-6.6-6.4-11.7-6.4c-5.1,0-9,1.8-11.4,5.8v-4.8h-11.7v38.3h12.2V36.8c0-5,2.8-7.3,6.2-7.3
		c3.8,0,6,2.5,6,7.1v20.8h12.2V36.8c0-5,2.8-7.3,6.2-7.3c3.8,0,6.1,2.5,6.1,7.1v20.8h12.2V32.3C449.4,23.4,443.9,18.1,435.1,18.1
		 M375.4,0c-4.1,0-7.3,3.2-7.3,7.3c0,4.1,3.2,7.3,7.3,7.3c4.1,0,7.3-3.2,7.3-7.3C382.7,3.2,379.5,0,375.4,0 M381.5,19.1h-12.2v38.3
		h12.2V19.1z M342.5,29.4c4.8,0,8.2,3.7,8.2,8.8s-3.4,8.8-8.2,8.8c-4.9,0-8.2-3.8-8.2-8.8S337.7,29.4,342.5,29.4 M362.4,19.1h-11.8
		v4.1c-2.3-3-5.8-5.2-11-5.2c-10.3,0-17.8,8.9-17.8,20.1c0,11.3,7.6,20.2,17.8,20.2c5.2,0,8.7-2.1,11-5.1v4.1h11.8V19.1z M299.4,1.2
		h-12.2v56.2h12.2V1.2z M260.5,29.4c4.8,0,8.2,3.7,8.2,8.8s-3.4,8.8-8.2,8.8c-4.9,0-8.2-3.8-8.2-8.8S255.6,29.4,260.5,29.4
		 M280.3,19.1h-11.8v4.1c-2.3-3-5.8-5.2-11-5.2c-10.3,0-17.8,8.9-17.8,20.1c0,11.3,7.6,20.2,17.8,20.2c5.2,0,8.7-2.1,11-5.1v4.1
		h11.8V19.1z M216.2,29.4c4.9,0,8.2,3.8,8.2,8.8s-3.3,8.8-8.2,8.8c-4.8,0-8.2-3.7-8.2-8.8S211.4,29.4,216.2,29.4 M219.2,18.1
		c-5.2,0-8.7,2.2-11,5.2v-4.1h-11.8V73h12.2V53.7c2.3,2.7,5.7,4.6,10.6,4.6c10.2,0,17.8-8.9,17.8-20.2
		C237,26.9,229.4,18.1,219.2,18.1 M183.5,0c-4.1,0-7.3,3.2-7.3,7.3c0,4.1,3.2,7.3,7.3,7.3c4.1,0,7.3-3.2,7.3-7.3
		C190.8,3.2,187.6,0,183.5,0 M189.7,19.1h-12.2v38.3h12.2V19.1z M157.9,18.1c-12.2,0-20.6,8.5-20.6,20.2s8.4,20.2,20.6,20.2
		c7.1,0,12.7-3.1,16.4-8.3l-9.5-6.8c-1.9,2.4-4.3,3.7-7.2,3.7c-4.3,0-7.8-3.2-7.8-8.8c0-5.5,3.6-8.8,7.9-8.8c3,0,5.1,1.2,7.1,3.7
		l9.6-6.7C170.6,21.2,165,18.1,157.9,18.1 M119.1,18.1c-5.1,0-9,1.8-11.4,5.8v-4.8H96v38.3h12.2V36.8c0-5,2.8-7.3,6.2-7.3
		c3.8,0,6,2.5,6,7.1v20.8h12.2V32.3C132.7,23.4,126.8,18.1,119.1,18.1 M83.2,0c-4.1,0-7.3,3.2-7.3,7.3c0,4.1,3.2,7.3,7.3,7.3
		c4.1,0,7.3-3.2,7.3-7.3C90.5,3.2,87.3,0,83.2,0 M89.3,19.1H77.1v38.3h12.2V19.1z M69.9,18.1c-4.7,0-8.2,1.8-10.5,5.5v-4.4H47.7
		v38.3h12.2V36.7c0-4.8,2.7-6.9,7-6.9c2.2,0,4.5,0.5,6.1,1l1.1-12.2C73.2,18.4,71.7,18.1,69.9,18.1 M23.2,14.6
		c4.7,0,7.6,2.2,7.6,6.4c0,4.1-2.9,6.3-7.6,6.3H13V14.6H23.2z M23.5,38.9C36.9,38.9,44,31.7,44,21c0-11-7.1-18.2-20.6-18.2H0v54.6
		h13V38.9H23.5z"/>
</g>
</svg>
