<!-- Generator: Adobe Illustrator 19.2.1, SVG Export Plug-In  -->
<svg version="1.1"
	 xmlns="http://www.w3.org/2000/svg" xmlns:xlink="http://www.w3.org/1999/xlink" xmlns:a="http://ns.adobe.com/AdobeSVGViewerExtensions/3.0/"
	 x="0px" y="0px" width="449.2px" height="373.5px" viewBox="0 0 449.2 373.5" style="enable-background:new 0 0 449.2 373.5;"
	 xml:space="preserve">
<style type="text/css">
	.st0{fill:none;stroke:#FFFFFF;stroke-miterlimit:10;}
	.st1{fill:#FFFFFF;}
</style>
<defs>
</defs>
<line class="st0" x1="0" y1="119.4" x2="449.2" y2="119.4"/>
<line class="st0" x1="0" y1="264.8" x2="449.2" y2="264.8"/>
<line class="st0" x1="0" y1="373" x2="449.2" y2="373"/>
<g>
	<path class="st1" d="M17.7,3.7h-12v7.1h10.4v3H5.6v7.9h12.2v3H2.3v-24h15.4V3.7z"/>
	<path class="st1" d="M24.8,24.7h-3.2V7.1h3.2v2.5h0.1c1.7-1.7,3.8-2.8,6.3-2.8c3.5,0,5.3,2.1,5.3,5.8v12.2h-3.2V13.2
		c0-2.3-0.9-3.9-3.5-3.9c-2,0-3.9,1.2-4.9,2V24.7z"/>
	<path class="st1" d="M43.9,24.7h-3.2V0h3.2v9.5H44c1.7-1.7,3.8-2.8,6.3-2.8c3.5,0,5.3,2.1,5.3,5.8v12.2h-3.2V13.2
		c0-2.3-0.9-3.9-3.5-3.9c-2,0-3.9,1.2-4.9,2V24.7z"/>
	<path class="st1" d="M60.6,10l-0.5-2.6c2.4-0.5,4.9-0.7,6.8-0.7c4.2,0,6.5,1.2,6.5,5.8v12.2h-3.2V23c0,0,0,0-0.1,0
		c-1.7,1.5-3.3,2.1-5.6,2.1c-3.5,0-5.6-2.1-5.6-5.2c0-4,3.2-5.4,7.4-5.4h3.9v-1.8c0-2.3-1.2-3.4-4.1-3.4C64.8,9.4,63.2,9.5,60.6,10z
		 M70.2,16.4h-3.7c-3.3,0-4.4,1.2-4.4,3.2c0,1.9,1.4,3,3.7,3c2,0,3.6-0.8,4.4-1.5V16.4z"/>
	<path class="st1" d="M80.9,24.7h-3.2V7.1h3.2v2.5H81c1.7-1.7,3.8-2.8,6.3-2.8c3.5,0,5.3,2.1,5.3,5.8v12.2h-3.2V13.2
		c0-2.3-0.9-3.9-3.5-3.9c-2,0-3.9,1.2-4.9,2V24.7z"/>
	<path class="st1" d="M104.9,6.7c2.2,0,3.9,0.3,6,0.8l-0.6,2.5c-2.8-0.7-4.2-0.7-5.4-0.7c-3.7,0-5.3,2.6-5.3,6.5
		c0,3.9,1.6,6.5,5.3,6.5c1.2,0,2.6,0,5.4-0.7l0.6,2.6c-2.1,0.5-3.8,0.8-6,0.8c-6.5,0-8.7-3.7-8.7-9.2C96.3,10.4,98.5,6.7,104.9,6.7z
		"/>
	<path class="st1" d="M116.4,16.4c0.1,3.5,1.7,6,5.8,6c1.7,0,3.5-0.1,5.5-0.7l0.4,2.6c-2.2,0.6-4.1,0.8-6.4,0.8
		c-6.5,0-8.8-3.7-8.8-9.2c0-5.5,2.3-9.2,8.7-9.2c5.4,0,6.9,3.1,7.1,6.1c0.1,1.1,0,2.4-0.2,3.6H116.4z M116.4,14.4h9
		c0.1-0.6,0.2-1.3,0.1-1.9c-0.1-1.8-1.2-3.4-4-3.4C117.9,9.2,116.7,11.4,116.4,14.4z"/>
	<path class="st1" d="M142.2,8.8L142.2,8.8c1.3-1.2,3.4-2.1,5.5-2.1c4.9,0,6.5,4.1,6.5,9.2s-1.8,9.2-6.7,9.2c-2,0-4-0.8-5.2-2h-0.1
		v8.7h-3.2V7.1h3.2V8.8z M146.5,9.4c-1.9,0-3.5,0.9-4.2,1.5v10.1c0.7,0.6,2.3,1.5,4.2,1.5c3.4,0,4.4-3,4.4-6.5S149.9,9.4,146.5,9.4z
		"/>
	<path class="st1" d="M169.7,7.1h3.2v17.7h-3.2v-2.5h-0.1c-1.7,1.7-3.8,2.8-6.3,2.8c-3.5,0-5.3-2.1-5.3-5.8V7.1h3.2v11.5
		c0,2.3,1,3.9,3.5,3.9c2,0,3.9-1.2,4.9-2V7.1z"/>
	<path class="st1" d="M180.4,8.8L180.4,8.8c1.3-1.2,3.4-2.1,5.5-2.1c4.9,0,6.5,4.1,6.5,9.2s-1.8,9.2-6.7,9.2c-2,0-4.1-0.8-5.4-2
		h-0.1l-0.6,1.8h-2.4V0h3.2V8.8z M184.7,9.4c-1.9,0-3.5,0.9-4.2,1.5v10.1c0.7,0.6,2.3,1.5,4.2,1.5c3.4,0,4.4-3,4.4-6.5
		S188.1,9.4,184.7,9.4z"/>
	<path class="st1" d="M196.3,0h3.2v24.7h-3.2V0z"/>
	<path class="st1" d="M206.9,0.7v4.4h-3.2V0.7H206.9z M206.9,7.1v17.7h-3.2V7.1H206.9z"/>
	<path class="st1" d="M219.3,6.7c2.2,0,3.9,0.3,6,0.8l-0.6,2.5c-2.8-0.7-4.2-0.7-5.4-0.7c-3.7,0-5.3,2.6-5.3,6.5
		c0,3.9,1.6,6.5,5.3,6.5c1.2,0,2.6,0,5.4-0.7l0.6,2.6c-2.1,0.5-3.8,0.8-6,0.8c-6.5,0-8.7-3.7-8.7-9.2
		C210.7,10.4,212.9,6.7,219.3,6.7z"/>
	<path class="st1" d="M236.4,9.4h-2.6V7.3l2.6-0.2l0.4-4.9h2.8v4.9h4.9v2.3h-4.9v9.7c0,2.3,0.7,3.5,3,3.5c0.5,0,1.1-0.1,1.8-0.2
		l0.3,2.5c-1,0.1-2.3,0.2-3.2,0.2c-3.6,0-5.1-1.5-5.1-5.5V9.4z"/>
	<path class="st1" d="M251.3,24.7h-3.2V7.1h3.2v2.8h0.1c1.4-1.6,3.8-3.2,6.6-3.2v3c-2.6,0-5.3,1.1-6.7,2V24.7z"/>
	<path class="st1" d="M272.9,7.1h3.2v17.7h-3.2v-2.5h-0.1c-1.7,1.7-3.8,2.8-6.3,2.8c-3.5,0-5.3-2.1-5.3-5.8V7.1h3.2v11.5
		c0,2.3,1,3.9,3.5,3.9c2,0,3.9-1.2,4.9-2V7.1z"/>
	<path class="st1" d="M287.1,25.1c-2.8,0-5.5-0.2-7.6-0.8l0.6-2.6c2.8,0.7,5.4,0.8,6.7,0.8c3.2,0,3.7-1.9,3.7-2.6c0-1.2-0.8-2-4-2.6
		c-3.7-0.7-6.6-1.9-6.6-5.6c0-3.4,2.4-4.9,6.5-4.9c2.7,0,4.9,0.3,7.1,0.8l-0.6,2.5c-2.8-0.7-5-0.8-6.3-0.8c-3.2,0-3.5,1.7-3.5,2.3
		c0,1.1,0.6,2,3.8,2.7c3.7,0.8,6.8,1.8,6.8,5.4C293.6,23.2,291.2,25.1,287.1,25.1z"/>
	<path class="st1" d="M298.9,9.4h-2.6V7.3l2.6-0.2l0.4-4.9h2.8v4.9h4.9v2.3h-4.9v9.7c0,2.3,0.7,3.5,3,3.5c0.5,0,1.1-0.1,1.8-0.2
		l0.3,2.5c-1,0.1-2.3,0.2-3.2,0.2c-3.6,0-5.1-1.5-5.1-5.5V9.4z"/>
	<path class="st1" d="M318.9,10l-0.5-2.6c2.4-0.5,4.9-0.7,6.8-0.7c4.2,0,6.5,1.2,6.5,5.8v12.2h-3.2V23c0,0,0,0-0.1,0
		c-1.7,1.5-3.3,2.1-5.6,2.1c-3.5,0-5.6-2.1-5.6-5.2c0-4,3.2-5.4,7.4-5.4h3.9v-1.8c0-2.3-1.2-3.4-4.1-3.4
		C323.2,9.4,321.5,9.5,318.9,10z M328.6,16.4h-3.7c-3.3,0-4.4,1.2-4.4,3.2c0,1.9,1.4,3,3.7,3c2,0,3.6-0.8,4.4-1.5V16.4z"/>
	<path class="st1" d="M339.3,24.7h-3.2V7.1h3.2v2.5h0.1c1.7-1.7,3.8-2.8,6.3-2.8c3.5,0,5.3,2.1,5.3,5.8v12.2h-3.2V13.2
		c0-2.3-0.9-3.9-3.5-3.9c-2,0-3.9,1.2-4.9,2V24.7z"/>
	<path class="st1" d="M366.8,23C366.7,23,366.7,23,366.8,23c-1.3,1.2-3.4,2.1-5.5,2.1c-4.9,0-6.5-4.1-6.5-9.2s1.8-9.2,6.7-9.2
		c2,0,4,0.8,5.2,2c0,0,0,0,0.1,0V0h3.2v24.7h-3.2V23z M362.5,22.4c1.9,0,3.5-0.9,4.2-1.5V10.9c-0.7-0.6-2.3-1.5-4.2-1.5
		c-3.5,0-4.4,3-4.4,6.5S359.1,22.4,362.5,22.4z"/>
</g>
<g>
	<path class="st1" d="M10.2,43.8c2.2,0,3.9,0.3,6,0.8l-0.6,2.5c-2.8-0.7-4.2-0.7-5.4-0.7c-3.7,0-5.3,2.6-5.3,6.5s1.6,6.5,5.3,6.5
		c1.2,0,2.6,0,5.4-0.7l0.6,2.6c-2.1,0.5-3.8,0.8-6,0.8c-6.5,0-8.7-3.7-8.7-9.2C1.6,47.5,3.8,43.8,10.2,43.8z"/>
	<path class="st1" d="M18.3,53c0-5.5,2.2-9.2,8.1-9.2c5.9,0,8.1,3.7,8.1,9.2c0,5.5-2.2,9.2-8.1,9.2C20.5,62.2,18.3,58.5,18.3,53z
		 M21.6,53c0,3.7,1.1,6.5,4.8,6.5c3.7,0,4.8-2.8,4.8-6.5s-1.1-6.5-4.8-6.5C22.7,46.5,21.6,49.3,21.6,53z"/>
	<path class="st1" d="M41.5,61.8h-3.2V44.2h3.2v2.5h0.1c1.7-1.7,3.8-2.8,6.3-2.8c3.5,0,5.3,2.1,5.3,5.8v12.2H50V50.3
		c0-2.3-0.9-3.9-3.5-3.9c-2,0-3.9,1.2-4.9,2V61.8z"/>
	<path class="st1" d="M58.6,43.1c0-4,1.9-6,6.7-6c1.4,0,4.4,0.4,6.2,1.2l-0.4,2.3c-1.8-0.7-4.1-0.9-5.5-0.9c-3.2,0-3.9,1.4-3.9,3.5
		v1h10.4v17.7h-3.2V46.5h-7.2v15.4h-3.2V46.5H56v-2.1l2.6-0.2V43.1z"/>
	<path class="st1" d="M88.1,60.1C88.1,60.1,88.1,60.1,88.1,60.1c-1.3,1.2-3.4,2.1-5.5,2.1c-4.9,0-6.5-4.1-6.5-9.2s1.8-9.2,6.7-9.2
		c2,0,4,0.8,5.2,2c0,0,0,0,0.1,0v-8.8h3.2v24.7h-3.2V60.1z M83.9,59.5c1.9,0,3.5-0.9,4.2-1.5V48c-0.7-0.6-2.3-1.5-4.2-1.5
		c-3.5,0-4.4,3-4.4,6.5S80.4,59.5,83.9,59.5z"/>
	<path class="st1" d="M98.5,53.5c0.1,3.5,1.7,6,5.8,6c1.7,0,3.5-0.1,5.5-0.7l0.4,2.6c-2.2,0.6-4.1,0.8-6.4,0.8
		c-6.5,0-8.8-3.7-8.8-9.2c0-5.5,2.3-9.2,8.7-9.2c5.4,0,6.9,3.1,7.1,6.1c0.1,1.1,0,2.4-0.2,3.6H98.5z M98.5,51.5h9
		c0.1-0.6,0.2-1.3,0.1-1.9c-0.1-1.8-1.2-3.4-4-3.4C100,46.3,98.8,48.5,98.5,51.5z"/>
	<path class="st1" d="M117.6,61.8h-3.2V44.2h3.2v2.5h0.1c1.7-1.7,3.8-2.8,6.3-2.8c3.5,0,5.3,2.1,5.3,5.8v12.2h-3.2V50.3
		c0-2.3-0.9-3.9-3.5-3.9c-2,0-3.9,1.2-4.9,2V61.8z"/>
	<path class="st1" d="M141.7,43.8c2.2,0,3.9,0.3,6,0.8l-0.6,2.5c-2.8-0.7-4.2-0.7-5.4-0.7c-3.7,0-5.3,2.6-5.3,6.5s1.6,6.5,5.3,6.5
		c1.2,0,2.6,0,5.4-0.7l0.6,2.6c-2.1,0.5-3.8,0.8-6,0.8c-6.5,0-8.7-3.7-8.7-9.2C133.1,47.5,135.3,43.8,141.7,43.8z"/>
	<path class="st1" d="M153.2,53.5c0.1,3.5,1.7,6,5.8,6c1.7,0,3.5-0.1,5.5-0.7l0.4,2.6c-2.2,0.6-4.1,0.8-6.4,0.8
		c-6.5,0-8.8-3.7-8.8-9.2c0-5.5,2.3-9.2,8.7-9.2c5.4,0,6.9,3.1,7.1,6.1c0.1,1.1,0,2.4-0.2,3.6H153.2z M153.2,51.5h9
		c0.1-0.6,0.2-1.3,0.1-1.9c-0.1-1.8-1.2-3.4-4-3.4C154.7,46.3,153.4,48.5,153.2,51.5z"/>
	<path class="st1" d="M179.1,37.8v4.4h-3.2v-4.4H179.1z M179.1,44.2v17.7h-3.2V44.2H179.1z"/>
	<path class="st1" d="M186.5,61.8h-3.2V44.2h3.2v2.5h0.1c1.7-1.7,3.8-2.8,6.3-2.8c3.5,0,5.3,2.1,5.3,5.8v12.2H195V50.3
		c0-2.3-0.9-3.9-3.5-3.9c-2,0-3.9,1.2-4.9,2V61.8z"/>
	<path class="st1" d="M210.5,46.5h-2.6v-2.1l2.6-0.2l0.4-4.9h2.8v4.9h4.9v2.3h-4.9v9.7c0,2.3,0.7,3.5,3,3.5c0.5,0,1.1-0.1,1.8-0.2
		l0.3,2.5c-1,0.1-2.3,0.2-3.2,0.2c-3.6,0-5.1-1.5-5.1-5.5V46.5z"/>
	<path class="st1" d="M225.4,61.8h-3.2V37.1h3.2v9.5h0.1c1.7-1.7,3.8-2.8,6.3-2.8c3.5,0,5.3,2.1,5.3,5.8v12.2h-3.2V50.3
		c0-2.3-0.9-3.9-3.5-3.9c-2,0-3.9,1.2-4.9,2V61.8z"/>
	<path class="st1" d="M244.2,53.5c0.1,3.5,1.7,6,5.8,6c1.7,0,3.5-0.1,5.5-0.7l0.4,2.6c-2.2,0.6-4.1,0.8-6.4,0.8
		c-6.5,0-8.8-3.7-8.8-9.2c0-5.5,2.3-9.2,8.7-9.2c5.4,0,6.9,3.1,7.1,6.1c0.1,1.1,0,2.4-0.2,3.6H244.2z M244.2,51.5h9
		c0.1-0.6,0.2-1.3,0.1-1.9c-0.1-1.8-1.2-3.4-4-3.4C245.7,46.3,244.5,48.5,244.2,51.5z"/>
	<path class="st1" d="M268.3,46.5h-2.6v-2.1l2.6-0.2l0.4-4.9h2.8v4.9h4.9v2.3h-4.9v9.7c0,2.3,0.7,3.5,3,3.5c0.5,0,1.1-0.1,1.8-0.2
		l0.3,2.5c-1,0.1-2.3,0.2-3.2,0.2c-3.6,0-5.1-1.5-5.1-5.5V46.5z"/>
	<path class="st1" d="M282.4,53.5c0.1,3.5,1.7,6,5.8,6c1.7,0,3.5-0.1,5.5-0.7l0.4,2.6c-2.2,0.6-4.1,0.8-6.4,0.8
		c-6.5,0-8.8-3.7-8.8-9.2c0-5.5,2.3-9.2,8.7-9.2c5.4,0,6.9,3.1,7.1,6.1c0.1,1.1,0,2.4-0.2,3.6H282.4z M282.4,51.5h9
		c0.1-0.6,0.2-1.3,0.1-1.9c-0.1-1.8-1.2-3.4-4-3.4C284,46.3,282.7,48.5,282.4,51.5z"/>
	<path class="st1" d="M299,47.1l-0.5-2.6c2.4-0.5,4.9-0.7,6.8-0.7c4.2,0,6.5,1.2,6.5,5.8v12.2h-3.2v-1.8c0,0,0,0-0.1,0
		c-1.7,1.5-3.3,2.1-5.6,2.1c-3.5,0-5.6-2.1-5.6-5.2c0-4,3.2-5.4,7.4-5.4h3.9v-1.8c0-2.3-1.2-3.4-4.1-3.4
		C303.2,46.5,301.6,46.6,299,47.1z M308.6,53.5h-3.7c-3.3,0-4.4,1.2-4.4,3.2c0,1.9,1.4,3,3.7,3c2,0,3.6-0.8,4.4-1.5V53.5z"/>
	<path class="st1" d="M324.2,43.8c2.2,0,3.9,0.3,6,0.8l-0.6,2.5c-2.8-0.7-4.2-0.7-5.4-0.7c-3.7,0-5.3,2.6-5.3,6.5s1.6,6.5,5.3,6.5
		c1.2,0,2.6,0,5.4-0.7l0.6,2.6c-2.1,0.5-3.8,0.8-6,0.8c-6.5,0-8.7-3.7-8.7-9.2C315.6,47.5,317.8,43.8,324.2,43.8z"/>
	<path class="st1" d="M336.4,61.8h-3.2V37.1h3.2v9.5h0.1c1.7-1.7,3.8-2.8,6.3-2.8c3.5,0,5.3,2.1,5.3,5.8v12.2h-3.2V50.3
		c0-2.3-0.9-3.9-3.5-3.9c-2,0-3.9,1.2-4.9,2V61.8z"/>
	<path class="st1" d="M355.6,37.8v4.4h-3.2v-4.4H355.6z M355.6,44.2v17.7h-3.2V44.2H355.6z"/>
	<path class="st1" d="M363,61.8h-3.2V44.2h3.2v2.5h0.1c1.7-1.7,3.8-2.8,6.3-2.8c3.5,0,5.3,2.1,5.3,5.8v12.2h-3.2V50.3
		c0-2.3-0.9-3.9-3.5-3.9c-2,0-3.9,1.2-4.9,2V61.8z"/>
	<path class="st1" d="M380.6,60.7c-1-0.5-1.4-1.4-1.3-2.4c0-1.2,0.8-2.5,2.3-3.4v-0.1c-1.8-0.9-2.9-2.6-2.9-4.9c0-3.9,2.8-6,7.2-6
		c1,0,1.8,0.2,2.4,0.4h6.2v1.9h-3.4c1.4,1,1.7,2.5,1.7,3.7c0,4-3,5.8-7,5.8c-1,0-2-0.2-2.6-0.4c-0.3,0.3-0.5,0.7-0.7,1
		c-0.5,1.1-0.4,2.3,1,2.3l6.4,0.4c3.6,0.2,5.2,1.7,5.2,4.1c0,4.1-3.2,6.2-10.2,6.2c-4.8,0-7.2-1.4-7.2-4.6
		C377.6,63.1,378.5,61.8,380.6,60.7L380.6,60.7z M385.4,67.1c3.4,0,6.3-1.1,6.3-3.5c0-1.1-0.7-2-2.9-2.1l-6.5-0.4
		c-1.1,0.8-2,1.5-2,2.9C380.2,66.1,382,67.1,385.4,67.1z M389.9,49.8c0-2.4-1.6-3.9-4.1-3.9c-2.8,0-4.2,1.5-4.2,3.9
		c0,2.4,1.6,3.7,4.2,3.7C388.3,53.5,389.9,52.1,389.9,49.8z"/>
</g>
<g>
	<path class="st1" d="M5.1,83L5.1,83c1.3-1.2,3.4-2.1,5.5-2.1c4.9,0,6.5,4.1,6.5,9.2s-1.8,9.2-6.7,9.2c-2,0-4-0.8-5.2-2H5.1v8.7H1.9
		V81.3h3.2V83z M9.4,83.6c-1.9,0-3.5,0.9-4.2,1.5v10.1c0.7,0.6,2.3,1.5,4.2,1.5c3.4,0,4.4-3,4.4-6.5S12.8,83.6,9.4,83.6z"/>
	<path class="st1" d="M24.1,98.9H21V81.3h3.2v2.8h0.1c1.4-1.6,3.8-3.2,6.6-3.2v3c-2.6,0-5.3,1.1-6.7,2V98.9z"/>
	<path class="st1" d="M33.4,90.1c0-5.5,2.2-9.2,8.1-9.2c5.9,0,8.1,3.7,8.1,9.2s-2.2,9.2-8.1,9.2C35.6,99.3,33.4,95.6,33.4,90.1z
		 M36.7,90.1c0,3.7,1.1,6.5,4.8,6.5c3.7,0,4.8-2.8,4.8-6.5s-1.1-6.5-4.8-6.5C37.8,83.6,36.7,86.4,36.7,90.1z"/>
	<path class="st1" d="M57.6,81.3h4.2v2.3h-4.2v15.4h-3.2V83.6h-2.6v-2.1l2.6-0.2v-2.2c0-3.4,1.2-4.9,5.1-4.9c0.8,0,1.9,0.1,2.8,0.3
		L62.1,77c-0.7-0.1-1.3-0.2-1.8-0.2c-2,0-2.6,0.6-2.6,2.5V81.3z"/>
	<path class="st1" d="M67.8,90.6c0.1,3.5,1.7,6,5.8,6c1.7,0,3.5-0.1,5.5-0.7l0.4,2.6c-2.2,0.6-4.1,0.8-6.4,0.8
		c-6.5,0-8.8-3.7-8.8-9.2s2.3-9.2,8.7-9.2c5.4,0,6.9,3.1,7.1,6.1c0.1,1.1,0,2.4-0.2,3.6H67.8z M67.8,88.6h9c0.1-0.6,0.2-1.3,0.1-1.9
		c-0.1-1.8-1.2-3.4-4-3.4C69.3,83.4,68,85.7,67.8,88.6z"/>
	<path class="st1" d="M90.5,99.3c-2.8,0-5.5-0.2-7.6-0.8l0.6-2.6c2.8,0.7,5.4,0.8,6.7,0.8c3.2,0,3.7-1.9,3.7-2.6c0-1.2-0.8-2-4-2.6
		c-3.7-0.7-6.6-1.9-6.6-5.6c0-3.4,2.4-4.9,6.5-4.9c2.7,0,4.9,0.3,7.1,0.8l-0.6,2.5c-2.8-0.7-5-0.8-6.3-0.8c-3.2,0-3.5,1.7-3.5,2.3
		c0,1.1,0.6,2,3.8,2.7c3.7,0.8,6.8,1.8,6.8,5.4C97.1,97.4,94.7,99.3,90.5,99.3z"/>
	<path class="st1" d="M107.4,99.3c-2.8,0-5.5-0.2-7.6-0.8l0.6-2.6c2.8,0.7,5.4,0.8,6.7,0.8c3.2,0,3.7-1.9,3.7-2.6c0-1.2-0.8-2-4-2.6
		c-3.7-0.7-6.6-1.9-6.6-5.6c0-3.4,2.4-4.9,6.5-4.9c2.7,0,4.9,0.3,7.1,0.8l-0.6,2.5c-2.8-0.7-5-0.8-6.3-0.8c-3.2,0-3.5,1.7-3.5,2.3
		c0,1.1,0.6,2,3.8,2.7c3.7,0.8,6.8,1.8,6.8,5.4C113.9,97.4,111.5,99.3,107.4,99.3z"/>
	<path class="st1" d="M120.6,74.9v4.4h-3.2v-4.4H120.6z M120.6,81.3v17.7h-3.2V81.3H120.6z"/>
	<path class="st1" d="M124.4,90.1c0-5.5,2.2-9.2,8.1-9.2c5.9,0,8.1,3.7,8.1,9.2s-2.2,9.2-8.1,9.2C126.6,99.3,124.4,95.6,124.4,90.1z
		 M127.8,90.1c0,3.7,1.1,6.5,4.8,6.5c3.7,0,4.8-2.8,4.8-6.5s-1.1-6.5-4.8-6.5C128.8,83.6,127.8,86.4,127.8,90.1z"/>
	<path class="st1" d="M147.6,98.9h-3.2V81.3h3.2v2.5h0.1c1.7-1.7,3.8-2.8,6.3-2.8c3.5,0,5.3,2.1,5.3,5.8v12.2h-3.2V87.5
		c0-2.3-0.9-3.9-3.5-3.9c-2,0-3.9,1.2-4.9,2V98.9z"/>
	<path class="st1" d="M171.3,84.2l-0.5-2.6c2.4-0.5,4.9-0.7,6.8-0.7c4.2,0,6.5,1.2,6.5,5.8v12.2H181v-1.8c0,0,0,0-0.1,0
		c-1.7,1.5-3.3,2.1-5.6,2.1c-3.5,0-5.6-2.1-5.6-5.2c0-4,3.2-5.4,7.4-5.4h3.9v-1.8c0-2.3-1.2-3.4-4.1-3.4
		C175.6,83.6,174,83.7,171.3,84.2z M181,90.6h-3.7c-3.3,0-4.4,1.2-4.4,3.2c0,1.9,1.4,3,3.7,3c2,0,3.6-0.8,4.4-1.5V90.6z"/>
	<path class="st1" d="M191.7,98.9h-3.2V81.3h3.2v2.5h0.1c1.7-1.7,3.8-2.8,6.3-2.8c3.5,0,5.3,2.1,5.3,5.8v12.2h-3.2V87.5
		c0-2.3-0.9-3.9-3.5-3.9c-2,0-3.9,1.2-4.9,2V98.9z"/>
	<path class="st1" d="M219.2,97.2C219.1,97.2,219.1,97.2,219.2,97.2c-1.3,1.2-3.4,2.1-5.5,2.1c-4.9,0-6.5-4.1-6.5-9.2
		s1.8-9.2,6.7-9.2c2,0,4,0.8,5.2,2c0,0,0,0,0.1,0v-8.8h3.2v24.7h-3.2V97.2z M214.9,96.6c1.9,0,3.5-0.9,4.2-1.5V85.1
		c-0.7-0.6-2.3-1.5-4.2-1.5c-3.5,0-4.4,3-4.4,6.5S211.5,96.6,214.9,96.6z"/>
	<path class="st1" d="M233.3,86.7c0-6.7,2-12.2,10.2-12.2c2.7,0,5.1,0.4,8.1,1.2l-0.8,2.8c-3.6-0.9-5.2-1.1-7.1-1.1
		c-5.5,0-7,4.1-7,9.2c0,5.5,1.4,9.5,7,9.5c1.8,0,3.2-0.5,4.5-1.2v-5.5h-4.6v-3h7.9v10.8c-2.4,1-4.7,1.9-8.1,1.9
		C235.3,99.3,233.3,93.6,233.3,86.7z"/>
	<path class="st1" d="M265.5,77.9v21h-3.4v-21h-6.6v-3h16.6v3H265.5z"/>
	<path class="st1" d="M285.2,74.6c2.7,0,5.3,0.4,8.3,1.2l-0.8,2.8c-3.6-0.9-5.3-1.1-7.3-1.1c-5.5,0-7,4.1-7,9.2c0,5.5,1.4,9.5,7,9.5
		c1.9,0,3.6-0.2,7.3-1.1l0.8,2.8c-3,0.9-5.6,1.2-8.3,1.2c-8.2,0-10.2-5.6-10.2-12.5C275,80,277,74.6,285.2,74.6z"/>
	<path class="st1" d="M303.9,98l0.6-2.8c3.7,0.9,6.1,1.1,8.1,1.1c3.5,0,5.1-1.8,5.1-3.8c0-2.9-3.4-3.6-6-4.3c-3.9-1-7.4-3.2-7.4-7.2
		c0-4.6,3.7-6.4,8.3-6.4c2.6,0,5.1,0.4,8.1,1.2l-0.8,2.8c-3.6-0.9-5.4-1.1-7.3-1.1c-3.5,0-4.8,1.6-4.8,3.5c0,2.7,3.5,3.7,6.2,4.3
		c3.9,0.9,7.2,2.8,7.2,6.9c0,4.8-3.7,7.1-8.7,7.1C309.9,99.3,306.9,98.9,303.9,98z"/>
	<path class="st1" d="M333.5,80.9c2.2,0,3.9,0.3,6,0.8l-0.6,2.5c-2.8-0.7-4.2-0.7-5.4-0.7c-3.7,0-5.3,2.6-5.3,6.5s1.6,6.5,5.3,6.5
		c1.2,0,2.6,0,5.4-0.7l0.6,2.6c-2.1,0.5-3.8,0.8-6,0.8c-6.5,0-8.7-3.7-8.7-9.2S327,80.9,333.5,80.9z"/>
	<path class="st1" d="M341.5,90.1c0-5.5,2.2-9.2,8.1-9.2c5.9,0,8.1,3.7,8.1,9.2s-2.2,9.2-8.1,9.2C343.7,99.3,341.5,95.6,341.5,90.1z
		 M344.9,90.1c0,3.7,1.1,6.5,4.8,6.5c3.7,0,4.8-2.8,4.8-6.5s-1.1-6.5-4.8-6.5C345.9,83.6,344.9,86.4,344.9,90.1z"/>
	<path class="st1" d="M362.6,83.6h-2.6v-2.1l2.6-0.2l0.4-4.9h2.8v4.9h4.9v2.3h-4.9v9.7c0,2.3,0.7,3.5,3,3.5c0.5,0,1.1-0.1,1.8-0.2
		l0.3,2.5c-1,0.1-2.3,0.2-3.2,0.2c-3.6,0-5.1-1.5-5.1-5.5V83.6z"/>
	<path class="st1" d="M374.3,74.2h3.2v24.7h-3.2V74.2z"/>
	<path class="st1" d="M382.5,84.2l-0.5-2.6c2.4-0.5,4.9-0.7,6.8-0.7c4.2,0,6.5,1.2,6.5,5.8v12.2h-3.2v-1.8c0,0,0,0-0.1,0
		c-1.7,1.5-3.3,2.1-5.6,2.1c-3.5,0-5.6-2.1-5.6-5.2c0-4,3.2-5.4,7.4-5.4h3.9v-1.8c0-2.3-1.2-3.4-4.1-3.4
		C386.8,83.6,385.2,83.7,382.5,84.2z M392.2,90.6h-3.7c-3.3,0-4.4,1.2-4.4,3.2c0,1.9,1.4,3,3.7,3c2,0,3.6-0.8,4.4-1.5V90.6z"/>
	<path class="st1" d="M402.9,98.9h-3.2V81.3h3.2v2.5h0.1c1.7-1.7,3.8-2.8,6.3-2.8c3.5,0,5.3,2.1,5.3,5.8v12.2h-3.2V87.5
		c0-2.3-0.9-3.9-3.5-3.9c-2,0-3.9,1.2-4.9,2V98.9z"/>
	<path class="st1" d="M430.4,97.2C430.3,97.2,430.3,97.2,430.4,97.2c-1.3,1.2-3.4,2.1-5.5,2.1c-4.9,0-6.5-4.1-6.5-9.2
		s1.8-9.2,6.7-9.2c2,0,4,0.8,5.2,2c0,0,0,0,0.1,0v-8.8h3.2v24.7h-3.2V97.2z M426.1,96.6c1.9,0,3.5-0.9,4.2-1.5V85.1
		c-0.7-0.6-2.3-1.5-4.2-1.5c-3.5,0-4.4,3-4.4,6.5S422.7,96.6,426.1,96.6z"/>
</g>
<g>
	<path class="st1" d="M2.3,170v-24h3.4v24H2.3z"/>
	<path class="st1" d="M13.5,170h-3.2v-17.7h3.2v2.5h0.1c1.4-1.5,3.3-2.8,5.8-2.8c2.5,0,4.1,1.1,4.8,3.1c1.7-1.8,3.8-3.1,6.3-3.1
		c3.5,0,5.3,2.1,5.3,5.8V170h-3.2v-11.5c0-2.3-1-3.9-3.5-3.9c-1.8,0-3.4,1.2-4.5,2.1c0.1,0.6,0.1,1.2,0.1,1.9V170h-3.2v-11.6
		c-0.1-2.2-1-3.8-3.5-3.8c-1.9,0-3.4,1.2-4.4,2V170z"/>
	<path class="st1" d="M43.3,154.1L43.3,154.1c1.3-1.2,3.4-2.1,5.5-2.1c4.9,0,6.5,4.1,6.5,9.2s-1.8,9.2-6.7,9.2c-2,0-4-0.8-5.2-2
		h-0.1v8.7h-3.2v-24.7h3.2V154.1z M47.5,154.7c-1.9,0-3.5,0.9-4.2,1.5v10.1c0.7,0.6,2.3,1.5,4.2,1.5c3.4,0,4.4-3,4.4-6.5
		S50.9,154.7,47.5,154.7z"/>
	<path class="st1" d="M62.3,170h-3.2v-17.7h3.2v2.8h0.1c1.4-1.6,3.8-3.2,6.6-3.2v3c-2.6,0-5.3,1.1-6.7,2V170z"/>
	<path class="st1" d="M71.5,161.2c0-5.5,2.2-9.2,8.1-9.2c5.9,0,8.1,3.7,8.1,9.2s-2.2,9.2-8.1,9.2C73.7,170.4,71.5,166.7,71.5,161.2z
		 M74.9,161.2c0,3.7,1.1,6.5,4.8,6.5c3.7,0,4.8-2.8,4.8-6.5s-1.1-6.5-4.8-6.5C75.9,154.7,74.9,157.5,74.9,161.2z"/>
	<path class="st1" d="M96.5,170.2l-6.5-17.8h3.6l4.9,14.3h0.1l5-14.3h3.4l-6.6,17.8H96.5z"/>
	<path class="st1" d="M112.4,161.7c0.1,3.5,1.7,6,5.8,6c1.7,0,3.5-0.1,5.5-0.7l0.4,2.6c-2.2,0.6-4.1,0.8-6.4,0.8
		c-6.5,0-8.8-3.7-8.8-9.2s2.3-9.2,8.7-9.2c5.4,0,6.9,3.1,7.1,6.1c0.1,1.1,0,2.4-0.2,3.6H112.4z M112.4,159.7h9
		c0.1-0.6,0.2-1.3,0.1-1.9c-0.1-1.8-1.2-3.4-4-3.4C114,154.5,112.7,156.8,112.4,159.7z"/>
	<path class="st1" d="M136.6,154.7h-2.6v-2.1l2.6-0.2l0.4-4.9h2.8v4.9h4.9v2.3h-4.9v9.7c0,2.3,0.7,3.5,3,3.5c0.5,0,1.1-0.1,1.8-0.2
		l0.3,2.5c-1,0.1-2.3,0.2-3.2,0.2c-3.6,0-5.1-1.5-5.1-5.5V154.7z"/>
	<path class="st1" d="M151.5,170h-3.2v-24.7h3.2v9.5h0.1c1.7-1.7,3.8-2.8,6.3-2.8c3.5,0,5.3,2.1,5.3,5.8V170h-3.2v-11.5
		c0-2.3-0.9-3.9-3.5-3.9c-2,0-3.9,1.2-4.9,2V170z"/>
	<path class="st1" d="M170.3,161.7c0.1,3.5,1.7,6,5.8,6c1.7,0,3.5-0.1,5.5-0.7l0.4,2.6c-2.2,0.6-4.1,0.8-6.4,0.8
		c-6.5,0-8.8-3.7-8.8-9.2s2.3-9.2,8.7-9.2c5.4,0,6.9,3.1,7.1,6.1c0.1,1.1,0,2.4-0.2,3.6H170.3z M170.3,159.7h9
		c0.1-0.6,0.2-1.3,0.1-1.9c-0.1-1.8-1.2-3.4-4-3.4C171.8,154.5,170.5,156.8,170.3,159.7z"/>
	<path class="st1" d="M196.1,161.7c0.1,3.5,1.7,6,5.8,6c1.7,0,3.5-0.1,5.5-0.7l0.4,2.6c-2.2,0.6-4.1,0.8-6.4,0.8
		c-6.5,0-8.8-3.7-8.8-9.2s2.3-9.2,8.7-9.2c5.4,0,6.9,3.1,7.1,6.1c0.1,1.1,0,2.4-0.2,3.6H196.1z M196.1,159.7h9
		c0.1-0.6,0.2-1.3,0.1-1.9c-0.1-1.8-1.2-3.4-4-3.4C197.6,154.5,196.3,156.8,196.1,159.7z"/>
	<path class="st1" d="M223.8,150.8c0-4,1.5-5.5,5.1-5.5c0.8,0,1.9,0.1,2.8,0.3l-0.3,2.5c-0.7-0.1-1.3-0.2-1.8-0.2
		c-2.1,0-2.6,1.2-2.6,3.5v1h4.6v2.3H227V170h-3.2v-15.4h-7.2V170h-3.2v-15.4h-2.6v-2.1l2.6-0.2v-1.6c0-4,1.5-5.5,5.1-5.5
		c0.8,0,1.9,0.1,2.8,0.3l-0.3,2.5c-0.7-0.1-1.3-0.2-1.8-0.2c-2.1,0-2.6,1.2-2.6,3.5v1h7.2V150.8z"/>
	<path class="st1" d="M237.1,161.7c0.1,3.5,1.7,6,5.8,6c1.7,0,3.5-0.1,5.5-0.7l0.4,2.6c-2.2,0.6-4.1,0.8-6.4,0.8
		c-6.5,0-8.8-3.7-8.8-9.2s2.3-9.2,8.7-9.2c5.4,0,6.9,3.1,7.1,6.1c0.1,1.1,0,2.4-0.2,3.6H237.1z M237.1,159.7h9
		c0.1-0.6,0.2-1.3,0.1-1.9c-0.1-1.8-1.2-3.4-4-3.4C238.6,154.5,237.4,156.8,237.1,159.7z"/>
	<path class="st1" d="M261.2,152c2.2,0,3.9,0.3,6,0.8l-0.6,2.5c-2.8-0.7-4.2-0.7-5.4-0.7c-3.7,0-5.3,2.6-5.3,6.5s1.6,6.5,5.3,6.5
		c1.2,0,2.6,0,5.4-0.7l0.6,2.6c-2.1,0.5-3.8,0.8-6,0.8c-6.5,0-8.7-3.7-8.7-9.2S254.8,152,261.2,152z"/>
	<path class="st1" d="M272.3,154.7h-2.6v-2.1l2.6-0.2l0.4-4.9h2.8v4.9h4.9v2.3h-4.9v9.7c0,2.3,0.7,3.5,3,3.5c0.5,0,1.1-0.1,1.8-0.2
		l0.3,2.5c-1,0.1-2.3,0.2-3.2,0.2c-3.6,0-5.1-1.5-5.1-5.5V154.7z"/>
	<path class="st1" d="M287.2,146v4.4H284V146H287.2z M287.2,152.4V170H284v-17.7H287.2z"/>
	<path class="st1" d="M297,170.2l-6.5-17.8h3.6l4.9,14.3h0.1l5-14.3h3.4l-6.6,17.8H297z"/>
	<path class="st1" d="M313,161.7c0.1,3.5,1.7,6,5.8,6c1.7,0,3.5-0.1,5.5-0.7l0.4,2.6c-2.2,0.6-4.1,0.8-6.4,0.8
		c-6.5,0-8.8-3.7-8.8-9.2s2.3-9.2,8.7-9.2c5.4,0,6.9,3.1,7.1,6.1c0.1,1.1,0,2.4-0.2,3.6H313z M313,159.7h9c0.1-0.6,0.2-1.3,0.1-1.9
		c-0.1-1.8-1.2-3.4-4-3.4C314.5,154.5,313.3,156.8,313,159.7z"/>
	<path class="st1" d="M332.2,170H329v-17.7h3.2v2.5h0.1c1.7-1.7,3.8-2.8,6.3-2.8c3.5,0,5.3,2.1,5.3,5.8V170h-3.2v-11.5
		c0-2.3-0.9-3.9-3.5-3.9c-2,0-3.9,1.2-4.9,2V170z"/>
	<path class="st1" d="M351,161.7c0.1,3.5,1.7,6,5.8,6c1.7,0,3.5-0.1,5.5-0.7l0.4,2.6c-2.2,0.6-4.1,0.8-6.4,0.8
		c-6.5,0-8.8-3.7-8.8-9.2s2.3-9.2,8.7-9.2c5.4,0,6.9,3.1,7.1,6.1c0.1,1.1,0,2.4-0.2,3.6H351z M351,159.7h9c0.1-0.6,0.2-1.3,0.1-1.9
		c-0.1-1.8-1.2-3.4-4-3.4C352.5,154.5,351.2,156.8,351,159.7z"/>
	<path class="st1" d="M373.7,170.4c-2.8,0-5.5-0.2-7.6-0.8l0.6-2.6c2.8,0.7,5.4,0.8,6.7,0.8c3.2,0,3.7-1.9,3.7-2.6
		c0-1.2-0.8-2-4-2.6c-3.7-0.7-6.6-1.9-6.6-5.6c0-3.4,2.4-4.9,6.5-4.9c2.7,0,4.9,0.3,7.1,0.8l-0.6,2.5c-2.8-0.7-5-0.8-6.3-0.8
		c-3.2,0-3.5,1.7-3.5,2.3c0,1.1,0.6,2,3.8,2.7c3.7,0.8,6.8,1.8,6.8,5.4C380.3,168.6,377.9,170.4,373.7,170.4z"/>
	<path class="st1" d="M390.6,170.4c-2.8,0-5.5-0.2-7.6-0.8l0.6-2.6c2.8,0.7,5.4,0.8,6.7,0.8c3.2,0,3.7-1.9,3.7-2.6
		c0-1.2-0.8-2-4-2.6c-3.7-0.7-6.6-1.9-6.6-5.6c0-3.4,2.4-4.9,6.5-4.9c2.7,0,4.9,0.3,7.1,0.8l-0.6,2.5c-2.8-0.7-5-0.8-6.3-0.8
		c-3.2,0-3.5,1.7-3.5,2.3c0,1.1,0.6,2,3.8,2.7c3.7,0.8,6.8,1.8,6.8,5.4C397.2,168.6,394.8,170.4,390.6,170.4z"/>
</g>
<g>
	<path class="st1" d="M3,192.5l-0.5-2.6c2.4-0.5,4.9-0.7,6.8-0.7c4.2,0,6.5,1.2,6.5,5.8v12.2h-3.2v-1.8c0,0,0,0-0.1,0
		c-1.7,1.5-3.3,2.1-5.6,2.1c-3.5,0-5.6-2.1-5.6-5.2c0-4,3.2-5.4,7.4-5.4h3.9v-1.8c0-2.3-1.2-3.4-4.1-3.4
		C7.3,191.8,5.6,191.9,3,192.5z M12.7,198.8H9c-3.3,0-4.4,1.2-4.4,3.2c0,1.9,1.4,3,3.7,3c2,0,3.6-0.8,4.4-1.5V198.8z"/>
	<path class="st1" d="M23.4,207.1h-3.2v-17.7h3.2v2.5h0.1c1.7-1.7,3.8-2.8,6.3-2.8c3.5,0,5.3,2.1,5.3,5.8v12.2h-3.2v-11.5
		c0-2.3-0.9-3.9-3.5-3.9c-2,0-3.9,1.2-4.9,2V207.1z"/>
	<path class="st1" d="M50.9,205.4C50.8,205.4,50.8,205.4,50.9,205.4c-1.3,1.2-3.4,2.1-5.5,2.1c-4.9,0-6.5-4.1-6.5-9.2
		s1.8-9.2,6.7-9.2c2,0,4,0.8,5.2,2c0,0,0,0,0.1,0v-8.8h3.2v24.7h-3.2V205.4z M46.6,204.8c1.9,0,3.5-0.9,4.2-1.5v-10.1
		c-0.7-0.6-2.3-1.5-4.2-1.5c-3.5,0-4.4,3-4.4,6.5S43.2,204.8,46.6,204.8z"/>
	<path class="st1" d="M68,198.8c0.1,3.5,1.7,6,5.8,6c1.7,0,3.5-0.1,5.5-0.7l0.4,2.6c-2.2,0.6-4.1,0.8-6.4,0.8
		c-6.5,0-8.8-3.7-8.8-9.2s2.3-9.2,8.7-9.2c5.4,0,6.9,3.1,7.1,6.1c0.1,1.1,0,2.4-0.2,3.6H68z M68,196.8h9c0.1-0.6,0.2-1.3,0.1-1.9
		c-0.1-1.8-1.2-3.4-4-3.4C69.6,191.6,68.3,193.9,68,196.8z"/>
	<path class="st1" d="M88.5,191.8v15.4h-3.2v-15.4h-2.6v-2.1l2.6-0.2v-1.6c0-4,1.5-5.5,5.1-5.5c0.8,0,1.9,0.1,2.8,0.3l-0.3,2.5
		c-0.7-0.1-1.3-0.2-1.8-0.2c-2.1,0-2.6,1.2-2.6,3.5v1h7.2v-1c0-4,1.9-6,6.7-6c1.4,0,4.4,0.4,6.2,1.2l-0.4,2.3
		c-1.8-0.7-4.1-0.9-5.5-0.9c-3.2,0-3.9,1.4-3.9,3.5v1h10.4v17.7h-3.2v-15.4H99v15.4h-3.2v-15.4H88.5z"/>
	<path class="st1" d="M121.8,189.1c2.2,0,3.9,0.3,6,0.8l-0.6,2.5c-2.8-0.7-4.2-0.7-5.4-0.7c-3.7,0-5.3,2.6-5.3,6.5s1.6,6.5,5.3,6.5
		c1.2,0,2.6,0,5.4-0.7l0.6,2.6c-2.1,0.5-3.8,0.8-6,0.8c-6.5,0-8.7-3.7-8.7-9.2S115.3,189.1,121.8,189.1z"/>
	<path class="st1" d="M134,183.1v4.4h-3.2v-4.4H134z M134,189.5v17.7h-3.2v-17.7H134z"/>
	<path class="st1" d="M141.2,198.8c0.1,3.5,1.7,6,5.8,6c1.7,0,3.5-0.1,5.5-0.7l0.4,2.6c-2.2,0.6-4.1,0.8-6.4,0.8
		c-6.5,0-8.8-3.7-8.8-9.2s2.3-9.2,8.7-9.2c5.4,0,6.9,3.1,7.1,6.1c0.1,1.1,0,2.4-0.2,3.6H141.2z M141.2,196.8h9
		c0.1-0.6,0.2-1.3,0.1-1.9c-0.1-1.8-1.2-3.4-4-3.4C142.7,191.6,141.4,193.9,141.2,196.8z"/>
	<path class="st1" d="M160.3,207.1h-3.2v-17.7h3.2v2.5h0.1c1.7-1.7,3.8-2.8,6.3-2.8c3.5,0,5.3,2.1,5.3,5.8v12.2h-3.2v-11.5
		c0-2.3-0.9-3.9-3.5-3.9c-2,0-3.9,1.2-4.9,2V207.1z"/>
	<path class="st1" d="M184.3,189.1c2.2,0,3.9,0.3,6,0.8l-0.6,2.5c-2.8-0.7-4.2-0.7-5.4-0.7c-3.7,0-5.3,2.6-5.3,6.5s1.6,6.5,5.3,6.5
		c1.2,0,2.6,0,5.4-0.7l0.6,2.6c-2.1,0.5-3.8,0.8-6,0.8c-6.5,0-8.7-3.7-8.7-9.2S177.9,189.1,184.3,189.1z"/>
	<path class="st1" d="M193.1,189.5h3.6l5.1,14.4h0.1l4.8-14.4h3.4l-6.6,18.7c-1.6,4.6-3.7,6.4-7.1,6.4c-0.8,0-1.9-0.1-2.6-0.2
		l0.3-2.6c0.6,0.1,1.2,0.2,1.7,0.2c2.3,0,3.6-2.3,4.4-4.3L193.1,189.5z"/>
	<path class="st1" d="M220.1,198.3c0-5.5,2.2-9.2,8.1-9.2c5.9,0,8.1,3.7,8.1,9.2s-2.2,9.2-8.1,9.2
		C222.3,207.5,220.1,203.8,220.1,198.3z M223.4,198.3c0,3.7,1.1,6.5,4.8,6.5c3.7,0,4.8-2.8,4.8-6.5s-1.1-6.5-4.8-6.5
		C224.5,191.8,223.4,194.6,223.4,198.3z"/>
	<path class="st1" d="M244.3,189.5h4.2v2.3h-4.2v15.4h-3.2v-15.4h-2.6v-2.1l2.6-0.2v-2.2c0-3.4,1.2-4.9,5.1-4.9
		c0.8,0,1.9,0.1,2.8,0.3l-0.3,2.5c-0.7-0.1-1.3-0.2-1.8-0.2c-2,0-2.6,0.6-2.6,2.5V189.5z"/>
	<path class="st1" d="M258.6,198.3c0-5.5,2.2-9.2,8.1-9.2c5.9,0,8.1,3.7,8.1,9.2s-2.2,9.2-8.1,9.2
		C260.8,207.5,258.6,203.8,258.6,198.3z M261.9,198.3c0,3.7,1.1,6.5,4.8,6.5c3.7,0,4.8-2.8,4.8-6.5s-1.1-6.5-4.8-6.5
		C263,191.8,261.9,194.6,261.9,198.3z"/>
	<path class="st1" d="M290.2,189.5h3.2v17.7h-3.2v-2.5h-0.1c-1.7,1.7-3.8,2.8-6.3,2.8c-3.5,0-5.3-2.1-5.3-5.8v-12.2h3.2V201
		c0,2.3,1,3.9,3.5,3.9c2,0,3.9-1.2,4.9-2V189.5z"/>
	<path class="st1" d="M300.9,207.1h-3.2v-17.7h3.2v2.8h0.1c1.4-1.6,3.8-3.2,6.6-3.2v3c-2.6,0-5.3,1.1-6.7,2V207.1z"/>
	<path class="st1" d="M333.2,186.1h-11.7v7.8h10.1v3h-10.1v10.2h-3.4v-24h15V186.1z"/>
	<path class="st1" d="M340,183.1v4.4h-3.2v-4.4H340z M340,189.5v17.7h-3.2v-17.7H340z"/>
	<path class="st1" d="M345.6,191.8h-2.6v-2.1l2.6-0.2l0.4-4.9h2.8v4.9h4.9v2.3h-4.9v9.7c0,2.3,0.7,3.5,3,3.5c0.5,0,1.1-0.1,1.8-0.2
		l0.3,2.5c-1,0.1-2.3,0.2-3.2,0.2c-3.6,0-5.1-1.5-5.1-5.5V191.8z"/>
	<path class="st1" d="M360.5,207.1h-3.2v-17.7h3.2v2.5h0.1c1.7-1.7,3.8-2.8,6.3-2.8c3.5,0,5.3,2.1,5.3,5.8v12.2h-3.2v-11.5
		c0-2.3-0.9-3.9-3.5-3.9c-2,0-3.9,1.2-4.9,2V207.1z"/>
	<path class="st1" d="M379.3,198.8c0.1,3.5,1.7,6,5.8,6c1.7,0,3.5-0.1,5.5-0.7l0.4,2.6c-2.2,0.6-4.1,0.8-6.4,0.8
		c-6.5,0-8.8-3.7-8.8-9.2s2.3-9.2,8.7-9.2c5.4,0,6.9,3.1,7.1,6.1c0.1,1.1,0,2.4-0.2,3.6H379.3z M379.3,196.8h9
		c0.1-0.6,0.2-1.3,0.1-1.9c-0.1-1.8-1.2-3.4-4-3.4C380.8,191.6,379.5,193.9,379.3,196.8z"/>
	<path class="st1" d="M402.1,207.5c-2.8,0-5.5-0.2-7.6-0.8l0.6-2.6c2.8,0.7,5.4,0.8,6.7,0.8c3.2,0,3.7-1.9,3.7-2.6
		c0-1.2-0.8-2-4-2.6c-3.7-0.7-6.6-1.9-6.6-5.6c0-3.4,2.4-4.9,6.5-4.9c2.7,0,4.9,0.3,7.1,0.8l-0.6,2.5c-2.8-0.7-5-0.8-6.3-0.8
		c-3.2,0-3.5,1.7-3.5,2.3c0,1.1,0.6,2,3.8,2.7c3.7,0.8,6.8,1.8,6.8,5.4C408.6,205.7,406.2,207.5,402.1,207.5z"/>
	<path class="st1" d="M418.9,207.5c-2.8,0-5.5-0.2-7.6-0.8l0.6-2.6c2.8,0.7,5.4,0.8,6.7,0.8c3.2,0,3.7-1.9,3.7-2.6
		c0-1.2-0.8-2-4-2.6c-3.7-0.7-6.6-1.9-6.6-5.6c0-3.4,2.4-4.9,6.5-4.9c2.7,0,4.9,0.3,7.1,0.8l-0.6,2.5c-2.8-0.7-5-0.8-6.3-0.8
		c-3.2,0-3.5,1.7-3.5,2.3c0,1.1,0.6,2,3.8,2.7c3.7,0.8,6.8,1.8,6.8,5.4C425.5,205.7,423.1,207.5,418.9,207.5z"/>
</g>
<g>
	<path class="st1" d="M3.4,228.9H0.7v-2.1l2.6-0.2l0.4-4.9h2.8v4.9h4.9v2.3H6.5v9.7c0,2.3,0.7,3.5,3,3.5c0.5,0,1.1-0.1,1.8-0.2
		l0.3,2.5c-1,0.1-2.3,0.2-3.2,0.2c-3.6,0-5.1-1.5-5.1-5.5V228.9z"/>
	<path class="st1" d="M14.1,235.4c0-5.5,2.2-9.2,8.1-9.2c5.9,0,8.1,3.7,8.1,9.2s-2.2,9.2-8.1,9.2C16.3,244.6,14.1,240.9,14.1,235.4z
		 M17.5,235.4c0,3.7,1.1,6.5,4.8,6.5c3.7,0,4.8-2.8,4.8-6.5s-1.1-6.5-4.8-6.5C18.5,228.9,17.5,231.7,17.5,235.4z"/>
	<path class="st1" d="M50.5,223.2v21h-3.4v-21h-6.6v-3h16.6v3H50.5z"/>
	<path class="st1" d="M61,236c0.1,3.5,1.7,6,5.8,6c1.7,0,3.5-0.1,5.5-0.7l0.4,2.6c-2.2,0.6-4.1,0.8-6.4,0.8c-6.5,0-8.8-3.7-8.8-9.2
		s2.3-9.2,8.7-9.2c5.4,0,6.9,3.1,7.1,6.1c0.1,1.1,0,2.4-0.2,3.6H61z M61,233.9h9c0.1-0.6,0.2-1.3,0.1-1.9c-0.1-1.8-1.2-3.4-4-3.4
		C62.5,228.7,61.2,231,61,233.9z"/>
	<path class="st1" d="M77.5,229.6L77,227c2.4-0.5,4.9-0.7,6.8-0.7c4.2,0,6.5,1.2,6.5,5.8v12.2h-3.2v-1.8c0,0,0,0-0.1,0
		c-1.7,1.5-3.3,2.1-5.6,2.1c-3.5,0-5.6-2.1-5.6-5.2c0-4,3.2-5.4,7.4-5.4h3.9v-1.8c0-2.3-1.2-3.4-4.1-3.4
		C81.8,228.9,80.1,229,77.5,229.6z M87.2,236h-3.7c-3.3,0-4.4,1.2-4.4,3.2c0,1.9,1.4,3,3.7,3c2,0,3.6-0.8,4.4-1.5V236z"/>
	<path class="st1" d="M102.7,226.2c2.2,0,3.9,0.3,6,0.8l-0.6,2.5c-2.8-0.7-4.2-0.7-5.4-0.7c-3.7,0-5.3,2.6-5.3,6.5s1.6,6.5,5.3,6.5
		c1.2,0,2.6,0,5.4-0.7l0.6,2.6c-2.1,0.5-3.8,0.8-6,0.8c-6.5,0-8.7-3.7-8.7-9.2S96.3,226.2,102.7,226.2z"/>
	<path class="st1" d="M114.9,244.2h-3.2v-24.7h3.2v9.5h0.1c1.7-1.7,3.8-2.8,6.3-2.8c3.5,0,5.3,2.1,5.3,5.8v12.2h-3.2v-11.5
		c0-2.3-0.9-3.9-3.5-3.9c-2,0-3.9,1.2-4.9,2V244.2z"/>
	<path class="st1" d="M140.7,228.4L140.7,228.4c1.3-1.2,3.4-2.1,5.5-2.1c4.9,0,6.5,4.1,6.5,9.2s-1.8,9.2-6.7,9.2c-2,0-4-0.8-5.2-2
		h-0.1v8.7h-3.2v-24.7h3.2V228.4z M144.9,228.9c-1.9,0-3.5,0.9-4.2,1.5v10.1c0.7,0.6,2.3,1.5,4.2,1.5c3.4,0,4.4-3,4.4-6.5
		S148.3,228.9,144.9,228.9z"/>
	<path class="st1" d="M159.7,244.2h-3.2v-17.7h3.2v2.8h0.1c1.4-1.6,3.8-3.2,6.6-3.2v3c-2.6,0-5.3,1.1-6.7,2V244.2z"/>
	<path class="st1" d="M168.9,235.4c0-5.5,2.2-9.2,8.1-9.2c5.9,0,8.1,3.7,8.1,9.2s-2.2,9.2-8.1,9.2
		C171.1,244.6,168.9,240.9,168.9,235.4z M172.3,235.4c0,3.7,1.1,6.5,4.8,6.5c3.7,0,4.8-2.8,4.8-6.5s-1.1-6.5-4.8-6.5
		C173.3,228.9,172.3,231.7,172.3,235.4z"/>
	<path class="st1" d="M197,226.2c2.2,0,3.9,0.3,6,0.8l-0.6,2.5c-2.8-0.7-4.2-0.7-5.4-0.7c-3.7,0-5.3,2.6-5.3,6.5s1.6,6.5,5.3,6.5
		c1.2,0,2.6,0,5.4-0.7l0.6,2.6c-2.1,0.5-3.8,0.8-6,0.8c-6.5,0-8.7-3.7-8.7-9.2S190.6,226.2,197,226.2z"/>
	<path class="st1" d="M208.5,236c0.1,3.5,1.7,6,5.8,6c1.7,0,3.5-0.1,5.5-0.7l0.4,2.6c-2.2,0.6-4.1,0.8-6.4,0.8
		c-6.5,0-8.8-3.7-8.8-9.2s2.3-9.2,8.7-9.2c5.4,0,6.9,3.1,7.1,6.1c0.1,1.1,0,2.4-0.2,3.6H208.5z M208.5,233.9h9
		c0.1-0.6,0.2-1.3,0.1-1.9c-0.1-1.8-1.2-3.4-4-3.4C210,228.7,208.8,231,208.5,233.9z"/>
	<path class="st1" d="M231.3,244.6c-2.8,0-5.5-0.2-7.6-0.8l0.6-2.6c2.8,0.7,5.4,0.8,6.7,0.8c3.2,0,3.7-1.9,3.7-2.6
		c0-1.2-0.8-2-4-2.6c-3.7-0.7-6.6-1.9-6.6-5.6c0-3.4,2.4-4.9,6.5-4.9c2.7,0,4.9,0.3,7.1,0.8l-0.6,2.5c-2.8-0.7-5-0.8-6.3-0.8
		c-3.2,0-3.5,1.7-3.5,2.3c0,1.1,0.6,2,3.8,2.7c3.7,0.8,6.8,1.8,6.8,5.4C237.8,242.8,235.4,244.6,231.3,244.6z"/>
	<path class="st1" d="M248.2,244.6c-2.8,0-5.5-0.2-7.6-0.8l0.6-2.6c2.8,0.7,5.4,0.8,6.7,0.8c3.2,0,3.7-1.9,3.7-2.6
		c0-1.2-0.8-2-4-2.6c-3.7-0.7-6.6-1.9-6.6-5.6c0-3.4,2.4-4.9,6.5-4.9c2.7,0,4.9,0.3,7.1,0.8l-0.6,2.5c-2.8-0.7-5-0.8-6.3-0.8
		c-3.2,0-3.5,1.7-3.5,2.3c0,1.1,0.6,2,3.8,2.7c3.7,0.8,6.8,1.8,6.8,5.4C254.7,242.8,252.3,244.6,248.2,244.6z"/>
</g>
<g>
	<path class="st1" d="M1.9,303.2c0-6.7,2-12.2,10.2-12.2c8.2,0,10.2,5.5,10.2,12.2c0,6.8-2,12.5-10.2,12.5
		C4,315.7,1.9,310,1.9,303.2z M5.5,303.2c0,5.1,1,9.7,6.7,9.7c5.7,0,6.7-4.6,6.7-9.7s-1-9.4-6.7-9.4C6.4,293.8,5.5,298.1,5.5,303.2z
		"/>
	<path class="st1" d="M29.9,299.5L29.9,299.5c1.3-1.2,3.4-2.1,5.5-2.1c4.9,0,6.5,4.1,6.5,9.2s-1.8,9.2-6.7,9.2c-2,0-4-0.8-5.2-2
		h-0.1v8.7h-3.2v-24.7h3.2V299.5z M34.1,300c-1.9,0-3.5,0.9-4.2,1.5v10.1c0.7,0.6,2.3,1.5,4.2,1.5c3.4,0,4.4-3,4.4-6.5
		S37.5,300,34.1,300z"/>
	<path class="st1" d="M48.6,307.1c0.1,3.5,1.7,6,5.8,6c1.7,0,3.5-0.1,5.5-0.7l0.4,2.6c-2.2,0.6-4.1,0.8-6.4,0.8
		c-6.5,0-8.8-3.7-8.8-9.2s2.3-9.2,8.7-9.2c5.4,0,6.9,3.1,7.1,6.1c0.1,1.1,0,2.4-0.2,3.6H48.6z M48.6,305h9c0.1-0.6,0.2-1.3,0.1-1.9
		c-0.1-1.8-1.2-3.4-4-3.4C50.1,299.8,48.9,302.1,48.6,305z"/>
	<path class="st1" d="M67.8,315.4h-3.2v-17.7h3.2v2.8h0.1c1.4-1.6,3.8-3.2,6.6-3.2v3c-2.6,0-5.3,1.1-6.7,2V315.4z"/>
	<path class="st1" d="M78.5,300.7l-0.5-2.6c2.4-0.5,4.9-0.7,6.8-0.7c4.2,0,6.5,1.2,6.5,5.8v12.2h-3.2v-1.8c0,0,0,0-0.1,0
		c-1.7,1.5-3.3,2.1-5.6,2.1c-3.5,0-5.6-2.1-5.6-5.2c0-4,3.2-5.4,7.4-5.4h3.9v-1.8c0-2.3-1.2-3.4-4.1-3.4
		C82.8,300,81.1,300.1,78.5,300.7z M88.2,307.1h-3.7c-3.3,0-4.4,1.2-4.4,3.2c0,1.9,1.4,3,3.7,3c2,0,3.6-0.8,4.4-1.5V307.1z"/>
	<path class="st1" d="M96.8,300h-2.6v-2.1l2.6-0.2l0.4-4.9h2.8v4.9h4.9v2.3H100v9.7c0,2.3,0.7,3.5,3,3.5c0.5,0,1.1-0.1,1.8-0.2
		l0.3,2.5c-1,0.1-2.3,0.2-3.2,0.2c-3.6,0-5.1-1.5-5.1-5.5V300z"/>
	<path class="st1" d="M111,307.1c0.1,3.5,1.7,6,5.8,6c1.7,0,3.5-0.1,5.5-0.7l0.4,2.6c-2.2,0.6-4.1,0.8-6.4,0.8
		c-6.5,0-8.8-3.7-8.8-9.2s2.3-9.2,8.7-9.2c5.4,0,6.9,3.1,7.1,6.1c0.1,1.1,0,2.4-0.2,3.6H111z M111,305h9c0.1-0.6,0.2-1.3,0.1-1.9
		c-0.1-1.8-1.2-3.4-4-3.4C112.5,299.8,111.2,302.1,111,305z"/>
	<path class="st1" d="M136.8,315.4h-3.2v-24.7h3.2v9.5h0.1c1.7-1.7,3.8-2.8,6.3-2.8c3.5,0,5.3,2.1,5.3,5.8v12.2h-3.2v-11.5
		c0-2.3-0.9-3.9-3.5-3.9c-2,0-3.9,1.2-4.9,2V315.4z"/>
	<path class="st1" d="M156,291.3v4.4h-3.2v-4.4H156z M156,297.7v17.7h-3.2v-17.7H156z"/>
	<path class="st1" d="M161.9,314.2c-1-0.5-1.4-1.4-1.3-2.4c0-1.2,0.8-2.5,2.3-3.4v-0.1c-1.8-0.9-2.9-2.6-2.9-4.9c0-3.9,2.8-6,7.2-6
		c1,0,1.8,0.2,2.4,0.4h6.2v1.9h-3.4c1.4,1,1.7,2.5,1.7,3.7c0,4-3,5.8-7,5.8c-1,0-2-0.2-2.6-0.4c-0.3,0.3-0.5,0.7-0.7,1
		c-0.5,1.1-0.4,2.3,1,2.3l6.4,0.4c3.6,0.2,5.2,1.7,5.2,4.1c0,4.1-3.2,6.2-10.2,6.2c-4.8,0-7.2-1.4-7.2-4.6
		C158.9,316.6,159.8,315.4,161.9,314.2L161.9,314.2z M166.7,320.7c3.4,0,6.3-1.1,6.3-3.5c0-1.1-0.7-2-2.9-2.1l-6.5-0.4
		c-1.1,0.8-2,1.5-2,2.9C161.5,319.6,163.3,320.7,166.7,320.7z M171.2,303.4c0-2.4-1.6-3.9-4.1-3.9c-2.8,0-4.2,1.5-4.2,3.9
		c0,2.4,1.6,3.7,4.2,3.7C169.6,307.1,171.2,305.7,171.2,303.4z"/>
	<path class="st1" d="M182.7,315.4h-3.2v-24.7h3.2v9.5h0.1c1.7-1.7,3.8-2.8,6.3-2.8c3.5,0,5.3,2.1,5.3,5.8v12.2h-3.2v-11.5
		c0-2.3-0.9-3.9-3.5-3.9c-2,0-3.9,1.2-4.9,2V315.4z"/>
	<path class="st1" d="M212.5,304.7v2.6h-13.8v-2.6H212.5z"/>
	<path class="st1" d="M228.7,313.6L228.7,313.6c-1.3,1.2-3.4,2.1-5.5,2.1c-4.9,0-6.5-4.1-6.5-9.2s1.8-9.2,6.7-9.2c2,0,4.1,0.8,5.4,2
		h0.1l0.6-1.8h2.4v24.8h-3.2V313.6z M224.4,313.1c1.9,0,3.5-0.9,4.2-1.5v-10.1c-0.7-0.6-2.3-1.5-4.2-1.5c-3.5,0-4.4,3-4.4,6.5
		S221,313.1,224.4,313.1z"/>
	<path class="st1" d="M247.8,297.7h3.2v17.7h-3.2v-2.5h-0.1c-1.7,1.7-3.8,2.8-6.3,2.8c-3.5,0-5.3-2.1-5.3-5.8v-12.2h3.2v11.5
		c0,2.3,1,3.9,3.5,3.9c2,0,3.9-1.2,4.9-2V297.7z"/>
	<path class="st1" d="M256,300.7l-0.5-2.6c2.4-0.5,4.9-0.7,6.8-0.7c4.2,0,6.5,1.2,6.5,5.8v12.2h-3.2v-1.8c0,0,0,0-0.1,0
		c-1.7,1.5-3.3,2.1-5.6,2.1c-3.5,0-5.6-2.1-5.6-5.2c0-4,3.2-5.4,7.4-5.4h3.9v-1.8c0-2.3-1.2-3.4-4.1-3.4
		C260.3,300,258.7,300.1,256,300.7z M265.7,307.1H262c-3.3,0-4.4,1.2-4.4,3.2c0,1.9,1.4,3,3.7,3c2,0,3.6-0.8,4.4-1.5V307.1z"/>
	<path class="st1" d="M273.2,290.6h3.2v24.7h-3.2V290.6z"/>
	<path class="st1" d="M283.8,291.3v4.4h-3.2v-4.4H283.8z M283.8,297.7v17.7h-3.2v-17.7H283.8z"/>
	<path class="st1" d="M289.4,300h-2.6v-2.1l2.6-0.2l0.4-4.9h2.8v4.9h4.9v2.3h-4.9v9.7c0,2.3,0.7,3.5,3,3.5c0.5,0,1.1-0.1,1.8-0.2
		l0.3,2.5c-1,0.1-2.3,0.2-3.2,0.2c-3.6,0-5.1-1.5-5.1-5.5V300z"/>
	<path class="st1" d="M300.8,297.7h3.6l5.1,14.4h0.1l4.8-14.4h3.4l-6.6,18.7c-1.6,4.6-3.7,6.4-7.1,6.4c-0.8,0-1.9-0.1-2.6-0.2
		l0.3-2.6c0.6,0.1,1.2,0.2,1.7,0.2c2.3,0,3.6-2.3,4.4-4.3L300.8,297.7z"/>
	<path class="st1" d="M319.8,319.9l0.7-4.6c-0.4,0-0.8,0-1.2,0v-4.6h3.2v4.6l-1.6,4.6H319.8z"/>
	<path class="st1" d="M337.9,315.4h-3.2V300h-2.6v-2.1l2.6-0.2v-1c0-4,1.9-6,6.7-6c1.2,0,2.9,0.2,4.6,0.8h2.3v23.9h-3.2v-21.4
		c-1.7-0.7-2.8-0.7-3.4-0.7c-3.2,0-3.9,1.3-3.9,3.5v1h4.6v2.3h-4.6V315.4z"/>
	<path class="st1" d="M355.5,307.1c0.1,3.5,1.7,6,5.8,6c1.7,0,3.5-0.1,5.5-0.7l0.4,2.6c-2.2,0.6-4.1,0.8-6.4,0.8
		c-6.5,0-8.8-3.7-8.8-9.2s2.3-9.2,8.7-9.2c5.4,0,6.9,3.1,7.1,6.1c0.1,1.1,0,2.4-0.2,3.6H355.5z M355.5,305h9
		c0.1-0.6,0.2-1.3,0.1-1.9c-0.1-1.8-1.2-3.4-4-3.4C357,299.8,355.8,302.1,355.5,305z"/>
	<path class="st1" d="M378.7,308.5L378.7,308.5l-4.7,6.8h-3.4l6.5-9.2l-5.9-8.5h3.7l4.3,6.1h0.1l4.2-6.1h3.3l-5.9,8.4l6.6,9.3h-3.8
		L378.7,308.5z"/>
	<path class="st1" d="M393.7,291.3v4.4h-3.2v-4.4H393.7z M393.7,297.7v17.7h-3.2v-17.7H393.7z"/>
	<path class="st1" d="M401.2,299.5L401.2,299.5c1.3-1.2,3.4-2.1,5.5-2.1c4.9,0,6.5,4.1,6.5,9.2s-1.8,9.2-6.7,9.2c-2,0-4.1-0.8-5.4-2
		H401l-0.6,1.8H398v-24.8h3.2V299.5z M405.4,300c-1.9,0-3.5,0.9-4.2,1.5v10.1c0.7,0.6,2.3,1.5,4.2,1.5c3.4,0,4.4-3,4.4-6.5
		S408.8,300,405.4,300z"/>
	<path class="st1" d="M417.1,290.6h3.2v24.7h-3.2V290.6z"/>
	<path class="st1" d="M427.4,307.1c0.1,3.5,1.7,6,5.8,6c1.7,0,3.5-0.1,5.5-0.7l0.4,2.6c-2.2,0.6-4.1,0.8-6.4,0.8
		c-6.5,0-8.8-3.7-8.8-9.2s2.3-9.2,8.7-9.2c5.4,0,6.9,3.1,7.1,6.1c0.1,1.1,0,2.4-0.2,3.6H427.4z M427.4,305h9
		c0.1-0.6,0.2-1.3,0.1-1.9c-0.1-1.8-1.2-3.4-4-3.4C429,299.8,427.7,302.1,427.4,305z"/>
</g>
<g>
	<path class="st1" d="M5.1,352.5H1.9v-17.7h3.2v2.8h0.1c1.4-1.6,3.8-3.2,6.6-3.2v3c-2.6,0-5.3,1.1-6.7,2V352.5z"/>
	<path class="st1" d="M17.7,344.2c0.1,3.5,1.7,6,5.8,6c1.7,0,3.5-0.1,5.5-0.7l0.4,2.6c-2.2,0.6-4.1,0.8-6.4,0.8
		c-6.5,0-8.8-3.7-8.8-9.2s2.3-9.2,8.7-9.2c5.4,0,6.9,3.1,7.1,6.1c0.1,1.1,0,2.4-0.2,3.6H17.7z M17.7,342.2h9
		c0.1-0.6,0.2-1.3,0.1-1.9c-0.1-1.8-1.2-3.4-4-3.4C19.2,336.9,18,339.2,17.7,342.2z"/>
	<path class="st1" d="M35.4,351.3c-1-0.5-1.4-1.4-1.3-2.4c0-1.2,0.8-2.5,2.3-3.4v-0.1c-1.8-0.9-2.9-2.6-2.9-4.9c0-3.9,2.8-6,7.2-6
		c1,0,1.8,0.2,2.4,0.4h6.2v1.9h-3.4c1.4,1,1.7,2.5,1.7,3.7c0,4-3,5.8-7,5.8c-1,0-2-0.2-2.6-0.4c-0.3,0.3-0.5,0.7-0.7,1
		c-0.5,1.1-0.4,2.3,1,2.3l6.4,0.4c3.6,0.2,5.2,1.7,5.2,4.1c0,4.1-3.2,6.2-10.2,6.2c-4.8,0-7.2-1.4-7.2-4.6
		C32.4,353.7,33.3,352.5,35.4,351.3L35.4,351.3z M40.2,357.8c3.4,0,6.3-1.1,6.3-3.5c0-1.1-0.7-2-2.9-2.1l-6.5-0.4
		c-1.1,0.8-2,1.5-2,2.9C35,356.7,36.8,357.8,40.2,357.8z M44.7,340.5c0-2.4-1.6-3.9-4.1-3.9c-2.8,0-4.2,1.5-4.2,3.9
		c0,2.4,1.6,3.7,4.2,3.7C43.1,344.2,44.7,342.8,44.7,340.5z"/>
	<path class="st1" d="M56.2,328.5v4.4H53v-4.4H56.2z M56.2,334.8v17.7H53v-17.7H56.2z"/>
	<path class="st1" d="M67.1,352.8c-2.8,0-5.5-0.2-7.6-0.8l0.6-2.6c2.8,0.7,5.4,0.8,6.7,0.8c3.2,0,3.7-1.9,3.7-2.6c0-1.2-0.8-2-4-2.6
		c-3.7-0.7-6.6-1.9-6.6-5.6c0-3.4,2.4-4.9,6.5-4.9c2.7,0,4.9,0.3,7.1,0.8l-0.6,2.5c-2.8-0.7-5-0.8-6.3-0.8c-3.2,0-3.5,1.7-3.5,2.3
		c0,1.1,0.6,2,3.8,2.7c3.7,0.8,6.8,1.8,6.8,5.4C73.6,351,71.2,352.8,67.1,352.8z"/>
	<path class="st1" d="M78.9,337.1h-2.6V335l2.6-0.2l0.4-4.9h2.8v4.9h4.9v2.3h-4.9v9.7c0,2.3,0.7,3.5,3,3.5c0.5,0,1.1-0.1,1.8-0.2
		l0.3,2.5c-1,0.1-2.3,0.2-3.2,0.2c-3.6,0-5.1-1.5-5.1-5.5V337.1z"/>
	<path class="st1" d="M93.8,352.5h-3.2v-17.7h3.2v2.8h0.1c1.4-1.6,3.8-3.2,6.6-3.2v3c-2.6,0-5.3,1.1-6.7,2V352.5z"/>
	<path class="st1" d="M104.6,337.8l-0.5-2.6c2.4-0.5,4.9-0.7,6.8-0.7c4.2,0,6.5,1.2,6.5,5.8v12.2h-3.2v-1.8c0,0,0,0-0.1,0
		c-1.7,1.5-3.3,2.1-5.6,2.1c-3.5,0-5.6-2.1-5.6-5.2c0-4,3.2-5.4,7.4-5.4h3.9v-1.8c0-2.3-1.2-3.4-4.1-3.4
		C108.9,337.1,107.2,337.2,104.6,337.8z M114.3,344.2h-3.7c-3.3,0-4.4,1.2-4.4,3.2c0,1.9,1.4,3,3.7,3c2,0,3.6-0.8,4.4-1.5V344.2z"/>
	<path class="st1" d="M122.9,337.1h-2.6V335l2.6-0.2l0.4-4.9h2.8v4.9h4.9v2.3h-4.9v9.7c0,2.3,0.7,3.5,3,3.5c0.5,0,1.1-0.1,1.8-0.2
		l0.3,2.5c-1,0.1-2.3,0.2-3.2,0.2c-3.6,0-5.1-1.5-5.1-5.5V337.1z"/>
	<path class="st1" d="M137.9,328.5v4.4h-3.2v-4.4H137.9z M137.9,334.8v17.7h-3.2v-17.7H137.9z"/>
	<path class="st1" d="M141.6,343.6c0-5.5,2.2-9.2,8.1-9.2c5.9,0,8.1,3.7,8.1,9.2s-2.2,9.2-8.1,9.2
		C143.8,352.8,141.6,349.1,141.6,343.6z M145,343.6c0,3.7,1.1,6.5,4.8,6.5c3.7,0,4.8-2.8,4.8-6.5s-1.1-6.5-4.8-6.5
		C146.1,337.1,145,339.9,145,343.6z"/>
	<path class="st1" d="M164.9,352.5h-3.2v-17.7h3.2v2.5h0.1c1.7-1.7,3.8-2.8,6.3-2.8c3.5,0,5.3,2.1,5.3,5.8v12.2h-3.2V341
		c0-2.3-0.9-3.9-3.5-3.9c-2,0-3.9,1.2-4.9,2V352.5z"/>
	<path class="st1" d="M190.6,336.6L190.6,336.6c1.3-1.2,3.4-2.1,5.5-2.1c4.9,0,6.5,4.1,6.5,9.2s-1.8,9.2-6.7,9.2c-2,0-4-0.8-5.2-2
		h-0.1v8.7h-3.2v-24.7h3.2V336.6z M194.9,337.1c-1.9,0-3.5,0.9-4.2,1.5v10.1c0.7,0.6,2.3,1.5,4.2,1.5c3.4,0,4.4-3,4.4-6.5
		S198.3,337.1,194.9,337.1z"/>
	<path class="st1" d="M209.6,352.5h-3.2v-17.7h3.2v2.8h0.1c1.4-1.6,3.8-3.2,6.6-3.2v3c-2.6,0-5.3,1.1-6.7,2V352.5z"/>
	<path class="st1" d="M218.9,343.6c0-5.5,2.2-9.2,8.1-9.2c5.9,0,8.1,3.7,8.1,9.2s-2.2,9.2-8.1,9.2
		C221,352.8,218.9,349.1,218.9,343.6z M222.2,343.6c0,3.7,1.1,6.5,4.8,6.5c3.7,0,4.8-2.8,4.8-6.5s-1.1-6.5-4.8-6.5
		C223.3,337.1,222.2,339.9,222.2,343.6z"/>
	<path class="st1" d="M247,334.5c2.2,0,3.9,0.3,6,0.8l-0.6,2.5c-2.8-0.7-4.2-0.7-5.4-0.7c-3.7,0-5.3,2.6-5.3,6.5s1.6,6.5,5.3,6.5
		c1.2,0,2.6,0,5.4-0.7l0.6,2.6c-2.1,0.5-3.8,0.8-6,0.8c-6.5,0-8.7-3.7-8.7-9.2S240.5,334.5,247,334.5z"/>
	<path class="st1" d="M258.5,344.2c0.1,3.5,1.7,6,5.8,6c1.7,0,3.5-0.1,5.5-0.7l0.4,2.6c-2.2,0.6-4.1,0.8-6.4,0.8
		c-6.5,0-8.8-3.7-8.8-9.2s2.3-9.2,8.7-9.2c5.4,0,6.9,3.1,7.1,6.1c0.1,1.1,0,2.4-0.2,3.6H258.5z M258.5,342.2h9
		c0.1-0.6,0.2-1.3,0.1-1.9c-0.1-1.8-1.2-3.4-4-3.4C260,336.9,258.7,339.2,258.5,342.2z"/>
	<path class="st1" d="M281.2,352.8c-2.8,0-5.5-0.2-7.6-0.8l0.6-2.6c2.8,0.7,5.4,0.8,6.7,0.8c3.2,0,3.7-1.9,3.7-2.6
		c0-1.2-0.8-2-4-2.6c-3.7-0.7-6.6-1.9-6.6-5.6c0-3.4,2.4-4.9,6.5-4.9c2.7,0,4.9,0.3,7.1,0.8l-0.6,2.5c-2.8-0.7-5-0.8-6.3-0.8
		c-3.2,0-3.5,1.7-3.5,2.3c0,1.1,0.6,2,3.8,2.7c3.7,0.8,6.8,1.8,6.8,5.4C287.8,351,285.4,352.8,281.2,352.8z"/>
	<path class="st1" d="M298.1,352.8c-2.8,0-5.5-0.2-7.6-0.8l0.6-2.6c2.8,0.7,5.4,0.8,6.7,0.8c3.2,0,3.7-1.9,3.7-2.6
		c0-1.2-0.8-2-4-2.6c-3.7-0.7-6.6-1.9-6.6-5.6c0-3.4,2.4-4.9,6.5-4.9c2.7,0,4.9,0.3,7.1,0.8l-0.6,2.5c-2.8-0.7-5-0.8-6.3-0.8
		c-3.2,0-3.5,1.7-3.5,2.3c0,1.1,0.6,2,3.8,2.7c3.7,0.8,6.8,1.8,6.8,5.4C304.7,351,302.3,352.8,298.1,352.8z"/>
	<path class="st1" d="M311.2,344.2c0.1,3.5,1.7,6,5.8,6c1.7,0,3.5-0.1,5.5-0.7l0.4,2.6c-2.2,0.6-4.1,0.8-6.4,0.8
		c-6.5,0-8.8-3.7-8.8-9.2s2.3-9.2,8.7-9.2c5.4,0,6.9,3.1,7.1,6.1c0.1,1.1,0,2.4-0.2,3.6H311.2z M311.2,342.2h9
		c0.1-0.6,0.2-1.3,0.1-1.9c-0.1-1.8-1.2-3.4-4-3.4C312.7,336.9,311.4,339.2,311.2,342.2z"/>
	<path class="st1" d="M333.9,352.8c-2.8,0-5.5-0.2-7.6-0.8l0.6-2.6c2.8,0.7,5.4,0.8,6.7,0.8c3.2,0,3.7-1.9,3.7-2.6
		c0-1.2-0.8-2-4-2.6c-3.7-0.7-6.6-1.9-6.6-5.6c0-3.4,2.4-4.9,6.5-4.9c2.7,0,4.9,0.3,7.1,0.8l-0.6,2.5c-2.8-0.7-5-0.8-6.3-0.8
		c-3.2,0-3.5,1.7-3.5,2.3c0,1.1,0.6,2,3.8,2.7c3.7,0.8,6.8,1.8,6.8,5.4C340.5,351,338.1,352.8,333.9,352.8z"/>
</g>
</svg>
