<!-- Generator: Adobe Illustrator 19.2.1, SVG Export Plug-In  -->
<svg version="1.1"
	 xmlns="http://www.w3.org/2000/svg" xmlns:xlink="http://www.w3.org/1999/xlink" xmlns:a="http://ns.adobe.com/AdobeSVGViewerExtensions/3.0/"
	 x="0px" y="0px" width="241.5px" height="168.2px" viewBox="0 0 241.5 168.2" style="enable-background:new 0 0 241.5 168.2;"
	 xml:space="preserve">
<style type="text/css">
	.st0{clip-path:url(#SVGID_2_);fill:#FFFFFF;}
	.st1{clip-path:url(#SVGID_4_);fill:#FFFFFF;}
</style>
<defs>
</defs>
<g>
	<defs>
		<rect id="SVGID_1_" y="0" width="241.5" height="168.2"/>
	</defs>
	<clipPath id="SVGID_2_">
		<use xlink:href="#SVGID_1_"  style="overflow:visible;"/>
	</clipPath>
	<path class="st0" d="M62,54.2c0-13.3-5-28.7-20.9-28.7c-16.1,0-20.5,15.6-20.5,28.7c0,12.5,5,27.8,20.1,27.8
		C56.8,82,62,67.7,62,54.2 M47.4,103c21.3,1.7,43.9,2.5,43.9,30.3c0,26.4-24.6,34.9-47.4,34.9c-17.3,0-43.9-6-43.9-27.6
		c0-8.5,6.5-17.2,15.4-17.2c3.6,0,6.3,1.5,8.8,3.7c-6.9,1.2-10.9,8.3-10.9,14.7c0,18.1,18.6,21.6,33.2,21.6
		c14.6,0,30.5-6.2,30.5-23.1c0-20.4-23-19.3-37.4-20.1c-13.8-0.4-32.8,0-32.8-18.7c0-10,9.4-16.6,18.4-17.9v-0.4
		c-12.1-4-22.3-15.4-22.3-28.7c0-22,18.8-33.8,39.3-33.8c9.6,0,19.4,2.9,26.5,9.3c1.6,1.6,2.5,2.7,3.5,3.7c5,5.6,7.5,12.9,7.5,20.4
		c0,24.5-18.6,31.6-40.1,32.6C33.4,87,17.3,87,17.3,95.5c0,7.3,11.5,6.4,16.1,6.9L47.4,103z"/>
	<path class="st0" d="M78.3,29.9v-5.6c6.8,0,20-6.3,22.8-24.3h5.6v24.3h23.8v5.6h-23.8v59.2c0,9.3,1.9,19.1,13,19.1
		c7.3,0,11.1-4.2,15-9.3l3.8,2.7c-3.8,10-14.2,13.3-24.2,13.3c-15,0-25.3-5.8-25.3-21.4V29.9H78.3z"/>
	<path class="st0" d="M205.7,98.9c-8.8,10.8-23.2,16-36.7,16c-25.9,0-44.9-18.3-44.9-44c0-29.1,22.1-50,51.2-50
		c8.2,0,27.2,2.5,27.2,13.9c0,3.7-3.1,7.7-6.9,7.7c-5,0-7.7-4.2-9.2-8.1c-2.5-6.2-4.2-7.9-11.9-7.9c-22.6,0-29.5,22.8-29.5,41.1
		c0,19.9,6.5,40.7,30.1,40.7c10.4,0,19.6-5.4,26.3-13.1L205.7,98.9z"/>
	<path class="st0" d="M118.2,139.3h-0.4c-0.3-2.2-2.2-4.5-4.6-4.5c-1.4,0-2.7,0.7-2.7,2.2c0,3.3,8.8,3.5,8.8,8.9c0,3.1-2.7,5-5.6,5
		c-1.3,0-2.1-0.2-3.2-0.7c-0.2-0.1-0.6-0.2-0.9-0.2c-0.6,0-1.1,0.5-1.2,1h-0.4v-6.1h0.4c0.4,2.6,2.4,5.3,5.3,5.3c1.4,0,3-0.8,3-2.4
		c0-3.7-8.7-3.6-8.7-9.1c0-2.7,2.4-4.7,5-4.7c1.2,0,1.9,0.2,3,0.7c0.3,0.2,0.7,0.4,1.1,0.4c0.7,0,0.7-0.6,0.8-1.1h0.4V139.3z"/>
	<path class="st0" d="M136.6,139.5h-0.4c-0.5-2.5-2.6-4.6-5.3-4.6c-3.3,0-5.4,2.9-5.4,7.2c0,5.4,2.1,7.5,5.4,7.5c2.4,0,4-1.2,5.5-3
		v1.4c-1.8,1.9-3.8,2.7-6.4,2.7c-5.4,0-8.9-3.5-8.9-8.2c0-4.8,4.1-8.8,8.9-8.8c1.3,0,2.4,0.3,3.6,0.7c0.4,0.1,1,0.4,1.4,0.4
		c0.6,0,1-0.6,1-1.2h0.4V139.5z"/>
	<path class="st0" d="M151.9,142.4c0-2.9-0.5-7.5-4.3-7.5c-3.8,0-4.3,4.7-4.3,7.5c0,2.9,0.5,7.5,4.3,7.5
		C151.3,149.9,151.9,145.2,151.9,142.4 M138.9,142.4c0-5,3.7-8.5,8.7-8.5c5,0,8.7,3.5,8.7,8.5c0,5-3.7,8.5-8.7,8.5
		C142.5,150.9,138.9,147.4,138.9,142.4"/>
	<path class="st0" d="M166.3,135.2v12.2c0,2,0,2.6,2.3,2.6v0.4h-8.5V150c2.3,0,2.3-0.6,2.3-2.6v-12.2h-1.3c-1.9,0-2.9,0.6-3.6,3.5
		H157v-4.4h14.6v4.4h-0.5c-0.7-2.9-1.7-3.5-3.6-3.5H166.3z"/>
	<path class="st0" d="M187.5,150.5h-14.5V150c2.3,0,2.3-0.6,2.3-2.6v-10.1c0-2,0-2.6-2.3-2.6v-0.4h8.7v0.4c-2.5,0-2.5,0.6-2.5,2.6
		v9.7c0,2.5,0.2,2.5,2.8,2.5c3.2,0,4.2-0.5,5.6-4.7h0.5L187.5,150.5z"/>
	<path class="st0" d="M196.4,139.4l-2.5,5.6h4.9L196.4,139.4z M193.5,145.9l-0.6,1.3c-0.3,0.6-0.5,1.1-0.5,1.5
		c0,1.2,0.9,1.3,2.2,1.3v0.4h-5.4V150c1.7-0.1,2.4-2.1,3-3.4l5.7-12.7h0.3l6,13.5c0.5,1.1,1.1,2.6,2.4,2.6v0.4h-7.9V150
		c0.7,0,1.9,0,1.9-0.8c0-0.4-0.1-0.6-0.2-0.9l-1.1-2.4H193.5z"/>
	<path class="st0" d="M220.9,144.2L220.9,144.2l0.1-7.5c0-1.3-0.7-2-2.3-2v-0.4h5.5v0.4c-1.7,0-2.3,0.7-2.3,2v14.1h-0.4l-11-13.4h0
		V148c0,1.3,0.7,2,2.3,2v0.4h-5.5V150c1.7,0,2.3-0.7,2.3-2v-11.8c-0.8-1-1.2-1.5-2.4-1.5v-0.4h5.8L220.9,144.2z"/>
	<path class="st0" d="M231.3,148.4c0,0.9,0.5,1.1,1.3,1.1c3.9,0,4.6-4,4.6-7.1c0-5.7-2.4-7.3-4.8-7.3h-1V148.4z M227.4,137.3
		c0-2,0-2.6-2.3-2.6v-0.4h7.7c7.3,0,8.7,5.1,8.7,8.1c0,3.9-2.1,8.1-9,8.1H225V150c2.3,0,2.3-0.6,2.3-2.6V137.3z"/>
</g>
</svg>
