<!-- Generator: Adobe Illustrator 19.2.1, SVG Export Plug-In  -->
<svg version="1.1"
	 xmlns="http://www.w3.org/2000/svg" xmlns:xlink="http://www.w3.org/1999/xlink" xmlns:a="http://ns.adobe.com/AdobeSVGViewerExtensions/3.0/"
	 x="0px" y="0px" width="432.2px" height="547.1px" viewBox="0 0 432.2 547.1" style="enable-background:new 0 0 432.2 547.1;"
	 xml:space="preserve">
<style type="text/css">
	.st0{fill:none;stroke:#FFFFFF;stroke-miterlimit:10;}
	.st1{fill:#FFFFFF;}
</style>
<defs>
</defs>
<line class="st0" x1="0" y1="218.7" x2="432.2" y2="218.7"/>
<line class="st0" x1="0" y1="401.2" x2="432.2" y2="401.2"/>
<line class="st0" x1="0" y1="546.6" x2="432.2" y2="546.6"/>
<g>
	<path class="st1" d="M12.7,16H29V1.1h9.2v38.7H29V24.5H12.7v15.2H3.5V1.1h9.2V16z"/>
	<path class="st1" d="M72,26.2c0,8.2-6.2,14.3-14.7,14.3c-8.5,0-14.7-6.1-14.7-14.3s6.2-14.3,14.7-14.3C65.7,11.9,72,18,72,26.2z
		 M51.4,26.2c0,3.6,2.5,6.2,5.9,6.2c3.4,0,5.9-2.6,5.9-6.2S60.7,20,57.3,20C53.9,20,51.4,22.6,51.4,26.2z"/>
	<path class="st1" d="M105.9,30l5.3-17.3h9.1l-9.3,27.1h-9.6L96,23.6l-5.2,16.2h-9.6l-9.4-27.1H81l5.2,17.2l5.5-17.2h8.6L105.9,30z"
		/>
	<path class="st1" d="M166.7,30l5.3-17.3h9.1l-9.3,27.1h-9.6l-5.3-16.2l-5.2,16.2H142l-9.4-27.1h9.2l5.2,17.2l5.5-17.2h8.6L166.7,30
		z"/>
	<path class="st1" d="M208.4,26.2c0,0.9-0.1,2.1-0.2,2.7h-18.4c0.7,3,2.8,4.3,5.8,4.3c2,0,4.2-0.8,5.9-2.4l5.6,5.2
		c-2.8,2.8-6.9,4.4-11.9,4.4c-8.5,0-14.3-5.7-14.3-14.1c0-8.5,5.7-14.4,13.9-14.4C202.9,11.9,208.4,17.7,208.4,26.2z M189.9,23.4
		h9.9c-0.7-2.7-2.4-4.1-4.9-4.1C192.2,19.3,190.6,20.7,189.9,23.4z"/>
	<path class="st1" d="M222.3,0l-4.4,18h-7.2l2.2-18H222.3z"/>
	<path class="st1" d="M243.2,12.3l-0.8,8.6c-1.2-0.4-2.8-0.7-4.3-0.7c-3.1,0-4.9,1.5-4.9,4.9v14.6h-8.6V12.7h8.3v3.1
		c1.6-2.6,4.1-3.9,7.4-3.9C241.5,11.9,242.6,12.2,243.2,12.3z"/>
	<path class="st1" d="M271.6,26.2c0,0.9-0.1,2.1-0.2,2.7h-18.4c0.7,3,2.8,4.3,5.8,4.3c2,0,4.2-0.8,5.9-2.4l5.6,5.2
		c-2.8,2.8-6.9,4.4-11.9,4.4c-8.5,0-14.3-5.7-14.3-14.1c0-8.5,5.7-14.4,13.9-14.4C266.1,11.9,271.6,17.7,271.6,26.2z M253.1,23.4
		h9.9c-0.7-2.7-2.4-4.1-4.9-4.1C255.4,19.3,253.8,20.7,253.1,23.4z"/>
</g>
<g>
	<path class="st1" d="M21.7,70.7v-2.8h8.4v24.5c0,8.9-5.8,14.2-14.7,14.2c-4.5,0-9.1-1.2-12.4-3.5l3.1-6.9c2.7,1.9,5.5,2.8,8.7,2.8
		c3.5,0,6.8-1.9,6.8-6.2v-1.7c-1.6,2-4,3.4-7.5,3.4c-7.3,0-12.6-6-12.6-13.7s5.3-13.7,12.6-13.7C17.7,67.2,20.1,68.6,21.7,70.7z
		 M10.5,80.9c0,3.3,2.3,5.8,5.7,5.8c3.3,0,5.5-2.5,5.5-5.8s-2.3-5.8-5.5-5.8C12.8,75.1,10.5,77.6,10.5,80.9z"/>
	<path class="st1" d="M63.1,81.5c0,8.2-6.2,14.3-14.7,14.3c-8.5,0-14.7-6.1-14.7-14.3s6.2-14.3,14.7-14.3
		C56.8,67.2,63.1,73.2,63.1,81.5z M42.5,81.5c0,3.6,2.5,6.2,5.9,6.2c3.4,0,5.9-2.6,5.9-6.2s-2.5-6.2-5.9-6.2
		C45,75.2,42.5,77.8,42.5,81.5z"/>
	<path class="st1" d="M76,59.6c0,2.9-2.3,5.1-5.2,5.1c-2.9,0-5.2-2.2-5.2-5.1c0-2.9,2.2-5.2,5.2-5.2C73.7,54.4,76,56.6,76,59.6z
		 M75.2,95h-8.6V67.9h8.6V95z"/>
	<path class="st1" d="M106.2,77.2V95h-8.6V80.3c0-3.2-1.6-5-4.3-5c-2.4,0-4.4,1.6-4.4,5.1V95h-8.6V67.9h8.3v3.4
		c1.7-2.8,4.4-4.1,8.1-4.1C102,67.2,106.2,71,106.2,77.2z"/>
	<path class="st1" d="M129.8,70.7v-2.8h8.4v24.5c0,8.9-5.8,14.2-14.7,14.2c-4.5,0-9.1-1.2-12.4-3.5l3.1-6.9c2.7,1.9,5.5,2.8,8.7,2.8
		c3.5,0,6.8-1.9,6.8-6.2v-1.7c-1.6,2-4,3.4-7.5,3.4c-7.3,0-12.6-6-12.6-13.7s5.3-13.7,12.6-13.7C125.8,67.2,128.2,68.6,129.8,70.7z
		 M118.5,80.9c0,3.3,2.3,5.8,5.7,5.8c3.3,0,5.5-2.5,5.5-5.8s-2.3-5.8-5.5-5.8C120.9,75.1,118.5,77.6,118.5,80.9z"/>
	<path class="st1" d="M176.3,75.6H167v7.9c0,3.1,1.7,4.2,3.8,4.2c1.6,0,3.3-0.9,4.7-1.7l3,6.7c-2.5,1.8-5.2,3-9.6,3
		c-7.3,0-10.5-4.3-10.5-11.1v-9h-5.1v-7.7h5.1V60h8.6v7.9h9.3V75.6z"/>
	<path class="st1" d="M208.5,81.5c0,8.2-6.2,14.3-14.7,14.3c-8.5,0-14.7-6.1-14.7-14.3s6.2-14.3,14.7-14.3
		C202.3,67.2,208.5,73.2,208.5,81.5z M187.9,81.5c0,3.6,2.5,6.2,5.9,6.2c3.4,0,5.9-2.6,5.9-6.2s-2.5-6.2-5.9-6.2
		C190.4,75.2,187.9,77.8,187.9,81.5z"/>
	<path class="st1" d="M243.1,70.5V55.2h8.6V95h-8.3v-2.9c-1.6,2.1-4.1,3.6-7.8,3.6c-7.2,0-12.6-6.3-12.6-14.3
		c0-8,5.4-14.3,12.6-14.3C239.1,67.2,241.5,68.6,243.1,70.5z M231.9,81.5c0,3.5,2.3,6.2,5.8,6.2c3.4,0,5.8-2.6,5.8-6.2
		s-2.4-6.2-5.8-6.2C234.2,75.2,231.9,77.9,231.9,81.5z"/>
	<path class="st1" d="M284.7,81.5c0,8.2-6.2,14.3-14.7,14.3c-8.5,0-14.7-6.1-14.7-14.3s6.2-14.3,14.7-14.3
		C278.5,67.2,284.7,73.2,284.7,81.5z M264.1,81.5c0,3.6,2.5,6.2,5.9,6.2c3.4,0,5.9-2.6,5.9-6.2s-2.5-6.2-5.9-6.2
		C266.6,75.2,264.1,77.8,264.1,81.5z"/>
	<path class="st1" d="M310.1,59.6c0,2.9-2.3,5.1-5.2,5.1c-2.9,0-5.2-2.2-5.2-5.1c0-2.9,2.2-5.2,5.2-5.2
		C307.8,54.4,310.1,56.6,310.1,59.6z M309.3,95h-8.6V67.9h8.6V95z"/>
	<path class="st1" d="M334.7,75.6h-9.3v7.9c0,3.1,1.7,4.2,3.8,4.2c1.6,0,3.3-0.9,4.7-1.7l3,6.7c-2.5,1.8-5.2,3-9.6,3
		c-7.3,0-10.5-4.3-10.5-11.1v-9h-5.1v-7.7h5.1V60h8.6v7.9h9.3V75.6z"/>
</g>
<g>
	<path class="st1" d="M16.5,161.1l-5.7-9.4H5.6v9.4H2.3v-24h9.9c4.8,0,7.4,3.1,7.4,7.3c0,3.4-1.8,6.1-5.3,6.8l6.1,9.9H16.5z
		 M5.6,148.8h6c2.6,0,4.5-1.4,4.5-4.3c0-2.8-1.7-4.3-4.3-4.3H5.6V148.8z"/>
	<path class="st1" d="M26.3,152.8c0.1,3.5,1.7,6,5.8,6c1.7,0,3.5-0.1,5.5-0.7l0.4,2.6c-2.2,0.6-4.1,0.8-6.4,0.8
		c-6.5,0-8.8-3.7-8.8-9.2c0-5.5,2.3-9.2,8.7-9.2c5.4,0,6.9,3.1,7.1,6.1c0.1,1.1,0,2.4-0.2,3.6H26.3z M26.3,150.8h9
		c0.1-0.6,0.2-1.3,0.1-1.9c-0.1-1.8-1.2-3.4-4-3.4C27.8,145.6,26.6,147.8,26.3,150.8z"/>
	<path class="st1" d="M47.5,161.3L41,143.5h3.6l4.9,14.3h0.1l5-14.3h3.4l-6.6,17.8H47.5z"/>
	<path class="st1" d="M64.4,137.1v4.4h-3.2v-4.4H64.4z M64.4,143.5v17.7h-3.2v-17.7H64.4z"/>
	<path class="st1" d="M75.4,161.5c-2.8,0-5.5-0.2-7.6-0.8l0.6-2.6c2.8,0.7,5.4,0.8,6.7,0.8c3.2,0,3.7-1.9,3.7-2.6c0-1.2-0.8-2-4-2.6
		c-3.7-0.7-6.6-1.9-6.6-5.6c0-3.4,2.4-4.9,6.5-4.9c2.7,0,4.9,0.3,7.1,0.8l-0.6,2.5c-2.8-0.7-5-0.8-6.3-0.8c-3.2,0-3.5,1.7-3.5,2.3
		c0,1.1,0.6,2,3.8,2.7c3.7,0.8,6.8,1.8,6.8,5.4C81.9,159.6,79.5,161.5,75.4,161.5z"/>
	<path class="st1" d="M88.4,152.8c0.1,3.5,1.7,6,5.8,6c1.7,0,3.5-0.1,5.5-0.7l0.4,2.6c-2.2,0.6-4.1,0.8-6.4,0.8
		c-6.5,0-8.8-3.7-8.8-9.2c0-5.5,2.3-9.2,8.7-9.2c5.4,0,6.9,3.1,7.1,6.1c0.1,1.1,0,2.4-0.2,3.6H88.4z M88.4,150.8h9
		c0.1-0.6,0.2-1.3,0.1-1.9c-0.1-1.8-1.2-3.4-4-3.4C89.9,145.6,88.7,147.8,88.4,150.8z"/>
	<path class="st1" d="M112.5,145.8h-2.6v-2.1l2.6-0.2l0.4-4.9h2.8v4.9h4.9v2.3h-4.9v9.7c0,2.3,0.7,3.5,3,3.5c0.5,0,1.1-0.1,1.8-0.2
		l0.3,2.5c-1,0.1-2.3,0.2-3.2,0.2c-3.6,0-5.1-1.5-5.1-5.5V145.8z"/>
	<path class="st1" d="M127.4,161.1h-3.2v-24.7h3.2v9.5h0.1c1.7-1.7,3.8-2.8,6.3-2.8c3.5,0,5.3,2.1,5.3,5.8v12.2h-3.2v-11.5
		c0-2.3-0.9-3.9-3.5-3.9c-2,0-3.9,1.2-4.9,2V161.1z"/>
	<path class="st1" d="M146.2,152.8c0.1,3.5,1.7,6,5.8,6c1.7,0,3.5-0.1,5.5-0.7l0.4,2.6c-2.2,0.6-4.1,0.8-6.4,0.8
		c-6.5,0-8.8-3.7-8.8-9.2c0-5.5,2.3-9.2,8.7-9.2c5.4,0,6.9,3.1,7.1,6.1c0.1,1.1,0,2.4-0.2,3.6H146.2z M146.2,150.8h9
		c0.1-0.6,0.2-1.3,0.1-1.9c-0.1-1.8-1.2-3.4-4-3.4C147.7,145.6,146.4,147.8,146.2,150.8z"/>
	<path class="st1" d="M172.6,151.6v9.5h-3.4v-24h9.9c4.8,0,7.4,3,7.4,7.2c0,4.4-2.6,7.2-7.4,7.2H172.6z M172.6,148.6h6.2
		c2.6,0,4.3-1.3,4.3-4.2c0-2.7-1.7-4.2-4.3-4.2h-6.2V148.6z"/>
	<path class="st1" d="M193.3,161.1h-3.2v-17.7h3.2v2.8h0.1c1.4-1.6,3.8-3.2,6.6-3.2v3c-2.6,0-5.3,1.1-6.7,2V161.1z"/>
	<path class="st1" d="M202.5,152.3c0-5.5,2.2-9.2,8.1-9.2c5.9,0,8.1,3.7,8.1,9.2c0,5.5-2.2,9.2-8.1,9.2
		C204.7,161.5,202.5,157.8,202.5,152.3z M205.9,152.3c0,3.7,1.1,6.5,4.8,6.5c3.7,0,4.8-2.8,4.8-6.5s-1.1-6.5-4.8-6.5
		C207,145.8,205.9,148.6,205.9,152.3z"/>
	<path class="st1" d="M226.8,143.5h4.2v2.3h-4.2v15.4h-3.2v-15.4h-2.6v-2.1l2.6-0.2v-2.2c0-3.4,1.2-4.9,5.1-4.9
		c0.8,0,1.9,0.1,2.8,0.3l-0.3,2.5c-0.7-0.1-1.3-0.2-1.8-0.2c-2,0-2.6,0.6-2.6,2.5V143.5z"/>
	<path class="st1" d="M236.9,152.8c0.1,3.5,1.7,6,5.8,6c1.7,0,3.5-0.1,5.5-0.7l0.4,2.6c-2.2,0.6-4.1,0.8-6.4,0.8
		c-6.5,0-8.8-3.7-8.8-9.2c0-5.5,2.3-9.2,8.7-9.2c5.4,0,6.9,3.1,7.1,6.1c0.1,1.1,0,2.4-0.2,3.6H236.9z M236.9,150.8h9
		c0.1-0.6,0.2-1.3,0.1-1.9c-0.1-1.8-1.2-3.4-4-3.4C238.4,145.6,237.1,147.8,236.9,150.8z"/>
	<path class="st1" d="M259.7,161.5c-2.8,0-5.5-0.2-7.6-0.8l0.6-2.6c2.8,0.7,5.4,0.8,6.7,0.8c3.2,0,3.7-1.9,3.7-2.6
		c0-1.2-0.8-2-4-2.6c-3.7-0.7-6.6-1.9-6.6-5.6c0-3.4,2.4-4.9,6.5-4.9c2.7,0,4.9,0.3,7.1,0.8l-0.6,2.5c-2.8-0.7-5-0.8-6.3-0.8
		c-3.2,0-3.5,1.7-3.5,2.3c0,1.1,0.6,2,3.8,2.7c3.7,0.8,6.8,1.8,6.8,5.4C266.2,159.6,263.8,161.5,259.7,161.5z"/>
	<path class="st1" d="M276.6,161.5c-2.8,0-5.5-0.2-7.6-0.8l0.6-2.6c2.8,0.7,5.4,0.8,6.7,0.8c3.2,0,3.7-1.9,3.7-2.6
		c0-1.2-0.8-2-4-2.6c-3.7-0.7-6.6-1.9-6.6-5.6c0-3.4,2.4-4.9,6.5-4.9c2.7,0,4.9,0.3,7.1,0.8l-0.6,2.5c-2.8-0.7-5-0.8-6.3-0.8
		c-3.2,0-3.5,1.7-3.5,2.3c0,1.1,0.6,2,3.8,2.7c3.7,0.8,6.8,1.8,6.8,5.4C283.1,159.6,280.7,161.5,276.6,161.5z"/>
	<path class="st1" d="M289.8,137.1v4.4h-3.2v-4.4H289.8z M289.8,143.5v17.7h-3.2v-17.7H289.8z"/>
	<path class="st1" d="M293.6,152.3c0-5.5,2.2-9.2,8.1-9.2c5.9,0,8.1,3.7,8.1,9.2c0,5.5-2.2,9.2-8.1,9.2
		C295.8,161.5,293.6,157.8,293.6,152.3z M296.9,152.3c0,3.7,1.1,6.5,4.8,6.5c3.7,0,4.8-2.8,4.8-6.5s-1.1-6.5-4.8-6.5
		C298,145.8,296.9,148.6,296.9,152.3z"/>
	<path class="st1" d="M316.8,161.1h-3.2v-17.7h3.2v2.5h0.1c1.7-1.7,3.8-2.8,6.3-2.8c3.5,0,5.3,2.1,5.3,5.8v12.2h-3.2v-11.5
		c0-2.3-0.9-3.9-3.5-3.9c-2,0-3.9,1.2-4.9,2V161.1z"/>
	<path class="st1" d="M333.4,146.4l-0.5-2.6c2.4-0.5,4.9-0.7,6.8-0.7c4.2,0,6.5,1.2,6.5,5.8v12.2h-3.2v-1.8c0,0,0,0-0.1,0
		c-1.7,1.5-3.3,2.1-5.6,2.1c-3.5,0-5.6-2.1-5.6-5.2c0-4,3.2-5.4,7.4-5.4h3.9v-1.8c0-2.3-1.2-3.4-4.1-3.4
		C337.7,145.8,336,145.9,333.4,146.4z M343.1,152.8h-3.7c-3.3,0-4.4,1.2-4.4,3.2c0,1.9,1.4,3,3.7,3c2,0,3.6-0.8,4.4-1.5V152.8z"/>
	<path class="st1" d="M350.6,136.4h3.2v24.7h-3.2V136.4z"/>
</g>
<g>
	<path class="st1" d="M1.9,197.3l0.6-2.8c3.7,0.9,6.1,1.1,8.1,1.1c3.5,0,5.1-1.8,5.1-3.8c0-2.9-3.4-3.6-6-4.3
		c-3.9-1-7.4-3.2-7.4-7.2c0-4.6,3.7-6.4,8.3-6.4c2.6,0,5.1,0.4,8.1,1.2l-0.8,2.8c-3.6-0.9-5.4-1.1-7.3-1.1c-3.5,0-4.8,1.6-4.8,3.5
		c0,2.7,3.5,3.7,6.2,4.3c3.9,0.9,7.2,2.8,7.2,6.9c0,4.8-3.7,7.1-8.7,7.1C7.9,198.6,4.9,198.2,1.9,197.3z"/>
	<path class="st1" d="M23.7,182.9h-2.6v-2.1l2.6-0.2l0.4-4.9h2.8v4.9h4.9v2.3h-4.9v9.7c0,2.3,0.7,3.5,3,3.5c0.5,0,1.1-0.1,1.8-0.2
		l0.3,2.5c-1,0.1-2.3,0.2-3.2,0.2c-3.6,0-5.1-1.5-5.1-5.5V182.9z"/>
	<path class="st1" d="M36.5,183.5L36,181c2.4-0.5,4.9-0.7,6.8-0.7c4.2,0,6.5,1.2,6.5,5.8v12.2h-3.2v-1.8c0,0,0,0-0.1,0
		c-1.7,1.5-3.3,2.1-5.6,2.1c-3.5,0-5.6-2.1-5.6-5.2c0-4,3.2-5.4,7.4-5.4h3.9v-1.8c0-2.3-1.2-3.4-4.1-3.4
		C40.8,182.9,39.1,183,36.5,183.5z M46.2,189.9h-3.7c-3.3,0-4.4,1.2-4.4,3.2c0,1.9,1.4,3,3.7,3c2,0,3.6-0.8,4.4-1.5V189.9z"/>
	<path class="st1" d="M56.8,198.2h-3.2v-17.7h3.2v2.5h0.1c1.7-1.7,3.8-2.8,6.3-2.8c3.5,0,5.3,2.1,5.3,5.8v12.2h-3.2v-11.5
		c0-2.3-0.9-3.9-3.5-3.9c-2,0-3.9,1.2-4.9,2V198.2z"/>
	<path class="st1" d="M84.3,196.5C84.3,196.5,84.3,196.5,84.3,196.5c-1.3,1.2-3.4,2.1-5.5,2.1c-4.9,0-6.5-4.1-6.5-9.2
		s1.8-9.2,6.7-9.2c2,0,4,0.8,5.2,2c0,0,0,0,0.1,0v-8.8h3.2v24.7h-3.2V196.5z M80.1,195.9c1.9,0,3.5-0.9,4.2-1.5v-10.1
		c-0.7-0.6-2.3-1.5-4.2-1.5c-3.5,0-4.4,3-4.4,6.5S76.6,195.9,80.1,195.9z"/>
	<path class="st1" d="M92.5,183.5L92,181c2.4-0.5,4.9-0.7,6.8-0.7c4.2,0,6.5,1.2,6.5,5.8v12.2h-3.2v-1.8c0,0,0,0-0.1,0
		c-1.7,1.5-3.3,2.1-5.6,2.1c-3.5,0-5.6-2.1-5.6-5.2c0-4,3.2-5.4,7.4-5.4h3.9v-1.8c0-2.3-1.2-3.4-4.1-3.4
		C96.8,182.9,95.1,183,92.5,183.5z M102.2,189.9h-3.7c-3.3,0-4.4,1.2-4.4,3.2c0,1.9,1.4,3,3.7,3c2,0,3.6-0.8,4.4-1.5V189.9z"/>
	<path class="st1" d="M112.9,198.2h-3.2v-17.7h3.2v2.8h0.1c1.4-1.6,3.8-3.2,6.6-3.2v3c-2.6,0-5.3,1.1-6.7,2V198.2z"/>
	<path class="st1" d="M134.2,196.5C134.1,196.5,134.1,196.5,134.2,196.5c-1.3,1.2-3.4,2.1-5.5,2.1c-4.9,0-6.5-4.1-6.5-9.2
		s1.8-9.2,6.7-9.2c2,0,4,0.8,5.2,2c0,0,0,0,0.1,0v-8.8h3.2v24.7h-3.2V196.5z M129.9,195.9c1.9,0,3.5-0.9,4.2-1.5v-10.1
		c-0.7-0.6-2.3-1.5-4.2-1.5c-3.5,0-4.4,3-4.4,6.5S126.5,195.9,129.9,195.9z"/>
	<path class="st1" d="M148.3,198.6c-2.8,0-5.5-0.2-7.6-0.8l0.6-2.6c2.8,0.7,5.4,0.8,6.7,0.8c3.2,0,3.7-1.9,3.7-2.6
		c0-1.2-0.8-2-4-2.6c-3.7-0.7-6.6-1.9-6.6-5.6c0-3.4,2.4-4.9,6.5-4.9c2.7,0,4.9,0.3,7.1,0.8l-0.6,2.5c-2.8-0.7-5-0.8-6.3-0.8
		c-3.2,0-3.5,1.7-3.5,2.3c0,1.1,0.6,2,3.8,2.7c3.7,0.8,6.8,1.8,6.8,5.4C154.9,196.7,152.5,198.6,148.3,198.6z"/>
</g>
<g>
	<path class="st1" d="M17.7,248.3h-12v7.1h10.4v3H5.6v7.9h12.2v3H2.3v-24h15.4V248.3z"/>
	<path class="st1" d="M24.8,269.3h-3.2v-17.7h3.2v2.5h0.1c1.7-1.7,3.8-2.8,6.3-2.8c3.5,0,5.3,2.1,5.3,5.8v12.2h-3.2v-11.5
		c0-2.3-0.9-3.9-3.5-3.9c-2,0-3.9,1.2-4.9,2V269.3z"/>
	<path class="st1" d="M42.4,268.2c-1-0.5-1.4-1.4-1.3-2.4c0-1.2,0.8-2.5,2.3-3.4v-0.1c-1.8-0.9-2.9-2.6-2.9-4.9c0-3.9,2.8-6,7.2-6
		c1,0,1.8,0.2,2.4,0.4h6.2v1.9h-3.4c1.4,1,1.7,2.5,1.7,3.7c0,4-3,5.8-7,5.8c-1,0-2-0.2-2.6-0.4c-0.3,0.3-0.5,0.7-0.7,1
		c-0.5,1.1-0.4,2.3,1,2.3l6.4,0.4c3.6,0.2,5.2,1.7,5.2,4.1c0,4.1-3.2,6.2-10.2,6.2c-4.8,0-7.2-1.4-7.2-4.6
		C39.3,270.6,40.2,269.3,42.4,268.2L42.4,268.2z M47.2,274.6c3.4,0,6.3-1.1,6.3-3.5c0-1.1-0.7-2-2.9-2.1l-6.5-0.4
		c-1.1,0.8-2,1.5-2,2.9C42,273.6,43.8,274.6,47.2,274.6z M51.7,257.3c0-2.4-1.6-3.9-4.1-3.9c-2.8,0-4.2,1.5-4.2,3.9
		c0,2.4,1.6,3.7,4.2,3.7C50.1,261,51.7,259.7,51.7,257.3z"/>
	<path class="st1" d="M60.5,254.7l-0.5-2.6c2.4-0.5,4.9-0.7,6.8-0.7c4.2,0,6.5,1.2,6.5,5.8v12.2h-3.2v-1.8c0,0,0,0-0.1,0
		c-1.7,1.5-3.3,2.1-5.6,2.1c-3.5,0-5.6-2.1-5.6-5.2c0-4,3.2-5.4,7.4-5.4h3.9v-1.8c0-2.3-1.2-3.4-4.1-3.4
		C64.8,254,63.2,254.1,60.5,254.7z M70.2,261h-3.7c-3.3,0-4.4,1.2-4.4,3.2c0,1.9,1.4,3,3.7,3c2,0,3.6-0.8,4.4-1.5V261z"/>
	<path class="st1" d="M79.3,268.2c-1-0.5-1.4-1.4-1.3-2.4c0-1.2,0.8-2.5,2.3-3.4v-0.1c-1.8-0.9-2.9-2.6-2.9-4.9c0-3.9,2.8-6,7.2-6
		c1,0,1.8,0.2,2.4,0.4h6.2v1.9h-3.4c1.4,1,1.7,2.5,1.7,3.7c0,4-3,5.8-7,5.8c-1,0-2-0.2-2.6-0.4c-0.3,0.3-0.5,0.7-0.7,1
		c-0.5,1.1-0.4,2.3,1,2.3l6.4,0.4c3.6,0.2,5.2,1.7,5.2,4.1c0,4.1-3.2,6.2-10.2,6.2c-4.8,0-7.2-1.4-7.2-4.6
		C76.3,270.6,77.2,269.3,79.3,268.2L79.3,268.2z M84.1,274.6c3.4,0,6.3-1.1,6.3-3.5c0-1.1-0.7-2-2.9-2.1l-6.5-0.4
		c-1.1,0.8-2,1.5-2,2.9C78.9,273.6,80.7,274.6,84.1,274.6z M88.7,257.3c0-2.4-1.6-3.9-4.1-3.9c-2.8,0-4.2,1.5-4.2,3.9
		c0,2.4,1.6,3.7,4.2,3.7C87.1,261,88.7,259.7,88.7,257.3z"/>
	<path class="st1" d="M99.1,261c0.1,3.5,1.7,6,5.8,6c1.7,0,3.5-0.1,5.5-0.7l0.4,2.6c-2.2,0.6-4.1,0.8-6.4,0.8
		c-6.5,0-8.8-3.7-8.8-9.2s2.3-9.2,8.7-9.2c5.4,0,6.9,3.1,7.1,6.1c0.1,1.1,0,2.4-0.2,3.6H99.1z M99.1,259h9c0.1-0.6,0.2-1.3,0.1-1.9
		c-0.1-1.8-1.2-3.4-4-3.4C100.6,253.8,99.4,256.1,99.1,259z"/>
	<path class="st1" d="M133.7,256.6l-3.6,12.9h-3.5l-5.4-17.8h3.5l3.9,14.3h0.1l3.5-14.3h3.1l3.7,14.3h0.1l3.7-14.3h3.4l-5.3,17.8
		h-3.5L133.7,256.6L133.7,256.6z"/>
	<path class="st1" d="M152.9,245.3v4.4h-3.2v-4.4H152.9z M152.9,251.7v17.7h-3.2v-17.7H152.9z"/>
	<path class="st1" d="M158.5,254h-2.6v-2.1l2.6-0.2l0.4-4.9h2.8v4.9h4.9v2.3h-4.9v9.7c0,2.3,0.7,3.5,3,3.5c0.5,0,1.1-0.1,1.8-0.2
		l0.3,2.5c-1,0.1-2.3,0.2-3.2,0.2c-3.6,0-5.1-1.5-5.1-5.5V254z"/>
	<path class="st1" d="M173.4,269.3h-3.2v-24.7h3.2v9.5h0.1c1.7-1.7,3.8-2.8,6.3-2.8c3.5,0,5.3,2.1,5.3,5.8v12.2h-3.2v-11.5
		c0-2.3-0.9-3.9-3.5-3.9c-2,0-3.9,1.2-4.9,2V269.3z"/>
	<path class="st1" d="M203,269.7c-2.8,0-5.5-0.2-7.6-0.8l0.6-2.6c2.8,0.7,5.4,0.8,6.7,0.8c3.2,0,3.7-1.9,3.7-2.6c0-1.2-0.8-2-4-2.6
		c-3.7-0.7-6.6-1.9-6.6-5.6c0-3.4,2.4-4.9,6.5-4.9c2.7,0,4.9,0.3,7.1,0.8l-0.6,2.5c-2.8-0.7-5-0.8-6.3-0.8c-3.2,0-3.5,1.7-3.5,2.3
		c0,1.1,0.6,2,3.8,2.7c3.7,0.8,6.8,1.8,6.8,5.4C209.6,267.9,207.2,269.7,203,269.7z"/>
	<path class="st1" d="M214.9,254h-2.6v-2.1l2.6-0.2l0.4-4.9h2.8v4.9h4.9v2.3H218v9.7c0,2.3,0.7,3.5,3,3.5c0.5,0,1.1-0.1,1.8-0.2
		l0.3,2.5c-1,0.1-2.3,0.2-3.2,0.2c-3.6,0-5.1-1.5-5.1-5.5V254z"/>
	<path class="st1" d="M227.7,254.7l-0.5-2.6c2.4-0.5,4.9-0.7,6.8-0.7c4.2,0,6.5,1.2,6.5,5.8v12.2h-3.2v-1.8c0,0,0,0-0.1,0
		c-1.7,1.5-3.3,2.1-5.6,2.1c-3.5,0-5.6-2.1-5.6-5.2c0-4,3.2-5.4,7.4-5.4h3.9v-1.8c0-2.3-1.2-3.4-4.1-3.4
		C231.9,254,230.3,254.1,227.7,254.7z M237.3,261h-3.7c-3.3,0-4.4,1.2-4.4,3.2c0,1.9,1.4,3,3.7,3c2,0,3.6-0.8,4.4-1.5V261z"/>
	<path class="st1" d="M248,258.9l8.5-7.2h3.9l-6.7,6.1l7.1,11.5h-3.8l-5.5-9.7l-3.4,2.9v6.9h-3.2v-24.7h3.2V258.9z"/>
	<path class="st1" d="M265.8,261c0.1,3.5,1.7,6,5.8,6c1.7,0,3.5-0.1,5.5-0.7l0.4,2.6c-2.2,0.6-4.1,0.8-6.4,0.8
		c-6.5,0-8.8-3.7-8.8-9.2s2.3-9.2,8.7-9.2c5.4,0,6.9,3.1,7.1,6.1c0.1,1.1,0,2.4-0.2,3.6H265.8z M265.8,259h9
		c0.1-0.6,0.2-1.3,0.1-1.9c-0.1-1.8-1.2-3.4-4-3.4C267.3,253.8,266,256.1,265.8,259z"/>
	<path class="st1" d="M284.9,269.3h-3.2v-24.7h3.2v9.5h0.1c1.7-1.7,3.8-2.8,6.3-2.8c3.5,0,5.3,2.1,5.3,5.8v12.2h-3.2v-11.5
		c0-2.3-0.9-3.9-3.5-3.9c-2,0-3.9,1.2-4.9,2V269.3z"/>
	<path class="st1" d="M300.3,260.5c0-5.5,2.2-9.2,8.1-9.2c5.9,0,8.1,3.7,8.1,9.2s-2.2,9.2-8.1,9.2
		C302.5,269.7,300.3,266,300.3,260.5z M303.7,260.5c0,3.7,1.1,6.5,4.8,6.5c3.7,0,4.8-2.8,4.8-6.5s-1.1-6.5-4.8-6.5
		C304.7,254,303.7,256.8,303.7,260.5z"/>
	<path class="st1" d="M320.4,244.6h3.2v24.7h-3.2V244.6z"/>
	<path class="st1" d="M339.4,267.6C339.4,267.6,339.4,267.6,339.4,267.6c-1.3,1.2-3.4,2.1-5.5,2.1c-4.9,0-6.5-4.1-6.5-9.2
		s1.8-9.2,6.7-9.2c2,0,4,0.8,5.2,2c0,0,0,0,0.1,0v-8.8h3.2v24.7h-3.2V267.6z M335.2,267c1.9,0,3.5-0.9,4.2-1.5v-10.1
		c-0.7-0.6-2.3-1.5-4.2-1.5c-3.5,0-4.4,3-4.4,6.5S331.7,267,335.2,267z"/>
	<path class="st1" d="M349.8,261c0.1,3.5,1.7,6,5.8,6c1.7,0,3.5-0.1,5.5-0.7l0.4,2.6c-2.2,0.6-4.1,0.8-6.4,0.8
		c-6.5,0-8.8-3.7-8.8-9.2s2.3-9.2,8.7-9.2c5.4,0,6.9,3.1,7.1,6.1c0.1,1.1,0,2.4-0.2,3.6H349.8z M349.8,259h9
		c0.1-0.6,0.2-1.3,0.1-1.9c-0.1-1.8-1.2-3.4-4-3.4C351.3,253.8,350.1,256.1,349.8,259z"/>
	<path class="st1" d="M368.9,269.3h-3.2v-17.7h3.2v2.8h0.1c1.4-1.6,3.8-3.2,6.6-3.2v3c-2.6,0-5.3,1.1-6.7,2V269.3z"/>
	<path class="st1" d="M386,269.7c-2.8,0-5.5-0.2-7.6-0.8l0.6-2.6c2.8,0.7,5.4,0.8,6.7,0.8c3.2,0,3.7-1.9,3.7-2.6c0-1.2-0.8-2-4-2.6
		c-3.7-0.7-6.6-1.9-6.6-5.6c0-3.4,2.4-4.9,6.5-4.9c2.7,0,4.9,0.3,7.1,0.8l-0.6,2.5c-2.8-0.7-5-0.8-6.3-0.8c-3.2,0-3.5,1.7-3.5,2.3
		c0,1.1,0.6,2,3.8,2.7c3.7,0.8,6.8,1.8,6.8,5.4C392.5,267.9,390.1,269.7,386,269.7z"/>
	<path class="st1" d="M406.1,245.3v4.4h-3.2v-4.4H406.1z M406.1,251.7v17.7h-3.2v-17.7H406.1z"/>
	<path class="st1" d="M413.5,269.3h-3.2v-17.7h3.2v2.5h0.1c1.7-1.7,3.8-2.8,6.3-2.8c3.5,0,5.3,2.1,5.3,5.8v12.2H422v-11.5
		c0-2.3-0.9-3.9-3.5-3.9c-2,0-3.9,1.2-4.9,2V269.3z"/>
</g>
<g>
	<path class="st1" d="M3,291.8l-0.5-2.6c2.4-0.5,4.9-0.7,6.8-0.7c4.2,0,6.5,1.2,6.5,5.8v12.2h-3.2v-1.8c0,0,0,0-0.1,0
		c-1.7,1.5-3.3,2.1-5.6,2.1c-3.5,0-5.6-2.1-5.6-5.2c0-4,3.2-5.4,7.4-5.4h3.9v-1.8c0-2.3-1.2-3.4-4.1-3.4
		C7.3,291.1,5.6,291.2,3,291.8z M12.7,298.1H9c-3.3,0-4.4,1.2-4.4,3.2c0,1.9,1.4,3,3.7,3c2,0,3.6-0.8,4.4-1.5V298.1z"/>
	<path class="st1" d="M30,306.4h-3.2v-17.7H30v2.5H30c1.7-1.7,3.8-2.8,6.3-2.8c3.5,0,5.3,2.1,5.3,5.8v12.2h-3.2V295
		c0-2.3-0.9-3.9-3.5-3.9c-2,0-3.9,1.2-4.9,2V306.4z"/>
	<path class="st1" d="M46.6,291.8l-0.5-2.6c2.4-0.5,4.9-0.7,6.8-0.7c4.2,0,6.5,1.2,6.5,5.8v12.2h-3.2v-1.8c0,0,0,0-0.1,0
		c-1.7,1.5-3.3,2.1-5.6,2.1c-3.5,0-5.6-2.1-5.6-5.2c0-4,3.2-5.4,7.4-5.4h3.9v-1.8c0-2.3-1.2-3.4-4.1-3.4
		C50.9,291.1,49.2,291.2,46.6,291.8z M56.3,298.1h-3.7c-3.3,0-4.4,1.2-4.4,3.2c0,1.9,1.4,3,3.7,3c2,0,3.6-0.8,4.4-1.5V298.1z"/>
	<path class="st1" d="M64.9,291.1h-2.6V289l2.6-0.2l0.4-4.9h2.8v4.9H73v2.3h-4.9v9.7c0,2.3,0.7,3.5,3,3.5c0.5,0,1.1-0.1,1.8-0.2
		l0.3,2.5c-1,0.1-2.3,0.2-3.2,0.2c-3.6,0-5.1-1.5-5.1-5.5V291.1z"/>
	<path class="st1" d="M79.8,282.4v4.4h-3.2v-4.4H79.8z M79.8,288.8v17.7h-3.2v-17.7H79.8z"/>
	<path class="st1" d="M83.6,297.6c0-5.5,2.2-9.2,8.1-9.2c5.9,0,8.1,3.7,8.1,9.2s-2.2,9.2-8.1,9.2C85.8,306.8,83.6,303.1,83.6,297.6z
		 M87,297.6c0,3.7,1.1,6.5,4.8,6.5c3.7,0,4.8-2.8,4.8-6.5s-1.1-6.5-4.8-6.5C88,291.1,87,293.9,87,297.6z"/>
	<path class="st1" d="M106.8,306.4h-3.2v-17.7h3.2v2.5h0.1c1.7-1.7,3.8-2.8,6.3-2.8c3.5,0,5.3,2.1,5.3,5.8v12.2h-3.2V295
		c0-2.3-0.9-3.9-3.5-3.9c-2,0-3.9,1.2-4.9,2V306.4z"/>
	<path class="st1" d="M123.5,291.8l-0.5-2.6c2.4-0.5,4.9-0.7,6.8-0.7c4.2,0,6.5,1.2,6.5,5.8v12.2h-3.2v-1.8c0,0,0,0-0.1,0
		c-1.7,1.5-3.3,2.1-5.6,2.1c-3.5,0-5.6-2.1-5.6-5.2c0-4,3.2-5.4,7.4-5.4h3.9v-1.8c0-2.3-1.2-3.4-4.1-3.4
		C127.7,291.1,126.1,291.2,123.5,291.8z M133.1,298.1h-3.7c-3.3,0-4.4,1.2-4.4,3.2c0,1.9,1.4,3,3.7,3c2,0,3.6-0.8,4.4-1.5V298.1z"/>
	<path class="st1" d="M140.6,281.7h3.2v24.7h-3.2V281.7z"/>
	<path class="st1" d="M155.8,291.8l-0.5-2.6c2.4-0.5,4.9-0.7,6.8-0.7c4.2,0,6.5,1.2,6.5,5.8v12.2h-3.2v-1.8c0,0,0,0-0.1,0
		c-1.7,1.5-3.3,2.1-5.6,2.1c-3.5,0-5.6-2.1-5.6-5.2c0-4,3.2-5.4,7.4-5.4h3.9v-1.8c0-2.3-1.2-3.4-4.1-3.4
		C160,291.1,158.4,291.2,155.8,291.8z M165.4,298.1h-3.7c-3.3,0-4.4,1.2-4.4,3.2c0,1.9,1.4,3,3.7,3c2,0,3.6-0.8,4.4-1.5V298.1z"/>
	<path class="st1" d="M176.1,306.4h-3.2v-17.7h3.2v2.5h0.1c1.7-1.7,3.8-2.8,6.3-2.8c3.5,0,5.3,2.1,5.3,5.8v12.2h-3.2V295
		c0-2.3-0.9-3.9-3.5-3.9c-2,0-3.9,1.2-4.9,2V306.4z"/>
	<path class="st1" d="M203.6,304.7C203.6,304.7,203.6,304.7,203.6,304.7c-1.3,1.2-3.4,2.1-5.5,2.1c-4.9,0-6.5-4.1-6.5-9.2
		s1.8-9.2,6.7-9.2c2,0,4,0.8,5.2,2c0,0,0,0,0.1,0v-8.8h3.2v24.7h-3.2V304.7z M199.4,304.2c1.9,0,3.5-0.9,4.2-1.5v-10.1
		c-0.7-0.6-2.3-1.5-4.2-1.5c-3.5,0-4.4,3-4.4,6.5S195.9,304.2,199.4,304.2z"/>
	<path class="st1" d="M220.9,282.4v4.4h-3.2v-4.4H220.9z M220.9,288.8v17.7h-3.2v-17.7H220.9z"/>
	<path class="st1" d="M228.4,306.4h-3.2v-17.7h3.2v2.5h0.1c1.7-1.7,3.8-2.8,6.3-2.8c3.5,0,5.3,2.1,5.3,5.8v12.2h-3.2V295
		c0-2.3-0.9-3.9-3.5-3.9c-2,0-3.9,1.2-4.9,2V306.4z"/>
	<path class="st1" d="M245.5,291.1h-2.6V289l2.6-0.2l0.4-4.9h2.8v4.9h4.9v2.3h-4.9v9.7c0,2.3,0.7,3.5,3,3.5c0.5,0,1.1-0.1,1.8-0.2
		l0.3,2.5c-1,0.1-2.3,0.2-3.2,0.2c-3.6,0-5.1-1.5-5.1-5.5V291.1z"/>
	<path class="st1" d="M259.6,298.1c0.1,3.5,1.7,6,5.8,6c1.7,0,3.5-0.1,5.5-0.7l0.4,2.6c-2.2,0.6-4.1,0.8-6.4,0.8
		c-6.5,0-8.8-3.7-8.8-9.2s2.3-9.2,8.7-9.2c5.4,0,6.9,3.1,7.1,6.1c0.1,1.1,0,2.4-0.2,3.6H259.6z M259.6,296.1h9
		c0.1-0.6,0.2-1.3,0.1-1.9c-0.1-1.8-1.2-3.4-4-3.4C261.2,290.9,259.9,293.2,259.6,296.1z"/>
	<path class="st1" d="M278.8,306.4h-3.2v-17.7h3.2v2.8h0.1c1.4-1.6,3.8-3.2,6.6-3.2v3c-2.6,0-5.3,1.1-6.7,2V306.4z"/>
	<path class="st1" d="M291.9,306.4h-3.2v-17.7h3.2v2.5h0.1c1.7-1.7,3.8-2.8,6.3-2.8c3.5,0,5.3,2.1,5.3,5.8v12.2h-3.2V295
		c0-2.3-0.9-3.9-3.5-3.9c-2,0-3.9,1.2-4.9,2V306.4z"/>
	<path class="st1" d="M308.5,291.8l-0.5-2.6c2.4-0.5,4.9-0.7,6.8-0.7c4.2,0,6.5,1.2,6.5,5.8v12.2h-3.2v-1.8c0,0,0,0-0.1,0
		c-1.7,1.5-3.3,2.1-5.6,2.1c-3.5,0-5.6-2.1-5.6-5.2c0-4,3.2-5.4,7.4-5.4h3.9v-1.8c0-2.3-1.2-3.4-4.1-3.4
		C312.8,291.1,311.2,291.2,308.5,291.8z M318.2,298.1h-3.7c-3.3,0-4.4,1.2-4.4,3.2c0,1.9,1.4,3,3.7,3c2,0,3.6-0.8,4.4-1.5V298.1z"/>
	<path class="st1" d="M326.9,291.1h-2.6V289l2.6-0.2l0.4-4.9h2.8v4.9h4.9v2.3H330v9.7c0,2.3,0.7,3.5,3,3.5c0.5,0,1.1-0.1,1.8-0.2
		l0.3,2.5c-1,0.1-2.3,0.2-3.2,0.2c-3.6,0-5.1-1.5-5.1-5.5V291.1z"/>
	<path class="st1" d="M341.8,282.4v4.4h-3.2v-4.4H341.8z M341.8,288.8v17.7h-3.2v-17.7H341.8z"/>
	<path class="st1" d="M345.5,297.6c0-5.5,2.2-9.2,8.1-9.2c5.9,0,8.1,3.7,8.1,9.2s-2.2,9.2-8.1,9.2
		C347.7,306.8,345.5,303.1,345.5,297.6z M348.9,297.6c0,3.7,1.1,6.5,4.8,6.5c3.7,0,4.8-2.8,4.8-6.5s-1.1-6.5-4.8-6.5
		C350,291.1,348.9,293.9,348.9,297.6z"/>
	<path class="st1" d="M368.8,306.4h-3.2v-17.7h3.2v2.5h0.1c1.7-1.7,3.8-2.8,6.3-2.8c3.5,0,5.3,2.1,5.3,5.8v12.2h-3.2V295
		c0-2.3-0.9-3.9-3.5-3.9c-2,0-3.9,1.2-4.9,2V306.4z"/>
	<path class="st1" d="M385.4,291.8l-0.5-2.6c2.4-0.5,4.9-0.7,6.8-0.7c4.2,0,6.5,1.2,6.5,5.8v12.2h-3.2v-1.8c0,0,0,0-0.1,0
		c-1.7,1.5-3.3,2.1-5.6,2.1c-3.5,0-5.6-2.1-5.6-5.2c0-4,3.2-5.4,7.4-5.4h3.9v-1.8c0-2.3-1.2-3.4-4.1-3.4
		C389.7,291.1,388,291.2,385.4,291.8z M395.1,298.1h-3.7c-3.3,0-4.4,1.2-4.4,3.2c0,1.9,1.4,3,3.7,3c2,0,3.6-0.8,4.4-1.5V298.1z"/>
	<path class="st1" d="M402.6,281.7h3.2v24.7h-3.2V281.7z"/>
</g>
<g>
	<path class="st1" d="M13.6,341.8C13.6,341.8,13.6,341.8,13.6,341.8c-1.3,1.2-3.4,2.1-5.5,2.1c-4.9,0-6.5-4.1-6.5-9.2
		s1.8-9.2,6.7-9.2c2,0,4,0.8,5.2,2c0,0,0,0,0.1,0v-8.8h3.2v24.7h-3.2V341.8z M9.4,341.3c1.9,0,3.5-0.9,4.2-1.5v-10.1
		c-0.7-0.6-2.3-1.5-4.2-1.5c-3.5,0-4.4,3-4.4,6.5S5.9,341.3,9.4,341.3z"/>
	<path class="st1" d="M24,335.3c0.1,3.5,1.7,6,5.8,6c1.7,0,3.5-0.1,5.5-0.7l0.4,2.6c-2.2,0.6-4.1,0.8-6.4,0.8
		c-6.5,0-8.8-3.7-8.8-9.2s2.3-9.2,8.7-9.2c5.4,0,6.9,3.1,7.1,6.1c0.1,1.1,0,2.4-0.2,3.6H24z M24,333.2h9c0.1-0.6,0.2-1.3,0.1-1.9
		c-0.1-1.8-1.2-3.4-4-3.4C25.5,328,24.3,330.3,24,333.2z"/>
	<path class="st1" d="M43.1,327.7L43.1,327.7c1.3-1.2,3.4-2.1,5.5-2.1c4.9,0,6.5,4.1,6.5,9.2s-1.8,9.2-6.7,9.2c-2,0-4.1-0.8-5.4-2
		H43l-0.6,1.8H40v-24.8h3.2V327.7z M47.4,328.2c-1.9,0-3.5,0.9-4.2,1.5v10.1c0.7,0.6,2.3,1.5,4.2,1.5c3.4,0,4.4-3,4.4-6.5
		S50.8,328.2,47.4,328.2z"/>
	<path class="st1" d="M59.8,328.9l-0.5-2.6c2.4-0.5,4.9-0.7,6.8-0.7c4.2,0,6.5,1.2,6.5,5.8v12.2h-3.2v-1.8c0,0,0,0-0.1,0
		c-1.7,1.5-3.3,2.1-5.6,2.1c-3.5,0-5.6-2.1-5.6-5.2c0-4,3.2-5.4,7.4-5.4h3.9v-1.8c0-2.3-1.2-3.4-4.1-3.4
		C64.1,328.2,62.5,328.3,59.8,328.9z M69.5,335.3h-3.7c-3.3,0-4.4,1.2-4.4,3.2c0,1.9,1.4,3,3.7,3c2,0,3.6-0.8,4.4-1.5V335.3z"/>
	<path class="st1" d="M78.2,328.2h-2.6v-2.1l2.6-0.2l0.4-4.9h2.8v4.9h4.9v2.3h-4.9v9.7c0,2.3,0.7,3.5,3,3.5c0.5,0,1.1-0.1,1.8-0.2
		l0.3,2.5c-1,0.1-2.3,0.2-3.2,0.2c-3.6,0-5.1-1.5-5.1-5.5V328.2z"/>
	<path class="st1" d="M92.3,335.3c0.1,3.5,1.7,6,5.8,6c1.7,0,3.5-0.1,5.5-0.7l0.4,2.6c-2.2,0.6-4.1,0.8-6.4,0.8
		c-6.5,0-8.8-3.7-8.8-9.2s2.3-9.2,8.7-9.2c5.4,0,6.9,3.1,7.1,6.1c0.1,1.1,0,2.4-0.2,3.6H92.3z M92.3,333.2h9
		c0.1-0.6,0.2-1.3,0.1-1.9c-0.1-1.8-1.2-3.4-4-3.4C93.8,328,92.6,330.3,92.3,333.2z"/>
	<path class="st1" d="M116.2,328.2h-2.6v-2.1l2.6-0.2l0.4-4.9h2.8v4.9h4.9v2.3h-4.9v9.7c0,2.3,0.7,3.5,3,3.5c0.5,0,1.1-0.1,1.8-0.2
		l0.3,2.5c-1,0.1-2.3,0.2-3.2,0.2c-3.6,0-5.1-1.5-5.1-5.5V328.2z"/>
	<path class="st1" d="M127,334.7c0-5.5,2.2-9.2,8.1-9.2c5.9,0,8.1,3.7,8.1,9.2s-2.2,9.2-8.1,9.2C129.1,343.9,127,340.2,127,334.7z
		 M130.3,334.7c0,3.7,1.1,6.5,4.8,6.5c3.7,0,4.8-2.8,4.8-6.5s-1.1-6.5-4.8-6.5C131.4,328.2,130.3,331,130.3,334.7z"/>
	<path class="st1" d="M156.6,335.3c0.1,3.5,1.7,6,5.8,6c1.7,0,3.5-0.1,5.5-0.7l0.4,2.6c-2.2,0.6-4.1,0.8-6.4,0.8
		c-6.5,0-8.8-3.7-8.8-9.2s2.3-9.2,8.7-9.2c5.4,0,6.9,3.1,7.1,6.1c0.1,1.1,0,2.4-0.2,3.6H156.6z M156.6,333.2h9
		c0.1-0.6,0.2-1.3,0.1-1.9c-0.1-1.8-1.2-3.4-4-3.4C158.1,328,156.9,330.3,156.6,333.2z"/>
	<path class="st1" d="M179.8,336.7L179.8,336.7l-4.7,6.8h-3.4l6.5-9.2l-5.9-8.5h3.7l4.3,6.1h0.1l4.2-6.1h3.3l-5.9,8.4l6.6,9.3h-3.8
		L179.8,336.7z"/>
	<path class="st1" d="M194.8,327.7L194.8,327.7c1.3-1.2,3.4-2.1,5.5-2.1c4.9,0,6.5,4.1,6.5,9.2s-1.8,9.2-6.7,9.2c-2,0-4-0.8-5.2-2
		h-0.1v8.7h-3.2v-24.7h3.2V327.7z M199.1,328.2c-1.9,0-3.5,0.9-4.2,1.5v10.1c0.7,0.6,2.3,1.5,4.2,1.5c3.4,0,4.4-3,4.4-6.5
		S202.5,328.2,199.1,328.2z"/>
	<path class="st1" d="M210.7,318.8h3.2v24.7h-3.2V318.8z"/>
	<path class="st1" d="M217.6,334.7c0-5.5,2.2-9.2,8.1-9.2c5.9,0,8.1,3.7,8.1,9.2s-2.2,9.2-8.1,9.2
		C219.8,343.9,217.6,340.2,217.6,334.7z M221,334.7c0,3.7,1.1,6.5,4.8,6.5c3.7,0,4.8-2.8,4.8-6.5s-1.1-6.5-4.8-6.5
		C222,328.2,221,331,221,334.7z"/>
	<path class="st1" d="M240.9,343.6h-3.2v-17.7h3.2v2.8h0.1c1.4-1.6,3.8-3.2,6.6-3.2v3c-2.6,0-5.3,1.1-6.7,2V343.6z"/>
	<path class="st1" d="M253.5,335.3c0.1,3.5,1.7,6,5.8,6c1.7,0,3.5-0.1,5.5-0.7l0.4,2.6c-2.2,0.6-4.1,0.8-6.4,0.8
		c-6.5,0-8.8-3.7-8.8-9.2s2.3-9.2,8.7-9.2c5.4,0,6.9,3.1,7.1,6.1c0.1,1.1,0,2.4-0.2,3.6H253.5z M253.5,333.2h9
		c0.1-0.6,0.2-1.3,0.1-1.9c-0.1-1.8-1.2-3.4-4-3.4C255,328,253.7,330.3,253.5,333.2z"/>
	<path class="st1" d="M277.3,328.2h-2.6v-2.1l2.6-0.2l0.4-4.9h2.8v4.9h4.9v2.3h-4.9v9.7c0,2.3,0.7,3.5,3,3.5c0.5,0,1.1-0.1,1.8-0.2
		l0.3,2.5c-1,0.1-2.3,0.2-3.2,0.2c-3.6,0-5.1-1.5-5.1-5.5V328.2z"/>
	<path class="st1" d="M292.2,343.6H289v-24.7h3.2v9.5h0.1c1.7-1.7,3.8-2.8,6.3-2.8c3.5,0,5.3,2.1,5.3,5.8v12.2h-3.2v-11.5
		c0-2.3-0.9-3.9-3.5-3.9c-2,0-3.9,1.2-4.9,2V343.6z"/>
	<path class="st1" d="M311,335.3c0.1,3.5,1.7,6,5.8,6c1.7,0,3.5-0.1,5.5-0.7l0.4,2.6c-2.2,0.6-4.1,0.8-6.4,0.8
		c-6.5,0-8.8-3.7-8.8-9.2s2.3-9.2,8.7-9.2c5.4,0,6.9,3.1,7.1,6.1c0.1,1.1,0,2.4-0.2,3.6H311z M311,333.2h9c0.1-0.6,0.2-1.3,0.1-1.9
		c-0.1-1.8-1.2-3.4-4-3.4C312.6,328,311.3,330.3,311,333.2z"/>
	<path class="st1" d="M336.7,343.6h-3.2v-17.7h3.2v2.5h0.1c1.7-1.7,3.8-2.8,6.3-2.8c3.5,0,5.3,2.1,5.3,5.8v12.2h-3.2v-11.5
		c0-2.3-0.9-3.9-3.5-3.9c-2,0-3.9,1.2-4.9,2V343.6z"/>
	<path class="st1" d="M353.3,328.9l-0.5-2.6c2.4-0.5,4.9-0.7,6.8-0.7c4.2,0,6.5,1.2,6.5,5.8v12.2H363v-1.8c0,0,0,0-0.1,0
		c-1.7,1.5-3.3,2.1-5.6,2.1c-3.5,0-5.6-2.1-5.6-5.2c0-4,3.2-5.4,7.4-5.4h3.9v-1.8c0-2.3-1.2-3.4-4.1-3.4
		C357.6,328.2,355.9,328.3,353.3,328.9z M363,335.3h-3.7c-3.3,0-4.4,1.2-4.4,3.2c0,1.9,1.4,3,3.7,3c2,0,3.6-0.8,4.4-1.5V335.3z"/>
	<path class="st1" d="M371.6,328.2H369v-2.1l2.6-0.2l0.4-4.9h2.8v4.9h4.9v2.3h-4.9v9.7c0,2.3,0.7,3.5,3,3.5c0.5,0,1.1-0.1,1.8-0.2
		l0.3,2.5c-1,0.1-2.3,0.2-3.2,0.2c-3.6,0-5.1-1.5-5.1-5.5V328.2z"/>
	<path class="st1" d="M394.9,325.9h3.2v17.7h-3.2v-2.5h-0.1c-1.7,1.7-3.8,2.8-6.3,2.8c-3.5,0-5.3-2.1-5.3-5.8v-12.2h3.2v11.5
		c0,2.3,1,3.9,3.5,3.9c2,0,3.9-1.2,4.9-2V325.9z"/>
	<path class="st1" d="M405.6,343.6h-3.2v-17.7h3.2v2.8h0.1c1.4-1.6,3.8-3.2,6.6-3.2v3c-2.6,0-5.3,1.1-6.7,2V343.6z"/>
	<path class="st1" d="M418.2,335.3c0.1,3.5,1.7,6,5.8,6c1.7,0,3.5-0.1,5.5-0.7l0.4,2.6c-2.2,0.6-4.1,0.8-6.4,0.8
		c-6.5,0-8.8-3.7-8.8-9.2s2.3-9.2,8.7-9.2c5.4,0,6.9,3.1,7.1,6.1c0.1,1.1,0,2.4-0.2,3.6H418.2z M418.2,333.2h9
		c0.1-0.6,0.2-1.3,0.1-1.9c-0.1-1.8-1.2-3.4-4-3.4C419.8,328,418.5,330.3,418.2,333.2z"/>
</g>
<g>
	<path class="st1" d="M1.6,371.8c0-5.5,2.2-9.2,8.1-9.2c5.9,0,8.1,3.7,8.1,9.2s-2.2,9.2-8.1,9.2C3.8,381,1.6,377.3,1.6,371.8z
		 M4.9,371.8c0,3.7,1.1,6.5,4.8,6.5c3.7,0,4.8-2.8,4.8-6.5s-1.1-6.5-4.8-6.5C6,365.3,4.9,368.1,4.9,371.8z"/>
	<path class="st1" d="M25.8,363h4.2v2.3h-4.2v15.4h-3.2v-15.4H20v-2.1l2.6-0.2v-2.2c0-3.4,1.2-4.9,5.1-4.9c0.8,0,1.9,0.1,2.8,0.3
		l-0.3,2.5c-0.7-0.1-1.3-0.2-1.8-0.2c-2,0-2.6,0.6-2.6,2.5V363z"/>
	<path class="st1" d="M41.9,365.3h-2.6v-2.1l2.6-0.2l0.4-4.9h2.8v4.9H50v2.3h-4.9v9.7c0,2.3,0.7,3.5,3,3.5c0.5,0,1.1-0.1,1.8-0.2
		l0.3,2.5c-1,0.1-2.3,0.2-3.2,0.2c-3.6,0-5.1-1.5-5.1-5.5V365.3z"/>
	<path class="st1" d="M56,372.4c0.1,3.5,1.7,6,5.8,6c1.7,0,3.5-0.1,5.5-0.7l0.4,2.6c-2.2,0.6-4.1,0.8-6.4,0.8
		c-6.5,0-8.8-3.7-8.8-9.2s2.3-9.2,8.7-9.2c5.4,0,6.9,3.1,7.1,6.1c0.1,1.1,0,2.4-0.2,3.6H56z M56,370.3h9c0.1-0.6,0.2-1.3,0.1-1.9
		c-0.1-1.8-1.2-3.4-4-3.4C57.5,365.1,56.3,367.4,56,370.3z"/>
	<path class="st1" d="M72.6,366l-0.5-2.6c2.4-0.5,4.9-0.7,6.8-0.7c4.2,0,6.5,1.2,6.5,5.8v12.2h-3.2v-1.8c0,0,0,0-0.1,0
		c-1.7,1.5-3.3,2.1-5.6,2.1c-3.5,0-5.6-2.1-5.6-5.2c0-4,3.2-5.4,7.4-5.4h3.9v-1.8c0-2.3-1.2-3.4-4.1-3.4
		C76.8,365.3,75.2,365.4,72.6,366z M82.2,372.4h-3.7c-3.3,0-4.4,1.2-4.4,3.2c0,1.9,1.4,3,3.7,3c2,0,3.6-0.8,4.4-1.5V372.4z"/>
	<path class="st1" d="M97.8,362.7c2.2,0,3.9,0.3,6,0.8l-0.6,2.5c-2.8-0.7-4.2-0.7-5.4-0.7c-3.7,0-5.3,2.6-5.3,6.5s1.6,6.5,5.3,6.5
		c1.2,0,2.6,0,5.4-0.7l0.6,2.6c-2.1,0.5-3.8,0.8-6,0.8c-6.5,0-8.7-3.7-8.7-9.2S91.3,362.7,97.8,362.7z"/>
	<path class="st1" d="M109.9,380.7h-3.2v-24.7h3.2v9.5h0.1c1.7-1.7,3.8-2.8,6.3-2.8c3.5,0,5.3,2.1,5.3,5.8v12.2h-3.2v-11.5
		c0-2.3-0.9-3.9-3.5-3.9c-2,0-3.9,1.2-4.9,2V380.7z"/>
	<path class="st1" d="M128.8,372.4c0.1,3.5,1.7,6,5.8,6c1.7,0,3.5-0.1,5.5-0.7l0.4,2.6c-2.2,0.6-4.1,0.8-6.4,0.8
		c-6.5,0-8.8-3.7-8.8-9.2s2.3-9.2,8.7-9.2c5.4,0,6.9,3.1,7.1,6.1c0.1,1.1,0,2.4-0.2,3.6H128.8z M128.8,370.3h9
		c0.1-0.6,0.2-1.3,0.1-1.9c-0.1-1.8-1.2-3.4-4-3.4C130.3,365.1,129,367.4,128.8,370.3z"/>
	<path class="st1" d="M147.9,380.7h-3.2V363h3.2v2.8h0.1c1.4-1.6,3.8-3.2,6.6-3.2v3c-2.6,0-5.3,1.1-6.7,2V380.7z"/>
	<path class="st1" d="M168,364.8L168,364.8c1.3-1.2,3.4-2.1,5.5-2.1c4.9,0,6.5,4.1,6.5,9.2s-1.8,9.2-6.7,9.2c-2,0-4-0.8-5.2-2H168
		v8.7h-3.2V363h3.2V364.8z M172.2,365.3c-1.9,0-3.5,0.9-4.2,1.5v10.1c0.7,0.6,2.3,1.5,4.2,1.5c3.4,0,4.4-3,4.4-6.5
		S175.6,365.3,172.2,365.3z"/>
	<path class="st1" d="M187,380.7h-3.2V363h3.2v2.8h0.1c1.4-1.6,3.8-3.2,6.6-3.2v3c-2.6,0-5.3,1.1-6.7,2V380.7z"/>
	<path class="st1" d="M196.2,371.8c0-5.5,2.2-9.2,8.1-9.2c5.9,0,8.1,3.7,8.1,9.2s-2.2,9.2-8.1,9.2
		C198.4,381,196.2,377.3,196.2,371.8z M199.6,371.8c0,3.7,1.1,6.5,4.8,6.5c3.7,0,4.8-2.8,4.8-6.5s-1.1-6.5-4.8-6.5
		C200.6,365.3,199.6,368.1,199.6,371.8z"/>
	<path class="st1" d="M220.5,363h4.2v2.3h-4.2v15.4h-3.2v-15.4h-2.6v-2.1l2.6-0.2v-2.2c0-3.4,1.2-4.9,5.1-4.9c0.8,0,1.9,0.1,2.8,0.3
		l-0.3,2.5c-0.7-0.1-1.3-0.2-1.8-0.2c-2,0-2.6,0.6-2.6,2.5V363z"/>
	<path class="st1" d="M230.6,372.4c0.1,3.5,1.7,6,5.8,6c1.7,0,3.5-0.1,5.5-0.7l0.4,2.6c-2.2,0.6-4.1,0.8-6.4,0.8
		c-6.5,0-8.8-3.7-8.8-9.2s2.3-9.2,8.7-9.2c5.4,0,6.9,3.1,7.1,6.1c0.1,1.1,0,2.4-0.2,3.6H230.6z M230.6,370.3h9
		c0.1-0.6,0.2-1.3,0.1-1.9c-0.1-1.8-1.2-3.4-4-3.4C232.1,365.1,230.9,367.4,230.6,370.3z"/>
	<path class="st1" d="M253.4,381c-2.8,0-5.5-0.2-7.6-0.8l0.6-2.6c2.8,0.7,5.4,0.8,6.7,0.8c3.2,0,3.7-1.9,3.7-2.6c0-1.2-0.8-2-4-2.6
		c-3.7-0.7-6.6-1.9-6.6-5.6c0-3.4,2.4-4.9,6.5-4.9c2.7,0,4.9,0.3,7.1,0.8l-0.6,2.5c-2.8-0.7-5-0.8-6.3-0.8c-3.2,0-3.5,1.7-3.5,2.3
		c0,1.1,0.6,2,3.8,2.7c3.7,0.8,6.8,1.8,6.8,5.4C259.9,379.2,257.5,381,253.4,381z"/>
	<path class="st1" d="M270.3,381c-2.8,0-5.5-0.2-7.6-0.8l0.6-2.6c2.8,0.7,5.4,0.8,6.7,0.8c3.2,0,3.7-1.9,3.7-2.6c0-1.2-0.8-2-4-2.6
		c-3.7-0.7-6.6-1.9-6.6-5.6c0-3.4,2.4-4.9,6.5-4.9c2.7,0,4.9,0.3,7.1,0.8L276,366c-2.8-0.7-5-0.8-6.3-0.8c-3.2,0-3.5,1.7-3.5,2.3
		c0,1.1,0.6,2,3.8,2.7c3.7,0.8,6.8,1.8,6.8,5.4C276.8,379.2,274.4,381,270.3,381z"/>
	<path class="st1" d="M283.5,356.6v4.4h-3.2v-4.4H283.5z M283.5,363v17.7h-3.2V363H283.5z"/>
	<path class="st1" d="M287.3,371.8c0-5.5,2.2-9.2,8.1-9.2c5.9,0,8.1,3.7,8.1,9.2s-2.2,9.2-8.1,9.2
		C289.5,381,287.3,377.3,287.3,371.8z M290.6,371.8c0,3.7,1.1,6.5,4.8,6.5c3.7,0,4.8-2.8,4.8-6.5s-1.1-6.5-4.8-6.5
		C291.7,365.3,290.6,368.1,290.6,371.8z"/>
	<path class="st1" d="M310.5,380.7h-3.2V363h3.2v2.5h0.1c1.7-1.7,3.8-2.8,6.3-2.8c3.5,0,5.3,2.1,5.3,5.8v12.2H319v-11.5
		c0-2.3-0.9-3.9-3.5-3.9c-2,0-3.9,1.2-4.9,2V380.7z"/>
	<path class="st1" d="M327.1,366l-0.5-2.6c2.4-0.5,4.9-0.7,6.8-0.7c4.2,0,6.5,1.2,6.5,5.8v12.2h-3.2v-1.8c0,0,0,0-0.1,0
		c-1.7,1.5-3.3,2.1-5.6,2.1c-3.5,0-5.6-2.1-5.6-5.2c0-4,3.2-5.4,7.4-5.4h3.9v-1.8c0-2.3-1.2-3.4-4.1-3.4
		C331.4,365.3,329.8,365.4,327.1,366z M336.8,372.4h-3.7c-3.3,0-4.4,1.2-4.4,3.2c0,1.9,1.4,3,3.7,3c2,0,3.6-0.8,4.4-1.5V372.4z"/>
	<path class="st1" d="M344.3,355.9h3.2v24.7h-3.2V355.9z"/>
	<path class="st1" d="M354.9,356.6v4.4h-3.2v-4.4H354.9z M354.9,363v17.7h-3.2V363H354.9z"/>
	<path class="st1" d="M365.9,381c-2.8,0-5.5-0.2-7.6-0.8l0.6-2.6c2.8,0.7,5.4,0.8,6.7,0.8c3.2,0,3.7-1.9,3.7-2.6c0-1.2-0.8-2-4-2.6
		c-3.7-0.7-6.6-1.9-6.6-5.6c0-3.4,2.4-4.9,6.5-4.9c2.7,0,4.9,0.3,7.1,0.8l-0.6,2.5c-2.8-0.7-5-0.8-6.3-0.8c-3.2,0-3.5,1.7-3.5,2.3
		c0,1.1,0.6,2,3.8,2.7c3.7,0.8,6.8,1.8,6.8,5.4C372.4,379.2,370,381,365.9,381z"/>
	<path class="st1" d="M379,380.7h-3.2V363h3.2v2.5h0.1c1.4-1.5,3.3-2.8,5.8-2.8c2.5,0,4.1,1.1,4.8,3.1c1.7-1.8,3.8-3.1,6.3-3.1
		c3.5,0,5.3,2.1,5.3,5.8v12.2h-3.2v-11.5c0-2.3-1-3.9-3.5-3.9c-1.8,0-3.4,1.2-4.5,2.1c0.1,0.6,0.1,1.2,0.1,1.9v11.3H387v-11.6
		c-0.1-2.2-1-3.8-3.5-3.8c-1.9,0-3.4,1.2-4.4,2V380.7z"/>
</g>
<g>
	<path class="st1" d="M16,445.7H6.8l-2,6.1H1.2l8.3-24.2h4.1l8.1,24.2H18L16,445.7z M11.4,431.8l-3.9,11.1h7.8L11.4,431.8
		L11.4,431.8z"/>
	<path class="st1" d="M28.3,435.9L28.3,435.9c1.3-1.2,3.4-2.1,5.5-2.1c4.9,0,6.5,4.1,6.5,9.2s-1.8,9.2-6.7,9.2c-2,0-4-0.8-5.2-2
		h-0.1v8.7h-3.2v-24.7h3.2V435.9z M32.6,436.4c-1.9,0-3.5,0.9-4.2,1.5V448c0.7,0.6,2.3,1.5,4.2,1.5c3.4,0,4.4-3,4.4-6.5
		S36,436.4,32.6,436.4z"/>
	<path class="st1" d="M47.3,435.9L47.3,435.9c1.3-1.2,3.4-2.1,5.5-2.1c4.9,0,6.5,4.1,6.5,9.2s-1.8,9.2-6.7,9.2c-2,0-4-0.8-5.2-2
		h-0.1v8.7h-3.2v-24.7h3.2V435.9z M51.6,436.4c-1.9,0-3.5,0.9-4.2,1.5V448c0.7,0.6,2.3,1.5,4.2,1.5c3.4,0,4.4-3,4.4-6.5
		S55,436.4,51.6,436.4z"/>
	<path class="st1" d="M63.2,427.1h3.2v24.7h-3.2V427.1z"/>
	<path class="st1" d="M69.7,434.1h3.6l5.1,14.4h0.1l4.8-14.4h3.4L80,452.8c-1.6,4.6-3.7,6.4-7.1,6.4c-0.8,0-1.9-0.1-2.6-0.2l0.3-2.6
		c0.6,0.1,1.2,0.2,1.7,0.2c2.3,0,3.6-2.3,4.4-4.3L69.7,434.1z"/>
	<path class="st1" d="M98.2,437.1l-0.5-2.6c2.4-0.5,4.9-0.7,6.8-0.7c4.2,0,6.5,1.2,6.5,5.8v12.2h-3.2V450c0,0,0,0-0.1,0
		c-1.7,1.5-3.3,2.1-5.6,2.1c-3.5,0-5.6-2.1-5.6-5.2c0-4,3.2-5.4,7.4-5.4h3.9v-1.8c0-2.3-1.2-3.4-4.1-3.4
		C102.4,436.4,100.8,436.5,98.2,437.1z M107.8,443.5h-3.7c-3.3,0-4.4,1.2-4.4,3.2c0,1.9,1.4,3,3.7,3c2,0,3.6-0.8,4.4-1.5V443.5z"/>
	<path class="st1" d="M125.1,451.8h-3.2v-17.7h3.2v2.8h0.1c1.4-1.6,3.8-3.2,6.6-3.2v3c-2.6,0-5.3,1.1-6.7,2V451.8z"/>
	<path class="st1" d="M138.2,427.8v4.4H135v-4.4H138.2z M138.2,434.1v17.7H135v-17.7H138.2z"/>
	<path class="st1" d="M144.2,450.6c-1-0.5-1.4-1.4-1.3-2.4c0-1.2,0.8-2.5,2.3-3.4v-0.1c-1.8-0.9-2.9-2.6-2.9-4.9c0-3.9,2.8-6,7.2-6
		c1,0,1.8,0.2,2.4,0.4h6.2v1.9h-3.4c1.4,1,1.7,2.5,1.7,3.7c0,4-3,5.8-7,5.8c-1,0-2-0.2-2.6-0.4c-0.3,0.3-0.5,0.7-0.7,1
		c-0.5,1.1-0.4,2.3,1,2.3l6.4,0.4c3.6,0.2,5.2,1.7,5.2,4.1c0,4.1-3.2,6.2-10.2,6.2c-4.8,0-7.2-1.4-7.2-4.6
		C141.1,453,142,451.8,144.2,450.6L144.2,450.6z M149,457.1c3.4,0,6.3-1.1,6.3-3.5c0-1.1-0.7-2-2.9-2.1l-6.5-0.4
		c-1.1,0.8-2,1.5-2,2.9C143.8,456,145.6,457.1,149,457.1z M153.5,439.8c0-2.4-1.6-3.9-4.1-3.9c-2.8,0-4.2,1.5-4.2,3.9
		c0,2.4,1.6,3.7,4.2,3.7C151.9,443.5,153.5,442.1,153.5,439.8z"/>
	<path class="st1" d="M160.5,442.9c0-5.5,2.2-9.2,8.1-9.2c5.9,0,8.1,3.7,8.1,9.2s-2.2,9.2-8.1,9.2
		C162.7,452.1,160.5,448.4,160.5,442.9z M163.9,442.9c0,3.7,1.1,6.5,4.8,6.5c3.7,0,4.8-2.8,4.8-6.5s-1.1-6.5-4.8-6.5
		C164.9,436.4,163.9,439.2,163.9,442.9z"/>
	<path class="st1" d="M183.8,451.8h-3.2v-17.7h3.2v2.8h0.1c1.4-1.6,3.8-3.2,6.6-3.2v3c-2.6,0-5.3,1.1-6.7,2V451.8z"/>
	<path class="st1" d="M193,442.9c0-5.5,2.2-9.2,8.1-9.2c5.9,0,8.1,3.7,8.1,9.2s-2.2,9.2-8.1,9.2C195.2,452.1,193,448.4,193,442.9z
		 M196.3,442.9c0,3.7,1.1,6.5,4.8,6.5c3.7,0,4.8-2.8,4.8-6.5s-1.1-6.5-4.8-6.5C197.4,436.4,196.3,439.2,196.3,442.9z"/>
	<path class="st1" d="M224.6,434.1h3.2v17.7h-3.2v-2.5h-0.1c-1.7,1.7-3.8,2.8-6.3,2.8c-3.5,0-5.3-2.1-5.3-5.8v-12.2h3.2v11.5
		c0,2.3,1,3.9,3.5,3.9c2,0,3.9-1.2,4.9-2V434.1z"/>
	<path class="st1" d="M238.8,452.1c-2.8,0-5.5-0.2-7.6-0.8l0.6-2.6c2.8,0.7,5.4,0.8,6.7,0.8c3.2,0,3.7-1.9,3.7-2.6
		c0-1.2-0.8-2-4-2.6c-3.7-0.7-6.6-1.9-6.6-5.6c0-3.4,2.4-4.9,6.5-4.9c2.7,0,4.9,0.3,7.1,0.8l-0.6,2.5c-2.8-0.7-5-0.8-6.3-0.8
		c-3.2,0-3.5,1.7-3.5,2.3c0,1.1,0.6,2,3.8,2.7c3.7,0.8,6.8,1.8,6.8,5.4C245.3,450.3,242.9,452.1,238.8,452.1z"/>
</g>
<g>
	<path class="st1" d="M3,474.2l-0.5-2.6c2.4-0.5,4.9-0.7,6.8-0.7c4.2,0,6.5,1.2,6.5,5.8v12.2h-3.2v-1.8c0,0,0,0-0.1,0
		c-1.7,1.5-3.3,2.1-5.6,2.1c-3.5,0-5.6-2.1-5.6-5.2c0-4,3.2-5.4,7.4-5.4h3.9v-1.8c0-2.3-1.2-3.4-4.1-3.4
		C7.3,473.5,5.6,473.7,3,474.2z M12.7,480.6H9c-3.3,0-4.4,1.2-4.4,3.2c0,1.9,1.4,3,3.7,3c2,0,3.6-0.8,4.4-1.5V480.6z"/>
	<path class="st1" d="M28.3,470.9c2.2,0,3.9,0.3,6,0.8l-0.6,2.5c-2.8-0.7-4.2-0.7-5.4-0.7c-3.7,0-5.3,2.6-5.3,6.5s1.6,6.5,5.3,6.5
		c1.2,0,2.6,0,5.4-0.7l0.6,2.6c-2.1,0.5-3.8,0.8-6,0.8c-6.5,0-8.7-3.7-8.7-9.2S21.8,470.9,28.3,470.9z"/>
	<path class="st1" d="M45,470.9c2.2,0,3.9,0.3,6,0.8l-0.6,2.5c-2.8-0.7-4.2-0.7-5.4-0.7c-3.7,0-5.3,2.6-5.3,6.5s1.6,6.5,5.3,6.5
		c1.2,0,2.6,0,5.4-0.7l0.6,2.6c-2.1,0.5-3.8,0.8-6,0.8c-6.5,0-8.7-3.7-8.7-9.2S38.5,470.9,45,470.9z"/>
	<path class="st1" d="M57.2,488.9H54v-17.7h3.2v2.8h0.1c1.4-1.6,3.8-3.2,6.6-3.2v3c-2.6,0-5.3,1.1-6.7,2V488.9z"/>
	<path class="st1" d="M69.8,480.6c0.1,3.5,1.7,6,5.8,6c1.7,0,3.5-0.1,5.5-0.7l0.4,2.6c-2.2,0.6-4.1,0.8-6.4,0.8
		c-6.5,0-8.8-3.7-8.8-9.2s2.3-9.2,8.7-9.2c5.4,0,6.9,3.1,7.1,6.1c0.1,1.1,0,2.4-0.2,3.6H69.8z M69.8,478.6h9
		c0.1-0.6,0.2-1.3,0.1-1.9c-0.1-1.8-1.2-3.4-4-3.4C71.3,473.3,70,475.6,69.8,478.6z"/>
	<path class="st1" d="M97.2,487.1C97.2,487.1,97.2,487.1,97.2,487.1c-1.3,1.2-3.4,2.1-5.5,2.1c-4.9,0-6.5-4.1-6.5-9.2
		s1.8-9.2,6.7-9.2c2,0,4,0.8,5.2,2c0,0,0,0,0.1,0v-8.8h3.2v24.7h-3.2V487.1z M93,486.6c1.9,0,3.5-0.9,4.2-1.5V475
		c-0.7-0.6-2.3-1.5-4.2-1.5c-3.5,0-4.4,3-4.4,6.5S89.5,486.6,93,486.6z"/>
	<path class="st1" d="M107.9,464.9v4.4h-3.2v-4.4H107.9z M107.9,471.2v17.7h-3.2v-17.7H107.9z"/>
	<path class="st1" d="M113.5,473.5h-2.6v-2.1l2.6-0.2l0.4-4.9h2.8v4.9h4.9v2.3h-4.9v9.7c0,2.3,0.7,3.5,3,3.5c0.5,0,1.1-0.1,1.8-0.2
		l0.3,2.5c-1,0.1-2.3,0.2-3.2,0.2c-3.6,0-5.1-1.5-5.1-5.5V473.5z"/>
	<path class="st1" d="M126.3,474.2l-0.5-2.6c2.4-0.5,4.9-0.7,6.8-0.7c4.2,0,6.5,1.2,6.5,5.8v12.2H136v-1.8c0,0,0,0-0.1,0
		c-1.7,1.5-3.3,2.1-5.6,2.1c-3.5,0-5.6-2.1-5.6-5.2c0-4,3.2-5.4,7.4-5.4h3.9v-1.8c0-2.3-1.2-3.4-4.1-3.4
		C130.6,473.5,128.9,473.7,126.3,474.2z M136,480.6h-3.7c-3.3,0-4.4,1.2-4.4,3.2c0,1.9,1.4,3,3.7,3c2,0,3.6-0.8,4.4-1.5V480.6z"/>
	<path class="st1" d="M144.6,473.5H142v-2.1l2.6-0.2l0.4-4.9h2.8v4.9h4.9v2.3h-4.9v9.7c0,2.3,0.7,3.5,3,3.5c0.5,0,1.1-0.1,1.8-0.2
		l0.3,2.5c-1,0.1-2.3,0.2-3.2,0.2c-3.6,0-5.1-1.5-5.1-5.5V473.5z"/>
	<path class="st1" d="M159.5,464.9v4.4h-3.2v-4.4H159.5z M159.5,471.2v17.7h-3.2v-17.7H159.5z"/>
	<path class="st1" d="M163.3,480c0-5.5,2.2-9.2,8.1-9.2c5.9,0,8.1,3.7,8.1,9.2s-2.2,9.2-8.1,9.2C165.5,489.2,163.3,485.5,163.3,480z
		 M166.6,480c0,3.7,1.1,6.5,4.8,6.5c3.7,0,4.8-2.8,4.8-6.5s-1.1-6.5-4.8-6.5C167.7,473.5,166.6,476.3,166.6,480z"/>
	<path class="st1" d="M186.5,488.9h-3.2v-17.7h3.2v2.5h0.1c1.7-1.7,3.8-2.8,6.3-2.8c3.5,0,5.3,2.1,5.3,5.8v12.2H195v-11.5
		c0-2.3-0.9-3.9-3.5-3.9c-2,0-3.9,1.2-4.9,2V488.9z"/>
	<path class="st1" d="M212.3,473L212.3,473c1.3-1.2,3.4-2.1,5.5-2.1c4.9,0,6.5,4.1,6.5,9.2s-1.8,9.2-6.7,9.2c-2,0-4-0.8-5.2-2h-0.1
		v8.7h-3.2v-24.7h3.2V473z M216.5,473.5c-1.9,0-3.5,0.9-4.2,1.5v10.1c0.7,0.6,2.3,1.5,4.2,1.5c3.4,0,4.4-3,4.4-6.5
		S219.9,473.5,216.5,473.5z"/>
	<path class="st1" d="M231.3,488.9h-3.2v-17.7h3.2v2.8h0.1c1.4-1.6,3.8-3.2,6.6-3.2v3c-2.6,0-5.3,1.1-6.7,2V488.9z"/>
	<path class="st1" d="M240.5,480c0-5.5,2.2-9.2,8.1-9.2c5.9,0,8.1,3.7,8.1,9.2s-2.2,9.2-8.1,9.2C242.7,489.2,240.5,485.5,240.5,480z
		 M243.9,480c0,3.7,1.1,6.5,4.8,6.5c3.7,0,4.8-2.8,4.8-6.5s-1.1-6.5-4.8-6.5C244.9,473.5,243.9,476.3,243.9,480z"/>
	<path class="st1" d="M268.6,470.9c2.2,0,3.9,0.3,6,0.8l-0.6,2.5c-2.8-0.7-4.2-0.7-5.4-0.7c-3.7,0-5.3,2.6-5.3,6.5s1.6,6.5,5.3,6.5
		c1.2,0,2.6,0,5.4-0.7l0.6,2.6c-2.1,0.5-3.8,0.8-6,0.8c-6.5,0-8.7-3.7-8.7-9.2S262.2,470.9,268.6,470.9z"/>
	<path class="st1" d="M280.1,480.6c0.1,3.5,1.7,6,5.8,6c1.7,0,3.5-0.1,5.5-0.7l0.4,2.6c-2.2,0.6-4.1,0.8-6.4,0.8
		c-6.5,0-8.8-3.7-8.8-9.2s2.3-9.2,8.7-9.2c5.4,0,6.9,3.1,7.1,6.1c0.1,1.1,0,2.4-0.2,3.6H280.1z M280.1,478.6h9
		c0.1-0.6,0.2-1.3,0.1-1.9c-0.1-1.8-1.2-3.4-4-3.4C281.6,473.3,280.4,475.6,280.1,478.6z"/>
	<path class="st1" d="M302.9,489.2c-2.8,0-5.5-0.2-7.6-0.8l0.6-2.6c2.8,0.7,5.4,0.8,6.7,0.8c3.2,0,3.7-1.9,3.7-2.6
		c0-1.2-0.8-2-4-2.6c-3.7-0.7-6.6-1.9-6.6-5.6c0-3.4,2.4-4.9,6.5-4.9c2.7,0,4.9,0.3,7.1,0.8l-0.6,2.5c-2.8-0.7-5-0.8-6.3-0.8
		c-3.2,0-3.5,1.7-3.5,2.3c0,1.1,0.6,2,3.8,2.7c3.7,0.8,6.8,1.8,6.8,5.4C309.4,487.4,307,489.2,302.9,489.2z"/>
	<path class="st1" d="M319.8,489.2c-2.8,0-5.5-0.2-7.6-0.8l0.6-2.6c2.8,0.7,5.4,0.8,6.7,0.8c3.2,0,3.7-1.9,3.7-2.6
		c0-1.2-0.8-2-4-2.6c-3.7-0.7-6.6-1.9-6.6-5.6c0-3.4,2.4-4.9,6.5-4.9c2.7,0,4.9,0.3,7.1,0.8l-0.6,2.5c-2.8-0.7-5-0.8-6.3-0.8
		c-3.2,0-3.5,1.7-3.5,2.3c0,1.1,0.6,2,3.8,2.7c3.7,0.8,6.8,1.8,6.8,5.4C326.3,487.4,323.9,489.2,319.8,489.2z"/>
	<path class="st1" d="M338.1,473.5h-2.6v-2.1l2.6-0.2l0.4-4.9h2.8v4.9h4.9v2.3h-4.9v9.7c0,2.3,0.7,3.5,3,3.5c0.5,0,1.1-0.1,1.8-0.2
		l0.3,2.5c-1,0.1-2.3,0.2-3.2,0.2c-3.6,0-5.1-1.5-5.1-5.5V473.5z"/>
	<path class="st1" d="M348.9,480c0-5.5,2.2-9.2,8.1-9.2c5.9,0,8.1,3.7,8.1,9.2s-2.2,9.2-8.1,9.2C351,489.2,348.9,485.5,348.9,480z
		 M352.2,480c0,3.7,1.1,6.5,4.8,6.5c3.7,0,4.8-2.8,4.8-6.5s-1.1-6.5-4.8-6.5C353.3,473.5,352.2,476.3,352.2,480z"/>
	<path class="st1" d="M376.7,474.2l-0.5-2.6c2.4-0.5,4.9-0.7,6.8-0.7c4.2,0,6.5,1.2,6.5,5.8v12.2h-3.2v-1.8c0,0,0,0-0.1,0
		c-1.7,1.5-3.3,2.1-5.6,2.1c-3.5,0-5.6-2.1-5.6-5.2c0-4,3.2-5.4,7.4-5.4h3.9v-1.8c0-2.3-1.2-3.4-4.1-3.4
		C381,473.5,379.4,473.7,376.7,474.2z M386.4,480.6h-3.7c-3.3,0-4.4,1.2-4.4,3.2c0,1.9,1.4,3,3.7,3c2,0,3.6-0.8,4.4-1.5V480.6z"/>
	<path class="st1" d="M393.9,464.2h3.2v24.7h-3.2V464.2z"/>
	<path class="st1" d="M401.4,464.2h3.2v24.7h-3.2V464.2z"/>
</g>
<g>
	<path class="st1" d="M5.1,526H1.9v-17.7h3.2v2.5h0.1c1.7-1.7,3.8-2.8,6.3-2.8c3.5,0,5.3,2.1,5.3,5.8V526h-3.2v-11.5
		c0-2.3-0.9-3.9-3.5-3.9c-2,0-3.9,1.2-4.9,2V526z"/>
	<path class="st1" d="M23.9,517.7c0.1,3.5,1.7,6,5.8,6c1.7,0,3.5-0.1,5.5-0.7l0.4,2.6c-2.2,0.6-4.1,0.8-6.4,0.8
		c-6.5,0-8.8-3.7-8.8-9.2s2.3-9.2,8.7-9.2c5.4,0,6.9,3.1,7.1,6.1c0.1,1.1,0,2.4-0.2,3.6H23.9z M23.9,515.7h9
		c0.1-0.6,0.2-1.3,0.1-1.9c-0.1-1.8-1.2-3.4-4-3.4C25.5,510.4,24.2,512.7,23.9,515.7z"/>
	<path class="st1" d="M51.2,513.2l-3.6,12.9h-3.5l-5.4-17.8h3.5l3.9,14.3h0.1l3.5-14.3h3.1l3.7,14.3h0.1l3.7-14.3h3.4l-5.3,17.8
		h-3.5L51.2,513.2L51.2,513.2z"/>
	<path class="st1" d="M77.3,526h-3.2v-17.7h3.2v2.8h0.1c1.4-1.6,3.8-3.2,6.6-3.2v3c-2.6,0-5.3,1.1-6.7,2V526z"/>
	<path class="st1" d="M86.5,517.2c0-5.5,2.2-9.2,8.1-9.2c5.9,0,8.1,3.7,8.1,9.2s-2.2,9.2-8.1,9.2C88.7,526.3,86.5,522.6,86.5,517.2z
		 M89.9,517.2c0,3.7,1.1,6.5,4.8,6.5c3.7,0,4.8-2.8,4.8-6.5s-1.1-6.5-4.8-6.5C90.9,510.6,89.9,513.4,89.9,517.2z"/>
	<path class="st1" d="M118.2,508.3h3.2V526h-3.2v-2.5h-0.1c-1.7,1.7-3.8,2.8-6.3,2.8c-3.5,0-5.3-2.1-5.3-5.8v-12.2h3.2v11.5
		c0,2.3,1,3.9,3.5,3.9c2,0,3.9-1.2,4.9-2V508.3z"/>
	<path class="st1" d="M127,510.6h-2.6v-2.1l2.6-0.2l0.4-4.9h2.8v4.9h4.9v2.3h-4.9v9.7c0,2.3,0.7,3.5,3,3.5c0.5,0,1.1-0.1,1.8-0.2
		l0.3,2.5c-1,0.1-2.3,0.2-3.2,0.2c-3.6,0-5.1-1.5-5.1-5.5V510.6z"/>
	<path class="st1" d="M141.2,517.7c0.1,3.5,1.7,6,5.8,6c1.7,0,3.5-0.1,5.5-0.7l0.4,2.6c-2.2,0.6-4.1,0.8-6.4,0.8
		c-6.5,0-8.8-3.7-8.8-9.2s2.3-9.2,8.7-9.2c5.4,0,6.9,3.1,7.1,6.1c0.1,1.1,0,2.4-0.2,3.6H141.2z M141.2,515.7h9
		c0.1-0.6,0.2-1.3,0.1-1.9c-0.1-1.8-1.2-3.4-4-3.4C142.7,510.4,141.4,512.7,141.2,515.7z"/>
	<path class="st1" d="M163.9,526.3c-2.8,0-5.5-0.2-7.6-0.8l0.6-2.6c2.8,0.7,5.4,0.8,6.7,0.8c3.2,0,3.7-1.9,3.7-2.6
		c0-1.2-0.8-2-4-2.6c-3.7-0.7-6.6-1.9-6.6-5.6c0-3.4,2.4-4.9,6.5-4.9c2.7,0,4.9,0.3,7.1,0.8l-0.6,2.5c-2.8-0.7-5-0.8-6.3-0.8
		c-3.2,0-3.5,1.7-3.5,2.3c0,1.1,0.6,2,3.8,2.7c3.7,0.8,6.8,1.8,6.8,5.4C170.5,524.5,168.1,526.3,163.9,526.3z"/>
	<path class="st1" d="M184,502v4.4h-3.2V502H184z M184,508.3V526h-3.2v-17.7H184z"/>
	<path class="st1" d="M191.5,526h-3.2v-17.7h3.2v2.5h0.1c1.7-1.7,3.8-2.8,6.3-2.8c3.5,0,5.3,2.1,5.3,5.8V526H200v-11.5
		c0-2.3-0.9-3.9-3.5-3.9c-2,0-3.9,1.2-4.9,2V526z"/>
	<path class="st1" d="M208.6,510.6H206v-2.1l2.6-0.2l0.4-4.9h2.8v4.9h4.9v2.3h-4.9v9.7c0,2.3,0.7,3.5,3,3.5c0.5,0,1.1-0.1,1.8-0.2
		l0.3,2.5c-1,0.1-2.3,0.2-3.2,0.2c-3.6,0-5.1-1.5-5.1-5.5V510.6z"/>
	<path class="st1" d="M219.4,517.2c0-5.5,2.2-9.2,8.1-9.2c5.9,0,8.1,3.7,8.1,9.2s-2.2,9.2-8.1,9.2
		C221.6,526.3,219.4,522.6,219.4,517.2z M222.7,517.2c0,3.7,1.1,6.5,4.8,6.5c3.7,0,4.8-2.8,4.8-6.5s-1.1-6.5-4.8-6.5
		C223.8,510.6,222.7,513.4,222.7,517.2z"/>
	<path class="st1" d="M247.6,510.6H245v-2.1l2.6-0.2l0.4-4.9h2.8v4.9h4.9v2.3h-4.9v9.7c0,2.3,0.7,3.5,3,3.5c0.5,0,1.1-0.1,1.8-0.2
		l0.3,2.5c-1,0.1-2.3,0.2-3.2,0.2c-3.6,0-5.1-1.5-5.1-5.5V510.6z"/>
	<path class="st1" d="M261.8,517.7c0.1,3.5,1.7,6,5.8,6c1.7,0,3.5-0.1,5.5-0.7l0.4,2.6c-2.2,0.6-4.1,0.8-6.4,0.8
		c-6.5,0-8.8-3.7-8.8-9.2s2.3-9.2,8.7-9.2c5.4,0,6.9,3.1,7.1,6.1c0.1,1.1,0,2.4-0.2,3.6H261.8z M261.8,515.7h9
		c0.1-0.6,0.2-1.3,0.1-1.9c-0.1-1.8-1.2-3.4-4-3.4C263.3,510.4,262,512.7,261.8,515.7z"/>
	<path class="st1" d="M278.3,511.3l-0.5-2.6c2.4-0.5,4.9-0.7,6.8-0.7c4.2,0,6.5,1.2,6.5,5.8V526H288v-1.8c0,0,0,0-0.1,0
		c-1.7,1.5-3.3,2.1-5.6,2.1c-3.5,0-5.6-2.1-5.6-5.2c0-4,3.2-5.4,7.4-5.4h3.9V514c0-2.3-1.2-3.4-4.1-3.4
		C282.6,510.6,280.9,510.8,278.3,511.3z M288,517.7h-3.7c-3.3,0-4.4,1.2-4.4,3.2c0,1.9,1.4,3,3.7,3c2,0,3.6-0.8,4.4-1.5V517.7z"/>
	<path class="st1" d="M303.6,508c2.2,0,3.9,0.3,6,0.8l-0.6,2.5c-2.8-0.7-4.2-0.7-5.4-0.7c-3.7,0-5.3,2.6-5.3,6.5s1.6,6.5,5.3,6.5
		c1.2,0,2.6,0,5.4-0.7l0.6,2.6c-2.1,0.5-3.8,0.8-6,0.8c-6.5,0-8.7-3.7-8.7-9.2S297.1,508,303.6,508z"/>
	<path class="st1" d="M315.8,526h-3.2v-24.7h3.2v9.5h0.1c1.7-1.7,3.8-2.8,6.3-2.8c3.5,0,5.3,2.1,5.3,5.8V526h-3.2v-11.5
		c0-2.3-0.9-3.9-3.5-3.9c-2,0-3.9,1.2-4.9,2V526z"/>
	<path class="st1" d="M334.9,502v4.4h-3.2V502H334.9z M334.9,508.3V526h-3.2v-17.7H334.9z"/>
	<path class="st1" d="M342.4,526h-3.2v-17.7h3.2v2.5h0.1c1.7-1.7,3.8-2.8,6.3-2.8c3.5,0,5.3,2.1,5.3,5.8V526h-3.2v-11.5
		c0-2.3-0.9-3.9-3.5-3.9c-2,0-3.9,1.2-4.9,2V526z"/>
	<path class="st1" d="M359.9,524.8c-1-0.5-1.4-1.4-1.3-2.4c0-1.2,0.8-2.5,2.3-3.4v-0.1c-1.8-0.9-2.9-2.6-2.9-4.9c0-3.9,2.8-6,7.2-6
		c1,0,1.8,0.2,2.4,0.4h6.2v1.9h-3.4c1.4,1,1.7,2.5,1.7,3.7c0,4-3,5.8-7,5.8c-1,0-2-0.2-2.6-0.4c-0.3,0.3-0.5,0.7-0.7,1
		c-0.5,1.1-0.4,2.3,1,2.3l6.4,0.4c3.6,0.2,5.2,1.7,5.2,4.1c0,4.1-3.2,6.2-10.2,6.2c-4.8,0-7.2-1.4-7.2-4.6
		C356.9,527.2,357.8,526,359.9,524.8L359.9,524.8z M364.7,531.3c3.4,0,6.3-1.1,6.3-3.5c0-1.1-0.7-2-2.9-2.1l-6.5-0.4
		c-1.1,0.8-2,1.5-2,2.9C359.6,530.2,361.4,531.3,364.7,531.3z M369.3,514c0-2.4-1.6-3.9-4.1-3.9c-2.8,0-4.2,1.5-4.2,3.9
		c0,2.4,1.6,3.7,4.2,3.7C367.7,517.7,369.3,516.3,369.3,514z"/>
</g>
</svg>
