<!-- Generator: Adobe Illustrator 19.2.1, SVG Export Plug-In  -->
<svg version="1.1"
	 xmlns="http://www.w3.org/2000/svg" xmlns:xlink="http://www.w3.org/1999/xlink" xmlns:a="http://ns.adobe.com/AdobeSVGViewerExtensions/3.0/"
	 x="0px" y="0px" width="861.5px" height="332px" viewBox="0 0 861.5 332" style="enable-background:new 0 0 861.5 332;"
	 xml:space="preserve">
<style type="text/css">
	.st0{clip-path:url(#SVGID_2_);fill:#EAB82A;}
	.st1{fill:#FFFFFF;}
	.st2{fill:#EAB82A;}
	.st3{clip-path:url(#SVGID_4_);fill:#EAB82A;}
</style>
<defs>
</defs>
<g>
	<defs>
		<rect id="SVGID_1_" y="0" width="861.5" height="332"/>
	</defs>
	<clipPath id="SVGID_2_">
		<use xlink:href="#SVGID_1_"  style="overflow:visible;"/>
	</clipPath>
	<path class="st0" d="M147.2,0c0,0-50.8,0-50.8,50.8v230.4c0,0,0,50.8,50.8,50.8h597.6c0,0,50.8,0,50.8-50.8V50.8
		c0,0,0-50.8-50.8-50.8H147.2z"/>
</g>
<g>
	<path class="st1" d="M182.9,53.6c3.1,0,6,0.4,9.1,1.4l-1,2.5c-4-1-5.9-1.2-8.2-1.2c-7,0-9.3,5.2-10.1,11.3
		c-0.9,6.5-0.1,11.7,6.9,11.7c2.3,0,4.3-0.2,8.5-1.2l0.3,2.5c-3.4,1-6.4,1.4-9.5,1.4c-9.2,0-10.5-6.5-9.4-14.3
		C170.6,59.9,173.7,53.6,182.9,53.6z"/>
	<path class="st1" d="M191.6,71.4c0.9-6.2,3.9-10.5,10.5-10.5c6.6,0,8.4,4.3,7.6,10.5c-0.9,6.2-4,10.5-10.5,10.5
		S190.7,77.6,191.6,71.4z M194.6,71.4c-0.6,4.5,0.2,8.1,4.9,8.1c4.7,0,6.5-3.6,7.2-8.1c0.6-4.5-0.2-8.1-4.9-8.1
		S195.2,66.9,194.6,71.4z"/>
	<path class="st1" d="M229.2,61.3h2.8l-2.8,20.2h-2.8l0.4-2.9h-0.1c-2.3,1.9-5,3.3-8,3.3c-4,0-5.7-2.3-5.1-6.6l1.9-14h2.8l-1.9,13.3
		c-0.4,2.8,0.4,4.8,3.8,4.8c2.7,0,5.2-1.7,6.7-2.7L229.2,61.3z"/>
	<path class="st1" d="M237,81.5h-2.8l2.8-20.2h2.8l-0.4,2.9h0.1c2.3-2,5-3.3,7.9-3.3c4,0,5.7,2.3,5.1,6.6l-1.9,14h-2.8l1.9-13.3
		c0.4-2.8-0.4-4.8-3.8-4.8c-2.7,0-5.3,1.7-6.7,2.7L237,81.5z"/>
	<path class="st1" d="M267.6,60.9c2.5,0,4.3,0.3,6.6,0.9l-0.8,2.3c-3.1-0.8-4.8-0.8-6.1-0.8c-4.8,0-7.1,3.5-7.8,8.1
		c-0.7,4.6,0.7,8.1,5.5,8.1c1.3,0,3,0,6.3-0.8l0.2,2.3c-2.5,0.6-4.4,0.9-6.9,0.9c-7.1,0-9-4.3-8.1-10.5
		C257.4,65.2,260.5,60.9,267.6,60.9z"/>
	<path class="st1" d="M280.5,61.3l-2.8,20.2h-2.8l2.8-20.2H280.5z M281.6,54l-0.6,4.8h-2.8l0.6-4.8H281.6z"/>
	<path class="st1" d="M286.6,53.2h2.8l-4,28.2h-2.8L286.6,53.2z"/>
	<path class="st1" d="M300.5,81.5h-2.8l2.8-20.2h2.8l-0.4,2.9h0.1c1.9-1.7,4.2-3.3,7.2-3.3c2.9,0,4.7,1.2,5.1,3.6
		c2.1-2,4.9-3.6,7.8-3.6c4,0,5.7,2.3,5.1,6.6l-1.9,14h-2.8l1.9-13.3c0.4-2.8-0.4-4.8-3.8-4.8c-2.4,0-4.6,1.7-6.1,2.8
		c0,0.6-0.1,1.4-0.2,2.2l-1.9,13.2h-2.8l1.9-13.5c0.3-2.7-0.5-4.7-3.8-4.7c-2.4,0-4.5,1.6-6,2.7L300.5,81.5z"/>
	<path class="st1" d="M335.1,71.7c-0.6,4.5,0.8,7.7,6.1,7.7c2.1,0,4.1-0.1,6.4-0.8l0.1,2.3c-2.5,0.7-4.6,0.9-7.2,0.9
		c-7.3,0-9.3-4.3-8.4-10.5c0.9-6.2,4-10.5,11.1-10.5c6.3,0,7.3,3.9,6.9,7.3c-0.1,1.2-0.4,2.4-0.8,3.6H335.1z M335.4,69.9h11.5
		c0.3-0.8,0.4-1.6,0.5-2.4c0.2-2.3-0.9-4.4-4.5-4.4C338.2,63.1,336.2,66.1,335.4,69.9z"/>
	<path class="st1" d="M355.3,81.5h-2.8l2.8-20.2h2.8l-0.4,2.9h0.1c1.9-1.7,4.2-3.3,7.2-3.3c2.9,0,4.7,1.2,5.1,3.6
		c2.1-2,4.9-3.6,7.8-3.6c4,0,5.7,2.3,5.1,6.6l-1.9,14h-2.8l1.9-13.3c0.4-2.8-0.4-4.8-3.8-4.8c-2.4,0-4.6,1.7-6.1,2.8
		c0,0.6-0.1,1.4-0.2,2.2l-1.9,13.2h-2.8l1.9-13.5c0.3-2.7-0.5-4.7-3.8-4.7c-2.4,0-4.5,1.6-6,2.7L355.3,81.5z"/>
	<path class="st1" d="M391.3,63.3L391.3,63.3c1.8-1.4,4.3-2.4,6.8-2.4c5.6,0,6.9,4.6,6.1,10.5c-0.8,5.9-3.5,10.5-9.2,10.5
		c-2.5,0-4.7-0.9-6.1-2.3h-0.1l-0.8,2H386l4-28.3h2.8L391.3,63.3z M396.8,63.3c-2.5,0-4.7,1.2-5.7,1.9l-1.7,12.3
		c0.8,0.8,2.7,1.9,5.2,1.9c4.4,0,6.1-3.8,6.7-8.1C401.9,67.1,401.2,63.3,396.8,63.3z"/>
	<path class="st1" d="M411.4,71.7c-0.6,4.5,0.8,7.7,6.1,7.7c2.1,0,4.1-0.1,6.4-0.8L424,81c-2.5,0.7-4.6,0.9-7.2,0.9
		c-7.3,0-9.3-4.3-8.4-10.5c0.9-6.2,4-10.5,11.1-10.5c6.3,0,7.3,3.9,6.9,7.3c-0.1,1.2-0.4,2.4-0.8,3.6H411.4z M411.6,69.9H423
		c0.3-0.8,0.4-1.6,0.5-2.4c0.2-2.3-0.9-4.4-4.5-4.4C414.4,63.1,412.4,66.1,411.6,69.9z"/>
	<path class="st1" d="M431.6,81.5h-2.8l2.8-20.2h2.8l-0.4,3.2h0.1c2.1-1.8,5.2-3.6,8.4-3.6l-0.4,2.7c-3.2,0-6.6,1.6-8.4,2.7
		L431.6,81.5z"/>
	<path class="st1" d="M451.4,81.9c-3.1,0-5.9-0.3-8.3-0.9l0.8-2.3c3.1,0.8,6.1,0.9,7.5,0.9c4.3,0,5-2.7,5.2-3.5
		c0.2-1.5-0.5-2.7-4.6-3.5c-4-0.8-7.1-2.1-6.5-6.2c0.5-3.6,3.3-5.4,8-5.4c3.1,0,5.4,0.3,7.7,0.9l-0.8,2.3c-3.1-0.8-5.7-0.9-7.1-0.9
		c-4.2,0-4.9,2.4-5,3.1c-0.2,1.5,0.3,2.8,4.4,3.6c4.3,0.9,7.3,2.1,6.7,6C458.9,79.7,456.1,81.9,451.4,81.9z"/>
	<path class="st1" d="M474.3,71.7c-0.6,4.5,0.8,7.7,6.1,7.7c2.1,0,4.1-0.1,6.4-0.8l0.1,2.3c-2.5,0.7-4.6,0.9-7.2,0.9
		c-7.3,0-9.3-4.3-8.4-10.5c0.9-6.2,4-10.5,11.1-10.5c6.3,0,7.3,3.9,6.9,7.3c-0.1,1.2-0.4,2.4-0.8,3.6H474.3z M474.5,69.9H486
		c0.3-0.8,0.4-1.6,0.5-2.4c0.2-2.3-0.9-4.4-4.5-4.4C477.3,63.1,475.4,66.1,474.5,69.9z"/>
	<path class="st1" d="M494.5,81.5h-2.8l2.8-20.2h2.8l-0.4,2.9h0.1c2.3-2,5-3.3,7.9-3.3c4,0,5.7,2.3,5.1,6.6l-1.9,14h-2.8l1.9-13.3
		c0.4-2.8-0.4-4.8-3.8-4.8c-2.7,0-5.3,1.7-6.7,2.7L494.5,81.5z"/>
	<path class="st1" d="M520.8,81.9c-3.1,0-5.9-0.3-8.3-0.9l0.8-2.3c3.1,0.8,6.1,0.9,7.5,0.9c4.3,0,5-2.7,5.2-3.5
		c0.2-1.5-0.5-2.7-4.6-3.5c-4-0.8-7.1-2.1-6.5-6.2c0.5-3.6,3.3-5.4,8-5.4c3.1,0,5.4,0.3,7.7,0.9l-0.8,2.3c-3.1-0.8-5.7-0.9-7.1-0.9
		c-4.2,0-4.9,2.4-5,3.1c-0.2,1.5,0.3,2.8,4.4,3.6c4.3,0.9,7.3,2.1,6.7,6C528.3,79.7,525.5,81.9,520.8,81.9z"/>
	<path class="st1" d="M548.9,61.3h2.8l-2.8,20.2H546l0.4-2.9h-0.1c-2.3,1.9-5,3.3-8,3.3c-4,0-5.7-2.3-5.1-6.6l1.9-14h2.8l-1.9,13.3
		c-0.4,2.8,0.4,4.8,3.8,4.8c2.7,0,5.2-1.7,6.7-2.7L548.9,61.3z"/>
	<path class="st1" d="M556.6,81.5h-2.8l2.8-20.2h2.8l-0.4,3.2h0.1c2.1-1.8,5.2-3.6,8.4-3.6l-0.4,2.7c-3.2,0-6.6,1.6-8.4,2.7
		L556.6,81.5z"/>
	<path class="st1" d="M570,71.7c-0.6,4.5,0.8,7.7,6.1,7.7c2.1,0,4.1-0.1,6.4-0.8l0.1,2.3c-2.5,0.7-4.6,0.9-7.2,0.9
		c-7.3,0-9.3-4.3-8.4-10.5c0.9-6.2,4-10.5,11.1-10.5c6.3,0,7.3,3.9,6.9,7.3c-0.1,1.2-0.4,2.4-0.8,3.6H570z M570.2,69.9h11.5
		c0.3-0.8,0.4-1.6,0.5-2.4c0.2-2.3-0.9-4.4-4.5-4.4C573.1,63.1,571.1,66.1,570.2,69.9z"/>
	<path class="st1" d="M602.4,81.9c-3.1,0-5.9-0.3-8.3-0.9l0.8-2.3c3.1,0.8,6.1,0.9,7.5,0.9c4.3,0,5-2.7,5.2-3.5
		c0.2-1.5-0.5-2.7-4.6-3.5c-4-0.8-7.1-2.1-6.5-6.2c0.5-3.6,3.3-5.4,8-5.4c3.1,0,5.4,0.3,7.7,0.9l-0.8,2.3c-3.1-0.8-5.7-0.9-7.1-0.9
		c-4.2,0-4.9,2.4-5,3.1c-0.2,1.5,0.3,2.8,4.4,3.6c4.3,0.9,7.3,2.1,6.7,6C609.9,79.7,607.1,81.9,602.4,81.9z"/>
	<path class="st1" d="M618,71.7c-0.6,4.5,0.8,7.7,6.1,7.7c2.1,0,4.1-0.1,6.4-0.8l0.1,2.3c-2.5,0.7-4.6,0.9-7.2,0.9
		c-7.3,0-9.3-4.3-8.4-10.5c0.9-6.2,4-10.5,11.1-10.5c6.3,0,7.3,3.9,6.9,7.3c-0.1,1.2-0.4,2.4-0.8,3.6H618z M618.2,69.9h11.5
		c0.3-0.8,0.4-1.6,0.5-2.4c0.2-2.3-0.9-4.4-4.5-4.4C621.1,63.1,619.1,66.1,618.2,69.9z"/>
	<path class="st1" d="M638.2,81.5h-2.8l2.8-20.2h2.8l-0.4,3.2h0.1c2.1-1.8,5.2-3.6,8.4-3.6l-0.4,2.7c-3.2,0-6.6,1.6-8.4,2.7
		L638.2,81.5z"/>
	<path class="st1" d="M657.4,81.7l-4.8-20.4h3.2l3.8,17.1h0.1l8.7-17.1h3l-10.5,20.4H657.4z"/>
	<path class="st1" d="M678.5,61.3l-2.8,20.2h-2.8l2.8-20.2H678.5z M679.5,54l-0.6,4.8h-2.8l0.6-4.8H679.5z"/>
	<path class="st1" d="M692.7,60.9c2.5,0,4.3,0.3,6.6,0.9l-0.8,2.3c-3.1-0.8-4.8-0.8-6.1-0.8c-4.8,0-7.1,3.5-7.8,8.1
		c-0.7,4.6,0.7,8.1,5.5,8.1c1.3,0,3,0,6.3-0.8l0.2,2.3c-2.5,0.6-4.4,0.9-6.9,0.9c-7.1,0-9-4.3-8.1-10.5
		C682.5,65.2,685.6,60.9,692.7,60.9z"/>
	<path class="st1" d="M702.7,71.7c-0.6,4.5,0.8,7.7,6.1,7.7c2.1,0,4.1-0.1,6.4-0.8l0.1,2.3c-2.5,0.7-4.6,0.9-7.2,0.9
		c-7.3,0-9.3-4.3-8.4-10.5c0.9-6.2,4-10.5,11.1-10.5c6.3,0,7.3,3.9,6.9,7.3c-0.1,1.2-0.4,2.4-0.8,3.6H702.7z M703,69.9h11.5
		c0.3-0.8,0.4-1.6,0.5-2.4c0.2-2.3-0.9-4.4-4.5-4.4C705.8,63.1,703.8,66.1,703,69.9z"/>
	<path class="st1" d="M727.9,81.9c-3.1,0-5.9-0.3-8.3-0.9l0.8-2.3c3.1,0.8,6.1,0.9,7.5,0.9c4.3,0,5-2.7,5.2-3.5
		c0.2-1.5-0.5-2.7-4.6-3.5c-4-0.8-7.1-2.1-6.5-6.2c0.5-3.6,3.3-5.4,8-5.4c3.1,0,5.4,0.3,7.7,0.9l-0.8,2.3c-3.1-0.8-5.7-0.9-7.1-0.9
		c-4.2,0-4.9,2.4-5,3.1c-0.2,1.5,0.3,2.8,4.4,3.6c4.3,0.9,7.3,2.1,6.7,6C735.4,79.7,732.5,81.9,727.9,81.9z"/>
</g>
<g>
	<path class="st1" d="M181.5,127.8C181.5,127.8,181.5,127.8,181.5,127.8c-1.8,1.4-4.4,2.4-6.9,2.4c-5.6,0-6.8-4.6-6-10.5
		c0.8-5.9,3.5-10.5,9.1-10.5c2.4,0,4.6,0.9,6,2.3c0,0,0,0,0.1,0l1.4-10h2.8l-4,28.2h-2.8L181.5,127.8z M176,127.9
		c2.5,0,4.7-1.2,5.7-1.9l1.7-12.3c-0.8-0.8-2.7-1.9-5.2-1.9c-4.4,0-6.1,3.8-6.7,8.1C171,124.1,171.7,127.9,176,127.9z"/>
	<path class="st1" d="M193,120.1c-0.6,4.5,0.8,7.7,6.1,7.7c2.1,0,4.1-0.1,6.4-0.8l0.1,2.3c-2.5,0.7-4.6,0.9-7.2,0.9
		c-7.3,0-9.3-4.3-8.4-10.5c0.9-6.2,4-10.5,11.1-10.5c6.3,0,7.3,3.9,6.9,7.3c-0.1,1.2-0.4,2.4-0.8,3.6H193z M193.2,118.3h11.5
		c0.3-0.8,0.4-1.6,0.5-2.4c0.2-2.3-0.9-4.4-4.5-4.4C196,111.5,194.1,114.5,193.2,118.3z"/>
	<path class="st1" d="M214.3,101.6h2.8l-4,28.2h-2.8L214.3,101.6z"/>
	<path class="st1" d="M223.8,109.7l-2.8,20.2h-2.8l2.8-20.2H223.8z M224.8,102.4l-0.6,4.8h-2.8l0.6-4.8H224.8z"/>
	<path class="st1" d="M232.9,130.1l-4.8-20.4h3.2l3.8,17.1h0.1l8.7-17.1h3l-10.5,20.4H232.9z"/>
	<path class="st1" d="M250,120.1c-0.6,4.5,0.8,7.7,6.1,7.7c2.1,0,4.1-0.1,6.4-0.8l0.1,2.3c-2.5,0.7-4.6,0.9-7.2,0.9
		c-7.3,0-9.3-4.3-8.4-10.5c0.9-6.2,4-10.5,11.1-10.5c6.3,0,7.3,3.9,6.9,7.3c-0.1,1.2-0.4,2.4-0.8,3.6H250z M250.2,118.3h11.5
		c0.3-0.8,0.4-1.6,0.5-2.4c0.2-2.3-0.9-4.4-4.5-4.4C253,111.5,251.1,114.5,250.2,118.3z"/>
	<path class="st1" d="M270.2,129.9h-2.8l2.8-20.2h2.8l-0.4,3.2h0.1c2.1-1.8,5.2-3.6,8.4-3.6l-0.4,2.7c-3.2,0-6.6,1.6-8.4,2.7
		L270.2,129.9z"/>
	<path class="st1" d="M283.5,120.1c-0.6,4.5,0.8,7.7,6.1,7.7c2.1,0,4.1-0.1,6.4-0.8l0.1,2.3c-2.5,0.7-4.6,0.9-7.2,0.9
		c-7.3,0-9.3-4.3-8.4-10.5c0.9-6.2,4-10.5,11.1-10.5c6.3,0,7.3,3.9,6.9,7.3c-0.1,1.2-0.4,2.4-0.8,3.6H283.5z M283.8,118.3h11.5
		c0.3-0.8,0.4-1.6,0.5-2.4c0.2-2.3-0.9-4.4-4.5-4.4C286.6,111.5,284.6,114.5,283.8,118.3z"/>
	<path class="st1" d="M314.8,127.8C314.8,127.8,314.8,127.8,314.8,127.8c-1.8,1.4-4.4,2.4-6.9,2.4c-5.6,0-6.8-4.6-6-10.5
		c0.8-5.9,3.5-10.5,9.1-10.5c2.4,0,4.6,0.9,6,2.3c0,0,0,0,0.1,0l1.4-10h2.8l-4,28.2h-2.8L314.8,127.8z M309.3,127.9
		c2.5,0,4.7-1.2,5.7-1.9l1.7-12.3c-0.8-0.8-2.7-1.9-5.2-1.9c-4.4,0-6.1,3.8-6.7,8.1C304.3,124.1,305,127.9,309.3,127.9z"/>
	<path class="st1" d="M333.7,111.8h-3.2l0.2-1.9l3.2-0.2l1.1-5.6h2.5l-0.8,5.6h6l-0.3,2.1h-5.9l-1.7,11.7c-0.4,2.9,0.2,4.5,3.1,4.5
		c0.6,0,1.2,0,2.2-0.2l0,2.2c-1.1,0.2-2.5,0.3-3.4,0.3c-3.9,0-5.4-1.6-4.7-6.3L333.7,111.8z"/>
	<path class="st1" d="M343.5,119.8c0.9-6.2,3.9-10.5,10.5-10.5c6.6,0,8.4,4.3,7.6,10.5c-0.9,6.2-4,10.5-10.5,10.5
		S342.6,126,343.5,119.8z M346.5,119.8c-0.6,4.5,0.2,8.1,4.9,8.1c4.7,0,6.5-3.6,7.2-8.1c0.6-4.5-0.2-8.1-4.9-8.1
		S347.1,115.3,346.5,119.8z"/>
	<path class="st1" d="M376.1,111.8h-3.2l0.2-1.9l3.2-0.2l1.1-5.6h2.5l-0.8,5.6h6l-0.3,2.1h-5.9l-1.7,11.7c-0.4,2.9,0.2,4.5,3.1,4.5
		c0.6,0,1.2,0,2.2-0.2l0,2.2c-1.1,0.2-2.5,0.3-3.4,0.3c-3.9,0-5.4-1.6-4.7-6.3L376.1,111.8z"/>
	<path class="st1" d="M388.8,120.1c-0.6,4.5,0.8,7.7,6.1,7.7c2.1,0,4.1-0.1,6.4-0.8l0.1,2.3c-2.5,0.7-4.6,0.9-7.2,0.9
		c-7.3,0-9.3-4.3-8.4-10.5c0.9-6.2,4-10.5,11.1-10.5c6.3,0,7.3,3.9,6.9,7.3c-0.1,1.2-0.4,2.4-0.8,3.6H388.8z M389.1,118.3h11.5
		c0.3-0.8,0.4-1.6,0.5-2.4c0.2-2.3-0.9-4.4-4.5-4.4C391.9,111.5,389.9,114.5,389.1,118.3z"/>
	<path class="st1" d="M420.1,127.8L420.1,127.8c-1.8,1.4-4.4,2.4-6.9,2.4c-5.6,0-6.8-4.6-6-10.5c0.8-5.9,3.5-10.5,9.1-10.5
		c2.4,0,4.7,0.9,6.1,2.3h0.1l0.8-2h2.2l-2.9,20.2h-2.8L420.1,127.8z M414.7,127.9c2.5,0,4.7-1.2,5.7-1.9l1.7-12.3
		c-0.8-0.8-2.7-1.9-5.2-1.9c-4.4,0-6.1,3.8-6.7,8.1C409.6,124.1,410.3,127.9,414.7,127.9z"/>
	<path class="st1" d="M439.7,109.3c2.5,0,4.3,0.3,6.6,0.9l-0.8,2.3c-3.1-0.8-4.8-0.8-6.1-0.8c-4.8,0-7.1,3.5-7.8,8.1
		c-0.7,4.6,0.7,8.1,5.5,8.1c1.3,0,3,0,6.3-0.8l0.2,2.3c-2.5,0.6-4.4,0.9-6.9,0.9c-7.1,0-9-4.3-8.1-10.5
		C429.5,113.6,432.6,109.3,439.7,109.3z"/>
	<path class="st1" d="M449.8,129.9H447l4-28.2h2.8l-1.5,11h0.1c2.3-2,5-3.3,7.9-3.3c4,0,5.7,2.3,5.1,6.6l-1.9,14h-2.8l1.9-13.3
		c0.4-2.8-0.4-4.8-3.8-4.8c-2.7,0-5.3,1.7-6.7,2.7L449.8,129.9z"/>
	<path class="st1" d="M472.3,120.1c-0.6,4.5,0.8,7.7,6.1,7.7c2.1,0,4.1-0.1,6.4-0.8l0.1,2.3c-2.5,0.7-4.6,0.9-7.2,0.9
		c-7.3,0-9.3-4.3-8.4-10.5c0.9-6.2,4-10.5,11.1-10.5c6.3,0,7.3,3.9,6.9,7.3c-0.1,1.2-0.4,2.4-0.8,3.6H472.3z M472.6,118.3H484
		c0.3-0.8,0.4-1.6,0.5-2.4c0.2-2.3-0.9-4.4-4.5-4.4C475.4,111.5,473.4,114.5,472.6,118.3z"/>
	<path class="st1" d="M492.5,129.9h-2.8l2.8-20.2h2.8l-0.4,3.2h0.1c2.1-1.8,5.2-3.6,8.4-3.6L503,112c-3.2,0-6.6,1.6-8.4,2.7
		L492.5,129.9z"/>
	<path class="st1" d="M512.4,130.3c-3.1,0-5.9-0.3-8.3-0.9l0.8-2.3c3.1,0.8,6.1,0.9,7.5,0.9c4.3,0,5-2.7,5.2-3.5
		c0.2-1.5-0.5-2.7-4.6-3.5c-4-0.8-7.1-2.1-6.5-6.2c0.5-3.6,3.3-5.4,8-5.4c3.1,0,5.4,0.3,7.7,0.9l-0.8,2.3c-3.1-0.8-5.7-0.9-7.1-0.9
		c-4.2,0-4.9,2.4-5,3.1c-0.2,1.5,0.3,2.8,4.4,3.6c4.3,0.9,7.3,2.1,6.7,6C519.9,128.1,517.1,130.3,512.4,130.3z"/>
	<path class="st1" d="M536.6,111.7L536.6,111.7c1.8-1.4,4.3-2.4,6.8-2.4c5.6,0,6.9,4.6,6.1,10.5c-0.8,5.9-3.5,10.5-9.2,10.5
		c-2.5,0-4.7-0.9-6.1-2.3h-0.1l-0.8,2h-2.2l4-28.3h2.8L536.6,111.7z M542.1,111.7c-2.5,0-4.7,1.2-5.7,1.9l-1.7,12.3
		c0.8,0.8,2.7,1.9,5.2,1.9c4.4,0,6.1-3.8,6.7-8.1C547.2,115.5,546.5,111.7,542.1,111.7z"/>
	<path class="st1" d="M552.4,109.7h3.2l4,17.4h0.1l8.4-17.4h3l-10.8,21.6c-2.5,5-5,7-8.7,7c-0.9,0-1.9-0.1-2.7-0.3l0.6-2.4
		c0.7,0.2,1.2,0.2,1.8,0.2c3,0,4.9-3.1,6.2-5.6L552.4,109.7z"/>
	<path class="st1" d="M582,115.9c1.1-7.6,4.2-13.9,13.4-13.9c3.1,0,5.7,0.4,8.8,1.4l-1,2.5c-4-1-5.7-1.2-7.9-1.2
		c-7,0-9.3,5.2-10.1,11.3c-0.9,6.5-0.1,11.7,6.9,11.7c2.3,0,4.3-0.6,6-1.7l1-7.2h-5.7l0.4-2.7h8.7l-1.7,11.9
		c-2.6,1.1-5.4,2.3-9.4,2.3C582.2,130.3,580.9,123.8,582,115.9z"/>
	<path class="st1" d="M619.6,105.1l-3.5,24.8h-3l3.5-24.8h-7.7l0.4-2.7h18.5l-0.4,2.7H619.6z"/>
	<path class="st1" d="M642.1,102c3.1,0,6,0.4,9.1,1.4l-1,2.5c-4-1-5.9-1.2-8.2-1.2c-7,0-9.3,5.2-10.1,11.3
		c-0.9,6.5-0.1,11.7,6.9,11.7c2.3,0,4.3-0.2,8.5-1.2l0.3,2.5c-3.4,1-6.4,1.4-9.5,1.4c-9.2,0-10.5-6.5-9.4-14.3
		C629.8,108.3,632.9,102,642.1,102z"/>
</g>
<g>
	<path class="st1" d="M167.7,177.3l0.9-2.5c4,1,6.7,1.2,9,1.2c4.6,0,6.9-2.5,7.2-5c0.5-3.7-3.6-4.7-6.4-5.4
		c-4.2-1.1-8.1-3.5-7.5-8.1c0.7-5.1,5-7.1,10.2-7.1c3,0,5.8,0.4,8.9,1.4l-1,2.5c-4-1-6-1.2-8.2-1.2c-4.6,0-6.4,2.1-6.7,4.5
		c-0.5,3.5,3.9,4.8,6.7,5.5c4.2,1,7.9,3,7.2,7.7c-0.7,5.2-5.2,7.9-10.7,7.9C174.2,178.7,170.9,178.3,167.7,177.3z"/>
	<path class="st1" d="M203.9,157.7c2.5,0,4.3,0.3,6.6,0.9l-0.8,2.3c-3.1-0.8-4.8-0.8-6.1-0.8c-4.8,0-7.1,3.5-7.8,8.1
		c-0.7,4.6,0.7,8.1,5.5,8.1c1.3,0,3,0,6.3-0.8l0.2,2.3c-2.5,0.6-4.4,0.9-6.9,0.9c-7.1,0-9-4.3-8.1-10.5
		C193.7,162,196.8,157.7,203.9,157.7z"/>
	<path class="st1" d="M210.9,168.2c0.9-6.2,3.9-10.5,10.5-10.5c6.6,0,8.4,4.3,7.6,10.5c-0.9,6.2-4,10.5-10.5,10.5
		S210,174.4,210.9,168.2z M213.9,168.2c-0.6,4.5,0.2,8.1,4.9,8.1c4.7,0,6.5-3.6,7.2-8.1c0.6-4.5-0.2-8.1-4.9-8.1
		S214.5,163.7,213.9,168.2z"/>
	<path class="st1" d="M236.2,160.2H233l0.2-1.9l3.2-0.2l1.1-5.6h2.5l-0.8,5.6h6l-0.3,2.1H239l-1.7,11.7c-0.4,2.9,0.2,4.5,3.1,4.5
		c0.6,0,1.2,0,2.2-0.2l0,2.2c-1.1,0.2-2.5,0.3-3.4,0.3c-3.9,0-5.4-1.6-4.7-6.3L236.2,160.2z"/>
	<path class="st1" d="M251.1,150h2.8l-4,28.2h-2.8L251.1,150z"/>
	<path class="st1" d="M268.9,176.2L268.9,176.2c-1.8,1.4-4.4,2.4-6.9,2.4c-5.6,0-6.8-4.6-6-10.5c0.8-5.9,3.5-10.5,9.1-10.5
		c2.4,0,4.7,0.9,6.1,2.3h0.1l0.8-2h2.2l-2.9,20.2h-2.8L268.9,176.2z M263.4,176.3c2.5,0,4.7-1.2,5.7-1.9l1.7-12.3
		c-0.8-0.8-2.7-1.9-5.2-1.9c-4.4,0-6.1,3.8-6.7,8.1C258.3,172.5,259,176.3,263.4,176.3z"/>
	<path class="st1" d="M279.1,178.3h-2.8l2.8-20.2h2.8l-0.4,2.9h0.1c2.3-2,5-3.3,7.9-3.3c4,0,5.7,2.3,5.1,6.6l-1.9,14h-2.8l1.9-13.3
		c0.4-2.8-0.4-4.8-3.8-4.8c-2.7,0-5.3,1.7-6.7,2.7L279.1,178.3z"/>
	<path class="st1" d="M311.6,176.2C311.6,176.2,311.6,176.2,311.6,176.2c-1.8,1.4-4.4,2.4-6.9,2.4c-5.6,0-6.8-4.6-6-10.5
		c0.8-5.9,3.5-10.5,9.1-10.5c2.4,0,4.6,0.9,6,2.3c0,0,0,0,0.1,0l1.4-10h2.8l-4,28.2h-2.8L311.6,176.2z M306.1,176.3
		c2.5,0,4.7-1.2,5.7-1.9l1.7-12.3c-0.8-0.8-2.7-1.9-5.2-1.9c-4.4,0-6.1,3.8-6.7,8.1C301,172.5,301.8,176.3,306.1,176.3z"/>
	<path class="st1" d="M340.2,176.2L340.2,176.2c-1.8,1.4-4.4,2.4-6.9,2.4c-5.6,0-6.8-4.6-6-10.5c0.8-5.9,3.5-10.5,9.1-10.5
		c2.4,0,4.7,0.9,6.1,2.3h0.1l0.8-2h2.2l-2.9,20.2h-2.8L340.2,176.2z M334.8,176.3c2.5,0,4.7-1.2,5.7-1.9l1.7-12.3
		c-0.8-0.8-2.7-1.9-5.2-1.9c-4.4,0-6.1,3.8-6.7,8.1C329.7,172.5,330.4,176.3,334.8,176.3z"/>
	<path class="st1" d="M350.5,178.3h-2.8l2.8-20.2h2.8l-0.4,3.2h0.1c2.1-1.8,5.2-3.6,8.4-3.6l-0.4,2.7c-3.2,0-6.6,1.6-8.4,2.7
		L350.5,178.3z"/>
	<path class="st1" d="M363.9,168.5c-0.6,4.5,0.8,7.7,6.1,7.7c2.1,0,4.1-0.1,6.4-0.8l0.1,2.3c-2.5,0.7-4.6,0.9-7.2,0.9
		c-7.3,0-9.3-4.3-8.4-10.5c0.9-6.2,4-10.5,11.1-10.5c6.3,0,7.3,3.9,6.9,7.3c-0.1,1.2-0.4,2.4-0.8,3.6H363.9z M364.1,166.7h11.5
		c0.3-0.8,0.4-1.6,0.5-2.4c0.2-2.3-0.9-4.4-4.5-4.4C366.9,159.9,365,162.9,364.1,166.7z"/>
	<path class="st1" d="M389.5,168.2c0.9-6.2,3.9-10.5,10.5-10.5c6.6,0,8.4,4.3,7.6,10.5c-0.9,6.2-4,10.5-10.5,10.5
		S388.6,174.4,389.5,168.2z M392.5,168.2c-0.6,4.5,0.2,8.1,4.9,8.1c4.7,0,6.5-3.6,7.2-8.1c0.6-4.5-0.2-8.1-4.9-8.1
		S393.1,163.7,392.5,168.2z"/>
	<path class="st1" d="M418,158.1h5.2l-0.3,2.1h-5.1l-3.7,26.2h-2.8l3.7-26.2h-3.2l0.2-1.9l3.2-0.2l0.4-2.7c0.5-3.8,2.2-5.3,6.3-5.3
		c0.9,0,2,0.1,3,0.3l-0.6,2.2c-0.9-0.2-1.6-0.2-2.2-0.2c-2.6,0-3.5,0.8-3.8,3.3L418,158.1z"/>
	<path class="st1" d="M445.8,176.2L445.8,176.2c-1.8,1.4-4.4,2.4-6.9,2.4c-5.6,0-6.8-4.6-6-10.5c0.8-5.9,3.5-10.5,9.1-10.5
		c2.4,0,4.7,0.9,6.1,2.3h0.1l0.8-2h2.2l-2.9,20.2h-2.8L445.8,176.2z M440.3,176.3c2.5,0,4.7-1.2,5.7-1.9l1.7-12.3
		c-0.8-0.8-2.7-1.9-5.2-1.9c-4.4,0-6.1,3.8-6.7,8.1C435.2,172.5,436,176.3,440.3,176.3z"/>
	<path class="st1" d="M463.3,178.3h-2.8l4-28.2h2.8l-1.5,11h0.1c2.3-2,5-3.3,7.9-3.3c4,0,5.7,2.3,5.1,6.6l-1.9,14h-2.8l1.9-13.3
		c0.4-2.8-0.4-4.8-3.8-4.8c-2.7,0-5.3,1.7-6.7,2.7L463.3,178.3z"/>
	<path class="st1" d="M487.5,158.1l-2.8,20.2h-2.8l2.8-20.2H487.5z M488.6,150.8l-0.6,4.8h-2.8l0.6-4.8H488.6z"/>
	<path class="st1" d="M503.6,176.2L503.6,176.2c-1.8,1.4-4.4,2.4-6.9,2.4c-5.6,0-6.8-4.6-6-10.5c0.8-5.9,3.5-10.5,9.1-10.5
		c2.4,0,4.7,0.9,6.1,2.3h0.1l0.8-2h2.2l-2.8,19.6c-0.8,5.6-3.8,9.2-10.9,9.2c-2.5,0-4.3-0.3-6.7-0.9l0.8-2.3
		c3.1,0.8,4.8,0.8,6.1,0.8c4.8,0,7.1-2.1,7.8-6.8L503.6,176.2z M498.1,176.3c2.5,0,4.7-1.2,5.7-1.9l1.7-12.3
		c-0.8-0.8-2.7-1.9-5.2-1.9c-4.4,0-6.1,3.8-6.7,8.1C493,172.5,493.7,176.3,498.1,176.3z"/>
	<path class="st1" d="M513.8,178.3H511l4-28.2h2.8l-1.5,11h0.1c2.3-2,5-3.3,7.9-3.3c4,0,5.7,2.3,5.1,6.6l-1.9,14h-2.8l1.9-13.3
		c0.4-2.8-0.4-4.8-3.8-4.8c-2.7,0-5.3,1.7-6.7,2.7L513.8,178.3z"/>
	<path class="st1" d="M553.6,176.2L553.6,176.2c-1.8,1.4-4.4,2.4-6.9,2.4c-5.6,0-6.8-4.6-6-10.5c0.8-5.9,3.5-10.5,9.1-10.5
		c2.4,0,4.7,0.9,6.1,2.3h0.1l0.8-2h2.2l-4,28.3h-2.8L553.6,176.2z M548.1,176.3c2.5,0,4.7-1.2,5.7-1.9l1.7-12.3
		c-0.8-0.8-2.7-1.9-5.2-1.9c-4.4,0-6.1,3.8-6.7,8.1C543,172.5,543.7,176.3,548.1,176.3z"/>
	<path class="st1" d="M577.5,158.1h2.8l-2.8,20.2h-2.8l0.4-2.9H575c-2.3,1.9-5,3.3-8,3.3c-4,0-5.7-2.3-5.1-6.6l1.9-14h2.8l-1.9,13.3
		c-0.4,2.8,0.4,4.8,3.8,4.8c2.7,0,5.2-1.7,6.7-2.7L577.5,158.1z"/>
	<path class="st1" d="M596.3,176.2L596.3,176.2c-1.8,1.4-4.4,2.4-6.9,2.4c-5.6,0-6.8-4.6-6-10.5c0.8-5.9,3.5-10.5,9.1-10.5
		c2.4,0,4.7,0.9,6.1,2.3h0.1l0.8-2h2.2l-2.9,20.2H596L596.3,176.2z M590.8,176.3c2.5,0,4.7-1.2,5.7-1.9l1.7-12.3
		c-0.8-0.8-2.7-1.9-5.2-1.9c-4.4,0-6.1,3.8-6.7,8.1C585.8,172.5,586.5,176.3,590.8,176.3z"/>
	<path class="st1" d="M607.7,150h2.8l-4,28.2h-2.8L607.7,150z"/>
	<path class="st1" d="M617.2,158.1l-2.8,20.2h-2.8l2.8-20.2H617.2z M618.2,150.8l-0.6,4.8h-2.8l0.6-4.8H618.2z"/>
	<path class="st1" d="M623.4,160.2h-3.2l0.2-1.9l3.2-0.2l1.1-5.6h2.5l-0.8,5.6h6l-0.3,2.1h-5.9l-1.7,11.7c-0.4,2.9,0.2,4.5,3.1,4.5
		c0.6,0,1.2,0,2.2-0.2l0,2.2c-1.1,0.2-2.5,0.3-3.4,0.3c-3.9,0-5.4-1.6-4.7-6.3L623.4,160.2z"/>
	<path class="st1" d="M636.7,158.1h3.2l4,17.4h0.1l8.4-17.4h3l-10.8,21.6c-2.5,5-5,7-8.7,7c-0.9,0-1.9-0.1-2.7-0.3l0.6-2.4
		c0.7,0.2,1.2,0.2,1.8,0.2c3,0,4.9-3.1,6.2-5.6L636.7,158.1z"/>
</g>
<g>
	<path class="st1" d="M167.3,234v-24.4h9.1c8.4,0,10.8,5.1,10.8,12c0,7-2.4,12.4-10.8,12.4H167.3z M176.4,229.6c4.6,0,5.6-3.2,5.6-8
		s-1-7.6-5.6-7.6h-4.2v15.6H176.4z"/>
	<path class="st1" d="M207.1,214h-11.5v5.2h9.9v4.4h-9.9v6h11.7v4.4h-16.7v-24.4h16.5V214z"/>
	<path class="st1" d="M224.8,234l-5.1-8.7h-3.5v8.7h-4.9v-24.4h10.4c5.1,0,8.1,3.1,8.1,7.9c0,3.3-1.5,6.1-4.8,7l5.7,9.5H224.8z
		 M216.1,220.9h4.8c2,0,3.6-0.9,3.6-3.4c0-2.5-1.5-3.4-3.5-3.4h-4.9V220.9z"/>
	<path class="st1" d="M250.2,214h-11.5v5.2h9.9v4.4h-9.9v6h11.7v4.4h-16.7v-24.4h16.5V214z"/>
	<path class="st1" d="M259.3,220.7l9.2-11.1h5.9l-8.5,10.3l8.6,14.1h-6.2l-6-10.1l-3,3.6v6.6h-4.9v-24.4h4.9V220.7z"/>
	<path class="st1" d="M294.7,214v20h-4.9v-20h-6.4v-4.4h17.8v4.4H294.7z"/>
	<path class="st1" d="M304.6,234v-24.4h4.9v9.6h9.3v-9.6h4.9V234h-4.9v-10.4h-9.3V234H304.6z"/>
	<path class="st1" d="M327.2,221.6c0-6.9,2.3-12.4,10.9-12.4s10.8,5.5,10.8,12.4c0,7-2.3,12.7-10.8,12.7S327.2,228.6,327.2,221.6z
		 M332.4,221.6c0,4.8,0.9,8.6,5.7,8.6s5.6-3.8,5.6-8.6s-0.8-8.2-5.6-8.2S332.4,216.8,332.4,221.6z"/>
	<path class="st1" d="M365,225.8L365,225.8l5.8-16.2h6.5V234h-4.9v-15.5h-0.1l-5.8,15.5h-3.6l-5.7-15.5h-0.1V234h-4.8v-24.4h6.6
		L365,225.8z"/>
	<path class="st1" d="M386.5,225.4v8.6h-4.9v-24.4H392c5.1,0,8.1,3.2,8.1,7.9c0,4.8-2.9,7.9-8.1,7.9H386.5z M386.5,221h4.9
		c2.1,0,3.5-1,3.5-3.5c0-2.5-1.5-3.5-3.5-3.5h-4.9V221z"/>
	<path class="st1" d="M402.6,233l0.9-4.1c3.8,0.9,6.5,1.1,8.4,1.1c2.5,0,4-1.1,4-2.8c0-2.3-2.8-2.7-5.6-3.5
		c-4.2-1.2-7.3-3.5-7.3-7.6c0-4.9,4.1-6.8,8.9-6.8c2.8,0,5.3,0.4,8.6,1.4l-1.1,4.1c-3.8-0.9-5.6-1.1-7.5-1.1c-2.5,0-3.7,1.1-3.7,2.5
		c0,2,2.6,2.7,5.6,3.4c4.2,1,7.4,3,7.4,7.2c0,5.2-4,7.5-9.2,7.5C409.1,234.3,406,234,402.6,233z"/>
	<path class="st1" d="M424.2,221.6c0-6.9,2.3-12.4,10.9-12.4s10.8,5.5,10.8,12.4c0,7-2.3,12.7-10.8,12.7S424.2,228.6,424.2,221.6z
		 M429.4,221.6c0,4.8,0.9,8.6,5.7,8.6c4.8,0,5.6-3.8,5.6-8.6s-0.8-8.2-5.6-8.2C430.2,213.4,429.4,216.8,429.4,221.6z"/>
	<path class="st1" d="M449.3,234v-24.4h4.9l9.8,15.3h0.1v-15.3h4.8V234h-4.9l-9.8-14.8h-0.1V234H449.3z"/>
	<path class="st1" d="M473.5,238.6l0.9-4.7c-0.6,0-1.3,0-1.9,0v-5.2h4.7v5.2l-2.2,4.7H473.5z"/>
	<path class="st1" d="M504.2,209.2c2.9,0,5.4,0.4,8.8,1.4l-1.1,4.1c-3.8-0.9-5.4-1.1-7.3-1.1c-4.5,0-6.1,3.1-6.1,8
		c0,5.2,1.5,8.4,6.1,8.4c1.9,0,3.4-0.2,7.3-1.1l1.1,4.1c-3.3,1-5.9,1.3-8.8,1.3c-8.6,0-10.9-5.7-10.9-12.7
		C493.4,214.7,495.6,209.2,504.2,209.2z"/>
	<path class="st1" d="M514.6,221.6c0-6.9,2.3-12.4,10.9-12.4s10.8,5.5,10.8,12.4c0,7-2.3,12.7-10.8,12.7S514.6,228.6,514.6,221.6z
		 M519.8,221.6c0,4.8,0.9,8.6,5.7,8.6s5.6-3.8,5.6-8.6s-0.8-8.2-5.6-8.2S519.8,216.8,519.8,221.6z"/>
	<path class="st1" d="M554,225.4v-15.8h4.9v15.8c0,6.4-3.8,9-9.6,9s-9.6-2.6-9.6-9v-15.8h4.9v15.8c0,2.6,0.8,4.8,4.7,4.8
		C553.2,230.2,554,228,554,225.4z"/>
	<path class="st1" d="M563.2,234v-24.4h4.9l9.8,15.3h0.1v-15.3h4.8V234h-4.9l-9.8-14.8H568V234H563.2z"/>
	<path class="st1" d="M597.1,209.2c2.9,0,5.5,0.4,8.8,1.4l-1.1,4.1c-3.8-0.9-5.4-1.1-7.3-1.1c-4.5,0-6.1,3.1-6.1,8
		c0,5.2,1.5,8.4,6.1,8.4c1.9,0,3.4-0.2,7.3-1.1l1.1,4.1c-3.3,1-5.9,1.3-8.8,1.3c-8.6,0-10.9-5.7-10.9-12.7
		C586.2,214.7,588.5,209.2,597.1,209.2z"/>
	<path class="st1" d="M608.7,234v-24.4h4.9V234H608.7z"/>
	<path class="st1" d="M622.9,209.6v20h11.4v4.4h-16.3v-24.4H622.9z"/>
</g>
<g>
	<path class="st1" d="M177.8,252.3c2.9,0,5.5,0.4,8.8,1.4l-1.1,4.1c-3.8-0.9-5.4-1.1-7.3-1.1c-4.5,0-6.1,3.1-6.1,8
		c0,5.2,1.5,8.4,6.1,8.4c1.9,0,3.4-0.2,7.3-1.1l1.1,4.1c-3.3,1-5.9,1.3-8.8,1.3c-8.6,0-10.9-5.7-10.9-12.7
		C166.9,257.8,169.2,252.3,177.8,252.3z"/>
	<path class="st1" d="M188.2,264.6c0-6.9,2.3-12.4,10.9-12.4s10.8,5.5,10.8,12.4c0,7-2.3,12.7-10.8,12.7S188.2,271.6,188.2,264.6z
		 M193.4,264.6c0,4.8,0.9,8.6,5.7,8.6s5.6-3.8,5.6-8.6s-0.8-8.2-5.6-8.2S193.4,259.8,193.4,264.6z"/>
	<path class="st1" d="M213.3,277v-24.4h4.9l9.8,15.3h0.1v-15.3h4.8V277H228l-9.8-14.8h-0.1V277H213.3z"/>
	<path class="st1" d="M246.6,271l5.5-18.4h5.2l-7.8,24.6h-6l-7.9-24.6h5.5L246.6,271L246.6,271z"/>
	<path class="st1" d="M276.4,257h-11.5v5.2h9.9v4.4h-9.9v6h11.7v4.4h-16.7v-24.4h16.5V257z"/>
	<path class="st1" d="M280.5,277v-24.4h4.9l9.8,15.3h0.1v-15.3h4.8V277h-4.9l-9.8-14.8h-0.1V277H280.5z"/>
	<path class="st1" d="M320.8,257h-11.5v5.2h9.9v4.4h-9.9v6H321v4.4h-16.7v-24.4h16.5V257z"/>
	<path class="st1" d="M338.5,277l-5.1-8.7h-3.5v8.7h-4.9v-24.4h10.4c5.1,0,8.1,3.1,8.1,7.9c0,3.3-1.5,6.1-4.8,7l5.7,9.5H338.5z
		 M329.8,263.9h4.8c2,0,3.6-0.9,3.6-3.4c0-2.5-1.5-3.4-3.5-3.4h-4.9V263.9z"/>
	<path class="st1" d="M347.8,281.7l0.9-4.7c-0.6,0-1.3,0-1.9,0v-5.2h4.7v5.2l-2.2,4.7H347.8z"/>
	<path class="st1" d="M375.1,277l-5.1-8.7h-3.5v8.7h-4.9v-24.4H372c5.1,0,8.1,3.1,8.1,7.9c0,3.3-1.5,6.1-4.8,7l5.7,9.5H375.1z
		 M366.5,263.9h4.8c2,0,3.6-0.9,3.6-3.4c0-2.5-1.5-3.4-3.5-3.4h-4.9V263.9z"/>
	<path class="st1" d="M400.6,257h-11.5v5.2h9.9v4.4h-9.9v6h11.7v4.4h-16.7v-24.4h16.5V257z"/>
	<path class="st1" d="M404.3,264.6c0-6.9,2.3-12.4,10.9-12.4c2.9,0,5.4,0.4,8.7,1.4l-1.1,4.1c-3.8-0.9-5.3-1.1-7.2-1.1
		c-4.5,0-6.1,3.1-6.1,8c0,5.2,1.5,8.4,6.1,8.4c1.3,0,2.3-0.3,3.4-0.7v-4h-3.8v-4.4h8.7v11.8c-3,1.1-5.5,1.7-8.7,1.7
		C406.6,277.4,404.3,271.6,404.3,264.6z"/>
	<path class="st1" d="M428.1,277v-24.4h4.9V277H428.1z"/>
	<path class="st1" d="M436.3,276l0.9-4.1c3.8,0.9,6.5,1.1,8.4,1.1c2.5,0,4-1.1,4-2.8c0-2.3-2.8-2.7-5.6-3.5
		c-4.2-1.2-7.3-3.5-7.3-7.6c0-4.9,4.1-6.8,8.9-6.8c2.8,0,5.3,0.4,8.6,1.4l-1.1,4.1c-3.8-0.9-5.6-1.1-7.5-1.1c-2.5,0-3.7,1.1-3.7,2.5
		c0,2,2.6,2.7,5.6,3.4c4.2,1,7.4,3,7.4,7.2c0,5.2-4,7.5-9.2,7.5C442.7,277.4,439.6,277,436.3,276z"/>
	<path class="st1" d="M468.5,257v20h-4.9v-20h-6.4v-4.4h17.8v4.4H468.5z"/>
	<path class="st1" d="M492.1,277l-5.1-8.7h-3.5v8.7h-4.9v-24.4h10.4c5.1,0,8.1,3.1,8.1,7.9c0,3.3-1.5,6.1-4.8,7l5.7,9.5H492.1z
		 M483.4,263.9h4.8c2,0,3.6-0.9,3.6-3.4c0-2.5-1.5-3.4-3.5-3.4h-4.9V263.9z"/>
	<path class="st1" d="M514.5,271.5h-7.7l-1.6,5.5h-5.2l7.9-24.6h6l7.8,24.6h-5.4L514.5,271.5z M510.7,258.6l-2.8,8.8h5.7
		L510.7,258.6L510.7,258.6z"/>
	<path class="st1" d="M524.3,277v-24.4h4.9l9.8,15.3h0.1v-15.3h4.8V277H539l-9.8-14.8h-0.1V277H524.3z"/>
	<path class="st1" d="M558.8,257v20h-4.9v-20h-6.4v-4.4h17.8v4.4H558.8z"/>
</g>
<polygon class="st2" points="793.6,206 793.6,273.9 861.5,206 "/>
</svg>
