<!-- Generator: Adobe Illustrator 19.2.1, SVG Export Plug-In  -->
<svg version="1.1"
	 xmlns="http://www.w3.org/2000/svg" xmlns:xlink="http://www.w3.org/1999/xlink" xmlns:a="http://ns.adobe.com/AdobeSVGViewerExtensions/3.0/"
	 x="0px" y="0px" width="756.2px" height="351.1px" viewBox="0 0 756.2 351.1" style="enable-background:new 0 0 756.2 351.1;"
	 xml:space="preserve">
<style type="text/css">
	.st0{clip-path:url(#SVGID_2_);fill:#DC932F;}
	.st1{fill:#DC932F;}
	.st2{fill:#FFFFFF;}
	.st3{clip-path:url(#SVGID_4_);fill:#DC932F;}
</style>
<defs>
</defs>
<g>
	<defs>
		<rect id="SVGID_1_" width="756.2" height="351.1"/>
	</defs>
	<clipPath id="SVGID_2_">
		<use xlink:href="#SVGID_1_"  style="overflow:visible;"/>
	</clipPath>
	<path class="st0" d="M50.8,0C50.8,0,0,0,0,50.8v249.5c0,0,0,50.8,50.8,50.8h586.6c0,0,50.8,0,50.8-50.8V50.8c0,0,0-50.8-50.8-50.8
		H50.8z"/>
</g>
<polygon class="st1" points="688.2,223.9 688.2,291.9 756.2,223.9 "/>
<g>
	<path class="st2" d="M74.2,40.4H60.1l-1.3,9.2h12.2l-0.4,2.7H58.4L57,62.5h14.3l-0.4,2.7H53.7l3.8-27.4h17.1L74.2,40.4z"/>
	<path class="st2" d="M78.6,65.2h-2.8L78.6,45h2.8L81,48h0.1c2.3-2,5-3.3,7.9-3.3c4,0,5.7,2.3,5.1,6.6l-1.9,14h-2.8l1.9-13.3
		c0.4-2.8-0.4-4.8-3.8-4.8c-2.7,0-5.3,1.7-6.7,2.7L78.6,65.2z"/>
	<path class="st2" d="M110.9,63.2L110.9,63.2c-1.8,1.4-4.4,2.4-6.9,2.4c-5.6,0-6.8-4.6-6-10.5c0.8-5.9,3.5-10.5,9.1-10.5
		c2.4,0,4.7,0.9,6.1,2.3h0.1l0.8-2h2.2l-2.8,19.6c-0.8,5.6-3.8,9.2-10.9,9.2c-2.5,0-4.3-0.3-6.7-0.9l0.8-2.3
		c3.1,0.8,4.8,0.8,6.1,0.8c4.8,0,7.1-2.1,7.8-6.8L110.9,63.2z M105.4,63.2c2.5,0,4.7-1.2,5.7-1.9l1.7-12.3c-0.8-0.8-2.7-1.9-5.2-1.9
		c-4.4,0-6.1,3.8-6.7,8.1C100.3,59.5,101.1,63.2,105.4,63.2z"/>
	<path class="st2" d="M132.2,63.2L132.2,63.2c-1.8,1.4-4.4,2.4-6.9,2.4c-5.6,0-6.8-4.6-6-10.5c0.8-5.9,3.5-10.5,9.1-10.5
		c2.4,0,4.7,0.9,6.1,2.3h0.1l0.8-2h2.2l-2.9,20.2h-2.8L132.2,63.2z M126.7,63.2c2.5,0,4.7-1.2,5.7-1.9l1.7-12.3
		c-0.8-0.8-2.7-1.9-5.2-1.9c-4.4,0-6.1,3.8-6.7,8.1C121.6,59.5,122.4,63.2,126.7,63.2z"/>
	<path class="st2" d="M153.5,63.2L153.5,63.2c-1.8,1.4-4.4,2.4-6.9,2.4c-5.6,0-6.8-4.6-6-10.5c0.8-5.9,3.5-10.5,9.1-10.5
		c2.4,0,4.7,0.9,6.1,2.3h0.1l0.8-2h2.2l-2.8,19.6c-0.8,5.6-3.8,9.2-10.9,9.2c-2.5,0-4.3-0.3-6.7-0.9l0.8-2.3
		c3.1,0.8,4.8,0.8,6.1,0.8c4.8,0,7.1-2.1,7.8-6.8L153.5,63.2z M148,63.2c2.5,0,4.7-1.2,5.7-1.9l1.7-12.3c-0.8-0.8-2.7-1.9-5.2-1.9
		c-4.4,0-6.1,3.8-6.7,8.1C142.9,59.5,143.7,63.2,148,63.2z"/>
	<path class="st2" d="M166.5,45l-2.8,20.2h-2.8l2.8-20.2H166.5z M167.5,37.8l-0.6,4.8H164l0.6-4.8H167.5z"/>
	<path class="st2" d="M171.3,65.2h-2.8l2.8-20.2h2.8l-0.4,2.9h0.1c2.3-2,5-3.3,7.9-3.3c4,0,5.7,2.3,5.1,6.6l-1.9,14h-2.8l1.9-13.3
		c0.4-2.8-0.4-4.8-3.8-4.8c-2.7,0-5.3,1.7-6.7,2.7L171.3,65.2z"/>
	<path class="st2" d="M203.7,63.2L203.7,63.2c-1.8,1.4-4.4,2.4-6.9,2.4c-5.6,0-6.8-4.6-6-10.5c0.8-5.9,3.5-10.5,9.1-10.5
		c2.4,0,4.7,0.9,6.1,2.3h0.1l0.8-2h2.2l-2.8,19.6c-0.8,5.6-3.8,9.2-10.9,9.2c-2.5,0-4.3-0.3-6.7-0.9l0.8-2.3
		c3.1,0.8,4.8,0.8,6.1,0.8c4.8,0,7.1-2.1,7.8-6.8L203.7,63.2z M198.2,63.2c2.5,0,4.7-1.2,5.7-1.9l1.7-12.3c-0.8-0.8-2.7-1.9-5.2-1.9
		c-4.4,0-6.1,3.8-6.7,8.1C193.1,59.5,193.8,63.2,198.2,63.2z"/>
	<path class="st2" d="M223.9,45L221,65.2h-2.8L221,45H223.9z M224.9,37.8l-0.6,4.8h-2.8l0.6-4.8H224.9z"/>
	<path class="st2" d="M228.7,65.2h-2.8l2.8-20.2h2.8l-0.4,2.9h0.1c2.3-2,5-3.3,7.9-3.3c4,0,5.7,2.3,5.1,6.6l-1.9,14h-2.8l1.9-13.3
		c0.4-2.8-0.4-4.8-3.8-4.8c-2.7,0-5.3,1.7-6.7,2.7L228.7,65.2z"/>
	<path class="st2" d="M259.3,53.7l-1.6,11.5h-3l3.8-27.4h11.1c5.3,0,7.7,3.4,7.1,8c-0.7,4.8-4,7.9-9.3,7.9H259.3z M259.7,51h7.8
		c3.3,0,5.6-1.7,6.1-5.3c0.5-3.3-1.3-5.3-4.6-5.3h-7.8L259.7,51z"/>
	<path class="st2" d="M281.2,65.2h-2.8l2.8-20.2h2.8l-0.4,3.2h0.1c2.1-1.8,5.2-3.6,8.4-3.6l-0.4,2.7c-3.2,0-6.6,1.6-8.4,2.7
		L281.2,65.2z"/>
	<path class="st2" d="M291.5,55.1c0.9-6.2,3.9-10.5,10.5-10.5c6.6,0,8.4,4.3,7.6,10.5c-0.9,6.2-4,10.5-10.5,10.5
		S290.6,61.3,291.5,55.1z M294.5,55.1c-0.6,4.5,0.2,8.1,4.9,8.1c4.7,0,6.5-3.6,7.2-8.1c0.6-4.5-0.2-8.1-4.9-8.1
		S295.1,50.6,294.5,55.1z"/>
	<path class="st2" d="M319.9,45h5.2l-0.3,2.1h-5.1l-3.7,26.2h-2.8l3.7-26.2h-3.2l0.2-1.9l3.2-0.2l0.4-2.7c0.5-3.8,2.2-5.3,6.3-5.3
		c0.9,0,2,0.1,3,0.3l-0.6,2.2c-0.9-0.2-1.6-0.2-2.2-0.2c-2.6,0-3.5,0.8-3.8,3.3L319.9,45z"/>
	<path class="st2" d="M328,55.5c-0.6,4.5,0.8,7.7,6.1,7.7c2.1,0,4.1-0.1,6.4-0.8l0.1,2.3c-2.5,0.7-4.6,0.9-7.2,0.9
		c-7.3,0-9.3-4.3-8.4-10.5c0.9-6.2,4-10.5,11.1-10.5c6.3,0,7.3,3.9,6.9,7.3c-0.1,1.2-0.4,2.4-0.8,3.6H328z M328.2,53.6h11.5
		c0.3-0.8,0.4-1.6,0.5-2.4c0.2-2.3-0.9-4.4-4.5-4.4C331,46.8,329,49.9,328.2,53.6z"/>
	<path class="st2" d="M353,65.6c-3.1,0-5.9-0.3-8.3-0.9l0.8-2.3c3.1,0.8,6.1,0.9,7.5,0.9c4.3,0,5-2.7,5.2-3.5
		c0.2-1.5-0.5-2.7-4.6-3.5c-4-0.8-7.1-2.1-6.5-6.2c0.5-3.6,3.3-5.4,8-5.4c3.1,0,5.4,0.3,7.7,0.9l-0.8,2.3c-3.1-0.8-5.7-0.9-7.1-0.9
		c-4.2,0-4.9,2.4-5,3.1c-0.2,1.5,0.3,2.8,4.4,3.6c4.3,0.9,7.3,2.1,6.7,6C360.5,63.5,357.7,65.6,353,65.6z"/>
	<path class="st2" d="M372.3,65.6c-3.1,0-5.9-0.3-8.3-0.9l0.8-2.3c3.1,0.8,6.1,0.9,7.5,0.9c4.3,0,5-2.7,5.2-3.5
		c0.2-1.5-0.5-2.7-4.6-3.5c-4-0.8-7.1-2.1-6.5-6.2c0.5-3.6,3.3-5.4,8-5.4c3.1,0,5.4,0.3,7.7,0.9l-0.8,2.3c-3.1-0.8-5.7-0.9-7.1-0.9
		c-4.2,0-4.9,2.4-5,3.1c-0.2,1.5,0.3,2.8,4.4,3.6c4.3,0.9,7.3,2.1,6.7,6C379.8,63.5,377,65.6,372.3,65.6z"/>
	<path class="st2" d="M389.5,45l-2.8,20.2h-2.8l2.8-20.2H389.5z M390.5,37.8l-0.6,4.8H387l0.6-4.8H390.5z"/>
	<path class="st2" d="M392.5,55.1c0.9-6.2,3.9-10.5,10.5-10.5c6.6,0,8.4,4.3,7.6,10.5c-0.9,6.2-4,10.5-10.5,10.5
		S391.6,61.3,392.5,55.1z M395.5,55.1c-0.6,4.5,0.2,8.1,4.9,8.1c4.7,0,6.5-3.6,7.2-8.1c0.6-4.5-0.2-8.1-4.9-8.1
		C398,47,396.1,50.6,395.5,55.1z"/>
	<path class="st2" d="M416.4,65.2h-2.8l2.8-20.2h2.8l-0.4,2.9h0.1c2.3-2,5-3.3,7.9-3.3c4,0,5.7,2.3,5.1,6.6l-1.9,14h-2.8l1.9-13.3
		c0.4-2.8-0.4-4.8-3.8-4.8c-2.7,0-5.3,1.7-6.7,2.7L416.4,65.2z"/>
	<path class="st2" d="M448.8,63.2L448.8,63.2c-1.8,1.4-4.4,2.4-6.9,2.4c-5.6,0-6.8-4.6-6-10.5c0.8-5.9,3.5-10.5,9.1-10.5
		c2.4,0,4.7,0.9,6.1,2.3h0.1l0.8-2h2.2l-2.9,20.2h-2.8L448.8,63.2z M443.3,63.2c2.5,0,4.7-1.2,5.7-1.9l1.7-12.3
		c-0.8-0.8-2.7-1.9-5.2-1.9c-4.4,0-6.1,3.8-6.7,8.1C438.2,59.5,438.9,63.2,443.3,63.2z"/>
	<path class="st2" d="M460.1,37h2.8l-4,28.2h-2.8L460.1,37z"/>
	<path class="st2" d="M478.1,37.8l-3.5,24.8h13.9l-0.4,2.7h-16.9l3.8-27.4H478.1z"/>
	<path class="st2" d="M494.6,55.5c-0.6,4.5,0.8,7.7,6.1,7.7c2.1,0,4.1-0.1,6.4-0.8l0.1,2.3c-2.5,0.7-4.6,0.9-7.2,0.9
		c-7.3,0-9.3-4.3-8.4-10.5c0.9-6.2,4-10.5,11.1-10.5c6.2,0,7.3,3.9,6.9,7.3c-0.1,1.2-0.4,2.4-0.8,3.6H494.6z M494.8,53.6h11.5
		c0.3-0.8,0.4-1.6,0.5-2.4c0.2-2.3-0.9-4.4-4.5-4.4C497.6,46.8,495.7,49.9,494.8,53.6z"/>
	<path class="st2" d="M525.8,63.2L525.8,63.2c-1.8,1.4-4.4,2.4-6.9,2.4c-5.6,0-6.8-4.6-6-10.5c0.8-5.9,3.5-10.5,9.1-10.5
		c2.4,0,4.7,0.9,6.1,2.3h0.1l0.8-2h2.2l-2.9,20.2h-2.8L525.8,63.2z M520.3,63.2c2.5,0,4.7-1.2,5.7-1.9l1.7-12.3
		c-0.8-0.8-2.7-1.9-5.2-1.9c-4.4,0-6.1,3.8-6.7,8.1C515.2,59.5,515.9,63.2,520.3,63.2z"/>
	<path class="st2" d="M535.9,65.2h-2.8l2.8-20.2h2.8l-0.4,3.2h0.1c2.1-1.8,5.2-3.6,8.4-3.6l-0.4,2.7c-3.2,0-6.6,1.6-8.4,2.7
		L535.9,65.2z"/>
	<path class="st2" d="M550.7,65.2h-2.8l2.8-20.2h2.8l-0.4,2.9h0.1c2.3-2,5-3.3,7.9-3.3c4,0,5.7,2.3,5.1,6.6l-1.9,14h-2.8l1.9-13.3
		c0.4-2.8-0.4-4.8-3.8-4.8c-2.7,0-5.3,1.7-6.7,2.7L550.7,65.2z"/>
	<path class="st2" d="M574.8,45L572,65.2h-2.8L572,45H574.8z M575.8,37.8l-0.6,4.8h-2.8l0.6-4.8H575.8z"/>
	<path class="st2" d="M579.6,65.2h-2.8l2.8-20.2h2.8l-0.4,2.9h0.1c2.3-2,5-3.3,7.9-3.3c4,0,5.7,2.3,5.1,6.6l-1.9,14h-2.8l1.9-13.3
		c0.4-2.8-0.4-4.8-3.8-4.8c-2.7,0-5.3,1.7-6.7,2.7L579.6,65.2z"/>
	<path class="st2" d="M612,63.2L612,63.2c-1.8,1.4-4.4,2.4-6.9,2.4c-5.6,0-6.8-4.6-6-10.5c0.8-5.9,3.5-10.5,9.1-10.5
		c2.4,0,4.7,0.9,6.1,2.3h0.1l0.8-2h2.2l-2.8,19.6c-0.8,5.6-3.8,9.2-10.9,9.2c-2.5,0-4.3-0.3-6.7-0.9l0.8-2.3
		c3.1,0.8,4.8,0.8,6.1,0.8c4.8,0,7.1-2.1,7.8-6.8L612,63.2z M606.5,63.2c2.5,0,4.7-1.2,5.7-1.9l1.7-12.3c-0.8-0.8-2.7-1.9-5.2-1.9
		c-4.4,0-6.1,3.8-6.7,8.1C601.4,59.5,602.2,63.2,606.5,63.2z"/>
</g>
<g>
	<path class="st2" d="M67.2,111.6L67.2,111.6c-1.8,1.4-4.4,2.4-6.9,2.4c-5.6,0-6.8-4.6-6-10.5c0.8-5.9,3.5-10.5,9.1-10.5
		c2.4,0,4.7,0.9,6.1,2.3h0.1l0.8-2h2.2l-2.9,20.2h-2.8L67.2,111.6z M61.7,111.6c2.5,0,4.7-1.2,5.7-1.9l1.7-12.3
		c-0.8-0.8-2.7-1.9-5.2-1.9c-4.4,0-6.1,3.8-6.7,8.1C56.6,107.9,57.3,111.6,61.7,111.6z"/>
	<path class="st2" d="M77.4,113.6h-2.8l2.8-20.2h2.8l-0.4,2.9h0.1c2.3-2,5-3.3,7.9-3.3c4,0,5.7,2.3,5.1,6.6l-1.9,14h-2.8l1.9-13.3
		c0.4-2.8-0.4-4.8-3.8-4.8c-2.7,0-5.3,1.7-6.7,2.7L77.4,113.6z"/>
	<path class="st2" d="M109.7,111.6C109.7,111.6,109.7,111.6,109.7,111.6c-1.8,1.4-4.4,2.4-6.9,2.4c-5.6,0-6.8-4.6-6-10.5
		c0.8-5.9,3.5-10.5,9.1-10.5c2.4,0,4.6,0.9,6,2.3c0,0,0,0,0.1,0l1.4-10h2.8l-4,28.2h-2.8L109.7,111.6z M104.2,111.6
		c2.5,0,4.7-1.2,5.7-1.9l1.7-12.3c-0.8-0.8-2.7-1.9-5.2-1.9c-4.4,0-6.1,3.8-6.7,8.1C99.1,107.9,99.9,111.6,104.2,111.6z"/>
	<path class="st2" d="M132,114c-3.1,0-5.9-0.3-8.3-0.9l0.8-2.3c3.1,0.8,6.1,0.9,7.5,0.9c4.3,0,5-2.7,5.2-3.5
		c0.2-1.5-0.5-2.7-4.6-3.5c-4-0.8-7.1-2.1-6.5-6.2c0.5-3.6,3.3-5.4,8-5.4c3.1,0,5.4,0.3,7.7,0.9l-0.8,2.3c-3.1-0.8-5.7-0.9-7.1-0.9
		c-4.2,0-4.9,2.4-5,3.1c-0.2,1.5,0.3,2.8,4.4,3.6c4.3,0.9,7.3,2.1,6.7,6C139.5,111.9,136.6,114,132,114z"/>
	<path class="st2" d="M159.9,93.4h2.8l-2.8,20.2h-2.8l0.4-2.9h-0.1c-2.3,1.9-5,3.3-8,3.3c-4,0-5.7-2.3-5.1-6.6l1.9-14h2.8l-1.9,13.3
		c-0.4,2.8,0.4,4.8,3.8,4.8c2.7,0,5.2-1.7,6.7-2.7L159.9,93.4z"/>
	<path class="st2" d="M170.1,95.4L170.1,95.4c1.8-1.4,4.3-2.4,6.8-2.4c5.6,0,6.9,4.6,6.1,10.5c-0.8,5.9-3.5,10.5-9.2,10.5
		c-2.5,0-4.6-0.9-5.9-2.3h-0.1l-1.5,10h-2.8l4-28.2h2.8L170.1,95.4z M175.5,95.4c-2.5,0-4.7,1.2-5.7,1.9l-1.7,12.3
		c0.8,0.8,2.7,1.9,5.2,1.9c4.4,0,6.1-3.8,6.7-8.1C180.6,99.2,179.9,95.4,175.5,95.4z"/>
	<path class="st2" d="M191.3,95.4L191.3,95.4c1.8-1.4,4.3-2.4,6.8-2.4c5.6,0,6.9,4.6,6.1,10.5c-0.8,5.9-3.5,10.5-9.2,10.5
		c-2.5,0-4.6-0.9-5.9-2.3h-0.1l-1.5,10h-2.8l4-28.2h2.8L191.3,95.4z M196.8,95.4c-2.5,0-4.7,1.2-5.7,1.9l-1.7,12.3
		c0.8,0.8,2.7,1.9,5.2,1.9c4.4,0,6.1-3.8,6.7-8.1C201.9,99.2,201.2,95.4,196.8,95.4z"/>
	<path class="st2" d="M208.2,103.5c0.9-6.2,3.9-10.5,10.5-10.5c6.6,0,8.4,4.3,7.6,10.5c-0.9,6.2-4,10.5-10.5,10.5
		S207.4,109.7,208.2,103.5z M211.2,103.5c-0.6,4.5,0.2,8.1,4.9,8.1c4.7,0,6.5-3.6,7.2-8.1c0.6-4.5-0.2-8.1-4.9-8.1
		S211.8,99,211.2,103.5z"/>
	<path class="st2" d="M232.2,113.6h-2.8l2.8-20.2h2.8l-0.4,3.2h0.1c2.1-1.8,5.2-3.6,8.4-3.6l-0.4,2.7c-3.2,0-6.6,1.6-8.4,2.7
		L232.2,113.6z"/>
	<path class="st2" d="M248.3,95.5h-3.2l0.2-1.9l3.2-0.2l1.1-5.6h2.5l-0.8,5.6h6l-0.3,2.1h-5.9l-1.7,11.7c-0.4,2.9,0.2,4.5,3.1,4.5
		c0.6,0,1.2,0,2.2-0.2l0,2.2c-1.1,0.2-2.5,0.3-3.4,0.3c-3.9,0-5.4-1.6-4.7-6.3L248.3,95.5z"/>
	<path class="st2" d="M264.8,93.4l-2.8,20.2h-2.8l2.8-20.2H264.8z M265.8,86.2l-0.6,4.8h-2.8l0.6-4.8H265.8z"/>
	<path class="st2" d="M269.7,113.6h-2.8l2.8-20.2h2.8l-0.4,2.9h0.1c2.3-2,5-3.3,7.9-3.3c4,0,5.7,2.3,5.1,6.6l-1.9,14h-2.8l1.9-13.3
		c0.4-2.8-0.4-4.8-3.8-4.8c-2.7,0-5.3,1.7-6.7,2.7L269.7,113.6z"/>
	<path class="st2" d="M302.1,111.6L302.1,111.6c-1.8,1.4-4.4,2.4-6.9,2.4c-5.6,0-6.8-4.6-6-10.5c0.8-5.9,3.5-10.5,9.1-10.5
		c2.4,0,4.7,0.9,6.1,2.3h0.1l0.8-2h2.2l-2.8,19.6c-0.8,5.6-3.8,9.2-10.9,9.2c-2.5,0-4.3-0.3-6.7-0.9l0.8-2.3
		c3.1,0.8,4.8,0.8,6.1,0.8c4.8,0,7.1-2.1,7.8-6.8L302.1,111.6z M296.6,111.6c2.5,0,4.7-1.2,5.7-1.9l1.7-12.3
		c-0.8-0.8-2.7-1.9-5.2-1.9c-4.4,0-6.1,3.8-6.7,8.1C291.5,107.9,292.2,111.6,296.6,111.6z"/>
	<path class="st2" d="M320.6,103.9c-0.6,4.5,0.8,7.7,6.1,7.7c2.1,0,4.1-0.1,6.4-0.8l0.1,2.3c-2.5,0.7-4.6,0.9-7.2,0.9
		c-7.3,0-9.3-4.3-8.4-10.5c0.9-6.2,4-10.5,11.1-10.5c6.3,0,7.3,3.9,6.9,7.3c-0.1,1.2-0.4,2.4-0.8,3.6H320.6z M320.8,102h11.5
		c0.3-0.8,0.4-1.6,0.5-2.4c0.2-2.3-0.9-4.4-4.5-4.4C323.6,95.2,321.7,98.3,320.8,102z"/>
	<path class="st2" d="M351.8,111.6L351.8,111.6c-1.8,1.4-4.4,2.4-6.9,2.4c-5.6,0-6.8-4.6-6-10.5c0.8-5.9,3.5-10.5,9.1-10.5
		c2.4,0,4.7,0.9,6.1,2.3h0.1l0.8-2h2.2l-4,28.3h-2.8L351.8,111.6z M346.3,111.6c2.5,0,4.7-1.2,5.7-1.9l1.7-12.3
		c-0.8-0.8-2.7-1.9-5.2-1.9c-4.4,0-6.1,3.8-6.7,8.1C341.2,107.9,341.9,111.6,346.3,111.6z"/>
	<path class="st2" d="M375.5,93.4h2.8l-2.8,20.2h-2.8l0.4-2.9H373c-2.3,1.9-5,3.3-8,3.3c-4,0-5.7-2.3-5.1-6.6l1.9-14h2.8l-1.9,13.3
		c-0.4,2.8,0.4,4.8,3.8,4.8c2.7,0,5.2-1.7,6.7-2.7L375.5,93.4z"/>
	<path class="st2" d="M386,93.4l-2.8,20.2h-2.8l2.8-20.2H386z M387,86.2l-0.6,4.8h-2.8l0.6-4.8H387z"/>
	<path class="st2" d="M392.2,95.5H389l0.2-1.9l3.2-0.2l1.1-5.6h2.5l-0.8,5.6h6l-0.3,2.1H395l-1.7,11.7c-0.4,2.9,0.2,4.5,3.1,4.5
		c0.6,0,1.2,0,2.2-0.2l0,2.2c-1.1,0.2-2.5,0.3-3.4,0.3c-3.9,0-5.4-1.6-4.7-6.3L392.2,95.5z"/>
	<path class="st2" d="M405.3,93.4h3.2l4,17.4h0.1l8.4-17.4h3L413.2,115c-2.5,5-5,7-8.7,7c-0.9,0-1.9-0.1-2.7-0.3l0.6-2.4
		c0.7,0.2,1.3,0.2,1.8,0.2c3,0,4.9-3.1,6.2-5.6L405.3,93.4z"/>
	<path class="st2" d="M446.6,111.6L446.6,111.6c-1.8,1.4-4.4,2.4-6.9,2.4c-5.6,0-6.8-4.6-6-10.5c0.8-5.9,3.5-10.5,9.1-10.5
		c2.4,0,4.7,0.9,6.1,2.3h0.1l0.8-2h2.2l-2.9,20.2h-2.8L446.6,111.6z M441.1,111.6c2.5,0,4.7-1.2,5.7-1.9l1.7-12.3
		c-0.8-0.8-2.7-1.9-5.2-1.9c-4.4,0-6.1,3.8-6.7,8.1C436,107.9,436.7,111.6,441.1,111.6z"/>
	<path class="st2" d="M456.7,113.6h-2.8l2.8-20.2h2.8l-0.4,2.9h0.1c2.3-2,5-3.3,7.9-3.3c4,0,5.7,2.3,5.1,6.6l-1.9,14h-2.8l1.9-13.3
		c0.4-2.8-0.4-4.8-3.8-4.8c-2.7,0-5.3,1.7-6.7,2.7L456.7,113.6z"/>
	<path class="st2" d="M489.1,111.6C489.1,111.6,489.1,111.6,489.1,111.6c-1.8,1.4-4.4,2.4-6.9,2.4c-5.6,0-6.8-4.6-6-10.5
		c0.8-5.9,3.5-10.5,9.1-10.5c2.4,0,4.6,0.9,6,2.3c0,0,0,0,0.1,0l1.4-10h2.8l-4,28.2h-2.8L489.1,111.6z M483.6,111.6
		c2.5,0,4.7-1.2,5.7-1.9l1.7-12.3c-0.8-0.8-2.7-1.9-5.2-1.9c-4.4,0-6.1,3.8-6.7,8.1C478.5,107.9,479.3,111.6,483.6,111.6z"/>
</g>
<g>
	<path class="st2" d="M57.3,152.3c-0.6,4.5,0.8,7.7,6.1,7.7c2.1,0,4.1-0.1,6.4-0.8l0.1,2.3c-2.5,0.7-4.6,0.9-7.2,0.9
		c-7.3,0-9.3-4.3-8.4-10.5c0.9-6.2,4-10.5,11.1-10.5c6.3,0,7.3,3.9,6.9,7.3c-0.1,1.2-0.4,2.4-0.8,3.6H57.3z M57.5,150.4H69
		c0.3-0.8,0.4-1.6,0.5-2.4c0.2-2.3-0.9-4.4-4.5-4.4C60.3,143.6,58.4,146.7,57.5,150.4z"/>
	<path class="st2" d="M82.7,153.6L82.7,153.6l-7.2,8.4h-3.1l9.1-10.5l-5.6-9.6h3.3l4.5,7.6h0.1l6.5-7.6h3l-8.3,9.6l6.3,10.6h-3.4
		L82.7,153.6z"/>
	<path class="st2" d="M104.5,141.4c2.5,0,4.3,0.3,6.6,0.9l-0.8,2.3c-3.1-0.8-4.8-0.8-6.1-0.8c-4.8,0-7.1,3.5-7.8,8.1
		c-0.7,4.6,0.7,8.1,5.5,8.1c1.3,0,3,0,6.3-0.8l0.2,2.3c-2.5,0.6-4.4,0.9-6.9,0.9c-7.1,0-9-4.3-8.1-10.5
		C94.3,145.7,97.4,141.4,104.5,141.4z"/>
	<path class="st2" d="M114.3,152.3c-0.6,4.5,0.8,7.7,6.1,7.7c2.1,0,4.1-0.1,6.4-0.8l0.1,2.3c-2.5,0.7-4.6,0.9-7.2,0.9
		c-7.3,0-9.3-4.3-8.4-10.5c0.9-6.2,4-10.5,11.1-10.5c6.3,0,7.3,3.9,6.9,7.3c-0.1,1.2-0.4,2.4-0.8,3.6H114.3z M114.6,150.4H126
		c0.3-0.8,0.4-1.6,0.5-2.4c0.2-2.3-0.9-4.4-4.5-4.4C117.4,143.6,115.4,146.7,114.6,150.4z"/>
	<path class="st2" d="M135.6,133.8h2.8l-4,28.2h-2.8L135.6,133.8z"/>
	<path class="st2" d="M143.2,133.8h2.8l-4,28.2h-2.8L143.2,133.8z"/>
	<path class="st2" d="M150.9,152.3c-0.6,4.5,0.8,7.7,6.1,7.7c2.1,0,4.1-0.1,6.4-0.8l0.1,2.3c-2.5,0.7-4.6,0.9-7.2,0.9
		c-7.3,0-9.3-4.3-8.4-10.5c0.9-6.2,4-10.5,11.1-10.5c6.3,0,7.3,3.9,6.9,7.3c-0.1,1.2-0.4,2.4-0.8,3.6H150.9z M151.2,150.4h11.5
		c0.3-0.8,0.4-1.6,0.5-2.4c0.2-2.3-0.9-4.4-4.5-4.4C154,143.6,152,146.7,151.2,150.4z"/>
	<path class="st2" d="M171,162h-2.8l2.8-20.2h2.8l-0.4,2.9h0.1c2.3-2,5-3.3,7.9-3.3c4,0,5.7,2.3,5.1,6.6l-1.9,14h-2.8l1.9-13.3
		c0.4-2.8-0.4-4.8-3.8-4.8c-2.7,0-5.3,1.7-6.7,2.7L171,162z"/>
	<path class="st2" d="M201.5,141.4c2.5,0,4.3,0.3,6.6,0.9l-0.8,2.3c-3.1-0.8-4.8-0.8-6.1-0.8c-4.8,0-7.1,3.5-7.8,8.1
		c-0.7,4.6,0.7,8.1,5.5,8.1c1.3,0,3,0,6.3-0.8l0.2,2.3c-2.5,0.6-4.4,0.9-6.9,0.9c-7.1,0-9-4.3-8.1-10.5
		C191.3,145.7,194.4,141.4,201.5,141.4z"/>
	<path class="st2" d="M211.4,152.3c-0.6,4.5,0.8,7.7,6.1,7.7c2.1,0,4.1-0.1,6.4-0.8l0.1,2.3c-2.5,0.7-4.6,0.9-7.2,0.9
		c-7.3,0-9.3-4.3-8.4-10.5c0.9-6.2,4-10.5,11.1-10.5c6.3,0,7.3,3.9,6.9,7.3c-0.1,1.2-0.4,2.4-0.8,3.6H211.4z M211.6,150.4h11.5
		c0.3-0.8,0.4-1.6,0.5-2.4c0.2-2.3-0.9-4.4-4.5-4.4C214.5,143.6,212.5,146.7,211.6,150.4z"/>
	<path class="st2" d="M241.5,141.8l-2.8,20.2h-2.8l2.8-20.2H241.5z M242.5,134.6l-0.6,4.8H239l0.6-4.8H242.5z"/>
	<path class="st2" d="M251.2,162.4c-3.1,0-5.9-0.3-8.3-0.9l0.8-2.3c3.1,0.8,6.1,0.9,7.5,0.9c4.3,0,5-2.7,5.2-3.5
		c0.2-1.5-0.5-2.7-4.6-3.5c-4-0.8-7.1-2.1-6.5-6.2c0.5-3.6,3.3-5.4,8-5.4c3.1,0,5.4,0.3,7.7,0.9l-0.8,2.3c-3.1-0.8-5.7-0.9-7.1-0.9
		c-4.2,0-4.9,2.4-5,3.1c-0.2,1.5,0.3,2.8,4.4,3.6c4.3,0.9,7.3,2.1,6.7,6C258.7,160.3,255.9,162.4,251.2,162.4z"/>
	<path class="st2" d="M283.8,160L283.8,160c-1.8,1.4-4.4,2.4-6.9,2.4c-5.6,0-6.8-4.6-6-10.5c0.8-5.9,3.5-10.5,9.1-10.5
		c2.4,0,4.7,0.9,6.1,2.3h0.1l0.8-2h2.2l-2.9,20.2h-2.8L283.8,160z M278.3,160c2.5,0,4.7-1.2,5.7-1.9l1.7-12.3
		c-0.8-0.8-2.7-1.9-5.2-1.9c-4.4,0-6.1,3.8-6.7,8.1C273.3,156.3,274,160,278.3,160z"/>
	<path class="st2" d="M295.3,143.9h-3.2l0.2-1.9l3.2-0.2l1.1-5.6h2.5l-0.8,5.6h6l-0.3,2.1h-5.9l-1.7,11.7c-0.4,2.9,0.2,4.5,3.1,4.5
		c0.6,0,1.2,0,2.2-0.2l0,2.2c-1.1,0.2-2.5,0.3-3.4,0.3c-3.9,0-5.4-1.6-4.7-6.3L295.3,143.9z"/>
	<path class="st2" d="M317.5,143.9h-3.2l0.2-1.9l3.2-0.2l1.1-5.6h2.5l-0.8,5.6h6l-0.3,2.1h-5.9l-1.7,11.7c-0.4,2.9,0.2,4.5,3.1,4.5
		c0.6,0,1.2,0,2.2-0.2l0,2.2c-1.1,0.2-2.5,0.3-3.4,0.3c-3.9,0-5.4-1.6-4.7-6.3L317.5,143.9z"/>
	<path class="st2" d="M331.2,162h-2.8l4-28.2h2.8l-1.5,11h0.1c2.3-2,5-3.3,7.9-3.3c4,0,5.7,2.3,5.1,6.6l-1.9,14H342l1.9-13.3
		c0.4-2.8-0.4-4.8-3.8-4.8c-2.7,0-5.3,1.7-6.7,2.7L331.2,162z"/>
	<path class="st2" d="M353.6,152.3c-0.6,4.5,0.8,7.7,6.1,7.7c2.1,0,4.1-0.1,6.4-0.8l0.1,2.3c-2.5,0.7-4.6,0.9-7.2,0.9
		c-7.3,0-9.3-4.3-8.4-10.5c0.9-6.2,4-10.5,11.1-10.5c6.3,0,7.3,3.9,6.9,7.3c-0.1,1.2-0.4,2.4-0.8,3.6H353.6z M353.9,150.4h11.5
		c0.3-0.8,0.4-1.6,0.5-2.4c0.2-2.3-0.9-4.4-4.5-4.4C356.7,143.6,354.7,146.7,353.9,150.4z"/>
	<path class="st2" d="M380.9,162h-2.8l4-28.2h2.8l-1.5,11h0.1c2.3-2,5-3.3,7.9-3.3c4,0,5.7,2.3,5.1,6.6l-1.9,14h-2.8l1.9-13.3
		c0.4-2.8-0.4-4.8-3.8-4.8c-2.7,0-5.3,1.7-6.7,2.7L380.9,162z"/>
	<path class="st2" d="M403.3,152.3c-0.6,4.5,0.8,7.7,6.1,7.7c2.1,0,4.1-0.1,6.4-0.8l0.1,2.3c-2.5,0.7-4.6,0.9-7.2,0.9
		c-7.3,0-9.3-4.3-8.4-10.5c0.9-6.2,4-10.5,11.1-10.5c6.3,0,7.3,3.9,6.9,7.3c-0.1,1.2-0.4,2.4-0.8,3.6H403.3z M403.5,150.4H415
		c0.3-0.8,0.4-1.6,0.5-2.4c0.2-2.3-0.9-4.4-4.5-4.4C406.4,143.6,404.4,146.7,403.5,150.4z"/>
	<path class="st2" d="M434.5,160L434.5,160c-1.8,1.4-4.4,2.4-6.9,2.4c-5.6,0-6.8-4.6-6-10.5c0.8-5.9,3.5-10.5,9.1-10.5
		c2.4,0,4.7,0.9,6.1,2.3h0.1l0.8-2h2.2L437,162h-2.8L434.5,160z M429,160c2.5,0,4.7-1.2,5.7-1.9l1.7-12.3c-0.8-0.8-2.7-1.9-5.2-1.9
		c-4.4,0-6.1,3.8-6.7,8.1C423.9,156.3,424.6,160,429,160z"/>
	<path class="st2" d="M444.6,162h-2.8l2.8-20.2h2.8l-0.4,3.2h0.1c2.1-1.8,5.2-3.6,8.4-3.6l-0.4,2.7c-3.2,0-6.6,1.6-8.4,2.7
		L444.6,162z"/>
	<path class="st2" d="M460.8,143.9h-3.2l0.2-1.9l3.2-0.2l1.1-5.6h2.5l-0.8,5.6h6l-0.3,2.1h-5.9l-1.7,11.7c-0.4,2.9,0.2,4.5,3.1,4.5
		c0.6,0,1.2,0,2.2-0.2l0,2.2c-1.1,0.2-2.5,0.3-3.4,0.3c-3.9,0-5.4-1.6-4.7-6.3L460.8,143.9z"/>
	<path class="st2" d="M479.8,151.9c0.9-6.2,3.9-10.5,10.5-10.5c6.6,0,8.4,4.3,7.6,10.5c-0.9,6.2-4,10.5-10.5,10.5
		S478.9,158.1,479.8,151.9z M482.8,151.9c-0.6,4.5,0.2,8.1,4.9,8.1s6.5-3.6,7.2-8.1c0.6-4.5-0.2-8.1-4.9-8.1
		C485.3,143.8,483.4,147.4,482.8,151.9z"/>
	<path class="st2" d="M508.1,141.8h5.2l-0.3,2.1h-5.1l-3.7,26.2h-2.8l3.7-26.2h-3.2l0.2-1.9l3.2-0.2l0.4-2.7
		c0.5-3.8,2.2-5.3,6.3-5.3c0.9,0,2,0.1,3,0.3l-0.6,2.2c-0.9-0.2-1.6-0.2-2.2-0.2c-2.6,0-3.5,0.8-3.8,3.3L508.1,141.8z"/>
</g>
<g>
	<path class="st2" d="M68.9,194.6l-6.8,16H59l-3.4-20.4h3.1l2.5,17.1h0.1l7-17.1H71l2.3,17.1h0.1l7.2-17.1h2.9l-9,20.4h-3.1
		L68.9,194.6L68.9,194.6z"/>
	<path class="st2" d="M87.8,210.4H85l4-28.2h2.8l-1.5,11h0.1c2.3-2,5-3.3,7.9-3.3c4,0,5.7,2.3,5.1,6.6l-1.9,14h-2.8l1.9-13.3
		c0.4-2.8-0.4-4.8-3.8-4.8c-2.7,0-5.3,1.7-6.7,2.7L87.8,210.4z"/>
	<path class="st2" d="M120.2,208.4L120.2,208.4c-1.8,1.4-4.4,2.4-6.9,2.4c-5.6,0-6.8-4.6-6-10.5c0.8-5.9,3.5-10.5,9.1-10.5
		c2.4,0,4.7,0.9,6.1,2.3h0.1l0.8-2h2.2l-2.9,20.2h-2.8L120.2,208.4z M114.7,208.4c2.5,0,4.7-1.2,5.7-1.9l1.7-12.3
		c-0.8-0.8-2.7-1.9-5.2-1.9c-4.4,0-6.1,3.8-6.7,8.1C109.6,204.7,110.3,208.4,114.7,208.4z"/>
	<path class="st2" d="M131.7,192.3h-3.2l0.2-1.9l3.2-0.2l1.1-5.6h2.5l-0.8,5.6h6l-0.3,2.1h-5.9l-1.7,11.7c-0.4,2.9,0.2,4.5,3.1,4.5
		c0.6,0,1.2,0,2.2-0.2l0,2.2c-1.1,0.2-2.5,0.3-3.4,0.3c-3.9,0-5.4-1.6-4.7-6.3L131.7,192.3z"/>
	<path class="st2" d="M153.9,192.3h-3.2l0.2-1.9l3.2-0.2l1.1-5.6h2.5l-0.8,5.6h6l-0.3,2.1h-5.9l-1.7,11.7c-0.4,2.9,0.2,4.5,3.1,4.5
		c0.6,0,1.2,0,2.2-0.2l0,2.2c-1.1,0.2-2.5,0.3-3.4,0.3c-3.9,0-5.4-1.6-4.7-6.3L153.9,192.3z"/>
	<path class="st2" d="M166.5,200.7c-0.6,4.5,0.8,7.7,6.1,7.7c2.1,0,4.1-0.1,6.4-0.8l0.1,2.3c-2.5,0.7-4.6,0.9-7.2,0.9
		c-7.3,0-9.3-4.3-8.4-10.5c0.9-6.2,4-10.5,11.1-10.5c6.3,0,7.3,3.9,6.9,7.3c-0.1,1.2-0.4,2.4-0.8,3.6H166.5z M166.8,198.8h11.5
		c0.3-0.8,0.4-1.6,0.5-2.4c0.2-2.3-0.9-4.4-4.5-4.4C169.6,192,167.6,195.1,166.8,198.8z"/>
	<path class="st2" d="M197.7,208.4L197.7,208.4c-1.8,1.4-4.4,2.4-6.9,2.4c-5.6,0-6.8-4.6-6-10.5c0.8-5.9,3.5-10.5,9.1-10.5
		c2.4,0,4.7,0.9,6.1,2.3h0.1l0.8-2h2.2l-2.9,20.2h-2.8L197.7,208.4z M192.2,208.4c2.5,0,4.7-1.2,5.7-1.9l1.7-12.3
		c-0.8-0.8-2.7-1.9-5.2-1.9c-4.4,0-6.1,3.8-6.7,8.1C187.1,204.7,187.9,208.4,192.2,208.4z"/>
	<path class="st2" d="M217.2,189.8c2.5,0,4.3,0.3,6.6,0.9L223,193c-3.1-0.8-4.8-0.8-6.1-0.8c-4.8,0-7.1,3.5-7.8,8.1
		c-0.7,4.6,0.7,8.1,5.5,8.1c1.3,0,3,0,6.3-0.8l0.2,2.3c-2.5,0.6-4.4,0.9-6.9,0.9c-7.1,0-9-4.3-8.1-10.5
		C207,194.1,210,189.8,217.2,189.8z"/>
	<path class="st2" d="M227.2,210.4h-2.8l4-28.2h2.8l-1.5,11h0.1c2.3-2,5-3.3,7.9-3.3c4,0,5.7,2.3,5.1,6.6l-1.9,14H238l1.9-13.3
		c0.4-2.8-0.4-4.8-3.8-4.8c-2.7,0-5.3,1.7-6.7,2.7L227.2,210.4z"/>
	<path class="st2" d="M249.6,200.7c-0.6,4.5,0.8,7.7,6.1,7.7c2.1,0,4.1-0.1,6.4-0.8l0.1,2.3c-2.5,0.7-4.6,0.9-7.2,0.9
		c-7.3,0-9.3-4.3-8.4-10.5c0.9-6.2,4-10.5,11.1-10.5c6.3,0,7.3,3.9,6.9,7.3c-0.1,1.2-0.4,2.4-0.8,3.6H249.6z M249.8,198.8h11.5
		c0.3-0.8,0.4-1.6,0.5-2.4c0.2-2.3-0.9-4.4-4.5-4.4C252.7,192,250.7,195.1,249.8,198.8z"/>
	<path class="st2" d="M269.7,210.4h-2.8l2.8-20.2h2.8l-0.4,3.2h0.1c2.1-1.8,5.2-3.6,8.4-3.6l-0.4,2.7c-3.2,0-6.6,1.6-8.4,2.7
		L269.7,210.4z"/>
	<path class="st2" d="M289.4,210.8c-3.1,0-5.9-0.3-8.3-0.9l0.8-2.3c3.1,0.8,6.1,0.9,7.5,0.9c4.3,0,5-2.7,5.2-3.5
		c0.2-1.5-0.5-2.7-4.6-3.5c-4-0.8-7.1-2.1-6.5-6.2c0.5-3.6,3.3-5.4,8-5.4c3.1,0,5.4,0.3,7.7,0.9l-0.8,2.3c-3.1-0.8-5.7-0.9-7.1-0.9
		c-4.2,0-4.9,2.4-5,3.1c-0.2,1.5,0.3,2.8,4.4,3.6c4.3,0.9,7.3,2.1,6.7,6C296.9,208.7,294.1,210.8,289.4,210.8z"/>
	<path class="st2" d="M322,208.4C322,208.4,322,208.4,322,208.4c-1.8,1.4-4.4,2.4-6.9,2.4c-5.6,0-6.8-4.6-6-10.5
		c0.8-5.9,3.5-10.5,9.1-10.5c2.4,0,4.6,0.9,6,2.3c0,0,0,0,0.1,0l1.4-10h2.8l-4,28.2h-2.8L322,208.4z M316.5,208.4
		c2.5,0,4.7-1.2,5.7-1.9l1.7-12.3c-0.8-0.8-2.7-1.9-5.2-1.9c-4.4,0-6.1,3.8-6.7,8.1C311.5,204.7,312.2,208.4,316.5,208.4z"/>
	<path class="st2" d="M330.4,200.3c0.9-6.2,3.9-10.5,10.5-10.5c6.6,0,8.4,4.3,7.6,10.5c-0.9,6.2-4,10.5-10.5,10.5
		S329.5,206.5,330.4,200.3z M333.4,200.3c-0.6,4.5,0.2,8.1,4.9,8.1c4.7,0,6.5-3.6,7.2-8.1c0.6-4.5-0.2-8.1-4.9-8.1
		S334,195.8,333.4,200.3z"/>
	<path class="st2" d="M362.6,200.7c-0.6,4.5,0.8,7.7,6.1,7.7c2.1,0,4.1-0.1,6.4-0.8l0.1,2.3c-2.5,0.7-4.6,0.9-7.2,0.9
		c-7.3,0-9.3-4.3-8.4-10.5c0.9-6.2,4-10.5,11.1-10.5c6.3,0,7.3,3.9,6.9,7.3c-0.1,1.2-0.4,2.4-0.8,3.6H362.6z M362.8,198.8h11.5
		c0.3-0.8,0.4-1.6,0.5-2.4c0.2-2.3-0.9-4.4-4.5-4.4C365.7,192,363.7,195.1,362.8,198.8z"/>
	<path class="st2" d="M385.6,210.6l-4.8-20.4h3.2l3.8,17.1h0.1l8.7-17.1h3L389,210.6H385.6z"/>
	<path class="st2" d="M402.5,200.7c-0.6,4.5,0.8,7.7,6.1,7.7c2.1,0,4.1-0.1,6.4-0.8l0.1,2.3c-2.5,0.7-4.6,0.9-7.2,0.9
		c-7.3,0-9.3-4.3-8.4-10.5c0.9-6.2,4-10.5,11.1-10.5c6.2,0,7.3,3.9,6.9,7.3c-0.1,1.2-0.4,2.4-0.8,3.6H402.5z M402.8,198.8h11.5
		c0.3-0.8,0.4-1.6,0.5-2.4c0.2-2.3-0.9-4.4-4.5-4.4C405.6,192,403.6,195.1,402.8,198.8z"/>
	<path class="st2" d="M422.6,210.4h-2.8l2.8-20.2h2.8l-0.4,3.2h0.1c2.1-1.8,5.2-3.6,8.4-3.6l-0.4,2.7c-3.2,0-6.6,1.6-8.4,2.7
		L422.6,210.4z"/>
	<path class="st2" d="M436.9,190.2h3.2l4,17.4h0.1l8.4-17.4h3l-10.8,21.6c-2.5,5-5,7-8.7,7c-0.9,0-1.9-0.1-2.7-0.3l0.6-2.4
		c0.7,0.2,1.2,0.2,1.8,0.2c3,0,4.9-3.1,6.2-5.6L436.9,190.2z"/>
	<path class="st2" d="M478.2,208.4C478.1,208.4,478.1,208.4,478.2,208.4c-1.8,1.4-4.4,2.4-6.9,2.4c-5.6,0-6.8-4.6-6-10.5
		c0.8-5.9,3.5-10.5,9.1-10.5c2.4,0,4.6,0.9,6,2.3c0,0,0,0,0.1,0l1.4-10h2.8l-4,28.2h-2.8L478.2,208.4z M472.7,208.4
		c2.5,0,4.7-1.2,5.7-1.9l1.7-12.3c-0.8-0.8-2.7-1.9-5.2-1.9c-4.4,0-6.1,3.8-6.7,8.1C467.6,204.7,468.3,208.4,472.7,208.4z"/>
	<path class="st2" d="M499.4,208.4L499.4,208.4c-1.8,1.4-4.4,2.4-6.9,2.4c-5.6,0-6.8-4.6-6-10.5c0.8-5.9,3.5-10.5,9.1-10.5
		c2.4,0,4.7,0.9,6.1,2.3h0.1l0.8-2h2.2l-2.9,20.2h-2.8L499.4,208.4z M493.9,208.4c2.5,0,4.7-1.2,5.7-1.9l1.7-12.3
		c-0.8-0.8-2.7-1.9-5.2-1.9c-4.4,0-6.1,3.8-6.7,8.1C488.9,204.7,489.6,208.4,493.9,208.4z"/>
	<path class="st2" d="M509,190.2h3.2l4,17.4h0.1l8.4-17.4h3l-10.8,21.6c-2.5,5-5,7-8.7,7c-0.9,0-1.9-0.1-2.7-0.3l0.6-2.4
		c0.7,0.2,1.3,0.2,1.8,0.2c3,0,4.9-3.1,6.2-5.6L509,190.2z"/>
	<path class="st2" d="M532.8,205.5l-0.7,4.9h-2.8l0.7-4.9H532.8z"/>
</g>
<g>
	<path class="st2" d="M57.9,257.5v8.6h-4.9v-24.4h10.4c5.1,0,8.1,3.2,8.1,7.9c0,4.8-2.9,7.9-8.1,7.9H57.9z M57.9,253.1h4.9
		c2.1,0,3.5-1,3.5-3.5c0-2.5-1.5-3.5-3.5-3.5h-4.9V253.1z"/>
	<path class="st2" d="M85.7,260.6H78l-1.6,5.5h-5.2l7.9-24.6h6l7.8,24.6h-5.5L85.7,260.6z M81.8,247.7l-2.8,8.8h5.7L81.8,247.7
		L81.8,247.7z"/>
	<path class="st2" d="M108.4,257.5v-15.8h4.9v15.8c0,6.4-3.8,9-9.6,9s-9.6-2.6-9.6-9v-15.8h4.9v15.8c0,2.6,0.8,4.8,4.7,4.8
		C107.6,262.4,108.4,260.1,108.4,257.5z"/>
	<path class="st2" d="M122.6,241.7v20h11.4v4.4h-16.3v-24.4H122.6z"/>
	<path class="st2" d="M151,260.6h-7.7l-1.6,5.5h-5.2l7.9-24.6h6l7.8,24.6h-5.5L151,260.6z M147.1,247.7l-2.8,8.8h5.7L147.1,247.7
		L147.1,247.7z"/>
	<path class="st2" d="M180.3,257.9L180.3,257.9l5.8-16.2h6.5v24.4h-4.9v-15.5h-0.1l-5.8,15.5h-3.6l-5.7-15.5h-0.1v15.5h-4.8v-24.4
		h6.6L180.3,257.9z"/>
	<path class="st2" d="M207,241.4c2.9,0,5.5,0.4,8.8,1.4l-1.1,4.1c-3.8-0.9-5.4-1.1-7.3-1.1c-4.5,0-6.1,3.1-6.1,8
		c0,5.2,1.5,8.4,6.1,8.4c1.9,0,3.4-0.2,7.3-1.1l1.1,4.1c-3.3,1-5.9,1.3-8.8,1.3c-8.6,0-10.9-5.7-10.9-12.7
		C196.1,246.9,198.4,241.4,207,241.4z"/>
	<path class="st2" d="M235.1,246.2h-11.5v5.2h9.9v4.4h-9.9v6h11.7v4.4h-16.7v-24.4h16.5V246.2z"/>
	<path class="st2" d="M254.1,249.7l-3.7,16.6h-6.3l-6-24.6h5.5l3.9,18.3h0l3.9-18.3h5.8l4,18.3h0l3.8-18.3h5.2l-6,24.6h-6.3
		L254.1,249.7L254.1,249.7z"/>
	<path class="st2" d="M283.8,260.6H276l-1.6,5.5h-5.2l7.9-24.6h6l7.8,24.6h-5.5L283.8,260.6z M279.9,247.7l-2.8,8.8h5.7L279.9,247.7
		L279.9,247.7z"/>
	<path class="st2" d="M293.5,266.1v-24.4h4.9l9.8,15.3h0.1v-15.3h4.8v24.4h-4.9l-9.8-14.8h-0.1v14.8H293.5z"/>
	<path class="st2" d="M317.7,270.8l0.9-4.7c-0.6,0-1.3,0-1.9,0v-5.2h4.7v5.2l-2.2,4.7H317.7z"/>
	<path class="st2" d="M342,241.4c2.9,0,5.5,0.4,8.8,1.4l-1.1,4.1c-3.8-0.9-5.4-1.1-7.3-1.1c-4.5,0-6.1,3.1-6.1,8
		c0,5.2,1.5,8.4,6.1,8.4c1.9,0,3.4-0.2,7.3-1.1l1.1,4.1c-3.3,1-5.9,1.3-8.8,1.3c-8.6,0-10.9-5.7-10.9-12.7
		C331.2,246.9,333.4,241.4,342,241.4z"/>
	<path class="st2" d="M352.4,253.8c0-6.9,2.3-12.4,10.9-12.4c8.6,0,10.8,5.5,10.8,12.4c0,7-2.3,12.7-10.8,12.7
		C354.7,266.5,352.4,260.7,352.4,253.8z M357.6,253.8c0,4.8,0.9,8.6,5.7,8.6s5.6-3.8,5.6-8.6s-0.8-8.2-5.6-8.2
		S357.6,248.9,357.6,253.8z"/>
	<path class="st2" d="M377.5,266.1v-24.4h4.9l9.8,15.3h0.1v-15.3h4.8v24.4h-4.9l-9.8-14.8h-0.1v14.8H377.5z"/>
	<path class="st2" d="M410.8,260.1l5.5-18.4h5.2l-7.8,24.6h-6l-7.9-24.6h5.5L410.8,260.1L410.8,260.1z"/>
	<path class="st2" d="M440.6,246.2h-11.5v5.2h9.9v4.4h-9.9v6h11.7v4.4h-16.7v-24.4h16.5V246.2z"/>
	<path class="st2" d="M444.7,266.1v-24.4h4.9l9.8,15.3h0.1v-15.3h4.8v24.4h-4.9l-9.8-14.8h-0.1v14.8H444.7z"/>
	<path class="st2" d="M485,246.2h-11.5v5.2h9.9v4.4h-9.9v6h11.7v4.4h-16.7v-24.4H485V246.2z"/>
	<path class="st2" d="M502.6,266.1l-5.1-8.7H494v8.7H489v-24.4h10.4c5.1,0,8.1,3.1,8.1,7.9c0,3.3-1.5,6.1-4.8,7l5.7,9.5H502.6z
		 M494,253h4.8c2,0,3.6-0.9,3.6-3.4c0-2.5-1.5-3.4-3.5-3.4H494V253z"/>
	<path class="st2" d="M512,270.8l0.9-4.7c-0.6,0-1.3,0-1.9,0v-5.2h4.7v5.2l-2.2,4.7H512z"/>
</g>
<g>
	<path class="st2" d="M69.4,289.2H57.9v5.2h9.9v4.4h-9.9v6h11.7v4.4H52.9v-24.4h16.5V289.2z"/>
	<path class="st2" d="M73.1,309.1v-24.4h9.1c8.4,0,10.8,5.1,10.8,12c0,7-2.4,12.4-10.8,12.4H73.1z M82.2,304.8c4.6,0,5.6-3.2,5.6-8
		s-1-7.6-5.6-7.6h-4.2v15.6H82.2z"/>
	<path class="st2" d="M110.4,300.5v-15.8h4.9v15.8c0,6.4-3.8,9-9.6,9s-9.6-2.6-9.6-9v-15.8h4.9v15.8c0,2.6,0.8,4.8,4.7,4.8
		C109.6,305.4,110.4,303.2,110.4,300.5z"/>
	<path class="st2" d="M129.4,284.4c2.9,0,5.5,0.4,8.8,1.4l-1.1,4.1c-3.8-0.9-5.4-1.1-7.3-1.1c-4.5,0-6.1,3.1-6.1,8
		c0,5.2,1.5,8.4,6.1,8.4c1.9,0,3.4-0.2,7.3-1.1l1.1,4.1c-3.3,1-5.9,1.3-8.8,1.3c-8.6,0-10.9-5.7-10.9-12.7
		C118.5,289.9,120.8,284.4,129.4,284.4z"/>
	<path class="st2" d="M154.2,303.6h-7.7l-1.6,5.5h-5.2l7.9-24.6h6l7.8,24.6h-5.5L154.2,303.6z M150.3,290.8l-2.8,8.8h5.7
		L150.3,290.8L150.3,290.8z"/>
	<path class="st2" d="M171.1,289.2v20h-4.9v-20h-6.4v-4.4h17.8v4.4H171.1z"/>
	<path class="st2" d="M180.6,309.1v-24.4h4.9v24.4H180.6z"/>
	<path class="st2" d="M188.7,296.8c0-6.9,2.3-12.4,10.9-12.4s10.8,5.5,10.8,12.4c0,7-2.3,12.7-10.8,12.7S188.7,303.7,188.7,296.8z
		 M193.9,296.8c0,4.8,0.9,8.6,5.7,8.6s5.6-3.8,5.6-8.6s-0.8-8.2-5.6-8.2S193.9,291.9,193.9,296.8z"/>
	<path class="st2" d="M213.5,309.1v-24.4h4.9l9.8,15.3h0.1v-15.3h4.8v24.4h-4.9l-9.8-14.8h-0.1v14.8H213.5z"/>
	<path class="st2" d="M253.6,284.4c2.9,0,5.5,0.4,8.8,1.4l-1.1,4.1c-3.8-0.9-5.4-1.1-7.3-1.1c-4.5,0-6.1,3.1-6.1,8
		c0,5.2,1.5,8.4,6.1,8.4c1.9,0,3.4-0.2,7.3-1.1l1.1,4.1c-3.3,1-5.9,1.3-8.8,1.3c-8.6,0-10.9-5.7-10.9-12.7
		C242.7,289.9,245,284.4,253.6,284.4z"/>
	<path class="st2" d="M263.6,296.8c0-6.9,2.3-12.4,10.9-12.4c8.6,0,10.8,5.5,10.8,12.4c0,7-2.3,12.7-10.8,12.7
		C265.9,309.5,263.6,303.7,263.6,296.8z M268.8,296.8c0,4.8,0.9,8.6,5.7,8.6s5.6-3.8,5.6-8.6s-0.8-8.2-5.6-8.2
		S268.8,291.9,268.8,296.8z"/>
	<path class="st2" d="M301,300.9L301,300.9l5.8-16.2h6.5v24.4h-4.9v-15.5h-0.1l-5.8,15.5H299l-5.7-15.5h-0.1v15.5h-4.8v-24.4h6.6
		L301,300.9z"/>
	<path class="st2" d="M329.9,300.9L329.9,300.9l5.8-16.2h6.5v24.4h-4.9v-15.5h-0.1l-5.8,15.5h-3.6l-5.7-15.5h-0.1v15.5h-4.8v-24.4
		h6.6L329.9,300.9z"/>
	<path class="st2" d="M346.1,309.1v-24.4h4.9v24.4H346.1z"/>
	<path class="st2" d="M365.6,289.2v20h-4.9v-20h-6.4v-4.4H372v4.4H365.6z"/>
	<path class="st2" d="M385.8,289.2v20h-4.9v-20h-6.4v-4.4h17.8v4.4H385.8z"/>
	<path class="st2" d="M411.8,289.2h-11.5v5.2h9.9v4.4h-9.9v6H412v4.4h-16.7v-24.4h16.5V289.2z"/>
	<path class="st2" d="M432,289.2h-11.5v5.2h9.9v4.4h-9.9v6h11.7v4.4h-16.7v-24.4H432V289.2z"/>
	<path class="st2" d="M436.2,313.8l0.9-4.7c-0.6,0-1.3,0-1.9,0v-5.2h4.7v5.2l-2.2,4.7H436.2z"/>
	<path class="st2" d="M462.8,309.1l-5.1-8.7h-3.5v8.7h-4.9v-24.4h10.4c5.1,0,8.1,3.1,8.1,7.9c0,3.3-1.5,6.1-4.8,7l5.7,9.5H462.8z
		 M454.2,296.1h4.8c2,0,3.6-0.9,3.6-3.4c0-2.5-1.5-3.4-3.5-3.4h-4.9V296.1z"/>
	<path class="st2" d="M488.3,289.2h-11.5v5.2h9.9v4.4h-9.9v6h11.7v4.4h-16.7v-24.4h16.5V289.2z"/>
	<path class="st2" d="M492,296.8c0-6.9,2.3-12.4,10.9-12.4c2.9,0,5.4,0.4,8.7,1.4l-1.1,4.1c-3.8-0.9-5.3-1.1-7.2-1.1
		c-4.5,0-6.1,3.1-6.1,8c0,5.2,1.5,8.4,6.1,8.4c1.3,0,2.3-0.3,3.4-0.7v-4h-3.8v-4.4h8.7v11.8c-3,1.1-5.5,1.7-8.7,1.7
		C494.3,309.5,492,303.8,492,296.8z"/>
	<path class="st2" d="M515.8,309.1v-24.4h4.9v24.4H515.8z"/>
	<path class="st2" d="M524,308.2l0.9-4.1c3.8,0.9,6.5,1.1,8.4,1.1c2.5,0,4-1.1,4-2.8c0-2.3-2.8-2.7-5.6-3.5
		c-4.2-1.2-7.3-3.5-7.3-7.6c0-4.9,4.1-6.8,8.9-6.8c2.8,0,5.3,0.4,8.6,1.4l-1.1,4.1c-3.8-0.9-5.6-1.1-7.5-1.1c-2.5,0-3.7,1.1-3.7,2.5
		c0,2,2.6,2.7,5.6,3.4c4.2,1,7.4,3,7.4,7.2c0,5.2-4,7.5-9.2,7.5C530.5,309.5,527.3,309.1,524,308.2z"/>
	<path class="st2" d="M556.3,289.2v20h-4.9v-20h-6.4v-4.4h17.8v4.4H556.3z"/>
	<path class="st2" d="M579.8,309.1l-5.1-8.7h-3.5v8.7h-4.9v-24.4h10.4c5.1,0,8.1,3.1,8.1,7.9c0,3.3-1.5,6.1-4.8,7l5.7,9.5H579.8z
		 M571.2,296.1h4.8c2,0,3.6-0.9,3.6-3.4c0-2.5-1.5-3.4-3.6-3.4h-4.9V296.1z"/>
	<path class="st2" d="M602.3,303.6h-7.7l-1.7,5.5h-5.2l7.9-24.6h6l7.8,24.6h-5.5L602.3,303.6z M598.4,290.8l-2.8,8.8h5.7
		L598.4,290.8L598.4,290.8z"/>
	<path class="st2" d="M612.1,309.1v-24.4h4.9l9.8,15.3h0.1v-15.3h4.8v24.4h-4.9l-9.8-14.8h-0.1v14.8H612.1z"/>
	<path class="st2" d="M646.5,289.2v20h-4.9v-20h-6.4v-4.4h17.8v4.4H646.5z"/>
</g>
</svg>
