<!-- Generator: Adobe Illustrator 19.2.1, SVG Export Plug-In  -->
<svg version="1.1"
	 xmlns="http://www.w3.org/2000/svg" xmlns:xlink="http://www.w3.org/1999/xlink" xmlns:a="http://ns.adobe.com/AdobeSVGViewerExtensions/3.0/"
	 x="0px" y="0px" width="49px" height="49px" viewBox="0 0 49 49" style="enable-background:new 0 0 49 49;" xml:space="preserve">
<style type="text/css">
	.st0{clip-path:url(#SVGID_2_);fill:#FFFFFF;}
	.st1{clip-path:url(#SVGID_4_);fill:#FFFFFF;}
</style>
<defs>
</defs>
<g>
	<defs>
		<rect id="SVGID_1_" x="0" width="49" height="49"/>
	</defs>
	<clipPath id="SVGID_2_">
		<use xlink:href="#SVGID_1_"  style="overflow:visible;"/>
	</clipPath>
	<path class="st0" d="M49,4.1c0-0.8-0.5-1.6-1.2-1.9C47,1.9,46.1,2,45.5,2.7l-4.2,4.1C36.9,2.5,30.8,0,24.5,0C11,0,0,11,0,24.5
		S11,49,24.5,49c7.3,0,14.2-3.2,18.9-8.8c0.3-0.4,0.3-1-0.1-1.4l-4.4-4.4c-0.2-0.2-0.5-0.3-0.8-0.3c-0.3,0-0.6,0.2-0.7,0.4
		c-3.1,4.1-7.8,6.4-12.9,6.4c-9,0-16.3-7.3-16.3-16.3c0-9,7.3-16.3,16.3-16.3c4.2,0,8.1,1.6,11.1,4.4L31.2,17
		c-0.6,0.6-0.8,1.5-0.4,2.2c0.3,0.8,1.1,1.3,1.9,1.3H47c1.1,0,2-0.9,2-2V4.1z"/>
	<path class="st0" d="M31.8,24.9c0-0.4-0.2-0.8-0.6-1l-9.6-5.6c-0.3-0.2-0.8-0.2-1.1,0c-0.4,0.2-0.6,0.6-0.6,1v11.3
		c0,0.4,0.2,0.8,0.6,1c0.2,0.1,0.4,0.1,0.6,0.1s0.4-0.1,0.6-0.2l9.6-5.6C31.6,25.7,31.8,25.3,31.8,24.9"/>
</g>
</svg>
