<!-- Generator: Adobe Illustrator 19.2.1, SVG Export Plug-In  -->
<svg version="1.1"
	 xmlns="http://www.w3.org/2000/svg" xmlns:xlink="http://www.w3.org/1999/xlink" xmlns:a="http://ns.adobe.com/AdobeSVGViewerExtensions/3.0/"
	 x="0px" y="0px" width="599.2px" height="529.8px" viewBox="0 0 599.2 529.8" style="enable-background:new 0 0 599.2 529.8;"
	 xml:space="preserve">
<style type="text/css">
	.st0{fill:none;stroke:#FFFFFF;stroke-miterlimit:10;}
	.st1{fill:#FFFFFF;}
</style>
<defs>
</defs>
<line class="st0" x1="0" y1="201.5" x2="599.2" y2="201.5"/>
<line class="st0" x1="0" y1="383.9" x2="599.2" y2="383.9"/>
<line class="st0" x1="0" y1="529.3" x2="599.2" y2="529.3"/>
<g>
	<path class="st1" d="M48.4,40.6h-11l-7.3-24.9l-7.3,24.9h-11L0.5,2h9.5l7.4,27.7L25.2,2h10l7.7,27.8L50.2,2h9.4L48.4,40.6z"/>
	<path class="st1" d="M70.7,16.4c1.7-2.5,4.3-3.6,7.7-3.6c5.4,0,9.6,3.8,9.6,10.1v17.8h-8.6V25.9c0-3.2-1.6-5-4.3-5
		c-2.4,0-4.4,1.6-4.4,5.1v14.6h-8.6V0.8h8.6V16.4z"/>
	<path class="st1" d="M120.3,40.6h-8.4v-2.9c-1.6,2.1-4.1,3.6-7.8,3.6c-7.2,0-12.6-6.3-12.6-14.3c0-8,5.4-14.3,12.6-14.3
		c3.6,0,6.1,1.5,7.8,3.7v-2.9h8.4V40.6z M100.4,27.1c0,3.5,2.3,6.2,5.8,6.2c3.4,0,5.8-2.6,5.8-6.2s-2.4-6.2-5.8-6.2
		C102.7,20.9,100.4,23.5,100.4,27.1z"/>
	<path class="st1" d="M146,21.2h-9.3v7.9c0,3.1,1.7,4.2,3.8,4.2c1.6,0,3.3-0.9,4.7-1.7l3,6.7c-2.5,1.8-5.2,3-9.6,3
		c-7.3,0-10.5-4.3-10.5-11.1v-9h-5.1v-7.7h5.1V5.6h8.6v7.9h9.3V21.2z"/>
	<path class="st1" d="M172.4,5.2c0,2.9-2.3,5.1-5.2,5.1c-2.9,0-5.2-2.2-5.2-5.1c0-2.9,2.2-5.2,5.2-5.2C170.2,0,172.4,2.3,172.4,5.2z
		 M171.6,40.6H163V13.5h8.6V40.6z"/>
	<path class="st1" d="M197.1,21.2h-9.3v7.9c0,3.1,1.7,4.2,3.8,4.2c1.6,0,3.3-0.9,4.7-1.7l3,6.7c-2.5,1.8-5.2,3-9.6,3
		c-7.3,0-10.6-4.3-10.6-11.1v-9h-5.1v-7.7h5.1V5.6h8.6v7.9h9.3V21.2z"/>
	<path class="st1" d="M257.3,22.8v17.8h-8.6V25.9c0-3.2-1.6-5-4.3-5c-2.4,0-4.4,1.6-4.4,5.1v14.6h-8.6V25.9c0-3.2-1.6-5-4.3-5
		c-2.4,0-4.4,1.6-4.4,5.1v14.6H214V13.5h8.3v3.4c1.7-2.8,4.4-4.1,8.1-4.1c3.6,0,6.6,1.6,8.3,4.5c1.8-3.1,4.9-4.5,8.6-4.5
		C253.4,12.8,257.3,16.6,257.3,22.8z"/>
	<path class="st1" d="M288.3,27.1c0,0.9-0.1,2.1-0.2,2.7h-18.4c0.7,3,2.8,4.3,5.8,4.3c2,0,4.2-0.8,5.9-2.4l5.6,5.2
		c-2.8,2.8-6.9,4.4-11.9,4.4c-8.5,0-14.3-5.7-14.3-14.1c0-8.5,5.7-14.4,13.9-14.4C282.8,12.8,288.3,18.6,288.3,27.1z M269.8,24.3
		h9.9c-0.7-2.7-2.4-4.1-4.9-4.1C272.1,20.1,270.5,21.6,269.8,24.3z"/>
	<path class="st1" d="M319.2,40.6h-8.4v-2.9c-1.6,2.1-4.1,3.6-7.8,3.6c-7.2,0-12.6-6.3-12.6-14.3c0-8,5.4-14.3,12.6-14.3
		c3.6,0,6.1,1.5,7.8,3.7v-2.9h8.4V40.6z M299.3,27.1c0,3.5,2.3,6.2,5.8,6.2c3.4,0,5.8-2.6,5.8-6.2s-2.4-6.2-5.8-6.2
		C301.7,20.9,299.3,23.5,299.3,27.1z"/>
	<path class="st1" d="M350.2,22.8v17.8h-8.6V25.9c0-3.2-1.6-5-4.3-5c-2.4,0-4.4,1.6-4.4,5.1v14.6h-8.6V13.5h8.3v3.4
		c1.7-2.8,4.4-4.1,8.1-4.1C346,12.8,350.2,16.6,350.2,22.8z"/>
	<path class="st1" d="M375.4,21.9c-2.7-1.1-6.2-2.1-8.9-2.1c-2.3,0-3.1,0.7-3.1,1.7c0,1.2,1.7,1.4,4.4,1.9l2,0.3
		c5.8,0.9,8.9,3.7,8.9,8.2c0,5.9-4.6,9.5-12.5,9.5c-4.6,0-9.4-0.8-12.5-2.8l3-6.7c2.7,1.6,5.8,2.5,9.6,2.5c2.7,0,3.8-0.6,3.8-1.8
		c0-1-1.2-1.5-4.3-1.9l-1.6-0.2c-6.5-1-9.6-3.7-9.6-8.5c0-5.8,4.3-9.1,11.7-9.1c4.4,0,7.2,0.6,11.7,2.3L375.4,21.9z"/>
	<path class="st1" d="M415.2,21.2H406v7.9c0,3.1,1.7,4.2,3.8,4.2c1.6,0,3.3-0.9,4.7-1.7l3,6.7c-2.5,1.8-5.2,3-9.6,3
		c-7.3,0-10.5-4.3-10.5-11.1v-9h-5.1v-7.7h5.1V5.6h8.6v7.9h9.3V21.2z"/>
	<path class="st1" d="M447.4,27.1c0,8.2-6.2,14.3-14.7,14.3c-8.5,0-14.7-6.1-14.7-14.3s6.2-14.3,14.7-14.3
		C441.2,12.8,447.4,18.9,447.4,27.1z M426.8,27.1c0,3.6,2.5,6.2,5.9,6.2c3.4,0,5.9-2.6,5.9-6.2s-2.5-6.2-5.9-6.2
		C429.3,20.9,426.8,23.4,426.8,27.1z"/>
	<path class="st1" d="M472.1,51.7h-9.4l9.3-17.1l-11.4-21.1h9.9l6.2,12.2l6-12.2h9.4L472.1,51.7z"/>
	<path class="st1" d="M520.5,27.1c0,8.2-6.2,14.3-14.7,14.3c-8.5,0-14.7-6.1-14.7-14.3s6.2-14.3,14.7-14.3
		C514.2,12.8,520.5,18.9,520.5,27.1z M499.9,27.1c0,3.6,2.5,6.2,5.9,6.2c3.4,0,5.9-2.6,5.9-6.2s-2.5-6.2-5.9-6.2
		C502.4,20.9,499.9,23.4,499.9,27.1z"/>
	<path class="st1" d="M549.9,29c0,8.5-5.9,12.3-13.1,12.3c-7.2,0-13.1-3.8-13.1-12.3V13.5h8.6v14.7c0,3.5,1.9,5,4.4,5
		c2.6,0,4.4-1.6,4.4-5V13.5h8.6V29z"/>
</g>
<g>
	<path class="st1" d="M11.5,85.7v21H8.2v-21H1.6v-3h16.6v3H11.5z"/>
	<path class="st1" d="M22,98.4c0.1,3.5,1.7,6,5.8,6c1.7,0,3.5-0.1,5.5-0.7l0.4,2.6c-2.2,0.6-4.1,0.8-6.4,0.8c-6.5,0-8.8-3.7-8.8-9.2
		c0-5.5,2.3-9.2,8.7-9.2c5.4,0,6.9,3.1,7.1,6.1c0.1,1.1,0,2.4-0.2,3.6H22z M22,96.4h9c0.1-0.6,0.2-1.3,0.1-1.9
		c-0.1-1.8-1.2-3.4-4-3.4C23.5,91.2,22.2,93.5,22,96.4z"/>
	<path class="st1" d="M38.5,92.1L38,89.5c2.4-0.5,4.9-0.7,6.8-0.7c4.2,0,6.5,1.2,6.5,5.8v12.2h-3.2V105c0,0,0,0-0.1,0
		c-1.7,1.5-3.3,2.1-5.6,2.1c-3.5,0-5.6-2.1-5.6-5.2c0-4,3.2-5.4,7.4-5.4h3.9v-1.8c0-2.3-1.2-3.4-4.1-3.4
		C42.8,91.4,41.1,91.5,38.5,92.1z M48.2,98.4h-3.7c-3.3,0-4.4,1.2-4.4,3.2c0,1.9,1.4,3,3.7,3c2,0,3.6-0.8,4.4-1.5V98.4z"/>
	<path class="st1" d="M63.8,88.7c2.2,0,3.9,0.3,6,0.8l-0.6,2.5c-2.8-0.7-4.2-0.7-5.4-0.7c-3.7,0-5.3,2.6-5.3,6.5
		c0,3.9,1.6,6.5,5.3,6.5c1.2,0,2.6,0,5.4-0.7l0.6,2.6c-2.1,0.5-3.8,0.8-6,0.8c-6.5,0-8.7-3.7-8.7-9.2C55.1,92.4,57.3,88.7,63.8,88.7
		z"/>
	<path class="st1" d="M75.9,106.7h-3.2V82h3.2v9.5H76c1.7-1.7,3.8-2.8,6.3-2.8c3.5,0,5.3,2.1,5.3,5.8v12.2h-3.2V95.3
		c0-2.3-0.9-3.9-3.5-3.9c-2,0-3.9,1.2-4.9,2V106.7z"/>
	<path class="st1" d="M94.7,98.4c0.1,3.5,1.7,6,5.8,6c1.7,0,3.5-0.1,5.5-0.7l0.4,2.6c-2.2,0.6-4.1,0.8-6.4,0.8
		c-6.5,0-8.8-3.7-8.8-9.2c0-5.5,2.3-9.2,8.7-9.2c5.4,0,6.9,3.1,7.1,6.1c0.1,1.1,0,2.4-0.2,3.6H94.7z M94.7,96.4h9
		c0.1-0.6,0.2-1.3,0.1-1.9c-0.1-1.8-1.2-3.4-4-3.4C96.2,91.2,95,93.5,94.7,96.4z"/>
	<path class="st1" d="M113.9,106.7h-3.2V89.1h3.2v2.8h0.1c1.4-1.6,3.8-3.2,6.6-3.2v3c-2.6,0-5.3,1.1-6.7,2V106.7z"/>
	<path class="st1" d="M130.9,107.1c-2.8,0-5.5-0.2-7.6-0.8l0.6-2.6c2.8,0.7,5.4,0.8,6.7,0.8c3.2,0,3.7-1.9,3.7-2.6
		c0-1.2-0.8-2-4-2.6c-3.7-0.7-6.6-1.9-6.6-5.6c0-3.4,2.4-4.9,6.5-4.9c2.7,0,4.9,0.3,7.1,0.8l-0.6,2.5c-2.8-0.7-5-0.8-6.3-0.8
		c-3.2,0-3.5,1.7-3.5,2.3c0,1.1,0.6,2,3.8,2.7c3.7,0.8,6.8,1.8,6.8,5.4C137.4,105.3,135,107.1,130.9,107.1z"/>
	<path class="st1" d="M148.9,92.1l-0.5-2.6c2.4-0.5,4.9-0.7,6.8-0.7c4.2,0,6.5,1.2,6.5,5.8v12.2h-3.2V105c0,0,0,0-0.1,0
		c-1.7,1.5-3.3,2.1-5.6,2.1c-3.5,0-5.6-2.1-5.6-5.2c0-4,3.2-5.4,7.4-5.4h3.9v-1.8c0-2.3-1.2-3.4-4.1-3.4
		C153.2,91.4,151.5,91.5,148.9,92.1z M158.6,98.4h-3.7c-3.3,0-4.4,1.2-4.4,3.2c0,1.9,1.4,3,3.7,3c2,0,3.6-0.8,4.4-1.5V98.4z"/>
	<path class="st1" d="M174.2,88.7c2.2,0,3.9,0.3,6,0.8l-0.6,2.5c-2.8-0.7-4.2-0.7-5.4-0.7c-3.7,0-5.3,2.6-5.3,6.5
		c0,3.9,1.6,6.5,5.3,6.5c1.2,0,2.6,0,5.4-0.7l0.6,2.6c-2.1,0.5-3.8,0.8-6,0.8c-6.5,0-8.7-3.7-8.7-9.2
		C165.5,92.4,167.7,88.7,174.2,88.7z"/>
	<path class="st1" d="M185.2,91.4h-2.6v-2.1l2.6-0.2l0.4-4.9h2.8v4.9h4.9v2.3h-4.9v9.7c0,2.3,0.7,3.5,3,3.5c0.5,0,1.1-0.1,1.8-0.2
		l0.3,2.5c-1,0.1-2.3,0.2-3.2,0.2c-3.6,0-5.1-1.5-5.1-5.5V91.4z"/>
	<path class="st1" d="M200.1,82.7v4.4h-3.2v-4.4H200.1z M200.1,89.1v17.7h-3.2V89.1H200.1z"/>
	<path class="st1" d="M210,106.9l-6.5-17.8h3.6l4.9,14.3h0.1l5-14.3h3.4l-6.6,17.8H210z"/>
	<path class="st1" d="M226,98.4c0.1,3.5,1.7,6,5.8,6c1.7,0,3.5-0.1,5.5-0.7l0.4,2.6c-2.2,0.6-4.1,0.8-6.4,0.8
		c-6.5,0-8.8-3.7-8.8-9.2c0-5.5,2.3-9.2,8.7-9.2c5.4,0,6.9,3.1,7.1,6.1c0.1,1.1,0,2.4-0.2,3.6H226z M226,96.4h9
		c0.1-0.6,0.2-1.3,0.1-1.9c-0.1-1.8-1.2-3.4-4-3.4C227.5,91.2,226.2,93.5,226,96.4z"/>
	<path class="st1" d="M242,82h3.2v24.7H242V82z"/>
	<path class="st1" d="M248.4,89.1h3.6l5.1,14.4h0.1l4.8-14.4h3.4l-6.6,18.7c-1.6,4.6-3.7,6.4-7.1,6.4c-0.8,0-1.9-0.1-2.6-0.2
		l0.3-2.6c0.6,0.1,1.2,0.2,1.7,0.2c2.3,0,3.6-2.3,4.4-4.3L248.4,89.1z"/>
	<path class="st1" d="M278.8,98.4c0.1,3.5,1.7,6,5.8,6c1.7,0,3.5-0.1,5.5-0.7l0.4,2.6c-2.2,0.6-4.1,0.8-6.4,0.8
		c-6.5,0-8.8-3.7-8.8-9.2c0-5.5,2.3-9.2,8.7-9.2c5.4,0,6.9,3.1,7.1,6.1c0.1,1.1,0,2.4-0.2,3.6H278.8z M278.8,96.4h9
		c0.1-0.6,0.2-1.3,0.1-1.9c-0.1-1.8-1.2-3.4-4-3.4C280.4,91.2,279.1,93.5,278.8,96.4z"/>
	<path class="st1" d="M298,106.7h-3.2V89.1h3.2v2.5h0.1c1.7-1.7,3.8-2.8,6.3-2.8c3.5,0,5.3,2.1,5.3,5.8v12.2h-3.2V95.3
		c0-2.3-0.9-3.9-3.5-3.9c-2,0-3.9,1.2-4.9,2V106.7z"/>
	<path class="st1" d="M315.6,105.6c-1-0.5-1.4-1.4-1.3-2.4c0-1.2,0.8-2.5,2.3-3.4v-0.1c-1.8-0.9-2.9-2.6-2.9-4.9c0-3.9,2.8-6,7.2-6
		c1,0,1.8,0.2,2.4,0.4h6.2V91h-3.4c1.4,1,1.7,2.5,1.7,3.7c0,4-3,5.8-7,5.8c-1,0-2-0.2-2.6-0.4c-0.3,0.3-0.5,0.7-0.7,1
		c-0.5,1.1-0.4,2.3,1,2.3l6.4,0.4c3.6,0.2,5.2,1.7,5.2,4.1c0,4.1-3.2,6.2-10.2,6.2c-4.8,0-7.2-1.4-7.2-4.6
		C312.5,108,313.4,106.7,315.6,105.6L315.6,105.6z M320.4,112c3.4,0,6.3-1.1,6.3-3.5c0-1.1-0.7-2-2.9-2.1l-6.5-0.4
		c-1.1,0.8-2,1.5-2,2.9C315.2,111,317,112,320.4,112z M324.9,94.7c0-2.4-1.6-3.9-4.1-3.9c-2.8,0-4.2,1.5-4.2,3.9
		c0,2.4,1.6,3.7,4.2,3.7C323.3,98.4,324.9,97.1,324.9,94.7z"/>
	<path class="st1" d="M333.7,92.1l-0.5-2.6c2.4-0.5,4.9-0.7,6.8-0.7c4.2,0,6.5,1.2,6.5,5.8v12.2h-3.2V105c0,0,0,0-0.1,0
		c-1.7,1.5-3.3,2.1-5.6,2.1c-3.5,0-5.6-2.1-5.6-5.2c0-4,3.2-5.4,7.4-5.4h3.9v-1.8c0-2.3-1.2-3.4-4.1-3.4
		C338,91.4,336.4,91.5,333.7,92.1z M343.4,98.4h-3.7c-3.3,0-4.4,1.2-4.4,3.2c0,1.9,1.4,3,3.7,3c2,0,3.6-0.8,4.4-1.5V98.4z"/>
	<path class="st1" d="M352.5,105.6c-1-0.5-1.4-1.4-1.3-2.4c0-1.2,0.8-2.5,2.3-3.4v-0.1c-1.8-0.9-2.9-2.6-2.9-4.9c0-3.9,2.8-6,7.2-6
		c1,0,1.8,0.2,2.4,0.4h6.2V91H363c1.4,1,1.7,2.5,1.7,3.7c0,4-3,5.8-7,5.8c-1,0-2-0.2-2.6-0.4c-0.3,0.3-0.5,0.7-0.7,1
		c-0.5,1.1-0.4,2.3,1,2.3l6.4,0.4c3.6,0.2,5.2,1.7,5.2,4.1c0,4.1-3.2,6.2-10.2,6.2c-4.8,0-7.2-1.4-7.2-4.6
		C349.5,108,350.4,106.7,352.5,105.6L352.5,105.6z M357.3,112c3.4,0,6.3-1.1,6.3-3.5c0-1.1-0.7-2-2.9-2.1l-6.5-0.4
		c-1.1,0.8-2,1.5-2,2.9C352.1,111,353.9,112,357.3,112z M361.9,94.7c0-2.4-1.6-3.9-4.1-3.9c-2.8,0-4.2,1.5-4.2,3.9
		c0,2.4,1.6,3.7,4.2,3.7C360.3,98.4,361.9,97.1,361.9,94.7z"/>
	<path class="st1" d="M372.3,98.4c0.1,3.5,1.7,6,5.8,6c1.7,0,3.5-0.1,5.5-0.7l0.4,2.6c-2.2,0.6-4.1,0.8-6.4,0.8
		c-6.5,0-8.8-3.7-8.8-9.2c0-5.5,2.3-9.2,8.7-9.2c5.4,0,6.9,3.1,7.1,6.1c0.1,1.1,0,2.4-0.2,3.6H372.3z M372.3,96.4h9
		c0.1-0.6,0.2-1.3,0.1-1.9c-0.1-1.8-1.2-3.4-4-3.4C373.8,91.2,372.5,93.5,372.3,96.4z"/>
	<path class="st1" d="M406.9,94l-3.6,12.9h-3.5l-5.4-17.8h3.5l3.9,14.3h0.1l3.5-14.3h3.1l3.7,14.3h0.1l3.7-14.3h3.4l-5.3,17.8h-3.5
		L406.9,94L406.9,94z"/>
	<path class="st1" d="M426.1,82.7v4.4h-3.2v-4.4H426.1z M426.1,89.1v17.7h-3.2V89.1H426.1z"/>
	<path class="st1" d="M431.7,91.4H429v-2.1l2.6-0.2l0.4-4.9h2.8v4.9h4.9v2.3h-4.9v9.7c0,2.3,0.7,3.5,3,3.5c0.5,0,1.1-0.1,1.8-0.2
		l0.3,2.5c-1,0.1-2.3,0.2-3.2,0.2c-3.6,0-5.1-1.5-5.1-5.5V91.4z"/>
	<path class="st1" d="M446.6,106.7h-3.2V82h3.2v9.5h0.1c1.7-1.7,3.8-2.8,6.3-2.8c3.5,0,5.3,2.1,5.3,5.8v12.2h-3.2V95.3
		c0-2.3-0.9-3.9-3.5-3.9c-2,0-3.9,1.2-4.9,2V106.7z"/>
</g>
<g>
	<path class="st1" d="M5.6,134.3v9.5H2.3v-24h9.9c4.8,0,7.4,3,7.4,7.2c0,4.4-2.6,7.2-7.4,7.2H5.6z M5.6,131.3h6.2
		c2.6,0,4.3-1.3,4.3-4.2c0-2.7-1.7-4.2-4.3-4.2H5.6V131.3z"/>
	<path class="st1" d="M26.4,143.8h-3.2v-17.7h3.2v2.8h0.1c1.4-1.6,3.8-3.2,6.6-3.2v3c-2.6,0-5.3,1.1-6.7,2V143.8z"/>
	<path class="st1" d="M35.6,135c0-5.5,2.2-9.2,8.1-9.2c5.9,0,8.1,3.7,8.1,9.2c0,5.5-2.2,9.2-8.1,9.2C37.8,144.2,35.6,140.5,35.6,135
		z M38.9,135c0,3.7,1.1,6.5,4.8,6.5c3.7,0,4.8-2.8,4.8-6.5s-1.1-6.5-4.8-6.5C40,128.5,38.9,131.3,38.9,135z"/>
	<path class="st1" d="M59.8,126.2h4.2v2.3h-4.2v15.4h-3.2v-15.4H54v-2.1l2.6-0.2V124c0-3.4,1.2-4.9,5.1-4.9c0.8,0,1.9,0.1,2.8,0.3
		l-0.3,2.5c-0.7-0.1-1.3-0.2-1.8-0.2c-2,0-2.6,0.6-2.6,2.5V126.2z"/>
	<path class="st1" d="M70,135.6c0.1,3.5,1.7,6,5.8,6c1.7,0,3.5-0.1,5.5-0.7l0.4,2.6c-2.2,0.6-4.1,0.8-6.4,0.8
		c-6.5,0-8.8-3.7-8.8-9.2c0-5.5,2.3-9.2,8.7-9.2c5.4,0,6.9,3.1,7.1,6.1c0.1,1.1,0,2.4-0.2,3.6H70z M70,133.5h9
		c0.1-0.6,0.2-1.3,0.1-1.9c-0.1-1.8-1.2-3.4-4-3.4C71.5,128.3,70.2,130.6,70,133.5z"/>
	<path class="st1" d="M92.7,144.2c-2.8,0-5.5-0.2-7.6-0.8l0.6-2.6c2.8,0.7,5.4,0.8,6.7,0.8c3.2,0,3.7-1.9,3.7-2.6c0-1.2-0.8-2-4-2.6
		c-3.7-0.7-6.6-1.9-6.6-5.6c0-3.4,2.4-4.9,6.5-4.9c2.7,0,4.9,0.3,7.1,0.8l-0.6,2.5c-2.8-0.7-5-0.8-6.3-0.8c-3.2,0-3.5,1.7-3.5,2.3
		c0,1.1,0.6,2,3.8,2.7c3.7,0.8,6.8,1.8,6.8,5.4C99.3,142.4,96.9,144.2,92.7,144.2z"/>
	<path class="st1" d="M109.6,144.2c-2.8,0-5.5-0.2-7.6-0.8l0.6-2.6c2.8,0.7,5.4,0.8,6.7,0.8c3.2,0,3.7-1.9,3.7-2.6
		c0-1.2-0.8-2-4-2.6c-3.7-0.7-6.6-1.9-6.6-5.6c0-3.4,2.4-4.9,6.5-4.9c2.7,0,4.9,0.3,7.1,0.8l-0.6,2.5c-2.8-0.7-5-0.8-6.3-0.8
		c-3.2,0-3.5,1.7-3.5,2.3c0,1.1,0.6,2,3.8,2.7c3.7,0.8,6.8,1.8,6.8,5.4C116.2,142.4,113.8,144.2,109.6,144.2z"/>
	<path class="st1" d="M122.9,119.8v4.4h-3.2v-4.4H122.9z M122.9,126.2v17.7h-3.2v-17.7H122.9z"/>
	<path class="st1" d="M126.6,135c0-5.5,2.2-9.2,8.1-9.2c5.9,0,8.1,3.7,8.1,9.2c0,5.5-2.2,9.2-8.1,9.2
		C128.8,144.2,126.6,140.5,126.6,135z M130,135c0,3.7,1.1,6.5,4.8,6.5c3.7,0,4.8-2.8,4.8-6.5s-1.1-6.5-4.8-6.5
		C131.1,128.5,130,131.3,130,135z"/>
	<path class="st1" d="M149.9,143.8h-3.2v-17.7h3.2v2.5h0.1c1.7-1.7,3.8-2.8,6.3-2.8c3.5,0,5.3,2.1,5.3,5.8v12.2h-3.2v-11.5
		c0-2.3-0.9-3.9-3.5-3.9c-2,0-3.9,1.2-4.9,2V143.8z"/>
	<path class="st1" d="M166.5,129.2l-0.5-2.6c2.4-0.5,4.9-0.7,6.8-0.7c4.2,0,6.5,1.2,6.5,5.8v12.2h-3.2v-1.8c0,0,0,0-0.1,0
		c-1.7,1.5-3.3,2.1-5.6,2.1c-3.5,0-5.6-2.1-5.6-5.2c0-4,3.2-5.4,7.4-5.4h3.9v-1.8c0-2.3-1.2-3.4-4.1-3.4
		C170.8,128.5,169.1,128.6,166.5,129.2z M176.2,135.6h-3.7c-3.3,0-4.4,1.2-4.4,3.2c0,1.9,1.4,3,3.7,3c2,0,3.6-0.8,4.4-1.5V135.6z"/>
	<path class="st1" d="M183.7,119.1h3.2v24.7h-3.2V119.1z"/>
	<path class="st1" d="M197.8,143l0.6-2.8c3.7,0.9,6.1,1.1,8.1,1.1c3.5,0,5.1-1.8,5.1-3.8c0-2.9-3.4-3.6-6-4.3
		c-3.9-1-7.4-3.2-7.4-7.2c0-4.6,3.7-6.4,8.3-6.4c2.6,0,5.1,0.4,8.1,1.2l-0.8,2.8c-3.6-0.9-5.4-1.1-7.3-1.1c-3.5,0-4.8,1.6-4.8,3.5
		c0,2.7,3.5,3.7,6.2,4.3c3.9,0.9,7.2,2.8,7.2,6.9c0,4.8-3.7,7.1-8.7,7.1C203.8,144.2,200.8,143.8,197.8,143z"/>
	<path class="st1" d="M219.6,128.5h-2.6v-2.1l2.6-0.2l0.4-4.9h2.8v4.9h4.9v2.3h-4.9v9.7c0,2.3,0.7,3.5,3,3.5c0.5,0,1.1-0.1,1.8-0.2
		l0.3,2.5c-1,0.1-2.3,0.2-3.2,0.2c-3.6,0-5.1-1.5-5.1-5.5V128.5z"/>
	<path class="st1" d="M232.3,129.2l-0.5-2.6c2.4-0.5,4.9-0.7,6.8-0.7c4.2,0,6.5,1.2,6.5,5.8v12.2H242v-1.8c0,0,0,0-0.1,0
		c-1.7,1.5-3.3,2.1-5.6,2.1c-3.5,0-5.6-2.1-5.6-5.2c0-4,3.2-5.4,7.4-5.4h3.9v-1.8c0-2.3-1.2-3.4-4.1-3.4
		C236.6,128.5,235,128.6,232.3,129.2z M242,135.6h-3.7c-3.3,0-4.4,1.2-4.4,3.2c0,1.9,1.4,3,3.7,3c2,0,3.6-0.8,4.4-1.5V135.6z"/>
	<path class="st1" d="M252.7,143.8h-3.2v-17.7h3.2v2.5h0.1c1.7-1.7,3.8-2.8,6.3-2.8c3.5,0,5.3,2.1,5.3,5.8v12.2h-3.2v-11.5
		c0-2.3-0.9-3.9-3.5-3.9c-2,0-3.9,1.2-4.9,2V143.8z"/>
	<path class="st1" d="M280.2,142.1C280.2,142.1,280.2,142.1,280.2,142.1c-1.3,1.2-3.4,2.1-5.5,2.1c-4.9,0-6.5-4.1-6.5-9.2
		s1.8-9.2,6.7-9.2c2,0,4,0.8,5.2,2c0,0,0,0,0.1,0v-8.8h3.2v24.7h-3.2V142.1z M276,141.6c1.9,0,3.5-0.9,4.2-1.5V130
		c-0.7-0.6-2.3-1.5-4.2-1.5c-3.5,0-4.4,3-4.4,6.5S272.5,141.6,276,141.6z"/>
	<path class="st1" d="M288.4,129.2l-0.5-2.6c2.4-0.5,4.9-0.7,6.8-0.7c4.2,0,6.5,1.2,6.5,5.8v12.2h-3.2v-1.8c0,0,0,0-0.1,0
		c-1.7,1.5-3.3,2.1-5.6,2.1c-3.5,0-5.6-2.1-5.6-5.2c0-4,3.2-5.4,7.4-5.4h3.9v-1.8c0-2.3-1.2-3.4-4.1-3.4
		C292.7,128.5,291,128.6,288.4,129.2z M298.1,135.6h-3.7c-3.3,0-4.4,1.2-4.4,3.2c0,1.9,1.4,3,3.7,3c2,0,3.6-0.8,4.4-1.5V135.6z"/>
	<path class="st1" d="M308.7,143.8h-3.2v-17.7h3.2v2.8h0.1c1.4-1.6,3.8-3.2,6.6-3.2v3c-2.6,0-5.3,1.1-6.7,2V143.8z"/>
	<path class="st1" d="M330,142.1C330,142.1,330,142.1,330,142.1c-1.3,1.2-3.4,2.1-5.5,2.1c-4.9,0-6.5-4.1-6.5-9.2s1.8-9.2,6.7-9.2
		c2,0,4,0.8,5.2,2c0,0,0,0,0.1,0v-8.8h3.2v24.7H330V142.1z M325.8,141.6c1.9,0,3.5-0.9,4.2-1.5V130c-0.7-0.6-2.3-1.5-4.2-1.5
		c-3.5,0-4.4,3-4.4,6.5S322.3,141.6,325.8,141.6z"/>
	<path class="st1" d="M344.2,144.2c-2.8,0-5.5-0.2-7.6-0.8l0.6-2.6c2.8,0.7,5.4,0.8,6.7,0.8c3.2,0,3.7-1.9,3.7-2.6
		c0-1.2-0.8-2-4-2.6c-3.7-0.7-6.6-1.9-6.6-5.6c0-3.4,2.4-4.9,6.5-4.9c2.7,0,4.9,0.3,7.1,0.8l-0.6,2.5c-2.8-0.7-5-0.8-6.3-0.8
		c-3.2,0-3.5,1.7-3.5,2.3c0,1.1,0.6,2,3.8,2.7c3.7,0.8,6.8,1.8,6.8,5.4C350.8,142.4,348.4,144.2,344.2,144.2z"/>
	<path class="st1" d="M362.2,129.2l-0.5-2.6c2.4-0.5,4.9-0.7,6.8-0.7c4.2,0,6.5,1.2,6.5,5.8v12.2h-3.2v-1.8c0,0,0,0-0.1,0
		c-1.7,1.5-3.3,2.1-5.6,2.1c-3.5,0-5.6-2.1-5.6-5.2c0-4,3.2-5.4,7.4-5.4h3.9v-1.8c0-2.3-1.2-3.4-4.1-3.4
		C366.5,128.5,364.8,128.6,362.2,129.2z M371.9,135.6h-3.7c-3.3,0-4.4,1.2-4.4,3.2c0,1.9,1.4,3,3.7,3c2,0,3.6-0.8,4.4-1.5V135.6z"/>
	<path class="st1" d="M386,144.2c-2.8,0-5.5-0.2-7.6-0.8l0.6-2.6c2.8,0.7,5.4,0.8,6.7,0.8c3.2,0,3.7-1.9,3.7-2.6c0-1.2-0.8-2-4-2.6
		c-3.7-0.7-6.6-1.9-6.6-5.6c0-3.4,2.4-4.9,6.5-4.9c2.7,0,4.9,0.3,7.1,0.8l-0.6,2.5c-2.8-0.7-5-0.8-6.3-0.8c-3.2,0-3.5,1.7-3.5,2.3
		c0,1.1,0.6,2,3.8,2.7c3.7,0.8,6.8,1.8,6.8,5.4C392.6,142.4,390.2,144.2,386,144.2z"/>
	<path class="st1" d="M406.1,128L406.1,128c1.3-1.2,3.4-2.1,5.5-2.1c4.9,0,6.5,4.1,6.5,9.2s-1.8,9.2-6.7,9.2c-2,0-4-0.8-5.2-2h-0.1
		v8.7h-3.2v-24.7h3.2V128z M410.4,128.5c-1.9,0-3.5,0.9-4.2,1.5v10.1c0.7,0.6,2.3,1.5,4.2,1.5c3.4,0,4.4-3,4.4-6.5
		S413.8,128.5,410.4,128.5z"/>
	<path class="st1" d="M422.8,129.2l-0.5-2.6c2.4-0.5,4.9-0.7,6.8-0.7c4.2,0,6.5,1.2,6.5,5.8v12.2h-3.2v-1.8c0,0,0,0-0.1,0
		c-1.7,1.5-3.3,2.1-5.6,2.1c-3.5,0-5.6-2.1-5.6-5.2c0-4,3.2-5.4,7.4-5.4h3.9v-1.8c0-2.3-1.2-3.4-4.1-3.4
		C427.1,128.5,425.4,128.6,422.8,129.2z M432.5,135.6h-3.7c-3.3,0-4.4,1.2-4.4,3.2c0,1.9,1.4,3,3.7,3c2,0,3.6-0.8,4.4-1.5V135.6z"/>
	<path class="st1" d="M443.2,143.8H440v-17.7h3.2v2.8h0.1c1.4-1.6,3.8-3.2,6.6-3.2v3c-2.6,0-5.3,1.1-6.7,2V143.8z"/>
	<path class="st1" d="M455.2,128.5h-2.6v-2.1l2.6-0.2l0.4-4.9h2.8v4.9h4.9v2.3h-4.9v9.7c0,2.3,0.7,3.5,3,3.5c0.5,0,1.1-0.1,1.8-0.2
		l0.3,2.5c-1,0.1-2.3,0.2-3.2,0.2c-3.6,0-5.1-1.5-5.1-5.5V128.5z"/>
	<path class="st1" d="M473.7,135c0-5.5,2.2-9.2,8.1-9.2c5.9,0,8.1,3.7,8.1,9.2c0,5.5-2.2,9.2-8.1,9.2
		C475.9,144.2,473.7,140.5,473.7,135z M477,135c0,3.7,1.1,6.5,4.8,6.5c3.7,0,4.8-2.8,4.8-6.5s-1.1-6.5-4.8-6.5
		C478.1,128.5,477,131.3,477,135z"/>
	<path class="st1" d="M497.9,126.2h4.2v2.3h-4.2v15.4h-3.2v-15.4h-2.6v-2.1l2.6-0.2V124c0-3.4,1.2-4.9,5.1-4.9
		c0.8,0,1.9,0.1,2.8,0.3l-0.3,2.5c-0.7-0.1-1.3-0.2-1.8-0.2c-2,0-2.6,0.6-2.6,2.5V126.2z"/>
	<path class="st1" d="M513.9,128.5h-2.6v-2.1l2.6-0.2l0.4-4.9h2.8v4.9h4.9v2.3h-4.9v9.7c0,2.3,0.7,3.5,3,3.5c0.5,0,1.1-0.1,1.8-0.2
		l0.3,2.5c-1,0.1-2.3,0.2-3.2,0.2c-3.6,0-5.1-1.5-5.1-5.5V128.5z"/>
	<path class="st1" d="M528.8,143.8h-3.2v-24.7h3.2v9.5h0.1c1.7-1.7,3.8-2.8,6.3-2.8c3.5,0,5.3,2.1,5.3,5.8v12.2h-3.2v-11.5
		c0-2.3-0.9-3.9-3.5-3.9c-2,0-3.9,1.2-4.9,2V143.8z"/>
	<path class="st1" d="M547.7,135.6c0.1,3.5,1.7,6,5.8,6c1.7,0,3.5-0.1,5.5-0.7l0.4,2.6c-2.2,0.6-4.1,0.8-6.4,0.8
		c-6.5,0-8.8-3.7-8.8-9.2c0-5.5,2.3-9.2,8.7-9.2c5.4,0,6.9,3.1,7.1,6.1c0.1,1.1,0,2.4-0.2,3.6H547.7z M547.7,133.5h9
		c0.1-0.6,0.2-1.3,0.1-1.9c-0.1-1.8-1.2-3.4-4-3.4C549.2,128.3,547.9,130.6,547.7,133.5z"/>
	<path class="st1" d="M566.8,119.8v4.4h-3.2v-4.4H566.8z M566.8,126.2v17.7h-3.2v-17.7H566.8z"/>
	<path class="st1" d="M574.3,143.8h-3.2v-17.7h3.2v2.8h0.1c1.4-1.6,3.8-3.2,6.6-3.2v3c-2.6,0-5.3,1.1-6.7,2V143.8z"/>
</g>
<g>
	<path class="st1" d="M5.1,165.1L5.1,165.1c1.3-1.2,3.4-2.1,5.5-2.1c4.9,0,6.5,4.1,6.5,9.2s-1.8,9.2-6.7,9.2c-2,0-4-0.8-5.2-2H5.1
		v8.7H1.9v-24.7h3.2V165.1z M9.4,165.6c-1.9,0-3.5,0.9-4.2,1.5v10.1c0.7,0.6,2.3,1.5,4.2,1.5c3.4,0,4.4-3,4.4-6.5
		S12.8,165.6,9.4,165.6z"/>
	<path class="st1" d="M24.1,181H21v-17.7h3.2v2.8h0.1c1.4-1.6,3.8-3.2,6.6-3.2v3c-2.6,0-5.3,1.1-6.7,2V181z"/>
	<path class="st1" d="M33.4,172.1c0-5.5,2.2-9.2,8.1-9.2c5.9,0,8.1,3.7,8.1,9.2c0,5.5-2.2,9.2-8.1,9.2
		C35.6,181.3,33.4,177.6,33.4,172.1z M36.7,172.1c0,3.7,1.1,6.5,4.8,6.5c3.7,0,4.8-2.8,4.8-6.5s-1.1-6.5-4.8-6.5
		C37.8,165.6,36.7,168.4,36.7,172.1z"/>
	<path class="st1" d="M57.6,163.3h4.2v2.3h-4.2V181h-3.2v-15.4h-2.6v-2.1l2.6-0.2v-2.2c0-3.4,1.2-4.9,5.1-4.9c0.8,0,1.9,0.1,2.8,0.3
		l-0.3,2.5c-0.7-0.1-1.3-0.2-1.8-0.2c-2,0-2.6,0.6-2.6,2.5V163.3z"/>
	<path class="st1" d="M67.8,172.7c0.1,3.5,1.7,6,5.8,6c1.7,0,3.5-0.1,5.5-0.7l0.4,2.6c-2.2,0.6-4.1,0.8-6.4,0.8
		c-6.5,0-8.8-3.7-8.8-9.2c0-5.5,2.3-9.2,8.7-9.2c5.4,0,6.9,3.1,7.1,6.1c0.1,1.1,0,2.4-0.2,3.6H67.8z M67.8,170.6h9
		c0.1-0.6,0.2-1.3,0.1-1.9c-0.1-1.8-1.2-3.4-4-3.4C69.3,165.4,68,167.7,67.8,170.6z"/>
	<path class="st1" d="M90.5,181.3c-2.8,0-5.5-0.2-7.6-0.8l0.6-2.6c2.8,0.7,5.4,0.8,6.7,0.8c3.2,0,3.7-1.9,3.7-2.6c0-1.2-0.8-2-4-2.6
		c-3.7-0.7-6.6-1.9-6.6-5.6c0-3.4,2.4-4.9,6.5-4.9c2.7,0,4.9,0.3,7.1,0.8l-0.6,2.5c-2.8-0.7-5-0.8-6.3-0.8c-3.2,0-3.5,1.7-3.5,2.3
		c0,1.1,0.6,2,3.8,2.7c3.7,0.8,6.8,1.8,6.8,5.4C97.1,179.5,94.7,181.3,90.5,181.3z"/>
	<path class="st1" d="M107.4,181.3c-2.8,0-5.5-0.2-7.6-0.8l0.6-2.6c2.8,0.7,5.4,0.8,6.7,0.8c3.2,0,3.7-1.9,3.7-2.6
		c0-1.2-0.8-2-4-2.6c-3.7-0.7-6.6-1.9-6.6-5.6c0-3.4,2.4-4.9,6.5-4.9c2.7,0,4.9,0.3,7.1,0.8l-0.6,2.5c-2.8-0.7-5-0.8-6.3-0.8
		c-3.2,0-3.5,1.7-3.5,2.3c0,1.1,0.6,2,3.8,2.7c3.7,0.8,6.8,1.8,6.8,5.4C113.9,179.5,111.5,181.3,107.4,181.3z"/>
	<path class="st1" d="M120.6,156.9v4.4h-3.2v-4.4H120.6z M120.6,163.3V181h-3.2v-17.7H120.6z"/>
	<path class="st1" d="M124.4,172.1c0-5.5,2.2-9.2,8.1-9.2c5.9,0,8.1,3.7,8.1,9.2c0,5.5-2.2,9.2-8.1,9.2
		C126.6,181.3,124.4,177.6,124.4,172.1z M127.8,172.1c0,3.7,1.1,6.5,4.8,6.5c3.7,0,4.8-2.8,4.8-6.5s-1.1-6.5-4.8-6.5
		C128.8,165.6,127.8,168.4,127.8,172.1z"/>
	<path class="st1" d="M147.6,181h-3.2v-17.7h3.2v2.5h0.1c1.7-1.7,3.8-2.8,6.3-2.8c3.5,0,5.3,2.1,5.3,5.8V181h-3.2v-11.5
		c0-2.3-0.9-3.9-3.5-3.9c-2,0-3.9,1.2-4.9,2V181z"/>
	<path class="st1" d="M164.3,166.3l-0.5-2.6c2.4-0.5,4.9-0.7,6.8-0.7c4.2,0,6.5,1.2,6.5,5.8V181H174v-1.8c0,0,0,0-0.1,0
		c-1.7,1.5-3.3,2.1-5.6,2.1c-3.5,0-5.6-2.1-5.6-5.2c0-4,3.2-5.4,7.4-5.4h3.9v-1.8c0-2.3-1.2-3.4-4.1-3.4
		C168.6,165.6,166.9,165.7,164.3,166.3z M174,172.7h-3.7c-3.3,0-4.4,1.2-4.4,3.2c0,1.9,1.4,3,3.7,3c2,0,3.6-0.8,4.4-1.5V172.7z"/>
	<path class="st1" d="M181.4,156.2h3.2V181h-3.2V156.2z"/>
	<path class="st1" d="M197,165.6h-2.6v-2.1l2.6-0.2l0.4-4.9h2.8v4.9h4.9v2.3h-4.9v9.7c0,2.3,0.7,3.5,3,3.5c0.5,0,1.1-0.1,1.8-0.2
		l0.3,2.5c-1,0.1-2.3,0.2-3.2,0.2c-3.6,0-5.1-1.5-5.1-5.5V165.6z"/>
	<path class="st1" d="M211.9,181h-3.2v-24.7h3.2v9.5h0.1c1.7-1.7,3.8-2.8,6.3-2.8c3.5,0,5.3,2.1,5.3,5.8V181h-3.2v-11.5
		c0-2.3-0.9-3.9-3.5-3.9c-2,0-3.9,1.2-4.9,2V181z"/>
	<path class="st1" d="M231,156.9v4.4h-3.2v-4.4H231z M231,163.3V181h-3.2v-17.7H231z"/>
	<path class="st1" d="M238.5,181h-3.2v-17.7h3.2v2.5h0.1c1.7-1.7,3.8-2.8,6.3-2.8c3.5,0,5.3,2.1,5.3,5.8V181h-3.2v-11.5
		c0-2.3-0.9-3.9-3.5-3.9c-2,0-3.9,1.2-4.9,2V181z"/>
	<path class="st1" d="M257.6,170.5l8.5-7.2h3.9l-6.7,6.1l7.1,11.5h-3.8l-5.5-9.7l-3.4,2.9v6.9h-3.2v-24.7h3.2V170.5z"/>
	<path class="st1" d="M276.7,156.9v4.4h-3.2v-4.4H276.7z M276.7,163.3V181h-3.2v-17.7H276.7z"/>
	<path class="st1" d="M284.2,181H281v-17.7h3.2v2.5h0.1c1.7-1.7,3.8-2.8,6.3-2.8c3.5,0,5.3,2.1,5.3,5.8V181h-3.2v-11.5
		c0-2.3-0.9-3.9-3.5-3.9c-2,0-3.9,1.2-4.9,2V181z"/>
	<path class="st1" d="M301.8,179.8c-1-0.5-1.4-1.4-1.3-2.4c0-1.2,0.8-2.5,2.3-3.4v-0.1c-1.8-0.9-2.9-2.6-2.9-4.9c0-3.9,2.8-6,7.2-6
		c1,0,1.8,0.2,2.4,0.4h6.2v1.9h-3.4c1.4,1,1.7,2.5,1.7,3.7c0,4-3,5.8-7,5.8c-1,0-2-0.2-2.6-0.4c-0.3,0.3-0.5,0.7-0.7,1
		c-0.5,1.1-0.4,2.3,1,2.3l6.4,0.4c3.6,0.2,5.2,1.7,5.2,4.1c0,4.1-3.2,6.2-10.2,6.2c-4.8,0-7.2-1.4-7.2-4.6
		C298.7,182.2,299.6,181,301.8,179.8L301.8,179.8z M306.6,186.3c3.4,0,6.3-1.1,6.3-3.5c0-1.1-0.7-2-2.9-2.1l-6.5-0.4
		c-1.1,0.8-2,1.5-2,2.9C301.4,185.2,303.2,186.3,306.6,186.3z M311.1,168.9c0-2.4-1.6-3.9-4.1-3.9c-2.8,0-4.2,1.5-4.2,3.9
		c0,2.4,1.6,3.7,4.2,3.7C309.5,172.7,311.1,171.3,311.1,168.9z"/>
	<path class="st1" d="M327.3,166.3l-0.5-2.6c2.4-0.5,4.9-0.7,6.8-0.7c4.2,0,6.5,1.2,6.5,5.8V181H337v-1.8c0,0,0,0-0.1,0
		c-1.7,1.5-3.3,2.1-5.6,2.1c-3.5,0-5.6-2.1-5.6-5.2c0-4,3.2-5.4,7.4-5.4h3.9v-1.8c0-2.3-1.2-3.4-4.1-3.4
		C331.6,165.6,329.9,165.7,327.3,166.3z M337,172.7h-3.7c-3.3,0-4.4,1.2-4.4,3.2c0,1.9,1.4,3,3.7,3c2,0,3.6-0.8,4.4-1.5V172.7z"/>
	<path class="st1" d="M347.7,181h-3.2v-17.7h3.2v2.5h0.1c1.7-1.7,3.8-2.8,6.3-2.8c3.5,0,5.3,2.1,5.3,5.8V181h-3.2v-11.5
		c0-2.3-0.9-3.9-3.5-3.9c-2,0-3.9,1.2-4.9,2V181z"/>
	<path class="st1" d="M375.2,179.2C375.1,179.2,375.1,179.2,375.2,179.2c-1.3,1.2-3.4,2.1-5.5,2.1c-4.9,0-6.5-4.1-6.5-9.2
		s1.8-9.2,6.7-9.2c2,0,4,0.8,5.2,2c0,0,0,0,0.1,0v-8.8h3.2V181h-3.2V179.2z M370.9,178.7c1.9,0,3.5-0.9,4.2-1.5v-10.1
		c-0.7-0.6-2.3-1.5-4.2-1.5c-3.5,0-4.4,3-4.4,6.5S367.5,178.7,370.9,178.7z"/>
	<path class="st1" d="M392.5,165.1L392.5,165.1c1.3-1.2,3.4-2.1,5.5-2.1c4.9,0,6.5,4.1,6.5,9.2s-1.8,9.2-6.7,9.2c-2,0-4-0.8-5.2-2
		h-0.1v8.7h-3.2v-24.7h3.2V165.1z M396.7,165.6c-1.9,0-3.5,0.9-4.2,1.5v10.1c0.7,0.6,2.3,1.5,4.2,1.5c3.4,0,4.4-3,4.4-6.5
		S400.1,165.6,396.7,165.6z"/>
	<path class="st1" d="M411.5,181h-3.2v-17.7h3.2v2.8h0.1c1.4-1.6,3.8-3.2,6.6-3.2v3c-2.6,0-5.3,1.1-6.7,2V181z"/>
	<path class="st1" d="M422.3,166.3l-0.5-2.6c2.4-0.5,4.9-0.7,6.8-0.7c4.2,0,6.5,1.2,6.5,5.8V181h-3.2v-1.8c0,0,0,0-0.1,0
		c-1.7,1.5-3.3,2.1-5.6,2.1c-3.5,0-5.6-2.1-5.6-5.2c0-4,3.2-5.4,7.4-5.4h3.9v-1.8c0-2.3-1.2-3.4-4.1-3.4
		C426.5,165.6,424.9,165.7,422.3,166.3z M431.9,172.7h-3.7c-3.3,0-4.4,1.2-4.4,3.2c0,1.9,1.4,3,3.7,3c2,0,3.6-0.8,4.4-1.5V172.7z"/>
	<path class="st1" d="M447.5,162.9c2.2,0,3.9,0.3,6,0.8l-0.6,2.5c-2.8-0.7-4.2-0.7-5.4-0.7c-3.7,0-5.3,2.6-5.3,6.5
		c0,3.9,1.6,6.5,5.3,6.5c1.2,0,2.6,0,5.4-0.7l0.6,2.6c-2.1,0.5-3.8,0.8-6,0.8c-6.5,0-8.7-3.7-8.7-9.2
		C438.9,166.7,441,162.9,447.5,162.9z"/>
	<path class="st1" d="M458.6,165.6h-2.6v-2.1l2.6-0.2l0.4-4.9h2.8v4.9h4.9v2.3h-4.9v9.7c0,2.3,0.7,3.5,3,3.5c0.5,0,1.1-0.1,1.8-0.2
		l0.3,2.5c-1,0.1-2.3,0.2-3.2,0.2c-3.6,0-5.1-1.5-5.1-5.5V165.6z"/>
	<path class="st1" d="M473.5,156.9v4.4h-3.2v-4.4H473.5z M473.5,163.3V181h-3.2v-17.7H473.5z"/>
	<path class="st1" d="M485.9,162.9c2.2,0,3.9,0.3,6,0.8l-0.6,2.5c-2.8-0.7-4.2-0.7-5.4-0.7c-3.7,0-5.3,2.6-5.3,6.5
		c0,3.9,1.6,6.5,5.3,6.5c1.2,0,2.6,0,5.4-0.7l0.6,2.6c-2.1,0.5-3.8,0.8-6,0.8c-6.5,0-8.7-3.7-8.7-9.2
		C477.2,166.7,479.4,162.9,485.9,162.9z"/>
	<path class="st1" d="M497.4,172.7c0.1,3.5,1.7,6,5.8,6c1.7,0,3.5-0.1,5.5-0.7l0.4,2.6c-2.2,0.6-4.1,0.8-6.4,0.8
		c-6.5,0-8.8-3.7-8.8-9.2c0-5.5,2.3-9.2,8.7-9.2c5.4,0,6.9,3.1,7.1,6.1c0.1,1.1,0,2.4-0.2,3.6H497.4z M497.4,170.6h9
		c0.1-0.6,0.2-1.3,0.1-1.9c-0.1-1.8-1.2-3.4-4-3.4C498.9,165.4,497.6,167.7,497.4,170.6z"/>
</g>
<g>
	<path class="st1" d="M11.5,231.1v21H8.2v-21H1.6v-3h16.6v3H11.5z"/>
	<path class="st1" d="M22,243.8c0.1,3.5,1.7,6,5.8,6c1.7,0,3.5-0.1,5.5-0.7l0.4,2.6c-2.2,0.6-4.1,0.8-6.4,0.8
		c-6.5,0-8.8-3.7-8.8-9.2s2.3-9.2,8.7-9.2c5.4,0,6.9,3.1,7.1,6.1c0.1,1.1,0,2.4-0.2,3.6H22z M22,241.8h9c0.1-0.6,0.2-1.3,0.1-1.9
		c-0.1-1.8-1.2-3.4-4-3.4C23.5,236.5,22.2,238.8,22,241.8z"/>
	<path class="st1" d="M38.5,237.4l-0.5-2.6c2.4-0.5,4.9-0.7,6.8-0.7c4.2,0,6.5,1.2,6.5,5.8v12.2h-3.2v-1.8c0,0,0,0-0.1,0
		c-1.7,1.5-3.3,2.1-5.6,2.1c-3.5,0-5.6-2.1-5.6-5.2c0-4,3.2-5.4,7.4-5.4h3.9v-1.8c0-2.3-1.2-3.4-4.1-3.4
		C42.8,236.7,41.1,236.8,38.5,237.4z M48.2,243.8h-3.7c-3.3,0-4.4,1.2-4.4,3.2c0,1.9,1.4,3,3.7,3c2,0,3.6-0.8,4.4-1.5V243.8z"/>
	<path class="st1" d="M63.8,234.1c2.2,0,3.9,0.3,6,0.8l-0.6,2.5c-2.8-0.7-4.2-0.7-5.4-0.7c-3.7,0-5.3,2.6-5.3,6.5s1.6,6.5,5.3,6.5
		c1.2,0,2.6,0,5.4-0.7l0.6,2.6c-2.1,0.5-3.8,0.8-6,0.8c-6.5,0-8.7-3.7-8.7-9.2S57.3,234.1,63.8,234.1z"/>
	<path class="st1" d="M75.9,252.1h-3.2v-24.7h3.2v9.5H76c1.7-1.7,3.8-2.8,6.3-2.8c3.5,0,5.3,2.1,5.3,5.8v12.2h-3.2v-11.5
		c0-2.3-0.9-3.9-3.5-3.9c-2,0-3.9,1.2-4.9,2V252.1z"/>
	<path class="st1" d="M94.7,243.8c0.1,3.5,1.7,6,5.8,6c1.7,0,3.5-0.1,5.5-0.7l0.4,2.6c-2.2,0.6-4.1,0.8-6.4,0.8
		c-6.5,0-8.8-3.7-8.8-9.2s2.3-9.2,8.7-9.2c5.4,0,6.9,3.1,7.1,6.1c0.1,1.1,0,2.4-0.2,3.6H94.7z M94.7,241.8h9
		c0.1-0.6,0.2-1.3,0.1-1.9c-0.1-1.8-1.2-3.4-4-3.4C96.2,236.5,95,238.8,94.7,241.8z"/>
	<path class="st1" d="M113.9,252.1h-3.2v-17.7h3.2v2.8h0.1c1.4-1.6,3.8-3.2,6.6-3.2v3c-2.6,0-5.3,1.1-6.7,2V252.1z"/>
	<path class="st1" d="M130.9,252.4c-2.8,0-5.5-0.2-7.6-0.8l0.6-2.6c2.8,0.7,5.4,0.8,6.7,0.8c3.2,0,3.7-1.9,3.7-2.6
		c0-1.2-0.8-2-4-2.6c-3.7-0.7-6.6-1.9-6.6-5.6c0-3.4,2.4-4.9,6.5-4.9c2.7,0,4.9,0.3,7.1,0.8l-0.6,2.5c-2.8-0.7-5-0.8-6.3-0.8
		c-3.2,0-3.5,1.7-3.5,2.3c0,1.1,0.6,2,3.8,2.7c3.7,0.8,6.8,1.8,6.8,5.4C137.4,250.6,135,252.4,130.9,252.4z"/>
	<path class="st1" d="M159.5,234.4h3.2v17.7h-3.2v-2.5h-0.1c-1.7,1.7-3.8,2.8-6.3,2.8c-3.5,0-5.3-2.1-5.3-5.8v-12.2h3.2v11.5
		c0,2.3,1,3.9,3.5,3.9c2,0,3.9-1.2,4.9-2V234.4z"/>
	<path class="st1" d="M170.2,252.1H167v-17.7h3.2v2.5h0.1c1.7-1.7,3.8-2.8,6.3-2.8c3.5,0,5.3,2.1,5.3,5.8v12.2h-3.2v-11.5
		c0-2.3-0.9-3.9-3.5-3.9c-2,0-3.9,1.2-4.9,2V252.1z"/>
	<path class="st1" d="M197.7,250.3C197.6,250.3,197.6,250.3,197.7,250.3c-1.3,1.2-3.4,2.1-5.5,2.1c-4.9,0-6.5-4.1-6.5-9.2
		s1.8-9.2,6.7-9.2c2,0,4,0.8,5.2,2c0,0,0,0,0.1,0v-8.8h3.2v24.7h-3.2V250.3z M193.4,249.8c1.9,0,3.5-0.9,4.2-1.5v-10.1
		c-0.7-0.6-2.3-1.5-4.2-1.5c-3.5,0-4.4,3-4.4,6.5S190,249.8,193.4,249.8z"/>
	<path class="st1" d="M208.1,243.8c0.1,3.5,1.7,6,5.8,6c1.7,0,3.5-0.1,5.5-0.7l0.4,2.6c-2.2,0.6-4.1,0.8-6.4,0.8
		c-6.5,0-8.8-3.7-8.8-9.2s2.3-9.2,8.7-9.2c5.4,0,6.9,3.1,7.1,6.1c0.1,1.1,0,2.4-0.2,3.6H208.1z M208.1,241.8h9
		c0.1-0.6,0.2-1.3,0.1-1.9c-0.1-1.8-1.2-3.4-4-3.4C209.6,236.5,208.3,238.8,208.1,241.8z"/>
	<path class="st1" d="M227.2,252.1h-3.2v-17.7h3.2v2.8h0.1c1.4-1.6,3.8-3.2,6.6-3.2v3c-2.6,0-5.3,1.1-6.7,2V252.1z"/>
	<path class="st1" d="M244.2,252.4c-2.8,0-5.5-0.2-7.6-0.8l0.6-2.6c2.8,0.7,5.4,0.8,6.7,0.8c3.2,0,3.7-1.9,3.7-2.6
		c0-1.2-0.8-2-4-2.6c-3.7-0.7-6.6-1.9-6.6-5.6c0-3.4,2.4-4.9,6.5-4.9c2.7,0,4.9,0.3,7.1,0.8l-0.6,2.5c-2.8-0.7-5-0.8-6.3-0.8
		c-3.2,0-3.5,1.7-3.5,2.3c0,1.1,0.6,2,3.8,2.7c3.7,0.8,6.8,1.8,6.8,5.4C250.8,250.6,248.4,252.4,244.2,252.4z"/>
	<path class="st1" d="M256.1,236.7h-2.6v-2.1l2.6-0.2l0.4-4.9h2.8v4.9h4.9v2.3h-4.9v9.7c0,2.3,0.7,3.5,3,3.5c0.5,0,1.1-0.1,1.8-0.2
		l0.3,2.5c-1,0.1-2.3,0.2-3.2,0.2c-3.6,0-5.1-1.5-5.1-5.5V236.7z"/>
	<path class="st1" d="M268.9,237.4l-0.5-2.6c2.4-0.5,4.9-0.7,6.8-0.7c4.2,0,6.5,1.2,6.5,5.8v12.2h-3.2v-1.8c0,0,0,0-0.1,0
		c-1.7,1.5-3.3,2.1-5.6,2.1c-3.5,0-5.6-2.1-5.6-5.2c0-4,3.2-5.4,7.4-5.4h3.9v-1.8c0-2.3-1.2-3.4-4.1-3.4
		C273.1,236.7,271.5,236.8,268.9,237.4z M278.5,243.8h-3.7c-3.3,0-4.4,1.2-4.4,3.2c0,1.9,1.4,3,3.7,3c2,0,3.6-0.8,4.4-1.5V243.8z"/>
	<path class="st1" d="M289.2,252.1H286v-17.7h3.2v2.5h0.1c1.7-1.7,3.8-2.8,6.3-2.8c3.5,0,5.3,2.1,5.3,5.8v12.2h-3.2v-11.5
		c0-2.3-0.9-3.9-3.5-3.9c-2,0-3.9,1.2-4.9,2V252.1z"/>
	<path class="st1" d="M316.7,250.3C316.7,250.3,316.7,250.3,316.7,250.3c-1.3,1.2-3.4,2.1-5.5,2.1c-4.9,0-6.5-4.1-6.5-9.2
		s1.8-9.2,6.7-9.2c2,0,4,0.8,5.2,2c0,0,0,0,0.1,0v-8.8h3.2v24.7h-3.2V250.3z M312.5,249.8c1.9,0,3.5-0.9,4.2-1.5v-10.1
		c-0.7-0.6-2.3-1.5-4.2-1.5c-3.5,0-4.4,3-4.4,6.5S309,249.8,312.5,249.8z"/>
	<path class="st1" d="M342.7,239.3l-3.6,12.9h-3.5l-5.4-17.8h3.5l3.9,14.3h0.1l3.5-14.3h3.1l3.7,14.3h0.1l3.7-14.3h3.4l-5.3,17.8
		h-3.5L342.7,239.3L342.7,239.3z"/>
	<path class="st1" d="M361.9,252.1h-3.2v-24.7h3.2v9.5h0.1c1.7-1.7,3.8-2.8,6.3-2.8c3.5,0,5.3,2.1,5.3,5.8v12.2h-3.2v-11.5
		c0-2.3-0.9-3.9-3.5-3.9c-2,0-3.9,1.2-4.9,2V252.1z"/>
	<path class="st1" d="M378.5,237.4l-0.5-2.6c2.4-0.5,4.9-0.7,6.8-0.7c4.2,0,6.5,1.2,6.5,5.8v12.2h-3.2v-1.8c0,0,0,0-0.1,0
		c-1.7,1.5-3.3,2.1-5.6,2.1c-3.5,0-5.6-2.1-5.6-5.2c0-4,3.2-5.4,7.4-5.4h3.9v-1.8c0-2.3-1.2-3.4-4.1-3.4
		C382.8,236.7,381.1,236.8,378.5,237.4z M388.2,243.8h-3.7c-3.3,0-4.4,1.2-4.4,3.2c0,1.9,1.4,3,3.7,3c2,0,3.6-0.8,4.4-1.5V243.8z"/>
	<path class="st1" d="M396.8,236.7h-2.6v-2.1l2.6-0.2l0.4-4.9h2.8v4.9h4.9v2.3H400v9.7c0,2.3,0.7,3.5,3,3.5c0.5,0,1.1-0.1,1.8-0.2
		l0.3,2.5c-1,0.1-2.3,0.2-3.2,0.2c-3.6,0-5.1-1.5-5.1-5.5V236.7z"/>
	<path class="st1" d="M417.1,236.7h-2.6v-2.1l2.6-0.2l0.4-4.9h2.8v4.9h4.9v2.3h-4.9v9.7c0,2.3,0.7,3.5,3,3.5c0.5,0,1.1-0.1,1.8-0.2
		l0.3,2.5c-1,0.1-2.3,0.2-3.2,0.2c-3.6,0-5.1-1.5-5.1-5.5V236.7z"/>
	<path class="st1" d="M431.3,243.8c0.1,3.5,1.7,6,5.8,6c1.7,0,3.5-0.1,5.5-0.7l0.4,2.6c-2.2,0.6-4.1,0.8-6.4,0.8
		c-6.5,0-8.8-3.7-8.8-9.2s2.3-9.2,8.7-9.2c5.4,0,6.9,3.1,7.1,6.1c0.1,1.1,0,2.4-0.2,3.6H431.3z M431.3,241.8h9
		c0.1-0.6,0.2-1.3,0.1-1.9c-0.1-1.8-1.2-3.4-4-3.4C432.8,236.5,431.5,238.8,431.3,241.8z"/>
	<path class="st1" d="M447.8,237.4l-0.5-2.6c2.4-0.5,4.9-0.7,6.8-0.7c4.2,0,6.5,1.2,6.5,5.8v12.2h-3.2v-1.8c0,0,0,0-0.1,0
		c-1.7,1.5-3.3,2.1-5.6,2.1c-3.5,0-5.6-2.1-5.6-5.2c0-4,3.2-5.4,7.4-5.4h3.9v-1.8c0-2.3-1.2-3.4-4.1-3.4
		C452.1,236.7,450.4,236.8,447.8,237.4z M457.5,243.8h-3.7c-3.3,0-4.4,1.2-4.4,3.2c0,1.9,1.4,3,3.7,3c2,0,3.6-0.8,4.4-1.5V243.8z"/>
	<path class="st1" d="M473,234.1c2.2,0,3.9,0.3,6,0.8l-0.6,2.5c-2.8-0.7-4.2-0.7-5.4-0.7c-3.7,0-5.3,2.6-5.3,6.5s1.6,6.5,5.3,6.5
		c1.2,0,2.6,0,5.4-0.7l0.6,2.6c-2.1,0.5-3.8,0.8-6,0.8c-6.5,0-8.7-3.7-8.7-9.2S466.6,234.1,473,234.1z"/>
	<path class="st1" d="M485.2,252.1H482v-24.7h3.2v9.5h0.1c1.7-1.7,3.8-2.8,6.3-2.8c3.5,0,5.3,2.1,5.3,5.8v12.2h-3.2v-11.5
		c0-2.3-0.9-3.9-3.5-3.9c-2,0-3.9,1.2-4.9,2V252.1z"/>
	<path class="st1" d="M504,243.8c0.1,3.5,1.7,6,5.8,6c1.7,0,3.5-0.1,5.5-0.7l0.4,2.6c-2.2,0.6-4.1,0.8-6.4,0.8
		c-6.5,0-8.8-3.7-8.8-9.2s2.3-9.2,8.7-9.2c5.4,0,6.9,3.1,7.1,6.1c0.1,1.1,0,2.4-0.2,3.6H504z M504,241.8h9c0.1-0.6,0.2-1.3,0.1-1.9
		c-0.1-1.8-1.2-3.4-4-3.4C505.5,236.5,504.2,238.8,504,241.8z"/>
	<path class="st1" d="M523.1,252.1H520v-17.7h3.2v2.8h0.1c1.4-1.6,3.8-3.2,6.6-3.2v3c-2.6,0-5.3,1.1-6.7,2V252.1z"/>
</g>
<g>
	<path class="st1" d="M5.1,273.3L5.1,273.3c1.3-1.2,3.4-2.1,5.5-2.1c4.9,0,6.5,4.1,6.5,9.2s-1.8,9.2-6.7,9.2c-2,0-4-0.8-5.2-2H5.1
		v8.7H1.9v-24.7h3.2V273.3z M9.4,273.8c-1.9,0-3.5,0.9-4.2,1.5v10.1c0.7,0.6,2.3,1.5,4.2,1.5c3.4,0,4.4-3,4.4-6.5
		S12.8,273.8,9.4,273.8z"/>
	<path class="st1" d="M24.1,289.2H21v-17.7h3.2v2.8h0.1c1.4-1.6,3.8-3.2,6.6-3.2v3c-2.6,0-5.3,1.1-6.7,2V289.2z"/>
	<path class="st1" d="M33.4,280.3c0-5.5,2.2-9.2,8.1-9.2c5.9,0,8.1,3.7,8.1,9.2s-2.2,9.2-8.1,9.2C35.6,289.5,33.4,285.8,33.4,280.3z
		 M36.7,280.3c0,3.7,1.1,6.5,4.8,6.5c3.7,0,4.8-2.8,4.8-6.5s-1.1-6.5-4.8-6.5C37.8,273.8,36.7,276.6,36.7,280.3z"/>
	<path class="st1" d="M57.6,271.5h4.2v2.3h-4.2v15.4h-3.2v-15.4h-2.6v-2.1l2.6-0.2v-2.2c0-3.4,1.2-4.9,5.1-4.9
		c0.8,0,1.9,0.1,2.8,0.3l-0.3,2.5c-0.7-0.1-1.3-0.2-1.8-0.2c-2,0-2.6,0.6-2.6,2.5V271.5z"/>
	<path class="st1" d="M67.8,280.9c0.1,3.5,1.7,6,5.8,6c1.7,0,3.5-0.1,5.5-0.7l0.4,2.6c-2.2,0.6-4.1,0.8-6.4,0.8
		c-6.5,0-8.8-3.7-8.8-9.2s2.3-9.2,8.7-9.2c5.4,0,6.9,3.1,7.1,6.1c0.1,1.1,0,2.4-0.2,3.6H67.8z M67.8,278.9h9
		c0.1-0.6,0.2-1.3,0.1-1.9c-0.1-1.8-1.2-3.4-4-3.4C69.3,273.6,68,275.9,67.8,278.9z"/>
	<path class="st1" d="M90.5,289.5c-2.8,0-5.5-0.2-7.6-0.8l0.6-2.6c2.8,0.7,5.4,0.8,6.7,0.8c3.2,0,3.7-1.9,3.7-2.6c0-1.2-0.8-2-4-2.6
		c-3.7-0.7-6.6-1.9-6.6-5.6c0-3.4,2.4-4.9,6.5-4.9c2.7,0,4.9,0.3,7.1,0.8l-0.6,2.5c-2.8-0.7-5-0.8-6.3-0.8c-3.2,0-3.5,1.7-3.5,2.3
		c0,1.1,0.6,2,3.8,2.7c3.7,0.8,6.8,1.8,6.8,5.4C97.1,287.7,94.7,289.5,90.5,289.5z"/>
	<path class="st1" d="M107.4,289.5c-2.8,0-5.5-0.2-7.6-0.8l0.6-2.6c2.8,0.7,5.4,0.8,6.7,0.8c3.2,0,3.7-1.9,3.7-2.6
		c0-1.2-0.8-2-4-2.6c-3.7-0.7-6.6-1.9-6.6-5.6c0-3.4,2.4-4.9,6.5-4.9c2.7,0,4.9,0.3,7.1,0.8l-0.6,2.5c-2.8-0.7-5-0.8-6.3-0.8
		c-3.2,0-3.5,1.7-3.5,2.3c0,1.1,0.6,2,3.8,2.7c3.7,0.8,6.8,1.8,6.8,5.4C113.9,287.7,111.5,289.5,107.4,289.5z"/>
	<path class="st1" d="M120.6,265.2v4.4h-3.2v-4.4H120.6z M120.6,271.5v17.7h-3.2v-17.7H120.6z"/>
	<path class="st1" d="M124.4,280.3c0-5.5,2.2-9.2,8.1-9.2c5.9,0,8.1,3.7,8.1,9.2s-2.2,9.2-8.1,9.2
		C126.6,289.5,124.4,285.8,124.4,280.3z M127.8,280.3c0,3.7,1.1,6.5,4.8,6.5c3.7,0,4.8-2.8,4.8-6.5s-1.1-6.5-4.8-6.5
		C128.8,273.8,127.8,276.6,127.8,280.3z"/>
	<path class="st1" d="M147.6,289.2h-3.2v-17.7h3.2v2.5h0.1c1.7-1.7,3.8-2.8,6.3-2.8c3.5,0,5.3,2.1,5.3,5.8v12.2h-3.2v-11.5
		c0-2.3-0.9-3.9-3.5-3.9c-2,0-3.9,1.2-4.9,2V289.2z"/>
	<path class="st1" d="M164.3,274.5l-0.5-2.6c2.4-0.5,4.9-0.7,6.8-0.7c4.2,0,6.5,1.2,6.5,5.8v12.2H174v-1.8c0,0,0,0-0.1,0
		c-1.7,1.5-3.3,2.1-5.6,2.1c-3.5,0-5.6-2.1-5.6-5.2c0-4,3.2-5.4,7.4-5.4h3.9v-1.8c0-2.3-1.2-3.4-4.1-3.4
		C168.6,273.8,166.9,274,164.3,274.5z M174,280.9h-3.7c-3.3,0-4.4,1.2-4.4,3.2c0,1.9,1.4,3,3.7,3c2,0,3.6-0.8,4.4-1.5V280.9z"/>
	<path class="st1" d="M181.4,264.5h3.2v24.7h-3.2V264.5z"/>
	<path class="st1" d="M192.1,265.2v4.4h-3.2v-4.4H192.1z M192.1,271.5v17.7h-3.2v-17.7H192.1z"/>
	<path class="st1" d="M203,289.5c-2.8,0-5.5-0.2-7.6-0.8l0.6-2.6c2.8,0.7,5.4,0.8,6.7,0.8c3.2,0,3.7-1.9,3.7-2.6c0-1.2-0.8-2-4-2.6
		c-3.7-0.7-6.6-1.9-6.6-5.6c0-3.4,2.4-4.9,6.5-4.9c2.7,0,4.9,0.3,7.1,0.8l-0.6,2.5c-2.8-0.7-5-0.8-6.3-0.8c-3.2,0-3.5,1.7-3.5,2.3
		c0,1.1,0.6,2,3.8,2.7c3.7,0.8,6.8,1.8,6.8,5.4C209.5,287.7,207.1,289.5,203,289.5z"/>
	<path class="st1" d="M216.2,289.2H213v-17.7h3.2v2.5h0.1c1.4-1.5,3.3-2.8,5.8-2.8c2.5,0,4.1,1.1,4.8,3.1c1.7-1.8,3.8-3.1,6.3-3.1
		c3.5,0,5.3,2.1,5.3,5.8v12.2h-3.2v-11.5c0-2.3-1-3.9-3.5-3.9c-1.8,0-3.4,1.2-4.5,2.1c0.1,0.6,0.1,1.2,0.1,1.9v11.3h-3.2v-11.6
		c-0.1-2.2-1-3.8-3.5-3.8c-1.9,0-3.4,1.2-4.4,2V289.2z"/>
	<path class="st1" d="M252.6,289.2h-3.2v-17.7h3.2v2.5h0.1c1.4-1.5,3.3-2.8,5.8-2.8c2.5,0,4.1,1.1,4.8,3.1c1.7-1.8,3.8-3.1,6.3-3.1
		c3.5,0,5.3,2.1,5.3,5.8v12.2h-3.2v-11.5c0-2.3-1-3.9-3.5-3.9c-1.8,0-3.4,1.2-4.5,2.1c0.1,0.6,0.1,1.2,0.1,1.9v11.3h-3.2v-11.6
		c-0.1-2.2-1-3.8-3.5-3.8c-1.9,0-3.4,1.2-4.4,2V289.2z"/>
	<path class="st1" d="M282,280.9c0.1,3.5,1.7,6,5.8,6c1.7,0,3.5-0.1,5.5-0.7l0.4,2.6c-2.2,0.6-4.1,0.8-6.4,0.8
		c-6.5,0-8.8-3.7-8.8-9.2s2.3-9.2,8.7-9.2c5.4,0,6.9,3.1,7.1,6.1c0.1,1.1,0,2.4-0.2,3.6H282z M282,278.9h9c0.1-0.6,0.2-1.3,0.1-1.9
		c-0.1-1.8-1.2-3.4-4-3.4C283.5,273.6,282.3,275.9,282,278.9z"/>
	<path class="st1" d="M298.5,274.5l-0.5-2.6c2.4-0.5,4.9-0.7,6.8-0.7c4.2,0,6.5,1.2,6.5,5.8v12.2h-3.2v-1.8c0,0,0,0-0.1,0
		c-1.7,1.5-3.3,2.1-5.6,2.1c-3.5,0-5.6-2.1-5.6-5.2c0-4,3.2-5.4,7.4-5.4h3.9v-1.8c0-2.3-1.2-3.4-4.1-3.4
		C302.8,273.8,301.2,274,298.5,274.5z M308.2,280.9h-3.7c-3.3,0-4.4,1.2-4.4,3.2c0,1.9,1.4,3,3.7,3c2,0,3.6-0.8,4.4-1.5V280.9z"/>
	<path class="st1" d="M318.9,289.2h-3.2v-17.7h3.2v2.5h0.1c1.7-1.7,3.8-2.8,6.3-2.8c3.5,0,5.3,2.1,5.3,5.8v12.2h-3.2v-11.5
		c0-2.3-0.9-3.9-3.5-3.9c-2,0-3.9,1.2-4.9,2V289.2z"/>
	<path class="st1" d="M341.5,289.5c-2.8,0-5.5-0.2-7.6-0.8l0.6-2.6c2.8,0.7,5.4,0.8,6.7,0.8c3.2,0,3.7-1.9,3.7-2.6
		c0-1.2-0.8-2-4-2.6c-3.7-0.7-6.6-1.9-6.6-5.6c0-3.4,2.4-4.9,6.5-4.9c2.7,0,4.9,0.3,7.1,0.8l-0.6,2.5c-2.8-0.7-5-0.8-6.3-0.8
		c-3.2,0-3.5,1.7-3.5,2.3c0,1.1,0.6,2,3.8,2.7c3.7,0.8,6.8,1.8,6.8,5.4C348,287.7,345.6,289.5,341.5,289.5z"/>
	<path class="st1" d="M359.5,274.5l-0.5-2.6c2.4-0.5,4.9-0.7,6.8-0.7c4.2,0,6.5,1.2,6.5,5.8v12.2h-3.2v-1.8c0,0,0,0-0.1,0
		c-1.7,1.5-3.3,2.1-5.6,2.1c-3.5,0-5.6-2.1-5.6-5.2c0-4,3.2-5.4,7.4-5.4h3.9v-1.8c0-2.3-1.2-3.4-4.1-3.4
		C363.8,273.8,362.1,274,359.5,274.5z M369.2,280.9h-3.7c-3.3,0-4.4,1.2-4.4,3.2c0,1.9,1.4,3,3.7,3c2,0,3.6-0.8,4.4-1.5V280.9z"/>
	<path class="st1" d="M379.8,289.2h-3.2v-17.7h3.2v2.5h0.1c1.7-1.7,3.8-2.8,6.3-2.8c3.5,0,5.3,2.1,5.3,5.8v12.2h-3.2v-11.5
		c0-2.3-0.9-3.9-3.5-3.9c-2,0-3.9,1.2-4.9,2V289.2z"/>
	<path class="st1" d="M407.3,287.4C407.3,287.4,407.3,287.4,407.3,287.4c-1.3,1.2-3.4,2.1-5.5,2.1c-4.9,0-6.5-4.1-6.5-9.2
		s1.8-9.2,6.7-9.2c2,0,4,0.8,5.2,2c0,0,0,0,0.1,0v-8.8h3.2v24.7h-3.2V287.4z M403.1,286.9c1.9,0,3.5-0.9,4.2-1.5v-10.1
		c-0.7-0.6-2.3-1.5-4.2-1.5c-3.5,0-4.4,3-4.4,6.5S399.6,286.9,403.1,286.9z"/>
	<path class="st1" d="M433.1,271.5h3.2v17.7h-3.2v-2.5H433c-1.7,1.7-3.8,2.8-6.3,2.8c-3.5,0-5.3-2.1-5.3-5.8v-12.2h3.2V283
		c0,2.3,1,3.9,3.5,3.9c2,0,3.9-1.2,4.9-2V271.5z"/>
	<path class="st1" d="M447.3,289.5c-2.8,0-5.5-0.2-7.6-0.8l0.6-2.6c2.8,0.7,5.4,0.8,6.7,0.8c3.2,0,3.7-1.9,3.7-2.6
		c0-1.2-0.8-2-4-2.6c-3.7-0.7-6.6-1.9-6.6-5.6c0-3.4,2.4-4.9,6.5-4.9c2.7,0,4.9,0.3,7.1,0.8l-0.6,2.5c-2.8-0.7-5-0.8-6.3-0.8
		c-3.2,0-3.5,1.7-3.5,2.3c0,1.1,0.6,2,3.8,2.7c3.7,0.8,6.8,1.8,6.8,5.4C453.8,287.7,451.4,289.5,447.3,289.5z"/>
	<path class="st1" d="M460.3,280.9c0.1,3.5,1.7,6,5.8,6c1.7,0,3.5-0.1,5.5-0.7l0.4,2.6c-2.2,0.6-4.1,0.8-6.4,0.8
		c-6.5,0-8.8-3.7-8.8-9.2s2.3-9.2,8.7-9.2c5.4,0,6.9,3.1,7.1,6.1c0.1,1.1,0,2.4-0.2,3.6H460.3z M460.3,278.9h9
		c0.1-0.6,0.2-1.3,0.1-1.9c-0.1-1.8-1.2-3.4-4-3.4C461.8,273.6,460.6,275.9,460.3,278.9z"/>
	<path class="st1" d="M486.2,265.2v4.4H483v-4.4H486.2z M486.2,271.5v17.7H483v-17.7H486.2z"/>
	<path class="st1" d="M491.8,273.8h-2.6v-2.1l2.6-0.2l0.4-4.9h2.8v4.9h4.9v2.3H495v9.7c0,2.3,0.7,3.5,3,3.5c0.5,0,1.1-0.1,1.8-0.2
		l0.3,2.5c-1,0.1-2.3,0.2-3.2,0.2c-3.6,0-5.1-1.5-5.1-5.5V273.8z"/>
	<path class="st1" d="M512,273.8h-2.6v-2.1l2.6-0.2l0.4-4.9h2.8v4.9h4.9v2.3h-4.9v9.7c0,2.3,0.7,3.5,3,3.5c0.5,0,1.1-0.1,1.8-0.2
		l0.3,2.5c-1,0.1-2.3,0.2-3.2,0.2c-3.6,0-5.1-1.5-5.1-5.5V273.8z"/>
	<path class="st1" d="M522.8,280.3c0-5.5,2.2-9.2,8.1-9.2c5.9,0,8.1,3.7,8.1,9.2s-2.2,9.2-8.1,9.2
		C525,289.5,522.8,285.8,522.8,280.3z M526.2,280.3c0,3.7,1.1,6.5,4.8,6.5c3.7,0,4.8-2.8,4.8-6.5s-1.1-6.5-4.8-6.5
		C527.2,273.8,526.2,276.6,526.2,280.3z"/>
</g>
<g>
	<path class="st1" d="M5.1,302.3v4.4H1.9v-4.4H5.1z M5.1,308.6v17.7H1.9v-17.7H5.1z"/>
	<path class="st1" d="M12.6,326.3H9.4v-17.7h3.2v2.5h0.1c1.4-1.5,3.3-2.8,5.8-2.8c2.5,0,4.1,1.1,4.8,3.1c1.7-1.8,3.8-3.1,6.3-3.1
		c3.5,0,5.3,2.1,5.3,5.8v12.2h-3.2v-11.5c0-2.3-1-3.9-3.5-3.9c-1.8,0-3.4,1.2-4.5,2.1c0.1,0.6,0.1,1.2,0.1,1.9v11.3h-3.2v-11.6
		c-0.1-2.2-1-3.8-3.5-3.8c-1.9,0-3.4,1.2-4.4,2V326.3z"/>
	<path class="st1" d="M42.3,310.4L42.3,310.4c1.3-1.2,3.4-2.1,5.5-2.1c4.9,0,6.5,4.1,6.5,9.2s-1.8,9.2-6.7,9.2c-2,0-4-0.8-5.2-2
		h-0.1v8.7h-3.2v-24.7h3.2V310.4z M46.6,310.9c-1.9,0-3.5,0.9-4.2,1.5v10.1c0.7,0.6,2.3,1.5,4.2,1.5c3.4,0,4.4-3,4.4-6.5
		S50,310.9,46.6,310.9z"/>
	<path class="st1" d="M61.4,326.3h-3.2v-17.7h3.2v2.8h0.1c1.4-1.6,3.8-3.2,6.6-3.2v3c-2.6,0-5.3,1.1-6.7,2V326.3z"/>
	<path class="st1" d="M70.6,317.4c0-5.5,2.2-9.2,8.1-9.2c5.9,0,8.1,3.7,8.1,9.2s-2.2,9.2-8.1,9.2C72.8,326.6,70.6,322.9,70.6,317.4z
		 M73.9,317.4c0,3.7,1.1,6.5,4.8,6.5c3.7,0,4.8-2.8,4.8-6.5s-1.1-6.5-4.8-6.5C75,310.9,73.9,313.7,73.9,317.4z"/>
	<path class="st1" d="M95.5,326.5L89,308.6h3.6l4.9,14.3h0.1l5-14.3h3.4l-6.6,17.8H95.5z"/>
	<path class="st1" d="M111.5,318c0.1,3.5,1.7,6,5.8,6c1.7,0,3.5-0.1,5.5-0.7l0.4,2.6c-2.2,0.6-4.1,0.8-6.4,0.8
		c-6.5,0-8.8-3.7-8.8-9.2s2.3-9.2,8.7-9.2c5.4,0,6.9,3.1,7.1,6.1c0.1,1.1,0,2.4-0.2,3.6H111.5z M111.5,316h9
		c0.1-0.6,0.2-1.3,0.1-1.9c-0.1-1.8-1.2-3.4-4-3.4C113,310.7,111.7,313,111.5,316z"/>
	<path class="st1" d="M133.8,317.4c0-5.5,2.2-9.2,8.1-9.2c5.9,0,8.1,3.7,8.1,9.2s-2.2,9.2-8.1,9.2
		C136,326.6,133.8,322.9,133.8,317.4z M137.2,317.4c0,3.7,1.1,6.5,4.8,6.5c3.7,0,4.8-2.8,4.8-6.5s-1.1-6.5-4.8-6.5
		C138.2,310.9,137.2,313.7,137.2,317.4z"/>
	<path class="st1" d="M165.4,308.6h3.2v17.7h-3.2v-2.5h-0.1c-1.7,1.7-3.8,2.8-6.3,2.8c-3.5,0-5.3-2.1-5.3-5.8v-12.2h3.2v11.5
		c0,2.3,1,3.9,3.5,3.9c2,0,3.9-1.2,4.9-2V308.6z"/>
	<path class="st1" d="M174.3,310.9h-2.6v-2.1l2.6-0.2l0.4-4.9h2.8v4.9h4.9v2.3h-4.9v9.7c0,2.3,0.7,3.5,3,3.5c0.5,0,1.1-0.1,1.8-0.2
		l0.3,2.5c-1,0.1-2.3,0.2-3.2,0.2c-3.6,0-5.1-1.5-5.1-5.5V310.9z"/>
	<path class="st1" d="M193.7,308.3c2.2,0,3.9,0.3,6,0.8l-0.6,2.5c-2.8-0.7-4.2-0.7-5.4-0.7c-3.7,0-5.3,2.6-5.3,6.5s1.6,6.5,5.3,6.5
		c1.2,0,2.6,0,5.4-0.7l0.6,2.6c-2.1,0.5-3.8,0.8-6,0.8c-6.5,0-8.7-3.7-8.7-9.2S187.2,308.3,193.7,308.3z"/>
	<path class="st1" d="M201.7,317.4c0-5.5,2.2-9.2,8.1-9.2c5.9,0,8.1,3.7,8.1,9.2s-2.2,9.2-8.1,9.2
		C203.9,326.6,201.7,322.9,201.7,317.4z M205.1,317.4c0,3.7,1.1,6.5,4.8,6.5c3.7,0,4.8-2.8,4.8-6.5s-1.1-6.5-4.8-6.5
		C206.2,310.9,205.1,313.7,205.1,317.4z"/>
	<path class="st1" d="M225,326.3h-3.2v-17.7h3.2v2.5h0.1c1.4-1.5,3.3-2.8,5.8-2.8c2.5,0,4.1,1.1,4.8,3.1c1.7-1.8,3.8-3.1,6.3-3.1
		c3.5,0,5.3,2.1,5.3,5.8v12.2H244v-11.5c0-2.3-1-3.9-3.5-3.9c-1.8,0-3.4,1.2-4.5,2.1c0.1,0.6,0.1,1.2,0.1,1.9v11.3h-3.2v-11.6
		c-0.1-2.2-1-3.8-3.5-3.8c-1.9,0-3.4,1.2-4.4,2V326.3z"/>
	<path class="st1" d="M254.4,318c0.1,3.5,1.7,6,5.8,6c1.7,0,3.5-0.1,5.5-0.7l0.4,2.6c-2.2,0.6-4.1,0.8-6.4,0.8
		c-6.5,0-8.8-3.7-8.8-9.2s2.3-9.2,8.7-9.2c5.4,0,6.9,3.1,7.1,6.1c0.1,1.1,0,2.4-0.2,3.6H254.4z M254.4,316h9
		c0.1-0.6,0.2-1.3,0.1-1.9c-0.1-1.8-1.2-3.4-4-3.4C255.9,310.7,254.7,313,254.4,316z"/>
	<path class="st1" d="M277.2,326.6c-2.8,0-5.5-0.2-7.6-0.8l0.6-2.6c2.8,0.7,5.4,0.8,6.7,0.8c3.2,0,3.7-1.9,3.7-2.6
		c0-1.2-0.8-2-4-2.6c-3.7-0.7-6.6-1.9-6.6-5.6c0-3.4,2.4-4.9,6.5-4.9c2.7,0,4.9,0.3,7.1,0.8l-0.6,2.5c-2.8-0.7-5-0.8-6.3-0.8
		c-3.2,0-3.5,1.7-3.5,2.3c0,1.1,0.6,2,3.8,2.7c3.7,0.8,6.8,1.8,6.8,5.4C283.7,324.8,281.3,326.6,277.2,326.6z"/>
	<path class="st1" d="M295.2,311.6l-0.5-2.6c2.4-0.5,4.9-0.7,6.8-0.7c4.2,0,6.5,1.2,6.5,5.8v12.2h-3.2v-1.8c0,0,0,0-0.1,0
		c-1.7,1.5-3.3,2.1-5.6,2.1c-3.5,0-5.6-2.1-5.6-5.2c0-4,3.2-5.4,7.4-5.4h3.9v-1.8c0-2.3-1.2-3.4-4.1-3.4
		C299.5,310.9,297.8,311.1,295.2,311.6z M304.9,318h-3.7c-3.3,0-4.4,1.2-4.4,3.2c0,1.9,1.4,3,3.7,3c2,0,3.6-0.8,4.4-1.5V318z"/>
	<path class="st1" d="M315.5,326.3h-3.2v-17.7h3.2v2.5h0.1c1.7-1.7,3.8-2.8,6.3-2.8c3.5,0,5.3,2.1,5.3,5.8v12.2H324v-11.5
		c0-2.3-0.9-3.9-3.5-3.9c-2,0-3.9,1.2-4.9,2V326.3z"/>
	<path class="st1" d="M343,324.5C343,324.5,343,324.5,343,324.5c-1.3,1.2-3.4,2.1-5.5,2.1c-4.9,0-6.5-4.1-6.5-9.2s1.8-9.2,6.7-9.2
		c2,0,4,0.8,5.2,2c0,0,0,0,0.1,0v-8.8h3.2v24.7H343V324.5z M338.8,324c1.9,0,3.5-0.9,4.2-1.5v-10.1c-0.7-0.6-2.3-1.5-4.2-1.5
		c-3.5,0-4.4,3-4.4,6.5S335.3,324,338.8,324z"/>
	<path class="st1" d="M360.2,318c0.1,3.5,1.7,6,5.8,6c1.7,0,3.5-0.1,5.5-0.7l0.4,2.6c-2.2,0.6-4.1,0.8-6.4,0.8
		c-6.5,0-8.8-3.7-8.8-9.2s2.3-9.2,8.7-9.2c5.4,0,6.9,3.1,7.1,6.1c0.1,1.1,0,2.4-0.2,3.6H360.2z M360.2,316h9
		c0.1-0.6,0.2-1.3,0.1-1.9c-0.1-1.8-1.2-3.4-4-3.4C361.7,310.7,360.4,313,360.2,316z"/>
	<path class="st1" d="M383.4,319.5L383.4,319.5l-4.7,6.8h-3.4l6.5-9.2l-5.9-8.5h3.7l4.3,6.1h0.1l4.2-6.1h3.3l-5.9,8.4l6.6,9.3h-3.8
		L383.4,319.5z"/>
	<path class="st1" d="M398.4,310.4L398.4,310.4c1.3-1.2,3.4-2.1,5.5-2.1c4.9,0,6.5,4.1,6.5,9.2s-1.8,9.2-6.7,9.2c-2,0-4-0.8-5.2-2
		h-0.1v8.7h-3.2v-24.7h3.2V310.4z M402.6,310.9c-1.9,0-3.5,0.9-4.2,1.5v10.1c0.7,0.6,2.3,1.5,4.2,1.5c3.4,0,4.4-3,4.4-6.5
		S406.1,310.9,402.6,310.9z"/>
	<path class="st1" d="M417.1,318c0.1,3.5,1.7,6,5.8,6c1.7,0,3.5-0.1,5.5-0.7l0.4,2.6c-2.2,0.6-4.1,0.8-6.4,0.8
		c-6.5,0-8.8-3.7-8.8-9.2s2.3-9.2,8.7-9.2c5.4,0,6.9,3.1,7.1,6.1c0.1,1.1,0,2.4-0.2,3.6H417.1z M417.1,316h9
		c0.1-0.6,0.2-1.3,0.1-1.9c-0.1-1.8-1.2-3.4-4-3.4C418.7,310.7,417.4,313,417.1,316z"/>
	<path class="st1" d="M436.3,326.3h-3.2v-17.7h3.2v2.8h0.1c1.4-1.6,3.8-3.2,6.6-3.2v3c-2.6,0-5.3,1.1-6.7,2V326.3z"/>
	<path class="st1" d="M449.4,302.3v4.4h-3.2v-4.4H449.4z M449.4,308.6v17.7h-3.2v-17.7H449.4z"/>
	<path class="st1" d="M456.6,318c0.1,3.5,1.7,6,5.8,6c1.7,0,3.5-0.1,5.5-0.7l0.4,2.6c-2.2,0.6-4.1,0.8-6.4,0.8
		c-6.5,0-8.8-3.7-8.8-9.2s2.3-9.2,8.7-9.2c5.4,0,6.9,3.1,7.1,6.1c0.1,1.1,0,2.4-0.2,3.6H456.6z M456.6,316h9
		c0.1-0.6,0.2-1.3,0.1-1.9c-0.1-1.8-1.2-3.4-4-3.4C458.1,310.7,456.9,313,456.6,316z"/>
	<path class="st1" d="M475.7,326.3h-3.2v-17.7h3.2v2.5h0.1c1.7-1.7,3.8-2.8,6.3-2.8c3.5,0,5.3,2.1,5.3,5.8v12.2h-3.2v-11.5
		c0-2.3-0.9-3.9-3.5-3.9c-2,0-3.9,1.2-4.9,2V326.3z"/>
	<path class="st1" d="M499.8,308.3c2.2,0,3.9,0.3,6,0.8l-0.6,2.5c-2.8-0.7-4.2-0.7-5.4-0.7c-3.7,0-5.3,2.6-5.3,6.5s1.6,6.5,5.3,6.5
		c1.2,0,2.6,0,5.4-0.7l0.6,2.6c-2.1,0.5-3.8,0.8-6,0.8c-6.5,0-8.7-3.7-8.7-9.2S493.3,308.3,499.8,308.3z"/>
	<path class="st1" d="M511.3,318c0.1,3.5,1.7,6,5.8,6c1.7,0,3.5-0.1,5.5-0.7l0.4,2.6c-2.2,0.6-4.1,0.8-6.4,0.8
		c-6.5,0-8.8-3.7-8.8-9.2s2.3-9.2,8.7-9.2c5.4,0,6.9,3.1,7.1,6.1c0.1,1.1,0,2.4-0.2,3.6H511.3z M511.3,316h9
		c0.1-0.6,0.2-1.3,0.1-1.9c-0.1-1.8-1.2-3.4-4-3.4C512.8,310.7,511.5,313,511.3,316z"/>
	<path class="st1" d="M534,326.6c-2.8,0-5.5-0.2-7.6-0.8l0.6-2.6c2.8,0.7,5.4,0.8,6.7,0.8c3.2,0,3.7-1.9,3.7-2.6c0-1.2-0.8-2-4-2.6
		c-3.7-0.7-6.6-1.9-6.6-5.6c0-3.4,2.4-4.9,6.5-4.9c2.7,0,4.9,0.3,7.1,0.8l-0.6,2.5c-2.8-0.7-5-0.8-6.3-0.8c-3.2,0-3.5,1.7-3.5,2.3
		c0,1.1,0.6,2,3.8,2.7c3.7,0.8,6.8,1.8,6.8,5.4C540.6,324.8,538.2,326.6,534,326.6z"/>
	<path class="st1" d="M555.5,308.6h4.2v2.3h-4.2v15.4h-3.2v-15.4h-2.6v-2.1l2.6-0.2v-2.2c0-3.4,1.2-4.9,5.1-4.9
		c0.8,0,1.9,0.1,2.8,0.3l-0.3,2.5c-0.7-0.1-1.3-0.2-1.8-0.2c-2,0-2.6,0.6-2.6,2.5V308.6z"/>
	<path class="st1" d="M562.3,317.4c0-5.5,2.2-9.2,8.1-9.2c5.9,0,8.1,3.7,8.1,9.2s-2.2,9.2-8.1,9.2
		C564.5,326.6,562.3,322.9,562.3,317.4z M565.6,317.4c0,3.7,1.1,6.5,4.8,6.5c3.7,0,4.8-2.8,4.8-6.5s-1.1-6.5-4.8-6.5
		C566.7,310.9,565.6,313.7,565.6,317.4z"/>
	<path class="st1" d="M585.5,326.3h-3.2v-17.7h3.2v2.8h0.1c1.4-1.6,3.8-3.2,6.6-3.2v3c-2.6,0-5.3,1.1-6.7,2V326.3z"/>
</g>
<g>
	<path class="st1" d="M1.4,345.7H5l5.1,14.4h0.1l4.8-14.4h3.4l-6.6,18.7c-1.6,4.6-3.7,6.4-7.1,6.4c-0.8,0-1.9-0.1-2.6-0.2l0.3-2.6
		c0.6,0.1,1.2,0.2,1.7,0.2c2.3,0,3.6-2.3,4.4-4.3L1.4,345.7z"/>
	<path class="st1" d="M20.5,354.6c0-5.5,2.2-9.2,8.1-9.2c5.9,0,8.1,3.7,8.1,9.2s-2.2,9.2-8.1,9.2C22.7,363.7,20.5,360,20.5,354.6z
		 M23.9,354.6c0,3.7,1.1,6.5,4.8,6.5c3.7,0,4.8-2.8,4.8-6.5s-1.1-6.5-4.8-6.5C25,348,23.9,350.8,23.9,354.6z"/>
	<path class="st1" d="M52.2,345.7h3.2v17.7h-3.2v-2.5h-0.1c-1.7,1.7-3.8,2.8-6.3,2.8c-3.5,0-5.3-2.1-5.3-5.8v-12.2h3.2v11.5
		c0,2.3,1,3.9,3.5,3.9c2,0,3.9-1.2,4.9-2V345.7z"/>
	<path class="st1" d="M62.9,363.4h-3.2v-17.7h3.2v2.5H63c1.7-1.7,3.8-2.8,6.3-2.8c3.5,0,5.3,2.1,5.3,5.8v12.2h-3.2v-11.5
		c0-2.3-0.9-3.9-3.5-3.9c-2,0-3.9,1.2-4.9,2V363.4z"/>
	<path class="st1" d="M80.5,362.2c-1-0.5-1.4-1.4-1.3-2.4c0-1.2,0.8-2.5,2.3-3.4v-0.1c-1.8-0.9-2.9-2.6-2.9-4.9c0-3.9,2.8-6,7.2-6
		c1,0,1.8,0.2,2.4,0.4h6.2v1.9h-3.4c1.4,1,1.7,2.5,1.7,3.7c0,4-3,5.8-7,5.8c-1,0-2-0.2-2.6-0.4c-0.3,0.3-0.5,0.7-0.7,1
		c-0.5,1.1-0.4,2.3,1,2.3l6.4,0.4c3.6,0.2,5.2,1.7,5.2,4.1c0,4.1-3.2,6.2-10.2,6.2c-4.8,0-7.2-1.4-7.2-4.6
		C77.4,364.6,78.3,363.4,80.5,362.2L80.5,362.2z M85.3,368.7c3.4,0,6.3-1.1,6.3-3.5c0-1.1-0.7-2-2.9-2.1l-6.5-0.4
		c-1.1,0.8-2,1.5-2,2.9C80.1,367.6,81.9,368.7,85.3,368.7z M89.8,351.4c0-2.4-1.6-3.9-4.1-3.9c-2.8,0-4.2,1.5-4.2,3.9
		c0,2.4,1.6,3.7,4.2,3.7C88.2,355.1,89.8,353.7,89.8,351.4z"/>
	<path class="st1" d="M108.1,347.5L108.1,347.5c1.3-1.2,3.4-2.1,5.5-2.1c4.9,0,6.5,4.1,6.5,9.2s-1.8,9.2-6.7,9.2c-2,0-4-0.8-5.2-2
		h-0.1v8.7h-3.2v-24.7h3.2V347.5z M112.3,348c-1.9,0-3.5,0.9-4.2,1.5v10.1c0.7,0.6,2.3,1.5,4.2,1.5c3.4,0,4.4-3,4.4-6.5
		S115.8,348,112.3,348z"/>
	<path class="st1" d="M126.9,355.1c0.1,3.5,1.7,6,5.8,6c1.7,0,3.5-0.1,5.5-0.7l0.4,2.6c-2.2,0.6-4.1,0.8-6.4,0.8
		c-6.5,0-8.8-3.7-8.8-9.2s2.3-9.2,8.7-9.2c5.4,0,6.9,3.1,7.1,6.1c0.1,1.1,0,2.4-0.2,3.6H126.9z M126.9,353.1h9
		c0.1-0.6,0.2-1.3,0.1-1.9c-0.1-1.8-1.2-3.4-4-3.4C128.4,347.8,127.1,350.1,126.9,353.1z"/>
	<path class="st1" d="M142.3,354.6c0-5.5,2.2-9.2,8.1-9.2c5.9,0,8.1,3.7,8.1,9.2s-2.2,9.2-8.1,9.2
		C144.5,363.7,142.3,360,142.3,354.6z M145.7,354.6c0,3.7,1.1,6.5,4.8,6.5c3.7,0,4.8-2.8,4.8-6.5s-1.1-6.5-4.8-6.5
		C146.7,348,145.7,350.8,145.7,354.6z"/>
	<path class="st1" d="M165.5,347.5L165.5,347.5c1.3-1.2,3.4-2.1,5.5-2.1c4.9,0,6.5,4.1,6.5,9.2s-1.8,9.2-6.7,9.2c-2,0-4-0.8-5.2-2
		h-0.1v8.7h-3.2v-24.7h3.2V347.5z M169.8,348c-1.9,0-3.5,0.9-4.2,1.5v10.1c0.7,0.6,2.3,1.5,4.2,1.5c3.4,0,4.4-3,4.4-6.5
		S173.2,348,169.8,348z"/>
	<path class="st1" d="M181.4,338.7h3.2v24.7h-3.2V338.7z"/>
	<path class="st1" d="M191.8,355.1c0.1,3.5,1.7,6,5.8,6c1.7,0,3.5-0.1,5.5-0.7l0.4,2.6c-2.2,0.6-4.1,0.8-6.4,0.8
		c-6.5,0-8.8-3.7-8.8-9.2s2.3-9.2,8.7-9.2c5.4,0,6.9,3.1,7.1,6.1c0.1,1.1,0,2.4-0.2,3.6H191.8z M191.8,353.1h9
		c0.1-0.6,0.2-1.3,0.1-1.9c-0.1-1.8-1.2-3.4-4-3.4C193.3,347.8,192.1,350.1,191.8,353.1z"/>
</g>
<g>
	<path class="st1" d="M14.2,428.9L14.2,428.9l7.3-18.4H26v24h-3.4v-17.8h-0.1l-7.3,17.8h-2.5l-7.2-17.8H5.5v17.8H2.3v-24h4.4
		L14.2,428.9z"/>
	<path class="st1" d="M30.2,425.7c0-5.5,2.2-9.2,8.1-9.2c5.9,0,8.1,3.7,8.1,9.2s-2.2,9.2-8.1,9.2C32.4,434.8,30.2,431.1,30.2,425.7z
		 M33.5,425.7c0,3.7,1.1,6.5,4.8,6.5c3.7,0,4.8-2.8,4.8-6.5s-1.1-6.5-4.8-6.5C34.6,419.1,33.5,422,33.5,425.7z"/>
	<path class="st1" d="M53.4,434.5h-3.2v-17.7h3.2v2.8h0.1c1.4-1.6,3.8-3.2,6.6-3.2v3c-2.6,0-5.3,1.1-6.7,2V434.5z"/>
	<path class="st1" d="M66,426.2c0.1,3.5,1.7,6,5.8,6c1.7,0,3.5-0.1,5.5-0.7l0.4,2.6c-2.2,0.6-4.1,0.8-6.4,0.8
		c-6.5,0-8.8-3.7-8.8-9.2s2.3-9.2,8.7-9.2c5.4,0,6.9,3.1,7.1,6.1c0.1,1.1,0,2.4-0.2,3.6H66z M66,424.2h9c0.1-0.6,0.2-1.3,0.1-1.9
		c-0.1-1.8-1.2-3.4-4-3.4C67.5,419,66.3,421.2,66,424.2z"/>
	<path class="st1" d="M90.1,419.1h-2.6V417l2.6-0.2l0.4-4.9h2.8v4.9h4.9v2.3h-4.9v9.7c0,2.3,0.7,3.5,3,3.5c0.5,0,1.1-0.1,1.8-0.2
		l0.3,2.5c-1,0.1-2.3,0.2-3.2,0.2c-3.6,0-5.1-1.5-5.1-5.5V419.1z"/>
	<path class="st1" d="M104.2,426.2c0.1,3.5,1.7,6,5.8,6c1.7,0,3.5-0.1,5.5-0.7l0.4,2.6c-2.2,0.6-4.1,0.8-6.4,0.8
		c-6.5,0-8.8-3.7-8.8-9.2s2.3-9.2,8.7-9.2c5.4,0,6.9,3.1,7.1,6.1c0.1,1.1,0,2.4-0.2,3.6H104.2z M104.2,424.2h9
		c0.1-0.6,0.2-1.3,0.1-1.9c-0.1-1.8-1.2-3.4-4-3.4C105.7,419,104.5,421.2,104.2,424.2z"/>
	<path class="st1" d="M120.7,419.8l-0.5-2.6c2.4-0.5,4.9-0.7,6.8-0.7c4.2,0,6.5,1.2,6.5,5.8v12.2h-3.2v-1.8c0,0,0,0-0.1,0
		c-1.7,1.5-3.3,2.1-5.6,2.1c-3.5,0-5.6-2.1-5.6-5.2c0-4,3.2-5.4,7.4-5.4h3.9v-1.8c0-2.3-1.2-3.4-4.1-3.4
		C125,419.1,123.4,419.3,120.7,419.8z M130.4,426.2h-3.7c-3.3,0-4.4,1.2-4.4,3.2c0,1.9,1.4,3,3.7,3c2,0,3.6-0.8,4.4-1.5V426.2z"/>
	<path class="st1" d="M146,416.5c2.2,0,3.9,0.3,6,0.8l-0.6,2.5c-2.8-0.7-4.2-0.7-5.4-0.7c-3.7,0-5.3,2.6-5.3,6.5s1.6,6.5,5.3,6.5
		c1.2,0,2.6,0,5.4-0.7l0.6,2.6c-2.1,0.5-3.8,0.8-6,0.8c-6.5,0-8.7-3.7-8.7-9.2S139.5,416.5,146,416.5z"/>
	<path class="st1" d="M158.1,434.5H155v-24.7h3.2v9.5h0.1c1.7-1.7,3.8-2.8,6.3-2.8c3.5,0,5.3,2.1,5.3,5.8v12.2h-3.2V423
		c0-2.3-0.9-3.9-3.5-3.9c-2,0-3.9,1.2-4.9,2V434.5z"/>
	<path class="st1" d="M177,426.2c0.1,3.5,1.7,6,5.8,6c1.7,0,3.5-0.1,5.5-0.7l0.4,2.6c-2.2,0.6-4.1,0.8-6.4,0.8
		c-6.5,0-8.8-3.7-8.8-9.2s2.3-9.2,8.7-9.2c5.4,0,6.9,3.1,7.1,6.1c0.1,1.1,0,2.4-0.2,3.6H177z M177,424.2h9c0.1-0.6,0.2-1.3,0.1-1.9
		c-0.1-1.8-1.2-3.4-4-3.4C178.5,419,177.2,421.2,177,424.2z"/>
	<path class="st1" d="M196.1,434.5h-3.2v-17.7h3.2v2.8h0.1c1.4-1.6,3.8-3.2,6.6-3.2v3c-2.6,0-5.3,1.1-6.7,2V434.5z"/>
	<path class="st1" d="M213.1,434.8c-2.8,0-5.5-0.2-7.6-0.8l0.6-2.6c2.8,0.7,5.4,0.8,6.7,0.8c3.2,0,3.7-1.9,3.7-2.6
		c0-1.2-0.8-2-4-2.6c-3.7-0.7-6.6-1.9-6.6-5.6c0-3.4,2.4-4.9,6.5-4.9c2.7,0,4.9,0.3,7.1,0.8l-0.6,2.5c-2.8-0.7-5-0.8-6.3-0.8
		c-3.2,0-3.5,1.7-3.5,2.3c0,1.1,0.6,2,3.8,2.7c3.7,0.8,6.8,1.8,6.8,5.4C219.6,433,217.2,434.8,213.1,434.8z"/>
	<path class="st1" d="M231.1,419.8l-0.5-2.6c2.4-0.5,4.9-0.7,6.8-0.7c4.2,0,6.5,1.2,6.5,5.8v12.2h-3.2v-1.8c0,0,0,0-0.1,0
		c-1.7,1.5-3.3,2.1-5.6,2.1c-3.5,0-5.6-2.1-5.6-5.2c0-4,3.2-5.4,7.4-5.4h3.9v-1.8c0-2.3-1.2-3.4-4.1-3.4
		C235.4,419.1,233.7,419.3,231.1,419.8z M240.8,426.2h-3.7c-3.3,0-4.4,1.2-4.4,3.2c0,1.9,1.4,3,3.7,3c2,0,3.6-0.8,4.4-1.5V426.2z"/>
	<path class="st1" d="M251.4,434.5h-3.2v-17.7h3.2v2.8h0.1c1.4-1.6,3.8-3.2,6.6-3.2v3c-2.6,0-5.3,1.1-6.7,2V434.5z"/>
	<path class="st1" d="M264.1,426.2c0.1,3.5,1.7,6,5.8,6c1.7,0,3.5-0.1,5.5-0.7l0.4,2.6c-2.2,0.6-4.1,0.8-6.4,0.8
		c-6.5,0-8.8-3.7-8.8-9.2s2.3-9.2,8.7-9.2c5.4,0,6.9,3.1,7.1,6.1c0.1,1.1,0,2.4-0.2,3.6H264.1z M264.1,424.2h9
		c0.1-0.6,0.2-1.3,0.1-1.9c-0.1-1.8-1.2-3.4-4-3.4C265.6,419,264.3,421.2,264.1,424.2z"/>
	<path class="st1" d="M287.8,419.8l-0.5-2.6c2.4-0.5,4.9-0.7,6.8-0.7c4.2,0,6.5,1.2,6.5,5.8v12.2h-3.2v-1.8c0,0,0,0-0.1,0
		c-1.7,1.5-3.3,2.1-5.6,2.1c-3.5,0-5.6-2.1-5.6-5.2c0-4,3.2-5.4,7.4-5.4h3.9v-1.8c0-2.3-1.2-3.4-4.1-3.4
		C292.1,419.1,290.4,419.3,287.8,419.8z M297.5,426.2h-3.7c-3.3,0-4.4,1.2-4.4,3.2c0,1.9,1.4,3,3.7,3c2,0,3.6-0.8,4.4-1.5V426.2z"/>
	<path class="st1" d="M310,434.7l-6.5-17.8h3.6l4.9,14.3h0.1l5-14.3h3.4l-6.6,17.8H310z"/>
	<path class="st1" d="M324.6,419.8l-0.5-2.6c2.4-0.5,4.9-0.7,6.8-0.7c4.2,0,6.5,1.2,6.5,5.8v12.2h-3.2v-1.8c0,0,0,0-0.1,0
		c-1.7,1.5-3.3,2.1-5.6,2.1c-3.5,0-5.6-2.1-5.6-5.2c0-4,3.2-5.4,7.4-5.4h3.9v-1.8c0-2.3-1.2-3.4-4.1-3.4
		C328.8,419.1,327.2,419.3,324.6,419.8z M334.2,426.2h-3.7c-3.3,0-4.4,1.2-4.4,3.2c0,1.9,1.4,3,3.7,3c2,0,3.6-0.8,4.4-1.5V426.2z"/>
	<path class="st1" d="M344.9,410.5v4.4h-3.2v-4.4H344.9z M344.9,416.8v17.7h-3.2v-17.7H344.9z"/>
	<path class="st1" d="M349.2,409.8h3.2v24.7h-3.2V409.8z"/>
	<path class="st1" d="M357.4,419.8l-0.5-2.6c2.4-0.5,4.9-0.7,6.8-0.7c4.2,0,6.5,1.2,6.5,5.8v12.2h-3.2v-1.8c0,0,0,0-0.1,0
		c-1.7,1.5-3.3,2.1-5.6,2.1c-3.5,0-5.6-2.1-5.6-5.2c0-4,3.2-5.4,7.4-5.4h3.9v-1.8c0-2.3-1.2-3.4-4.1-3.4
		C361.7,419.1,360,419.3,357.4,419.8z M367.1,426.2h-3.7c-3.3,0-4.4,1.2-4.4,3.2c0,1.9,1.4,3,3.7,3c2,0,3.6-0.8,4.4-1.5V426.2z"/>
	<path class="st1" d="M377.7,418.6L377.7,418.6c1.3-1.2,3.4-2.1,5.5-2.1c4.9,0,6.5,4.1,6.5,9.2s-1.8,9.2-6.7,9.2c-2,0-4.1-0.8-5.4-2
		h-0.1l-0.6,1.8h-2.4v-24.8h3.2V418.6z M382,419.1c-1.9,0-3.5,0.9-4.2,1.5v10.1c0.7,0.6,2.3,1.5,4.2,1.5c3.4,0,4.4-3,4.4-6.5
		S385.4,419.1,382,419.1z"/>
	<path class="st1" d="M393.6,409.8h3.2v24.7h-3.2V409.8z"/>
	<path class="st1" d="M404,426.2c0.1,3.5,1.7,6,5.8,6c1.7,0,3.5-0.1,5.5-0.7l0.4,2.6c-2.2,0.6-4.1,0.8-6.4,0.8
		c-6.5,0-8.8-3.7-8.8-9.2s2.3-9.2,8.7-9.2c5.4,0,6.9,3.1,7.1,6.1c0.1,1.1,0,2.4-0.2,3.6H404z M404,424.2h9c0.1-0.6,0.2-1.3,0.1-1.9
		c-0.1-1.8-1.2-3.4-4-3.4C405.5,419,404.3,421.2,404,424.2z"/>
	<path class="st1" d="M428.1,419.1h-2.6V417l2.6-0.2l0.4-4.9h2.8v4.9h4.9v2.3h-4.9v9.7c0,2.3,0.7,3.5,3,3.5c0.5,0,1.1-0.1,1.8-0.2
		l0.3,2.5c-1,0.1-2.3,0.2-3.2,0.2c-3.6,0-5.1-1.5-5.1-5.5V419.1z"/>
	<path class="st1" d="M438.9,425.7c0-5.5,2.2-9.2,8.1-9.2c5.9,0,8.1,3.7,8.1,9.2s-2.2,9.2-8.1,9.2
		C441.1,434.8,438.9,431.1,438.9,425.7z M442.2,425.7c0,3.7,1.1,6.5,4.8,6.5c3.7,0,4.8-2.8,4.8-6.5s-1.1-6.5-4.8-6.5
		C443.3,419.1,442.2,422,442.2,425.7z"/>
	<path class="st1" d="M467.1,419.1h-2.6V417l2.6-0.2l0.4-4.9h2.8v4.9h4.9v2.3h-4.9v9.7c0,2.3,0.7,3.5,3,3.5c0.5,0,1.1-0.1,1.8-0.2
		l0.3,2.5c-1,0.1-2.3,0.2-3.2,0.2c-3.6,0-5.1-1.5-5.1-5.5V419.1z"/>
	<path class="st1" d="M481.3,426.2c0.1,3.5,1.7,6,5.8,6c1.7,0,3.5-0.1,5.5-0.7l0.4,2.6c-2.2,0.6-4.1,0.8-6.4,0.8
		c-6.5,0-8.8-3.7-8.8-9.2s2.3-9.2,8.7-9.2c5.4,0,6.9,3.1,7.1,6.1c0.1,1.1,0,2.4-0.2,3.6H481.3z M481.3,424.2h9
		c0.1-0.6,0.2-1.3,0.1-1.9c-0.1-1.8-1.2-3.4-4-3.4C482.8,419,481.5,421.2,481.3,424.2z"/>
	<path class="st1" d="M497.8,419.8l-0.5-2.6c2.4-0.5,4.9-0.7,6.8-0.7c4.2,0,6.5,1.2,6.5,5.8v12.2h-3.2v-1.8c0,0,0,0-0.1,0
		c-1.7,1.5-3.3,2.1-5.6,2.1c-3.5,0-5.6-2.1-5.6-5.2c0-4,3.2-5.4,7.4-5.4h3.9v-1.8c0-2.3-1.2-3.4-4.1-3.4
		C502.1,419.1,500.4,419.3,497.8,419.8z M507.5,426.2h-3.7c-3.3,0-4.4,1.2-4.4,3.2c0,1.9,1.4,3,3.7,3c2,0,3.6-0.8,4.4-1.5V426.2z"/>
	<path class="st1" d="M523.1,416.5c2.2,0,3.9,0.3,6,0.8l-0.6,2.5c-2.8-0.7-4.2-0.7-5.4-0.7c-3.7,0-5.3,2.6-5.3,6.5s1.6,6.5,5.3,6.5
		c1.2,0,2.6,0,5.4-0.7l0.6,2.6c-2.1,0.5-3.8,0.8-6,0.8c-6.5,0-8.7-3.7-8.7-9.2S516.6,416.5,523.1,416.5z"/>
	<path class="st1" d="M535.2,434.5h-3.2v-24.7h3.2v9.5h0.1c1.7-1.7,3.8-2.8,6.3-2.8c3.5,0,5.3,2.1,5.3,5.8v12.2h-3.2V423
		c0-2.3-0.9-3.9-3.5-3.9c-2,0-3.9,1.2-4.9,2V434.5z"/>
</g>
<g>
	<path class="st1" d="M5.1,447.7v4.4H1.9v-4.4H5.1z M5.1,454v17.7H1.9V454H5.1z"/>
	<path class="st1" d="M12.6,471.7H9.4V454h3.2v2.5h0.1c1.7-1.7,3.8-2.8,6.3-2.8c3.5,0,5.3,2.1,5.3,5.8v12.2H21v-11.5
		c0-2.3-0.9-3.9-3.5-3.9c-2,0-3.9,1.2-4.9,2V471.7z"/>
	<path class="st1" d="M36.5,456.3h-2.6v-2.1l2.6-0.2l0.4-4.9h2.8v4.9h4.9v2.3h-4.9v9.7c0,2.3,0.7,3.5,3,3.5c0.5,0,1.1-0.1,1.8-0.2
		l0.3,2.5c-1,0.1-2.3,0.2-3.2,0.2c-3.6,0-5.1-1.5-5.1-5.5V456.3z"/>
	<path class="st1" d="M51.4,471.7h-3.2V447h3.2v9.5h0.1c1.7-1.7,3.8-2.8,6.3-2.8c3.5,0,5.3,2.1,5.3,5.8v12.2h-3.2v-11.5
		c0-2.3-0.9-3.9-3.5-3.9c-2,0-3.9,1.2-4.9,2V471.7z"/>
	<path class="st1" d="M70.3,463.4c0.1,3.5,1.7,6,5.8,6c1.7,0,3.5-0.1,5.5-0.7l0.4,2.6c-2.2,0.6-4.1,0.8-6.4,0.8
		c-6.5,0-8.8-3.7-8.8-9.2s2.3-9.2,8.7-9.2c5.4,0,6.9,3.1,7.1,6.1c0.1,1.1,0,2.4-0.2,3.6H70.3z M70.3,461.4h9
		c0.1-0.6,0.2-1.3,0.1-1.9c-0.1-1.8-1.2-3.4-4-3.4C71.8,456.1,70.5,458.4,70.3,461.4z"/>
	<path class="st1" d="M101.2,453.7c2.2,0,3.9,0.3,6,0.8l-0.6,2.5c-2.8-0.7-4.2-0.7-5.4-0.7c-3.7,0-5.3,2.6-5.3,6.5s1.6,6.5,5.3,6.5
		c1.2,0,2.6,0,5.4-0.7l0.6,2.6c-2.1,0.5-3.8,0.8-6,0.8c-6.5,0-8.7-3.7-8.7-9.2S94.8,453.7,101.2,453.7z"/>
	<path class="st1" d="M110.2,447h3.2v24.7h-3.2V447z"/>
	<path class="st1" d="M118.4,457l-0.5-2.6c2.4-0.5,4.9-0.7,6.8-0.7c4.2,0,6.5,1.2,6.5,5.8v12.2h-3.2v-1.8c0,0,0,0-0.1,0
		c-1.7,1.5-3.3,2.1-5.6,2.1c-3.5,0-5.6-2.1-5.6-5.2c0-4,3.2-5.4,7.4-5.4h3.9v-1.8c0-2.3-1.2-3.4-4.1-3.4
		C122.7,456.3,121,456.5,118.4,457z M128.1,463.4h-3.7c-3.3,0-4.4,1.2-4.4,3.2c0,1.9,1.4,3,3.7,3c2,0,3.6-0.8,4.4-1.5V463.4z"/>
	<path class="st1" d="M142.2,472c-2.8,0-5.5-0.2-7.6-0.8l0.6-2.6c2.8,0.7,5.4,0.8,6.7,0.8c3.2,0,3.7-1.9,3.7-2.6c0-1.2-0.8-2-4-2.6
		c-3.7-0.7-6.6-1.9-6.6-5.6c0-3.4,2.4-4.9,6.5-4.9c2.7,0,4.9,0.3,7.1,0.8L148,457c-2.8-0.7-5-0.8-6.3-0.8c-3.2,0-3.5,1.7-3.5,2.3
		c0,1.1,0.6,2,3.8,2.7c3.7,0.8,6.8,1.8,6.8,5.4C148.7,470.2,146.3,472,142.2,472z"/>
	<path class="st1" d="M159.1,472c-2.8,0-5.5-0.2-7.6-0.8l0.6-2.6c2.8,0.7,5.4,0.8,6.7,0.8c3.2,0,3.7-1.9,3.7-2.6c0-1.2-0.8-2-4-2.6
		c-3.7-0.7-6.6-1.9-6.6-5.6c0-3.4,2.4-4.9,6.5-4.9c2.7,0,4.9,0.3,7.1,0.8l-0.6,2.5c-2.8-0.7-5-0.8-6.3-0.8c-3.2,0-3.5,1.7-3.5,2.3
		c0,1.1,0.6,2,3.8,2.7c3.7,0.8,6.8,1.8,6.8,5.4C165.6,470.2,163.2,472,159.1,472z"/>
	<path class="st1" d="M172.3,471.7h-3.2V454h3.2v2.8h0.1c1.4-1.6,3.8-3.2,6.6-3.2v3c-2.6,0-5.3,1.1-6.7,2V471.7z"/>
	<path class="st1" d="M181.5,462.8c0-5.5,2.2-9.2,8.1-9.2c5.9,0,8.1,3.7,8.1,9.2s-2.2,9.2-8.1,9.2
		C183.7,472,181.5,468.3,181.5,462.8z M184.9,462.8c0,3.7,1.1,6.5,4.8,6.5c3.7,0,4.8-2.8,4.8-6.5s-1.1-6.5-4.8-6.5
		C185.9,456.3,184.9,459.1,184.9,462.8z"/>
	<path class="st1" d="M201,462.8c0-5.5,2.2-9.2,8.1-9.2c5.9,0,8.1,3.7,8.1,9.2s-2.2,9.2-8.1,9.2C203.2,472,201,468.3,201,462.8z
		 M204.4,462.8c0,3.7,1.1,6.5,4.8,6.5c3.7,0,4.8-2.8,4.8-6.5s-1.1-6.5-4.8-6.5C205.4,456.3,204.4,459.1,204.4,462.8z"/>
	<path class="st1" d="M224.2,471.7H221V454h3.2v2.5h0.1c1.4-1.5,3.3-2.8,5.8-2.8c2.5,0,4.1,1.1,4.8,3.1c1.7-1.8,3.8-3.1,6.3-3.1
		c3.5,0,5.3,2.1,5.3,5.8v12.2h-3.2v-11.5c0-2.3-1-3.9-3.5-3.9c-1.8,0-3.4,1.2-4.5,2.1c0.1,0.6,0.1,1.2,0.1,1.9v11.3h-3.2v-11.6
		c-0.1-2.2-1-3.8-3.5-3.8c-1.9,0-3.4,1.2-4.4,2V471.7z"/>
	<path class="st1" d="M262,454h4.2v2.3H262v15.4h-3.2v-15.4h-2.6v-2.1l2.6-0.2v-2.2c0-3.4,1.2-4.9,5.1-4.9c0.8,0,1.9,0.1,2.8,0.3
		l-0.3,2.5c-0.7-0.1-1.3-0.2-1.8-0.2c-2,0-2.6,0.6-2.6,2.5V454z"/>
	<path class="st1" d="M272.7,471.7h-3.2V454h3.2v2.8h0.1c1.4-1.6,3.8-3.2,6.6-3.2v3c-2.6,0-5.3,1.1-6.7,2V471.7z"/>
	<path class="st1" d="M282,462.8c0-5.5,2.2-9.2,8.1-9.2c5.9,0,8.1,3.7,8.1,9.2s-2.2,9.2-8.1,9.2C284.1,472,282,468.3,282,462.8z
		 M285.3,462.8c0,3.7,1.1,6.5,4.8,6.5c3.7,0,4.8-2.8,4.8-6.5s-1.1-6.5-4.8-6.5C286.4,456.3,285.3,459.1,285.3,462.8z"/>
	<path class="st1" d="M305.2,471.7H302V454h3.2v2.5h0.1c1.4-1.5,3.3-2.8,5.8-2.8c2.5,0,4.1,1.1,4.8,3.1c1.7-1.8,3.8-3.1,6.3-3.1
		c3.5,0,5.3,2.1,5.3,5.8v12.2h-3.2v-11.5c0-2.3-1-3.9-3.5-3.9c-1.8,0-3.4,1.2-4.5,2.1c0.1,0.6,0.1,1.2,0.1,1.9v11.3h-3.2v-11.6
		c-0.1-2.2-1-3.8-3.5-3.8c-1.9,0-3.4,1.2-4.4,2V471.7z"/>
	<path class="st1" d="M338,462.8c0-5.5,2.2-9.2,8.1-9.2c5.9,0,8.1,3.7,8.1,9.2s-2.2,9.2-8.1,9.2C340.2,472,338,468.3,338,462.8z
		 M341.3,462.8c0,3.7,1.1,6.5,4.8,6.5c3.7,0,4.8-2.8,4.8-6.5s-1.1-6.5-4.8-6.5C342.4,456.3,341.3,459.1,341.3,462.8z"/>
	<path class="st1" d="M369.6,454h3.2v17.7h-3.2v-2.5h-0.1c-1.7,1.7-3.8,2.8-6.3,2.8c-3.5,0-5.3-2.1-5.3-5.8V454h3.2v11.5
		c0,2.3,1,3.9,3.5,3.9c2,0,3.9-1.2,4.9-2V454z"/>
	<path class="st1" d="M380.3,471.7h-3.2V454h3.2v2.8h0.1c1.4-1.6,3.8-3.2,6.6-3.2v3c-2.6,0-5.3,1.1-6.7,2V471.7z"/>
	<path class="st1" d="M400.4,471.7h-3.2V454h3.2v2.5h0.1c1.7-1.7,3.8-2.8,6.3-2.8c3.5,0,5.3,2.1,5.3,5.8v12.2h-3.2v-11.5
		c0-2.3-0.9-3.9-3.5-3.9c-2,0-3.9,1.2-4.9,2V471.7z"/>
	<path class="st1" d="M419.2,463.4c0.1,3.5,1.7,6,5.8,6c1.7,0,3.5-0.1,5.5-0.7l0.4,2.6c-2.2,0.6-4.1,0.8-6.4,0.8
		c-6.5,0-8.8-3.7-8.8-9.2s2.3-9.2,8.7-9.2c5.4,0,6.9,3.1,7.1,6.1c0.1,1.1,0,2.4-0.2,3.6H419.2z M419.2,461.4h9
		c0.1-0.6,0.2-1.3,0.1-1.9c-0.1-1.8-1.2-3.4-4-3.4C420.7,456.1,419.5,458.4,419.2,461.4z"/>
	<path class="st1" d="M446.4,458.9l-3.6,12.9h-3.5L434,454h3.5l3.9,14.3h0.1L445,454h3.1l3.7,14.3h0.1l3.7-14.3h3.4l-5.3,17.8h-3.5
		L446.4,458.9L446.4,458.9z"/>
	<path class="st1" d="M472.6,471.7h-3.2V454h3.2v2.8h0.1c1.4-1.6,3.8-3.2,6.6-3.2v3c-2.6,0-5.3,1.1-6.7,2V471.7z"/>
	<path class="st1" d="M481.8,462.8c0-5.5,2.2-9.2,8.1-9.2c5.9,0,8.1,3.7,8.1,9.2s-2.2,9.2-8.1,9.2C484,472,481.8,468.3,481.8,462.8z
		 M485.1,462.8c0,3.7,1.1,6.5,4.8,6.5c3.7,0,4.8-2.8,4.8-6.5s-1.1-6.5-4.8-6.5C486.2,456.3,485.1,459.1,485.1,462.8z"/>
	<path class="st1" d="M513.4,454h3.2v17.7h-3.2v-2.5h-0.1c-1.7,1.7-3.8,2.8-6.3,2.8c-3.5,0-5.3-2.1-5.3-5.8V454h3.2v11.5
		c0,2.3,1,3.9,3.5,3.9c2,0,3.9-1.2,4.9-2V454z"/>
	<path class="st1" d="M522.2,456.3h-2.6v-2.1l2.6-0.2l0.4-4.9h2.8v4.9h4.9v2.3h-4.9v9.7c0,2.3,0.7,3.5,3,3.5c0.5,0,1.1-0.1,1.8-0.2
		l0.3,2.5c-1,0.1-2.3,0.2-3.2,0.2c-3.6,0-5.1-1.5-5.1-5.5V456.3z"/>
	<path class="st1" d="M536.4,463.4c0.1,3.5,1.7,6,5.8,6c1.7,0,3.5-0.1,5.5-0.7l0.4,2.6c-2.2,0.6-4.1,0.8-6.4,0.8
		c-6.5,0-8.8-3.7-8.8-9.2s2.3-9.2,8.7-9.2c5.4,0,6.9,3.1,7.1,6.1c0.1,1.1,0,2.4-0.2,3.6H536.4z M536.4,461.4h9
		c0.1-0.6,0.2-1.3,0.1-1.9c-0.1-1.8-1.2-3.4-4-3.4C537.9,456.1,536.6,458.4,536.4,461.4z"/>
	<path class="st1" d="M559.2,472c-2.8,0-5.5-0.2-7.6-0.8l0.6-2.6c2.8,0.7,5.4,0.8,6.7,0.8c3.2,0,3.7-1.9,3.7-2.6c0-1.2-0.8-2-4-2.6
		c-3.7-0.7-6.6-1.9-6.6-5.6c0-3.4,2.4-4.9,6.5-4.9c2.7,0,4.9,0.3,7.1,0.8l-0.6,2.5c-2.8-0.7-5-0.8-6.3-0.8c-3.2,0-3.5,1.7-3.5,2.3
		c0,1.1,0.6,2,3.8,2.7c3.7,0.8,6.8,1.8,6.8,5.4C565.7,470.2,563.3,472,559.2,472z"/>
</g>
<g>
	<path class="st1" d="M5.1,484.8v4.4H1.9v-4.4H5.1z M5.1,491.1v17.7H1.9v-17.7H5.1z"/>
	<path class="st1" d="M12.6,508.8H9.4v-17.7h3.2v2.5h0.1c1.7-1.7,3.8-2.8,6.3-2.8c3.5,0,5.3,2.1,5.3,5.8v12.2H21v-11.5
		c0-2.3-0.9-3.9-3.5-3.9c-2,0-3.9,1.2-4.9,2V508.8z"/>
	<path class="st1" d="M29.7,493.4H27v-2.1l2.6-0.2l0.4-4.9h2.8v4.9h4.9v2.3h-4.9v9.7c0,2.3,0.7,3.5,3,3.5c0.5,0,1.1-0.1,1.8-0.2
		l0.3,2.5c-1,0.1-2.3,0.2-3.2,0.2c-3.6,0-5.1-1.5-5.1-5.5V493.4z"/>
	<path class="st1" d="M40.5,500c0-5.5,2.2-9.2,8.1-9.2c5.9,0,8.1,3.7,8.1,9.2s-2.2,9.2-8.1,9.2C42.6,509.1,40.5,505.4,40.5,500z
		 M43.8,500c0,3.7,1.1,6.5,4.8,6.5c3.7,0,4.8-2.8,4.8-6.5s-1.1-6.5-4.8-6.5C44.9,493.4,43.8,496.3,43.8,500z"/>
	<path class="st1" d="M68.7,493.4H66v-2.1l2.6-0.2l0.4-4.9h2.8v4.9h4.9v2.3h-4.9v9.7c0,2.3,0.7,3.5,3,3.5c0.5,0,1.1-0.1,1.8-0.2
		l0.3,2.5c-1,0.1-2.3,0.2-3.2,0.2c-3.6,0-5.1-1.5-5.1-5.5V493.4z"/>
	<path class="st1" d="M82.8,500.5c0.1,3.5,1.7,6,5.8,6c1.7,0,3.5-0.1,5.5-0.7l0.4,2.6c-2.2,0.6-4.1,0.8-6.4,0.8
		c-6.5,0-8.8-3.7-8.8-9.2s2.3-9.2,8.7-9.2c5.4,0,6.9,3.1,7.1,6.1c0.1,1.1,0,2.4-0.2,3.6H82.8z M82.8,498.5h9
		c0.1-0.6,0.2-1.3,0.1-1.9c-0.1-1.8-1.2-3.4-4-3.4C84.3,493.3,83.1,495.5,82.8,498.5z"/>
	<path class="st1" d="M99.4,494.1l-0.5-2.6c2.4-0.5,4.9-0.7,6.8-0.7c4.2,0,6.5,1.2,6.5,5.8v12.2H109V507c0,0,0,0-0.1,0
		c-1.7,1.5-3.3,2.1-5.6,2.1c-3.5,0-5.6-2.1-5.6-5.2c0-4,3.2-5.4,7.4-5.4h3.9v-1.8c0-2.3-1.2-3.4-4.1-3.4
		C103.6,493.4,102,493.6,99.4,494.1z M109,500.5h-3.7c-3.3,0-4.4,1.2-4.4,3.2c0,1.9,1.4,3,3.7,3c2,0,3.6-0.8,4.4-1.5V500.5z"/>
	<path class="st1" d="M124.6,490.8c2.2,0,3.9,0.3,6,0.8l-0.6,2.5c-2.8-0.7-4.2-0.7-5.4-0.7c-3.7,0-5.3,2.6-5.3,6.5s1.6,6.5,5.3,6.5
		c1.2,0,2.6,0,5.4-0.7l0.6,2.6c-2.1,0.5-3.8,0.8-6,0.8c-6.5,0-8.7-3.7-8.7-9.2S118.1,490.8,124.6,490.8z"/>
	<path class="st1" d="M136.8,508.8h-3.2v-24.7h3.2v9.5h0.1c1.7-1.7,3.8-2.8,6.3-2.8c3.5,0,5.3,2.1,5.3,5.8v12.2h-3.2v-11.5
		c0-2.3-0.9-3.9-3.5-3.9c-2,0-3.9,1.2-4.9,2V508.8z"/>
	<path class="st1" d="M155.9,484.8v4.4h-3.2v-4.4H155.9z M155.9,491.1v17.7h-3.2v-17.7H155.9z"/>
	<path class="st1" d="M163.4,508.8h-3.2v-17.7h3.2v2.5h0.1c1.7-1.7,3.8-2.8,6.3-2.8c3.5,0,5.3,2.1,5.3,5.8v12.2h-3.2v-11.5
		c0-2.3-0.9-3.9-3.5-3.9c-2,0-3.9,1.2-4.9,2V508.8z"/>
	<path class="st1" d="M180.9,507.6c-1-0.5-1.4-1.4-1.3-2.4c0-1.2,0.8-2.5,2.3-3.4v-0.1c-1.8-0.9-2.9-2.6-2.9-4.9c0-3.9,2.8-6,7.2-6
		c1,0,1.8,0.2,2.4,0.4h6.2v1.9h-3.4c1.4,1,1.7,2.5,1.7,3.7c0,4-3,5.8-7,5.8c-1,0-2-0.2-2.6-0.4c-0.3,0.3-0.5,0.7-0.7,1
		c-0.5,1.1-0.4,2.3,1,2.3l6.4,0.4c3.6,0.2,5.2,1.7,5.2,4.1c0,4.1-3.2,6.2-10.2,6.2c-4.8,0-7.2-1.4-7.2-4.6
		C177.9,510,178.8,508.8,180.9,507.6L180.9,507.6z M185.7,514.1c3.4,0,6.3-1.1,6.3-3.5c0-1.1-0.7-2-2.9-2.1l-6.5-0.4
		c-1.1,0.8-2,1.5-2,2.9C180.6,513,182.4,514.1,185.7,514.1z M190.3,496.8c0-2.4-1.6-3.9-4.1-3.9c-2.8,0-4.2,1.5-4.2,3.9
		c0,2.4,1.6,3.7,4.2,3.7C188.7,500.5,190.3,499.1,190.3,496.8z"/>
</g>
</svg>
