<!-- Generator: Adobe Illustrator 19.2.1, SVG Export Plug-In  -->
<svg version="1.1"
	 xmlns="http://www.w3.org/2000/svg" xmlns:xlink="http://www.w3.org/1999/xlink" xmlns:a="http://ns.adobe.com/AdobeSVGViewerExtensions/3.0/"
	 x="0px" y="0px" width="268px" height="258px" viewBox="0 0 268 258" style="enable-background:new 0 0 268 258;"
	 xml:space="preserve">
<style type="text/css">
	.st0{clip-path:url(#SVGID_2_);fill:#DC932F;}
	.st1{clip-path:url(#SVGID_2_);fill:#FFFFFF;}
	.st2{clip-path:url(#SVGID_4_);fill:#DC932F;}
	.st3{clip-path:url(#SVGID_4_);fill:#FFFFFF;}
</style>
<defs>
</defs>
<g>
	<defs>
		<rect id="SVGID_1_" width="268" height="258"/>
	</defs>
	<clipPath id="SVGID_2_">
		<use xlink:href="#SVGID_1_"  style="overflow:visible;"/>
	</clipPath>
	<path class="st0" d="M134,257c69,0,125-56,125-125C259,63,203,7,134,7S9,63,9,132C9,201,65,257,134,257"/>
	<path class="st1" d="M187.7,138.9c0-3.6-3.4-4.4-6.3-5c-2-0.4-2.5-0.8-2.5-1.6c0-0.5,0.5-1.3,2.3-1.3c1.2,0,3,0.1,5.6,0.7l0.7-3.2
		c-1.9-0.5-4-0.7-6.5-0.7c-3.8,0-6.1,1.3-6.1,4.6c0,3.5,2.7,4.6,6.2,5.2c1.9,0.4,2.7,0.7,2.7,1.5c0,0.6-0.6,1.5-2.5,1.5
		c-1.2,0-3.3-0.1-5.9-0.7l-0.7,3.2c1.9,0.5,4.6,0.7,7.1,0.7C185.3,143.9,187.7,142.4,187.7,138.9 M172.8,138.9c0-3.6-3.4-4.4-6.3-5
		c-2-0.4-2.5-0.8-2.5-1.6c0-0.5,0.5-1.3,2.3-1.3c1.2,0,3,0.1,5.6,0.7l0.7-3.2c-1.9-0.5-4-0.7-6.5-0.7c-3.8,0-6.1,1.3-6.1,4.6
		c0,3.5,2.7,4.6,6.2,5.2c1.9,0.4,2.7,0.7,2.7,1.5c0,0.6-0.6,1.5-2.5,1.5c-1.2,0-3.3-0.1-5.9-0.7l-0.7,3.2c1.9,0.5,4.6,0.7,7.1,0.7
		C170.5,143.9,172.8,142.4,172.8,138.9 M151.1,130.9c1.9,0,2.6,0.9,2.7,2.1c0,0.4,0,0.8-0.1,1.2h-6
		C147.9,132.2,148.9,130.9,151.1,130.9 M157.8,136.7c0.2-1.4,0.3-2.7,0.1-3.9c-0.3-2.7-1.9-5-6.5-5c-5.9,0-8,3.2-8,8.1
		c0,4.9,2.1,8.1,8.1,8.1c2,0,3.8-0.2,5.9-0.7l-0.5-3.2c-2,0.6-3.5,0.6-4.8,0.6c-2.9,0-4.2-1.6-4.2-3.9H157.8z M131.3,132.3
		c0.8-0.5,2-1.2,3.3-1.2c1.8,0,2.5,1,2.5,2.8v9.7h4V133c0-3.2-1.5-5.2-4.6-5.2c-2,0-3.7,0.9-5.1,2.3h-0.1v-2h-4v15.5h4V132.3z
		 M119.8,132.8c1.2-0.6,3.3-1.2,5.4-1.2v-3.8c-2.5,0-4.4,1.4-5.4,2.8h-0.1v-2.5h-4v15.5h4V132.8z M109.1,126.8h4v-4.3h-4V126.8z
		 M109.1,143.6h4v-15.5h-4V143.6z M99.4,131.2c2,0,3,0.5,3,2.1v1.1h-2.9c-3,0-6.5,1.1-6.5,4.8c0,2.7,1.7,4.8,4.8,4.8
		c2,0,3.3-0.5,4.6-1.9h0.1v1.5h4V133c0-4.2-2.2-5.2-6.1-5.2c-1.9,0-4.2,0.3-6.4,0.7l0.6,3.2C96.8,131.3,98.2,131.2,99.4,131.2
		 M102.5,139.9c-0.6,0.4-1.7,1-3,1c-1.3,0-2.4-0.7-2.4-2c0-1.4,0.9-2.1,2.7-2.1h2.7V139.9z M93.2,122.5h-14v21.1h4.3v-8.4h8.3v-3.8
		h-8.3v-5.1h9.7V122.5z"/>
</g>
</svg>
