<!-- Generator: Adobe Illustrator 19.2.1, SVG Export Plug-In  -->
<svg version="1.1"
	 xmlns="http://www.w3.org/2000/svg" xmlns:xlink="http://www.w3.org/1999/xlink" xmlns:a="http://ns.adobe.com/AdobeSVGViewerExtensions/3.0/"
	 x="0px" y="0px" width="507.8px" height="73.7px" viewBox="0 0 507.8 73.7" style="enable-background:new 0 0 507.8 73.7;"
	 xml:space="preserve">
<style type="text/css">
	.st0{clip-path:url(#SVGID_2_);fill:#FFFFFF;}
	.st1{clip-path:url(#SVGID_4_);fill:#FFFFFF;}
</style>
<defs>
</defs>
<g>
	<defs>
		<rect id="SVGID_1_" width="507.8" height="73.7"/>
	</defs>
	<clipPath id="SVGID_2_">
		<use xlink:href="#SVGID_1_"  style="overflow:visible;"/>
	</clipPath>
	<path class="st0" d="M494.2,18.1c-5.1,0-9,1.8-11.4,5.8v-4.8h-11.7v38.3h12.2V36.8c0-5,2.8-7.3,6.2-7.3c3.8,0,6,2.5,6,7.1v20.8
		h12.2V32.3C507.8,23.4,501.9,18.1,494.2,18.1 M444.4,29.4c4.8,0,8.2,3.7,8.2,8.8s-3.4,8.8-8.2,8.8c-4.9,0-8.2-3.8-8.2-8.8
		S439.6,29.4,444.4,29.4 M464.3,19.1h-11.8v4.1c-2.3-3-5.8-5.2-11-5.2c-10.3,0-17.8,8.9-17.8,20.1c0,11.3,7.6,20.2,17.8,20.2
		c5.2,0,8.7-2.1,11-5.1v4.1h11.8V19.1z M419,1.2h-12.2v56.2H419V1.2z M382.2,14.6c4.7,0,7.6,2.2,7.6,6.4c0,4.1-2.9,6.3-7.6,6.3
		h-10.2V14.6H382.2z M382.5,38.9c13.4,0,20.5-7.2,20.5-17.9c0-11-7.1-18.2-20.6-18.2H359v54.6h13V38.9H382.5z M320.5,18.1
		c-12.2,0-20.6,8.5-20.6,20.2s8.4,20.2,20.6,20.2c7.1,0,12.7-3.1,16.4-8.3l-9.5-6.8c-1.9,2.4-4.3,3.7-7.2,3.7
		c-4.3,0-7.8-3.2-7.8-8.8c0-5.5,3.6-8.8,7.9-8.8c3,0,5.1,1.2,7.1,3.7l9.6-6.7C333.2,21.2,327.6,18.1,320.5,18.1 M289.2,0
		c-4.1,0-7.3,3.2-7.3,7.3c0,4.1,3.2,7.3,7.3,7.3c4.1,0,7.3-3.2,7.3-7.3C296.5,3.2,293.3,0,289.2,0 M295.4,19.1h-12.2v38.3h12.2V19.1
		z M256.7,29.2c4.6,0,7.8,3.5,7.8,8.2s-3.2,8.2-7.8,8.2c-4.8,0-8-3.5-8-8.2C248.6,32.7,251.9,29.2,256.7,29.2 M253.8,18.1
		c-10.3,0-17.7,8.5-17.7,19.3s7.5,19.3,17.7,19.3c4.9,0,8.3-2,10.5-4.8v2.4c0,6.1-4.7,8.8-9.6,8.8c-4.5,0-8.5-1.2-12.3-3.9l-4.3,9.7
		c4.6,3.2,11.1,4.9,17.5,4.9c12.5,0,20.7-7.5,20.7-20V19.1h-11.8v4C262.2,20.1,258.8,18.1,253.8,18.1 M214.2,28.4
		c3.5,0,5.9,2,6.9,5.8h-13.9C208.1,30.5,210.4,28.4,214.2,28.4 M214.2,18.1c-11.6,0-19.6,8.3-19.6,20.4c0,11.9,8.2,19.9,20.2,19.9
		c7.1,0,12.9-2.3,16.8-6.3l-7.9-7.3c-2.4,2.2-5.5,3.4-8.3,3.4c-4.2,0-7.2-2-8.2-6.1h25.9c0.2-0.8,0.2-2.5,0.2-3.8
		C233.3,26.2,225.5,18.1,214.2,18.1 M190.8,19.1h-13.1V8h-12.2v11.2h-7.1v10.8h7.1v12.8c0,9.6,4.6,15.7,14.9,15.7
		c6.2,0,10-1.8,13.6-4.3l-4.2-9.5c-1.9,1.1-4.4,2.4-6.6,2.4c-3.1,0-5.4-1.5-5.4-5.9V29.9h13.1V19.1z M134.9,29.4
		c4.8,0,8.2,3.7,8.2,8.8s-3.4,8.8-8.2,8.8c-4.9,0-8.2-3.8-8.2-8.8S130,29.4,134.9,29.4 M154.8,19.1h-11.8v4.1c-2.3-3-5.8-5.2-11-5.2
		c-10.3,0-17.8,8.9-17.8,20.1c0,11.3,7.6,20.2,17.8,20.2c5.2,0,8.7-2.1,11-5.1v4.1h11.8V19.1z M108.9,18.1c-4.7,0-8.2,1.8-10.5,5.5
		v-4.4H86.8v38.3H99V36.7c0-4.8,2.7-6.9,7-6.9c2.2,0,4.5,0.5,6.1,1l1.1-12.2C112.3,18.4,110.7,18.1,108.9,18.1 M80.3,19.1H67.3V8
		H55.1v11.2h-7.1v10.8h7.1v12.8c0,9.6,4.6,15.7,14.9,15.7c6.2,0,10-1.8,13.6-4.3l-4.2-9.5C77.4,45.7,75,47,72.7,47
		c-3.1,0-5.4-1.5-5.4-5.9V29.9h13.1V19.1z M46.2,7.6c-8.3-4.6-14.7-5.8-22-5.8c-12.8,0-21.8,6.7-22,17.3C1.9,28.9,8,34,19.3,35.8
		l2.7,0.4c7.1,1.1,10.8,2,10.8,5.3c0,3.4-3.7,5.1-8.7,5.1c-7.7,0-13.5-2.9-17.6-5.7L0,51.4c6,4.6,14.9,6.9,24,6.9
		c11.7,0,22.9-5.4,22.9-18.4c0-8.9-6.7-13.9-17.3-15.7l-2.3-0.4c-6-1.1-11.2-1.9-11.2-5.3c0-3.2,3.6-4.9,8.6-4.9
		c6.4,0,11.7,2.3,15.6,4.6L46.2,7.6z"/>
</g>
</svg>
