<!-- Generator: Adobe Illustrator 19.2.1, SVG Export Plug-In  -->
<svg version="1.1"
	 xmlns="http://www.w3.org/2000/svg" xmlns:xlink="http://www.w3.org/1999/xlink" xmlns:a="http://ns.adobe.com/AdobeSVGViewerExtensions/3.0/"
	 x="0px" y="0px" width="272.6px" height="258px" viewBox="0 0 272.6 258" style="enable-background:new 0 0 272.6 258;"
	 xml:space="preserve">
<style type="text/css">
	.st0{clip-path:url(#SVGID_2_);fill:#C8452A;}
	.st1{clip-path:url(#SVGID_2_);fill:#FFFFFF;}
	.st2{clip-path:url(#SVGID_4_);fill:#C8452A;}
	.st3{clip-path:url(#SVGID_4_);fill:#FFFFFF;}
</style>
<defs>
</defs>
<g>
	<defs>
		<rect id="SVGID_1_" width="272.6" height="258"/>
	</defs>
	<clipPath id="SVGID_2_">
		<use xlink:href="#SVGID_1_"  style="overflow:visible;"/>
	</clipPath>
	<path class="st0" d="M134,257c69,0,125-56,125-125C259,63,203,7,134,7S9,63,9,132C9,201,65,257,134,257"/>
	<path class="st1" d="M218.6,132.3c0.8-0.5,1.8-1.2,3-1.2c1.6,0,2.4,1,2.5,2.6v9.9h4v-9.5c0-0.7,0-1.2,0-1.8c0.8-0.5,1.9-1.2,3-1.2
		c1.7,0,2.5,1,2.5,2.8v9.7h4V133c0-3.2-1.6-5.2-4.6-5.2c-2,0-3.8,0.8-5.4,2.6c-0.7-1.6-2-2.6-4.2-2.6c-2,0-3.6,1-4.8,2.3h-0.1v-2h-4
		v15.5h4V132.3z M212.4,138.9c0-3.6-3.4-4.4-6.3-5c-2-0.4-2.5-0.8-2.5-1.6c0-0.5,0.5-1.3,2.3-1.3c1.2,0,3,0.1,5.6,0.7l0.7-3.2
		c-1.9-0.5-4-0.7-6.5-0.7c-3.8,0-6.1,1.3-6.1,4.6c0,3.5,2.7,4.6,6.2,5.2c1.9,0.4,2.7,0.7,2.7,1.5c0,0.6-0.6,1.5-2.5,1.5
		c-1.2,0-3.3-0.1-5.9-0.7l-0.7,3.2c1.9,0.5,4.6,0.7,7.1,0.7C210,143.9,212.4,142.4,212.4,138.9 M193,126.8h4v-4.3h-4V126.8z
		 M193,143.6h4v-15.5h-4V143.6z M186.3,143.6h4v-21.7h-4V143.6z M176.7,131.2c2,0,3,0.5,3,2.1v1.1h-2.9c-3,0-6.5,1.1-6.5,4.8
		c0,2.7,1.7,4.8,4.8,4.8c2,0,3.3-0.5,4.6-1.9h0.1v1.5h4V133c0-4.2-2.2-5.2-6.1-5.2c-1.9,0-4.2,0.3-6.4,0.7l0.6,3.2
		C174,131.3,175.4,131.2,176.7,131.2 M179.7,139.9c-0.6,0.4-1.7,1-3,1c-1.3,0-2.4-0.7-2.4-2c0-1.4,0.9-2.1,2.7-2.1h2.7V139.9z
		 M158.3,132.3c0.8-0.5,2-1.2,3.3-1.2c1.8,0,2.5,1,2.5,2.8v9.7h4V133c0-3.2-1.6-5.2-4.7-5.2c-2,0-3.7,0.9-5.1,2.3h-0.1v-2h-4v15.5h4
		V132.3z M144.4,143.9c5.5,0,7.5-3.2,7.5-8.1c0-4.9-2-8.1-7.5-8.1c-5.5,0-7.5,3.2-7.5,8.1C136.9,140.8,139,143.9,144.4,143.9
		 M144.4,131.2c2.5,0,3.3,1.9,3.3,4.7c0,2.9-0.7,4.7-3.3,4.7c-2.5,0-3.3-1.9-3.3-4.7C141.2,133,141.9,131.2,144.4,131.2
		 M130.5,126.8h4v-4.3h-4V126.8z M130.5,143.6h4v-15.5h-4V143.6z M128.4,138.9c0-3.6-3.4-4.4-6.3-5c-2-0.4-2.5-0.8-2.5-1.6
		c0-0.5,0.5-1.3,2.3-1.3c1.2,0,3,0.1,5.6,0.7l0.7-3.2c-1.9-0.5-4-0.7-6.5-0.7c-3.8,0-6.1,1.3-6.1,4.6c0,3.5,2.7,4.6,6.2,5.2
		c1.9,0.4,2.7,0.7,2.7,1.5c0,0.6-0.6,1.5-2.5,1.5c-1.2,0-3.3-0.1-5.9-0.7l-0.7,3.2c1.9,0.5,4.6,0.7,7.1,0.7
		C126,143.9,128.4,142.4,128.4,138.9 M113.5,138.9c0-3.6-3.4-4.4-6.3-5c-2-0.4-2.5-0.8-2.5-1.6c0-0.5,0.5-1.3,2.3-1.3
		c1.2,0,3,0.1,5.6,0.7l0.7-3.2c-1.9-0.5-4-0.7-6.5-0.7c-3.8,0-6.1,1.3-6.1,4.6c0,3.5,2.7,4.6,6.2,5.2c1.9,0.4,2.7,0.7,2.7,1.5
		c0,0.6-0.6,1.5-2.5,1.5c-1.2,0-3.3-0.1-5.9-0.7l-0.7,3.2c1.9,0.5,4.6,0.7,7.1,0.7C111.1,143.9,113.5,142.4,113.5,138.9 M91.8,130.9
		c1.9,0,2.6,0.9,2.7,2.1c0,0.4,0,0.8-0.1,1.2h-6C88.6,132.2,89.6,130.9,91.8,130.9 M98.4,136.7c0.2-1.4,0.3-2.7,0.1-3.9
		c-0.3-2.7-1.9-5-6.5-5c-5.9,0-8,3.2-8,8.1c0,4.9,2.1,8.1,8.1,8.1c2,0,3.8-0.2,5.9-0.7l-0.5-3.2c-2,0.6-3.5,0.6-4.8,0.6
		c-2.9,0-4.2-1.6-4.2-3.9H98.4z M80.1,126.8c0-1.3,0.4-1.7,1.8-1.7c0.4,0,0.8,0.1,1.4,0.2l0.3-3.1c-0.9-0.2-1.9-0.3-2.7-0.3
		c-3.9,0-4.9,1.6-4.9,4.6v1.6l-2.1,0.2v2.6h2.1v12.6h4V131h3.3v-2.9h-3.3V126.8z M65,143.9c5.5,0,7.5-3.2,7.5-8.1
		c0-4.9-2-8.1-7.5-8.1s-7.5,3.2-7.5,8.1C57.5,140.8,59.6,143.9,65,143.9 M65,131.2c2.5,0,3.3,1.9,3.3,4.7c0,2.9-0.7,4.7-3.3,4.7
		s-3.3-1.9-3.3-4.7C61.8,133,62.5,131.2,65,131.2 M51.7,132.8c1.2-0.6,3.3-1.2,5.4-1.2v-3.8c-2.5,0-4.4,1.4-5.4,2.8h-0.1v-2.5h-4
		v15.5h4V132.8z M33.6,126.4h4.2c1.8,0,3.1,0.9,3.1,3c0,2.2-1.3,3-3.1,3h-4.2V126.4z M38.3,136.2c4.4,0,7-2.6,7-6.8
		c0-4.1-2.5-6.8-7-6.8h-9v21.1h4.3v-7.4H38.3z"/>
</g>
</svg>
