<!-- Generator: Adobe Illustrator 19.2.1, SVG Export Plug-In  -->
<svg version="1.1"
	 xmlns="http://www.w3.org/2000/svg" xmlns:xlink="http://www.w3.org/1999/xlink" xmlns:a="http://ns.adobe.com/AdobeSVGViewerExtensions/3.0/"
	 x="0px" y="0px" width="412.6px" height="73px" viewBox="0 0 412.6 73" style="enable-background:new 0 0 412.6 73;"
	 xml:space="preserve">
<style type="text/css">
	.st0{clip-path:url(#SVGID_2_);fill:#2B5972;}
	.st1{clip-path:url(#SVGID_4_);fill:#2B5972;}
</style>
<defs>
</defs>
<g>
	<defs>
		<rect id="SVGID_1_" width="412.6" height="73"/>
	</defs>
	<clipPath id="SVGID_2_">
		<use xlink:href="#SVGID_1_"  style="overflow:visible;"/>
	</clipPath>
	<path class="st0" d="M391.8,29.4c4.9,0,8.2,3.8,8.2,8.8s-3.3,8.8-8.2,8.8c-4.8,0-8.2-3.7-8.2-8.8S387,29.4,391.8,29.4 M394.7,18.1
		c-5.2,0-8.7,2.2-11,5.2v-4.1H372V73h12.2V53.7c2.3,2.7,5.7,4.6,10.6,4.6c10.2,0,17.8-8.9,17.8-20.2C412.6,26.9,405,18.1,394.7,18.1
		 M359.1,0c-4.1,0-7.3,3.2-7.3,7.3c0,4.1,3.2,7.3,7.3,7.3c4.1,0,7.3-3.2,7.3-7.3C366.4,3.2,363.2,0,359.1,0 M365.3,19.1h-12.2v38.3
		h12.2V19.1z M322.1,1.2h-12.2v56.2h12.2V36.8c0-5,2.8-7.3,6.2-7.3c3.8,0,6,2.5,6,7.1v20.8h12.2V32.3c0-8.9-5.9-14.2-13.6-14.2
		c-4.8,0-8.5,1.6-10.9,5.1V1.2z M303.9,21.4c-6.3-2.4-10.3-3.3-16.5-3.3c-10.4,0-16.5,4.6-16.5,12.8c0,6.9,4.3,10.7,13.5,12.1
		l2.2,0.3c4.3,0.7,6,1.2,6,2.7c0,1.6-1.6,2.5-5.3,2.5c-5.3,0-9.7-1.3-13.5-3.6l-4.3,9.4c4.4,2.8,11.1,4,17.7,4
		c11.2,0,17.7-5,17.7-13.4c0-6.4-4.3-10.4-12.5-11.6l-2.8-0.4c-3.7-0.6-6.2-1-6.2-2.6c0-1.4,1.2-2.3,4.4-2.3c3.9,0,8.8,1.4,12.6,3
		L303.9,21.4z M264.6,18.1c-4.7,0-8.2,1.8-10.5,5.5v-4.4h-11.7v38.3h12.2V36.7c0-4.8,2.7-6.9,7-6.9c2.2,0,4.5,0.5,6.1,1l1.1-12.2
		C267.9,18.4,266.4,18.1,264.6,18.1 M218.5,28.4c3.5,0,5.9,2,6.9,5.9h-13.9C212.4,30.5,214.7,28.4,218.5,28.4 M218.5,18.1
		c-11.6,0-19.6,8.3-19.6,20.4c0,11.9,8.2,19.9,20.2,19.9c7.1,0,12.9-2.3,16.8-6.3l-7.9-7.3c-2.4,2.2-5.5,3.4-8.3,3.4
		c-4.2,0-7.2-2-8.2-6.1h25.9c0.2-0.8,0.2-2.5,0.2-3.8C237.6,26.2,229.8,18.1,218.5,18.1 M180.7,18.1c-5.1,0-9,1.8-11.4,5.9v-4.8
		h-11.7v38.3h12.2V36.8c0-5,2.8-7.3,6.2-7.3c3.8,0,6,2.5,6,7.1v20.8h12.2V32.3C194.3,23.4,188.4,18.1,180.7,18.1 M151.2,19.1h-13.1
		V8H126v11.2h-7.1v10.8h7.1v12.8c0,9.6,4.6,15.7,14.9,15.7c6.2,0,10-1.8,13.6-4.3l-4.2-9.5c-1.9,1.1-4.4,2.4-6.6,2.4
		c-3.1,0-5.4-1.5-5.4-5.9V29.9h13.1V19.1z M112.9,18.1c-4.7,0-8.2,1.8-10.5,5.5v-4.4H90.8v38.3H103V36.7c0-4.8,2.7-6.9,7-6.9
		c2.2,0,4.5,0.5,6.1,1l1.1-12.2C116.3,18.4,114.7,18.1,112.9,18.1 M64,29.4c4.8,0,8.2,3.7,8.2,8.8S68.8,47,64,47
		c-4.9,0-8.2-3.8-8.2-8.8S59.2,29.4,64,29.4 M83.9,19.1H72.1v4.1c-2.3-3-5.8-5.2-11-5.2c-10.3,0-17.8,8.9-17.8,20.1
		c0,11.3,7.6,20.2,17.8,20.2c5.2,0,8.7-2.1,11-5.1v4.1h11.8V19.1z M19.8,29.4c4.9,0,8.2,3.8,8.2,8.8S24.7,47,19.8,47
		c-4.8,0-8.2-3.7-8.2-8.8S15,29.4,19.8,29.4 M22.7,18.1c-5.2,0-8.7,2.2-11,5.2v-4.1H0V73h12.2V53.7c2.3,2.7,5.7,4.6,10.6,4.6
		c10.2,0,17.8-8.9,17.8-20.2C40.6,26.9,33,18.1,22.7,18.1"/>
</g>
</svg>
