<!-- Generator: Adobe Illustrator 19.2.1, SVG Export Plug-In  -->
<svg version="1.1"
	 xmlns="http://www.w3.org/2000/svg" xmlns:xlink="http://www.w3.org/1999/xlink" xmlns:a="http://ns.adobe.com/AdobeSVGViewerExtensions/3.0/"
	 x="0px" y="0px" width="608px" height="598px" viewBox="0 0 608 598" style="enable-background:new 0 0 608 598;"
	 xml:space="preserve">
<style type="text/css">
	.st0{clip-path:url(#SVGID_2_);fill:#1C303D;}
	.st1{fill:#FFFFFF;}
	.st2{clip-path:url(#SVGID_4_);fill:#1C303D;}
</style>
<defs>
</defs>
<g>
	<defs>
		<rect id="SVGID_1_" width="608" height="598"/>
	</defs>
	<clipPath id="SVGID_2_">
		<use xlink:href="#SVGID_1_"  style="overflow:visible;"/>
	</clipPath>
	<path class="st0" d="M304,597c162.9,0,295-132.1,295-295S466.9,7,304,7S9,139.1,9,302S141.1,597,304,597"/>
</g>
<g>
	<path class="st1" d="M182.3,170.8h0.1l17.5-40.9h4.6v46.9h-3.6v-39.8h-0.1l-17.2,39.8h-2.8l-17.1-39.8h-0.1v39.8H160v-46.9h4.7
		L182.3,170.8z"/>
	<path class="st1" d="M213.7,159.5c0-10.5,4.1-17.9,15-17.9s15,7.5,15,17.9c0,10.6-4,17.9-15,17.9S213.7,170.1,213.7,159.5z
		 M217.3,159.5c0,8.1,2.6,15,11.4,15s11.4-6.9,11.4-15c0-8.1-2.6-15-11.4-15S217.3,151.4,217.3,159.5z"/>
	<path class="st1" d="M255.5,176.8h-3.5v-34.5h3.5v5.5h0.1c3.5-3.1,8.5-6.2,14-6.2v3.3c-5.7,0-11.4,3.2-14.1,5.2V176.8z"/>
	<path class="st1" d="M278,159.7c0.1,8.6,3.4,14.8,13.3,14.8c3.7,0,7.1-0.3,10.8-1.4l0.5,2.8c-4,1.1-7.2,1.4-11.7,1.4
		c-12.2,0-16.6-7.4-16.6-17.9c0-10.5,4.3-17.9,16.1-17.9c10.8,0,13.2,7.2,13.1,12.9c0,1.8-0.2,3.6-0.6,5.2H278z M278,157.4h21.6
		c0.3-1.4,0.5-3,0.3-4.5c-0.3-4.6-2.8-8.6-9.8-8.6C281.4,144.3,278.5,150.3,278,157.4z"/>
	<path class="st1" d="M328,144.9h-5.7v-2.3l5.7-0.3l0.5-9.7h3v9.7h10.7v2.6h-10.7v21.2c0,5.6,1.4,8.6,6.8,8.6c1.2,0,2.2-0.1,3.9-0.3
		l0.3,2.8c-1.7,0.3-3.9,0.4-5.3,0.4c-6.3,0-9.2-2.6-9.2-10.9V144.9z"/>
	<path class="st1" d="M353.5,176.8H350v-48.3h3.4v19h0.1c3.7-3.4,8.1-5.9,13.3-5.9c6.9,0,10.3,3.8,10.3,11.2v23.9h-3.4v-23.3
		c0-5-1.9-9-8.3-9c-5,0-9.7,3.2-12.1,5.2V176.8z"/>
	<path class="st1" d="M387.6,145.7l-0.6-2.8c4.4-0.9,8.9-1.3,12.4-1.3c7.7,0,11.9,2.6,11.9,11.2v23.9h-3.4v-3.5c-0.1,0-0.1,0-0.1,0
		c-3.7,2.8-6.9,4.1-11.6,4.1c-6.9,0-11.4-3.6-11.4-9.7c0-7,5.1-10.3,14.5-10.3h8.6v-4.5c0-5.5-2.3-8.4-9.1-8.4
		C396.2,144.5,392.9,144.7,387.6,145.7z M407.9,159.7h-8.4c-8.7,0-11.2,3-11.2,7.7c0,4.2,3.1,7.2,9.2,7.2c5.1,0,8.7-2.2,10.5-3.7
		V159.7z"/>
	<path class="st1" d="M424,176.8h-3.5v-34.5h3.5v5.2h0.1c3.7-3.4,8.1-5.9,13.3-5.9c6.9,0,10.3,3.8,10.3,11.2v23.9h-3.4v-23.3
		c0-5-1.9-9-8.3-9c-5,0-9.7,3.2-12.1,5.2V176.8z"/>
</g>
<g>
	<path class="st1" d="M147.2,216.4l-4.7-12.7c9.2-3.6,15.6-5.3,25-5.3c16.7,0,25,9.7,25,22.2c0,14.9-10.8,25.5-27.3,37.1v0.2h28.4
		V272h-51v-15.1c27-16.7,33-25.3,33-33c0-9.7-7.4-10.9-11.7-10.9C159.2,213,154.7,213.6,147.2,216.4z"/>
	<path class="st1" d="M200.5,267.7l4.7-12.3c7.6,3.3,12.9,4.4,19.3,4.4c8.6,0,12.2-5.1,12.2-11.2c0-4.9-2.2-11-10.5-11
		c-3.6,0-7.4,1.3-10.2,4.2l-11.3-1l1.2-41.4h43.5v14.2h-29.6l-0.7,14.4l0.2,0.1c3.3-2.5,8.3-4.2,12.9-4.2c12.7,0,21.5,8.1,21.5,23.8
		c0,16.7-10.6,25.3-28.2,25.3C216.9,273,209.7,271.9,200.5,267.7z"/>
	<path class="st1" d="M264.9,285.8l2.9-13.9c-2.1,0-4.4,0-6.5,0v-16.2h16V272l-7.6,13.9H264.9z"/>
	<path class="st1" d="M283.6,235.2c0-20.7,5.3-36.8,27.6-36.8s27.6,16.1,27.6,36.8c0,20.7-5.3,37.9-27.6,37.9
		S283.6,255.9,283.6,235.2z M300.5,235.2c0,13.9,2.3,24.6,10.7,24.6c8.3,0,10.7-10.8,10.7-24.6c0-13.9-2.3-23.6-10.7-23.6
		C302.9,211.6,300.5,221.3,300.5,235.2z"/>
	<path class="st1" d="M346.5,235.2c0-20.7,5.3-36.8,27.6-36.8c22.3,0,27.6,16.1,27.6,36.8c0,20.7-5.3,37.9-27.6,37.9
		C351.8,273,346.5,255.9,346.5,235.2z M363.4,235.2c0,13.9,2.3,24.6,10.7,24.6s10.7-10.8,10.7-24.6c0-13.9-2.3-23.6-10.7-23.6
		S363.4,221.3,363.4,235.2z"/>
	<path class="st1" d="M409.4,235.2c0-20.7,5.3-36.8,27.6-36.8c22.3,0,27.6,16.1,27.6,36.8c0,20.7-5.3,37.9-27.6,37.9
		C414.7,273,409.4,255.9,409.4,235.2z M426.4,235.2c0,13.9,2.3,24.6,10.7,24.6s10.7-10.8,10.7-24.6c0-13.9-2.3-23.6-10.7-23.6
		S426.4,221.3,426.4,235.2z"/>
</g>
<g>
	<path class="st1" d="M205.3,341.7c-5.9,0-12.4-0.7-16.6-1.7l2.1-9.3c5.9,1.4,10.4,1.7,13.1,1.7c2.4,0,4.1-0.3,4.1-1.6
		c0-1.2-2.1-1.2-4.1-1.5c-8.3-1.4-14.5-4.1-14.5-12.4c0-8.3,5.9-11,14.5-11c5.9,0,11,0.7,15.2,1.7l-2.1,9.3
		c-5.9-1.4-9.7-1.7-12.4-1.7c-2.1,0-3.5,0.2-3.5,1.4c0,1,1.1,1.1,3.8,1.7c5.9,1.4,14.8,2.8,14.8,11.7
		C219.8,338.2,213.9,341.7,205.3,341.7z"/>
	<path class="st1" d="M225.6,314.8h-4.1v-7.6l4.1-0.7l1.4-9.7h10.4v9.7h7.6v8.3h-7.6v14.4c0,2.1,1.4,3.2,4.1,3.2
		c0.7,0,1.7-0.1,2.8-0.3l1,9c-2.1,0.4-5.9,0.7-7.9,0.7c-8.6,0-11.7-3.6-11.7-10.4V314.8z"/>
	<path class="st1" d="M269.2,306.5h11.7V341h-11.7v-4.1H269c-2.6,3.1-6.1,4.8-10.2,4.8c-6.9,0-10.4-4.8-10.4-11.7v-23.5h11.7v20.7
		c0,3.5,1.7,4.8,4.1,4.8c1.7,0,3.5-0.7,4.8-1.4V306.5z"/>
	<path class="st1" d="M306.1,337.5c-0.1,0-0.1,0-0.1,0c-1.9,2.4-5.5,4.1-8.8,4.1c-9.7,0-12.4-8.3-12.4-17.9s3.5-17.9,13.1-17.9
		c3,0,6.2,1.4,8.1,3.8c0.1,0,0.1,0,0.1,0v-16.9h11.7V341h-11.7V337.5z M302,332c2.1,0,3.4-0.8,4.1-1.4v-13.8
		c-0.8-0.6-2.1-1.4-4.1-1.4c-3.8,0-4.8,3.5-4.8,8.3S298.2,332,302,332z"/>
	<path class="st1" d="M334.2,326.5c0.3,3.5,3,5.5,7.6,5.5c2.6,0,5.9,0,10.7-1.4l1.4,9.3c-4.8,1.4-9.3,1.7-13.8,1.7
		c-13.8,0-18.6-6.9-18.6-17.9s4.8-17.9,18.6-17.9c10.1,0,14.1,4.1,15.2,10.3c0.6,3,0.3,6.6-0.1,10.4H334.2z M334.2,319.2h9.3
		c0.1-0.7,0.1-1.3,0-1.9c-0.2-1.7-1.3-2.6-4.1-2.6C336.3,314.8,334.6,316.1,334.2,319.2z"/>
	<path class="st1" d="M370.8,341h-11.7v-34.5h11.7v4.1h0.1c2.6-3.1,6.1-4.8,10.2-4.8c6.9,0,10.3,4.8,10.3,11.7V341h-11.7v-20.7
		c0-3.5-1.4-4.8-4.1-4.8c-1.7,0-3.5,0.7-4.8,1.4V341z"/>
	<path class="st1" d="M398.2,314.8h-4.1v-7.6l4.1-0.7l1.4-9.7h10.4v9.7h7.6v8.3h-7.6v14.4c0,2.1,1.4,3.2,4.1,3.2
		c0.7,0,1.7-0.1,2.8-0.3l1,9c-2.1,0.4-5.9,0.7-7.9,0.7c-8.6,0-11.7-3.6-11.7-10.4V314.8z"/>
</g>
<g>
	<path class="st1" d="M143.8,378.9h0.1c1.9-2.4,5.5-4.1,8.8-4.1c9.7,0,12.4,8.3,12.4,17.9s-3.4,17.9-13.1,17.9c-3,0-6.2-1.4-8.1-3.8
		h-0.1v16.9h-11.7v-48.3h11.7V378.9z M147.9,384.5c-2.1,0-3.4,0.8-4.1,1.4v13.8c0.8,0.6,2.1,1.4,4.1,1.4c3.8,0,4.8-3.5,4.8-8.3
		S151.7,384.5,147.9,384.5z"/>
	<path class="st1" d="M169,361.7h11.7V410H169V361.7z"/>
	<path class="st1" d="M187.7,385.8l-1.7-9.3c5.2-1,10.7-1.7,15.2-1.7c9.3,0,14.5,2.1,14.5,11.7V410H204v-3.5c-0.1,0-0.1,0-0.1,0
		c-2.6,3.1-5.4,4.1-9.5,4.1c-6.9,0-10.4-5.2-10.4-11c0-9.1,9-11,14.5-11h5.5v-1.4c0-2.6-2.1-2.8-5.5-2.8
		C195.6,384.5,192.6,384.8,187.7,385.8z M204,395.5h-4.8c-1.7,0-3.4,0.7-3.4,3.1s2.1,3.1,3.4,3.1c1.7,0,3.8-0.6,4.8-1.4V395.5z"/>
	<path class="st1" d="M237.8,374.8c4.5,0,8.3,0.7,12.4,1.7l-2.1,9.3c-5.9-1.4-7.6-1.4-10.4-1.4c-3.5,0-6.2,2.1-6.2,8.3
		s2.8,8.3,6.2,8.3c2.8,0,4.5,0,10.4-1.4l2.1,9.3c-4.1,1-7.9,1.7-12.4,1.7c-14.1,0-18.6-6.9-18.6-17.9S223.7,374.8,237.8,374.8z"/>
	<path class="st1" d="M264.5,395.5c0.3,3.5,3,5.5,7.6,5.5c2.6,0,5.9,0,10.7-1.4l1.4,9.3c-4.8,1.4-9.3,1.7-13.8,1.7
		c-13.8,0-18.6-6.9-18.6-17.9s4.8-17.9,18.6-17.9c10.1,0,14.1,4.1,15.2,10.3c0.6,3,0.3,6.6-0.1,10.4H264.5z M264.5,388.3h9.3
		c0.1-0.7,0.1-1.3,0-1.9c-0.2-1.7-1.3-2.6-4.1-2.6C266.6,383.8,264.8,385.2,264.5,388.3z"/>
	<path class="st1" d="M301.1,410h-11.7v-34.5h11.7v4.1h0.1c2.6-3.1,6.1-4.8,10.2-4.8c4.5,0,7.5,2.1,9,5.4c3.8-4.3,7.5-5.4,11.7-5.4
		c6.9,0,10.4,4.8,10.4,11.7V410h-11.7v-20.7c0-3.5-1.7-4.8-4.1-4.8c-1.7,0-3.4,0.7-4.8,1.4c0,1.2,0,2.6,0,4V410H310v-21.2
		c-0.2-3.1-1.9-4.3-4.1-4.3c-1.7,0-3.4,0.7-4.8,1.4V410z"/>
	<path class="st1" d="M358.8,395.5c0.3,3.5,3,5.5,7.6,5.5c2.6,0,5.9,0,10.7-1.4l1.4,9.3c-4.8,1.4-9.3,1.7-13.8,1.7
		c-13.8,0-18.6-6.9-18.6-17.9s4.8-17.9,18.6-17.9c10.1,0,14.1,4.1,15.2,10.3c0.6,3,0.3,6.6-0.1,10.4H358.8z M358.8,388.3h9.3
		c0.1-0.7,0.1-1.3,0-1.9c-0.2-1.7-1.3-2.6-4.1-2.6C360.9,383.8,359.2,385.2,358.8,388.3z"/>
	<path class="st1" d="M395.4,410h-11.7v-34.5h11.7v4.1h0.1c2.6-3.1,6.1-4.8,10.2-4.8c6.9,0,10.3,4.8,10.3,11.7V410h-11.7v-20.7
		c0-3.5-1.4-4.8-4.1-4.8c-1.7,0-3.5,0.7-4.8,1.4V410z"/>
	<path class="st1" d="M422.8,383.8h-4.1v-7.6l4.1-0.7l1.4-9.7h10.3v9.7h7.6v8.3h-7.6v14.4c0,2.1,1.4,3.2,4.1,3.2
		c0.7,0,1.7-0.1,2.8-0.3l1,9c-2.1,0.4-5.9,0.7-7.9,0.7c-8.6,0-11.7-3.6-11.7-10.4V383.8z"/>
	<path class="st1" d="M461.4,410.7c-5.9,0-12.4-0.7-16.6-1.7l2.1-9.3c5.9,1.4,10.4,1.7,13.1,1.7c2.4,0,4.1-0.3,4.1-1.6
		c0-1.2-2.1-1.2-4.1-1.5c-8.3-1.4-14.5-4.1-14.5-12.4c0-8.3,5.9-11,14.5-11c5.9,0,11,0.7,15.2,1.7l-2.1,9.3
		c-5.9-1.4-9.7-1.7-12.4-1.7c-2.1,0-3.5,0.2-3.5,1.4c0,1,1.1,1.1,3.8,1.7c5.9,1.4,14.8,2.8,14.8,11.7
		C475.9,407.2,470.1,410.7,461.4,410.7z"/>
</g>
<g>
	<path class="st1" d="M178.9,448l-0.6-2.8c4.4-0.9,8.9-1.3,12.4-1.3c7.7,0,11.9,2.6,11.9,11.2V479h-3.5v-3.5c-0.1,0-0.1,0-0.1,0
		c-3.7,2.8-6.9,4.1-11.6,4.1c-6.9,0-11.4-3.6-11.4-9.7c0-7,5.1-10.3,14.5-10.3h8.6v-4.5c0-5.5-2.3-8.4-9.1-8.4
		C187.5,446.8,184.2,446.9,178.9,448z M199.1,462h-8.4c-8.7,0-11.2,3-11.2,7.7c0,4.2,3.1,7.2,9.2,7.2c5.1,0,8.7-2.2,10.5-3.7V462z"
		/>
	<path class="st1" d="M215.3,479h-3.5v-34.5h3.5v5.5h0.1c3.5-3.1,8.5-6.2,14-6.2v3.3c-5.7,0-11.4,3.2-14.1,5.2V479z"/>
	<path class="st1" d="M240.1,479h-3.5v-34.5h3.5v5.5h0.1c3.5-3.1,8.5-6.2,14-6.2v3.3c-5.7,0-11.4,3.2-14.1,5.2V479z"/>
	<path class="st1" d="M262.7,448l-0.6-2.8c4.4-0.9,8.9-1.3,12.4-1.3c7.7,0,11.9,2.6,11.9,11.2V479h-3.5v-3.5c-0.1,0-0.1,0-0.1,0
		c-3.7,2.8-6.9,4.1-11.6,4.1c-6.9,0-11.4-3.6-11.4-9.7c0-7,5.1-10.3,14.5-10.3h8.6v-4.5c0-5.5-2.3-8.4-9.1-8.4
		C271.2,446.8,267.9,446.9,262.7,448z M282.9,462h-8.4c-8.7,0-11.2,3-11.2,7.7c0,4.2,3.1,7.2,9.2,7.2c5.1,0,8.7-2.2,10.5-3.7V462z"
		/>
	<path class="st1" d="M299.1,479h-3.5v-34.5h3.5v5.2h0.1c3.7-3.4,8.1-5.9,13.3-5.9c6.9,0,10.3,3.8,10.3,11.2V479h-3.5v-23.3
		c0-5-1.9-9-8.3-9c-5,0-9.7,3.2-12.1,5.2V479z"/>
	<path class="st1" d="M335.7,476.1c-2-0.9-2.8-2.7-2.5-4.6c0.2-2.1,1.6-4.5,3.9-6.1v-0.1c-3.5-1.7-5.9-5-5.9-9.7
		c0-7.2,4.9-11.7,13.4-11.7c2,0,3.2,0.3,4.5,0.7h11.5v2.3h-7.8c4,2.3,4.8,6.1,4.8,8.8c0,7.5-5.7,11.2-13,11.2c-1.9,0-4.3-0.4-5.6-1
		c-0.8,0.8-1.4,1.6-1.9,2.5c-1.3,2.6-1,5.5,2.1,5.7l13,0.8c7.2,0.4,9.6,3.3,9.6,7.2c0,7-6,11.5-19.3,11.5c-8.5,0-13.5-2.8-13.5-9
		c0-3.2,2.1-5.9,6.6-8.3V476.1z M343.6,491.1c8.2,0,14.7-2.8,14.7-8.6c0-2.5-1.5-4.7-7.1-5l-13.5-0.7c-3.2,2-5.7,3.8-5.7,7.2
		C332,488,335.1,491.1,343.6,491.1z M354.5,455.5c0-5.5-3.8-9.3-9.8-9.3c-6.8,0-10.1,3.9-10.1,9.3s3.8,8.8,10.1,8.8
		C350.7,464.4,354.5,460.9,354.5,455.5z"/>
	<path class="st1" d="M369.9,462c0.1,8.6,3.4,14.8,13.3,14.8c3.7,0,7.1-0.3,10.8-1.4l0.5,2.8c-4,1.1-7.2,1.4-11.7,1.4
		c-12.2,0-16.6-7.4-16.6-17.9c0-10.5,4.3-17.9,16.1-17.9c10.8,0,13.2,7.2,13.1,12.9c0,1.8-0.2,3.6-0.6,5.2H369.9z M369.9,459.6h21.6
		c0.3-1.4,0.5-3,0.3-4.5c-0.3-4.6-2.8-8.6-9.8-8.6C373.3,446.6,370.4,452.5,369.9,459.6z"/>
	<path class="st1" d="M426.9,475.6c-0.1,0-0.1,0-0.1,0c-2.7,2.4-6.9,4.1-11.4,4.1c-9.7,0-13-7.7-13-17.9c0-10.1,3.4-17.9,13.1-17.9
		c4.4,0,8.6,1.7,11.2,4.1c0.1,0,0.1,0,0.1,0v-17.2h3.5V479h-3.5V475.6z M416.5,476.8c4.7,0,8.6-2.3,10.4-3.7v-22.6
		c-1.7-1.4-5.7-3.7-10.4-3.7c-8.1,0-10.5,7-10.5,15C406,469.7,408.4,476.8,416.5,476.8z"/>
</g>
</svg>
