<!-- Generator: Adobe Illustrator 19.2.1, SVG Export Plug-In  -->
<svg version="1.1"
	 xmlns="http://www.w3.org/2000/svg" xmlns:xlink="http://www.w3.org/1999/xlink" xmlns:a="http://ns.adobe.com/AdobeSVGViewerExtensions/3.0/"
	 x="0px" y="0px" width="1121.7px" height="223.9px" viewBox="0 0 1121.7 223.9" style="enable-background:new 0 0 1121.7 223.9;"
	 xml:space="preserve">
<style type="text/css">
	.st0{clip-path:url(#SVGID_2_);fill:#2DA1B4;}
	.st1{clip-path:url(#SVGID_4_);fill:#2DA1B4;}
</style>
<defs>
</defs>
<g>
	<defs>
		<rect id="SVGID_1_" width="1121.7" height="223.9"/>
	</defs>
	<clipPath id="SVGID_2_">
		<use xlink:href="#SVGID_1_"  style="overflow:visible;"/>
	</clipPath>
	<path class="st0" d="M1121.7,118.3c0-7.9-7.4-9.6-13.9-11c-4.4-1-5.5-1.8-5.5-3.5c0-1.2,1-2.9,5.1-2.9c2.6,0,6.6,0.3,12.2,1.6
		l1.6-7.1c-4.1-1-8.8-1.6-14.3-1.6c-8.2,0-13.5,2.9-13.5,10.2c0,7.7,5.8,10.2,13.5,11.5c4.1,0.8,5.8,1.6,5.8,3.3
		c0,1.2-1.2,3.3-5.6,3.3c-2.6,0-7.3-0.2-12.9-1.6l-1.6,7c4.1,1,10,1.6,15.5,1.6C1116.5,129.3,1121.7,125.8,1121.7,118.3
		 M1088.1,118.3c0-7.9-7.4-9.6-13.9-11c-4.4-1-5.5-1.8-5.5-3.5c0-1.2,1-2.9,5.1-2.9c2.6,0,6.6,0.3,12.2,1.6l1.6-7.1
		c-4.1-1-8.8-1.6-14.3-1.6c-8.2,0-13.5,2.9-13.5,10.2c0,7.7,5.8,10.2,13.5,11.5c4.1,0.8,5.8,1.6,5.8,3.3c0,1.2-1.2,3.3-5.6,3.3
		c-2.6,0-7.3-0.2-12.9-1.6l-1.6,7c4.1,1,10,1.6,15.5,1.6C1082.9,129.3,1088.1,125.8,1088.1,118.3 M1037.9,101.3
		c4.4,0,6.6,1.1,6.6,4.6v2.4h-6.5c-6.7,0-14.3,2.3-14.3,10.6c0,5.9,3.7,10.5,10.5,10.5c4.3,0,7.1-1.1,10.1-4.1h0.1v3.4h8.8v-23.3
		c0-9.2-4.8-11.4-13.4-11.4c-4.1,0-9.2,0.6-14,1.6l1.3,7.1C1032.2,101.5,1035.2,101.3,1037.9,101.3 M1044.5,120.4
		c-1.2,1-3.8,2.1-6.6,2.1c-2.9,0-5.3-1.4-5.3-4.4c0-3.1,2-4.6,6-4.6h5.9V120.4z M1009.2,128.6h8.8V81h-8.8V128.6z M974.8,111.6
		c0,10.7,4.4,17.7,17.5,17.7c4.4,0,7.8-0.6,11.9-1.6l-1.6-7c-5.6,1.4-7.8,1.4-10.3,1.4c-5.3,0-8.2-3.6-8.2-10.4
		c0-6.8,2.9-10.3,8.2-10.3c2.5,0,4.7,0,10.3,1.4l1.6-7.1c-4.1-1-7.5-1.6-11.9-1.6C979.2,93.9,974.8,100.9,974.8,111.6 M940.5,114.3
		h28.2v-7.3h-28.2V114.3z M912.1,111.6c0-5.8,1.4-10.3,6.6-10.3c2.9,0,5.1,1.3,6.1,2.1v16.5c-1,0.9-3.2,2.2-6.1,2.2
		C913.6,122,912.1,117.4,912.1,111.6 M924.9,128.6h8.8V81h-8.8v16.7h-0.1c-2.1-2.4-5.6-3.8-9-3.8c-9.5,0-12.9,8-12.9,17.7
		c0,9.7,2.9,17.7,12.4,17.7c3.7,0,7.4-1.7,9.5-4.1h0.1V128.6z M887.8,128.6h8.8V81h-8.8V128.6z M870.5,104.9
		c2.7-1.4,7.3-2.6,11.9-2.6v-8.4c-5.4,0-9.6,3.1-11.8,6.1h-0.1v-5.4h-8.8v34h8.8V104.9z M839,129.3c12,0,16.5-6.9,16.5-17.7
		c0-10.7-4.5-17.7-16.5-17.7c-12,0-16.5,7-16.5,17.7C822.5,122.3,827.1,129.3,839,129.3 M839,101.3c5.6,0,7.1,4.1,7.1,10.3
		c0,6.3-1.6,10.4-7.1,10.4c-5.6,0-7.1-4.1-7.1-10.4C831.9,105.3,833.5,101.3,839,101.3 M795.6,108.1l5.4,20.8h9.9l9.9-34.3h-9.4
		l-5.6,24.6h-0.1l-5.6-24.6h-8.6l-5.2,24.6h-0.1l-5.9-24.6h-9.9l9.9,34.3h9.9l5.2-20.8H795.6z M723.4,127.1c-3.7,1.8-5.3,4-5.3,6.9
		c0,6.1,4.6,8.8,14.6,8.8c13.9,0,20.4-3.7,20.4-12.4c0-5.4-3.5-8-10.4-8.5l-11.6-0.8c-2.2-0.1-2.3-1.9-1.7-3.5c0.3-0.5,0.5-1,1-1.5
		c0.6,0.2,2.2,0.7,4.4,0.7c8.1,0,14-3.5,14-11.4c0-2.2-0.7-4.2-2-5.6h5.4v-5.3h-12.6c-1.4-0.4-3.1-0.7-4.9-0.7
		c-8.7,0-14.3,3.7-14.3,11.6c0,4.3,2.1,7.8,5.5,9.5v0.1c-3.5,1.8-5.2,4.6-5.2,7.1c-0.1,1.8,0.8,3.6,2.7,4.7V127.1z M734.7,111.1
		c-3.7,0-6.1-1.8-6.1-5.6s2.2-5.8,6.1-5.8c3.5,0,5.9,2,5.9,5.8S738.3,111.1,734.7,111.1 M725.3,132.5c0-2.1,1-3,2.3-4.2l11.9,0.7
		c3,0.2,4.1,1.6,4.1,3.1c0,3.5-4.7,5-9.6,5C729.4,137.1,725.3,136.1,725.3,132.5 M692.5,103.8c1.7-1.1,4.4-2.6,7.1-2.6
		c3.9,0,5.4,2.2,5.4,6.1v21.2h8.8v-23.3c0-7-3.4-11.4-10.2-11.4c-4.4,0-8.2,2-11.1,5.1h-0.1v-4.4h-8.8v34h8.8V103.8z M668,91.7h8.8
		v-9.4H668V91.7z M668,128.6h8.8v-34H668V128.6z M650.7,104.9c2.7-1.4,7.3-2.6,11.9-2.6v-8.4c-5.4,0-9.6,3.1-11.8,6.1h-0.1v-5.4
		h-8.8v34h8.8V104.9z M626.2,91.7h8.8v-9.4h-8.8V91.7z M626.2,128.6h8.8v-34h-8.8V128.6z M610.8,111.6c0,5.8-1.4,10.4-6.7,10.4
		c-2.9,0-5-1.3-6.1-2.2v-16.5c1.1-0.8,3.3-2.1,6.1-2.1C609.3,101.3,610.8,105.8,610.8,111.6 M598,94.6h-8.8v47.6h8.8v-16.7h0.1
		c2.2,2.4,5.6,3.8,9,3.8c9.5,0,12.9-8,12.9-17.7c0-9.7-2.9-17.7-12.4-17.7c-3.7,0-7.4,1.7-9.6,4.1H598V94.6z M583.4,118.3
		c0-7.9-7.4-9.6-13.9-11c-4.4-1-5.5-1.8-5.5-3.5c0-1.2,1-2.9,5.1-2.9c2.6,0,6.6,0.3,12.2,1.6l1.6-7.1c-4.1-1-8.8-1.6-14.3-1.6
		c-8.2,0-13.5,2.9-13.5,10.2c0,7.7,5.8,10.2,13.5,11.5c4.1,0.8,5.8,1.6,5.8,3.3c0,1.2-1.2,3.3-5.6,3.3c-2.6,0-7.3-0.2-12.9-1.6
		l-1.6,7c4.1,1,10,1.6,15.5,1.6C578.2,129.3,583.4,125.8,583.4,118.3 M527.3,103.8c1.7-1.1,4.4-2.6,7.1-2.6c3.9,0,5.4,2.2,5.4,6.1
		v21.2h8.8v-23.3c0-7-3.4-11.4-10.2-11.4c-4.4,0-8.2,2-11.1,5.1h-0.1v-4.4h-8.8v34h8.8V103.8z M502.8,91.7h8.8v-9.4h-8.8V91.7z
		 M502.8,128.6h8.8v-34h-8.8V128.6z M478.5,137.4l4.2-8.8v-9.9h-8.8v9.9h3.6l-1.7,8.8H478.5z M473.9,107.2h8.8v-9.9h-8.8V107.2z
		 M425.3,103.8c1.7-1.1,4-2.6,6.7-2.6c3.5,0,5.3,2.1,5.4,5.7v21.6h8.8v-20.8c0-1.4-0.1-2.7-0.1-3.9c1.7-1.2,4.1-2.7,6.7-2.7
		c3.7,0,5.4,2.2,5.4,6.1v21.2h8.8v-23.3c0-7-3.4-11.4-10.2-11.4c-4.4,0-8.3,1.8-11.8,5.6c-1.4-3.6-4.5-5.6-9.1-5.6
		c-4.4,0-7.9,2.1-10.6,5.1h-0.1v-4.4h-8.8v34h8.8V103.8z M410.6,118.3c0-7.9-7.4-9.6-13.9-11c-4.4-1-5.5-1.8-5.5-3.5
		c0-1.2,1-2.9,5.1-2.9c2.6,0,6.6,0.3,12.2,1.6l1.6-7.1c-4.1-1-8.8-1.6-14.3-1.6c-8.2,0-13.5,2.9-13.5,10.2c0,7.7,5.8,10.2,13.5,11.5
		c4.1,0.8,5.8,1.6,5.8,3.3c0,1.2-1.2,3.3-5.6,3.3c-2.6,0-7.3-0.2-12.9-1.6l-1.6,7c4.1,1,10,1.6,15.5,1.6
		C405.5,129.3,410.6,125.8,410.6,118.3 M367.1,91.7h8.8v-9.4h-8.8V91.7z M367.1,128.6h8.8v-34h-8.8V128.6z M351.5,128.6h8.8V81h-8.8
		V128.6z M329.3,101.3c4.4,0,6.6,1.1,6.6,4.6v2.4h-6.5c-6.7,0-14.3,2.3-14.3,10.6c0,5.9,3.7,10.5,10.5,10.5c4.3,0,7.1-1.1,10.1-4.1
		h0.1v3.4h8.8v-23.3c0-9.2-4.8-11.4-13.4-11.4c-4.1,0-9.2,0.6-14,1.6l1.3,7.1C323.5,101.5,326.5,101.3,329.3,101.3 M335.8,120.4
		c-1.2,1-3.8,2.1-6.6,2.1c-2.9,0-5.3-1.4-5.3-4.4c0-3.1,2-4.6,6-4.6h5.9V120.4z M287.9,103.8c1.7-1.1,4.4-2.6,7.1-2.6
		c3.9,0,5.4,2.2,5.4,6.1v21.2h8.8v-23.3c0-7-3.4-11.4-10.2-11.4c-4.4,0-8.2,2-11.1,5.1h-0.1v-4.4h-8.8v34h8.8V103.8z M256.5,129.3
		c12,0,16.5-6.9,16.5-17.7c0-10.7-4.5-17.7-16.5-17.7c-12,0-16.5,7-16.5,17.7C240,122.3,244.5,129.3,256.5,129.3 M256.5,101.3
		c5.6,0,7.1,4.1,7.1,10.3c0,6.3-1.6,10.4-7.1,10.4s-7.1-4.1-7.1-10.4C249.4,105.3,250.9,101.3,256.5,101.3 M225,91.7h8.8v-9.4H225
		V91.7z M225,128.6h8.8v-34H225V128.6z M219.2,118.3c0-7.9-7.4-9.6-13.9-11c-4.4-1-5.5-1.8-5.5-3.5c0-1.2,1-2.9,5.1-2.9
		c2.6,0,6.6,0.3,12.2,1.6l1.6-7.1c-4.1-1-8.8-1.6-14.3-1.6c-8.2,0-13.5,2.9-13.5,10.2c0,7.7,5.8,10.2,13.5,11.5
		c4.1,0.8,5.8,1.6,5.8,3.3c0,1.2-1.2,3.3-5.6,3.3c-2.6,0-7.3-0.2-12.9-1.6l-1.6,7c4.1,1,10,1.6,15.5,1.6
		C214.1,129.3,219.2,125.8,219.2,118.3 M185.6,118.3c0-7.9-7.4-9.6-13.9-11c-4.4-1-5.5-1.8-5.5-3.5c0-1.2,1-2.9,5.1-2.9
		c2.6,0,6.6,0.3,12.2,1.6l1.6-7.1c-4.1-1-8.8-1.6-14.3-1.6c-8.2,0-13.5,2.9-13.5,10.2c0,7.7,5.8,10.2,13.5,11.5
		c4.1,0.8,5.8,1.6,5.8,3.3c0,1.2-1.2,3.3-5.6,3.3c-2.6,0-7.3-0.2-12.9-1.6l-1.6,7c4.1,1,10,1.6,15.5,1.6
		C180.4,129.3,185.6,125.8,185.6,118.3 M137,100.7c4.1,0,5.7,2,6,4.6c0.1,0.8,0,1.8-0.1,2.7h-13.2
		C129.9,103.6,132.1,100.7,137,100.7 M151.5,113.5c0.4-3.1,0.6-6,0.3-8.6c-0.7-5.9-4.1-11-14.3-11c-12.9,0-17.5,7-17.5,17.7
		c0,10.7,4.6,17.7,17.7,17.7c4.4,0,8.4-0.3,12.9-1.6l-1-7c-4.4,1.2-7.7,1.4-10.6,1.4c-6.3,0-9.1-3.4-9.3-8.5H151.5z M110.4,91.7
		c0-2.9,1-3.7,3.9-3.7c0.8,0,1.8,0.1,3.1,0.3l0.7-6.8c-1.9-0.3-4.1-0.6-5.9-0.6c-8.5,0-10.7,3.5-10.7,10.1v3.5L97,95.1v5.8h4.6v27.7
		h8.8v-27.7h7.1v-6.3h-7.1V91.7z M76.2,129.3c12,0,16.5-6.9,16.5-17.7c0-10.7-4.5-17.7-16.5-17.7s-16.5,7-16.5,17.7
		C59.7,122.3,64.3,129.3,76.2,129.3 M76.2,101.3c5.6,0,7.1,4.1,7.1,10.3c0,6.3-1.6,10.4-7.1,10.4s-7.1-4.1-7.1-10.4
		C69.1,105.3,70.7,101.3,76.2,101.3 M45.9,104.9c2.7-1.4,7.3-2.6,11.9-2.6v-8.4c-5.4,0-9.6,3.1-11.8,6.1h-0.1v-5.4h-8.8v34h8.8
		V104.9z M21.6,111.6c0,5.8-1.4,10.4-6.7,10.4c-2.9,0-5-1.3-6.1-2.2v-16.5c1.1-0.8,3.3-2.1,6.1-2.1
		C20.2,101.3,21.6,105.8,21.6,111.6 M8.8,94.6H0v47.6h8.8v-16.7H9c2.2,2.4,5.6,3.8,9,3.8c9.5,0,12.9-8,12.9-17.7
		c0-9.7-2.9-17.7-12.4-17.7c-3.7,0-7.4,1.7-9.6,4.1H8.8V94.6z"/>
	<path class="st0" d="M874,209.6h8.8v-9.9H874V209.6z M839,208.1c-3.7,1.8-5.3,4-5.3,6.9c0,6.1,4.6,8.8,14.6,8.8
		c13.9,0,20.4-3.7,20.4-12.4c0-5.4-3.5-8-10.4-8.5l-11.6-0.8c-2.2-0.1-2.3-1.9-1.7-3.5c0.3-0.5,0.5-1,1-1.5c0.6,0.2,2.2,0.7,4.4,0.7
		c8.1,0,14-3.5,14-11.4c0-2.2-0.7-4.2-2-5.6h5.4v-5.3h-12.6c-1.4-0.4-3.1-0.7-4.9-0.7c-8.7,0-14.3,3.7-14.3,11.6
		c0,4.3,2.1,7.8,5.5,9.5v0.1c-3.5,1.8-5.2,4.6-5.2,7.1c-0.1,1.8,0.8,3.6,2.7,4.7V208.1z M850.4,192.1c-3.7,0-6.1-1.8-6.1-5.6
		c0-3.8,2.2-5.8,6.1-5.8c3.5,0,5.9,2,5.9,5.8C856.3,190.3,853.9,192.1,850.4,192.1 M841,213.5c0-2.1,1-3,2.3-4.2l11.9,0.7
		c3,0.2,4.1,1.6,4.1,3.1c0,3.5-4.7,5-9.6,5C845.1,218.1,841,217.1,841,213.5 M808.1,184.8c1.7-1.1,4.4-2.6,7.1-2.6
		c3.9,0,5.4,2.2,5.4,6.1v21.2h8.8v-23.3c0-7-3.4-11.4-10.2-11.4c-4.4,0-8.2,2-11.1,5.1h-0.1v-4.4h-8.8v34h8.8V184.8z M783.7,172.7
		h8.8v-9.4h-8.8V172.7z M783.7,209.6h8.8v-34h-8.8V209.6z M755.4,184.8c1.7-1.1,4.4-2.6,7.1-2.6c3.9,0,5.4,2.2,5.4,6.1v21.2h8.8
		v-23.3c0-7-3.4-11.4-10.2-11.4c-4.4,0-8.2,2-11.1,5.1h-0.1v-18h-8.8v47.6h8.8V184.8z M712.3,192.6c0,10.7,4.4,17.7,17.5,17.7
		c4.4,0,7.8-0.6,11.9-1.6l-1.6-7c-5.6,1.4-7.8,1.4-10.3,1.4c-5.3,0-8.2-3.6-8.2-10.4s2.9-10.3,8.2-10.3c2.5,0,4.7,0,10.3,1.4
		l1.6-7.1c-4.1-1-7.5-1.6-11.9-1.6C716.6,174.9,712.3,181.9,712.3,192.6 M690.7,182.3c4.4,0,6.6,1.1,6.6,4.6v2.4h-6.5
		c-6.7,0-14.3,2.3-14.3,10.6c0,5.9,3.7,10.5,10.5,10.5c4.3,0,7.1-1.1,10.1-4.1h0.1v3.4h8.8v-23.3c0-9.2-4.8-11.4-13.4-11.4
		c-4.1,0-9.2,0.6-14,1.6l1.3,7.1C684.9,182.5,688,182.3,690.7,182.3 M697.3,201.4c-1.2,1-3.8,2.1-6.6,2.1c-2.9,0-5.3-1.4-5.3-4.4
		c0-3.1,2-4.6,6-4.6h5.9V201.4z M656.8,181.7c4.1,0,5.7,2,6,4.6c0.1,0.8,0,1.8-0.1,2.7h-13.2C649.8,184.6,651.9,181.7,656.8,181.7
		 M671.4,194.5c0.4-3.1,0.6-6,0.3-8.6c-0.7-5.9-4.1-11-14.3-11c-12.9,0-17.5,7-17.5,17.7c0,10.7,4.6,17.7,17.7,17.7
		c4.4,0,8.4-0.3,12.9-1.6l-1-7c-4.4,1.2-7.7,1.4-10.6,1.4c-6.3,0-9.1-3.4-9.3-8.5H671.4z M619.2,199.9c0,7.2,3,10.4,10.7,10.4
		c1.8,0,5-0.2,6.9-0.6l-0.7-6.8c-1.3,0.3-2.3,0.3-3.1,0.3c-3.6,0-5-1.7-5-4.9v-16.4h8.5v-6.3h-8.5v-9.5h-7.8l-1.1,9.5l-4.6,0.5v5.8
		h4.6V199.9z M574.9,192.6c0-5.8,1.4-10.3,6.6-10.3c2.9,0,5.1,1.3,6.1,2.1v16.5c-1,0.9-3.2,2.2-6.1,2.2
		C576.3,203,574.9,198.4,574.9,192.6 M587.6,209.6h8.8V162h-8.8v16.7h-0.1c-2.1-2.4-5.6-3.8-9-3.8c-9.5,0-12.9,8-12.9,17.7
		c0,9.7,2.9,17.7,12.4,17.7c3.7,0,7.4-1.7,9.5-4.1h0.1V209.6z M538,184.8c1.7-1.1,4.4-2.6,7.1-2.6c3.9,0,5.4,2.2,5.4,6.1v21.2h8.8
		v-23.3c0-7-3.4-11.4-10.2-11.4c-4.4,0-8.2,2-11.1,5.1H538v-4.4h-8.8v34h8.8V184.8z M506.9,182.3c4.4,0,6.6,1.1,6.6,4.6v2.4H507
		c-6.7,0-14.3,2.3-14.3,10.6c0,5.9,3.7,10.5,10.5,10.5c4.3,0,7.1-1.1,10.1-4.1h0.1v3.4h8.8v-23.3c0-9.2-4.8-11.4-13.4-11.4
		c-4.1,0-9.2,0.6-14,1.6l1.3,7.1C501.1,182.5,504.2,182.3,506.9,182.3 M513.5,201.4c-1.2,1-3.8,2.1-6.6,2.1c-2.9,0-5.3-1.4-5.3-4.4
		c0-3.1,2-4.6,6-4.6h5.9V201.4z M445.6,208.1c-3.7,1.8-5.3,4-5.3,6.9c0,6.1,4.6,8.8,14.6,8.8c13.9,0,20.4-3.7,20.4-12.4
		c0-5.4-3.5-8-10.4-8.5l-11.6-0.8c-2.2-0.1-2.3-1.9-1.7-3.5c0.3-0.5,0.5-1,1-1.5c0.6,0.2,2.2,0.7,4.4,0.7c8.1,0,14-3.5,14-11.4
		c0-2.2-0.7-4.2-2-5.6h5.4v-5.3h-12.6c-1.4-0.4-3.1-0.7-4.9-0.7c-8.7,0-14.3,3.7-14.3,11.6c0,4.3,2.1,7.8,5.5,9.5v0.1
		c-3.5,1.8-5.2,4.6-5.2,7.1c-0.1,1.8,0.8,3.6,2.7,4.7V208.1z M456.9,192.1c-3.7,0-6.1-1.8-6.1-5.6c0-3.8,2.2-5.8,6.1-5.8
		c3.5,0,5.9,2,5.9,5.8C462.8,190.3,460.5,192.1,456.9,192.1 M447.5,213.5c0-2.1,1-3,2.3-4.2l11.9,0.7c3,0.2,4.1,1.6,4.1,3.1
		c0,3.5-4.7,5-9.6,5C451.6,218.1,447.5,217.1,447.5,213.5 M414.7,184.8c1.7-1.1,4.4-2.6,7.1-2.6c3.9,0,5.4,2.2,5.4,6.1v21.2h8.8
		v-23.3c0-7-3.4-11.4-10.2-11.4c-4.4,0-8.2,2-11.1,5.1h-0.1v-4.4h-8.8v34h8.8V184.8z M390.2,172.7h8.8v-9.4h-8.8V172.7z
		 M390.2,209.6h8.8v-34h-8.8V209.6z M362,184.8c1.7-1.1,4.4-2.6,7.1-2.6c3.9,0,5.4,2.2,5.4,6.1v21.2h8.8v-23.3
		c0-7-3.4-11.4-10.2-11.4c-4.4,0-8.2,2-11.1,5.1H362v-4.4h-8.8v34h8.8V184.8z M335.8,185.9c2.7-1.4,7.3-2.6,11.9-2.6v-8.4
		c-5.4,0-9.6,3.1-11.8,6.1h-0.1v-5.4H327v34h8.8V185.9z M304.7,182.3c4.4,0,6.6,1.1,6.6,4.6v2.4h-6.5c-6.7,0-14.3,2.3-14.3,10.6
		c0,5.9,3.7,10.5,10.5,10.5c4.3,0,7.1-1.1,10.1-4.1h0.1v3.4h8.8v-23.3c0-9.2-4.8-11.4-13.4-11.4c-4.1,0-9.2,0.6-14,1.6l1.3,7.1
		C299,182.5,302,182.3,304.7,182.3 M311.3,201.4c-1.2,1-3.8,2.1-6.6,2.1c-2.9,0-5.3-1.4-5.3-4.4c0-3.1,2-4.6,6-4.6h5.9V201.4z
		 M270.9,181.7c4.1,0,5.7,2,6,4.6c0.1,0.8,0,1.8-0.1,2.7h-13.2C263.9,184.6,266,181.7,270.9,181.7 M285.4,194.5
		c0.4-3.1,0.6-6,0.3-8.6c-0.7-5.9-4.1-11-14.3-11c-12.9,0-17.5,7-17.5,17.7c0,10.7,4.6,17.7,17.7,17.7c4.4,0,8.4-0.3,12.9-1.6l-1-7
		c-4.4,1.2-7.7,1.4-10.6,1.4c-6.3,0-9.1-3.4-9.3-8.5H285.4z M238.9,209.6h8.8V162h-8.8V209.6z"/>
	<path class="st0" d="M1084.2,47.6h8.8V0h-8.8V47.6z M1062,20.3c4.4,0,6.6,1.1,6.6,4.6v2.4h-6.5c-6.7,0-14.3,2.3-14.3,10.6
		c0,5.9,3.7,10.5,10.5,10.5c4.3,0,7.1-1.1,10.1-4.1h0.1v3.4h8.8V24.3c0-9.2-4.8-11.4-13.4-11.4c-4.1,0-9.2,0.6-14,1.6l1.3,7.1
		C1056.2,20.5,1059.3,20.3,1062,20.3 M1068.6,39.4c-1.2,1-3.8,2.1-6.6,2.1c-2.9,0-5.3-1.4-5.3-4.4c0-3.1,2-4.6,6-4.6h5.9V39.4z
		 M1020.6,22.8c1.7-1.1,4.4-2.6,7.1-2.6c3.9,0,5.4,2.2,5.4,6.1v21.2h8.8V24.3c0-7-3.4-11.4-10.2-11.4c-4.4,0-8.2,2-11.1,5.1h-0.1
		v-4.4h-8.8v34h8.8V22.8z M989.2,48.3c12,0,16.5-6.9,16.5-17.7c0-10.7-4.5-17.7-16.5-17.7c-12,0-16.5,7-16.5,17.7
		C972.7,41.3,977.3,48.3,989.2,48.3 M989.2,20.3c5.6,0,7.1,4.1,7.1,10.3c0,6.3-1.6,10.4-7.1,10.4s-7.1-4.1-7.1-10.4
		C982.1,24.3,983.6,20.3,989.2,20.3 M957.7,10.7h8.8V1.4h-8.8V10.7z M957.7,47.6h8.8v-34h-8.8V47.6z M933.9,37.9
		c0,7.2,3,10.4,10.7,10.4c1.8,0,5-0.2,6.9-0.6l-0.7-6.8c-1.3,0.3-2.3,0.3-3.1,0.3c-3.6,0-5-1.7-5-4.9V19.9h8.5v-6.3h-8.5V4.1H935
		l-1.1,9.5l-4.6,0.5v5.8h4.6V37.9z M909,20.3c4.4,0,6.6,1.1,6.6,4.6v2.4h-6.5c-6.7,0-14.3,2.3-14.3,10.6c0,5.9,3.7,10.5,10.5,10.5
		c4.3,0,7.1-1.1,10.1-4.1h0.1v3.4h8.8V24.3c0-9.2-4.8-11.4-13.4-11.4c-4.1,0-9.2,0.6-14,1.6l1.3,7.1C903.2,20.5,906.3,20.3,909,20.3
		 M915.6,39.4c-1.2,1-3.8,2.1-6.6,2.1c-2.9,0-5.3-1.4-5.3-4.4c0-3.1,2-4.6,6-4.6h5.9V39.4z M862.5,30.6c0,10.7,4.4,17.7,17.5,17.7
		c4.4,0,7.8-0.6,11.9-1.6l-1.6-7c-5.6,1.4-7.8,1.4-10.3,1.4c-5.3,0-8.2-3.6-8.2-10.4c0-6.8,2.9-10.3,8.2-10.3c2.5,0,4.7,0,10.3,1.4
		l1.6-7.1c-4.1-1-7.5-1.6-11.9-1.6C866.9,12.9,862.5,19.9,862.5,30.6 M847.6,38.4c-1.7,1.1-4.3,2.7-7.1,2.7c-3.6,0-5.4-2.2-5.4-6.1
		V13.6h-8.8v23.3c0,6.9,3.4,11.4,10.2,11.4c4.4,0,8.2-2,11.1-5.1h0.1v4.4h8.8v-34h-8.8V38.4z M797.8,30.6c0-5.8,1.4-10.3,6.6-10.3
		c2.9,0,5.1,1.3,6.1,2.1v16.5c-1,0.9-3.2,2.2-6.1,2.2C799.2,41,797.8,36.4,797.8,30.6 M810.5,47.6h8.8V0h-8.8v16.7h-0.1
		c-2.1-2.4-5.6-3.8-9-3.8c-9.5,0-12.9,8-12.9,17.7c0,9.7,2.9,17.7,12.4,17.7c3.7,0,7.4-1.7,9.5-4.1h0.1V47.6z M768.4,19.7
		c4.1,0,5.7,2,6,4.6c0.1,0.8,0,1.8-0.1,2.7H761C761.4,22.6,763.5,19.7,768.4,19.7 M782.9,32.5c0.4-3.1,0.6-6,0.3-8.6
		c-0.7-5.9-4.1-11-14.3-11c-12.9,0-17.5,7-17.5,17.7c0,10.7,4.6,17.7,17.7,17.7c4.4,0,8.4-0.3,12.9-1.6l-1-7
		c-4.4,1.2-7.7,1.4-10.6,1.4c-6.3,0-9.1-3.4-9.3-8.5H782.9z M703.8,46.1c-3.7,1.8-5.3,4-5.3,6.9c0,6.1,4.6,8.8,14.6,8.8
		c13.9,0,20.4-3.7,20.4-12.4c0-5.4-3.5-8-10.4-8.5l-11.6-0.8c-2.2-0.1-2.3-1.9-1.7-3.5c0.3-0.5,0.5-1,1-1.5c0.6,0.2,2.2,0.7,4.4,0.7
		c8.1,0,14-3.5,14-11.4c0-2.2-0.7-4.2-2-5.6h5.4v-5.3h-12.6c-1.4-0.4-3.1-0.7-4.9-0.7c-8.7,0-14.3,3.7-14.3,11.6
		c0,4.3,2.1,7.8,5.5,9.5v0.1c-3.5,1.8-5.2,4.6-5.2,7.1c-0.1,1.8,0.8,3.6,2.7,4.7V46.1z M715.2,30.1c-3.7,0-6.1-1.8-6.1-5.6
		s2.2-5.8,6.1-5.8c3.5,0,5.9,2,5.9,5.8S718.7,30.1,715.2,30.1 M705.8,51.5c0-2.1,1-3,2.3-4.2L720,48c3,0.2,4.1,1.6,4.1,3.1
		c0,3.5-4.7,5-9.6,5C709.9,56.1,705.8,55.1,705.8,51.5 M673,22.8c1.7-1.1,4.4-2.6,7.1-2.6c3.9,0,5.4,2.2,5.4,6.1v21.2h8.8V24.3
		c0-7-3.4-11.4-10.2-11.4c-4.4,0-8.2,2-11.1,5.1H673v-4.4h-8.8v34h8.8V22.8z M648.5,10.7h8.8V1.4h-8.8V10.7z M648.5,47.6h8.8v-34
		h-8.8V47.6z M614.1,30.6c0,10.7,4.4,17.7,17.5,17.7c4.4,0,7.8-0.6,11.9-1.6l-1.6-7c-5.6,1.4-7.8,1.4-10.3,1.4
		c-5.3,0-8.2-3.6-8.2-10.4c0-6.8,2.9-10.3,8.2-10.3c2.5,0,4.7,0,10.3,1.4l1.6-7.1c-4.1-1-7.5-1.6-11.9-1.6
		C618.5,12.9,614.1,19.9,614.1,30.6 M586.6,22.8c1.7-1.1,4.4-2.6,7.1-2.6c3.9,0,5.4,2.2,5.4,6.1v21.2h8.8V24.3
		c0-7-3.4-11.4-10.2-11.4c-4.4,0-8.2,2-11.1,5.1h-0.1v-4.4h-8.8v34h8.8V22.8z M555.5,20.3c4.4,0,6.6,1.1,6.6,4.6v2.4h-6.5
		c-6.7,0-14.3,2.3-14.3,10.6c0,5.9,3.7,10.5,10.5,10.5c4.3,0,7.1-1.1,10.1-4.1h0.1v3.4h8.8V24.3c0-9.2-4.8-11.4-13.4-11.4
		c-4.1,0-9.2,0.6-14,1.6l1.3,7.1C549.7,20.5,552.8,20.3,555.5,20.3 M562.1,39.4c-1.2,1-3.8,2.1-6.6,2.1c-2.9,0-5.3-1.4-5.3-4.4
		c0-3.1,2-4.6,6-4.6h5.9V39.4z M514.2,22.8c1.7-1.1,4.4-2.6,7.1-2.6c3.9,0,5.4,2.2,5.4,6.1v21.2h8.8V24.3c0-7-3.4-11.4-10.2-11.4
		c-4.4,0-8.2,2-11.1,5.1h-0.1V0h-8.8v47.6h8.8V22.8z M477.1,22.8c1.7-1.1,4.4-2.6,7.1-2.6c3.9,0,5.4,2.2,5.4,6.1v21.2h8.8V24.3
		c0-7-3.4-11.4-10.2-11.4c-4.4,0-8.2,2-11.1,5.1h-0.1v-4.4h-8.8v34h8.8V22.8z M447.5,19.7c4.1,0,5.7,2,6,4.6c0.1,0.8,0,1.8-0.1,2.7
		h-13.2C440.5,22.6,442.6,19.7,447.5,19.7 M462.1,32.5c0.4-3.1,0.6-6,0.3-8.6c-0.7-5.9-4.1-11-14.3-11c-12.9,0-17.5,7-17.5,17.7
		c0,10.7,4.6,17.7,17.7,17.7c4.4,0,8.4-0.3,12.9-1.6l-1-7c-4.4,1.2-7.7,1.4-10.6,1.4c-6.3,0-9.1-3.4-9.3-8.5H462.1z M389.6,30.6
		c0-5.8,1.4-10.3,6.6-10.3c2.9,0,5.1,1.3,6.1,2.1v16.5c-1,0.9-3.2,2.2-6.1,2.2C391,41,389.6,36.4,389.6,30.6 M402.3,47.6h8.8V0h-8.8
		v16.7h-0.1c-2.1-2.4-5.6-3.8-9-3.8c-9.5,0-12.9,8-12.9,17.7c0,9.7,2.9,17.7,12.4,17.7c3.7,0,7.4-1.7,9.5-4.1h0.1V47.6z M352.7,22.8
		c1.7-1.1,4.4-2.6,7.1-2.6c3.9,0,5.4,2.2,5.4,6.1v21.2h8.8V24.3c0-7-3.4-11.4-10.2-11.4c-4.4,0-8.2,2-11.1,5.1h-0.1v-4.4h-8.8v34
		h8.8V22.8z M321.6,20.3c4.4,0,6.6,1.1,6.6,4.6v2.4h-6.5c-6.7,0-14.3,2.3-14.3,10.6c0,5.9,3.7,10.5,10.5,10.5
		c4.3,0,7.1-1.1,10.1-4.1h0.1v3.4h8.8V24.3c0-9.2-4.8-11.4-13.4-11.4c-4.1,0-9.2,0.6-14,1.6l1.3,7.1
		C315.8,20.5,318.9,20.3,321.6,20.3 M328.2,39.4c-1.2,1-3.8,2.1-6.6,2.1c-2.9,0-5.3-1.4-5.3-4.4c0-3.1,2-4.6,6-4.6h5.9V39.4z
		 M260.3,46.1c-3.7,1.8-5.3,4-5.3,6.9c0,6.1,4.6,8.8,14.6,8.8c13.9,0,20.4-3.7,20.4-12.4c0-5.4-3.5-8-10.4-8.5L268,40.2
		c-2.2-0.1-2.3-1.9-1.7-3.5c0.3-0.5,0.5-1,1-1.5c0.6,0.2,2.2,0.7,4.4,0.7c8.1,0,14-3.5,14-11.4c0-2.2-0.7-4.2-2-5.6h5.4v-5.3h-12.6
		c-1.4-0.4-3.1-0.7-4.9-0.7c-8.7,0-14.3,3.7-14.3,11.6c0,4.3,2.1,7.8,5.5,9.5v0.1c-3.5,1.8-5.2,4.6-5.2,7.1
		c-0.1,1.8,0.8,3.6,2.7,4.7V46.1z M271.6,30.1c-3.7,0-6.1-1.8-6.1-5.6s2.2-5.8,6.1-5.8c3.5,0,5.9,2,5.9,5.8S275.2,30.1,271.6,30.1
		 M262.2,51.5c0-2.1,1-3,2.3-4.2l11.9,0.7c3,0.2,4.1,1.6,4.1,3.1c0,3.5-4.7,5-9.6,5C266.3,56.1,262.2,55.1,262.2,51.5 M229.4,22.8
		c1.7-1.1,4.4-2.6,7.1-2.6c3.9,0,5.4,2.2,5.4,6.1v21.2h8.8V24.3c0-7-3.4-11.4-10.2-11.4c-4.4,0-8.2,2-11.1,5.1h-0.1v-4.4h-8.8v34
		h8.8V22.8z M204.9,10.7h8.8V1.4h-8.8V10.7z M204.9,47.6h8.8v-34h-8.8V47.6z M187.6,23.9c2.7-1.4,7.3-2.6,11.9-2.6v-8.4
		c-5.4,0-9.6,3.1-11.8,6.1h-0.1v-5.4h-8.8v34h8.8V23.9z M163.1,38.4c-1.7,1.1-4.3,2.7-7.1,2.7c-3.6,0-5.4-2.2-5.4-6.1V13.6h-8.8
		v23.3c0,6.9,3.4,11.4,10.2,11.4c4.4,0,8.2-2,11.1-5.1h0.1v4.4h8.8v-34h-8.8V38.4z M135.9,37.3c0-7.9-7.4-9.6-13.9-11
		c-4.4-1-5.5-1.8-5.5-3.5c0-1.2,1-2.9,5.1-2.9c2.6,0,6.6,0.3,12.2,1.6l1.6-7.1c-4.1-1-8.8-1.6-14.3-1.6c-8.2,0-13.5,2.9-13.5,10.2
		c0,7.7,5.8,10.2,13.5,11.5c4.1,0.8,5.8,1.6,5.8,3.3c0,1.2-1.2,3.3-5.6,3.3c-2.6,0-7.3-0.2-12.9-1.6l-1.6,7c4.1,1,10,1.6,15.5,1.6
		C130.7,48.3,135.9,44.8,135.9,37.3 M102.2,37.3c0-7.9-7.4-9.6-13.9-11c-4.4-1-5.5-1.8-5.5-3.5c0-1.2,1-2.9,5.1-2.9
		c2.6,0,6.6,0.3,12.2,1.6l1.6-7.1c-4.1-1-8.8-1.6-14.3-1.6c-8.2,0-13.5,2.9-13.5,10.2c0,7.7,5.8,10.2,13.5,11.5
		c4.1,0.8,5.8,1.6,5.8,3.3c0,1.2-1.2,3.3-5.6,3.3c-2.6,0-7.3-0.2-12.9-1.6l-1.6,7c4.1,1,10,1.6,15.5,1.6
		C97.1,48.3,102.2,44.8,102.2,37.3 M49.1,12.7l5.3,16.6H43.6L49,12.7H49.1z M59.5,47.6h10.3L55,1H43.6l-15,46.6h9.9l3.1-10.5h14.6
		L59.5,47.6z"/>
</g>
</svg>
