<!-- Generator: Adobe Illustrator 19.2.1, SVG Export Plug-In  -->
<svg version="1.1"
	 xmlns="http://www.w3.org/2000/svg" xmlns:xlink="http://www.w3.org/1999/xlink" xmlns:a="http://ns.adobe.com/AdobeSVGViewerExtensions/3.0/"
	 x="0px" y="0px" width="789.3px" height="339.7px" viewBox="0 0 789.3 339.7" style="enable-background:new 0 0 789.3 339.7;"
	 xml:space="preserve">
<style type="text/css">
	.st0{fill:#2DA1B4;}
</style>
<defs>
</defs>
<g>
	<path class="st0" d="M57.1,45.8l1.6-7.8c7.2,1.7,12.3,2,15.9,2c4.8,0,7.6-2.2,7.6-5.2c0-4.3-5.3-5.2-10.7-6.7
		c-8-2.2-13.8-6.7-13.8-14.5c0-9.3,7.7-12.9,16.9-12.9c5.2,0,10,0.7,16.3,2.6l-2.1,7.8c-7.3-1.7-10.7-2-14.2-2c-4.8,0-7,2-7,4.8
		c0,3.8,5,5,10.5,6.4c8,1.8,13.9,5.6,13.9,13.7c0,9.9-7.6,14.3-17.5,14.3C69.4,48.3,63.4,47.6,57.1,45.8z"/>
	<path class="st0" d="M107.9,32.5c0.2,5.1,3.1,8.5,9.3,8.5c2.9,0,6.2-0.1,10.6-1.4l1,7c-4.5,1.3-8.5,1.6-12.9,1.6
		c-13.1,0-17.7-6.9-17.7-17.7c0-10.7,4.6-17.7,17.5-17.7c10.2,0,13.6,5.1,14.3,11c0.3,2.6,0.1,5.5-0.3,8.6H107.9z M107.9,26.9h13.2
		c0.1-0.9,0.2-1.8,0.1-2.7c-0.3-2.6-1.8-4.6-6-4.6C110.4,19.7,108.3,22.6,107.9,26.9z"/>
	<path class="st0" d="M138.7,19.9h-4.6v-5.8l4.6-0.5l1.1-9.5h7.8v9.5h8.5v6.3h-8.5v16.4c0,3.2,1.4,4.9,5,4.9c0.8,0,1.8-0.1,3.1-0.3
		l0.7,6.8c-1.9,0.4-5.1,0.6-6.9,0.6c-7.8,0-10.7-3.2-10.7-10.4V19.9z"/>
	<path class="st0" d="M184.5,47.6h-8.8V0h8.8v18h0.1c2.9-3.1,6.7-5.1,11.1-5.1c6.8,0,10.2,4.4,10.2,11.4v23.3h-8.8V26.4
		c0-3.9-1.5-6.1-5.4-6.1c-2.8,0-5.4,1.5-7.1,2.6V47.6z"/>
	<path class="st0" d="M221.6,1.4v9.4h-8.8V1.4H221.6z M221.6,13.6v34h-8.8v-34H221.6z"/>
	<path class="st0" d="M232.2,46c-1.8-1.1-2.7-2.9-2.7-4.7c0-2.5,1.7-5.3,5.2-7.1V34c-3.4-1.7-5.5-5.2-5.5-9.5
		c0-7.8,5.6-11.6,14.3-11.6c1.8,0,3.5,0.3,4.9,0.7H261v5.3h-5.4c1.3,1.4,2,3.3,2,5.6c0,7.9-5.9,11.4-14,11.4c-2.1,0-3.7-0.5-4.4-0.7
		c-0.4,0.5-0.7,1-1,1.5c-0.6,1.6-0.5,3.3,1.7,3.5l11.6,0.8c6.9,0.5,10.4,3.1,10.4,8.5c0,8.6-6.5,12.4-20.4,12.4
		c-10.1,0-14.6-2.8-14.6-8.8c0-2.9,1.6-5.1,5.3-6.9V46z M242.9,56.1c4.9,0,9.6-1.5,9.6-5c0-1.6-1.2-2.9-4.1-3.1l-11.9-0.7
		c-1.3,1.2-2.3,2.1-2.3,4.2C234.1,55.1,238.2,56.1,242.9,56.1z M249.4,24.5c0-3.8-2.4-5.8-5.9-5.8c-3.8,0-6.1,2-6.1,5.8
		c0,3.8,2.4,5.6,6.1,5.6C247,30.1,249.4,28.3,249.4,24.5z"/>
	<path class="st0" d="M275.9,47.6h-8.8V0h8.8v18h0.1c2.9-3.1,6.7-5.1,11.1-5.1c6.8,0,10.2,4.4,10.2,11.4v23.3h-8.8V26.4
		c0-3.9-1.5-6.1-5.4-6.1c-2.8,0-5.4,1.5-7.1,2.6V47.6z"/>
	<path class="st0" d="M331.8,48.3c-5.5,0-11.4-0.6-15.5-1.6l1.6-7c5.6,1.4,10.3,1.6,12.9,1.6c4.4,0,5.6-2,5.6-3.3
		c0-1.7-1.8-2.5-5.8-3.3c-7.7-1.3-13.5-3.8-13.5-11.5c0-7.3,5.2-10.2,13.5-10.2c5.5,0,10.2,0.6,14.3,1.6l-1.6,7.1
		c-5.6-1.4-9.7-1.6-12.2-1.6c-4.1,0-5.1,1.7-5.1,2.9c0,1.6,1.2,2.5,5.5,3.5c6.5,1.4,13.9,3.1,13.9,11
		C345.2,44.8,340,48.3,331.8,48.3z"/>
	<path class="st0" d="M353.7,19.9h-4.6v-5.8l4.6-0.5l1.1-9.5h7.8v9.5h8.5v6.3h-8.5v16.4c0,3.2,1.4,4.9,5,4.9c0.8,0,1.8-0.1,3.1-0.3
		l0.7,6.8c-1.9,0.4-5.1,0.6-6.9,0.6c-7.8,0-10.7-3.2-10.7-10.4V19.9z"/>
	<path class="st0" d="M379.8,21.6l-1.3-7.1c4.8-1,9.9-1.6,14-1.6c8.6,0,13.4,2.2,13.4,11.4v23.3h-8.8v-3.4c-0.1,0-0.1,0-0.1,0
		c-2.9,3-5.8,4.1-10.1,4.1c-6.8,0-10.5-4.6-10.5-10.5c0-8.3,7.6-10.6,14.3-10.6h6.5v-2.4c0-3.5-2.2-4.6-6.6-4.6
		C387.8,20.3,384.7,20.5,379.8,21.6z M397.1,32.5h-5.9c-4,0-6,1.4-6,4.6c0,3,2.4,4.4,5.3,4.4c2.8,0,5.4-1.2,6.6-2.1V32.5z"/>
	<path class="st0" d="M421.6,47.6h-8.8v-34h8.8V18h0.1c2.9-3.1,6.7-5.1,11.1-5.1c6.8,0,10.2,4.4,10.2,11.4v23.3h-8.8V26.4
		c0-3.9-1.5-6.1-5.4-6.1c-2.8,0-5.4,1.5-7.1,2.6V47.6z"/>
	<path class="st0" d="M471.2,44.2c-0.1,0-0.1,0-0.1,0c-2.1,2.4-5.8,4.1-9.5,4.1c-9.5,0-12.4-8-12.4-17.7c0-9.7,3.4-17.7,12.9-17.7
		c3.5,0,6.9,1.4,9,3.8c0.1,0,0.1,0,0.1,0V0h8.8v47.6h-8.8V44.2z M465,41c2.9,0,5.1-1.3,6.1-2.2V22.4c-1-0.8-3.2-2.1-6.1-2.1
		c-5.2,0-6.6,4.6-6.6,10.3S459.9,41,465,41z"/>
	<path class="st0" d="M489.2,21.6l-1.3-7.1c4.8-1,9.9-1.6,14-1.6c8.6,0,13.4,2.2,13.4,11.4v23.3h-8.8v-3.4c-0.1,0-0.1,0-0.1,0
		c-2.9,3-5.8,4.1-10.1,4.1c-6.8,0-10.5-4.6-10.5-10.5c0-8.3,7.6-10.6,14.3-10.6h6.5v-2.4c0-3.5-2.2-4.6-6.6-4.6
		C497.1,20.3,494.1,20.5,489.2,21.6z M506.5,32.5h-5.9c-4,0-6,1.4-6,4.6c0,3,2.4,4.4,5.3,4.4c2.8,0,5.4-1.2,6.6-2.1V32.5z"/>
	<path class="st0" d="M530.9,47.6h-8.8v-34h8.8V19h0.1c2.2-3.1,6.3-6.1,11.8-6.1v8.4c-4.6,0-9.2,1.2-11.9,2.6V47.6z"/>
	<path class="st0" d="M566.9,44.2c-0.1,0-0.1,0-0.1,0c-2.1,2.4-5.8,4.1-9.5,4.1c-9.5,0-12.4-8-12.4-17.7c0-9.7,3.4-17.7,12.9-17.7
		c3.5,0,6.9,1.4,9,3.8c0.1,0,0.1,0,0.1,0V0h8.8v47.6h-8.8V44.2z M560.8,41c2.9,0,5.1-1.3,6.1-2.2V22.4c-1-0.8-3.2-2.1-6.1-2.1
		c-5.2,0-6.6,4.6-6.6,10.3S555.6,41,560.8,41z"/>
	<path class="st0" d="M597,48.3c-5.5,0-11.4-0.6-15.5-1.6l1.6-7c5.6,1.4,10.3,1.6,12.9,1.6c4.4,0,5.6-2,5.6-3.3
		c0-1.7-1.8-2.5-5.8-3.3c-7.7-1.3-13.5-3.8-13.5-11.5c0-7.3,5.2-10.2,13.5-10.2c5.5,0,10.2,0.6,14.3,1.6l-1.6,7.1
		c-5.6-1.4-9.7-1.6-12.2-1.6c-4.1,0-5.1,1.7-5.1,2.9c0,1.6,1.2,2.5,5.5,3.5c6.5,1.4,13.9,3.1,13.9,11
		C610.4,44.8,605.3,48.3,597,48.3z"/>
	<path class="st0" d="M631.9,21.6l-1.3-7.1c4.8-1,9.9-1.6,14-1.6c8.6,0,13.4,2.2,13.4,11.4v23.3h-8.8v-3.4c-0.1,0-0.1,0-0.1,0
		c-2.9,3-5.8,4.1-10.1,4.1c-6.8,0-10.5-4.6-10.5-10.5c0-8.3,7.6-10.6,14.3-10.6h6.5v-2.4c0-3.5-2.2-4.6-6.6-4.6
		C639.9,20.3,636.8,20.5,631.9,21.6z M649.2,32.5h-5.9c-4,0-6,1.4-6,4.6c0,3,2.4,4.4,5.3,4.4c2.8,0,5.4-1.2,6.6-2.1V32.5z"/>
	<path class="st0" d="M673.7,47.6h-8.8v-34h8.8V18h0.1c2.9-3.1,6.7-5.1,11.1-5.1c6.8,0,10.2,4.4,10.2,11.4v23.3h-8.8V26.4
		c0-3.9-1.5-6.1-5.4-6.1c-2.8,0-5.4,1.5-7.1,2.6V47.6z"/>
	<path class="st0" d="M723.3,44.2c-0.1,0-0.1,0-0.1,0c-2.1,2.4-5.8,4.1-9.5,4.1c-9.5,0-12.4-8-12.4-17.7c0-9.7,3.4-17.7,12.9-17.7
		c3.5,0,6.9,1.4,9,3.8c0.1,0,0.1,0,0.1,0V0h8.8v47.6h-8.8V44.2z M717.2,41c2.9,0,5.1-1.3,6.1-2.2V22.4c-1-0.8-3.2-2.1-6.1-2.1
		c-5.2,0-6.6,4.6-6.6,10.3S712,41,717.2,41z"/>
</g>
<g>
	<path class="st0" d="M98.5,86.6h0.1c2.2-2.4,5.9-4.1,9.6-4.1c9.5,0,12.4,8,12.4,17.7c0,9.7-3.4,17.7-12.9,17.7
		c-3.4,0-6.9-1.4-9-3.8h-0.1v16.7h-8.8V83.2h8.8V86.6z M104.6,89.9c-2.9,0-5,1.3-6.1,2.1v16.5c1.1,0.9,3.3,2.2,6.1,2.2
		c5.2,0,6.7-4.6,6.7-10.4S109.8,89.9,104.6,89.9z"/>
	<path class="st0" d="M135.5,117.2h-8.8v-34h8.8v5.4h0.1c2.2-3.1,6.3-6.1,11.8-6.1v8.4c-4.6,0-9.2,1.2-11.9,2.6V117.2z"/>
	<path class="st0" d="M149.3,100.2c0-10.7,4.6-17.7,16.5-17.7s16.5,7,16.5,17.7c0,10.7-4.5,17.7-16.5,17.7S149.3,111,149.3,100.2z
		 M158.7,100.2c0,6.3,1.6,10.4,7.1,10.4c5.6,0,7.1-4.1,7.1-10.4c0-6.3-1.6-10.3-7.1-10.3C160.3,89.9,158.7,94,158.7,100.2z"/>
	<path class="st0" d="M197.3,117.2h-8.8v-34h8.8v4.4h0.1c2.7-3,6.2-5.1,10.6-5.1c4.6,0,7.7,2,9.1,5.6c3.5-3.9,7.4-5.6,11.8-5.6
		c6.8,0,10.2,4.4,10.2,11.4v23.3h-8.8V96c0-3.9-1.8-6.1-5.4-6.1c-2.6,0-5,1.5-6.7,2.7c0,1.2,0.1,2.4,0.1,3.9v20.8h-8.8V95.6
		c-0.1-3.6-1.9-5.7-5.4-5.7c-2.7,0-5,1.5-6.7,2.6V117.2z"/>
	<path class="st0" d="M245.2,100.2c0-10.7,4.6-17.7,16.5-17.7s16.5,7,16.5,17.7c0,10.7-4.5,17.7-16.5,17.7S245.2,111,245.2,100.2z
		 M254.6,100.2c0,6.3,1.6,10.4,7.1,10.4c5.6,0,7.1-4.1,7.1-10.4c0-6.3-1.6-10.3-7.1-10.3C256.2,89.9,254.6,94,254.6,100.2z"/>
	<path class="st0" d="M287,89.6h-4.6v-5.8l4.6-0.5l1.1-9.5h7.8v9.5h8.5v6.3h-8.5v16.4c0,3.2,1.4,4.9,5,4.9c0.8,0,1.8-0.1,3.1-0.3
		l0.7,6.8c-1.9,0.4-5.1,0.6-6.9,0.6c-7.8,0-10.7-3.2-10.7-10.4V89.6z"/>
	<path class="st0" d="M317.4,102.1c0.2,5.1,3.1,8.5,9.3,8.5c2.9,0,6.2-0.1,10.6-1.4l1,7c-4.5,1.3-8.5,1.6-12.9,1.6
		c-13.1,0-17.7-6.9-17.7-17.7c0-10.7,4.6-17.7,17.5-17.7c10.2,0,13.6,5.1,14.3,11c0.3,2.6,0.1,5.5-0.3,8.6H317.4z M317.4,96.6h13.2
		c0.1-0.9,0.2-1.8,0.1-2.7c-0.3-2.6-1.8-4.6-6-4.6C319.8,89.3,317.7,92.2,317.4,96.6z"/>
	<path class="st0" d="M367.4,117.2h-8.8V69.6h8.8v18h0.1c2.9-3.1,6.7-5.1,11.1-5.1c6.8,0,10.2,4.4,10.2,11.4v23.3H380V96
		c0-3.9-1.5-6.1-5.4-6.1c-2.8,0-5.4,1.5-7.1,2.6V117.2z"/>
	<path class="st0" d="M404.5,71v9.4h-8.8V71H404.5z M404.5,83.2v34h-8.8v-34H404.5z"/>
	<path class="st0" d="M415,115.6c-1.8-1.1-2.7-2.9-2.7-4.7c0-2.5,1.7-5.3,5.2-7.1v-0.1c-3.4-1.7-5.5-5.2-5.5-9.5
		c0-7.8,5.6-11.6,14.3-11.6c1.8,0,3.5,0.3,4.9,0.7h12.6v5.3h-5.4c1.3,1.4,2,3.3,2,5.6c0,7.9-5.9,11.4-14,11.4
		c-2.1,0-3.7-0.5-4.4-0.7c-0.4,0.5-0.7,1-1,1.5c-0.6,1.6-0.5,3.3,1.7,3.5l11.6,0.8c6.9,0.5,10.4,3.1,10.4,8.5
		c0,8.6-6.5,12.4-20.4,12.4c-10.1,0-14.6-2.8-14.6-8.8c0-2.9,1.6-5.1,5.3-6.9V115.6z M425.7,125.7c4.9,0,9.6-1.5,9.6-5
		c0-1.6-1.2-2.9-4.1-3.1l-11.9-0.7c-1.3,1.2-2.3,2.1-2.3,4.2C417,124.7,421.1,125.7,425.7,125.7z M432.3,94.1c0-3.8-2.4-5.8-5.9-5.8
		c-3.8,0-6.1,2-6.1,5.8c0,3.8,2.4,5.6,6.1,5.6C429.9,99.8,432.3,97.9,432.3,94.1z"/>
	<path class="st0" d="M458.7,117.2h-8.8V69.6h8.8v18h0.1c2.9-3.1,6.7-5.1,11.1-5.1c6.8,0,10.2,4.4,10.2,11.4v23.3h-8.8V96
		c0-3.9-1.5-6.1-5.4-6.1c-2.8,0-5.4,1.5-7.1,2.6V117.2z"/>
	<path class="st0" d="M521.6,113.8h-0.1c-2.1,2.4-5.8,4.1-9.5,4.1c-9.5,0-12.4-8-12.4-17.7c0-9.7,3.4-17.7,12.9-17.7
		c3.5,0,7.1,1.4,9.6,3.8h0.1l1.6-3.4h6.7v47.9h-8.8V113.8z M515.4,110.6c2.9,0,5.1-1.3,6.1-2.2V92c-1-0.8-3.2-2.1-6.1-2.1
		c-5.2,0-6.6,4.6-6.6,10.3S510.3,110.6,515.4,110.6z"/>
	<path class="st0" d="M558.5,83.2h8.8v34h-8.8v-4.4h-0.1c-2.9,3.1-6.7,5.1-11.1,5.1c-6.8,0-10.2-4.4-10.2-11.4V83.2h8.8v21.3
		c0,3.9,1.8,6.1,5.4,6.1c2.9,0,5.4-1.6,7.1-2.7V83.2z"/>
	<path class="st0" d="M576.6,91.2l-1.3-7.1c4.8-1,9.9-1.6,14-1.6c8.6,0,13.4,2.2,13.4,11.4v23.3h-8.8v-3.4c-0.1,0-0.1,0-0.1,0
		c-2.9,3-5.8,4.1-10.1,4.1c-6.8,0-10.5-4.6-10.5-10.5c0-8.3,7.6-10.6,14.3-10.6h6.5v-2.4c0-3.5-2.2-4.6-6.6-4.6
		C584.6,89.9,581.5,90.2,576.6,91.2z M593.9,102.1H588c-4,0-6,1.4-6,4.6c0,3,2.4,4.4,5.3,4.4c2.8,0,5.4-1.2,6.6-2.1V102.1z"/>
	<path class="st0" d="M609.5,69.6h8.8v47.6h-8.8V69.6z"/>
	<path class="st0" d="M634,71v9.4h-8.8V71H634z M634,83.2v34h-8.8v-34H634z"/>
	<path class="st0" d="M643.5,89.6h-4.6v-5.8l4.6-0.5l1.1-9.5h7.8v9.5h8.5v6.3h-8.5v16.4c0,3.2,1.4,4.9,5,4.9c0.8,0,1.8-0.1,3.1-0.3
		l0.7,6.8c-1.9,0.4-5.1,0.6-6.9,0.6c-7.8,0-10.7-3.2-10.7-10.4V89.6z"/>
	<path class="st0" d="M666.1,83.2h9.9l7.8,24.8h0.1l7.5-24.8h9.4l-12,35.2c-3.3,9.7-7.6,13.1-15.2,13.1c-1.8,0-4.4-0.2-6.1-0.6
		l0.8-7.3c1,0.2,2.5,0.3,3.3,0.3c3.3,0,5.8-2.5,7.1-6.3L666.1,83.2z"/>
</g>
<g>
	<path class="st0" d="M88.3,156.3h0.1c2.2-2.4,5.9-4.1,9.6-4.1c9.5,0,12.4,8,12.4,17.7c0,9.7-3.4,17.7-12.9,17.7
		c-3.4,0-6.9-1.4-9-3.8h-0.1v16.7h-8.8v-47.6h8.8V156.3z M94.4,159.5c-2.9,0-5,1.3-6.1,2.1v16.5c1.1,0.9,3.3,2.2,6.1,2.2
		c5.2,0,6.7-4.6,6.7-10.4S99.6,159.5,94.4,159.5z"/>
	<path class="st0" d="M125.3,186.9h-8.8v-34h8.8v5.4h0.1c2.2-3.1,6.3-6.1,11.8-6.1v8.4c-4.6,0-9.2,1.2-11.9,2.6V186.9z"/>
	<path class="st0" d="M139.2,169.9c0-10.7,4.6-17.7,16.5-17.7s16.5,7,16.5,17.7c0,10.7-4.5,17.7-16.5,17.7S139.2,180.6,139.2,169.9z
		 M148.6,169.9c0,6.3,1.6,10.4,7.1,10.4c5.6,0,7.1-4.1,7.1-10.4c0-6.3-1.6-10.3-7.1-10.3C150.1,159.5,148.6,163.6,148.6,169.9z"/>
	<path class="st0" d="M189.9,152.9h7.1v6.3h-7.1v27.7H181v-27.7h-4.6v-5.8l4.6-0.5v-3.5c0-6.7,2.2-10.1,10.7-10.1
		c1.8,0,4,0.3,5.9,0.6l-0.7,6.8c-1.3-0.2-2.3-0.3-3.1-0.3c-3,0-3.9,0.7-3.9,3.7V152.9z"/>
	<path class="st0" d="M209.2,171.8c0.2,5.1,3.1,8.5,9.3,8.5c2.9,0,6.2-0.1,10.6-1.4l1,7c-4.5,1.3-8.5,1.6-12.9,1.6
		c-13.1,0-17.7-6.9-17.7-17.7c0-10.7,4.6-17.7,17.5-17.7c10.2,0,13.6,5.1,14.3,11c0.3,2.6,0.1,5.5-0.3,8.6H209.2z M209.2,166.2h13.2
		c0.1-0.9,0.2-1.8,0.1-2.7c-0.3-2.6-1.8-4.6-6-4.6C211.6,159,209.5,161.8,209.2,166.2z"/>
	<path class="st0" d="M251.7,187.5c-5.5,0-11.4-0.6-15.5-1.6l1.6-7c5.6,1.4,10.3,1.6,12.9,1.6c4.4,0,5.6-2,5.6-3.3
		c0-1.7-1.8-2.5-5.8-3.3c-7.7-1.3-13.5-3.8-13.5-11.5c0-7.3,5.2-10.2,13.5-10.2c5.5,0,10.2,0.6,14.3,1.6l-1.6,7.1
		c-5.6-1.4-9.7-1.6-12.2-1.6c-4.1,0-5.1,1.7-5.1,2.9c0,1.6,1.2,2.5,5.5,3.5c6.5,1.4,13.9,3.1,13.9,11
		C265.1,184.1,259.9,187.5,251.7,187.5z"/>
	<path class="st0" d="M285.3,187.5c-5.5,0-11.4-0.6-15.5-1.6l1.6-7c5.6,1.4,10.3,1.6,12.9,1.6c4.4,0,5.6-2,5.6-3.3
		c0-1.7-1.8-2.5-5.8-3.3c-7.7-1.3-13.5-3.8-13.5-11.5c0-7.3,5.2-10.2,13.5-10.2c5.5,0,10.2,0.6,14.3,1.6l-1.6,7.1
		c-5.6-1.4-9.7-1.6-12.2-1.6c-4.1,0-5.1,1.7-5.1,2.9c0,1.6,1.2,2.5,5.5,3.5c6.5,1.4,13.9,3.1,13.9,11
		C298.7,184.1,293.5,187.5,285.3,187.5z"/>
	<path class="st0" d="M313.2,140.6v9.4h-8.8v-9.4H313.2z M313.2,152.9v34h-8.8v-34H313.2z"/>
	<path class="st0" d="M319.3,169.9c0-10.7,4.6-17.7,16.5-17.7s16.5,7,16.5,17.7c0,10.7-4.5,17.7-16.5,17.7S319.3,180.6,319.3,169.9z
		 M328.7,169.9c0,6.3,1.6,10.4,7.1,10.4c5.6,0,7.1-4.1,7.1-10.4c0-6.3-1.6-10.3-7.1-10.3C330.3,159.5,328.7,163.6,328.7,169.9z"/>
	<path class="st0" d="M367.3,186.9h-8.8v-34h8.8v4.4h0.1c2.9-3.1,6.7-5.1,11.1-5.1c6.8,0,10.2,4.4,10.2,11.4v23.3h-8.8v-21.2
		c0-3.9-1.5-6.1-5.4-6.1c-2.8,0-5.4,1.5-7.1,2.6V186.9z"/>
	<path class="st0" d="M397.9,160.8l-1.3-7.1c4.8-1,9.9-1.6,14-1.6c8.6,0,13.4,2.2,13.4,11.4v23.3h-8.8v-3.4c-0.1,0-0.1,0-0.1,0
		c-2.9,3-5.8,4.1-10.1,4.1c-6.8,0-10.5-4.6-10.5-10.5c0-8.3,7.6-10.6,14.3-10.6h6.5v-2.4c0-3.5-2.2-4.6-6.6-4.6
		C405.8,159.5,402.8,159.8,397.9,160.8z M415.1,171.8h-5.9c-4,0-6,1.4-6,4.6c0,3,2.4,4.4,5.3,4.4c2.8,0,5.4-1.2,6.6-2.1V171.8z"/>
	<path class="st0" d="M430.8,139.3h8.8v47.6h-8.8V139.3z"/>
	<path class="st0" d="M459.6,139.3h8.8v47.6h-8.8V139.3z"/>
	<path class="st0" d="M484.2,171.8c0.2,5.1,3.1,8.5,9.3,8.5c2.9,0,6.2-0.1,10.6-1.4l1,7c-4.5,1.3-8.5,1.6-12.9,1.6
		c-13.1,0-17.7-6.9-17.7-17.7c0-10.7,4.6-17.7,17.5-17.7c10.2,0,13.6,5.1,14.3,11c0.3,2.6,0.1,5.5-0.3,8.6H484.2z M484.2,166.2h13.2
		c0.1-0.9,0.2-1.8,0.1-2.7c-0.3-2.6-1.8-4.6-6-4.6C486.6,159,484.5,161.8,484.2,166.2z"/>
	<path class="st0" d="M514.7,160.8l-1.3-7.1c4.8-1,9.9-1.6,14-1.6c8.6,0,13.4,2.2,13.4,11.4v23.3H532v-3.4c-0.1,0-0.1,0-0.1,0
		c-2.9,3-5.8,4.1-10.1,4.1c-6.8,0-10.5-4.6-10.5-10.5c0-8.3,7.6-10.6,14.3-10.6h6.5v-2.4c0-3.5-2.2-4.6-6.6-4.6
		C522.6,159.5,519.6,159.8,514.7,160.8z M532,171.8H526c-4,0-6,1.4-6,4.6c0,3,2.4,4.4,5.3,4.4c2.8,0,5.4-1.2,6.6-2.1V171.8z"/>
	<path class="st0" d="M556.4,186.9h-8.8v-34h8.8v5.4h0.1c2.2-3.1,6.3-6.1,11.8-6.1v8.4c-4.6,0-9.2,1.2-11.9,2.6V186.9z"/>
	<path class="st0" d="M582.6,186.9h-8.8v-34h8.8v4.4h0.1c2.9-3.1,6.7-5.1,11.1-5.1c6.8,0,10.2,4.4,10.2,11.4v23.3h-8.8v-21.2
		c0-3.9-1.5-6.1-5.4-6.1c-2.8,0-5.4,1.5-7.1,2.6V186.9z"/>
	<path class="st0" d="M619.7,140.6v9.4h-8.8v-9.4H619.7z M619.7,152.9v34h-8.8v-34H619.7z"/>
	<path class="st0" d="M635.2,186.9h-8.8v-34h8.8v4.4h0.1c2.9-3.1,6.7-5.1,11.1-5.1c6.8,0,10.2,4.4,10.2,11.4v23.3h-8.8v-21.2
		c0-3.9-1.5-6.1-5.4-6.1c-2.8,0-5.4,1.5-7.1,2.6V186.9z"/>
	<path class="st0" d="M666.2,185.2c-1.8-1.1-2.7-2.9-2.7-4.7c0-2.5,1.7-5.3,5.2-7.1v-0.1c-3.4-1.7-5.5-5.2-5.5-9.5
		c0-7.8,5.6-11.6,14.3-11.6c1.8,0,3.5,0.3,4.9,0.7H695v5.3h-5.4c1.3,1.4,2,3.3,2,5.6c0,7.9-5.9,11.4-14,11.4c-2.1,0-3.7-0.5-4.4-0.7
		c-0.4,0.5-0.7,1-1,1.5c-0.6,1.6-0.5,3.3,1.7,3.5l11.6,0.8c6.9,0.5,10.4,3.1,10.4,8.5c0,8.6-6.5,12.4-20.4,12.4
		c-10.1,0-14.6-2.8-14.6-8.8c0-2.9,1.6-5.1,5.3-6.9V185.2z M676.9,195.4c4.9,0,9.6-1.5,9.6-5c0-1.6-1.2-2.9-4.1-3.1l-11.9-0.7
		c-1.3,1.2-2.3,2.1-2.3,4.2C668.2,194.3,672.2,195.4,676.9,195.4z M683.5,163.7c0-3.8-2.4-5.8-5.9-5.8c-3.8,0-6.1,2-6.1,5.8
		c0,3.8,2.4,5.6,6.1,5.6C681.1,169.4,683.5,167.5,683.5,163.7z"/>
	<path class="st0" d="M703,195.7l1.7-8.8c-1.2,0-2.4,0-3.6,0V177h8.8v9.9l-4.2,8.8H703z"/>
</g>
<g>
	<path class="st0" d="M10.5,228.8H5.9V223l4.6-0.5l1.1-9.5h7.8v9.5h8.5v6.3h-8.5v16.4c0,3.2,1.4,4.9,5,4.9c0.8,0,1.8-0.1,3.1-0.3
		l0.7,6.8c-1.9,0.4-5.1,0.6-6.9,0.6c-7.8,0-10.7-3.2-10.7-10.4V228.8z"/>
	<path class="st0" d="M40.7,241.4c0.2,5.1,3.1,8.5,9.3,8.5c2.9,0,6.2-0.1,10.6-1.4l1,7c-4.5,1.3-8.5,1.6-12.9,1.6
		c-13.1,0-17.7-6.9-17.7-17.7c0-10.7,4.6-17.7,17.5-17.7c10.2,0,13.6,5.1,14.3,11c0.3,2.6,0.1,5.5-0.3,8.6H40.7z M40.7,235.8h13.2
		c0.1-0.9,0.2-1.8,0.1-2.7c-0.3-2.6-1.8-4.6-6-4.6C43.2,228.6,41.1,231.5,40.7,235.8z"/>
	<path class="st0" d="M71.2,230.4l-1.3-7.1c4.8-1,9.9-1.6,14-1.6c8.6,0,13.4,2.2,13.4,11.4v23.3h-8.8v-3.4c-0.1,0-0.1,0-0.1,0
		c-2.9,3-5.8,4.1-10.1,4.1c-6.8,0-10.5-4.6-10.5-10.5c0-8.3,7.6-10.6,14.3-10.6h6.5v-2.4c0-3.5-2.2-4.6-6.6-4.6
		C79.2,229.2,76.1,229.4,71.2,230.4z M88.5,241.4h-5.9c-4,0-6,1.4-6,4.6c0,3,2.4,4.4,5.3,4.4c2.8,0,5.4-1.2,6.6-2.1V241.4z"/>
	<path class="st0" d="M121,221.8c4.4,0,7.8,0.6,11.9,1.6l-1.6,7.1c-5.6-1.4-7.8-1.4-10.3-1.4c-5.3,0-8.2,3.5-8.2,10.3
		c0,6.8,2.9,10.4,8.2,10.4c2.5,0,4.7,0,10.3-1.4l1.6,7c-4.1,1-7.5,1.6-11.9,1.6c-13.2,0-17.5-6.9-17.5-17.7
		C103.4,228.8,107.8,221.8,121,221.8z"/>
	<path class="st0" d="M146.5,256.5h-8.8v-47.6h8.8v18h0.1c2.9-3.1,6.7-5.1,11.1-5.1c6.8,0,10.2,4.4,10.2,11.4v23.3h-8.8v-21.2
		c0-3.9-1.5-6.1-5.4-6.1c-2.8,0-5.4,1.5-7.1,2.6V256.5z"/>
	<path class="st0" d="M183.5,210.3v9.4h-8.8v-9.4H183.5z M183.5,222.5v34h-8.8v-34H183.5z"/>
	<path class="st0" d="M199.2,256.5h-8.8v-34h8.8v4.4h0.1c2.9-3.1,6.7-5.1,11.1-5.1c6.8,0,10.2,4.4,10.2,11.4v23.3h-8.8v-21.2
		c0-3.9-1.5-6.1-5.4-6.1c-2.8,0-5.4,1.5-7.1,2.6V256.5z"/>
	<path class="st0" d="M230,254.9c-1.8-1.1-2.7-2.9-2.7-4.7c0-2.5,1.7-5.3,5.2-7.1v-0.1c-3.4-1.7-5.5-5.2-5.5-9.5
		c0-7.8,5.6-11.6,14.3-11.6c1.8,0,3.5,0.3,4.9,0.7h12.6v5.3h-5.4c1.3,1.4,2,3.3,2,5.6c0,7.9-5.9,11.4-14,11.4
		c-2.1,0-3.7-0.5-4.4-0.7c-0.4,0.5-0.7,1-1,1.5c-0.6,1.6-0.5,3.3,1.7,3.5l11.6,0.8c6.9,0.5,10.4,3.1,10.4,8.5
		c0,8.6-6.5,12.4-20.4,12.4c-10.1,0-14.6-2.8-14.6-8.8c0-2.9,1.6-5.1,5.3-6.9V254.9z M240.8,265c4.9,0,9.6-1.5,9.6-5
		c0-1.6-1.2-2.9-4.1-3.1l-11.9-0.7c-1.3,1.2-2.3,2.1-2.3,4.2C232,264,236.1,265,240.8,265z M247.3,233.4c0-3.8-2.4-5.8-5.9-5.8
		c-3.8,0-6.1,2-6.1,5.8c0,3.8,2.4,5.6,6.1,5.6C244.9,239,247.3,237.2,247.3,233.4z"/>
	<path class="st0" d="M280.6,230.4l-1.3-7.1c4.8-1,9.9-1.6,14-1.6c8.6,0,13.4,2.2,13.4,11.4v23.3h-8.8v-3.4c-0.1,0-0.1,0-0.1,0
		c-2.9,3-5.8,4.1-10.1,4.1c-6.8,0-10.5-4.6-10.5-10.5c0-8.3,7.6-10.6,14.3-10.6h6.5v-2.4c0-3.5-2.2-4.6-6.6-4.6
		C288.6,229.2,285.5,229.4,280.6,230.4z M297.9,241.4H292c-4,0-6,1.4-6,4.6c0,3,2.4,4.4,5.3,4.4c2.8,0,5.4-1.2,6.6-2.1V241.4z"/>
	<path class="st0" d="M322.4,256.5h-8.8v-34h8.8v4.4h0.1c2.9-3.1,6.7-5.1,11.1-5.1c6.8,0,10.2,4.4,10.2,11.4v23.3H335v-21.2
		c0-3.9-1.5-6.1-5.4-6.1c-2.8,0-5.4,1.5-7.1,2.6V256.5z"/>
	<path class="st0" d="M372,253.1c-0.1,0-0.1,0-0.1,0c-2.1,2.4-5.8,4.1-9.5,4.1c-9.5,0-12.4-8-12.4-17.7c0-9.7,3.4-17.7,12.9-17.7
		c3.5,0,6.9,1.4,9,3.8c0.1,0,0.1,0,0.1,0v-16.7h8.8v47.6H372V253.1z M365.8,249.9c2.9,0,5.1-1.3,6.1-2.2v-16.5
		c-1-0.8-3.2-2.1-6.1-2.1c-5.2,0-6.6,4.6-6.6,10.3S360.7,249.9,365.8,249.9z"/>
	<path class="st0" d="M400.7,208.9h8.8v47.6h-8.8V208.9z"/>
	<path class="st0" d="M425.3,241.4c0.2,5.1,3.1,8.5,9.3,8.5c2.9,0,6.2-0.1,10.6-1.4l1,7c-4.5,1.3-8.5,1.6-12.9,1.6
		c-13.1,0-17.7-6.9-17.7-17.7c0-10.7,4.6-17.7,17.5-17.7c10.2,0,13.6,5.1,14.3,11c0.3,2.6,0.1,5.5-0.3,8.6H425.3z M425.3,235.8h13.2
		c0.1-0.9,0.2-1.8,0.1-2.7c-0.3-2.6-1.8-4.6-6-4.6C427.7,228.6,425.6,231.5,425.3,235.8z"/>
	<path class="st0" d="M455.7,230.4l-1.3-7.1c4.8-1,9.9-1.6,14-1.6c8.6,0,13.4,2.2,13.4,11.4v23.3H473v-3.4c-0.1,0-0.1,0-0.1,0
		c-2.9,3-5.8,4.1-10.1,4.1c-6.8,0-10.5-4.6-10.5-10.5c0-8.3,7.6-10.6,14.3-10.6h6.5v-2.4c0-3.5-2.2-4.6-6.6-4.6
		C463.7,229.2,460.6,229.4,455.7,230.4z M473,241.4h-5.9c-4,0-6,1.4-6,4.6c0,3,2.4,4.4,5.3,4.4c2.8,0,5.4-1.2,6.6-2.1V241.4z"/>
	<path class="st0" d="M510.1,253.1c-0.1,0-0.1,0-0.1,0c-2.1,2.4-5.8,4.1-9.5,4.1c-9.5,0-12.4-8-12.4-17.7c0-9.7,3.4-17.7,12.9-17.7
		c3.5,0,6.9,1.4,9,3.8c0.1,0,0.1,0,0.1,0v-16.7h8.8v47.6h-8.8V253.1z M503.9,249.9c2.9,0,5.1-1.3,6.1-2.2v-16.5
		c-1-0.8-3.2-2.1-6.1-2.1c-5.2,0-6.6,4.6-6.6,10.3S498.8,249.9,503.9,249.9z"/>
	<path class="st0" d="M534.7,241.4c0.2,5.1,3.1,8.5,9.3,8.5c2.9,0,6.2-0.1,10.6-1.4l1,7c-4.5,1.3-8.5,1.6-12.9,1.6
		c-13.1,0-17.7-6.9-17.7-17.7c0-10.7,4.6-17.7,17.5-17.7c10.2,0,13.6,5.1,14.3,11c0.3,2.6,0.1,5.5-0.3,8.6H534.7z M534.7,235.8h13.2
		c0.1-0.9,0.2-1.8,0.1-2.7c-0.3-2.6-1.8-4.6-6-4.6C537.1,228.6,535,231.5,534.7,235.8z"/>
	<path class="st0" d="M571.6,256.5h-8.8v-34h8.8v5.4h0.1c2.2-3.1,6.3-6.1,11.8-6.1v8.4c-4.6,0-9.2,1.2-11.9,2.6V256.5z"/>
	<path class="st0" d="M603.4,257.2c-5.5,0-11.4-0.6-15.5-1.6l1.6-7c5.6,1.4,10.3,1.6,12.9,1.6c4.4,0,5.6-2,5.6-3.3
		c0-1.7-1.8-2.5-5.8-3.3c-7.7-1.3-13.5-3.8-13.5-11.5c0-7.3,5.2-10.2,13.5-10.2c5.5,0,10.2,0.6,14.3,1.6l-1.6,7.1
		c-5.6-1.4-9.7-1.6-12.2-1.6c-4.1,0-5.1,1.7-5.1,2.9c0,1.6,1.2,2.5,5.5,3.5c6.5,1.4,13.9,3.1,13.9,11
		C616.8,253.7,611.7,257.2,603.4,257.2z"/>
	<path class="st0" d="M631.4,256.5h-8.8v-47.6h8.8v18h0.1c2.9-3.1,6.7-5.1,11.1-5.1c6.8,0,10.2,4.4,10.2,11.4v23.3H644v-21.2
		c0-3.9-1.5-6.1-5.4-6.1c-2.8,0-5.4,1.5-7.1,2.6V256.5z"/>
	<path class="st0" d="M668.5,210.3v9.4h-8.8v-9.4H668.5z M668.5,222.5v34h-8.8v-34H668.5z"/>
	<path class="st0" d="M684.1,225.9h0.1c2.2-2.4,5.9-4.1,9.6-4.1c9.5,0,12.4,8,12.4,17.7c0,9.7-3.4,17.7-12.9,17.7
		c-3.4,0-6.9-1.4-9-3.8h-0.1v16.7h-8.8v-47.6h8.8V225.9z M690.3,229.2c-2.9,0-5,1.3-6.1,2.1v16.5c1.1,0.9,3.3,2.2,6.1,2.2
		c5.2,0,6.7-4.6,6.7-10.4S695.5,229.2,690.3,229.2z"/>
	<path class="st0" d="M728.3,228.8h-4.6V223l4.6-0.5l1.1-9.5h7.8v9.5h8.5v6.3h-8.5v16.4c0,3.2,1.4,4.9,5,4.9c0.8,0,1.8-0.1,3.1-0.3
		l0.7,6.8c-1.9,0.4-5.1,0.6-6.9,0.6c-7.8,0-10.7-3.2-10.7-10.4V228.8z"/>
	<path class="st0" d="M748.9,239.5c0-10.7,4.6-17.7,16.5-17.7s16.5,7,16.5,17.7c0,10.7-4.5,17.7-16.5,17.7S748.9,250.2,748.9,239.5z
		 M758.3,239.5c0,6.3,1.6,10.4,7.1,10.4s7.1-4.1,7.1-10.4c0-6.3-1.6-10.3-7.1-10.3S758.3,233.2,758.3,239.5z"/>
</g>
<g>
	<path class="st0" d="M8.8,279.9v9.4H0v-9.4H8.8z M8.8,292.1v34H0v-34H8.8z"/>
	<path class="st0" d="M24.4,326.1h-8.8v-34h8.8v4.4h0.1c2.7-3,6.2-5.1,10.6-5.1c4.6,0,7.7,2,9.1,5.6c3.5-3.9,7.4-5.6,11.8-5.6
		c6.8,0,10.2,4.4,10.2,11.4v23.3h-8.8v-21.2c0-3.9-1.8-6.1-5.4-6.1c-2.6,0-5,1.5-6.7,2.7c0,1.2,0.1,2.4,0.1,3.9v20.8h-8.8v-21.6
		c-0.1-3.6-1.9-5.7-5.4-5.7c-2.7,0-5,1.5-6.7,2.6V326.1z"/>
	<path class="st0" d="M81.9,295.5H82c2.2-2.4,5.9-4.1,9.6-4.1c9.5,0,12.4,8,12.4,17.7c0,9.7-3.4,17.7-12.9,17.7
		c-3.4,0-6.9-1.4-9-3.8h-0.1v16.7H73v-47.6h8.8V295.5z M88,298.8c-2.9,0-5,1.3-6.1,2.1v16.5c1.1,0.9,3.3,2.2,6.1,2.2
		c5.2,0,6.7-4.6,6.7-10.4S93.2,298.8,88,298.8z"/>
	<path class="st0" d="M118.9,326.1h-8.8v-34h8.8v5.4h0.1c2.2-3.1,6.3-6.1,11.8-6.1v8.4c-4.6,0-9.2,1.2-11.9,2.6V326.1z"/>
	<path class="st0" d="M132.8,309.1c0-10.7,4.6-17.7,16.5-17.7s16.5,7,16.5,17.7c0,10.7-4.5,17.7-16.5,17.7S132.8,319.9,132.8,309.1z
		 M142.2,309.1c0,6.3,1.6,10.4,7.1,10.4c5.6,0,7.1-4.1,7.1-10.4c0-6.3-1.6-10.3-7.1-10.3C143.7,298.8,142.2,302.9,142.2,309.1z"/>
	<path class="st0" d="M179.6,326.5l-11.9-34.3h9.9l7.6,24.6h0.1l7.7-24.6h9.4l-12,34.3H179.6z"/>
	<path class="st0" d="M213.8,311c0.2,5.1,3.1,8.5,9.3,8.5c2.9,0,6.2-0.1,10.6-1.4l1,7c-4.5,1.3-8.5,1.6-12.9,1.6
		c-13.1,0-17.7-6.9-17.7-17.7c0-10.7,4.6-17.7,17.5-17.7c10.2,0,13.6,5.1,14.3,11c0.3,2.6,0.1,5.5-0.3,8.6H213.8z M213.8,305.5H227
		c0.1-0.9,0.2-1.8,0.1-2.7c-0.3-2.6-1.8-4.6-6-4.6C216.2,298.2,214.1,301.1,213.8,305.5z"/>
	<path class="st0" d="M255,278.5h8.8v47.6H255V278.5z"/>
	<path class="st0" d="M279.6,311c0.2,5.1,3.1,8.5,9.3,8.5c2.9,0,6.2-0.1,10.6-1.4l1,7c-4.5,1.3-8.5,1.6-12.9,1.6
		c-13.1,0-17.7-6.9-17.7-17.7c0-10.7,4.6-17.7,17.5-17.7c10.2,0,13.6,5.1,14.3,11c0.3,2.6,0.1,5.5-0.3,8.6H279.6z M279.6,305.5h13.2
		c0.1-0.9,0.2-1.8,0.1-2.7c-0.3-2.6-1.8-4.6-6-4.6C282.1,298.2,280,301.1,279.6,305.5z"/>
	<path class="st0" d="M310.1,300.1l-1.3-7.1c4.8-1,9.9-1.6,14-1.6c8.6,0,13.4,2.2,13.4,11.4v23.3h-8.8v-3.4c-0.1,0-0.1,0-0.1,0
		c-2.9,3-5.8,4.1-10.1,4.1c-6.8,0-10.5-4.6-10.5-10.5c0-8.3,7.6-10.6,14.3-10.6h6.5v-2.4c0-3.5-2.2-4.6-6.6-4.6
		C318,298.8,315,299.1,310.1,300.1z M327.3,311h-5.9c-4,0-6,1.4-6,4.6c0,3,2.4,4.4,5.3,4.4c2.8,0,5.4-1.2,6.6-2.1V311z"/>
	<path class="st0" d="M351.8,326.1H343v-34h8.8v5.4h0.1c2.2-3.1,6.3-6.1,11.8-6.1v8.4c-4.6,0-9.2,1.2-11.9,2.6V326.1z"/>
	<path class="st0" d="M377.9,326.1h-8.8v-34h8.8v4.4h0.1c2.9-3.1,6.7-5.1,11.1-5.1c6.8,0,10.2,4.4,10.2,11.4v23.3h-8.8v-21.2
		c0-3.9-1.5-6.1-5.4-6.1c-2.8,0-5.4,1.5-7.1,2.6V326.1z"/>
	<path class="st0" d="M415.1,311c0.2,5.1,3.1,8.5,9.3,8.5c2.9,0,6.2-0.1,10.6-1.4l1,7c-4.5,1.3-8.5,1.6-12.9,1.6
		c-13.1,0-17.7-6.9-17.7-17.7c0-10.7,4.6-17.7,17.5-17.7c10.2,0,13.6,5.1,14.3,11c0.3,2.6,0.1,5.5-0.3,8.6H415.1z M415.1,305.5h13.2
		c0.1-0.9,0.2-1.8,0.1-2.7c-0.3-2.6-1.8-4.6-6-4.6C417.5,298.2,415.4,301.1,415.1,305.5z"/>
	<path class="st0" d="M451.9,326.1h-8.8v-34h8.8v5.4h0.1c2.2-3.1,6.3-6.1,11.8-6.1v8.4c-4.6,0-9.2,1.2-11.9,2.6V326.1z"/>
	<path class="st0" d="M481.8,309.1c0-10.7,4.6-17.7,16.5-17.7s16.5,7,16.5,17.7c0,10.7-4.5,17.7-16.5,17.7S481.8,319.9,481.8,309.1z
		 M491.2,309.1c0,6.3,1.6,10.4,7.1,10.4c5.6,0,7.1-4.1,7.1-10.4c0-6.3-1.6-10.3-7.1-10.3C492.7,298.8,491.2,302.9,491.2,309.1z"/>
	<path class="st0" d="M542.3,292.1h8.8v34h-8.8v-4.4h-0.1c-2.9,3.1-6.7,5.1-11.1,5.1c-6.8,0-10.2-4.4-10.2-11.4v-23.3h8.8v21.3
		c0,3.9,1.8,6.1,5.4,6.1c2.9,0,5.4-1.6,7.1-2.7V292.1z"/>
	<path class="st0" d="M560.7,298.5h-4.6v-5.8l4.6-0.5l1.1-9.5h7.8v9.5h8.5v6.3h-8.5v16.4c0,3.2,1.4,4.9,5,4.9c0.8,0,1.8-0.1,3.1-0.3
		l0.7,6.8c-1.9,0.4-5.1,0.6-6.9,0.6c-7.8,0-10.7-3.2-10.7-10.4V298.5z"/>
	<path class="st0" d="M598.9,291.4c4.4,0,7.8,0.6,11.9,1.6l-1.6,7.1c-5.6-1.4-7.8-1.4-10.3-1.4c-5.3,0-8.2,3.5-8.2,10.3
		c0,6.8,2.9,10.4,8.2,10.4c2.5,0,4.7,0,10.3-1.4l1.6,7c-4.1,1-7.5,1.6-11.9,1.6c-13.2,0-17.5-6.9-17.5-17.7
		C581.3,298.5,585.7,291.4,598.9,291.4z"/>
	<path class="st0" d="M613.1,309.1c0-10.7,4.6-17.7,16.5-17.7s16.5,7,16.5,17.7c0,10.7-4.5,17.7-16.5,17.7S613.1,319.9,613.1,309.1z
		 M622.5,309.1c0,6.3,1.6,10.4,7.1,10.4s7.1-4.1,7.1-10.4c0-6.3-1.6-10.3-7.1-10.3S622.5,302.9,622.5,309.1z"/>
	<path class="st0" d="M661.1,326.1h-8.8v-34h8.8v4.4h0.1c2.7-3,6.2-5.1,10.6-5.1c4.6,0,7.7,2,9.1,5.6c3.5-3.9,7.4-5.6,11.8-5.6
		c6.8,0,10.2,4.4,10.2,11.4v23.3h-8.8v-21.2c0-3.9-1.8-6.1-5.4-6.1c-2.6,0-5,1.5-6.7,2.7c0,1.2,0.1,2.4,0.1,3.9v20.8h-8.8v-21.6
		c-0.1-3.6-1.9-5.7-5.4-5.7c-2.7,0-5,1.5-6.7,2.6V326.1z"/>
	<path class="st0" d="M718.7,311c0.2,5.1,3.1,8.5,9.3,8.5c2.9,0,6.2-0.1,10.6-1.4l1,7c-4.5,1.3-8.5,1.6-12.9,1.6
		c-13.1,0-17.7-6.9-17.7-17.7c0-10.7,4.6-17.7,17.5-17.7c10.2,0,13.6,5.1,14.3,11c0.3,2.6,0.1,5.5-0.3,8.6H718.7z M718.7,305.5h13.2
		c0.1-0.9,0.2-1.8,0.1-2.7c-0.3-2.6-1.8-4.6-6-4.6C721.1,298.2,719,301.1,718.7,305.5z"/>
	<path class="st0" d="M761.2,326.8c-5.5,0-11.4-0.6-15.5-1.6l1.6-7c5.6,1.4,10.3,1.6,12.9,1.6c4.4,0,5.6-2,5.6-3.3
		c0-1.7-1.8-2.5-5.8-3.3c-7.7-1.3-13.5-3.8-13.5-11.5c0-7.3,5.2-10.2,13.5-10.2c5.5,0,10.2,0.6,14.3,1.6l-1.6,7.1
		c-5.6-1.4-9.7-1.6-12.2-1.6c-4.1,0-5.1,1.7-5.1,2.9c0,1.6,1.2,2.5,5.5,3.5c6.5,1.4,13.9,3.1,13.9,11
		C774.6,323.3,769.5,326.8,761.2,326.8z"/>
	<path class="st0" d="M789.3,316.3v9.9h-8.8v-9.9H789.3z"/>
</g>
</svg>
