<!-- Generator: Adobe Illustrator 19.2.1, SVG Export Plug-In  -->
<svg version="1.1"
	 xmlns="http://www.w3.org/2000/svg" xmlns:xlink="http://www.w3.org/1999/xlink" xmlns:a="http://ns.adobe.com/AdobeSVGViewerExtensions/3.0/"
	 x="0px" y="0px" width="647.6px" height="324.8px" viewBox="0 0 647.6 324.8" style="enable-background:new 0 0 647.6 324.8;"
	 xml:space="preserve">
<style type="text/css">
	.st0{clip-path:url(#SVGID_2_);}
	.st1{opacity:0.35;clip-path:url(#SVGID_4_);}
	.st2{clip-path:url(#SVGID_6_);fill:none;stroke:#838282;stroke-width:1.853;stroke-dasharray:7.49,7.49;}
	.st3{clip-path:url(#SVGID_8_);fill:none;stroke:#838282;stroke-width:1.853;stroke-dasharray:7.033,7.033;}
	.st4{clip-path:url(#SVGID_10_);fill:none;stroke:#838282;stroke-width:1.853;stroke-dasharray:7.035,7.035;}
	.st5{clip-path:url(#SVGID_4_);fill:#4BAABF;}
	.st6{clip-path:url(#SVGID_4_);fill:#166D88;}
	.st7{clip-path:url(#SVGID_4_);fill:#F4DBAC;}
	.st8{clip-path:url(#SVGID_4_);fill:#44A6B1;}
	.st9{clip-path:url(#SVGID_4_);fill:#249EAC;}
	.st10{clip-path:url(#SVGID_4_);fill:#278291;}
	.st11{clip-path:url(#SVGID_4_);fill:#C9483E;}
	.st12{clip-path:url(#SVGID_4_);fill:#DC9798;}
	.st13{clip-path:url(#SVGID_4_);fill:#D2726B;}
	.st14{clip-path:url(#SVGID_4_);fill:#E6B021;}
	.st15{clip-path:url(#SVGID_4_);fill:#F7DD6B;}
	.st16{clip-path:url(#SVGID_4_);fill:#EFC74C;}
	.st17{clip-path:url(#SVGID_4_);fill:#446073;}
	.st18{clip-path:url(#SVGID_2_);fill:#F4DBAC;}
	.st19{clip-path:url(#SVGID_2_);fill:#C19359;}
	.st20{clip-path:url(#SVGID_12_);fill:#4BAABF;}
	.st21{clip-path:url(#SVGID_12_);fill:#CB5577;}
	.st22{clip-path:url(#SVGID_12_);fill:#2E3C51;}
	.st23{clip-path:url(#SVGID_12_);fill:#A1CEDA;}
	.st24{clip-path:url(#SVGID_12_);fill:#166D88;}
	.st25{clip-path:url(#SVGID_14_);}
	.st26{opacity:0.35;clip-path:url(#SVGID_16_);}
	.st27{clip-path:url(#SVGID_18_);fill:none;stroke:#838282;stroke-width:1.853;stroke-dasharray:7.49,7.49;}
	.st28{clip-path:url(#SVGID_20_);fill:none;stroke:#838282;stroke-width:1.853;stroke-dasharray:7.033,7.033;}
	.st29{clip-path:url(#SVGID_22_);fill:none;stroke:#838282;stroke-width:1.853;stroke-dasharray:7.035,7.035;}
	.st30{clip-path:url(#SVGID_16_);fill:#4BAABF;}
	.st31{clip-path:url(#SVGID_16_);fill:#166D88;}
	.st32{clip-path:url(#SVGID_16_);fill:#F4DBAC;}
	.st33{clip-path:url(#SVGID_16_);fill:#44A6B1;}
	.st34{clip-path:url(#SVGID_16_);fill:#249EAC;}
	.st35{clip-path:url(#SVGID_16_);fill:#278291;}
	.st36{clip-path:url(#SVGID_16_);fill:#C9483E;}
	.st37{clip-path:url(#SVGID_16_);fill:#DC9798;}
	.st38{clip-path:url(#SVGID_16_);fill:#D2726B;}
	.st39{clip-path:url(#SVGID_16_);fill:#E6B021;}
	.st40{clip-path:url(#SVGID_16_);fill:#F7DD6B;}
	.st41{clip-path:url(#SVGID_16_);fill:#EFC74C;}
	.st42{clip-path:url(#SVGID_16_);fill:#446073;}
	.st43{clip-path:url(#SVGID_14_);fill:#F4DBAC;}
	.st44{clip-path:url(#SVGID_14_);fill:#C19359;}
	.st45{clip-path:url(#SVGID_24_);fill:#4BAABF;}
	.st46{clip-path:url(#SVGID_24_);fill:#CB5577;}
	.st47{clip-path:url(#SVGID_24_);fill:#2E3C51;}
	.st48{clip-path:url(#SVGID_24_);fill:#A1CEDA;}
	.st49{clip-path:url(#SVGID_24_);fill:#166D88;}
</style>
<defs>
</defs>
<g>
	<defs>
		<rect id="SVGID_1_" x="0" width="647.6" height="324.8"/>
	</defs>
	<clipPath id="SVGID_2_">
		<use xlink:href="#SVGID_1_"  style="overflow:visible;"/>
	</clipPath>
	<g class="st0">
		<defs>
			<rect id="SVGID_3_" x="0" width="647.6" height="324.8"/>
		</defs>
		<clipPath id="SVGID_4_">
			<use xlink:href="#SVGID_3_"  style="overflow:visible;"/>
		</clipPath>
		<g class="st1">
			<g>
				<defs>
					<rect id="SVGID_5_" x="61.5" y="33" width="144.7" height="24.3"/>
				</defs>
				<clipPath id="SVGID_6_">
					<use xlink:href="#SVGID_5_"  style="overflow:visible;"/>
				</clipPath>
				<line class="st2" x1="70.6" y1="40.9" x2="197.1" y2="55.4"/>
			</g>
		</g>
		<g class="st1">
			<g>
				<defs>
					<rect id="SVGID_7_" x="285.9" y="194.2" width="43.9" height="60.6"/>
				</defs>
				<clipPath id="SVGID_8_">
					<use xlink:href="#SVGID_7_"  style="overflow:visible;"/>
				</clipPath>
				<line class="st3" x1="305" y1="251.9" x2="311.7" y2="203.1"/>
			</g>
		</g>
		<g class="st1">
			<g>
				<defs>
					<rect id="SVGID_9_" x="463.2" y="74.4" width="122.8" height="24.3"/>
				</defs>
				<clipPath id="SVGID_10_">
					<use xlink:href="#SVGID_9_"  style="overflow:visible;"/>
				</clipPath>
				<line class="st4" x1="576.9" y1="90.8" x2="472.4" y2="76.3"/>
			</g>
		</g>
		<path class="st5" d="M337.5,289.6c0,19.5-15.8,35.3-35.3,35.3c-19.5,0-35.3-15.8-35.3-35.3s15.8-35.3,35.3-35.3
			C321.8,254.3,337.5,270.1,337.5,289.6"/>
		<path class="st6" d="M292.6,267.9c-0.1-0.2-0.3-0.2-0.4,0l-1.9,4.2h4.1L292.6,267.9z"/>
		<path class="st7" d="M294.5,272.1h-4.1l-2,4.4c-0.1,0.1,0.1,0.3,0.2,0.3h3.8h3.8c0.2,0,0.3-0.2,0.2-0.3L294.5,272.1z"/>
		<path class="st8" d="M291,277c0-0.7-0.6-1.4-1.4-1.4h0c-0.7,0-1.4,0.6-1.4,1.4v34.3h2.7V277z"/>
		<path class="st9" d="M293.8,311.3V277c0-0.7-0.6-1.4-1.4-1.4h0c-0.7,0-1.4,0.6-1.4,1.4v34.3H293.8z"/>
		<path class="st10" d="M296.5,311.3V277c0-0.7-0.6-1.4-1.4-1.4h0c-0.7,0-1.4,0.6-1.4,1.4v34.3H296.5z"/>
		<path class="st11" d="M302.7,267.9c-0.1-0.2-0.3-0.2-0.4,0l-1.9,4.2h4.1L302.7,267.9z"/>
		<path class="st7" d="M304.5,272.1h-4.1l-2,4.4c-0.1,0.1,0.1,0.3,0.2,0.3h3.8h3.8c0.2,0,0.3-0.2,0.2-0.3L304.5,272.1z"/>
		<path class="st12" d="M301.1,277c0-0.7-0.6-1.4-1.4-1.4h0c-0.7,0-1.4,0.6-1.4,1.4v34.3h2.7V277z"/>
		<path class="st13" d="M303.8,311.3V277c0-0.7-0.6-1.4-1.4-1.4h0c-0.7,0-1.4,0.6-1.4,1.4v34.3H303.8z"/>
		<path class="st11" d="M306.6,311.3V277c0-0.7-0.6-1.4-1.4-1.4h0c-0.7,0-1.4,0.6-1.4,1.4v34.3H306.6z"/>
		<path class="st14" d="M312.3,267.9c-0.1-0.2-0.3-0.2-0.4,0l-1.9,4.2h4.1L312.3,267.9z"/>
		<path class="st7" d="M314.2,272.1h-4.1l-2,4.4c-0.1,0.1,0.1,0.3,0.2,0.3h3.8h3.8c0.2,0,0.3-0.2,0.2-0.3L314.2,272.1z"/>
		<path class="st15" d="M310.8,277c0-0.7-0.6-1.4-1.4-1.4h0c-0.7,0-1.4,0.6-1.4,1.4v34.3h2.7V277z"/>
		<path class="st16" d="M313.5,311.3V277c0-0.7-0.6-1.4-1.4-1.4h0c-0.7,0-1.4,0.6-1.4,1.4v34.3H313.5z"/>
		<path class="st14" d="M316.2,311.3V277c0-0.7-0.6-1.4-1.4-1.4h0c-0.7,0-1.4,0.6-1.4,1.4v34.3H316.2z"/>
		<path class="st17" d="M647.6,91.7c0,19.6-15.8,35.4-35.3,35.4c-19.5,0-35.3-15.8-35.3-35.4s15.8-35.4,35.3-35.4
			C631.8,56.3,647.6,72.2,647.6,91.7"/>
	</g>
	<path class="st18" d="M617.7,81.5v23.9h-15.8L617.7,81.5z M622.1,66.7l-0.2,0.3l-0.2,0.4l-0.3,0.4l-0.2,0.4l-0.3,0.4l-0.2,0.4
		l-27.3,41.3h28.9V69.1v-0.4v-0.4v-0.4v-0.4V67V66.7z"/>
	<rect x="620.4" y="109.5" class="st19" width="1.7" height="0.4"/>
	<rect x="620.4" y="108.7" class="st19" width="1.7" height="0.4"/>
	<rect x="620.4" y="107.9" class="st19" width="1.7" height="0.4"/>
	<rect x="620.4" y="107.1" class="st19" width="1.7" height="0.4"/>
	<rect x="620.4" y="106.3" class="st19" width="1.7" height="0.4"/>
	<rect x="620.4" y="105.4" class="st19" width="1.7" height="0.4"/>
	<rect x="620.4" y="104.6" class="st19" width="1.7" height="0.4"/>
	<rect x="620.4" y="103.8" class="st19" width="1.7" height="0.4"/>
	<rect x="620.4" y="103" class="st19" width="1.7" height="0.4"/>
	<rect x="620.4" y="102.2" class="st19" width="1.7" height="0.4"/>
	<rect x="620.4" y="101.4" class="st19" width="1.7" height="0.4"/>
	<rect x="620.4" y="100.5" class="st19" width="1.7" height="0.4"/>
	<rect x="620.4" y="99.7" class="st19" width="1.7" height="0.4"/>
	<rect x="620.4" y="98.9" class="st19" width="1.7" height="0.4"/>
	<rect x="620.4" y="98.1" class="st19" width="1.7" height="0.4"/>
	<rect x="620.4" y="97.3" class="st19" width="1.7" height="0.4"/>
	<rect x="620.4" y="96.5" class="st19" width="1.7" height="0.4"/>
	<rect x="620.4" y="95.6" class="st19" width="1.7" height="0.4"/>
	<rect x="620.4" y="94.8" class="st19" width="1.7" height="0.4"/>
	<rect x="620.4" y="94" class="st19" width="1.7" height="0.4"/>
	<rect x="620.4" y="93.2" class="st19" width="1.7" height="0.4"/>
	<rect x="620.4" y="92.4" class="st19" width="1.7" height="0.4"/>
	<rect x="620.4" y="91.6" class="st19" width="1.7" height="0.4"/>
	<rect x="620.4" y="90.7" class="st19" width="1.7" height="0.4"/>
	<rect x="620.4" y="89.9" class="st19" width="1.7" height="0.4"/>
	<rect x="620.4" y="89.1" class="st19" width="1.7" height="0.4"/>
	<rect x="620.4" y="88.3" class="st19" width="1.7" height="0.4"/>
	<rect x="620.4" y="87.5" class="st19" width="1.7" height="0.4"/>
	<rect x="620.4" y="86.7" class="st19" width="1.7" height="0.4"/>
	<rect x="620.4" y="85.8" class="st19" width="1.7" height="0.4"/>
	<rect x="620.4" y="85" class="st19" width="1.7" height="0.4"/>
	<rect x="620.4" y="84.2" class="st19" width="1.7" height="0.4"/>
	<rect x="620.4" y="83.4" class="st19" width="1.7" height="0.4"/>
	<rect x="620.4" y="82.6" class="st19" width="1.7" height="0.4"/>
	<rect x="620.4" y="81.7" class="st19" width="1.7" height="0.4"/>
	<rect x="620.4" y="80.9" class="st19" width="1.7" height="0.4"/>
	<rect x="620.4" y="80.1" class="st19" width="1.7" height="0.4"/>
	<rect x="620.4" y="79.3" class="st19" width="1.7" height="0.4"/>
	<rect x="620.4" y="78.5" class="st19" width="1.7" height="0.4"/>
	<rect x="620.4" y="77.7" class="st19" width="1.7" height="0.4"/>
	<rect x="620.4" y="76.8" class="st19" width="1.7" height="0.4"/>
	<rect x="620.4" y="76" class="st19" width="1.7" height="0.4"/>
	<rect x="620.4" y="75.2" class="st19" width="1.7" height="0.4"/>
	<rect x="620.4" y="74.4" class="st19" width="1.7" height="0.4"/>
	<rect x="620.4" y="73.6" class="st19" width="1.7" height="0.4"/>
	<rect x="620.4" y="72.8" class="st19" width="1.7" height="0.4"/>
	<rect x="620.4" y="71.9" class="st19" width="1.7" height="0.4"/>
	<rect x="620.4" y="71.1" class="st19" width="1.7" height="0.4"/>
	<rect x="620.4" y="70.3" class="st19" width="1.7" height="0.4"/>
	<rect x="620.4" y="69.5" class="st19" width="1.7" height="0.4"/>
	<polygon class="st19" points="620.8,68.7 620.6,69.1 622.1,69.1 622.1,68.7 	"/>
	<polygon class="st19" points="621.4,67.9 621.1,68.2 622.1,68.2 622.1,67.9 	"/>
	<polygon class="st19" points="621.9,67 621.7,67.4 622.1,67.4 622.1,67 	"/>
	<g class="st0">
		<defs>
			<rect id="SVGID_11_" x="0" width="647.6" height="324.8"/>
		</defs>
		<clipPath id="SVGID_12_">
			<use xlink:href="#SVGID_11_"  style="overflow:visible;"/>
		</clipPath>
		<path class="st20" d="M70.5,35.3c0,19.5-15.8,35.3-35.3,35.3C15.8,70.5,0,54.8,0,35.3C0,15.8,15.8,0,35.3,0
			C54.8,0,70.5,15.8,70.5,35.3"/>
		<path class="st21" d="M55.1,19.5c-2.2-2.9-6.3-3.5-9.3-1.3c-2.6,2-3.4,5.5-1.9,8.3l1.3,1.8c2.3,2.2,5.9,2.5,8.5,0.5
			C56.7,26.6,57.3,22.5,55.1,19.5"/>
		<path class="st22" d="M41.6,27.9l1.3,1.8l2.2-1.2c0,0,0.1-0.1,0.1-0.1c0,0,0,0,0.1-0.1l-1.3-1.8L41.6,27.9z"/>
		<path class="st23" d="M41.6,27.9c-1.3-1.3-2.9-2-4.6-2.2c0,0,0,0,0,0l-2.2,0.2c-0.9,0.2-1.9,0.6-2.7,1.3c-1.1,0.8-1.8,1.8-2.3,3
			l-0.5,2.2c-0.2,1.7,0.3,3.5,1.4,5c1.2,1.5,2.8,2.5,4.6,2.8l2.2,0c1.2-0.2,2.3-0.6,3.3-1.4c2.8-2.1,3.7-5.9,2.1-9L41.6,27.9z"/>
		<path class="st22" d="M29,47.7l-2.6,0.6l0.4,2.2l2.6-0.6c0,0,0.1,0,0.1,0L29,47.7C29.1,47.7,29.1,47.7,29,47.7"/>
		<path class="st22" d="M35.2,40.7l2.2,0.2c0-0.1,0-0.2,0-0.2l0-0.6l-2.2,0L35.2,40.7z"/>
		<path class="st21" d="M41,43.3c-0.9-1.2-2.2-2.1-3.6-2.4l-2.2-0.2c-1.2,0.1-2.4,0.5-3.5,1.3c-1.9,1.4-2.8,3.6-2.6,5.7l0.5,2.1
			c0.2,0.5,0.5,1,0.8,1.4c2.2,2.9,6.3,3.5,9.3,1.3C42.6,50.4,43.2,46.2,41,43.3"/>
		<path class="st23" d="M25.8,47.2c-1.8-2.4-5.3-2.9-7.7-1.1s-2.9,5.3-1.1,7.7c1.8,2.4,5.3,2.9,7.7,1.1c1.4-1.1,2.2-2.7,2.2-4.4
			l-0.4-2.2C26.3,47.9,26.1,47.5,25.8,47.2"/>
		<path class="st22" d="M36.9,25.6l-0.2-1.5l-2.2,0.3l0.2,1.5c0,0,0,0,0,0L36.9,25.6C36.9,25.6,36.9,25.6,36.9,25.6"/>
		<path class="st24" d="M38.8,16.6c-1.6-2.2-4.7-2.6-6.9-1c-2.2,1.6-2.6,4.7-1,6.9c0.9,1.2,2.2,1.8,3.6,1.9l2.2-0.3
			c0.4-0.2,0.8-0.4,1.1-0.6C40,21.8,40.4,18.7,38.8,16.6"/>
		<path class="st22" d="M27.5,29.6C27.5,29.6,27.4,29.6,27.5,29.6L27,31.8c0,0,0.1,0,0.1,0l2.2,0.4l0.5-2.2L27.5,29.6z"/>
		<path class="st24" d="M26.1,25.5c-2.2-2.9-6.3-3.5-9.3-1.3c-2.9,2.2-3.5,6.3-1.3,9.3c2.2,2.9,6.3,3.5,9.3,1.3
			c1-0.8,1.8-1.8,2.2-2.9l0.4-2.2C27.4,28.2,27,26.7,26.1,25.5"/>
	</g>
</g>
</svg>
