<!-- Generator: Adobe Illustrator 19.2.1, SVG Export Plug-In  -->
<svg version="1.1"
	 xmlns="http://www.w3.org/2000/svg" xmlns:xlink="http://www.w3.org/1999/xlink" xmlns:a="http://ns.adobe.com/AdobeSVGViewerExtensions/3.0/"
	 x="0px" y="0px" width="1054.9px" height="131.5px" viewBox="0 0 1054.9 131.5" style="enable-background:new 0 0 1054.9 131.5;"
	 xml:space="preserve">
<style type="text/css">
	.st0{fill:#2DA1B4;}
</style>
<defs>
</defs>
<g>
	<path class="st0" d="M163.6,9.7v37.9h-9.4V9.7h-12.2V1.4h33.7v8.4H163.6z"/>
	<path class="st0" d="M171.1,30.6c0-10.7,4.6-17.7,16.5-17.7s16.5,7,16.5,17.7c0,10.7-4.5,17.7-16.5,17.7S171.1,41.3,171.1,30.6z
		 M180.5,30.6c0,6.3,1.6,10.4,7.1,10.4c5.6,0,7.1-4.1,7.1-10.4c0-6.3-1.6-10.3-7.1-10.3C182,20.3,180.5,24.3,180.5,30.6z"/>
	<path class="st0" d="M240.3,12.9c4.4,0,7.8,0.6,11.9,1.6l-1.6,7.1c-5.6-1.4-7.8-1.4-10.3-1.4c-5.3,0-8.2,3.5-8.2,10.3
		c0,6.8,2.9,10.4,8.2,10.4c2.5,0,4.7,0,10.3-1.4l1.6,7c-4.1,1-7.5,1.6-11.9,1.6c-13.2,0-17.5-6.9-17.5-17.7
		C222.8,19.9,227.1,12.9,240.3,12.9z"/>
	<path class="st0" d="M254.6,30.6c0-10.7,4.6-17.7,16.5-17.7s16.5,7,16.5,17.7c0,10.7-4.5,17.7-16.5,17.7S254.6,41.3,254.6,30.6z
		 M264,30.6c0,6.3,1.6,10.4,7.1,10.4c5.6,0,7.1-4.1,7.1-10.4c0-6.3-1.6-10.3-7.1-10.3C265.5,20.3,264,24.3,264,30.6z"/>
	<path class="st0" d="M302.5,47.6h-8.8v-34h8.8V18h0.1c2.9-3.1,6.7-5.1,11.1-5.1c6.8,0,10.2,4.4,10.2,11.4v23.3h-8.8V26.4
		c0-3.9-1.5-6.1-5.4-6.1c-2.8,0-5.4,1.5-7.1,2.6V47.6z"/>
	<path class="st0" d="M333.4,19.9h-4.6v-5.8l4.6-0.5l1.1-9.5h7.8v9.5h8.5v6.3h-8.5v16.4c0,3.2,1.4,4.9,5,4.9c0.8,0,1.8-0.1,3.1-0.3
		l0.7,6.8c-1.9,0.4-5.1,0.6-6.9,0.6c-7.8,0-10.7-3.2-10.7-10.4V19.9z"/>
	<path class="st0" d="M366,47.6h-8.8v-34h8.8V19h0.1c2.2-3.1,6.3-6.1,11.8-6.1v8.4c-4.6,0-9.2,1.2-11.9,2.6V47.6z"/>
	<path class="st0" d="M392.1,1.4v9.4h-8.8V1.4H392.1z M392.1,13.6v34h-8.8v-34H392.1z"/>
	<path class="st0" d="M407.7,17h0.1c2.2-2.4,5.9-4.1,9.6-4.1c9.5,0,12.4,8,12.4,17.7c0,9.7-3.4,17.7-12.9,17.7
		c-3.4,0-7.1-1.4-9.5-3.8h-0.1l-1.6,3.4h-6.8V0h8.8V17z M413.8,20.3c-2.9,0-5,1.3-6.1,2.1v16.5c1.1,0.9,3.3,2.2,6.1,2.2
		c5.2,0,6.7-4.6,6.7-10.4S419.1,20.3,413.8,20.3z"/>
	<path class="st0" d="M457.3,13.6h8.8v34h-8.8v-4.4h-0.1c-2.9,3.1-6.7,5.1-11.1,5.1c-6.8,0-10.2-4.4-10.2-11.4V13.6h8.8v21.3
		c0,3.9,1.8,6.1,5.4,6.1c2.9,0,5.4-1.6,7.1-2.7V13.6z"/>
	<path class="st0" d="M475.6,19.9H471v-5.8l4.6-0.5l1.1-9.5h7.8v9.5h8.5v6.3h-8.5v16.4c0,3.2,1.4,4.9,5,4.9c0.8,0,1.8-0.1,3.1-0.3
		l0.7,6.8c-1.9,0.4-5.1,0.6-6.9,0.6c-7.8,0-10.7-3.2-10.7-10.4V19.9z"/>
	<path class="st0" d="M505.9,32.5c0.2,5.1,3.1,8.5,9.3,8.5c2.9,0,6.2-0.1,10.6-1.4l1,7c-4.5,1.3-8.5,1.6-12.9,1.6
		c-13.1,0-17.7-6.9-17.7-17.7c0-10.7,4.6-17.7,17.5-17.7c10.2,0,13.6,5.1,14.3,11c0.3,2.6,0.1,5.5-0.3,8.6H505.9z M505.9,26.9h13.2
		c0.1-0.9,0.2-1.8,0.1-2.7c-0.3-2.6-1.8-4.6-6-4.6C508.4,19.7,506.3,22.6,505.9,26.9z"/>
	<path class="st0" d="M550,19.9h-4.6v-5.8l4.6-0.5l1.1-9.5h7.8v9.5h8.5v6.3h-8.5v16.4c0,3.2,1.4,4.9,5,4.9c0.8,0,1.8-0.1,3.1-0.3
		l0.7,6.8c-1.9,0.4-5.1,0.6-6.9,0.6c-7.8,0-10.7-3.2-10.7-10.4V19.9z"/>
	<path class="st0" d="M570.6,30.6c0-10.7,4.6-17.7,16.5-17.7s16.5,7,16.5,17.7c0,10.7-4.5,17.7-16.5,17.7S570.6,41.3,570.6,30.6z
		 M580,30.6c0,6.3,1.6,10.4,7.1,10.4s7.1-4.1,7.1-10.4c0-6.3-1.6-10.3-7.1-10.3S580,24.3,580,30.6z"/>
	<path class="st0" d="M631.7,1.4v9.4h-8.8V1.4H631.7z M631.7,13.6v34h-8.8v-34H631.7z"/>
	<path class="st0" d="M647.3,47.6h-8.8v-34h8.8V18h0.1c2.7-3,6.2-5.1,10.6-5.1c4.6,0,7.7,2,9.1,5.6c3.5-3.9,7.4-5.6,11.8-5.6
		c6.8,0,10.2,4.4,10.2,11.4v23.3h-8.8V26.4c0-3.9-1.8-6.1-5.4-6.1c-2.6,0-5,1.5-6.7,2.7c0,1.2,0.1,2.4,0.1,3.9v20.8h-8.8V26
		c-0.1-3.6-1.9-5.7-5.4-5.7c-2.7,0-5,1.5-6.7,2.6V47.6z"/>
	<path class="st0" d="M704.7,17h0.1c2.2-2.4,5.9-4.1,9.6-4.1c9.5,0,12.4,8,12.4,17.7c0,9.7-3.4,17.7-12.9,17.7c-3.4,0-6.9-1.4-9-3.8
		h-0.1v16.7h-8.8V13.6h8.8V17z M710.9,20.3c-2.9,0-5,1.3-6.1,2.1v16.5c1.1,0.9,3.3,2.2,6.1,2.2c5.2,0,6.7-4.6,6.7-10.4
		S716.1,20.3,710.9,20.3z"/>
	<path class="st0" d="M741.8,47.6H733v-34h8.8V19h0.1c2.2-3.1,6.3-6.1,11.8-6.1v8.4c-4.6,0-9.2,1.2-11.9,2.6V47.6z"/>
	<path class="st0" d="M755.6,30.6c0-10.7,4.6-17.7,16.5-17.7s16.5,7,16.5,17.7c0,10.7-4.5,17.7-16.5,17.7S755.6,41.3,755.6,30.6z
		 M765,30.6c0,6.3,1.6,10.4,7.1,10.4s7.1-4.1,7.1-10.4c0-6.3-1.6-10.3-7.1-10.3S765,24.3,765,30.6z"/>
	<path class="st0" d="M802.4,47.9l-11.9-34.3h9.9l7.6,24.6h0.1l7.7-24.6h9.4l-12,34.3H802.4z"/>
	<path class="st0" d="M839.6,1.4v9.4h-8.8V1.4H839.6z M839.6,13.6v34h-8.8v-34H839.6z"/>
	<path class="st0" d="M855.2,47.6h-8.8v-34h8.8V18h0.1c2.9-3.1,6.7-5.1,11.1-5.1c6.8,0,10.2,4.4,10.2,11.4v23.3h-8.8V26.4
		c0-3.9-1.5-6.1-5.4-6.1c-2.8,0-5.4,1.5-7.1,2.6V47.6z"/>
	<path class="st0" d="M886.2,46c-1.8-1.1-2.7-2.9-2.7-4.7c0-2.5,1.7-5.3,5.2-7.1V34c-3.4-1.7-5.5-5.2-5.5-9.5
		c0-7.8,5.6-11.6,14.3-11.6c1.8,0,3.5,0.3,4.9,0.7H915v5.3h-5.4c1.3,1.4,2,3.3,2,5.6c0,7.9-5.9,11.4-14,11.4c-2.1,0-3.7-0.5-4.4-0.7
		c-0.4,0.5-0.7,1-1,1.5c-0.6,1.6-0.5,3.3,1.7,3.5l11.6,0.8c6.9,0.5,10.4,3.1,10.4,8.5c0,8.6-6.5,12.4-20.4,12.4
		c-10.1,0-14.6-2.8-14.6-8.8c0-2.9,1.6-5.1,5.3-6.9V46z M896.9,56.1c4.9,0,9.6-1.5,9.6-5c0-1.6-1.2-2.9-4.1-3.1l-11.9-0.7
		c-1.3,1.2-2.3,2.1-2.3,4.2C888.1,55.1,892.2,56.1,896.9,56.1z M903.4,24.5c0-3.8-2.4-5.8-5.9-5.8c-3.8,0-6.1,2-6.1,5.8
		c0,3.8,2.4,5.6,6.1,5.6C901.1,30.1,903.4,28.3,903.4,24.5z"/>
</g>
<g>
	<path class="st0" d="M4.6,89.6H0v-5.8l4.6-0.5l1.1-9.5h7.8v9.5h8.5v6.3h-8.5v16.4c0,3.2,1.4,4.9,5,4.9c0.8,0,1.8-0.1,3.1-0.3
		l0.7,6.8c-1.9,0.4-5.1,0.6-6.9,0.6c-7.8,0-10.7-3.2-10.7-10.4V89.6z"/>
	<path class="st0" d="M37.1,117.2h-8.8V69.6h8.8v18h0.1c2.9-3.1,6.7-5.1,11.1-5.1c6.8,0,10.2,4.4,10.2,11.4v23.3h-8.8V96
		c0-3.9-1.5-6.1-5.4-6.1c-2.8,0-5.4,1.5-7.1,2.6V117.2z"/>
	<path class="st0" d="M74.3,102.1c0.2,5.1,3.1,8.5,9.3,8.5c2.9,0,6.2-0.1,10.6-1.4l1,7c-4.5,1.3-8.5,1.6-12.9,1.6
		c-13.1,0-17.7-6.9-17.7-17.7c0-10.7,4.6-17.7,17.5-17.7c10.2,0,13.6,5.1,14.3,11c0.3,2.6,0.1,5.5-0.3,8.6H74.3z M74.3,96.6h13.2
		c0.1-0.9,0.2-1.8,0.1-2.7c-0.3-2.6-1.8-4.6-6-4.6C76.7,89.3,74.6,92.2,74.3,96.6z"/>
	<path class="st0" d="M136.9,113.8h-0.1c-2.1,2.4-5.8,4.1-9.5,4.1c-9.5,0-12.4-8-12.4-17.7c0-9.7,3.4-17.7,12.9-17.7
		c3.5,0,7.1,1.4,9.6,3.8h0.1l1.6-3.4h6.7v47.9h-8.8V113.8z M130.8,110.6c2.9,0,5.1-1.3,6.1-2.2V92c-1-0.8-3.2-2.1-6.1-2.1
		c-5.2,0-6.6,4.6-6.6,10.3S125.7,110.6,130.8,110.6z"/>
	<path class="st0" d="M174,83.2h8.8v34H174v-4.4h-0.1c-2.9,3.1-6.7,5.1-11.1,5.1c-6.8,0-10.2-4.4-10.2-11.4V83.2h8.8v21.3
		c0,3.9,1.8,6.1,5.4,6.1c2.9,0,5.4-1.6,7.1-2.7V83.2z"/>
	<path class="st0" d="M192.1,91.2l-1.3-7.1c4.8-1,9.9-1.6,14-1.6c8.6,0,13.4,2.2,13.4,11.4v23.3h-8.8v-3.4c-0.1,0-0.1,0-0.1,0
		c-2.9,3-5.8,4.1-10.1,4.1c-6.8,0-10.5-4.6-10.5-10.5c0-8.3,7.6-10.6,14.3-10.6h6.5v-2.4c0-3.5-2.2-4.6-6.6-4.6
		C200.1,89.9,197,90.2,192.1,91.2z M209.4,102.1h-5.9c-4,0-6,1.4-6,4.6c0,3,2.4,4.4,5.3,4.4c2.8,0,5.4-1.2,6.6-2.1V102.1z"/>
	<path class="st0" d="M225,69.6h8.8v47.6H225V69.6z"/>
	<path class="st0" d="M249.5,71v9.4h-8.8V71H249.5z M249.5,83.2v34h-8.8v-34H249.5z"/>
	<path class="st0" d="M259,89.6h-4.6v-5.8l4.6-0.5l1.1-9.5h7.8v9.5h8.5v6.3h-8.5v16.4c0,3.2,1.4,4.9,5,4.9c0.8,0,1.8-0.1,3.1-0.3
		l0.7,6.8c-1.9,0.4-5.1,0.6-6.9,0.6c-7.8,0-10.7-3.2-10.7-10.4V89.6z"/>
	<path class="st0" d="M281.6,83.2h9.9l7.8,24.8h0.1l7.5-24.8h9.4l-12,35.2c-3.3,9.7-7.6,13.1-15.2,13.1c-1.8,0-4.4-0.2-6.1-0.6
		l0.8-7.3c1,0.2,2.5,0.3,3.3,0.3c3.3,0,5.8-2.5,7.1-6.3L281.6,83.2z"/>
	<path class="st0" d="M334.3,100.2c0-10.7,4.6-17.7,16.5-17.7s16.5,7,16.5,17.7c0,10.7-4.5,17.7-16.5,17.7S334.3,111,334.3,100.2z
		 M343.7,100.2c0,6.3,1.6,10.4,7.1,10.4c5.6,0,7.1-4.1,7.1-10.4c0-6.3-1.6-10.3-7.1-10.3C345.2,89.9,343.7,94,343.7,100.2z"/>
	<path class="st0" d="M384.9,83.2h7.1v6.3h-7.1v27.7h-8.8V89.6h-4.6v-5.8l4.6-0.5v-3.5c0-6.7,2.2-10.1,10.7-10.1
		c1.8,0,4,0.3,5.9,0.6L392,77c-1.3-0.2-2.3-0.3-3.1-0.3c-3,0-3.9,0.7-3.9,3.7V83.2z"/>
	<path class="st0" d="M413.8,89.6h-4.6v-5.8l4.6-0.5l1.1-9.5h7.8v9.5h8.5v6.3h-8.5v16.4c0,3.2,1.4,4.9,5,4.9c0.8,0,1.8-0.1,3.1-0.3
		l0.7,6.8c-1.9,0.4-5.1,0.6-6.9,0.6c-7.8,0-10.7-3.2-10.7-10.4V89.6z"/>
	<path class="st0" d="M444.1,102.1c0.2,5.1,3.1,8.5,9.3,8.5c2.9,0,6.2-0.1,10.6-1.4l1,7c-4.5,1.3-8.5,1.6-12.9,1.6
		c-13.1,0-17.7-6.9-17.7-17.7c0-10.7,4.6-17.7,17.5-17.7c10.2,0,13.6,5.1,14.3,11c0.3,2.6,0.1,5.5-0.3,8.6H444.1z M444.1,96.6h13.2
		c0.1-0.9,0.2-1.8,0.1-2.7c-0.3-2.6-1.8-4.6-6-4.6C446.5,89.3,444.4,92.2,444.1,96.6z"/>
	<path class="st0" d="M474.6,91.2l-1.3-7.1c4.8-1,9.9-1.6,14-1.6c8.6,0,13.4,2.2,13.4,11.4v23.3h-8.8v-3.4c-0.1,0-0.1,0-0.1,0
		c-2.9,3-5.8,4.1-10.1,4.1c-6.8,0-10.5-4.6-10.5-10.5c0-8.3,7.6-10.6,14.3-10.6h6.5v-2.4c0-3.5-2.2-4.6-6.6-4.6
		C482.5,89.9,479.5,90.2,474.6,91.2z M491.8,102.1h-5.9c-4,0-6,1.4-6,4.6c0,3,2.4,4.4,5.3,4.4c2.8,0,5.4-1.2,6.6-2.1V102.1z"/>
	<path class="st0" d="M524.3,82.5c4.4,0,7.8,0.6,11.9,1.6l-1.6,7.1c-5.6-1.4-7.8-1.4-10.3-1.4c-5.3,0-8.2,3.5-8.2,10.3
		c0,6.8,2.9,10.4,8.2,10.4c2.5,0,4.7,0,10.3-1.4l1.6,7c-4.1,1-7.5,1.6-11.9,1.6c-13.2,0-17.5-6.9-17.5-17.7
		C506.8,89.6,511.1,82.5,524.3,82.5z"/>
	<path class="st0" d="M549.9,117.2h-8.8V69.6h8.8v18h0.1c2.9-3.1,6.7-5.1,11.1-5.1c6.8,0,10.2,4.4,10.2,11.4v23.3h-8.8V96
		c0-3.9-1.5-6.1-5.4-6.1c-2.8,0-5.4,1.5-7.1,2.6V117.2z"/>
	<path class="st0" d="M587,71v9.4h-8.8V71H587z M587,83.2v34h-8.8v-34H587z"/>
	<path class="st0" d="M602.6,117.2h-8.8v-34h8.8v4.4h0.1c2.9-3.1,6.7-5.1,11.1-5.1c6.8,0,10.2,4.4,10.2,11.4v23.3h-8.8V96
		c0-3.9-1.5-6.1-5.4-6.1c-2.8,0-5.4,1.5-7.1,2.6V117.2z"/>
	<path class="st0" d="M633.5,115.6c-1.8-1.1-2.7-2.9-2.7-4.7c0-2.5,1.7-5.3,5.2-7.1v-0.1c-3.4-1.7-5.5-5.2-5.5-9.5
		c0-7.8,5.6-11.6,14.3-11.6c1.8,0,3.5,0.3,4.9,0.7h12.6v5.3h-5.4c1.3,1.4,2,3.3,2,5.6c0,7.9-5.9,11.4-14,11.4
		c-2.1,0-3.7-0.5-4.4-0.7c-0.4,0.5-0.7,1-1,1.5c-0.6,1.6-0.5,3.3,1.7,3.5l11.6,0.8c6.9,0.5,10.4,3.1,10.4,8.5
		c0,8.6-6.5,12.4-20.4,12.4c-10.1,0-14.6-2.8-14.6-8.8c0-2.9,1.6-5.1,5.3-6.9V115.6z M644.3,125.7c4.9,0,9.6-1.5,9.6-5
		c0-1.6-1.2-2.9-4.1-3.1l-11.9-0.7c-1.3,1.2-2.3,2.1-2.3,4.2C635.5,124.7,639.6,125.7,644.3,125.7z M650.8,94.1
		c0-3.8-2.4-5.8-5.9-5.8c-3.8,0-6.1,2-6.1,5.8c0,3.8,2.4,5.6,6.1,5.6C648.4,99.8,650.8,97.9,650.8,94.1z"/>
	<path class="st0" d="M684.2,91.2l-1.3-7.1c4.8-1,9.9-1.6,14-1.6c8.6,0,13.4,2.2,13.4,11.4v23.3h-8.8v-3.4c-0.1,0-0.1,0-0.1,0
		c-2.9,3-5.8,4.1-10.1,4.1c-6.8,0-10.5-4.6-10.5-10.5c0-8.3,7.6-10.6,14.3-10.6h6.5v-2.4c0-3.5-2.2-4.6-6.6-4.6
		C692.2,89.9,689.1,90.2,684.2,91.2z M701.5,102.1h-5.9c-4,0-6,1.4-6,4.6c0,3,2.4,4.4,5.3,4.4c2.8,0,5.4-1.2,6.6-2.1V102.1z"/>
	<path class="st0" d="M726,117.2h-8.8v-34h8.8v4.4h0.1c2.9-3.1,6.7-5.1,11.1-5.1c6.8,0,10.2,4.4,10.2,11.4v23.3h-8.8V96
		c0-3.9-1.5-6.1-5.4-6.1c-2.8,0-5.4,1.5-7.1,2.6V117.2z"/>
	<path class="st0" d="M775.6,113.8c-0.1,0-0.1,0-0.1,0c-2.1,2.4-5.8,4.1-9.5,4.1c-9.5,0-12.4-8-12.4-17.7c0-9.7,3.4-17.7,12.9-17.7
		c3.5,0,6.9,1.4,9,3.8c0.1,0,0.1,0,0.1,0V69.6h8.8v47.6h-8.8V113.8z M769.5,110.6c2.9,0,5.1-1.3,6.1-2.2V92c-1-0.8-3.2-2.1-6.1-2.1
		c-5.2,0-6.6,4.6-6.6,10.3S764.3,110.6,769.5,110.6z"/>
	<path class="st0" d="M804.5,69.6h8.8v47.6h-8.8V69.6z"/>
	<path class="st0" d="M829.1,102.1c0.2,5.1,3.1,8.5,9.3,8.5c2.9,0,6.2-0.1,10.6-1.4l1,7c-4.5,1.3-8.5,1.6-12.9,1.6
		c-13.1,0-17.7-6.9-17.7-17.7c0-10.7,4.6-17.7,17.5-17.7c10.2,0,13.6,5.1,14.3,11c0.3,2.6,0.1,5.5-0.3,8.6H829.1z M829.1,96.6h13.2
		c0.1-0.9,0.2-1.8,0.1-2.7c-0.3-2.6-1.8-4.6-6-4.6C831.6,89.3,829.5,92.2,829.1,96.6z"/>
	<path class="st0" d="M859.6,91.2l-1.3-7.1c4.8-1,9.9-1.6,14-1.6c8.6,0,13.4,2.2,13.4,11.4v23.3h-8.8v-3.4c-0.1,0-0.1,0-0.1,0
		c-2.9,3-5.8,4.1-10.1,4.1c-6.8,0-10.5-4.6-10.5-10.5c0-8.3,7.6-10.6,14.3-10.6h6.5v-2.4c0-3.5-2.2-4.6-6.6-4.6
		C867.6,89.9,864.5,90.2,859.6,91.2z M876.9,102.1H871c-4,0-6,1.4-6,4.6c0,3,2.4,4.4,5.3,4.4c2.8,0,5.4-1.2,6.6-2.1V102.1z"/>
	<path class="st0" d="M901.4,117.2h-8.8v-34h8.8v5.4h0.1c2.2-3.1,6.3-6.1,11.8-6.1v8.4c-4.6,0-9.2,1.2-11.9,2.6V117.2z"/>
	<path class="st0" d="M927.6,117.2h-8.8v-34h8.8v4.4h0.1c2.9-3.1,6.7-5.1,11.1-5.1c6.8,0,10.2,4.4,10.2,11.4v23.3h-8.8V96
		c0-3.9-1.5-6.1-5.4-6.1c-2.8,0-5.4,1.5-7.1,2.6V117.2z"/>
	<path class="st0" d="M964.6,71v9.4h-8.8V71H964.6z M964.6,83.2v34h-8.8v-34H964.6z"/>
	<path class="st0" d="M980.3,117.2h-8.8v-34h8.8v4.4h0.1c2.9-3.1,6.7-5.1,11.1-5.1c6.8,0,10.2,4.4,10.2,11.4v23.3h-8.8V96
		c0-3.9-1.5-6.1-5.4-6.1c-2.8,0-5.4,1.5-7.1,2.6V117.2z"/>
	<path class="st0" d="M1011.1,115.6c-1.8-1.1-2.7-2.9-2.7-4.7c0-2.5,1.7-5.3,5.2-7.1v-0.1c-3.4-1.7-5.5-5.2-5.5-9.5
		c0-7.8,5.6-11.6,14.3-11.6c1.8,0,3.5,0.3,4.9,0.7h12.6v5.3h-5.4c1.3,1.4,2,3.3,2,5.6c0,7.9-5.9,11.4-14,11.4
		c-2.1,0-3.7-0.5-4.4-0.7c-0.4,0.5-0.7,1-1,1.5c-0.6,1.6-0.5,3.3,1.7,3.5l11.6,0.8c6.9,0.5,10.4,3.1,10.4,8.5
		c0,8.6-6.5,12.4-20.4,12.4c-10.1,0-14.6-2.8-14.6-8.8c0-2.9,1.6-5.1,5.3-6.9V115.6z M1021.9,125.7c4.9,0,9.6-1.5,9.6-5
		c0-1.6-1.2-2.9-4.1-3.1l-11.9-0.7c-1.3,1.2-2.3,2.1-2.3,4.2C1013.1,124.7,1017.2,125.7,1021.9,125.7z M1028.4,94.1
		c0-3.8-2.4-5.8-5.9-5.8c-3.8,0-6.1,2-6.1,5.8c0,3.8,2.4,5.6,6.1,5.6C1026,99.8,1028.4,97.9,1028.4,94.1z"/>
	<path class="st0" d="M1054.9,107.4v9.9h-8.8v-9.9H1054.9z"/>
</g>
</svg>
