<!-- Generator: Adobe Illustrator 19.2.1, SVG Export Plug-In  -->
<svg version="1.1"
	 xmlns="http://www.w3.org/2000/svg" xmlns:xlink="http://www.w3.org/1999/xlink" xmlns:a="http://ns.adobe.com/AdobeSVGViewerExtensions/3.0/"
	 x="0px" y="0px" width="640.6px" height="598px" viewBox="0 0 640.6 598" style="enable-background:new 0 0 640.6 598;"
	 xml:space="preserve">
<style type="text/css">
	.st0{clip-path:url(#SVGID_2_);fill:#1C303D;}
	.st1{fill:#FFFFFF;}
	.st2{clip-path:url(#SVGID_4_);fill:#1C303D;}
</style>
<defs>
</defs>
<g>
	<defs>
		<rect id="SVGID_1_" width="640.6" height="598"/>
	</defs>
	<clipPath id="SVGID_2_">
		<use xlink:href="#SVGID_1_"  style="overflow:visible;"/>
	</clipPath>
	<path class="st0" d="M304,597c162.9,0,295-132.1,295-295S466.9,7,304,7S9,139.1,9,302S141.1,597,304,597"/>
</g>
<g>
	<path class="st1" d="M215.3,139.2c6.3,1.2,9.6,5.7,9.6,11.5c0,7.5-4.5,12.4-13.2,12.4h-19.5v-46.9h18.1c8.8,0,13.2,4.9,13.2,11.8
		c0,5.6-2.8,9.7-8.2,11.1V139.2z M209.9,119.5h-14.1v18.1h14.1c6.3,0,9.8-3,9.8-9C219.7,123,216.2,119.5,209.9,119.5z M195.7,140.9
		v19h15.3c6.4,0,10-3.2,10-9.5c0-5.8-3.6-9.5-11-9.5H195.7z"/>
	<path class="st1" d="M236.2,163.1h-3.5v-34.5h3.5v5.5h0.1c3.5-3.1,8.5-6.2,14-6.2v3.3c-5.7,0-11.4,3.2-14.1,5.2V163.1z"/>
	<path class="st1" d="M254.4,145.9c0-10.5,4.1-17.9,15-17.9s15,7.5,15,17.9c0,10.6-4,17.9-15,17.9S254.4,156.4,254.4,145.9z
		 M258,145.9c0,8.1,2.6,15,11.4,15s11.4-6.9,11.4-15c0-8.1-2.6-15-11.4-15S258,137.8,258,145.9z"/>
	<path class="st1" d="M315.7,128.6h3.4v34.5h-3.4v-5.2h-0.1c-3.7,3.4-8.1,5.9-13.3,5.9c-6.9,0-10.4-3.8-10.4-11.2v-24h3.5v23.3
		c0,5,2,9,8.3,9c5.1,0,9.7-3.3,12.1-5.3V128.6z"/>
	<path class="st1" d="M331.5,160.2c-2-0.9-2.8-2.7-2.5-4.6c0.2-2.1,1.6-4.5,3.9-6.1v-0.1c-3.5-1.7-5.9-5-5.9-9.7
		c0-7.2,4.9-11.7,13.4-11.7c2,0,3.2,0.3,4.5,0.7h11.5v2.3h-7.8c4,2.3,4.8,6.1,4.8,8.8c0,7.5-5.7,11.2-13,11.2c-1.9,0-4.3-0.4-5.6-1
		c-0.8,0.8-1.4,1.6-1.9,2.5c-1.3,2.6-1,5.5,2.1,5.7l13,0.8c7.2,0.4,9.6,3.3,9.6,7.2c0,7-6,11.5-19.3,11.5c-8.5,0-13.5-2.8-13.5-9
		c0-3.2,2.1-5.9,6.6-8.3V160.2z M339.3,175.2c8.2,0,14.7-2.8,14.7-8.6c0-2.5-1.5-4.7-7.1-5l-13.5-0.7c-3.2,2-5.7,3.8-5.7,7.2
		C327.8,172.1,330.8,175.2,339.3,175.2z M350.2,139.6c0-5.5-3.8-9.3-9.8-9.3c-6.8,0-10.1,3.9-10.1,9.3c0,5.5,3.8,8.8,10.1,8.8
		C346.4,148.5,350.2,145,350.2,139.6z"/>
	<path class="st1" d="M367.4,163.1H364v-48.3h3.5v19h0.1c3.7-3.4,8.1-5.9,13.3-5.9c6.9,0,10.4,3.8,10.4,11.2v23.9h-3.5v-23.3
		c0-5-1.9-9-8.3-9c-5,0-9.7,3.2-12.1,5.2V163.1z"/>
	<path class="st1" d="M401.9,131.2h-5.7v-2.3l5.7-0.3l0.5-9.7h3v9.7h10.7v2.6h-10.7v21.2c0,5.6,1.4,8.6,6.8,8.6
		c1.2,0,2.2-0.1,3.9-0.3l0.3,2.8c-1.7,0.3-3.9,0.4-5.3,0.4c-6.3,0-9.2-2.6-9.2-10.9V131.2z"/>
</g>
<g>
	<path class="st1" d="M193.7,238.6c10.8,5.8,15.5,12.8,15.5,22c0,19.1-17.7,26.3-35.6,26.3c-16.9,0-34.3-6.1-34.3-24
		c0-9.5,4.9-16.7,15.3-21.2v-0.3c-8.2-4.9-12.6-11.9-12.6-21.7c0-17.4,16.9-25,32.9-25c14.9,0,31.6,7.6,31.6,23.8
		c0,9.1-4.5,14.9-12.9,19.8V238.6z M175.2,270.5c8,0,11.1-3.7,11.1-7.9c0-7.6-9.4-10-15.3-12.5c-4.6,2-8.4,5.8-8.4,10.5
		C162.5,265.3,166.2,270.5,175.2,270.5z M164.5,219.1c0,6.2,6.9,10,12.6,11.3c3.7-1.4,7.1-5.4,7.1-10c0-4.6-3.2-9.2-10.5-9.2
		C167.5,211.2,164.5,215.5,164.5,219.1z"/>
	<path class="st1" d="M222.2,302.8l4-17.1c-3,0-6.2,0-9.2,0v-21.1h22.4v21.1l-10.5,17.1H222.2z"/>
	<path class="st1" d="M244.7,240.2c0-25.7,6.6-45.5,34.9-45.5c28.3,0,34.9,19.8,34.9,45.5c0,25.7-6.6,46.8-34.9,46.8
		C251.3,286.9,244.7,265.9,244.7,240.2z M268.4,240.2c0,16.5,2.6,28.3,11.2,28.3s11.2-11.9,11.2-28.3c0-16.5-2.6-27-11.2-27
		S268.4,223.7,268.4,240.2z"/>
	<path class="st1" d="M321.4,240.2c0-25.7,6.6-45.5,34.9-45.5c28.3,0,34.9,19.8,34.9,45.5c0,25.7-6.6,46.8-34.9,46.8
		C328,286.9,321.4,265.9,321.4,240.2z M345.1,240.2c0,16.5,2.6,28.3,11.2,28.3c8.6,0,11.2-11.9,11.2-28.3c0-16.5-2.6-27-11.2-27
		C347.7,213.2,345.1,223.7,345.1,240.2z"/>
	<path class="st1" d="M397.9,240.2c0-25.7,6.6-45.5,34.9-45.5c28.3,0,34.9,19.8,34.9,45.5c0,25.7-6.6,46.8-34.9,46.8
		C404.5,286.9,397.9,265.9,397.9,240.2z M421.6,240.2c0,16.5,2.6,28.3,11.2,28.3c8.6,0,11.2-11.9,11.2-28.3c0-16.5-2.6-27-11.2-27
		C424.3,213.2,421.6,223.7,421.6,240.2z"/>
</g>
<g>
	<path class="st1" d="M120,354.6h-11.7v-34.5H120v4.1h0.1c2.6-3.1,6.1-4.8,10.2-4.8c6.9,0,10.4,4.8,10.4,11.7v23.5h-11.7v-20.7
		c0-3.5-1.4-4.8-4.1-4.8c-1.7,0-3.4,0.7-4.8,1.4V354.6z"/>
	<path class="st1" d="M156.3,340.1c0.3,3.5,3,5.5,7.6,5.5c2.6,0,5.9,0,10.7-1.4l1.4,9.3c-4.8,1.4-9.3,1.7-13.8,1.7
		c-13.8,0-18.6-6.9-18.6-17.9s4.8-17.9,18.6-17.9c10.1,0,14.1,4.1,15.2,10.3c0.6,3,0.3,6.6-0.1,10.4H156.3z M156.3,332.9h9.3
		c0.1-0.7,0.1-1.3,0-1.9c-0.2-1.7-1.3-2.6-4.1-2.6C158.4,328.4,156.7,329.8,156.3,332.9z"/>
	<path class="st1" d="M204.2,338.1l-3.7,16.9h-13.1l-9.7-34.8h13.1l4.3,22.1h0.1l3.6-22.1h11.4l4,22.1h0.1l4-22.1h12.4l-9.7,34.8
		h-13.1l-3.8-16.9H204.2z"/>
	<path class="st1" d="M248.9,328.4h-4.1v-7.6l4.1-0.7l1.4-9.7h10.4v9.7h7.6v8.3h-7.6v14.4c0,2.1,1.4,3.2,4.1,3.2
		c0.7,0,1.7-0.1,2.8-0.3l1,9c-2.1,0.4-5.9,0.7-7.9,0.7c-8.6,0-11.7-3.6-11.7-10.4V328.4z"/>
	<path class="st1" d="M282.3,340.1c0.3,3.5,3,5.5,7.6,5.5c2.6,0,5.9,0,10.7-1.4l1.4,9.3c-4.8,1.4-9.3,1.7-13.8,1.7
		c-13.8,0-18.6-6.9-18.6-17.9s4.8-17.9,18.6-17.9c10.1,0,14.1,4.1,15.2,10.3c0.6,3,0.3,6.6-0.1,10.4H282.3z M282.3,332.9h9.3
		c0.1-0.7,0.1-1.3,0-1.9c-0.2-1.7-1.3-2.6-4.1-2.6C284.4,328.4,282.7,329.8,282.3,332.9z"/>
	<path class="st1" d="M308.7,330.5l-1.7-9.3c5.2-1,10.7-1.7,15.2-1.7c9.3,0,14.5,2.1,14.5,11.7v23.5h-11.7v-3.5c-0.1,0-0.1,0-0.1,0
		c-2.6,3.1-5.4,4.1-9.5,4.1c-6.9,0-10.4-5.2-10.4-11c0-9.1,9-11,14.5-11h5.5v-1.4c0-2.6-2.1-2.8-5.5-2.8
		C316.6,329.1,313.5,329.4,308.7,330.5z M324.9,340.1h-4.8c-1.7,0-3.4,0.7-3.4,3.1s2.1,3.1,3.4,3.1c1.7,0,3.8-0.6,4.8-1.4V340.1z"/>
	<path class="st1" d="M358.2,319.4c4.5,0,8.3,0.7,12.4,1.7l-2.1,9.3c-5.9-1.4-7.6-1.4-10.3-1.4c-3.5,0-6.2,2.1-6.2,8.3
		s2.8,8.3,6.2,8.3c2.8,0,4.5,0,10.3-1.4l2.1,9.3c-4.1,1-7.9,1.7-12.4,1.7c-14.1,0-18.6-6.9-18.6-17.9S344,319.4,358.2,319.4z"/>
	<path class="st1" d="M384.7,354.6h-11.7v-48.3h11.7v17.9h0.1c2.6-3.1,6.1-4.8,10.2-4.8c6.9,0,10.3,4.8,10.3,11.7v23.5h-11.7v-20.7
		c0-3.5-1.4-4.8-4.1-4.8c-1.7,0-3.5,0.7-4.8,1.4V354.6z"/>
	<path class="st1" d="M421,340.1c0.3,3.5,3,5.5,7.6,5.5c2.6,0,5.9,0,10.7-1.4l1.4,9.3c-4.8,1.4-9.3,1.7-13.8,1.7
		c-13.8,0-18.6-6.9-18.6-17.9s4.8-17.9,18.6-17.9c10.1,0,14.1,4.1,15.2,10.3c0.6,3,0.3,6.6-0.1,10.4H421z M421,332.9h9.3
		c0.1-0.7,0.1-1.3,0-1.9c-0.2-1.7-1.3-2.6-4.1-2.6C423,328.4,421.3,329.8,421,332.9z"/>
	<path class="st1" d="M456.9,354.6h-11.7v-34.5h11.7v5.5h0.1c1.6-3.1,5.4-6.2,10.9-6.2v11c-4.1,0-8.3,0.3-11,1.4V354.6z"/>
	<path class="st1" d="M485.6,355.3c-5.9,0-12.4-0.7-16.6-1.7l2.1-9.3c5.9,1.4,10.3,1.7,13.1,1.7c2.4,0,4.1-0.3,4.1-1.6
		c0-1.2-2.1-1.2-4.1-1.5c-8.3-1.4-14.5-4.1-14.5-12.4c0-8.3,5.9-11,14.5-11c5.9,0,11,0.7,15.2,1.7l-2.1,9.3
		c-5.9-1.4-9.7-1.7-12.4-1.7c-2.1,0-3.5,0.2-3.5,1.4c0,1,1.1,1.1,3.8,1.7c5.9,1.4,14.8,2.8,14.8,11.7
		C500,351.9,494.2,355.3,485.6,355.3z"/>
</g>
<g>
	<path class="st1" d="M180.3,406.4c0-10.5,4.1-17.9,15-17.9s15,7.5,15,17.9c0,10.6-4,17.9-15,17.9S180.3,416.9,180.3,406.4z
		 M183.9,406.4c0,8.1,2.6,15,11.4,15s11.4-6.9,11.4-15c0-8.1-2.6-15-11.4-15S183.9,398.3,183.9,406.4z"/>
	<path class="st1" d="M221.4,423.6h-3.5v-34.5h3.5v5.2h0.1c3.7-3.4,8.1-5.9,13.3-5.9c6.9,0,10.3,3.8,10.3,11.2v23.9h-3.4v-23.3
		c0-5-1.9-9-8.3-9c-5,0-9.7,3.2-12.1,5.2V423.6z"/>
	<path class="st1" d="M269.7,391.8H264v-2.3l5.7-0.3l0.5-9.7h3v9.7h10.7v2.6h-10.7v21.2c0,5.6,1.4,8.6,6.8,8.6
		c1.2,0,2.2-0.1,3.9-0.3l0.3,2.8c-1.7,0.3-3.9,0.4-5.3,0.4c-6.3,0-9.2-2.6-9.2-10.9V391.8z"/>
	<path class="st1" d="M288.3,406.4c0-10.5,4.1-17.9,15-17.9s15,7.5,15,17.9c0,10.6-4,17.9-15,17.9S288.3,416.9,288.3,406.4z
		 M292,406.4c0,8.1,2.6,15,11.4,15s11.4-6.9,11.4-15c0-8.1-2.6-15-11.4-15S292,398.3,292,406.4z"/>
	<path class="st1" d="M342.2,391.8h-5.7v-2.3l5.7-0.3l0.5-9.7h3v9.7h10.7v2.6h-10.7v21.2c0,5.6,1.4,8.6,6.8,8.6
		c1.2,0,2.2-0.1,3.9-0.3l0.3,2.8c-1.7,0.3-3.9,0.4-5.3,0.4c-6.3,0-9.2-2.6-9.2-10.9V391.8z"/>
	<path class="st1" d="M367,423.6h-3.5v-48.3h3.5v19h0.1c3.7-3.4,8.1-5.9,13.3-5.9c6.9,0,10.3,3.8,10.3,11.2v23.9h-3.4v-23.3
		c0-5-1.9-9-8.3-9c-5,0-9.7,3.2-12.1,5.2V423.6z"/>
	<path class="st1" d="M402,406.6c0.1,8.6,3.4,14.8,13.3,14.8c3.7,0,7.1-0.3,10.8-1.4l0.5,2.8c-4,1.1-7.2,1.4-11.7,1.4
		c-12.2,0-16.6-7.4-16.6-17.9c0-10.5,4.3-17.9,16.1-17.9c10.8,0,13.2,7.2,13.1,12.9c0,1.8-0.2,3.6-0.6,5.2H402z M402,404.3h21.6
		c0.3-1.4,0.5-3,0.3-4.5c-0.3-4.6-2.8-8.6-9.8-8.6C405.4,391.2,402.5,397.1,402,404.3z"/>
</g>
<g>
	<path class="st1" d="M200.9,492.6h-3.5v-34.5h3.5v5.5h0.1c3.5-3.1,8.5-6.2,14-6.2v3.3c-5.7,0-11.4,3.2-14.1,5.2V492.6z"/>
	<path class="st1" d="M222.7,475.6c0.1,8.6,3.4,14.8,13.3,14.8c3.7,0,7.1-0.3,10.8-1.4l0.5,2.8c-4,1.1-7.2,1.4-11.7,1.4
		c-12.2,0-16.6-7.4-16.6-17.9c0-10.5,4.3-17.9,16.1-17.9c10.8,0,13.2,7.2,13.1,12.9c0,1.8-0.2,3.6-0.6,5.2H222.7z M222.7,473.3h21.6
		c0.3-1.4,0.5-3,0.3-4.5c-0.3-4.6-2.8-8.6-9.8-8.6C226.1,460.2,223.2,466.2,222.7,473.3z"/>
	<path class="st1" d="M259.4,489.8c-2-0.9-2.8-2.7-2.5-4.6c0.2-2.1,1.6-4.5,3.9-6.1v-0.1c-3.5-1.7-5.9-5-5.9-9.7
		c0-7.2,4.9-11.7,13.4-11.7c2,0,3.2,0.3,4.5,0.7h11.5v2.3h-7.8c4,2.3,4.8,6.1,4.8,8.8c0,7.5-5.7,11.2-13,11.2c-1.9,0-4.3-0.4-5.6-1
		c-0.8,0.8-1.4,1.6-1.9,2.5c-1.3,2.6-1,5.5,2.1,5.7l13,0.8c7.2,0.4,9.6,3.3,9.6,7.2c0,7-6,11.5-19.3,11.5c-8.5,0-13.5-2.8-13.5-9
		c0-3.2,2.1-5.9,6.6-8.3V489.8z M267.2,504.7c8.2,0,14.7-2.8,14.7-8.6c0-2.5-1.5-4.7-7.1-5l-13.5-0.7c-3.2,2-5.7,3.8-5.7,7.2
		C255.7,501.7,258.7,504.7,267.2,504.7z M278.1,469.2c0-5.5-3.8-9.3-9.8-9.3c-6.8,0-10.1,3.9-10.1,9.3s3.8,8.8,10.1,8.8
		C274.3,478,278.1,474.5,278.1,469.2z"/>
	<path class="st1" d="M295.2,445.7v7.8h-3.5v-7.8H295.2z M295.2,458.1v34.5h-3.5v-34.5H295.2z"/>
	<path class="st1" d="M315.9,493.3c-5.1,0-9.9-0.4-14-1.4l0.7-2.8c5.4,1.4,10.7,1.4,13,1.4c8.3,0,8.8-5.5,8.8-6.9
		c0-2.8-1.4-5.3-9.5-7c-6.8-1.3-12.2-3.5-12.2-10.2c0-5.7,4.1-9,11.9-9c5.1,0,9,0.4,13.1,1.4l-0.7,2.9c-5.3-1.4-10-1.5-12.3-1.5
		c-8.3,0-8.6,4.9-8.6,6.1c0,2.8,1.2,5.5,9.2,7c7.9,1.7,12.6,3.9,12.6,10C327.7,489.6,323.7,493.3,315.9,493.3z"/>
	<path class="st1" d="M338.8,460.8h-5.7v-2.3l5.7-0.3l0.5-9.7h3v9.7h10.7v2.6h-10.7V482c0,5.6,1.4,8.6,6.8,8.6
		c1.2,0,2.2-0.1,3.9-0.3l0.3,2.8c-1.7,0.3-3.9,0.4-5.3,0.4c-6.3,0-9.2-2.6-9.2-10.9V460.8z"/>
	<path class="st1" d="M361,475.6c0.1,8.6,3.4,14.8,13.3,14.8c3.7,0,7.1-0.3,10.8-1.4l0.5,2.8c-4,1.1-7.2,1.4-11.7,1.4
		c-12.2,0-16.6-7.4-16.6-17.9c0-10.5,4.3-17.9,16.1-17.9c10.8,0,13.2,7.2,13.1,12.9c0,1.8-0.2,3.6-0.6,5.2H361z M361,473.3h21.6
		c0.3-1.4,0.5-3,0.3-4.5c-0.3-4.6-2.8-8.6-9.8-8.6C364.4,460.2,361.5,466.2,361,473.3z"/>
	<path class="st1" d="M396.9,492.6h-3.5v-34.5h3.5v5.5h0.1c3.5-3.1,8.5-6.2,14-6.2v3.3c-5.7,0-11.4,3.2-14.1,5.2V492.6z"/>
</g>
</svg>
