<!-- Generator: Adobe Illustrator 19.2.1, SVG Export Plug-In  -->
<svg version="1.1"
	 xmlns="http://www.w3.org/2000/svg" xmlns:xlink="http://www.w3.org/1999/xlink" xmlns:a="http://ns.adobe.com/AdobeSVGViewerExtensions/3.0/"
	 x="0px" y="0px" width="283.5px" height="156.1px" viewBox="0 0 283.5 156.1" style="enable-background:new 0 0 283.5 156.1;"
	 xml:space="preserve">
<style type="text/css">
	.st0{fill:url(#SVGID_1_);}
	.st1{fill:url(#SVGID_2_);}
	.st2{fill:#FFFFFF;}
	.st3{fill:url(#SVGID_3_);}
	.st4{fill:url(#SVGID_4_);}
</style>
<defs>
</defs>
<radialGradient id="SVGID_1_" cx="151.5635" cy="29.6665" r="95.5949" gradientUnits="userSpaceOnUse">
	<stop  offset="0" style="stop-color:#2964AC"/>
	<stop  offset="0.2473" style="stop-color:#235EA4"/>
	<stop  offset="0.6287" style="stop-color:#144F8E"/>
	<stop  offset="1" style="stop-color:#003B73"/>
</radialGradient>
<path class="st0" d="M283.5,29.1V6.7c-3.3,0.1-6.3,1.6-8.3,3.9c-3.5-4.2-8.8-7-14.7-7c-10.5,0-19,8.5-19,19c0,0.1,0,0.2,0,0.3
	c-1,0.3-2,0.7-2.9,1.2c-2-3-5.5-5-9.4-5c-1,0-2,0.2-3,0.4c-2.8-7.5-10-12.9-18.5-12.9c-7.2,0-13.4,3.8-16.9,9.6
	C188.3,6.9,179.7,0,169.5,0c-12.2,0-22.2,9.9-22.2,22.2c0,0.4,0,0.8,0,1.1c-0.8,0.3-1.6,0.8-2.3,1.3c-3.8-4-9.1-6.6-15.1-6.6
	c-5.5,0-10.5,2.2-14.2,5.7c-1.6-2.5-3.8-4.4-6.6-5.6c-0.7-9.4-8.5-16.7-18.1-16.7c-7.8,0-14.5,5-17,11.9C72,12.5,69.7,12,67.3,12
	c-6.2,0-11.8,3-15.2,7.7c-2.8-5.5-8.6-9.3-15.3-9.3c-9.5,0-17.2,7.7-17.2,17.2c0,9.5,7.7,17.2,17.2,17.2c5.2,0,9.9-2.4,13.1-6.1
	C52.9,45.3,59.5,50,67.3,50c8.5,0,15.7-5.6,18.1-13.3c1.8,0.6,3.7,0.9,5.7,0.9c0,0,0.1,0,0.1,0c2.4,4.6,7.1,7.7,12.6,7.7
	c2.2,0,4.3-0.5,6.2-1.4c2.3,8.9,10.4,15.4,20,15.4c10.7,0,19.6-8.2,20.6-18.7c0,0,0.1,0,0.1,0c1.8,0,3.4-0.5,4.8-1.4
	c3.8,3.1,8.7,5,14.1,5c5.3,0,10.2-1.9,14-5c1.9,5.3,6.9,9.1,12.9,9.1c3,0,5.7-1,8-2.6c1.1,0.2,2.3,0.3,3.5,0.3
	c5.9,0,11.2-2.6,14.8-6.7c1.6,1.2,3.5,2,5.6,2.2c1.7,3.9,5.6,6.7,10.1,6.7c3.1,0,5.9-1.3,7.9-3.4c3-0.5,5.6-2.3,7.3-4.7
	c0.7,0.3,1.5,0.5,2.3,0.7c2.4,2.2,5.6,3.6,9.1,3.6c7.4,0,13.4-6,13.4-13.4c0-0.6-0.1-1.2-0.1-1.7c0.2-0.5,0.4-1,0.5-1.5
	C280.2,28.7,281.8,29.1,283.5,29.1z"/>
<radialGradient id="SVGID_2_" cx="141.73" cy="47.7544" r="104.5083" gradientUnits="userSpaceOnUse">
	<stop  offset="0" style="stop-color:#62A2DE"/>
	<stop  offset="0.3641" style="stop-color:#5A9AD7"/>
	<stop  offset="0.9259" style="stop-color:#4485C2"/>
	<stop  offset="1" style="stop-color:#4182BF"/>
</radialGradient>
<path class="st1" d="M283.5,5.8c-3.9,2.7-6.5,7.2-6.5,12.3c0,0.4,0,0.8,0.1,1.3c-5.6,1.4-10.5,4.7-13.9,9.2
	c-3.6-1.6-7.5-2.5-11.6-2.5c-7.6,0-14.4,3-19.5,7.8c-1.9-0.8-4-1.3-6.2-1.3c-2.4,0-4.6,0.5-6.7,1.5c-6.1-7.6-15.4-12.5-25.9-12.5
	c-9.7,0-18.4,4.2-24.5,10.8c-3.3-7-10.3-11.8-18.5-11.8c-7.9,0-14.8,4.5-18.2,11.1c-0.7-0.1-1.5-0.1-2.3-0.1
	c-4.6,0-8.9,1.6-12.2,4.4c-1.7-6.3-7.5-11-14.4-11c-2.8,0-5.4,0.8-7.6,2.1C89.1,21.6,81,18.3,72,18.3c-10.6,0-20.1,4.6-26.6,11.9
	C40.8,24,33.5,20,25.2,20c0,0,0,0,0,0c-4.5-5.7-11.4-9.3-19.2-9.3c-2.1,0-4.1,0.3-6,0.7v47.2c1.4,0.4,2.8,0.6,4.3,0.7
	c4.5,6.7,12.2,11.1,20.8,11.1c4.9,0,9.5-1.4,13.4-3.9C43.6,80,56.7,89.7,72,89.7c19.6,0,35.5-15.8,35.7-35.4c1-0.3,1.9-0.7,2.8-1.2
	c1,9.7,9.2,17.3,19.2,17.3c6.9,0,13-3.6,16.4-9.1c1.3,0.3,2.7,0.4,4.1,0.4c3.7,0,7.1-1,10.1-2.7c2,16.4,16,29,32.9,29
	c14.9,0,27.5-9.8,31.7-23.3c4.1,10.8,14.5,18.4,26.7,18.4c10.8,0,20.2-6,25.1-14.9c2.1,0.6,4.4,0.9,6.7,0.9c0.1,0,0.1,0,0.2,0V5.8z"
	/>
<path class="st2" d="M283.5,41.9c-2.2,1.4-4.3,3.1-6,5c-5.1-2.3-10.7-3.7-16.7-3.7c-15,0-28.1,8.3-34.8,20.6
	c-0.8-0.1-1.6-0.1-2.4-0.1c-9.5,0-18.2,3.9-24.4,10.1c-6.1-5.7-13.8-9.6-22.4-11c-3.3-9.4-12.2-16.1-22.7-16.1c-4,0-7.9,1-11.2,2.8
	c-8.5-12-22.5-19.8-38.3-19.8c-20.3,0-37.6,12.9-44.2,31c-8.5-9.2-19.8-15.6-32.6-18C21.7,32.3,11.8,24.4,0,21v135.1h283.5V41.9z"/>
</svg>
