<!-- Generator: Adobe Illustrator 19.2.1, SVG Export Plug-In  -->
<svg version="1.1"
	 xmlns="http://www.w3.org/2000/svg" xmlns:xlink="http://www.w3.org/1999/xlink" xmlns:a="http://ns.adobe.com/AdobeSVGViewerExtensions/3.0/"
	 x="0px" y="0px" width="986px" height="557px" viewBox="0 0 986 557" style="enable-background:new 0 0 986 557;"
	 xml:space="preserve">
<style type="text/css">
	.st0{fill:#2DA1B4;}
	.st1{clip-path:url(#SVGID_2_);fill:#2B5972;}
	.st2{clip-path:url(#SVGID_2_);fill:#FFFFFF;}
	.st3{clip-path:url(#SVGID_4_);fill:#2B5972;}
	.st4{clip-path:url(#SVGID_4_);fill:#FFFFFF;}
</style>
<defs>
</defs>
<g>
	<path class="st0" d="M250,440.2h-14.6l-3.1,10.5h-9.9l15-46.6h11.4l14.8,46.6h-10.3L250,440.2z M242.7,415.8l-5.4,16.6h10.8
		l-5.3-16.6H242.7z"/>
	<path class="st0" d="M291,428.6l12.8-11.9h10.7l-12.4,12.2l13.1,21.8h-10.4l-8.8-16.7l-4.9,4.5v12.2h-8.8v-47.6h8.8V428.6z"/>
	<path class="st0" d="M325,435.6c0.2,5.1,3.1,8.5,9.3,8.5c2.9,0,6.2-0.1,10.6-1.4l1,7c-4.5,1.3-8.5,1.6-12.9,1.6
		c-13.1,0-17.7-6.9-17.7-17.7c0-10.7,4.6-17.7,17.5-17.7c10.2,0,13.6,5.1,14.3,11c0.3,2.6,0.1,5.5-0.3,8.6H325z M325,430h13.2
		c0.1-0.9,0.2-1.8,0.1-2.7c-0.3-2.6-1.8-4.6-6-4.6C327.4,422.8,325.3,425.7,325,430z"/>
	<path class="st0" d="M350.1,416.7h9.9l7.8,24.8h0.1l7.5-24.8h9.4l-12,35.2c-3.3,9.7-7.6,13.1-15.2,13.1c-1.8,0-4.4-0.2-6.1-0.6
		l0.8-7.3c1,0.2,2.5,0.3,3.3,0.3c3.3,0,5.8-2.5,7.1-6.3L350.1,416.7z"/>
	<path class="st0" d="M412.3,420.1h0.1c2.2-2.4,5.9-4.1,9.6-4.1c9.5,0,12.4,8,12.4,17.7c0,9.7-3.4,17.7-12.9,17.7
		c-3.4,0-6.9-1.4-9-3.8h-0.1v16.7h-8.8v-47.6h8.8V420.1z M418.4,423.4c-2.9,0-5,1.3-6.1,2.1v16.5c1.1,0.9,3.3,2.2,6.1,2.2
		c5.2,0,6.7-4.6,6.7-10.4S423.6,423.4,418.4,423.4z"/>
	<path class="st0" d="M440.5,403.1h8.8v47.6h-8.8V403.1z"/>
	<path class="st0" d="M458.6,424.7l-1.3-7.1c4.8-1,9.9-1.6,14-1.6c8.6,0,13.4,2.2,13.4,11.4v23.3h-8.8v-3.4c-0.1,0-0.1,0-0.1,0
		c-2.9,3-5.8,4.1-10.1,4.1c-6.8,0-10.5-4.6-10.5-10.5c0-8.3,7.6-10.6,14.3-10.6h6.5v-2.4c0-3.5-2.2-4.6-6.6-4.6
		C466.5,423.4,463.5,423.6,458.6,424.7z M475.9,435.6h-5.9c-4,0-6,1.4-6,4.6c0,3,2.4,4.4,5.3,4.4c2.8,0,5.4-1.2,6.6-2.1V435.6z"/>
	<path class="st0" d="M488.8,416.7h9.9l7.8,24.8h0.1l7.5-24.8h9.4l-12,35.2c-3.3,9.7-7.6,13.1-15.2,13.1c-1.8,0-4.4-0.2-6.1-0.6
		l0.8-7.3c1,0.2,2.5,0.3,3.3,0.3c3.3,0,5.8-2.5,7.1-6.3L488.8,416.7z"/>
	<path class="st0" d="M534.9,435.6c0.2,5.1,3.1,8.5,9.3,8.5c2.9,0,6.2-0.1,10.6-1.4l1,7c-4.5,1.3-8.5,1.6-12.9,1.6
		c-13.1,0-17.7-6.9-17.7-17.7c0-10.7,4.6-17.7,17.5-17.7c10.2,0,13.6,5.1,14.3,11c0.3,2.6,0.1,5.5-0.3,8.6H534.9z M534.9,430h13.2
		c0.1-0.9,0.2-1.8,0.1-2.7c-0.3-2.6-1.8-4.6-6-4.6C537.3,422.8,535.2,425.7,534.9,430z"/>
	<path class="st0" d="M571.8,450.7H563v-34h8.8v5.4h0.1c2.2-3.1,6.3-6.1,11.8-6.1v8.4c-4.6,0-9.2,1.2-11.9,2.6V450.7z"/>
	<path class="st0" d="M611.2,404.5v9.4h-8.8v-9.4H611.2z M611.2,416.7v34h-8.8v-34H611.2z"/>
	<path class="st0" d="M626.8,450.7h-8.8v-34h8.8v4.4h0.1c2.9-3.1,6.7-5.1,11.1-5.1c6.8,0,10.2,4.4,10.2,11.4v23.3h-8.8v-21.2
		c0-3.9-1.5-6.1-5.4-6.1c-2.8,0-5.4,1.5-7.1,2.6V450.7z"/>
	<path class="st0" d="M670.9,423h-4.6v-5.8l4.6-0.5l1.1-9.5h7.8v9.5h8.5v6.3h-8.5v16.4c0,3.2,1.4,4.9,5,4.9c0.8,0,1.8-0.1,3.1-0.3
		l0.7,6.8c-1.9,0.4-5.1,0.6-6.9,0.6c-7.8,0-10.7-3.2-10.7-10.4V423z"/>
	<path class="st0" d="M703.5,450.7h-8.8v-47.6h8.8v18h0.1c2.9-3.1,6.7-5.1,11.1-5.1c6.8,0,10.2,4.4,10.2,11.4v23.3h-8.8v-21.2
		c0-3.9-1.5-6.1-5.4-6.1c-2.8,0-5.4,1.5-7.1,2.6V450.7z"/>
	<path class="st0" d="M740.7,435.6c0.2,5.1,3.1,8.5,9.3,8.5c2.9,0,6.2-0.1,10.6-1.4l1,7c-4.5,1.3-8.5,1.6-12.9,1.6
		c-13.1,0-17.7-6.9-17.7-17.7c0-10.7,4.6-17.7,17.5-17.7c10.2,0,13.6,5.1,14.3,11c0.3,2.6,0.1,5.5-0.3,8.6H740.7z M740.7,430h13.2
		c0.1-0.9,0.2-1.8,0.1-2.7c-0.3-2.6-1.8-4.6-6-4.6C743.1,422.8,741,425.7,740.7,430z"/>
</g>
<g>
	<path class="st0" d="M98.3,518.5l1.6-7.8c7.2,1.7,12.3,2,15.9,2c4.8,0,7.6-2.2,7.6-5.2c0-4.3-5.3-5.2-10.7-6.7
		c-8-2.2-13.8-6.7-13.8-14.5c0-9.3,7.7-12.9,16.9-12.9c5.2,0,10,0.7,16.3,2.6l-2.1,7.8c-7.3-1.7-10.7-2-14.2-2c-4.8,0-7,2-7,4.8
		c0,3.8,5,5,10.5,6.4c8,1.8,13.9,5.6,13.9,13.7c0,9.9-7.6,14.3-17.5,14.3C110.5,521,104.6,520.3,98.3,518.5z"/>
	<path class="st0" d="M156.9,485.7c4.4,0,7.8,0.6,11.9,1.6l-1.6,7.1c-5.6-1.4-7.8-1.4-10.3-1.4c-5.3,0-8.2,3.5-8.2,10.3
		c0,6.8,2.9,10.4,8.2,10.4c2.5,0,4.7,0,10.3-1.4l1.6,7c-4.1,1-7.5,1.6-11.9,1.6c-13.2,0-17.5-6.9-17.5-17.7
		C139.4,492.7,143.8,485.7,156.9,485.7z"/>
	<path class="st0" d="M171.3,503.3c0-10.7,4.6-17.7,16.5-17.7s16.5,7,16.5,17.7c0,10.7-4.5,17.7-16.5,17.7S171.3,514.1,171.3,503.3z
		 M180.7,503.3c0,6.3,1.6,10.4,7.1,10.4c5.6,0,7.1-4.1,7.1-10.4c0-6.3-1.6-10.3-7.1-10.3C182.2,493,180.7,497.1,180.7,503.3z"/>
	<path class="st0" d="M213.1,492.7h-4.6v-5.8l4.6-0.5l1.1-9.5h7.8v9.5h8.5v6.3H222V509c0,3.2,1.4,4.9,5,4.9c0.8,0,1.8-0.1,3.1-0.3
		l0.7,6.8c-1.9,0.4-5.1,0.6-6.9,0.6c-7.8,0-10.7-3.2-10.7-10.4V492.7z"/>
	<path class="st0" d="M239.6,492.7h-4.6v-5.8l4.6-0.5l1.1-9.5h7.8v9.5h8.5v6.3h-8.5V509c0,3.2,1.4,4.9,5,4.9c0.8,0,1.8-0.1,3.1-0.3
		l0.7,6.8c-1.9,0.4-5.1,0.6-6.9,0.6c-7.8,0-10.7-3.2-10.7-10.4V492.7z"/>
	<path class="st0" d="M272.2,474.1v9.4h-8.8v-9.4H272.2z M272.2,486.3v34h-8.8v-34H272.2z"/>
	<path class="st0" d="M293.5,521c-5.5,0-11.4-0.6-15.5-1.6l1.6-7c5.6,1.4,10.3,1.6,12.9,1.6c4.4,0,5.6-2,5.6-3.3
		c0-1.7-1.8-2.5-5.8-3.3c-7.7-1.3-13.5-3.8-13.5-11.5c0-7.3,5.2-10.2,13.5-10.2c5.5,0,10.2,0.6,14.3,1.6l-1.6,7.1
		c-5.6-1.4-9.7-1.6-12.2-1.6c-4.1,0-5.1,1.7-5.1,2.9c0,1.6,1.2,2.5,5.5,3.5c6.5,1.4,13.9,3.1,13.9,11
		C306.9,517.5,301.7,521,293.5,521z"/>
	<path class="st0" d="M321.5,520.3h-8.8v-47.6h8.8v18h0.1c2.9-3.1,6.7-5.1,11.1-5.1c6.8,0,10.2,4.4,10.2,11.4v23.3h-8.8v-21.2
		c0-3.9-1.5-6.1-5.4-6.1c-2.8,0-5.4,1.5-7.1,2.6V520.3z"/>
	<path class="st0" d="M371.9,505.2c0.2,5.1,3.1,8.5,9.3,8.5c2.9,0,6.2-0.1,10.6-1.4l1,7c-4.5,1.3-8.5,1.6-12.9,1.6
		c-13.1,0-17.7-6.9-17.7-17.7c0-10.7,4.6-17.7,17.5-17.7c10.2,0,13.6,5.1,14.3,11c0.3,2.6,0.1,5.5-0.3,8.6H371.9z M371.9,499.7h13.2
		c0.1-0.9,0.2-1.8,0.1-2.7c-0.3-2.6-1.8-4.6-6-4.6C374.3,492.5,372.2,495.3,371.9,499.7z"/>
	<path class="st0" d="M421.4,516.9c-0.1,0-0.1,0-0.1,0c-2.1,2.4-5.8,4.1-9.5,4.1c-9.5,0-12.4-8-12.4-17.7c0-9.7,3.4-17.7,12.9-17.7
		c3.5,0,6.9,1.4,9,3.8c0.1,0,0.1,0,0.1,0v-16.7h8.8v47.6h-8.8V516.9z M415.3,513.7c2.9,0,5.1-1.3,6.1-2.2v-16.5
		c-1-0.8-3.2-2.1-6.1-2.1c-5.2,0-6.6,4.6-6.6,10.3S410.1,513.7,415.3,513.7z"/>
	<path class="st0" d="M458.4,486.3h8.8v34h-8.8v-4.4h-0.1c-2.9,3.1-6.7,5.1-11.1,5.1c-6.8,0-10.2-4.4-10.2-11.4v-23.3h8.8v21.3
		c0,3.9,1.8,6.1,5.4,6.1c2.9,0,5.4-1.6,7.1-2.7V486.3z"/>
	<path class="st0" d="M490.8,485.7c4.4,0,7.8,0.6,11.9,1.6l-1.6,7.1c-5.6-1.4-7.8-1.4-10.3-1.4c-5.3,0-8.2,3.5-8.2,10.3
		c0,6.8,2.9,10.4,8.2,10.4c2.5,0,4.7,0,10.3-1.4l1.6,7c-4.1,1-7.5,1.6-11.9,1.6c-13.2,0-17.5-6.9-17.5-17.7
		C473.3,492.7,477.6,485.7,490.8,485.7z"/>
	<path class="st0" d="M509,494.3l-1.3-7.1c4.8-1,9.9-1.6,14-1.6c8.6,0,13.4,2.2,13.4,11.4v23.3h-8.8v-3.4c-0.1,0-0.1,0-0.1,0
		c-2.9,3-5.8,4.1-10.1,4.1c-6.8,0-10.5-4.6-10.5-10.5c0-8.3,7.6-10.6,14.3-10.6h6.5v-2.4c0-3.5-2.2-4.6-6.6-4.6
		C517,493,513.9,493.3,509,494.3z M526.3,505.2h-5.9c-4,0-6,1.4-6,4.6c0,3,2.4,4.4,5.3,4.4c2.8,0,5.4-1.2,6.6-2.1V505.2z"/>
	<path class="st0" d="M544.7,492.7h-4.6v-5.8l4.6-0.5l1.1-9.5h7.8v9.5h8.5v6.3h-8.5V509c0,3.2,1.4,4.9,5,4.9c0.8,0,1.8-0.1,3.1-0.3
		l0.7,6.8c-1.9,0.4-5.1,0.6-6.9,0.6c-7.8,0-10.7-3.2-10.7-10.4V492.7z"/>
	<path class="st0" d="M577.2,474.1v9.4h-8.8v-9.4H577.2z M577.2,486.3v34h-8.8v-34H577.2z"/>
	<path class="st0" d="M583.3,503.3c0-10.7,4.6-17.7,16.5-17.7s16.5,7,16.5,17.7c0,10.7-4.5,17.7-16.5,17.7S583.3,514.1,583.3,503.3z
		 M592.7,503.3c0,6.3,1.6,10.4,7.1,10.4c5.6,0,7.1-4.1,7.1-10.4c0-6.3-1.6-10.3-7.1-10.3C594.2,493,592.7,497.1,592.7,503.3z"/>
	<path class="st0" d="M631.2,520.3h-8.8v-34h8.8v4.4h0.1c2.9-3.1,6.7-5.1,11.1-5.1c6.8,0,10.2,4.4,10.2,11.4v23.3h-8.8v-21.2
		c0-3.9-1.5-6.1-5.4-6.1c-2.8,0-5.4,1.5-7.1,2.6V520.3z"/>
	<path class="st0" d="M687.2,521c-5.5,0-11.4-0.6-15.5-1.6l1.6-7c5.6,1.4,10.3,1.6,12.9,1.6c4.4,0,5.6-2,5.6-3.3
		c0-1.7-1.8-2.5-5.8-3.3c-7.7-1.3-13.5-3.8-13.5-11.5c0-7.3,5.2-10.2,13.5-10.2c5.5,0,10.2,0.6,14.3,1.6l-1.6,7.1
		c-5.6-1.4-9.7-1.6-12.2-1.6c-4.1,0-5.1,1.7-5.1,2.9c0,1.6,1.2,2.5,5.5,3.5c6.5,1.4,13.9,3.1,13.9,11
		C700.6,517.5,695.4,521,687.2,521z"/>
	<path class="st0" d="M703.7,486.3h9.9l7.8,24.8h0.1l7.5-24.8h9.4l-12,35.2c-3.3,9.7-7.6,13.1-15.2,13.1c-1.8,0-4.4-0.2-6.1-0.6
		l0.8-7.3c1,0.2,2.5,0.3,3.3,0.3c3.3,0,5.8-2.5,7.1-6.3L703.7,486.3z"/>
	<path class="st0" d="M756.6,521c-5.5,0-11.4-0.6-15.5-1.6l1.6-7c5.6,1.4,10.3,1.6,12.9,1.6c4.4,0,5.6-2,5.6-3.3
		c0-1.7-1.8-2.5-5.8-3.3c-7.7-1.3-13.5-3.8-13.5-11.5c0-7.3,5.2-10.2,13.5-10.2c5.5,0,10.2,0.6,14.3,1.6l-1.6,7.1
		c-5.6-1.4-9.7-1.6-12.2-1.6c-4.1,0-5.1,1.7-5.1,2.9c0,1.6,1.2,2.5,5.5,3.5c6.5,1.4,13.9,3.1,13.9,11C770,517.5,764.8,521,756.6,521
		z"/>
	<path class="st0" d="M778.5,492.7h-4.6v-5.8l4.6-0.5l1.1-9.5h7.8v9.5h8.5v6.3h-8.5V509c0,3.2,1.4,4.9,5,4.9c0.8,0,1.8-0.1,3.1-0.3
		l0.7,6.8c-1.9,0.4-5.1,0.6-6.9,0.6c-7.8,0-10.7-3.2-10.7-10.4V492.7z"/>
	<path class="st0" d="M808.8,505.2c0.2,5.1,3.1,8.5,9.3,8.5c2.9,0,6.2-0.1,10.6-1.4l1,7c-4.5,1.3-8.5,1.6-12.9,1.6
		c-13.1,0-17.7-6.9-17.7-17.7c0-10.7,4.6-17.7,17.5-17.7c10.2,0,13.6,5.1,14.3,11c0.3,2.6,0.1,5.5-0.3,8.6H808.8z M808.8,499.7H822
		c0.1-0.9,0.2-1.8,0.1-2.7c-0.3-2.6-1.8-4.6-6-4.6C811.2,492.5,809.1,495.3,808.8,499.7z"/>
	<path class="st0" d="M845.7,520.3h-8.8v-34h8.8v4.4h0.1c2.7-3,6.2-5.1,10.6-5.1c4.6,0,7.7,2,9.1,5.6c3.5-3.9,7.4-5.6,11.8-5.6
		c6.8,0,10.2,4.4,10.2,11.4v23.3h-8.8v-21.2c0-3.9-1.8-6.1-5.4-6.1c-2.6,0-5,1.5-6.7,2.7c0,1.2,0.1,2.4,0.1,3.9v20.8h-8.8v-21.6
		c-0.1-3.6-1.9-5.7-5.4-5.7c-2.7,0-5,1.5-6.7,2.6V520.3z"/>
</g>
<g>
	<defs>
		<rect id="SVGID_1_" width="986" height="557"/>
	</defs>
	<clipPath id="SVGID_2_">
		<use xlink:href="#SVGID_1_"  style="overflow:visible;"/>
	</clipPath>
	<path class="st1" d="M493,339.7c93.8,0,169.8-76,169.8-169.8C662.8,76,586.8,0,493,0S323.2,76,323.2,169.8
		C323.2,263.6,399.2,339.7,493,339.7"/>
	<path class="st2" d="M439.5,137.2c0-13-4.9-27.9-20.4-27.9c-15.7,0-20,15.2-20,27.9c0,12.1,4.9,27.1,19.5,27.1
		C434.4,164.3,439.5,150.4,439.5,137.2 M425.3,184.8c20.8,1.6,42.7,2.4,42.7,29.6c0,25.7-24,34-46.2,34c-16.9,0-42.7-5.9-42.7-26.9
		c0-8.3,6.3-16.8,15.1-16.8c3.5,0,6.1,1.4,8.6,3.6c-6.7,1.2-10.6,8.1-10.6,14.4c0,17.6,18.1,21,32.4,21c14.3,0,29.7-6.1,29.7-22.5
		c0-19.8-22.4-18.8-36.4-19.6c-13.4-0.4-32,0-32-18.2c0-9.7,9.2-16.2,17.9-17.4v-0.4c-11.8-3.9-21.8-15-21.8-27.9
		c0-21.5,18.3-33,38.3-33c9.4,0,18.9,2.8,25.9,9.1c1.6,1.6,2.4,2.6,3.4,3.6c4.9,5.5,7.3,12.6,7.3,19.8c0,23.9-18.1,30.8-39.1,31.8
		c-6.1,0.2-21.8,0.2-21.8,8.5c0,7.1,11.2,6.3,15.7,6.7L425.3,184.8z"/>
	<path class="st2" d="M455.4,113.5v-5.5c6.6,0,19.5-6.2,22.2-23.7h5.5v23.7h23.2v5.5h-23.2v57.7c0,9.1,1.8,18.6,12.6,18.6
		c7.1,0,10.8-4.1,14.7-9.1l3.7,2.6c-3.7,9.7-13.8,13-23.6,13c-14.7,0-24.6-5.7-24.6-20.8v-61.9H455.4z"/>
	<path class="st2" d="M579.5,180.7c-8.5,10.5-22.6,15.6-35.8,15.6c-25.2,0-43.8-17.8-43.8-42.9c0-28.3,21.6-48.8,49.9-48.8
		c8,0,26.5,2.4,26.5,13.6c0,3.6-3.1,7.5-6.7,7.5c-4.9,0-7.5-4-8.9-7.9c-2.4-6.1-4.1-7.7-11.6-7.7c-22,0-28.7,22.3-28.7,40.1
		c0,19.4,6.3,39.7,29.3,39.7c10.2,0,19.1-5.3,25.7-12.8L579.5,180.7z"/>
	<path class="st2" d="M494.2,220.2h-0.4c-0.3-2.1-2.2-4.3-4.5-4.3c-1.3,0-2.7,0.6-2.7,2.1c0,3.2,8.6,3.4,8.6,8.6
		c0,3-2.6,4.9-5.5,4.9c-1.2,0-2-0.2-3.1-0.7c-0.2-0.1-0.6-0.2-0.9-0.2c-0.5,0-1,0.5-1.2,0.9h-0.4v-6h0.4c0.4,2.6,2.4,5.2,5.1,5.2
		c1.4,0,2.9-0.8,2.9-2.3c0-3.6-8.5-3.5-8.5-8.9c0-2.7,2.3-4.5,4.9-4.5c1.2,0,1.9,0.2,2.9,0.7c0.3,0.2,0.7,0.4,1.1,0.4
		c0.7,0,0.7-0.6,0.8-1.1h0.4V220.2z"/>
	<path class="st2" d="M512.2,220.4h-0.4c-0.5-2.5-2.6-4.4-5.2-4.4c-3.2,0-5.3,2.8-5.3,7c0,5.3,2,7.4,5.2,7.4c2.3,0,3.9-1.2,5.4-2.9
		v1.4c-1.8,1.9-3.7,2.6-6.2,2.6c-5.2,0-8.6-3.4-8.6-8c0-4.7,4-8.5,8.7-8.5c1.3,0,2.4,0.3,3.6,0.7c0.4,0.1,1,0.4,1.4,0.4
		c0.6,0,0.9-0.6,1-1.1h0.4V220.4z"/>
	<path class="st2" d="M527.1,223.2c0-2.8-0.5-7.4-4.2-7.4c-3.7,0-4.2,4.6-4.2,7.4c0,2.8,0.5,7.4,4.2,7.4
		C526.6,230.5,527.1,226,527.1,223.2 M514.4,223.2c0-4.9,3.6-8.3,8.5-8.3c4.8,0,8.5,3.4,8.5,8.3c0,4.9-3.6,8.3-8.5,8.3
		C518,231.4,514.4,228.1,514.4,223.2"/>
	<path class="st2" d="M541.1,216.2v11.9c0,1.9,0,2.6,2.3,2.6v0.4h-8.3v-0.4c2.3,0,2.3-0.6,2.3-2.6v-11.9H536c-1.8,0-2.8,0.6-3.5,3.4
		h-0.4v-4.3h14.2v4.3h-0.4c-0.6-2.8-1.6-3.4-3.5-3.4H541.1z"/>
	<path class="st2" d="M561.8,231.1h-14.1v-0.4c2.2,0,2.2-0.6,2.2-2.6v-9.8c0-1.9,0-2.5-2.2-2.5v-0.4h8.5v0.4c-2.4,0-2.4,0.6-2.4,2.5
		v9.5c0,2.4,0.2,2.4,2.7,2.4c3.1,0,4.1-0.5,5.5-4.6h0.5L561.8,231.1z"/>
	<path class="st2" d="M570.5,220.3l-2.4,5.4h4.8L570.5,220.3z M567.7,226.6l-0.6,1.3c-0.2,0.6-0.5,1-0.5,1.5c0,1.1,0.9,1.2,2.1,1.3
		v0.4h-5.3v-0.4c1.6-0.1,2.3-2.1,2.9-3.3l5.5-12.4h0.3l5.8,13.2c0.5,1,1,2.5,2.4,2.5v0.4h-7.7v-0.4c0.7,0,1.9,0,1.9-0.8
		c0-0.4-0.1-0.6-0.2-0.9l-1.1-2.4H567.7z"/>
	<path class="st2" d="M594.3,225L594.3,225l0.1-7.3c0-1.3-0.7-2-2.3-2v-0.4h5.4v0.4c-1.6,0-2.3,0.6-2.3,2v13.8h-0.4l-10.7-13.1h0
		v10.4c0,1.3,0.6,2,2.3,2v0.4H581v-0.4c1.6,0,2.2-0.6,2.2-2v-11.5c-0.8-1-1.1-1.5-2.3-1.5v-0.4h5.6L594.3,225z"/>
	<path class="st2" d="M604.5,229.1c0,0.9,0.4,1.1,1.3,1.1c3.8,0,4.4-3.9,4.4-6.9c0-5.5-2.4-7.1-4.7-7.1h-1V229.1z M600.7,218.2
		c0-1.9,0-2.5-2.3-2.5v-0.4h7.5c7.1,0,8.5,5,8.5,7.9c0,3.8-2,7.9-8.8,7.9h-7.3v-0.4c2.3,0,2.3-0.6,2.3-2.6V218.2z"/>
</g>
</svg>
