<!-- Generator: Adobe Illustrator 19.2.1, SVG Export Plug-In  -->
<svg version="1.1"
	 xmlns="http://www.w3.org/2000/svg" xmlns:xlink="http://www.w3.org/1999/xlink" xmlns:a="http://ns.adobe.com/AdobeSVGViewerExtensions/3.0/"
	 x="0px" y="0px" width="902px" height="360.1px" viewBox="0 0 902 360.1" style="enable-background:new 0 0 902 360.1;"
	 xml:space="preserve">
<style type="text/css">
	.st0{clip-path:url(#SVGID_2_);fill:#C8452A;}
	.st1{fill:#C8452A;}
	.st2{fill:#FFFFFF;}
	.st3{clip-path:url(#SVGID_4_);fill:#C8452A;}
</style>
<defs>
</defs>
<g>
	<defs>
		<rect id="SVGID_1_" width="902" height="360.1"/>
	</defs>
	<clipPath id="SVGID_2_">
		<use xlink:href="#SVGID_1_"  style="overflow:visible;"/>
	</clipPath>
	<path class="st0" d="M50.8,0C50.8,0,0,0,0,50.8v258.5c0,0,0,50.8,50.8,50.8h719.3c0,0,50.8,0,50.8-50.8V50.8c0,0,0-50.8-50.8-50.8
		H50.8z"/>
</g>
<polygon class="st1" points="820.9,232.9 820.9,300.9 902,232.9 "/>
<path class="st2" d="M76.3,73.1h-2.8l3.5-24.8h-9.8l-3.5,24.8h-3l3.5-24.8h-7.7l0.4-2.7h23.4l-1.4,10.2h0.1c2.3-2,5-3.3,7.9-3.3
	c4,0,5.7,2.3,5.1,6.6l-1.9,14h-2.8l1.9-13.3c0.4-2.8-0.4-4.8-3.8-4.8c-2.7,0-5.3,1.7-6.7,2.7L76.3,73.1z M98.8,63.4
	c-0.6,4.5,0.8,7.7,6.1,7.7c2.1,0,4.1-0.1,6.4-0.8l0.1,2.3c-2.5,0.7-4.6,0.9-7.2,0.9c-7.3,0-9.3-4.3-8.4-10.5s4-10.5,11.1-10.5
	c6.3,0,7.3,3.9,6.9,7.3c-0.1,1.2-0.4,2.4-0.8,3.6H98.8z M99.1,61.6h11.5c0.3-0.8,0.4-1.6,0.5-2.4c0.2-2.3-0.9-4.4-4.5-4.4
	C101.9,54.8,99.9,57.8,99.1,61.6z M128.8,55L128.8,55c1.8-1.4,4.3-2.4,6.8-2.4c5.6,0,6.9,4.6,6.1,10.5c-0.8,5.9-3.5,10.5-9.2,10.5
	c-2.5,0-4.7-0.9-6.1-2.3h-0.1l-0.8,2h-2.2l4-28.3h2.8L128.8,55z M134.3,54.9c-2.5,0-4.7,1.2-5.7,1.9l-1.7,12.3
	c0.8,0.8,2.7,1.9,5.2,1.9c4.4,0,6.1-3.8,6.7-8.1C139.3,58.7,138.7,54.9,134.3,54.9z M161.3,53h2.8l-2.8,20.2h-2.8l0.4-2.9h-0.1
	c-2.3,1.9-5,3.3-8,3.3c-4,0-5.7-2.3-5.1-6.6l1.9-14h2.8l-1.9,13.3c-0.4,2.8,0.4,4.8,3.8,4.8c2.7,0,5.2-1.7,6.7-2.7L161.3,53z
	 M174,73.5c-3.1,0-5.9-0.3-8.3-0.9l0.8-2.3c3.1,0.8,6.1,0.9,7.5,0.9c4.3,0,5-2.7,5.2-3.5c0.2-1.5-0.5-2.7-4.6-3.5
	c-4-0.8-7.1-2.1-6.5-6.2c0.5-3.6,3.3-5.4,8-5.4c3.1,0,5.4,0.3,7.7,0.9l-0.8,2.3c-3.1-0.8-5.7-0.9-7.1-0.9c-4.2,0-4.9,2.4-5,3.1
	c-0.2,1.5,0.3,2.8,4.4,3.6c4.3,0.9,7.3,2.1,6.7,6C181.5,71.4,178.6,73.5,174,73.5z M191.2,53l-2.8,20.2h-2.8l2.8-20.2H191.2z
	 M192.2,45.7l-0.6,4.8h-2.8l0.6-4.8H192.2z M196.1,73.1h-2.8l2.8-20.2h2.8l-0.4,2.9h0.1c2.3-2,5-3.3,7.9-3.3c4,0,5.7,2.3,5.1,6.6
	l-1.9,14H207l1.9-13.3c0.4-2.8-0.4-4.8-3.8-4.8c-2.7,0-5.3,1.7-6.7,2.7L196.1,73.1z M218.7,63.4c-0.6,4.5,0.8,7.7,6.1,7.7
	c2.1,0,4.1-0.1,6.4-0.8l0.1,2.3c-2.5,0.7-4.6,0.9-7.2,0.9c-7.3,0-9.3-4.3-8.4-10.5s4-10.5,11.1-10.5c6.3,0,7.3,3.9,6.9,7.3
	c-0.1,1.2-0.4,2.4-0.8,3.6H218.7z M218.9,61.6h11.5c0.3-0.8,0.4-1.6,0.5-2.4c0.2-2.3-0.9-4.4-4.5-4.4
	C221.8,54.8,219.8,57.8,218.9,61.6z M243.8,73.5c-3.1,0-5.9-0.3-8.3-0.9l0.8-2.3c3.1,0.8,6.1,0.9,7.5,0.9c4.3,0,5-2.7,5.2-3.5
	c0.2-1.5-0.5-2.7-4.6-3.5c-4-0.8-7.1-2.1-6.5-6.2c0.5-3.6,3.3-5.4,8-5.4c3.1,0,5.4,0.3,7.7,0.9l-0.8,2.3c-3.1-0.8-5.7-0.9-7.1-0.9
	c-4.2,0-4.9,2.4-5,3.1c-0.2,1.5,0.3,2.8,4.4,3.6c4.3,0.9,7.3,2.1,6.7,6C251.3,71.4,248.5,73.5,243.8,73.5z M263.2,73.5
	c-3.1,0-5.9-0.3-8.3-0.9l0.8-2.3c3.1,0.8,6.1,0.9,7.5,0.9c4.3,0,5-2.7,5.2-3.5c0.2-1.5-0.5-2.7-4.6-3.5c-4-0.8-7.1-2.1-6.5-6.2
	c0.5-3.6,3.3-5.4,8-5.4c3.1,0,5.4,0.3,7.7,0.9l-0.8,2.3c-3.1-0.8-5.7-0.9-7.1-0.9c-4.2,0-4.9,2.4-5,3.1c-0.2,1.5,0.3,2.8,4.4,3.6
	c4.3,0.9,7.3,2.1,6.7,6C270.7,71.4,267.9,73.5,263.2,73.5z M283.1,63c0.9-6.2,3.9-10.5,10.5-10.5s8.4,4.3,7.6,10.5
	c-0.9,6.2-4,10.5-10.5,10.5C284,73.5,282.2,69.3,283.1,63z M286,63c-0.6,4.5,0.2,8.1,4.9,8.1s6.5-3.6,7.2-8.1
	c0.6-4.5-0.2-8.1-4.9-8.1S286.7,58.6,286,63z M311.5,53h5.2l-0.3,2.1h-5.1l-3.7,26.2h-2.8l3.7-26.2h-3.2l0.2-1.9l3.2-0.2l0.4-2.7
	c0.5-3.8,2.2-5.3,6.3-5.3c0.9,0,2,0.1,3,0.3l-0.6,2.2c-0.9-0.2-1.6-0.2-2.2-0.2c-2.6,0-3.5,0.8-3.8,3.3L311.5,53z M329.6,55h-3.2
	l0.2-1.9l3.2-0.2l1.1-5.6h2.5l-0.8,5.6h6l-0.3,2.1h-5.9l-1.7,11.7c-0.4,2.9,0.2,4.5,3.1,4.5c0.6,0,1.3,0,2.2-0.2l0,2.2
	c-1.1,0.2-2.5,0.3-3.4,0.3c-3.9,0-5.4-1.6-4.7-6.3L329.6,55z M343.4,73.1h-2.8l4-28.2h2.8l-1.5,11h0.1c2.3-2,5-3.3,7.9-3.3
	c4,0,5.7,2.3,5.1,6.6l-1.9,14h-2.8l1.9-13.3c0.4-2.8-0.4-4.8-3.8-4.8c-2.7,0-5.3,1.7-6.7,2.7L343.4,73.1z M365.9,63.4
	c-0.6,4.5,0.8,7.7,6.1,7.7c2.1,0,4.1-0.1,6.4-0.8l0.1,2.3c-2.5,0.7-4.6,0.9-7.2,0.9c-7.3,0-9.3-4.3-8.4-10.5s4-10.5,11.1-10.5
	c6.3,0,7.3,3.9,6.9,7.3c-0.1,1.2-0.4,2.4-0.8,3.6H365.9z M366.2,61.6h11.5c0.3-0.8,0.4-1.6,0.5-2.4c0.2-2.3-0.9-4.4-4.5-4.4
	C369,54.8,367,57.8,366.2,61.6z M411.1,48.4h-13.7l-1.4,10h11.8l-0.3,2.7h-11.9l-1.7,12.1h-3l3.8-27.4h16.7L411.1,48.4z M416.5,53
	l-2.8,20.2h-2.8l2.8-20.2H416.5z M417.5,45.7l-0.6,4.8H414l0.6-4.8H417.5z M421.4,73.1h-2.8l2.8-20.2h2.8l-0.4,2.9h0.1
	c2.3-2,5-3.3,7.9-3.3c4,0,5.7,2.3,5.1,6.6l-1.9,14h-2.8l1.9-13.3c0.4-2.8-0.4-4.8-3.8-4.8c-2.7,0-5.3,1.7-6.7,2.7L421.4,73.1z
	 M453.8,71.1L453.8,71.1c-1.8,1.4-4.4,2.4-6.9,2.4c-5.6,0-6.8-4.6-6-10.5s3.5-10.5,9.1-10.5c2.4,0,4.7,0.9,6.1,2.3h0.1l0.8-2h2.2
	l-2.9,20.2h-2.8L453.8,71.1z M448.4,71.2c2.5,0,4.7-1.2,5.7-1.9l1.7-12.3c-0.8-0.8-2.7-1.9-5.2-1.9c-4.4,0-6.1,3.8-6.7,8.1
	C443.3,67.4,444,71.2,448.4,71.2z M464.1,73.1h-2.8l2.8-20.2h2.8l-0.4,2.9h0.1c2.3-2,5-3.3,7.9-3.3c4,0,5.7,2.3,5.1,6.6l-1.9,14
	h-2.8l1.9-13.3c0.4-2.8-0.4-4.8-3.8-4.8c-2.7,0-5.3,1.7-6.7,2.7L464.1,73.1z M494.8,52.6c2.5,0,4.3,0.3,6.6,0.9l-0.8,2.3
	c-3.1-0.8-4.8-0.8-6.1-0.8c-4.8,0-7.1,3.5-7.8,8.1c-0.7,4.6,0.7,8.1,5.5,8.1c1.3,0,3,0,6.3-0.8l0.2,2.3c-2.5,0.6-4.4,0.9-6.9,0.9
	c-7.1,0-9-4.3-8.1-10.5S487.6,52.6,494.8,52.6z M504.7,63.4c-0.6,4.5,0.8,7.7,6.1,7.7c2.1,0,4.1-0.1,6.4-0.8l0.1,2.3
	c-2.5,0.7-4.6,0.9-7.2,0.9c-7.3,0-9.3-4.3-8.4-10.5s4-10.5,11.1-10.5c6.3,0,7.3,3.9,6.9,7.3c-0.1,1.2-0.4,2.4-0.8,3.6H504.7z
	 M505,61.6h11.5c0.3-0.8,0.4-1.6,0.5-2.4c0.2-2.3-0.9-4.4-4.5-4.4C507.8,54.8,505.8,57.8,505,61.6z M543.3,71.1L543.3,71.1
	c-1.8,1.4-4.4,2.4-6.9,2.4c-5.6,0-6.8-4.6-6-10.5c0.8-5.9,3.5-10.5,9.1-10.5c2.4,0,4.7,0.9,6.1,2.3h0.1l0.8-2h2.2l-2.9,20.2H543
	L543.3,71.1z M537.8,71.2c2.5,0,4.7-1.2,5.7-1.9l1.7-12.3c-0.8-0.8-2.7-1.9-5.2-1.9c-4.4,0-6.1,3.8-6.7,8.1
	C532.7,67.4,533.5,71.2,537.8,71.2z M553.6,73.1h-2.8l2.8-20.2h2.8l-0.4,2.9h0.1c2.3-2,5-3.3,7.9-3.3c4,0,5.7,2.3,5.1,6.6l-1.9,14
	h-2.8l1.9-13.3c0.4-2.8-0.4-4.8-3.8-4.8c-2.7,0-5.3,1.7-6.7,2.7L553.6,73.1z M586.1,71.1C586,71.1,586,71.1,586.1,71.1
	c-1.8,1.4-4.4,2.4-6.9,2.4c-5.6,0-6.8-4.6-6-10.5c0.8-5.9,3.5-10.5,9.1-10.5c2.4,0,4.6,0.9,6,2.3c0,0,0,0,0.1,0l1.4-10h2.8l-4,28.2
	h-2.8L586.1,71.1z M580.6,71.2c2.5,0,4.7-1.2,5.7-1.9l1.7-12.3c-0.8-0.8-2.7-1.9-5.2-1.9c-4.4,0-6.1,3.8-6.7,8.1
	C575.5,67.4,576.2,71.2,580.6,71.2z M602.7,59.2c1.1-7.6,4.2-13.9,13.4-13.9c3.1,0,5.7,0.4,8.8,1.4l-1,2.5c-4-1-5.7-1.2-7.9-1.2
	c-7,0-9.3,5.2-10.1,11.3c-0.9,6.5-0.1,11.7,6.9,11.7c2.3,0,4.3-0.6,6-1.7l1-7.2h-5.7l0.4-2.7h8.7l-1.7,11.9
	c-2.6,1.1-5.4,2.3-9.4,2.3C602.9,73.5,601.6,67.1,602.7,59.2z M630.6,63.4c-0.6,4.5,0.8,7.7,6.1,7.7c2.1,0,4.1-0.1,6.4-0.8l0.1,2.3
	c-2.5,0.7-4.6,0.9-7.2,0.9c-7.3,0-9.3-4.3-8.4-10.5c0.9-6.2,4-10.5,11.1-10.5c6.3,0,7.3,3.9,6.9,7.3c-0.1,1.2-0.4,2.4-0.8,3.6H630.6
	z M630.8,61.6h11.5c0.3-0.8,0.4-1.6,0.5-2.4c0.2-2.3-0.9-4.4-4.5-4.4C633.7,54.8,631.7,57.8,630.8,61.6z M650.8,73.1H648l2.8-20.2
	h2.8l-0.4,2.9h0.1c2.3-2,5-3.3,7.9-3.3c4,0,5.7,2.3,5.1,6.6l-1.9,14h-2.8l1.9-13.3c0.4-2.8-0.4-4.8-3.8-4.8c-2.7,0-5.3,1.7-6.7,2.7
	L650.8,73.1z M673.3,63.4c-0.6,4.5,0.8,7.7,6.1,7.7c2.1,0,4.1-0.1,6.4-0.8l0.1,2.3c-2.5,0.7-4.6,0.9-7.2,0.9
	c-7.3,0-9.3-4.3-8.4-10.5c0.9-6.2,4-10.5,11.1-10.5c6.3,0,7.3,3.9,6.9,7.3c-0.1,1.2-0.4,2.4-0.8,3.6H673.3z M673.6,61.6H685
	c0.3-0.8,0.4-1.6,0.5-2.4c0.2-2.3-0.9-4.4-4.5-4.4C676.4,54.8,674.4,57.8,673.6,61.6z M693.6,73.1h-2.8l2.8-20.2h2.8l-0.4,3.2h0.1
	c2.1-1.8,5.2-3.6,8.4-3.6l-0.4,2.7c-3.2,0-6.6,1.6-8.4,2.7L693.6,73.1z M716.8,71.1L716.8,71.1c-1.8,1.4-4.4,2.4-6.9,2.4
	c-5.6,0-6.8-4.6-6-10.5c0.8-5.9,3.5-10.5,9.1-10.5c2.4,0,4.7,0.9,6.1,2.3h0.1l0.8-2h2.2l-2.9,20.2h-2.8L716.8,71.1z M711.3,71.2
	c2.5,0,4.7-1.2,5.7-1.9l1.7-12.3c-0.8-0.8-2.7-1.9-5.2-1.9c-4.4,0-6.1,3.8-6.7,8.1C706.3,67.4,707,71.2,711.3,71.2z M728.2,44.9h2.8
	l-4,28.2h-2.8L728.2,44.9z"/>
<g>
	<path class="st2" d="M58.3,110l-1.6,11.5h-3l3.8-27.4h11.1c5.3,0,7.7,3.4,7.1,8c-0.7,4.8-4,7.9-9.3,7.9H58.3z M58.6,107.4h7.8
		c3.3,0,5.6-1.7,6.1-5.3c0.5-3.3-1.3-5.3-4.6-5.3h-7.8L58.6,107.4z"/>
	<path class="st2" d="M93.9,101.4h2.8l-2.8,20.2h-2.8l0.4-2.9h-0.1c-2.3,1.9-5,3.3-8,3.3c-4,0-5.7-2.3-5.1-6.6l1.9-14h2.8l-1.9,13.3
		c-0.4,2.8,0.4,4.8,3.8,4.8c2.7,0,5.2-1.7,6.7-2.7L93.9,101.4z"/>
	<path class="st2" d="M101.7,121.5h-2.8l2.8-20.2h2.8l-0.4,3.2h0.1c2.1-1.8,5.2-3.6,8.4-3.6l-0.4,2.7c-3.2,0-6.6,1.6-8.4,2.7
		L101.7,121.5z"/>
	<path class="st2" d="M119.1,103.4L119.1,103.4c1.8-1.4,4.3-2.4,6.8-2.4c5.6,0,6.9,4.6,6.1,10.5c-0.8,5.9-3.5,10.5-9.2,10.5
		c-2.5,0-4.6-0.9-5.9-2.3h-0.1l-1.5,10h-2.8l4-28.2h2.8L119.1,103.4z M124.6,103.3c-2.5,0-4.7,1.2-5.7,1.9l-1.7,12.3
		c0.8,0.8,2.7,1.9,5.2,1.9c4.4,0,6.1-3.8,6.7-8.1C129.7,107.1,129,103.3,124.6,103.3z"/>
	<path class="st2" d="M136.2,111.4c0.9-6.2,3.9-10.5,10.5-10.5c6.6,0,8.4,4.3,7.6,10.5c-0.9,6.2-4,10.5-10.5,10.5
		S135.3,117.7,136.2,111.4z M139.1,111.4c-0.6,4.5,0.2,8.1,4.9,8.1c4.7,0,6.5-3.6,7.2-8.1c0.6-4.5-0.2-8.1-4.9-8.1
		S139.8,107,139.1,111.4z"/>
	<path class="st2" d="M165.1,121.9c-3.1,0-5.9-0.3-8.3-0.9l0.8-2.3c3.1,0.8,6.1,0.9,7.5,0.9c4.3,0,5-2.7,5.2-3.5
		c0.2-1.5-0.5-2.7-4.6-3.5c-4-0.8-7.1-2.1-6.5-6.2c0.5-3.6,3.3-5.4,8-5.4c3.1,0,5.4,0.3,7.7,0.9l-0.8,2.3c-3.1-0.8-5.7-0.9-7.1-0.9
		c-4.2,0-4.9,2.4-5,3.1c-0.2,1.5,0.3,2.8,4.4,3.6c4.3,0.9,7.3,2.1,6.7,6C172.6,119.8,169.8,121.9,165.1,121.9z"/>
	<path class="st2" d="M180.7,111.8c-0.6,4.5,0.8,7.7,6.1,7.7c2.1,0,4.1-0.1,6.4-0.8l0.1,2.3c-2.5,0.7-4.6,0.9-7.2,0.9
		c-7.3,0-9.3-4.3-8.4-10.5s4-10.5,11.1-10.5c6.3,0,7.3,3.9,6.9,7.3c-0.1,1.2-0.4,2.4-0.8,3.6H180.7z M180.9,110h11.5
		c0.3-0.8,0.4-1.6,0.5-2.4c0.2-2.3-0.9-4.4-4.5-4.4C183.8,103.2,181.8,106.2,180.9,110z"/>
	<path class="st2" d="M205.8,121.9c-3.1,0-5.9-0.3-8.3-0.9l0.8-2.3c3.1,0.8,6.1,0.9,7.5,0.9c4.3,0,5-2.7,5.2-3.5
		c0.2-1.5-0.5-2.7-4.6-3.5c-4-0.8-7.1-2.1-6.5-6.2c0.5-3.6,3.3-5.4,8-5.4c3.1,0,5.4,0.3,7.7,0.9l-0.8,2.3c-3.1-0.8-5.7-0.9-7.1-0.9
		c-4.2,0-4.9,2.4-5,3.1c-0.2,1.5,0.3,2.8,4.4,3.6c4.3,0.9,7.3,2.1,6.7,6C213.3,119.8,210.5,121.9,205.8,121.9z"/>
	<path class="st2" d="M240,93.7c3.1,0,6,0.4,9.1,1.4l-1,2.5c-4-1-5.9-1.2-8.2-1.2c-7,0-9.3,5.2-10.1,11.3
		c-0.9,6.5-0.1,11.7,6.9,11.7c2.3,0,4.3-0.2,8.5-1.2l0.3,2.5c-3.4,1-6.4,1.4-9.5,1.4c-9.2,0-10.5-6.5-9.4-14.3
		C227.7,100,230.8,93.7,240,93.7z"/>
	<path class="st2" d="M248.7,111.4c0.9-6.2,3.9-10.5,10.5-10.5c6.6,0,8.4,4.3,7.6,10.5c-0.9,6.2-4,10.5-10.5,10.5
		S247.8,117.7,248.7,111.4z M251.7,111.4c-0.6,4.5,0.2,8.1,4.9,8.1c4.7,0,6.5-3.6,7.2-8.1c0.6-4.5-0.2-8.1-4.9-8.1
		S252.3,107,251.7,111.4z"/>
	<path class="st2" d="M272.7,121.5h-2.8l2.8-20.2h2.8l-0.4,2.9h0.1c1.9-1.7,4.2-3.3,7.2-3.3c2.9,0,4.7,1.2,5.1,3.6
		c2.1-2,4.9-3.6,7.8-3.6c4,0,5.7,2.3,5.1,6.6l-1.9,14h-2.8l1.9-13.3c0.4-2.8-0.4-4.8-3.8-4.8c-2.4,0-4.6,1.7-6.1,2.8
		c0,0.6-0.1,1.4-0.2,2.2l-1.9,13.2h-2.8l1.9-13.5c0.3-2.7-0.5-4.7-3.8-4.7c-2.4,0-4.5,1.6-6,2.7L272.7,121.5z"/>
	<path class="st2" d="M306.2,121.5h-2.8l2.8-20.2h2.8l-0.4,2.9h0.1c1.9-1.7,4.2-3.3,7.2-3.3c2.9,0,4.7,1.2,5.1,3.6
		c2.1-2,4.9-3.6,7.8-3.6c4,0,5.7,2.3,5.1,6.6l-1.9,14h-2.8l1.9-13.3c0.4-2.8-0.4-4.8-3.8-4.8c-2.4,0-4.6,1.7-6.1,2.8
		c0,0.6-0.1,1.4-0.2,2.2l-1.9,13.2h-2.8l1.9-13.5c0.3-2.7-0.5-4.7-3.8-4.7c-2.4,0-4.5,1.6-6,2.7L306.2,121.5z"/>
	<path class="st2" d="M342.5,101.4l-2.8,20.2h-2.8l2.8-20.2H342.5z M343.5,94.1l-0.6,4.8H340l0.6-4.8H343.5z"/>
	<path class="st2" d="M348.7,103.4h-3.2l0.2-1.9l3.2-0.2l1.1-5.6h2.5l-0.8,5.6h6l-0.3,2.1h-5.9l-1.7,11.7c-0.4,2.9,0.2,4.5,3.1,4.5
		c0.6,0,1.2,0,2.2-0.2l0,2.2c-1.1,0.2-2.5,0.3-3.4,0.3c-3.9,0-5.4-1.6-4.7-6.3L348.7,103.4z"/>
	<path class="st2" d="M363.9,103.4h-3.2l0.2-1.9l3.2-0.2l1.1-5.6h2.5l-0.8,5.6h6l-0.3,2.1h-5.9l-1.7,11.7c-0.4,2.9,0.2,4.5,3.1,4.5
		c0.6,0,1.2,0,2.2-0.2l0,2.2c-1.1,0.2-2.5,0.3-3.4,0.3c-3.9,0-5.4-1.6-4.7-6.3L363.9,103.4z"/>
	<path class="st2" d="M376.6,111.8c-0.6,4.5,0.8,7.7,6.1,7.7c2.1,0,4.1-0.1,6.4-0.8l0.1,2.3c-2.5,0.7-4.6,0.9-7.2,0.9
		c-7.3,0-9.3-4.3-8.4-10.5s4-10.5,11.1-10.5c6.3,0,7.3,3.9,6.9,7.3c-0.1,1.2-0.4,2.4-0.8,3.6H376.6z M376.8,110h11.5
		c0.3-0.8,0.4-1.6,0.5-2.4c0.2-2.3-0.9-4.4-4.5-4.4C379.7,103.2,377.7,106.2,376.8,110z"/>
	<path class="st2" d="M398,111.8c-0.6,4.5,0.8,7.7,6.1,7.7c2.1,0,4.1-0.1,6.4-0.8l0.1,2.3c-2.5,0.7-4.6,0.9-7.2,0.9
		c-7.3,0-9.3-4.3-8.4-10.5s4-10.5,11.1-10.5c6.3,0,7.3,3.9,6.9,7.3c-0.1,1.2-0.4,2.4-0.8,3.6H398z M398.2,110h11.5
		c0.3-0.8,0.4-1.6,0.5-2.4c0.2-2.3-0.9-4.4-4.5-4.4C401,103.2,399.1,106.2,398.2,110z"/>
	<path class="st2" d="M429.9,101.4h5.2l-0.3,2.1h-5.1l-3.7,26.2h-2.8l3.7-26.2h-3.2l0.2-1.9l3.2-0.2l0.4-2.7
		c0.5-3.8,2.2-5.3,6.3-5.3c0.9,0,2,0.1,3,0.3l-0.6,2.2c-0.9-0.2-1.6-0.2-2.2-0.2c-2.6,0-3.5,0.8-3.8,3.3L429.9,101.4z"/>
	<path class="st2" d="M435.1,111.4c0.9-6.2,3.9-10.5,10.5-10.5c6.6,0,8.4,4.3,7.6,10.5c-0.9,6.2-4,10.5-10.5,10.5
		S434.2,117.7,435.1,111.4z M438.1,111.4c-0.6,4.5,0.2,8.1,4.9,8.1c4.7,0,6.5-3.6,7.2-8.1c0.6-4.5-0.2-8.1-4.9-8.1
		S438.7,107,438.1,111.4z"/>
	<path class="st2" d="M468.4,101c2.5,0,4.3,0.3,6.6,0.9l-0.8,2.3c-3.1-0.8-4.8-0.8-6.1-0.8c-4.8,0-7.1,3.5-7.8,8.1
		c-0.7,4.6,0.7,8.1,5.5,8.1c1.3,0,3,0,6.3-0.8l0.2,2.3c-2.5,0.6-4.4,0.9-6.9,0.9c-7.1,0-9-4.3-8.1-10.5S461.2,101,468.4,101z"/>
	<path class="st2" d="M492.1,101.4h2.8l-2.8,20.2h-2.8l0.4-2.9h-0.1c-2.3,1.9-5,3.3-8,3.3c-4,0-5.7-2.3-5.1-6.6l1.9-14h2.8
		l-1.9,13.3c-0.4,2.8,0.4,4.8,3.8,4.8c2.7,0,5.2-1.7,6.7-2.7L492.1,101.4z"/>
	<path class="st2" d="M504.7,121.9c-3.1,0-5.9-0.3-8.3-0.9l0.8-2.3c3.1,0.8,6.1,0.9,7.5,0.9c4.3,0,5-2.7,5.2-3.5
		c0.2-1.5-0.5-2.7-4.6-3.5c-4-0.8-7.1-2.1-6.5-6.2c0.5-3.6,3.3-5.4,8-5.4c3.1,0,5.4,0.3,7.7,0.9l-0.8,2.3c-3.1-0.8-5.7-0.9-7.1-0.9
		c-4.2,0-4.9,2.4-5,3.1c-0.2,1.5,0.3,2.8,4.4,3.6c4.3,0.9,7.3,2.1,6.7,6C512.2,119.8,509.4,121.9,504.7,121.9z"/>
	<path class="st2" d="M520.4,111.8c-0.6,4.5,0.8,7.7,6.1,7.7c2.1,0,4.1-0.1,6.4-0.8l0.1,2.3c-2.5,0.7-4.6,0.9-7.2,0.9
		c-7.3,0-9.3-4.3-8.4-10.5c0.9-6.2,4-10.5,11.1-10.5c6.3,0,7.3,3.9,6.9,7.3c-0.1,1.2-0.4,2.4-0.8,3.6H520.4z M520.6,110H532
		c0.3-0.8,0.4-1.6,0.5-2.4c0.2-2.3-0.9-4.4-4.5-4.4C523.4,103.2,521.4,106.2,520.6,110z"/>
	<path class="st2" d="M545.5,121.9c-3.1,0-5.9-0.3-8.3-0.9l0.8-2.3c3.1,0.8,6.1,0.9,7.5,0.9c4.3,0,5-2.7,5.2-3.5
		c0.2-1.5-0.5-2.7-4.6-3.5c-4-0.8-7.1-2.1-6.5-6.2c0.5-3.6,3.3-5.4,8-5.4c3.1,0,5.4,0.3,7.7,0.9l-0.8,2.3c-3.1-0.8-5.7-0.9-7.1-0.9
		c-4.2,0-4.9,2.4-5,3.1c-0.2,1.5,0.3,2.8,4.4,3.6c4.3,0.9,7.3,2.1,6.7,6C553,119.8,550.2,121.9,545.5,121.9z"/>
	<path class="st2" d="M565.4,111.4c0.9-6.2,3.9-10.5,10.5-10.5c6.6,0,8.4,4.3,7.6,10.5c-0.9,6.2-4,10.5-10.5,10.5
		C566.3,121.9,564.5,117.7,565.4,111.4z M568.4,111.4c-0.6,4.5,0.2,8.1,4.9,8.1c4.7,0,6.5-3.6,7.2-8.1c0.6-4.5-0.2-8.1-4.9-8.1
		S569,107,568.4,111.4z"/>
	<path class="st2" d="M589.4,121.5h-2.8l2.8-20.2h2.8l-0.4,2.9h0.1c2.3-2,5-3.3,7.9-3.3c4,0,5.7,2.3,5.1,6.6l-1.9,14h-2.8l1.9-13.3
		c0.4-2.8-0.4-4.8-3.8-4.8c-2.7,0-5.3,1.7-6.7,2.7L589.4,121.5z"/>
	<path class="st2" d="M620.5,103.4L620.5,103.4c1.8-1.4,4.3-2.4,6.8-2.4c5.6,0,6.9,4.6,6.1,10.5c-0.8,5.9-3.5,10.5-9.2,10.5
		c-2.5,0-4.6-0.9-5.9-2.3h-0.1l-1.5,10H614l4-28.2h2.8L620.5,103.4z M626,103.3c-2.5,0-4.7,1.2-5.7,1.9l-1.7,12.3
		c0.8,0.8,2.7,1.9,5.2,1.9c4.4,0,6.1-3.8,6.7-8.1C631.1,107.1,630.4,103.3,626,103.3z"/>
	<path class="st2" d="M640.5,93.3h2.8l-4,28.2h-2.8L640.5,93.3z"/>
	<path class="st2" d="M658.2,119.5L658.2,119.5c-1.8,1.4-4.4,2.4-6.9,2.4c-5.6,0-6.8-4.6-6-10.5c0.8-5.9,3.5-10.5,9.1-10.5
		c2.4,0,4.7,0.9,6.1,2.3h0.1l0.8-2h2.2l-2.9,20.2h-2.8L658.2,119.5z M652.7,119.6c2.5,0,4.7-1.2,5.7-1.9l1.7-12.3
		c-0.8-0.8-2.7-1.9-5.2-1.9c-4.4,0-6.1,3.8-6.7,8.1C647.6,115.8,648.4,119.6,652.7,119.6z"/>
	<path class="st2" d="M668.5,121.5h-2.8l2.8-20.2h2.8l-0.4,2.9h0.1c2.3-2,5-3.3,7.9-3.3c4,0,5.7,2.3,5.1,6.6l-1.9,14h-2.8l1.9-13.3
		c0.4-2.8-0.4-4.8-3.8-4.8c-2.7,0-5.3,1.7-6.7,2.7L668.5,121.5z"/>
	<path class="st2" d="M689.9,121.5h-2.8l2.8-20.2h2.8l-0.4,2.9h0.1c2.3-2,5-3.3,7.9-3.3c4,0,5.7,2.3,5.1,6.6l-1.9,14h-2.8l1.9-13.3
		c0.4-2.8-0.4-4.8-3.8-4.8c-2.7,0-5.3,1.7-6.7,2.7L689.9,121.5z"/>
	<path class="st2" d="M714.1,101.4l-2.8,20.2h-2.8l2.8-20.2H714.1z M715.1,94.1l-0.6,4.8h-2.8l0.6-4.8H715.1z"/>
	<path class="st2" d="M719,121.5h-2.8l2.8-20.2h2.8l-0.4,2.9h0.1c2.3-2,5-3.3,7.9-3.3c4,0,5.7,2.3,5.1,6.6l-1.9,14h-2.8l1.9-13.3
		c0.4-2.8-0.4-4.8-3.8-4.8c-2.7,0-5.3,1.7-6.7,2.7L719,121.5z"/>
	<path class="st2" d="M751.5,119.5L751.5,119.5c-1.8,1.4-4.4,2.4-6.9,2.4c-5.6,0-6.8-4.6-6-10.5c0.8-5.9,3.5-10.5,9.1-10.5
		c2.4,0,4.7,0.9,6.1,2.3h0.1l0.8-2h2.2l-2.8,19.6c-0.8,5.6-3.8,9.2-10.9,9.2c-2.5,0-4.3-0.3-6.7-0.9l0.8-2.3
		c3.1,0.8,4.8,0.8,6.1,0.8c4.8,0,7.1-2.1,7.8-6.8L751.5,119.5z M746,119.6c2.5,0,4.7-1.2,5.7-1.9l1.7-12.3c-0.8-0.8-2.7-1.9-5.2-1.9
		c-4.4,0-6.1,3.8-6.7,8.1C740.9,115.8,741.6,119.6,746,119.6z"/>
</g>
<g>
	<path class="st2" d="M67.2,167.9L67.2,167.9c-1.8,1.4-4.4,2.4-6.9,2.4c-5.6,0-6.8-4.6-6-10.5c0.8-5.9,3.5-10.5,9.1-10.5
		c2.4,0,4.7,0.9,6.1,2.3h0.1l0.8-2h2.2l-2.9,20.2h-2.8L67.2,167.9z M61.7,168c2.5,0,4.7-1.2,5.7-1.9l1.7-12.3
		c-0.8-0.8-2.7-1.9-5.2-1.9c-4.4,0-6.1,3.8-6.7,8.1C56.6,164.2,57.3,168,61.7,168z"/>
	<path class="st2" d="M77.5,169.9h-2.8l2.8-20.2h2.8l-0.4,2.9H80c2.3-2,5-3.3,7.9-3.3c4,0,5.7,2.3,5.1,6.6l-1.9,14h-2.8l1.9-13.3
		c0.4-2.8-0.4-4.8-3.8-4.8c-2.7,0-5.3,1.7-6.7,2.7L77.5,169.9z"/>
	<path class="st2" d="M109.9,167.9C109.9,167.9,109.9,167.9,109.9,167.9c-1.8,1.4-4.4,2.4-6.9,2.4c-5.6,0-6.8-4.6-6-10.5
		c0.8-5.9,3.5-10.5,9.1-10.5c2.4,0,4.6,0.9,6,2.3c0,0,0,0,0.1,0l1.4-10h2.8l-4,28.2h-2.8L109.9,167.9z M104.5,168
		c2.5,0,4.7-1.2,5.7-1.9l1.7-12.3c-0.8-0.8-2.7-1.9-5.2-1.9c-4.4,0-6.1,3.8-6.7,8.1C99.4,164.2,100.1,168,104.5,168z"/>
	<path class="st2" d="M138.6,167.9C138.5,167.9,138.5,167.9,138.6,167.9c-1.8,1.4-4.4,2.4-6.9,2.4c-5.6,0-6.8-4.6-6-10.5
		c0.8-5.9,3.5-10.5,9.1-10.5c2.4,0,4.6,0.9,6,2.3c0,0,0,0,0.1,0l1.4-10h2.8l-4,28.2h-2.8L138.6,167.9z M133.1,168
		c2.5,0,4.7-1.2,5.7-1.9l1.7-12.3c-0.8-0.8-2.7-1.9-5.2-1.9c-4.4,0-6.1,3.8-6.7,8.1C128,164.2,128.7,168,133.1,168z"/>
	<path class="st2" d="M150,160.2c-0.6,4.5,0.8,7.7,6.1,7.7c2.1,0,4.1-0.1,6.4-0.8l0.1,2.3c-2.5,0.7-4.6,0.9-7.2,0.9
		c-7.3,0-9.3-4.3-8.4-10.5s4-10.5,11.1-10.5c6.3,0,7.3,3.9,6.9,7.3c-0.1,1.2-0.4,2.4-0.8,3.6H150z M150.3,158.4h11.5
		c0.3-0.8,0.4-1.6,0.5-2.4c0.2-2.3-0.9-4.4-4.5-4.4C153.1,151.6,151.1,154.6,150.3,158.4z"/>
	<path class="st2" d="M172.8,151.8L172.8,151.8c1.8-1.4,4.3-2.4,6.8-2.4c5.6,0,6.9,4.6,6.1,10.5c-0.8,5.9-3.5,10.5-9.2,10.5
		c-2.5,0-4.6-0.9-5.9-2.3h-0.1l-1.5,10h-2.8l4-28.2h2.8L172.8,151.8z M178.2,151.7c-2.5,0-4.7,1.2-5.7,1.9l-1.7,12.3
		c0.8,0.8,2.7,1.9,5.2,1.9c4.4,0,6.1-3.8,6.7-8.1C183.3,155.5,182.6,151.7,178.2,151.7z"/>
	<path class="st2" d="M192.8,141.7h2.8l-4,28.2h-2.8L192.8,141.7z"/>
	<path class="st2" d="M197.6,159.9c0.9-6.2,3.9-10.5,10.5-10.5c6.6,0,8.4,4.3,7.6,10.5c-0.9,6.2-4,10.5-10.5,10.5
		S196.7,166.1,197.6,159.9z M200.5,159.9c-0.6,4.5,0.2,8.1,4.9,8.1c4.7,0,6.5-3.6,7.2-8.1c0.6-4.5-0.2-8.1-4.9-8.1
		S201.1,155.4,200.5,159.9z"/>
	<path class="st2" d="M218.6,149.8h3.2l4,17.4h0.1l8.4-17.4h3l-10.8,21.6c-2.5,5-5,7-8.7,7c-0.9,0-1.9-0.1-2.7-0.3l0.6-2.4
		c0.7,0.2,1.3,0.2,1.8,0.2c3,0,4.9-3.1,6.2-5.6L218.6,149.8z"/>
	<path class="st2" d="M244.5,149.8l-2.8,20.2h-2.8l2.8-20.2H244.5z M245.6,142.5l-0.6,4.8h-2.8l0.6-4.8H245.6z"/>
	<path class="st2" d="M249.5,169.9h-2.8l2.8-20.2h2.8l-0.4,2.9h0.1c2.3-2,5-3.3,7.9-3.3c4,0,5.7,2.3,5.1,6.6l-1.9,14h-2.8l1.9-13.3
		c0.4-2.8-0.4-4.8-3.8-4.8c-2.7,0-5.3,1.7-6.7,2.7L249.5,169.9z"/>
	<path class="st2" d="M281.9,167.9L281.9,167.9c-1.8,1.4-4.4,2.4-6.9,2.4c-5.6,0-6.8-4.6-6-10.5c0.8-5.9,3.5-10.5,9.1-10.5
		c2.4,0,4.7,0.9,6.1,2.3h0.1l0.8-2h2.2l-2.8,19.6c-0.8,5.6-3.8,9.2-10.9,9.2c-2.5,0-4.3-0.3-6.7-0.9l0.8-2.3
		c3.1,0.8,4.8,0.8,6.1,0.8c4.8,0,7.1-2.1,7.8-6.8L281.9,167.9z M276.4,168c2.5,0,4.7-1.2,5.7-1.9l1.7-12.3c-0.8-0.8-2.7-1.9-5.2-1.9
		c-4.4,0-6.1,3.8-6.7,8.1C271.4,164.2,272.1,168,276.4,168z"/>
	<path class="st2" d="M300.8,151.8h-3.2l0.2-1.9l3.2-0.2l1.1-5.6h2.5l-0.8,5.6h6l-0.3,2.1h-5.9l-1.7,11.7c-0.4,2.9,0.2,4.5,3.1,4.5
		c0.6,0,1.2,0,2.2-0.2l0,2.2c-1.1,0.2-2.5,0.3-3.4,0.3c-3.9,0-5.4-1.6-4.7-6.3L300.8,151.8z"/>
	<path class="st2" d="M314.6,169.9h-2.8l4-28.2h2.8l-1.5,11h0.1c2.3-2,5-3.3,7.9-3.3c4,0,5.7,2.3,5.1,6.6l-1.9,14h-2.8l1.9-13.3
		c0.4-2.8-0.4-4.8-3.8-4.8c-2.7,0-5.3,1.7-6.7,2.7L314.6,169.9z"/>
	<path class="st2" d="M337.2,160.2c-0.6,4.5,0.8,7.7,6.1,7.7c2.1,0,4.1-0.1,6.4-0.8l0.1,2.3c-2.5,0.7-4.6,0.9-7.2,0.9
		c-7.3,0-9.3-4.3-8.4-10.5s4-10.5,11.1-10.5c6.3,0,7.3,3.9,6.9,7.3c-0.1,1.2-0.4,2.4-0.8,3.6H337.2z M337.4,158.4h11.5
		c0.3-0.8,0.4-1.6,0.5-2.4c0.2-2.3-0.9-4.4-4.5-4.4C340.2,151.6,338.2,154.6,337.4,158.4z"/>
	<path class="st2" d="M364.6,169.9h-2.8l2.8-20.2h2.8L367,153h0.1c2.1-1.8,5.2-3.6,8.4-3.6l-0.4,2.7c-3.2,0-6.6,1.6-8.4,2.7
		L364.6,169.9z"/>
	<path class="st2" d="M378,160.2c-0.6,4.5,0.8,7.7,6.1,7.7c2.1,0,4.1-0.1,6.4-0.8l0.1,2.3c-2.5,0.7-4.6,0.9-7.2,0.9
		c-7.3,0-9.3-4.3-8.4-10.5s4-10.5,11.1-10.5c6.3,0,7.3,3.9,6.9,7.3c-0.1,1.2-0.4,2.4-0.8,3.6H378z M378.3,158.4h11.5
		c0.3-0.8,0.4-1.6,0.5-2.4c0.2-2.3-0.9-4.4-4.5-4.4C381.1,151.6,379.1,154.6,378.3,158.4z"/>
	<path class="st2" d="M403.1,170.3c-3.1,0-5.9-0.3-8.3-0.9l0.8-2.3c3.1,0.8,6.1,0.9,7.5,0.9c4.3,0,5-2.7,5.2-3.5
		c0.2-1.5-0.5-2.7-4.6-3.5c-4-0.8-7.1-2.1-6.5-6.2c0.5-3.6,3.3-5.4,8-5.4c3.1,0,5.4,0.3,7.7,0.9l-0.8,2.3c-3.1-0.8-5.7-0.9-7.1-0.9
		c-4.2,0-4.9,2.4-5,3.1c-0.2,1.5,0.3,2.8,4.4,3.6c4.3,0.9,7.3,2.1,6.7,6C410.6,168.2,407.8,170.3,403.1,170.3z"/>
	<path class="st2" d="M415.8,159.9c0.9-6.2,3.9-10.5,10.5-10.5c6.6,0,8.4,4.3,7.6,10.5c-0.9,6.2-4,10.5-10.5,10.5
		S414.9,166.1,415.8,159.9z M418.8,159.9c-0.6,4.5,0.2,8.1,4.9,8.1c4.7,0,6.5-3.6,7.2-8.1c0.6-4.5-0.2-8.1-4.9-8.1
		S419.4,155.4,418.8,159.9z"/>
	<path class="st2" d="M453.4,149.8h2.8l-2.8,20.2h-2.8l0.4-2.9h-0.1c-2.3,1.9-5,3.3-8,3.3c-4,0-5.7-2.3-5.1-6.6l1.9-14h2.8
		l-1.9,13.3c-0.4,2.8,0.4,4.8,3.8,4.8c2.7,0,5.2-1.7,6.7-2.7L453.4,149.8z"/>
	<path class="st2" d="M461.1,169.9h-2.8l2.8-20.2h2.8l-0.4,3.2h0.1c2.1-1.8,5.2-3.6,8.4-3.6l-0.4,2.7c-3.2,0-6.6,1.6-8.4,2.7
		L461.1,169.9z"/>
	<path class="st2" d="M482.6,149.4c2.5,0,4.3,0.3,6.6,0.9l-0.8,2.3c-3.1-0.8-4.8-0.8-6.1-0.8c-4.8,0-7.1,3.5-7.8,8.1
		c-0.7,4.6,0.7,8.1,5.5,8.1c1.3,0,3,0,6.3-0.8l0.2,2.3c-2.5,0.6-4.4,0.9-6.9,0.9c-7.1,0-9-4.3-8.1-10.5
		C472.4,153.6,475.5,149.4,482.6,149.4z"/>
	<path class="st2" d="M492.6,160.2c-0.6,4.5,0.8,7.7,6.1,7.7c2.1,0,4.1-0.1,6.4-0.8l0.1,2.3c-2.5,0.7-4.6,0.9-7.2,0.9
		c-7.3,0-9.3-4.3-8.4-10.5c0.9-6.2,4-10.5,11.1-10.5c6.3,0,7.3,3.9,6.9,7.3c-0.1,1.2-0.4,2.4-0.8,3.6H492.6z M492.8,158.4h11.5
		c0.3-0.8,0.4-1.6,0.5-2.4c0.2-2.3-0.9-4.4-4.5-4.4C495.7,151.6,493.7,154.6,492.8,158.4z"/>
	<path class="st2" d="M517.7,170.3c-3.1,0-5.9-0.3-8.3-0.9l0.8-2.3c3.1,0.8,6.1,0.9,7.5,0.9c4.3,0,5-2.7,5.2-3.5
		c0.2-1.5-0.5-2.7-4.6-3.5c-4-0.8-7.1-2.1-6.5-6.2c0.5-3.6,3.3-5.4,8-5.4c3.1,0,5.4,0.3,7.7,0.9l-0.8,2.3c-3.1-0.8-5.7-0.9-7.1-0.9
		c-4.2,0-4.9,2.4-5,3.1c-0.2,1.5,0.3,2.8,4.4,3.6c4.3,0.9,7.3,2.1,6.7,6C525.2,168.2,522.4,170.3,517.7,170.3z"/>
	<path class="st2" d="M539.4,169.9h-2.8l2.8-20.2h2.8l-0.4,2.9h0.1c2.3-2,5-3.3,7.9-3.3c4,0,5.7,2.3,5.1,6.6l-1.9,14h-2.8l1.9-13.3
		c0.4-2.8-0.4-4.8-3.8-4.8c-2.7,0-5.3,1.7-6.7,2.7L539.4,169.9z"/>
	<path class="st2" d="M562,160.2c-0.6,4.5,0.8,7.7,6.1,7.7c2.1,0,4.1-0.1,6.4-0.8l0.1,2.3c-2.5,0.7-4.6,0.9-7.2,0.9
		c-7.3,0-9.3-4.3-8.4-10.5c0.9-6.2,4-10.5,11.1-10.5c6.3,0,7.3,3.9,6.9,7.3c-0.1,1.2-0.4,2.4-0.8,3.6H562z M562.2,158.4h11.5
		c0.3-0.8,0.4-1.6,0.5-2.4c0.2-2.3-0.9-4.4-4.5-4.4C565,151.6,563.1,154.6,562.2,158.4z"/>
	<path class="st2" d="M583.4,160.2c-0.6,4.5,0.8,7.7,6.1,7.7c2.1,0,4.1-0.1,6.4-0.8l0.1,2.3c-2.5,0.7-4.6,0.9-7.2,0.9
		c-7.3,0-9.3-4.3-8.4-10.5c0.9-6.2,4-10.5,11.1-10.5c6.3,0,7.3,3.9,6.9,7.3c-0.1,1.2-0.4,2.4-0.8,3.6H583.4z M583.6,158.4h11.5
		c0.3-0.8,0.4-1.6,0.5-2.4c0.2-2.3-0.9-4.4-4.5-4.4C586.4,151.6,584.4,154.6,583.6,158.4z"/>
	<path class="st2" d="M614.7,167.9C614.6,167.9,614.6,167.9,614.7,167.9c-1.8,1.4-4.4,2.4-6.9,2.4c-5.6,0-6.8-4.6-6-10.5
		c0.8-5.9,3.5-10.5,9.1-10.5c2.4,0,4.6,0.9,6,2.3c0,0,0,0,0.1,0l1.4-10h2.8l-4,28.2h-2.8L614.7,167.9z M609.2,168
		c2.5,0,4.7-1.2,5.7-1.9l1.7-12.3c-0.8-0.8-2.7-1.9-5.2-1.9c-4.4,0-6.1,3.8-6.7,8.1C604.1,164.2,604.8,168,609.2,168z"/>
	<path class="st2" d="M626.1,160.2c-0.6,4.5,0.8,7.7,6.1,7.7c2.1,0,4.1-0.1,6.4-0.8l0.1,2.3c-2.5,0.7-4.6,0.9-7.2,0.9
		c-7.3,0-9.3-4.3-8.4-10.5s4-10.5,11.1-10.5c6.3,0,7.3,3.9,6.9,7.3c-0.1,1.2-0.4,2.4-0.8,3.6H626.1z M626.4,158.4h11.5
		c0.3-0.8,0.4-1.6,0.5-2.4c0.2-2.3-0.9-4.4-4.5-4.4C629.2,151.6,627.2,154.6,626.4,158.4z"/>
	<path class="st2" d="M657.4,167.9C657.4,167.9,657.4,167.9,657.4,167.9c-1.8,1.4-4.4,2.4-6.9,2.4c-5.6,0-6.8-4.6-6-10.5
		c0.8-5.9,3.5-10.5,9.1-10.5c2.4,0,4.6,0.9,6,2.3c0,0,0,0,0.1,0l1.4-10h2.8l-4,28.2h-2.8L657.4,167.9z M651.9,168
		c2.5,0,4.7-1.2,5.7-1.9l1.7-12.3c-0.8-0.8-2.7-1.9-5.2-1.9c-4.4,0-6.1,3.8-6.7,8.1C646.8,164.2,647.6,168,651.9,168z"/>
	<path class="st2" d="M676.3,151.8h-3.2l0.2-1.9l3.2-0.2l1.1-5.6h2.5l-0.8,5.6h6l-0.3,2.1h-5.9l-1.7,11.7c-0.4,2.9,0.2,4.5,3.1,4.5
		c0.6,0,1.2,0,2.2-0.2l0,2.2c-1.1,0.2-2.5,0.3-3.4,0.3c-3.9,0-5.4-1.6-4.7-6.3L676.3,151.8z"/>
	<path class="st2" d="M686.1,159.9c0.9-6.2,3.9-10.5,10.5-10.5c6.6,0,8.4,4.3,7.6,10.5c-0.9,6.2-4,10.5-10.5,10.5
		S685.2,166.1,686.1,159.9z M689,159.9c-0.6,4.5,0.2,8.1,4.9,8.1c4.7,0,6.5-3.6,7.2-8.1c0.6-4.5-0.2-8.1-4.9-8.1
		C691.5,151.7,689.6,155.4,689,159.9z"/>
</g>
<g>
	<path class="st2" d="M67.2,216.3C67.1,216.3,67.1,216.3,67.2,216.3c-1.8,1.4-4.4,2.4-6.9,2.4c-5.6,0-6.8-4.6-6-10.5
		c0.8-5.9,3.5-10.5,9.1-10.5c2.4,0,4.6,0.9,6,2.3c0,0,0,0,0.1,0l1.4-10h2.8l-4,28.2h-2.8L67.2,216.3z M61.7,216.4
		c2.5,0,4.7-1.2,5.7-1.9l1.7-12.3c-0.8-0.8-2.7-1.9-5.2-1.9c-4.4,0-6.1,3.8-6.7,8.1C56.6,212.6,57.3,216.4,61.7,216.4z"/>
	<path class="st2" d="M78.6,208.6c-0.6,4.5,0.8,7.7,6.1,7.7c2.1,0,4.1-0.1,6.4-0.8l0.1,2.3c-2.5,0.7-4.6,0.9-7.2,0.9
		c-7.3,0-9.3-4.3-8.4-10.5s4-10.5,11.1-10.5c6.3,0,7.3,3.9,6.9,7.3c-0.1,1.2-0.4,2.4-0.8,3.6H78.6z M78.9,206.8h11.5
		c0.3-0.8,0.4-1.6,0.5-2.4c0.2-2.3-0.9-4.4-4.5-4.4C81.7,200,79.7,203,78.9,206.8z"/>
	<path class="st2" d="M100,190.1h2.8l-4,28.2H96L100,190.1z"/>
	<path class="st2" d="M109.4,198.2l-2.8,20.2h-2.8l2.8-20.2H109.4z M110.4,190.9l-0.6,4.8H107l0.6-4.8H110.4z"/>
	<path class="st2" d="M118.6,218.5l-4.8-20.4h3.2l3.8,17.1h0.1l8.7-17.1h3L122,218.5H118.6z"/>
	<path class="st2" d="M135.6,208.6c-0.6,4.5,0.8,7.7,6.1,7.7c2.1,0,4.1-0.1,6.4-0.8l0.1,2.3c-2.5,0.7-4.6,0.9-7.2,0.9
		c-7.3,0-9.3-4.3-8.4-10.5s4-10.5,11.1-10.5c6.3,0,7.3,3.9,6.9,7.3c-0.1,1.2-0.4,2.4-0.8,3.6H135.6z M135.9,206.8h11.5
		c0.3-0.8,0.4-1.6,0.5-2.4c0.2-2.3-0.9-4.4-4.5-4.4C138.7,200,136.7,203,135.9,206.8z"/>
	<path class="st2" d="M155.8,218.3H153l2.8-20.2h2.8l-0.4,3.2h0.1c2.1-1.8,5.2-3.6,8.4-3.6l-0.4,2.7c-3.2,0-6.6,1.6-8.4,2.7
		L155.8,218.3z"/>
	<path class="st2" d="M177.1,204.4c1.1-7.6,4.2-13.9,13.4-13.9c3.1,0,5.7,0.4,8.8,1.4l-1,2.5c-4-1-5.7-1.2-7.9-1.2
		c-7,0-9.3,5.2-10.1,11.3c-0.9,6.5-0.1,11.7,6.9,11.7c2.3,0,4.3-0.6,6-1.7l1-7.2h-5.7l0.4-2.7h8.7l-1.7,11.9
		c-2.6,1.1-5.4,2.3-9.4,2.3C177.3,218.7,176.1,212.3,177.1,204.4z"/>
	<path class="st2" d="M214.8,193.6l-3.5,24.8h-3l3.5-24.8h-7.7l0.4-2.7h18.5l-0.4,2.7H214.8z"/>
	<path class="st2" d="M237.2,190.5c3.1,0,6,0.4,9.1,1.4l-1,2.5c-4-1-5.9-1.2-8.2-1.2c-7,0-9.3,5.2-10.1,11.3
		c-0.9,6.5-0.1,11.7,6.9,11.7c2.3,0,4.3-0.2,8.5-1.2l0.3,2.5c-3.4,1-6.4,1.4-9.5,1.4c-9.2,0-10.5-6.5-9.4-14.3
		C224.9,196.8,228,190.5,237.2,190.5z"/>
	<path class="st2" d="M254.3,217.4l0.9-2.5c4,1,6.7,1.2,9,1.2c4.6,0,6.9-2.5,7.2-5c0.5-3.7-3.6-4.7-6.4-5.4
		c-4.2-1.1-8.1-3.5-7.5-8.1c0.7-5.1,5-7.1,10.2-7.1c3,0,5.8,0.4,8.9,1.4l-1,2.5c-4-1-6-1.2-8.2-1.2c-4.6,0-6.4,2.1-6.7,4.5
		c-0.5,3.5,3.9,4.8,6.7,5.5c4.2,1,7.9,3,7.2,7.7c-0.7,5.2-5.2,7.9-10.7,7.9C260.8,218.7,257.5,218.3,254.3,217.4z"/>
	<path class="st2" d="M290.5,197.8c2.5,0,4.3,0.3,6.6,0.9l-0.8,2.3c-3.1-0.8-4.8-0.8-6.1-0.8c-4.8,0-7.1,3.5-7.8,8.1
		c-0.7,4.6,0.7,8.1,5.5,8.1c1.3,0,3,0,6.3-0.8l0.2,2.3c-2.5,0.6-4.4,0.9-6.9,0.9c-7.1,0-9-4.3-8.1-10.5S283.3,197.8,290.5,197.8z"/>
	<path class="st2" d="M297.5,208.3c0.9-6.2,3.9-10.5,10.5-10.5c6.6,0,8.4,4.3,7.6,10.5c-0.9,6.2-4,10.5-10.5,10.5
		S296.6,214.5,297.5,208.3z M300.4,208.3c-0.6,4.5,0.2,8.1,4.9,8.1c4.7,0,6.5-3.6,7.2-8.1c0.6-4.5-0.2-8.1-4.9-8.1
		S301.1,203.8,300.4,208.3z"/>
	<path class="st2" d="M322.8,200.2h-3.2l0.2-1.9l3.2-0.2l1.1-5.6h2.5l-0.8,5.6h6l-0.3,2.1h-5.9L324,212c-0.4,2.9,0.2,4.5,3.1,4.5
		c0.6,0,1.2,0,2.2-0.2l0,2.2c-1.1,0.2-2.5,0.3-3.4,0.3c-3.9,0-5.4-1.6-4.7-6.3L322.8,200.2z"/>
	<path class="st2" d="M337.7,190.1h2.8l-4,28.2h-2.8L337.7,190.1z"/>
	<path class="st2" d="M355.4,216.3L355.4,216.3c-1.8,1.4-4.4,2.4-6.9,2.4c-5.6,0-6.8-4.6-6-10.5c0.8-5.9,3.5-10.5,9.1-10.5
		c2.4,0,4.7,0.9,6.1,2.3h0.1l0.8-2h2.2l-2.9,20.2h-2.8L355.4,216.3z M349.9,216.4c2.5,0,4.7-1.2,5.7-1.9l1.7-12.3
		c-0.8-0.8-2.7-1.9-5.2-1.9c-4.4,0-6.1,3.8-6.7,8.1C344.9,212.6,345.6,216.4,349.9,216.4z"/>
	<path class="st2" d="M365.7,218.3h-2.8l2.8-20.2h2.8l-0.4,2.9h0.1c2.3-2,5-3.3,7.9-3.3c4,0,5.7,2.3,5.1,6.6l-1.9,14h-2.8l1.9-13.3
		c0.4-2.8-0.4-4.8-3.8-4.8c-2.7,0-5.3,1.7-6.7,2.7L365.7,218.3z"/>
	<path class="st2" d="M398.2,216.3C398.1,216.3,398.1,216.3,398.2,216.3c-1.8,1.4-4.4,2.4-6.9,2.4c-5.6,0-6.8-4.6-6-10.5
		c0.8-5.9,3.5-10.5,9.1-10.5c2.4,0,4.6,0.9,6,2.3c0,0,0,0,0.1,0l1.4-10h2.8l-4,28.2h-2.8L398.2,216.3z M392.7,216.4
		c2.5,0,4.7-1.2,5.7-1.9l1.7-12.3c-0.8-0.8-2.7-1.9-5.2-1.9c-4.4,0-6.1,3.8-6.7,8.1C387.6,212.6,388.3,216.4,392.7,216.4z"/>
	<path class="st2" d="M408.4,201.1l1.4-5.2c-0.3,0-0.7,0-1,0l0.7-5h2.8l-0.7,5l-2.2,5.2H408.4z"/>
	<path class="st2" d="M421.1,218.7c-3.1,0-5.9-0.3-8.3-0.9l0.8-2.3c3.1,0.8,6.1,0.9,7.5,0.9c4.3,0,5-2.7,5.2-3.5
		c0.2-1.5-0.5-2.7-4.6-3.5c-4-0.8-7.1-2.1-6.5-6.2c0.5-3.6,3.3-5.4,8-5.4c3.1,0,5.4,0.3,7.7,0.9l-0.8,2.3c-3.1-0.8-5.7-0.9-7.1-0.9
		c-4.2,0-4.9,2.4-5,3.1c-0.2,1.5,0.3,2.8,4.4,3.6c4.3,0.9,7.3,2.1,6.7,6C428.6,216.6,425.8,218.7,421.1,218.7z"/>
	<path class="st2" d="M441,208.3c0.9-6.2,3.9-10.5,10.5-10.5c6.6,0,8.4,4.3,7.6,10.5c-0.9,6.2-4,10.5-10.5,10.5
		S440.1,214.5,441,208.3z M444,208.3c-0.6,4.5,0.2,8.1,4.9,8.1c4.7,0,6.5-3.6,7.2-8.1c0.6-4.5-0.2-8.1-4.9-8.1
		S444.6,203.8,444,208.3z"/>
	<path class="st2" d="M467.6,200.2L467.6,200.2c1.8-1.4,4.3-2.4,6.8-2.4c5.6,0,6.9,4.6,6.1,10.5c-0.8,5.9-3.5,10.5-9.2,10.5
		c-2.5,0-4.7-0.9-6.1-2.3h-0.1l-0.8,2h-2.2l4-28.3h2.8L467.6,200.2z M473,200.1c-2.5,0-4.7,1.2-5.7,1.9l-1.7,12.3
		c0.8,0.8,2.7,1.9,5.2,1.9c4.4,0,6.1-3.8,6.7-8.1C478.1,203.9,477.4,200.1,473,200.1z"/>
	<path class="st2" d="M485.4,221.5c-0.5,3.8-2.2,5.3-6.3,5.3c-0.9,0-2-0.1-3-0.3l0.6-2.2c0.9,0.2,1.5,0.2,2.1,0.2
		c2.5,0,3.5-0.8,3.8-3.3l3.2-23h2.8L485.4,221.5z M489.7,190.9l-0.6,4.8h-2.8l0.6-4.8H489.7z"/>
	<path class="st2" d="M494.8,208.6c-0.6,4.5,0.8,7.7,6.1,7.7c2.1,0,4.1-0.1,6.4-0.8l0.1,2.3c-2.5,0.7-4.6,0.9-7.2,0.9
		c-7.3,0-9.3-4.3-8.4-10.5s4-10.5,11.1-10.5c6.3,0,7.3,3.9,6.9,7.3c-0.1,1.2-0.4,2.4-0.8,3.6H494.8z M495,206.8h11.5
		c0.3-0.8,0.4-1.6,0.5-2.4c0.2-2.3-0.9-4.4-4.5-4.4C497.8,200,495.9,203,495,206.8z"/>
	<path class="st2" d="M524.3,197.8c2.5,0,4.3,0.3,6.6,0.9l-0.8,2.3c-3.1-0.8-4.8-0.8-6.1-0.8c-4.8,0-7.1,3.5-7.8,8.1
		c-0.7,4.6,0.7,8.1,5.5,8.1c1.3,0,3,0,6.3-0.8l0.2,2.3c-2.5,0.6-4.4,0.9-6.9,0.9c-7.1,0-9-4.3-8.1-10.5S517.1,197.8,524.3,197.8z"/>
	<path class="st2" d="M535.7,200.2h-3.2l0.2-1.9l3.2-0.2l1.1-5.6h2.5l-0.8,5.6h6l-0.3,2.1h-5.9l-1.7,11.7c-0.4,2.9,0.2,4.5,3.1,4.5
		c0.6,0,1.2,0,2.2-0.2l0,2.2c-1.1,0.2-2.5,0.3-3.4,0.3c-3.9,0-5.4-1.6-4.7-6.3L535.7,200.2z"/>
	<path class="st2" d="M552.3,198.2l-2.8,20.2h-2.8l2.8-20.2H552.3z M553.3,190.9l-0.6,4.8h-2.8l0.6-4.8H553.3z"/>
	<path class="st2" d="M561.5,218.5l-4.8-20.4h3.2l3.8,17.1h0.1l8.7-17.1h3l-10.5,20.4H561.5z"/>
	<path class="st2" d="M578.6,208.6c-0.6,4.5,0.8,7.7,6.1,7.7c2.1,0,4.1-0.1,6.4-0.8l0.1,2.3c-2.5,0.7-4.6,0.9-7.2,0.9
		c-7.3,0-9.3-4.3-8.4-10.5s4-10.5,11.1-10.5c6.3,0,7.3,3.9,6.9,7.3c-0.1,1.2-0.4,2.4-0.8,3.6H578.6z M578.8,206.8h11.5
		c0.3-0.8,0.4-1.6,0.5-2.4c0.2-2.3-0.9-4.4-4.5-4.4C581.6,200,579.6,203,578.8,206.8z"/>
	<path class="st2" d="M603.7,218.7c-3.1,0-5.9-0.3-8.3-0.9l0.8-2.3c3.1,0.8,6.1,0.9,7.5,0.9c4.3,0,5-2.7,5.2-3.5
		c0.2-1.5-0.5-2.7-4.6-3.5c-4-0.8-7.1-2.1-6.5-6.2c0.5-3.6,3.3-5.4,8-5.4c3.1,0,5.4,0.3,7.7,0.9l-0.8,2.3c-3.1-0.8-5.7-0.9-7.1-0.9
		c-4.2,0-4.9,2.4-5,3.1c-0.2,1.5,0.3,2.8,4.4,3.6c4.3,0.9,7.3,2.1,6.7,6C611.2,216.6,608.4,218.7,603.7,218.7z"/>
</g>
<g>
	<path class="st2" d="M52.9,274.1v-24.4h4.9v24.4H52.9z"/>
	<path class="st2" d="M75.1,268.5h-7.7l-1.6,5.5h-5.2l7.9-24.6h6l7.8,24.6h-5.5L75.1,268.5z M71.3,255.7l-2.8,8.8h5.7L71.3,255.7
		L71.3,255.7z"/>
	<path class="st2" d="M84.9,274.1v-24.4h4.9l9.8,15.3h0.1v-15.3h4.8v24.4h-4.9l-9.8-14.8h-0.1v14.8H84.9z"/>
	<path class="st2" d="M124,267.6c0,4.9-2.5,6.8-6.5,6.8c-1.5,0-2.8-0.1-3.8-0.3l0.4-4.1c0.8,0.1,1.4,0.2,2,0.2
		c1.6,0,2.9-0.6,2.9-2.8v-17.6h4.9V267.6z"/>
	<path class="st2" d="M140.3,268.5h-7.7l-1.6,5.5h-5.2l7.9-24.6h6l7.8,24.6H142L140.3,268.5z M136.4,255.7l-2.8,8.8h5.7L136.4,255.7
		L136.4,255.7z"/>
	<path class="st2" d="M159.3,249.3c2.9,0,5.5,0.4,8.8,1.4l-1.1,4.1c-3.8-0.9-5.4-1.1-7.3-1.1c-4.5,0-6.1,3.1-6.1,8
		c0,5.2,1.5,8.4,6.1,8.4c1.9,0,3.4-0.2,7.3-1.1l1.1,4.1c-3.3,1-5.9,1.3-8.8,1.3c-8.6,0-10.9-5.7-10.9-12.7
		C148.4,254.8,150.7,249.3,159.3,249.3z"/>
	<path class="st2" d="M175.9,260.8l9.2-11.1h5.9l-8.5,10.3l8.6,14.1h-6.2l-6-10.1l-3,3.6v6.6H171v-24.4h4.9V260.8z"/>
	<path class="st2" d="M192.5,273.1l0.9-4.1c3.8,0.9,6.5,1.1,8.4,1.1c2.5,0,4-1.1,4-2.8c0-2.3-2.8-2.7-5.6-3.5
		c-4.2-1.2-7.3-3.5-7.3-7.6c0-4.9,4.1-6.8,8.9-6.8c2.8,0,5.3,0.4,8.6,1.4l-1.1,4.1c-3.8-0.9-5.6-1.1-7.5-1.1c-2.5,0-3.7,1.1-3.7,2.5
		c0,2,2.6,2.7,5.6,3.4c4.2,1,7.4,3,7.4,7.2c0,5.2-4,7.5-9.2,7.5C198.9,274.4,195.8,274.1,192.5,273.1z"/>
	<path class="st2" d="M214,261.7c0-6.9,2.3-12.4,10.9-12.4c8.6,0,10.8,5.5,10.8,12.4c0,7-2.3,12.7-10.8,12.7
		C216.3,274.4,214,268.6,214,261.7z M219.2,261.7c0,4.8,0.9,8.6,5.7,8.6s5.6-3.8,5.6-8.6s-0.8-8.2-5.6-8.2S219.2,256.9,219.2,261.7z
		"/>
	<path class="st2" d="M239.2,274.1v-24.4h4.9l9.8,15.3h0.1v-15.3h4.8v24.4h-4.9l-9.8-14.8H244v14.8H239.2z"/>
	<path class="st2" d="M263.3,278.7l0.9-4.7c-0.6,0-1.3,0-1.9,0v-5.2h4.7v5.2l-2.2,4.7H263.3z"/>
	<path class="st2" d="M287.6,249.3c2.9,0,5.5,0.4,8.8,1.4l-1.1,4.1c-3.8-0.9-5.4-1.1-7.3-1.1c-4.5,0-6.1,3.1-6.1,8
		c0,5.2,1.5,8.4,6.1,8.4c1.9,0,3.4-0.2,7.3-1.1l1.1,4.1c-3.3,1-5.9,1.3-8.8,1.3c-8.6,0-10.9-5.7-10.9-12.7
		C276.7,254.8,279,249.3,287.6,249.3z"/>
	<path class="st2" d="M298,261.7c0-6.9,2.3-12.4,10.9-12.4c8.6,0,10.8,5.5,10.8,12.4c0,7-2.3,12.7-10.8,12.7
		C300.2,274.4,298,268.6,298,261.7z M303.2,261.7c0,4.8,0.9,8.6,5.7,8.6s5.6-3.8,5.6-8.6s-0.8-8.2-5.6-8.2S303.2,256.9,303.2,261.7z
		"/>
	<path class="st2" d="M323.1,274.1v-24.4h4.9l9.8,15.3h0.1v-15.3h4.8v24.4h-4.9l-9.8-14.8h-0.1v14.8H323.1z"/>
	<path class="st2" d="M356.4,268.1l5.5-18.4h5.2l-7.8,24.6h-6l-7.9-24.6h5.5L356.4,268.1L356.4,268.1z"/>
	<path class="st2" d="M386.2,254.1h-11.5v5.2h9.9v4.4h-9.9v6h11.7v4.4h-16.7v-24.4h16.5V254.1z"/>
	<path class="st2" d="M390.3,274.1v-24.4h4.9L405,265h0.1v-15.3h4.8v24.4h-4.9l-9.8-14.8h-0.1v14.8H390.3z"/>
	<path class="st2" d="M430.5,254.1H419v5.2h9.9v4.4H419v6h11.7v4.4H414v-24.4h16.5V254.1z"/>
	<path class="st2" d="M448.2,274.1l-5.1-8.7h-3.5v8.7h-4.9v-24.4H445c5.1,0,8.1,3.1,8.1,7.9c0,3.3-1.5,6.1-4.8,7l5.7,9.5H448.2z
		 M439.6,261h4.8c2,0,3.6-0.9,3.6-3.4c0-2.5-1.5-3.4-3.5-3.4h-4.9V261z"/>
	<path class="st2" d="M457.6,278.7l0.9-4.7c-0.6,0-1.3,0-1.9,0v-5.2h4.7v5.2l-2.2,4.7H457.6z"/>
	<path class="st2" d="M487.4,254.1h-11.2v5.9h9.6v4.4h-9.6v9.7h-4.9v-24.4h16.1V254.1z"/>
	<path class="st2" d="M490.9,274.1v-24.4h4.9v24.4H490.9z"/>
	<path class="st2" d="M500.1,274.1v-24.4h4.9l9.8,15.3h0.1v-15.3h4.8v24.4h-4.9l-9.8-14.8h-0.1v14.8H500.1z"/>
	<path class="st2" d="M537,268.5h-7.7l-1.6,5.5h-5.2l7.9-24.6h6l7.8,24.6h-5.5L537,268.5z M533.1,255.7l-2.8,8.8h5.7L533.1,255.7
		L533.1,255.7z"/>
	<path class="st2" d="M546.7,274.1v-24.4h4.9l9.8,15.3h0.1v-15.3h4.8v24.4h-4.9l-9.8-14.8h-0.1v14.8H546.7z"/>
	<path class="st2" d="M580.6,249.3c2.9,0,5.4,0.4,8.8,1.4l-1.1,4.1c-3.8-0.9-5.4-1.1-7.3-1.1c-4.5,0-6.1,3.1-6.1,8
		c0,5.2,1.5,8.4,6.1,8.4c1.9,0,3.4-0.2,7.3-1.1l1.1,4.1c-3.3,1-5.9,1.3-8.8,1.3c-8.6,0-10.9-5.7-10.9-12.7
		C569.8,254.8,572,249.3,580.6,249.3z"/>
	<path class="st2" d="M608.8,254.1h-11.5v5.2h9.9v4.4h-9.9v6h11.7v4.4h-16.7v-24.4h16.5V254.1z"/>
	<path class="st2" d="M632.8,268.5h-7.7l-1.6,5.5h-5.2l7.9-24.6h6l7.8,24.6h-5.4L632.8,268.5z M628.9,255.7l-2.8,8.8h5.7
		L628.9,255.7L628.9,255.7z"/>
	<path class="st2" d="M642.6,274.1v-24.4h4.9l9.8,15.3h0.1v-15.3h4.8v24.4h-4.9l-9.8-14.8h-0.1v14.8H642.6z"/>
	<path class="st2" d="M666.4,274.1v-24.4h9.1c8.4,0,10.8,5.1,10.8,12c0,7-2.4,12.4-10.8,12.4H666.4z M675.5,269.7
		c4.6,0,5.6-3.2,5.6-8s-1-7.6-5.6-7.6h-4.2v15.6H675.5z"/>
</g>
<g>
	<path class="st2" d="M52.6,304.7c0-6.9,2.3-12.4,10.9-12.4c2.9,0,5.4,0.4,8.7,1.4l-1.1,4.1c-3.8-0.9-5.3-1.1-7.2-1.1
		c-4.5,0-6.1,3.1-6.1,8c0,5.2,1.5,8.4,6.1,8.4c1.3,0,2.3-0.3,3.4-0.7v-4h-3.8V304h8.7v11.8c-3,1.1-5.5,1.7-8.7,1.7
		C54.9,317.4,52.6,311.7,52.6,304.7z"/>
	<path class="st2" d="M92.8,297.1H81.3v5.2h9.9v4.4h-9.9v6H93v4.4H76.3v-24.4h16.5V297.1z"/>
	<path class="st2" d="M96.9,317.1v-24.4h4.9l9.8,15.3h0.1v-15.3h4.8v24.4h-4.9l-9.8-14.8h-0.1v14.8H96.9z"/>
	<path class="st2" d="M137.2,297.1h-11.5v5.2h9.9v4.4h-9.9v6h11.7v4.4h-16.7v-24.4h16.5V297.1z"/>
	<path class="st2" d="M154.9,317.1l-5.1-8.7h-3.5v8.7h-4.9v-24.4h10.4c5.1,0,8.1,3.1,8.1,7.9c0,3.3-1.5,6.1-4.8,7l5.7,9.5H154.9z
		 M146.3,304h4.8c2,0,3.6-0.9,3.6-3.4c0-2.5-1.5-3.4-3.5-3.4h-4.9V304z"/>
	<path class="st2" d="M177.4,311.6h-7.7l-1.6,5.5h-5.2l7.9-24.6h6l7.8,24.6H179L177.4,311.6z M173.5,298.7l-2.8,8.8h5.7L173.5,298.7
		L173.5,298.7z"/>
	<path class="st2" d="M192.1,292.7v20h11.4v4.4h-16.3v-24.4H192.1z"/>
	<path class="st2" d="M218.4,308.5v8.6h-4.9v-24.4h10.4c5.1,0,8.1,3.2,8.1,7.9c0,4.8-2.9,7.9-8.1,7.9H218.4z M218.4,304.1h4.9
		c2.1,0,3.5-1,3.5-3.5c0-2.5-1.5-3.5-3.5-3.5h-4.9V304.1z"/>
	<path class="st2" d="M249.7,308.5v-15.8h4.9v15.8c0,6.4-3.8,9-9.6,9s-9.6-2.6-9.6-9v-15.8h4.9v15.8c0,2.6,0.8,4.8,4.7,4.8
		C248.9,313.3,249.7,311.1,249.7,308.5z"/>
	<path class="st2" d="M272.5,317.1l-5.1-8.7h-3.5v8.7h-4.9v-24.4h10.4c5.1,0,8.1,3.1,8.1,7.9c0,3.3-1.5,6.1-4.8,7l5.7,9.5H272.5z
		 M263.9,304h4.8c2,0,3.6-0.9,3.6-3.4c0-2.5-1.5-3.4-3.5-3.4h-4.9V304z"/>
	<path class="st2" d="M286.4,308.5v8.6h-4.9v-24.4h10.4c5.1,0,8.1,3.2,8.1,7.9c0,4.8-2.9,7.9-8.1,7.9H286.4z M286.4,304.1h4.9
		c2.1,0,3.5-1,3.5-3.5c0-2.5-1.5-3.5-3.5-3.5h-4.9V304.1z"/>
	<path class="st2" d="M303.1,304.7c0-6.9,2.3-12.4,10.9-12.4s10.8,5.5,10.8,12.4c0,7-2.3,12.7-10.8,12.7S303.1,311.7,303.1,304.7z
		 M308.3,304.7c0,4.8,0.9,8.6,5.7,8.6s5.6-3.8,5.6-8.6s-0.8-8.2-5.6-8.2S308.3,299.9,308.3,304.7z"/>
	<path class="st2" d="M327.4,316.1l0.9-4.1c3.8,0.9,6.5,1.1,8.4,1.1c2.5,0,4-1.1,4-2.8c0-2.3-2.8-2.7-5.6-3.5
		c-4.2-1.2-7.3-3.5-7.3-7.6c0-4.9,4.1-6.8,8.9-6.8c2.8,0,5.3,0.4,8.6,1.4l-1.1,4.1c-3.8-0.9-5.6-1.1-7.5-1.1c-2.5,0-3.7,1.1-3.7,2.5
		c0,2,2.6,2.7,5.6,3.4c4.2,1,7.4,3,7.4,7.2c0,5.2-4,7.5-9.2,7.5C333.8,317.4,330.7,317.1,327.4,316.1z"/>
	<path class="st2" d="M365.6,297.1h-11.5v5.2h9.9v4.4h-9.9v6h11.7v4.4h-16.7v-24.4h16.5V297.1z"/>
	<path class="st2" d="M369.4,316.1l0.9-4.1c3.8,0.9,6.5,1.1,8.4,1.1c2.5,0,4-1.1,4-2.8c0-2.3-2.8-2.7-5.6-3.5
		c-4.2-1.2-7.3-3.5-7.3-7.6c0-4.9,4.1-6.8,8.9-6.8c2.8,0,5.3,0.4,8.6,1.4l-1.1,4.1c-3.8-0.9-5.6-1.1-7.5-1.1c-2.5,0-3.7,1.1-3.7,2.5
		c0,2,2.6,2.7,5.6,3.4c4.2,1,7.4,3,7.4,7.2c0,5.2-4,7.5-9.2,7.5C375.8,317.4,372.7,317.1,369.4,316.1z"/>
	<path class="st2" d="M408.7,292.3c2.9,0,5.5,0.4,8.8,1.4l-1.1,4.1c-3.8-0.9-5.4-1.1-7.3-1.1c-4.5,0-6.1,3.1-6.1,8
		c0,5.2,1.5,8.4,6.1,8.4c1.9,0,3.4-0.2,7.3-1.1l1.1,4.1c-3.3,1-5.9,1.3-8.8,1.3c-8.6,0-10.9-5.7-10.9-12.7
		C397.8,297.8,400.1,292.3,408.7,292.3z"/>
	<path class="st2" d="M419.1,304.7c0-6.9,2.3-12.4,10.9-12.4c8.6,0,10.8,5.5,10.8,12.4c0,7-2.3,12.7-10.8,12.7
		C421.4,317.4,419.1,311.7,419.1,304.7z M424.3,304.7c0,4.8,0.9,8.6,5.7,8.6s5.6-3.8,5.6-8.6s-0.8-8.2-5.6-8.2
		S424.3,299.9,424.3,304.7z"/>
	<path class="st2" d="M456.8,308.9L456.8,308.9l5.8-16.2h6.5v24.4h-4.9v-15.5h-0.1l-5.8,15.5h-3.6l-5.7-15.5H449v15.5h-4.8v-24.4
		h6.6L456.8,308.9z"/>
	<path class="st2" d="M486,308.9L486,308.9l5.8-16.2h6.5v24.4h-4.9v-15.5h-0.1l-5.8,15.5H484l-5.7-15.5h-0.1v15.5h-4.8v-24.4h6.6
		L486,308.9z"/>
	<path class="st2" d="M502.6,317.1v-24.4h4.9v24.4H502.6z"/>
	<path class="st2" d="M522.4,297.1v20h-4.9v-20h-6.4v-4.4h17.8v4.4H522.4z"/>
	<path class="st2" d="M543,297.1v20H538v-20h-6.4v-4.4h17.8v4.4H543z"/>
	<path class="st2" d="M569.4,297.1h-11.5v5.2h9.9v4.4h-9.9v6h11.7v4.4h-16.7v-24.4h16.5V297.1z"/>
	<path class="st2" d="M589.9,297.1h-11.5v5.2h9.9v4.4h-9.9v6h11.7v4.4h-16.7v-24.4h16.5V297.1z"/>
</g>
</svg>
