<!-- Generator: Adobe Illustrator 19.2.1, SVG Export Plug-In  -->
<svg version="1.1"
	 xmlns="http://www.w3.org/2000/svg" xmlns:xlink="http://www.w3.org/1999/xlink" xmlns:a="http://ns.adobe.com/AdobeSVGViewerExtensions/3.0/"
	 x="0px" y="0px" width="594.1px" height="339.7px" viewBox="0 0 594.1 339.7" style="enable-background:new 0 0 594.1 339.7;"
	 xml:space="preserve">
<style type="text/css">
	.st0{fill:#2DA1B4;}
</style>
<defs>
</defs>
<g>
	<path class="st0" d="M20.6,0c5.5,0,10.3,0.7,16.7,2.6l-2.1,7.8c-7.3-1.7-10.2-2-13.8-2c-8.6,0-11.5,5.9-11.5,15.1
		c0,9.9,2.9,15.8,11.5,15.8c3.6,0,6.5-0.3,13.8-2l2.1,7.8c-6.3,1.8-11.2,2.5-16.7,2.5C4.4,47.6,0,36.7,0,23.5C0,10.4,4.4,0,20.6,0z"
		/>
	<path class="st0" d="M39.7,29.9c0-10.7,4.6-17.7,16.5-17.7s16.5,7,16.5,17.7c0,10.7-4.5,17.7-16.5,17.7S39.7,40.7,39.7,29.9z
		 M49.1,29.9c0,6.3,1.6,10.4,7.1,10.4c5.6,0,7.1-4.1,7.1-10.4c0-6.3-1.6-10.3-7.1-10.3C50.7,19.6,49.1,23.7,49.1,29.9z"/>
	<path class="st0" d="M87.7,46.9h-8.8v-34h8.8v4.4h0.1c2.9-3.1,6.7-5.1,11.1-5.1c6.8,0,10.2,4.4,10.2,11.4v23.3h-8.8V25.7
		c0-3.9-1.5-6.1-5.4-6.1c-2.8,0-5.4,1.5-7.1,2.6V46.9z"/>
	<path class="st0" d="M118.6,19.2H114v-5.8l4.6-0.5l1.1-9.5h7.8v9.5h8.5v6.3h-8.5v16.4c0,3.2,1.4,4.9,5,4.9c0.8,0,1.8-0.1,3.1-0.3
		l0.7,6.8c-1.9,0.4-5.1,0.6-6.9,0.6c-7.8,0-10.7-3.2-10.7-10.4V19.2z"/>
	<path class="st0" d="M151.2,0.7v9.4h-8.8V0.7H151.2z M151.2,12.9v34h-8.8v-34H151.2z"/>
	<path class="st0" d="M166.9,46.9H158v-34h8.8v4.4h0.1c2.9-3.1,6.7-5.1,11.1-5.1c6.8,0,10.2,4.4,10.2,11.4v23.3h-8.8V25.7
		c0-3.9-1.5-6.1-5.4-6.1c-2.8,0-5.4,1.5-7.1,2.6V46.9z"/>
	<path class="st0" d="M216.4,12.9h8.8v34h-8.8v-4.4h-0.1c-2.9,3.1-6.7,5.1-11.1,5.1c-6.8,0-10.2-4.4-10.2-11.4V12.9h8.8v21.3
		c0,3.9,1.8,6.1,5.4,6.1c2.9,0,5.4-1.6,7.1-2.7V12.9z"/>
	<path class="st0" d="M241,31.8c0.2,5.1,3.1,8.5,9.3,8.5c2.9,0,6.2-0.1,10.6-1.4l1,7c-4.5,1.3-8.5,1.6-12.9,1.6
		c-13.1,0-17.7-6.9-17.7-17.7c0-10.7,4.6-17.7,17.5-17.7c10.2,0,13.6,5.1,14.3,11c0.3,2.6,0.1,5.5-0.3,8.6H241z M241,26.2h13.2
		c0.1-0.9,0.2-1.8,0.1-2.7c-0.3-2.6-1.8-4.6-6-4.6C243.4,19,241.3,21.9,241,26.2z"/>
	<path class="st0" d="M285,19.2h-4.6v-5.8l4.6-0.5l1.1-9.5h7.8v9.5h8.5v6.3h-8.5v16.4c0,3.2,1.4,4.9,5,4.9c0.8,0,1.8-0.1,3.1-0.3
		l0.7,6.8c-1.9,0.4-5.1,0.6-6.9,0.6c-7.8,0-10.7-3.2-10.7-10.4V19.2z"/>
	<path class="st0" d="M305.6,29.9c0-10.7,4.6-17.7,16.5-17.7s16.5,7,16.5,17.7c0,10.7-4.5,17.7-16.5,17.7S305.6,40.7,305.6,29.9z
		 M315,29.9c0,6.3,1.6,10.4,7.1,10.4c5.6,0,7.1-4.1,7.1-10.4c0-6.3-1.6-10.3-7.1-10.3C316.5,19.6,315,23.7,315,29.9z"/>
	<path class="st0" d="M366.7,0.7v9.4h-8.8V0.7H366.7z M366.7,12.9v34h-8.8v-34H366.7z"/>
	<path class="st0" d="M382.4,46.9h-8.8v-34h8.8v4.4h0.1c2.7-3,6.2-5.1,10.6-5.1c4.6,0,7.7,2,9.1,5.6c3.5-3.9,7.4-5.6,11.8-5.6
		c6.8,0,10.2,4.4,10.2,11.4v23.3h-8.8V25.7c0-3.9-1.8-6.1-5.4-6.1c-2.6,0-5,1.5-6.7,2.7c0,1.2,0.1,2.4,0.1,3.9v20.8h-8.8V25.3
		c-0.1-3.6-1.9-5.7-5.4-5.7c-2.7,0-5,1.5-6.7,2.6V46.9z"/>
	<path class="st0" d="M439.8,16.3h0.1c2.2-2.4,5.9-4.1,9.6-4.1c9.5,0,12.4,8,12.4,17.7c0,9.7-3.4,17.7-12.9,17.7
		c-3.4,0-6.9-1.4-9-3.8h-0.1v16.7H431V12.9h8.8V16.3z M445.9,19.6c-2.9,0-5,1.3-6.1,2.1v16.5c1.1,0.9,3.3,2.2,6.1,2.2
		c5.2,0,6.7-4.6,6.7-10.4C452.6,24.1,451.2,19.6,445.9,19.6z"/>
	<path class="st0" d="M476.9,46.9H468v-34h8.8v5.4h0.1c2.2-3.1,6.3-6.1,11.8-6.1v8.4c-4.6,0-9.2,1.2-11.9,2.6V46.9z"/>
	<path class="st0" d="M490.8,29.9c0-10.7,4.6-17.7,16.5-17.7s16.5,7,16.5,17.7c0,10.7-4.5,17.7-16.5,17.7S490.8,40.7,490.8,29.9z
		 M500.1,29.9c0,6.3,1.6,10.4,7.1,10.4s7.1-4.1,7.1-10.4c0-6.3-1.6-10.3-7.1-10.3S500.1,23.7,500.1,29.9z"/>
	<path class="st0" d="M537.5,47.3l-11.9-34.3h9.9l7.6,24.6h0.1l7.7-24.6h9.4l-12,34.3H537.5z"/>
	<path class="st0" d="M571.8,31.8c0.2,5.1,3.1,8.5,9.3,8.5c2.9,0,6.2-0.1,10.6-1.4l1,7c-4.5,1.3-8.5,1.6-12.9,1.6
		c-13.1,0-17.7-6.9-17.7-17.7c0-10.7,4.6-17.7,17.5-17.7c10.2,0,13.6,5.1,14.3,11c0.3,2.6,0.1,5.5-0.3,8.6H571.8z M571.8,26.2H585
		c0.1-0.9,0.2-1.8,0.1-2.7c-0.3-2.6-1.8-4.6-6-4.6C574.3,19,572.1,21.9,571.8,26.2z"/>
</g>
<g>
	<path class="st0" d="M59.2,99.5c0-10.7,4.6-17.7,16.5-17.7s16.5,7,16.5,17.7c0,10.7-4.5,17.7-16.5,17.7S59.2,110.3,59.2,99.5z
		 M68.5,99.5c0,6.3,1.6,10.4,7.1,10.4c5.6,0,7.1-4.1,7.1-10.4c0-6.3-1.6-10.3-7.1-10.3C70.1,89.2,68.5,93.3,68.5,99.5z"/>
	<path class="st0" d="M119.7,82.6h8.8v34h-8.8v-4.4h-0.1c-2.9,3.1-6.7,5.1-11.1,5.1c-6.8,0-10.2-4.4-10.2-11.4V82.6h8.8v21.3
		c0,3.9,1.8,6.1,5.4,6.1c2.9,0,5.4-1.6,7.1-2.7V82.6z"/>
	<path class="st0" d="M144.1,116.5h-8.8v-34h8.8V88h0.1c2.2-3.1,6.3-6.1,11.8-6.1v8.4c-4.6,0-9.2,1.2-11.9,2.6V116.5z"/>
	<path class="st0" d="M178.5,114.9c-1.8-1.1-2.7-2.9-2.7-4.7c0-2.5,1.7-5.3,5.2-7.1v-0.1c-3.4-1.7-5.5-5.2-5.5-9.5
		c0-7.8,5.6-11.6,14.3-11.6c1.8,0,3.5,0.3,4.9,0.7h12.6v5.3h-5.4c1.3,1.4,2,3.3,2,5.6c0,7.9-5.9,11.4-14,11.4
		c-2.1,0-3.7-0.5-4.4-0.7c-0.4,0.5-0.7,1-1,1.5c-0.6,1.6-0.5,3.3,1.7,3.5l11.6,0.8c6.9,0.5,10.4,3.1,10.4,8.5
		c0,8.6-6.5,12.4-20.4,12.4c-10.1,0-14.6-2.8-14.6-8.8c0-2.9,1.6-5.1,5.3-6.9V114.9z M189.2,125c4.9,0,9.6-1.5,9.6-5
		c0-1.6-1.2-2.9-4.1-3.1l-11.9-0.7c-1.3,1.2-2.3,2.1-2.3,4.2C180.5,124,184.5,125,189.2,125z M195.8,93.4c0-3.8-2.4-5.8-5.9-5.8
		c-3.8,0-6.1,2-6.1,5.8c0,3.8,2.4,5.6,6.1,5.6C193.4,99.1,195.8,97.2,195.8,93.4z"/>
	<path class="st0" d="M210.9,99.5c0-10.7,4.6-17.7,16.5-17.7s16.5,7,16.5,17.7c0,10.7-4.5,17.7-16.5,17.7S210.9,110.3,210.9,99.5z
		 M220.2,99.5c0,6.3,1.6,10.4,7.1,10.4c5.6,0,7.1-4.1,7.1-10.4c0-6.3-1.6-10.3-7.1-10.3C221.8,89.2,220.2,93.3,220.2,99.5z"/>
	<path class="st0" d="M257.6,116.9l-11.9-34.3h9.9l7.6,24.6h0.1l7.7-24.6h9.4l-12,34.3H257.6z"/>
	<path class="st0" d="M291.9,101.5c0.2,5.1,3.1,8.5,9.3,8.5c2.9,0,6.2-0.1,10.6-1.4l1,7c-4.5,1.3-8.5,1.6-12.9,1.6
		c-13.1,0-17.7-6.9-17.7-17.7c0-10.7,4.6-17.7,17.5-17.7c10.2,0,13.6,5.1,14.3,11c0.3,2.6,0.1,5.5-0.3,8.6H291.9z M291.9,95.9H305
		c0.1-0.9,0.2-1.8,0.1-2.7c-0.3-2.6-1.8-4.6-6-4.6C294.3,88.7,292.2,91.5,291.9,95.9z"/>
	<path class="st0" d="M328.8,116.5h-8.8v-34h8.8V88h0.1c2.2-3.1,6.3-6.1,11.8-6.1v8.4c-4.6,0-9.2,1.2-11.9,2.6V116.5z"/>
	<path class="st0" d="M354.9,116.5H346v-34h8.8V87h0.1c2.9-3.1,6.7-5.1,11.1-5.1c6.8,0,10.2,4.4,10.2,11.4v23.3h-8.8V95.3
		c0-3.9-1.5-6.1-5.4-6.1c-2.8,0-5.4,1.5-7.1,2.6V116.5z"/>
	<path class="st0" d="M385.6,90.5l-1.3-7.1c4.8-1,9.9-1.6,14-1.6c8.6,0,13.4,2.2,13.4,11.4v23.3h-8.8v-3.4c-0.1,0-0.1,0-0.1,0
		c-2.9,3-5.8,4.1-10.1,4.1c-6.8,0-10.5-4.6-10.5-10.5c0-8.3,7.6-10.6,14.3-10.6h6.5v-2.4c0-3.5-2.2-4.6-6.6-4.6
		C393.5,89.2,390.5,89.5,385.6,90.5z M402.8,101.5h-5.9c-4,0-6,1.4-6,4.6c0,3,2.4,4.4,5.3,4.4c2.8,0,5.4-1.2,6.6-2.1V101.5z"/>
	<path class="st0" d="M427.3,116.5h-8.8v-34h8.8V87h0.1c2.9-3.1,6.7-5.1,11.1-5.1c6.8,0,10.2,4.4,10.2,11.4v23.3h-8.8V95.3
		c0-3.9-1.5-6.1-5.4-6.1c-2.8,0-5.4,1.5-7.1,2.6V116.5z"/>
	<path class="st0" d="M472.4,81.9c4.4,0,7.8,0.6,11.9,1.6l-1.6,7.1c-5.6-1.4-7.8-1.4-10.3-1.4c-5.3,0-8.2,3.5-8.2,10.3
		c0,6.8,2.9,10.4,8.2,10.4c2.5,0,4.7,0,10.3-1.4l1.6,7c-4.1,1-7.5,1.6-11.9,1.6c-13.2,0-17.5-6.9-17.5-17.7
		C454.8,88.9,459.2,81.9,472.4,81.9z"/>
	<path class="st0" d="M496.3,101.5c0.2,5.1,3.1,8.5,9.3,8.5c2.9,0,6.2-0.1,10.6-1.4l1,7c-4.5,1.3-8.5,1.6-12.9,1.6
		c-13.1,0-17.7-6.9-17.7-17.7c0-10.7,4.6-17.7,17.5-17.7c10.2,0,13.6,5.1,14.3,11c0.3,2.6,0.1,5.5-0.3,8.6H496.3z M496.3,95.9h13.2
		c0.1-0.9,0.2-1.8,0.1-2.7c-0.3-2.6-1.8-4.6-6-4.6C498.8,88.7,496.7,91.5,496.3,95.9z"/>
	<path class="st0" d="M526.3,125.4l1.7-8.8c-1.2,0-2.4,0-3.6,0v-9.9h8.8v9.9l-4.2,8.8H526.3z"/>
</g>
<g>
	<path class="st0" d="M85.7,169.2c0-10.7,4.6-17.7,16.5-17.7s16.5,7,16.5,17.7c0,10.7-4.5,17.7-16.5,17.7S85.7,179.9,85.7,169.2z
		 M95.1,169.2c0,6.3,1.6,10.4,7.1,10.4c5.6,0,7.1-4.1,7.1-10.4c0-6.3-1.6-10.3-7.1-10.3C96.7,158.8,95.1,162.9,95.1,169.2z"/>
	<path class="st0" d="M133.7,186.2h-8.8v-34h8.8v5.4h0.1c2.2-3.1,6.3-6.1,11.8-6.1v8.4c-4.6,0-9.2,1.2-11.9,2.6V186.2z"/>
	<path class="st0" d="M154.8,184.5c-1.8-1.1-2.7-2.9-2.7-4.7c0-2.5,1.7-5.3,5.2-7.1v-0.1c-3.4-1.7-5.5-5.2-5.5-9.5
		c0-7.8,5.6-11.6,14.3-11.6c1.8,0,3.5,0.3,4.9,0.7h12.6v5.3h-5.4c1.3,1.4,2,3.3,2,5.6c0,7.9-5.9,11.4-14,11.4
		c-2.1,0-3.7-0.5-4.4-0.7c-0.4,0.5-0.7,1-1,1.5c-0.6,1.6-0.5,3.3,1.7,3.5l11.6,0.8c6.9,0.5,10.4,3.1,10.4,8.5
		c0,8.6-6.5,12.4-20.4,12.4c-10.1,0-14.6-2.8-14.6-8.8c0-2.9,1.6-5.1,5.3-6.9V184.5z M165.6,194.7c4.9,0,9.6-1.5,9.6-5
		c0-1.6-1.2-2.9-4.1-3.1l-11.9-0.7c-1.3,1.2-2.3,2.1-2.3,4.2C156.8,193.7,160.9,194.7,165.6,194.7z M172.1,163.1
		c0-3.8-2.4-5.8-5.9-5.8c-3.8,0-6.1,2-6.1,5.8c0,3.8,2.4,5.6,6.1,5.6C169.7,168.7,172.1,166.9,172.1,163.1z"/>
	<path class="st0" d="M190.3,160.1l-1.3-7.1c4.8-1,9.9-1.6,14-1.6c8.6,0,13.4,2.2,13.4,11.4v23.3h-8.8v-3.4c-0.1,0-0.1,0-0.1,0
		c-2.9,3-5.8,4.1-10.1,4.1c-6.8,0-10.5-4.6-10.5-10.5c0-8.3,7.6-10.6,14.3-10.6h6.5v-2.4c0-3.5-2.2-4.6-6.6-4.6
		C198.3,158.8,195.2,159.1,190.3,160.1z M207.6,171.1h-5.9c-4,0-6,1.4-6,4.6c0,3,2.4,4.4,5.3,4.4c2.8,0,5.4-1.2,6.6-2.1V171.1z"/>
	<path class="st0" d="M232.1,186.2h-8.8v-34h8.8v4.4h0.1c2.9-3.1,6.7-5.1,11.1-5.1c6.8,0,10.2,4.4,10.2,11.4v23.3h-8.8V165
		c0-3.9-1.5-6.1-5.4-6.1c-2.8,0-5.4,1.5-7.1,2.6V186.2z"/>
	<path class="st0" d="M269.1,139.9v9.4h-8.8v-9.4H269.1z M269.1,152.2v34h-8.8v-34H269.1z"/>
	<path class="st0" d="M290.4,186.9c-5.5,0-11.4-0.6-15.5-1.6l1.6-7c5.6,1.4,10.3,1.6,12.9,1.6c4.4,0,5.6-2,5.6-3.3
		c0-1.7-1.8-2.5-5.8-3.3c-7.7-1.3-13.5-3.8-13.5-11.5c0-7.3,5.2-10.2,13.5-10.2c5.5,0,10.2,0.6,14.3,1.6l-1.6,7.1
		c-5.6-1.4-9.7-1.6-12.2-1.6c-4.1,0-5.1,1.7-5.1,2.9c0,1.6,1.2,2.5,5.5,3.5c6.5,1.4,13.9,3.1,13.9,11
		C303.8,183.4,298.6,186.9,290.4,186.9z"/>
	<path class="st0" d="M312,160.1l-1.3-7.1c4.8-1,9.9-1.6,14-1.6c8.6,0,13.4,2.2,13.4,11.4v23.3h-8.8v-3.4c-0.1,0-0.1,0-0.1,0
		c-2.9,3-5.8,4.1-10.1,4.1c-6.8,0-10.5-4.6-10.5-10.5c0-8.3,7.6-10.6,14.3-10.6h6.5v-2.4c0-3.5-2.2-4.6-6.6-4.6
		C319.9,158.8,316.9,159.1,312,160.1z M329.3,171.1h-5.9c-4,0-6,1.4-6,4.6c0,3,2.4,4.4,5.3,4.4c2.8,0,5.4-1.2,6.6-2.1V171.1z"/>
	<path class="st0" d="M347.6,158.5h-4.6v-5.8l4.6-0.5l1.1-9.5h7.8v9.5h8.5v6.3h-8.5v16.4c0,3.2,1.4,4.9,5,4.9c0.8,0,1.8-0.1,3.1-0.3
		l0.7,6.8c-1.9,0.4-5.1,0.6-6.9,0.6c-7.8,0-10.7-3.2-10.7-10.4V158.5z"/>
	<path class="st0" d="M380.2,139.9v9.4h-8.8v-9.4H380.2z M380.2,152.2v34h-8.8v-34H380.2z"/>
	<path class="st0" d="M386.2,169.2c0-10.7,4.6-17.7,16.5-17.7s16.5,7,16.5,17.7c0,10.7-4.5,17.7-16.5,17.7S386.2,179.9,386.2,169.2z
		 M395.6,169.2c0,6.3,1.6,10.4,7.1,10.4c5.6,0,7.1-4.1,7.1-10.4c0-6.3-1.6-10.3-7.1-10.3C397.2,158.8,395.6,162.9,395.6,169.2z"/>
	<path class="st0" d="M434.2,186.2h-8.8v-34h8.8v4.4h0.1c2.9-3.1,6.7-5.1,11.1-5.1c6.8,0,10.2,4.4,10.2,11.4v23.3h-8.8V165
		c0-3.9-1.5-6.1-5.4-6.1c-2.8,0-5.4,1.5-7.1,2.6V186.2z"/>
	<path class="st0" d="M464.8,160.1l-1.3-7.1c4.8-1,9.9-1.6,14-1.6c8.6,0,13.4,2.2,13.4,11.4v23.3H482v-3.4c-0.1,0-0.1,0-0.1,0
		c-2.9,3-5.8,4.1-10.1,4.1c-6.8,0-10.5-4.6-10.5-10.5c0-8.3,7.6-10.6,14.3-10.6h6.5v-2.4c0-3.5-2.2-4.6-6.6-4.6
		C472.7,158.8,469.7,159.1,464.8,160.1z M482,171.1h-5.9c-4,0-6,1.4-6,4.6c0,3,2.4,4.4,5.3,4.4c2.8,0,5.4-1.2,6.6-2.1V171.1z"/>
	<path class="st0" d="M497.7,138.6h8.8v47.6h-8.8V138.6z"/>
</g>
<g>
	<path class="st0" d="M103.6,240.7c0.2,5.1,3.1,8.5,9.3,8.5c2.9,0,6.2-0.1,10.6-1.4l1,7c-4.5,1.3-8.5,1.6-12.9,1.6
		c-13.1,0-17.7-6.9-17.7-17.7c0-10.7,4.6-17.7,17.5-17.7c10.2,0,13.6,5.1,14.3,11c0.3,2.6,0.1,5.5-0.3,8.6H103.6z M103.6,235.1h13.2
		c0.1-0.9,0.2-1.8,0.1-2.7c-0.3-2.6-1.8-4.6-6-4.6C106,227.9,103.9,230.8,103.6,235.1z"/>
	<path class="st0" d="M154.4,218.6c0-7.2,3-10.4,10.7-10.4c1.8,0,4,0.3,5.9,0.6l-0.7,6.8c-1.3-0.2-2.3-0.3-3.1-0.3
		c-3.1,0-3.9,1.7-3.9,4.9v1.6h7.5v6.3h-7.5v27.7h-8.8v-27.7h-11.2v27.7h-8.8v-27.7h-4.6v-5.8l4.6-0.5v-3.2c0-7.2,3-10.4,10.7-10.4
		c1.8,0,4,0.3,5.9,0.6l-0.7,6.8c-1.3-0.2-2.3-0.3-3.1-0.3c-3.1,0-3.9,1.7-3.9,4.9v1.6h11.2V218.6z"/>
	<path class="st0" d="M182.6,240.7c0.2,5.1,3.1,8.5,9.3,8.5c2.9,0,6.2-0.1,10.6-1.4l1,7c-4.5,1.3-8.5,1.6-12.9,1.6
		c-13.1,0-17.7-6.9-17.7-17.7c0-10.7,4.6-17.7,17.5-17.7c10.2,0,13.6,5.1,14.3,11c0.3,2.6,0.1,5.5-0.3,8.6H182.6z M182.6,235.1h13.2
		c0.1-0.9,0.2-1.8,0.1-2.7c-0.3-2.6-1.8-4.6-6-4.6C185,227.9,182.9,230.8,182.6,235.1z"/>
	<path class="st0" d="M227.5,221.1c4.4,0,7.8,0.6,11.9,1.6l-1.6,7.1c-5.6-1.4-7.8-1.4-10.3-1.4c-5.3,0-8.2,3.5-8.2,10.3
		c0,6.8,2.9,10.4,8.2,10.4c2.5,0,4.7,0,10.3-1.4l1.6,7c-4.1,1-7.5,1.6-11.9,1.6c-13.2,0-17.5-6.9-17.5-17.7
		C210,228.1,214.3,221.1,227.5,221.1z"/>
	<path class="st0" d="M247,228.1h-4.6v-5.8l4.6-0.5l1.1-9.5h7.8v9.5h8.5v6.3h-8.5v16.4c0,3.2,1.4,4.9,5,4.9c0.8,0,1.8-0.1,3.1-0.3
		l0.7,6.8c-1.9,0.4-5.1,0.6-6.9,0.6c-7.8,0-10.7-3.2-10.7-10.4V228.1z"/>
	<path class="st0" d="M279.6,209.6v9.4h-8.8v-9.4H279.6z M279.6,221.8v34h-8.8v-34H279.6z"/>
	<path class="st0" d="M297.1,256.2l-11.9-34.3h9.9l7.6,24.6h0.1l7.7-24.6h9.4l-12,34.3H297.1z"/>
	<path class="st0" d="M331.3,240.7c0.2,5.1,3.1,8.5,9.3,8.5c2.9,0,6.2-0.1,10.6-1.4l1,7c-4.5,1.3-8.5,1.6-12.9,1.6
		c-13.1,0-17.7-6.9-17.7-17.7c0-10.7,4.6-17.7,17.5-17.7c10.2,0,13.6,5.1,14.3,11c0.3,2.6,0.1,5.5-0.3,8.6H331.3z M331.3,235.1h13.2
		c0.1-0.9,0.2-1.8,0.1-2.7c-0.3-2.6-1.8-4.6-6-4.6C333.7,227.9,331.6,230.8,331.3,235.1z"/>
	<path class="st0" d="M368.2,255.8h-8.8v-34h8.8v4.4h0.1c2.9-3.1,6.7-5.1,11.1-5.1c6.8,0,10.2,4.4,10.2,11.4v23.3h-8.8v-21.2
		c0-3.9-1.5-6.1-5.4-6.1c-2.8,0-5.4,1.5-7.1,2.6V255.8z"/>
	<path class="st0" d="M405.3,240.7c0.2,5.1,3.1,8.5,9.3,8.5c2.9,0,6.2-0.1,10.6-1.4l1,7c-4.5,1.3-8.5,1.6-12.9,1.6
		c-13.1,0-17.7-6.9-17.7-17.7c0-10.7,4.6-17.7,17.5-17.7c10.2,0,13.6,5.1,14.3,11c0.3,2.6,0.1,5.5-0.3,8.6H405.3z M405.3,235.1h13.2
		c0.1-0.9,0.2-1.8,0.1-2.7c-0.3-2.6-1.8-4.6-6-4.6C407.8,227.9,405.7,230.8,405.3,235.1z"/>
	<path class="st0" d="M447.8,256.5c-5.5,0-11.4-0.6-15.5-1.6l1.6-7c5.6,1.4,10.3,1.6,12.8,1.6c4.4,0,5.6-2,5.6-3.3
		c0-1.7-1.8-2.5-5.8-3.3c-7.7-1.3-13.5-3.8-13.5-11.5c0-7.3,5.2-10.2,13.5-10.2c5.5,0,10.2,0.6,14.3,1.6l-1.6,7.1
		c-5.6-1.4-9.7-1.6-12.2-1.6c-4.1,0-5.1,1.7-5.1,2.9c0,1.6,1.2,2.5,5.5,3.5c6.5,1.4,13.9,3.1,13.9,11
		C461.2,253,456.1,256.5,447.8,256.5z"/>
	<path class="st0" d="M481.4,256.5c-5.5,0-11.4-0.6-15.5-1.6l1.6-7c5.6,1.4,10.3,1.6,12.8,1.6c4.4,0,5.6-2,5.6-3.3
		c0-1.7-1.8-2.5-5.8-3.3c-7.7-1.3-13.5-3.8-13.5-11.5c0-7.3,5.2-10.2,13.5-10.2c5.5,0,10.2,0.6,14.3,1.6l-1.6,7.1
		c-5.6-1.4-9.7-1.6-12.2-1.6c-4.1,0-5.1,1.7-5.1,2.9c0,1.6,1.2,2.5,5.5,3.5c6.5,1.4,13.9,3.1,13.9,11
		C494.8,253,489.7,256.5,481.4,256.5z"/>
</g>
<g>
	<path class="st0" d="M88.2,299.4l-1.3-7.1c4.8-1,9.9-1.6,14-1.6c8.6,0,13.4,2.2,13.4,11.4v23.3h-8.8V322c-0.1,0-0.1,0-0.1,0
		c-2.9,3-5.8,4.1-10.1,4.1c-6.8,0-10.5-4.6-10.5-10.5c0-8.3,7.6-10.6,14.3-10.6h6.5v-2.4c0-3.5-2.2-4.6-6.6-4.6
		C96.2,298.1,93.1,298.4,88.2,299.4z M105.5,310.3h-5.9c-4,0-6,1.4-6,4.6c0,3,2.4,4.4,5.3,4.4c2.8,0,5.4-1.2,6.6-2.1V310.3z"/>
	<path class="st0" d="M129.9,325.4h-8.8v-34h8.8v4.4h0.1c2.9-3.1,6.7-5.1,11.1-5.1c6.8,0,10.2,4.4,10.2,11.4v23.3h-8.8v-21.2
		c0-3.9-1.5-6.1-5.4-6.1c-2.8,0-5.4,1.5-7.1,2.6V325.4z"/>
	<path class="st0" d="M179.6,322c-0.1,0-0.1,0-0.1,0c-2.1,2.4-5.8,4.1-9.5,4.1c-9.5,0-12.4-8-12.4-17.7c0-9.7,3.4-17.7,12.9-17.7
		c3.5,0,6.9,1.4,9,3.8c0.1,0,0.1,0,0.1,0v-16.7h8.8v47.6h-8.8V322z M173.5,318.8c2.9,0,5.1-1.3,6.1-2.2v-16.5
		c-1-0.8-3.2-2.1-6.1-2.1c-5.2,0-6.6,4.6-6.6,10.3S168.3,318.8,173.5,318.8z"/>
	<path class="st0" d="M225.2,290.8c4.4,0,7.8,0.6,11.9,1.6l-1.6,7.1c-5.6-1.4-7.8-1.4-10.3-1.4c-5.3,0-8.2,3.5-8.2,10.3
		c0,6.8,2.9,10.4,8.2,10.4c2.5,0,4.7,0,10.3-1.4l1.6,7c-4.1,1-7.5,1.6-11.9,1.6c-13.2,0-17.5-6.9-17.5-17.7
		C207.7,297.8,212,290.8,225.2,290.8z"/>
	<path class="st0" d="M243.4,299.4l-1.3-7.1c4.8-1,9.9-1.6,14-1.6c8.6,0,13.4,2.2,13.4,11.4v23.3h-8.8V322c-0.1,0-0.1,0-0.1,0
		c-2.9,3-5.8,4.1-10.1,4.1c-6.8,0-10.5-4.6-10.5-10.5c0-8.3,7.6-10.6,14.3-10.6h6.5v-2.4c0-3.5-2.2-4.6-6.6-4.6
		C251.4,298.1,248.3,298.4,243.4,299.4z M260.7,310.3h-5.9c-4,0-6,1.4-6,4.6c0,3,2.4,4.4,5.3,4.4c2.8,0,5.4-1.2,6.6-2.1V310.3z"/>
	<path class="st0" d="M285.2,294.8h0.1c2.2-2.4,5.9-4.1,9.6-4.1c9.5,0,12.4,8,12.4,17.7c0,9.7-3.4,17.7-12.9,17.7
		c-3.4,0-6.9-1.4-9-3.8h-0.1V339h-8.8v-47.6h8.8V294.8z M291.3,298.1c-2.9,0-5,1.3-6.1,2.1v16.5c1.1,0.9,3.3,2.2,6.1,2.2
		c5.2,0,6.7-4.6,6.7-10.4S296.5,298.1,291.3,298.1z"/>
	<path class="st0" d="M315.8,299.4l-1.3-7.1c4.8-1,9.9-1.6,14-1.6c8.6,0,13.4,2.2,13.4,11.4v23.3h-8.8V322c-0.1,0-0.1,0-0.1,0
		c-2.9,3-5.8,4.1-10.1,4.1c-6.8,0-10.5-4.6-10.5-10.5c0-8.3,7.6-10.6,14.3-10.6h6.5v-2.4c0-3.5-2.2-4.6-6.6-4.6
		C323.7,298.1,320.7,298.4,315.8,299.4z M333.1,310.3h-5.9c-4,0-6,1.4-6,4.6c0,3,2.4,4.4,5.3,4.4c2.8,0,5.4-1.2,6.6-2.1V310.3z"/>
	<path class="st0" d="M357.5,294.8h0.1c2.2-2.4,5.9-4.1,9.6-4.1c9.5,0,12.4,8,12.4,17.7c0,9.7-3.4,17.7-12.9,17.7
		c-3.4,0-7.1-1.4-9.5-3.8h-0.1l-1.6,3.4h-6.8v-47.9h8.8V294.8z M363.7,298.1c-2.9,0-5,1.3-6.1,2.1v16.5c1.1,0.9,3.3,2.2,6.1,2.2
		c5.2,0,6.7-4.6,6.7-10.4S368.9,298.1,363.7,298.1z"/>
	<path class="st0" d="M394.6,279.2v9.4h-8.8v-9.4H394.6z M394.6,291.4v34h-8.8v-34H394.6z"/>
	<path class="st0" d="M401.3,277.8h8.8v47.6h-8.8V277.8z"/>
	<path class="st0" d="M425.7,279.2v9.4h-8.8v-9.4H425.7z M425.7,291.4v34h-8.8v-34H425.7z"/>
	<path class="st0" d="M435.2,297.8h-4.6V292l4.6-0.5l1.1-9.5h7.8v9.5h8.5v6.3H444v16.4c0,3.2,1.4,4.9,5,4.9c0.8,0,1.8-0.1,3.1-0.3
		l0.7,6.8c-1.9,0.4-5.1,0.6-6.9,0.6c-7.8,0-10.7-3.2-10.7-10.4V297.8z"/>
	<path class="st0" d="M457.8,291.4h9.9l7.8,24.8h0.1l7.5-24.8h9.4l-12,35.2c-3.3,9.7-7.6,13.1-15.2,13.1c-1.8,0-4.4-0.2-6.1-0.6
		l0.8-7.3c1,0.2,2.5,0.3,3.3,0.3c3.3,0,5.8-2.5,7.1-6.3L457.8,291.4z"/>
	<path class="st0" d="M506.9,315.6v9.9H498v-9.9H506.9z"/>
</g>
</svg>
