<!-- Generator: Adobe Illustrator 19.2.1, SVG Export Plug-In  -->
<svg version="1.1"
	 xmlns="http://www.w3.org/2000/svg" xmlns:xlink="http://www.w3.org/1999/xlink" xmlns:a="http://ns.adobe.com/AdobeSVGViewerExtensions/3.0/"
	 x="0px" y="0px" width="417.1px" height="58.4px" viewBox="0 0 417.1 58.4" style="enable-background:new 0 0 417.1 58.4;"
	 xml:space="preserve">
<style type="text/css">
	.st0{clip-path:url(#SVGID_2_);fill:#2B5972;}
	.st1{clip-path:url(#SVGID_4_);fill:#2B5972;}
</style>
<defs>
</defs>
<g>
	<defs>
		<rect id="SVGID_1_" width="417.1" height="58.4"/>
	</defs>
	<clipPath id="SVGID_2_">
		<use xlink:href="#SVGID_1_"  style="overflow:visible;"/>
	</clipPath>
	<path class="st0" d="M408.8,41.7c-4.5,0-8.4,3.8-8.4,8.3c0,4.5,3.9,8.4,8.4,8.4c4.4,0,8.3-3.9,8.3-8.4
		C417.1,45.5,413.3,41.7,408.8,41.7 M387.8,41.7c-4.5,0-8.4,3.8-8.4,8.3c0,4.5,3.9,8.4,8.4,8.4c4.4,0,8.3-3.9,8.3-8.4
		C396.1,45.5,392.2,41.7,387.8,41.7 M366.8,41.7c-4.5,0-8.4,3.8-8.4,8.3c0,4.5,3.9,8.4,8.4,8.4c4.4,0,8.3-3.9,8.3-8.4
		C375.1,45.5,371.2,41.7,366.8,41.7 M339.1,18.1c-5.1,0-9,1.8-11.4,5.8v-4.8H316v38.3h12.2V36.8c0-5,2.8-7.3,6.2-7.3
		c3.8,0,6,2.5,6,7.1v20.8h12.2V32.3C352.6,23.4,346.7,18.1,339.1,18.1 M290.5,29.4c4.8,0,8.3,3.6,8.3,8.8s-3.5,8.8-8.3,8.8
		c-4.8,0-8.3-3.6-8.3-8.8S285.7,29.4,290.5,29.4 M290.5,18.1c-11.9,0-20.7,8.6-20.7,20.2s8.8,20.2,20.7,20.2
		c12,0,20.8-8.6,20.8-20.2S302.5,18.1,290.5,18.1 M259.2,0c-4.1,0-7.3,3.2-7.3,7.3c0,4.1,3.2,7.3,7.3,7.3c4.1,0,7.3-3.2,7.3-7.3
		C266.5,3.2,263.3,0,259.2,0 M265.4,19.1h-12.2v38.3h12.2V19.1z M247.5,21.4c-6.3-2.4-10.3-3.3-16.5-3.3c-10.4,0-16.5,4.6-16.5,12.8
		c0,6.9,4.3,10.7,13.5,12.1l2.2,0.3c4.3,0.7,6,1.2,6,2.7c0,1.6-1.6,2.5-5.3,2.5c-5.3,0-9.7-1.3-13.5-3.6l-4.3,9.4
		c4.4,2.8,11.1,4,17.7,4c11.2,0,17.7-5,17.7-13.4c0-6.4-4.3-10.4-12.5-11.6l-2.8-0.4c-3.7-0.6-6.2-1-6.2-2.6c0-1.4,1.2-2.3,4.4-2.3
		c3.9,0,8.8,1.4,12.6,3L247.5,21.4z M202.7,0c-4.1,0-7.3,3.2-7.3,7.3c0,4.1,3.2,7.3,7.3,7.3c4.1,0,7.3-3.2,7.3-7.3
		C210,3.2,206.8,0,202.7,0 M208.9,19.1h-12.2v38.3h12.2V19.1z M194,19.1h-12.9l-8.6,25l-8.5-25h-13.3l14.8,38.3h13.9L194,19.1z
		 M128.6,18.1c-4.7,0-8.2,1.8-10.5,5.5v-4.4h-11.7v38.3h12.2V36.7c0-4.8,2.7-6.9,7-6.9c2.2,0,4.5,0.5,6.1,1l1.1-12.2
		C131.9,18.4,130.4,18.1,128.6,18.1 M99.9,19.1H87.7v20.8c0,4.9-2.7,7.1-6.3,7.1c-3.7,0-6.3-2.2-6.3-7.1V19.1H63V41
		c0,12,8.3,17.4,18.5,17.4c10.2,0,18.4-5.4,18.4-17.4V19.1z M28.8,14.2c8.9,0,15.2,6.5,15.2,15.8s-6.3,15.8-15.2,15.8
		s-15.2-6.5-15.2-15.8S19.9,14.2,28.8,14.2 M28.8,1.8C11.9,1.8,0,13.8,0,30.1s11.9,28.3,28.8,28.3s28.8-12,28.8-28.3
		S45.6,1.8,28.8,1.8"/>
</g>
</svg>
