<!-- Generator: Adobe Illustrator 19.2.1, SVG Export Plug-In  -->
<svg version="1.1"
	 xmlns="http://www.w3.org/2000/svg" xmlns:xlink="http://www.w3.org/1999/xlink" xmlns:a="http://ns.adobe.com/AdobeSVGViewerExtensions/3.0/"
	 x="0px" y="0px" width="387px" height="57.2px" viewBox="0 0 387 57.2" style="enable-background:new 0 0 387 57.2;"
	 xml:space="preserve">
<style type="text/css">
	.st0{clip-path:url(#SVGID_2_);fill:#2B5972;}
	.st1{clip-path:url(#SVGID_4_);fill:#2B5972;}
</style>
<defs>
</defs>
<g>
	<defs>
		<rect id="SVGID_1_" width="387" height="57.2"/>
	</defs>
	<clipPath id="SVGID_2_">
		<use xlink:href="#SVGID_1_"  style="overflow:visible;"/>
	</clipPath>
	<path class="st0" d="M385.9,20.2c-6.3-2.4-10.3-3.3-16.5-3.3c-10.4,0-16.5,4.6-16.5,12.8c0,6.9,4.3,10.7,13.5,12.1l2.2,0.3
		c4.3,0.7,6,1.2,6,2.7c0,1.6-1.6,2.5-5.3,2.5c-5.3,0-9.7-1.3-13.5-3.6l-4.3,9.4c4.4,2.8,11.1,4,17.7,4c11.2,0,17.7-5,17.7-13.4
		c0-6.4-4.3-10.4-12.5-11.6l-2.8-0.4c-3.7-0.6-6.2-1-6.2-2.6c0-1.4,1.2-2.3,4.4-2.3c3.9,0,8.8,1.4,12.6,3L385.9,20.2z M330.2,27.2
		c3.5,0,5.9,2,6.9,5.9h-13.9C324.1,29.3,326.4,27.2,330.2,27.2 M330.2,16.8c-11.6,0-19.6,8.3-19.6,20.4c0,11.9,8.2,19.9,20.2,19.9
		c7.1,0,12.9-2.3,16.8-6.3l-7.9-7.3c-2.4,2.2-5.5,3.4-8.3,3.4c-4.2,0-7.2-1.9-8.2-6.1h25.9c0.2-0.8,0.2-2.5,0.2-3.8
		C349.3,25,341.5,16.8,330.2,16.8 M306.2,17.9H294v20.8c0,4.9-2.7,7.1-6.3,7.1c-3.7,0-6.3-2.2-6.3-7.1V17.9h-12.2v21.8
		c0,12,8.3,17.4,18.5,17.4c10.2,0,18.4-5.4,18.4-17.4V17.9z M262.8,0h-12.2v56.2h12.2V0z M223.9,28.2c4.8,0,8.2,3.7,8.2,8.8
		s-3.4,8.8-8.2,8.8c-4.9,0-8.2-3.8-8.2-8.8S219,28.2,223.9,28.2 M243.7,17.9h-11.8V22c-2.3-3-5.8-5.2-11-5.2
		c-10.3,0-17.8,8.9-17.8,20.1c0,11.3,7.6,20.2,17.8,20.2c5.2,0,8.7-2.1,11-5.1v4.1h11.8V17.9z M206.5,1.6h-13.6l-14.3,41.2
		L164.4,1.6h-13.8l20.2,54.6h15.5L206.5,1.6z M128.6,16.8c-4.7,0-8.2,1.8-10.5,5.5v-4.4h-11.7v38.3h12.2V35.5c0-4.8,2.7-6.9,7-6.9
		c2.2,0,4.5,0.5,6.1,1l1.1-12.2C131.9,17.2,130.4,16.8,128.6,16.8 M99.9,17.9H87.7v20.8c0,4.9-2.7,7.1-6.3,7.1
		c-3.7,0-6.3-2.2-6.3-7.1V17.9H63v21.8c0,12,8.3,17.4,18.5,17.4c10.2,0,18.4-5.4,18.4-17.4V17.9z M28.8,13C37.7,13,44,19.5,44,28.9
		s-6.3,15.8-15.2,15.8s-15.2-6.5-15.2-15.8S19.9,13,28.8,13 M28.8,0.5C11.9,0.5,0,12.6,0,28.9s11.9,28.3,28.8,28.3
		s28.8-12,28.8-28.3S45.6,0.5,28.8,0.5"/>
</g>
</svg>
