<!-- Generator: Adobe Illustrator 19.2.1, SVG Export Plug-In  -->
<svg version="1.1"
	 xmlns="http://www.w3.org/2000/svg" xmlns:xlink="http://www.w3.org/1999/xlink" xmlns:a="http://ns.adobe.com/AdobeSVGViewerExtensions/3.0/"
	 x="0px" y="0px" width="213.3px" height="213.3px" viewBox="0 0 213.3 213.3" style="enable-background:new 0 0 213.3 213.3;"
	 xml:space="preserve">
<style type="text/css">
	.st0{fill:#005873;}
	.st1{fill:#FFFFFF;}
</style>
<defs>
</defs>
<g>
	<g>
		<g>
			<path class="st0" d="M106.7,213.3c58.9,0,106.7-47.8,106.7-106.7S165.6,0,106.7,0S0,47.8,0,106.7S47.8,213.3,106.7,213.3"/>
			<path class="st1" d="M73.1,86.2c0-8.1-3.1-17.5-12.8-17.5c-9.8,0-12.5,9.5-12.5,17.5c0,7.6,3.1,17,12.3,17
				C69.9,103.2,73.1,94.4,73.1,86.2 M64.1,116c13,1,26.8,1.5,26.8,18.6c0,16.1-15.1,21.4-29,21.4c-10.6,0-26.8-3.7-26.8-16.9
				c0-5.2,4-10.6,9.5-10.6c2.2,0,3.8,0.9,5.4,2.3c-4.2,0.8-6.6,5.1-6.6,9c0,11.1,11.4,13.2,20.3,13.2c9,0,18.7-3.8,18.7-14.1
				c0-12.5-14.1-11.8-22.9-12.3c-8.4-0.3-20.1,0-20.1-11.4c0-6.1,5.8-10.2,11.3-10.9V104c-7.4-2.4-13.7-9.4-13.7-17.5
				c0-13.5,11.5-20.7,24-20.7c5.9,0,11.9,1.8,16.2,5.7c1,1,1.5,1.6,2.2,2.3c3.1,3.4,4.6,7.9,4.6,12.5c0,15-11.4,19.3-24.5,20
				c-3.8,0.1-13.7,0.1-13.7,5.3c0,4.4,7,3.9,9.8,4.2L64.1,116z"/>
			<path class="st1" d="M83.1,71.3v-3.4C87.2,67.9,95.3,64,97,53h3.5v14.9H115v3.4h-14.6v36.2c0,5.7,1.1,11.7,7.9,11.7
				c4.5,0,6.8-2.5,9.2-5.7l2.3,1.7c-2.3,6.1-8.7,8.1-14.8,8.1c-9.2,0-15.5-3.6-15.5-13.1V71.3H83.1z"/>
			<path class="st1" d="M161,113.5c-5.4,6.6-14.2,9.8-22.5,9.8c-15.9,0-27.5-11.2-27.5-26.9c0-17.8,13.5-30.6,31.3-30.6
				c5,0,16.6,1.5,16.6,8.5c0,2.3-1.9,4.7-4.2,4.7c-3.1,0-4.7-2.5-5.6-5c-1.5-3.8-2.6-4.8-7.3-4.8c-13.8,0-18,14-18,25.2
				c0,12.2,4,24.9,18.4,24.9c6.4,0,12-3.3,16.1-8L161,113.5z"/>
			<path class="st1" d="M107.4,138.3h-0.3c-0.2-1.3-1.4-2.7-2.8-2.7c-0.8,0-1.7,0.4-1.7,1.3c0,2,5.4,2.1,5.4,5.4
				c0,1.9-1.6,3.1-3.4,3.1c-0.8,0-1.3-0.1-2-0.5c-0.2-0.1-0.4-0.1-0.6-0.1c-0.3,0-0.6,0.3-0.8,0.6h-0.3v-3.7h0.3
				c0.2,1.6,1.5,3.2,3.2,3.2c0.9,0,1.8-0.5,1.8-1.5c0-2.3-5.3-2.2-5.3-5.6c0-1.7,1.5-2.8,3.1-2.8c0.7,0,1.2,0.1,1.8,0.5
				c0.2,0.1,0.4,0.2,0.7,0.2c0.4,0,0.4-0.4,0.5-0.7h0.3V138.3z"/>
			<path class="st1" d="M118.7,138.4h-0.3c-0.3-1.6-1.6-2.8-3.2-2.8c-2,0-3.3,1.8-3.3,4.4c0,3.3,1.3,4.6,3.3,4.6
				c1.5,0,2.5-0.8,3.4-1.8v0.9c-1.1,1.2-2.3,1.6-3.9,1.6c-3.3,0-5.4-2.1-5.4-5c0-3,2.5-5.4,5.5-5.4c0.8,0,1.5,0.2,2.2,0.5
				c0.2,0.1,0.6,0.3,0.9,0.3c0.4,0,0.6-0.4,0.6-0.7h0.3V138.4z"/>
			<path class="st1" d="M128.1,140.1c0-1.8-0.3-4.6-2.7-4.6c-2.3,0-2.6,2.9-2.6,4.6c0,1.8,0.3,4.6,2.6,4.6
				C127.7,144.8,128.1,141.9,128.1,140.1 M120.1,140.1c0-3.1,2.3-5.2,5.3-5.2c3,0,5.3,2.1,5.3,5.2c0,3.1-2.3,5.2-5.3,5.2
				C122.4,145.3,120.1,143.2,120.1,140.1"/>
			<path class="st1" d="M136.9,135.7v7.5c0,1.2,0,1.6,1.4,1.6v0.3h-5.2v-0.3c1.4,0,1.4-0.4,1.4-1.6v-7.5h-0.8
				c-1.1,0-1.8,0.4-2.2,2.1h-0.3v-2.7h8.9v2.7h-0.3c-0.4-1.8-1-2.1-2.2-2.1H136.9z"/>
			<path class="st1" d="M149.9,145.1H141v-0.3c1.4,0,1.4-0.4,1.4-1.6v-6.2c0-1.2,0-1.6-1.4-1.6v-0.3h5.3v0.3c-1.5,0-1.5,0.4-1.5,1.6
				v6c0,1.5,0.1,1.5,1.7,1.5c2,0,2.6-0.3,3.4-2.9h0.3L149.9,145.1z"/>
			<path class="st1" d="M155.3,138.3l-1.5,3.4h3L155.3,138.3z M153.6,142.3l-0.3,0.8c-0.2,0.4-0.3,0.7-0.3,0.9
				c0,0.7,0.6,0.8,1.3,0.8v0.3h-3.3v-0.3c1-0.1,1.5-1.3,1.8-2.1l3.5-7.8h0.2l3.7,8.3c0.3,0.6,0.6,1.6,1.5,1.6v0.3h-4.8v-0.3
				c0.4,0,1.2,0,1.2-0.5c0-0.3-0.1-0.4-0.1-0.6l-0.7-1.5H153.6z"/>
			<path class="st1" d="M170.3,141.3L170.3,141.3l0-4.6c0-0.8-0.4-1.2-1.4-1.2v-0.3h3.4v0.3c-1,0-1.4,0.4-1.4,1.2v8.6h-0.2l-6.7-8.2
				h0v6.5c0,0.8,0.4,1.2,1.4,1.2v0.3h-3.4v-0.3c1,0,1.4-0.4,1.4-1.2v-7.2c-0.5-0.6-0.7-0.9-1.4-0.9v-0.3h3.5L170.3,141.3z"/>
			<path class="st1" d="M176.7,143.8c0,0.6,0.3,0.7,0.8,0.7c2.4,0,2.8-2.4,2.8-4.3c0-3.5-1.5-4.5-3-4.5h-0.6V143.8z M174.3,137.1
				c0-1.2,0-1.6-1.4-1.6v-0.3h4.7c4.5,0,5.4,3.1,5.4,5c0,2.4-1.3,5-5.5,5h-4.6v-0.3c1.4,0,1.4-0.4,1.4-1.6V137.1z"/>
		</g>
	</g>
</g>
</svg>
