<!-- Generator: Adobe Illustrator 19.2.1, SVG Export Plug-In  -->
<svg version="1.1"
	 xmlns="http://www.w3.org/2000/svg" xmlns:xlink="http://www.w3.org/1999/xlink" xmlns:a="http://ns.adobe.com/AdobeSVGViewerExtensions/3.0/"
	 x="0px" y="0px" width="769.7px" height="382px" viewBox="0 0 769.7 382" style="enable-background:new 0 0 769.7 382;"
	 xml:space="preserve">
<style type="text/css">
	.st0{clip-path:url(#SVGID_2_);fill:#C8452A;}
	.st1{fill:#C8452A;}
	.st2{fill:#FFFFFF;}
	.st3{clip-path:url(#SVGID_4_);fill:#C8452A;}
</style>
<defs>
</defs>
<g>
	<defs>
		<rect id="SVGID_1_" width="769.7" height="382"/>
	</defs>
	<clipPath id="SVGID_2_">
		<use xlink:href="#SVGID_1_"  style="overflow:visible;"/>
	</clipPath>
	<path class="st0" d="M118.8,0c0,0-50.8,0-50.8,50.8v280.3c0,0,0,50.8,50.8,50.8h597.6c0,0,50.8,0,50.8-50.8V50.8
		c0,0,0-50.8-50.8-50.8H118.8z"/>
</g>
<polygon class="st1" points="0,255.9 68,323.9 68,255.9 "/>
<g>
	<path class="st2" d="M119.6,43.4c1.1-7.6,4.2-13.9,13.4-13.9s10.6,6.3,9.5,13.9c-1.1,7.7-4.2,14.3-13.5,14.3S118.5,51.2,119.6,43.4
		z M122.7,43.4c-0.8,6-0.5,11.8,6.7,11.8s9.1-5.8,10-11.8c0.8-6,0.4-11.4-6.7-11.4C125.5,32.1,123.6,37.4,122.7,43.4z"/>
	<path class="st2" d="M161.9,37.2h2.8l-2.8,20.2h-2.8l0.4-2.9h-0.1c-2.3,1.9-5,3.3-8,3.3c-4,0-5.7-2.3-5.1-6.6l1.9-14h2.8l-1.9,13.3
		c-0.4,2.8,0.4,4.8,3.8,4.8c2.7,0,5.2-1.7,6.7-2.7L161.9,37.2z"/>
	<path class="st2" d="M169.7,57.4h-2.8l2.8-20.2h2.8l-0.4,3.2h0.1c2.1-1.8,5.2-3.6,8.4-3.6l-0.4,2.7c-3.2,0-6.6,1.6-8.4,2.7
		L169.7,57.4z"/>
	<path class="st2" d="M189.1,56.4l0.9-2.5c4,1,6.7,1.2,9,1.2c4.6,0,6.9-2.5,7.2-5c0.5-3.7-3.6-4.7-6.4-5.4c-4.2-1.1-8.1-3.5-7.5-8.1
		c0.7-5.1,5-7.1,10.2-7.1c3,0,5.8,0.4,8.9,1.4l-1,2.5c-4-1-6-1.2-8.2-1.2c-4.6,0-6.4,2.1-6.7,4.5c-0.5,3.5,3.9,4.8,6.7,5.5
		c4.2,1,7.9,3,7.2,7.7c-0.7,5.2-5.2,7.9-10.7,7.9C195.6,57.8,192.3,57.4,189.1,56.4z"/>
	<path class="st2" d="M217.4,39.2h-3.2l0.2-1.9l3.2-0.2l1.1-5.6h2.5l-0.8,5.6h6l-0.3,2.1h-5.9L218.5,51c-0.4,2.9,0.2,4.5,3.1,4.5
		c0.6,0,1.2,0,2.2-0.2l0,2.2c-1.1,0.2-2.5,0.3-3.4,0.3c-3.9,0-5.4-1.6-4.7-6.3L217.4,39.2z"/>
	<path class="st2" d="M231.2,57.4h-2.8l2.8-20.2h2.8l-0.4,3.2h0.1c2.1-1.8,5.2-3.6,8.4-3.6l-0.4,2.7c-3.2,0-6.6,1.6-8.4,2.7
		L231.2,57.4z"/>
	<path class="st2" d="M254.4,55.3L254.4,55.3c-1.8,1.4-4.4,2.4-6.9,2.4c-5.6,0-6.8-4.6-6-10.5c0.8-5.9,3.5-10.5,9.1-10.5
		c2.4,0,4.7,0.9,6.1,2.3h0.1l0.8-2h2.2l-2.9,20.2h-2.8L254.4,55.3z M249,55.4c2.5,0,4.7-1.2,5.7-1.9l1.7-12.3
		c-0.8-0.8-2.7-1.9-5.2-1.9c-4.4,0-6.1,3.8-6.7,8.1C243.9,51.6,244.6,55.4,249,55.4z"/>
	<path class="st2" d="M266.1,39.2h-3.2l0.2-1.9l3.2-0.2l1.1-5.6h2.5l-0.8,5.6h6l-0.3,2.1h-5.9L267.2,51c-0.4,2.9,0.2,4.5,3.1,4.5
		c0.6,0,1.2,0,2.2-0.2l0,2.2c-1.1,0.2-2.5,0.3-3.4,0.3c-3.9,0-5.4-1.6-4.7-6.3L266.1,39.2z"/>
	<path class="st2" d="M278.8,47.6c-0.6,4.5,0.8,7.7,6.1,7.7c2.1,0,4.1-0.1,6.4-0.8l0.1,2.3c-2.5,0.7-4.6,0.9-7.2,0.9
		c-7.3,0-9.3-4.3-8.4-10.5c0.9-6.2,4-10.5,11.1-10.5c6.3,0,7.3,3.9,6.9,7.3c-0.1,1.2-0.4,2.4-0.8,3.6H278.8z M279.1,45.8h11.5
		c0.3-0.8,0.4-1.6,0.5-2.4c0.2-2.3-0.9-4.4-4.5-4.4C281.9,39,279.9,42,279.1,45.8z"/>
	<path class="st2" d="M310.1,55.3L310.1,55.3c-1.8,1.4-4.4,2.4-6.9,2.4c-5.6,0-6.8-4.6-6-10.5c0.8-5.9,3.5-10.5,9.1-10.5
		c2.4,0,4.7,0.9,6.1,2.3h0.1l0.8-2h2.2l-2.8,19.6c-0.8,5.6-3.8,9.2-10.9,9.2c-2.5,0-4.3-0.3-6.7-0.9l0.8-2.3
		c3.1,0.8,4.8,0.8,6.1,0.8c4.8,0,7.1-2.1,7.8-6.8L310.1,55.3z M304.6,55.4c2.5,0,4.7-1.2,5.7-1.9l1.7-12.3c-0.8-0.8-2.7-1.9-5.2-1.9
		c-4.4,0-6.1,3.8-6.7,8.1C299.5,51.6,300.3,55.4,304.6,55.4z"/>
	<path class="st2" d="M323.2,37.2l-2.8,20.2h-2.8l2.8-20.2H323.2z M324.2,29.9l-0.6,4.8h-2.8l0.6-4.8H324.2z"/>
	<path class="st2" d="M337.4,36.8c2.5,0,4.3,0.3,6.6,0.9l-0.8,2.3c-3.1-0.8-4.8-0.8-6.1-0.8c-4.8,0-7.1,3.5-7.8,8.1
		c-0.7,4.6,0.7,8.1,5.5,8.1c1.3,0,3,0,6.3-0.8l0.2,2.3c-2.5,0.6-4.4,0.9-6.9,0.9c-7.1,0-9-4.3-8.1-10.5
		C327.2,41.1,330.3,36.8,337.4,36.8z"/>
	<path class="st2" d="M356.9,45.9l-1.6,11.5h-3l3.8-27.4h11.1c5.3,0,7.7,3.4,7.1,8c-0.7,4.8-4,7.9-9.3,7.9H356.9z M357.3,43.2h7.8
		c3.3,0,5.6-1.7,6.1-5.3c0.5-3.3-1.3-5.3-4.6-5.3h-7.8L357.3,43.2z"/>
	<path class="st2" d="M380.1,29.1h2.8l-4,28.2h-2.8L380.1,29.1z"/>
	<path class="st2" d="M397.8,55.3L397.8,55.3c-1.8,1.4-4.4,2.4-6.9,2.4c-5.6,0-6.8-4.6-6-10.5c0.8-5.9,3.5-10.5,9.1-10.5
		c2.4,0,4.7,0.9,6.1,2.3h0.1l0.8-2h2.2l-2.9,20.2h-2.8L397.8,55.3z M392.3,55.4c2.5,0,4.7-1.2,5.7-1.9l1.7-12.3
		c-0.8-0.8-2.7-1.9-5.2-1.9c-4.4,0-6.1,3.8-6.7,8.1C387.2,51.6,388,55.4,392.3,55.4z"/>
	<path class="st2" d="M408.1,57.4h-2.8l2.8-20.2h2.8l-0.4,2.9h0.1c2.3-2,5-3.3,7.9-3.3c4,0,5.7,2.3,5.1,6.6l-1.9,14h-2.8l1.9-13.3
		c0.4-2.8-0.4-4.8-3.8-4.8c-2.7,0-5.3,1.7-6.7,2.7L408.1,57.4z"/>
	<path class="st2" d="M436.7,57.4h-2.8l2.8-20.2h2.8l-0.4,3.2h0.1c2.1-1.8,5.2-3.6,8.4-3.6l-0.4,2.7c-3.2,0-6.6,1.6-8.4,2.7
		L436.7,57.4z"/>
	<path class="st2" d="M450.1,47.6c-0.6,4.5,0.8,7.7,6.1,7.7c2.1,0,4.1-0.1,6.4-0.8l0.1,2.3c-2.5,0.7-4.6,0.9-7.2,0.9
		c-7.3,0-9.3-4.3-8.4-10.5c0.9-6.2,4-10.5,11.1-10.5c6.2,0,7.3,3.9,6.9,7.3c-0.1,1.2-0.4,2.4-0.8,3.6H450.1z M450.3,45.8h11.5
		c0.3-0.8,0.4-1.6,0.5-2.4c0.2-2.3-0.9-4.4-4.5-4.4C453.1,39,451.2,42,450.3,45.8z"/>
	<path class="st2" d="M470.7,65.4h-2.8l3.7-26.2h-3.2l0.2-1.9l3.2-0.2l0.2-1.3c0.7-4.7,3.3-6.8,8.2-6.8c1.2,0,3.3,0.2,5.2,1h2.1
		l-3.8,27.2H481l3.5-25c-2.1-0.9-3.5-1-4.2-1c-3.8,0-5,1.7-5.4,4.5l-0.2,1.3h5.6l-0.3,2.1h-5.6L470.7,65.4z"/>
	<path class="st2" d="M492.7,47.6c-0.6,4.5,0.8,7.7,6.1,7.7c2.1,0,4.1-0.1,6.4-0.8l0.1,2.3c-2.5,0.7-4.6,0.9-7.2,0.9
		c-7.3,0-9.3-4.3-8.4-10.5c0.9-6.2,4-10.5,11.1-10.5c6.3,0,7.3,3.9,6.9,7.3c-0.1,1.2-0.4,2.4-0.8,3.6H492.7z M492.9,45.8h11.5
		c0.3-0.8,0.4-1.6,0.5-2.4c0.2-2.3-0.9-4.4-4.5-4.4C495.8,39,493.8,42,492.9,45.8z"/>
	<path class="st2" d="M522.2,36.8c2.5,0,4.3,0.3,6.6,0.9L528,40c-3.1-0.8-4.8-0.8-6.1-0.8c-4.8,0-7.1,3.5-7.8,8.1
		c-0.7,4.6,0.7,8.1,5.5,8.1c1.3,0,3,0,6.3-0.8l0.2,2.3c-2.5,0.6-4.4,0.9-6.9,0.9c-7.1,0-9-4.3-8.1-10.5
		C512,41.1,515.1,36.8,522.2,36.8z"/>
	<path class="st2" d="M533.6,39.2h-3.2l0.2-1.9l3.2-0.2l1.1-5.6h2.5l-0.8,5.6h6l-0.3,2.1h-5.9L534.8,51c-0.4,2.9,0.2,4.5,3.1,4.5
		c0.6,0,1.2,0,2.2-0.2l0,2.2c-1.1,0.2-2.5,0.3-3.4,0.3c-3.9,0-5.4-1.6-4.7-6.3L533.6,39.2z"/>
	<path class="st2" d="M552.3,57.8c-3.1,0-5.9-0.3-8.3-0.9l0.8-2.3c3.1,0.8,6.1,0.9,7.5,0.9c4.3,0,5-2.7,5.2-3.5
		c0.2-1.5-0.5-2.7-4.6-3.5c-4-0.8-7.1-2.1-6.5-6.2c0.5-3.6,3.3-5.4,8-5.4c3.1,0,5.4,0.3,7.7,0.9l-0.8,2.3c-3.1-0.8-5.7-0.9-7.1-0.9
		c-4.2,0-4.9,2.4-5,3.1c-0.2,1.5,0.3,2.8,4.4,3.6c4.3,0.9,7.3,2.1,6.7,6C559.8,55.6,557,57.8,552.3,57.8z"/>
	<path class="st2" d="M575.4,39.2h-3.2l0.2-1.9l3.2-0.2l1.1-5.6h2.5l-0.8,5.6h6l-0.3,2.1h-5.9L576.5,51c-0.4,2.9,0.2,4.5,3.1,4.5
		c0.6,0,1.2,0,2.2-0.2l0,2.2c-1.1,0.2-2.5,0.3-3.4,0.3c-3.9,0-5.4-1.6-4.7-6.3L575.4,39.2z"/>
	<path class="st2" d="M589.1,57.4h-2.8l4-28.2h2.8l-1.5,11h0.1c2.3-2,5-3.3,7.9-3.3c4,0,5.7,2.3,5.1,6.6l-1.9,14H600l1.9-13.3
		c0.4-2.8-0.4-4.8-3.8-4.8c-2.7,0-5.3,1.7-6.7,2.7L589.1,57.4z"/>
	<path class="st2" d="M611.7,47.6c-0.6,4.5,0.8,7.7,6.1,7.7c2.1,0,4.1-0.1,6.4-0.8l0.1,2.3c-2.5,0.7-4.6,0.9-7.2,0.9
		c-7.3,0-9.3-4.3-8.4-10.5c0.9-6.2,4-10.5,11.1-10.5c6.3,0,7.3,3.9,6.9,7.3c-0.1,1.2-0.4,2.4-0.8,3.6H611.7z M611.9,45.8h11.5
		c0.3-0.8,0.4-1.6,0.5-2.4c0.2-2.3-0.9-4.4-4.5-4.4C614.8,39,612.8,42,611.9,45.8z"/>
</g>
<g>
	<path class="st2" d="M129.7,85.2c2.6,0,4.6,0.4,6.9,1l-1.5,4.2c-3.2-0.8-4.5-0.8-6-0.8c-3.1,0-5.2,2.1-5.7,6.1
		c-0.6,4,0.8,6.2,4,6.2c1.5,0,2.8,0,6.3-0.8l0.4,4.2c-2.5,0.6-4.6,1-7.2,1c-7.8,0-9.8-4.1-8.9-10.5
		C118.8,89.3,121.9,85.2,129.7,85.2z"/>
	<path class="st2" d="M141.5,105.8h-5.2l2.8-20.2h5.2l-0.4,3.2h0.1c1.5-1.8,4.2-3.6,7.5-3.6l-0.6,5c-2.7,0-5.6,0.7-7.3,1.5
		L141.5,105.8z"/>
	<path class="st2" d="M159.2,85.6l-2.8,20.2h-5.2l2.8-20.2H159.2z M160.2,78.3l-0.8,5.6h-5.2l0.8-5.6H160.2z"/>
	<path class="st2" d="M163.7,89.3H161l0.4-3.4l2.8-0.3l1.4-5.6h4.6l-0.8,5.6h5l-0.5,3.8h-5l-1.3,9.7c-0.3,1.9,0.4,2.9,2.5,2.9
		c0.5,0,1.1,0,1.9-0.2l-0.1,4c-1.2,0.2-3.1,0.4-4.2,0.4c-4.6,0-6.1-1.9-5.5-6.2L163.7,89.3z"/>
	<path class="st2" d="M183,85.6l-2.8,20.2h-5.2l2.8-20.2H183z M184,78.3l-0.8,5.6H178l0.8-5.6H184z"/>
	<path class="st2" d="M196.5,85.2c2.6,0,4.6,0.4,6.9,1l-1.5,4.2c-3.2-0.8-4.5-0.8-6-0.8c-3.1,0-5.2,2.1-5.7,6.1
		c-0.6,4,0.8,6.2,4,6.2c1.5,0,2.8,0,6.3-0.8l0.4,4.2c-2.5,0.6-4.6,1-7.2,1c-7.8,0-9.8-4.1-8.9-10.5
		C185.5,89.3,188.7,85.2,196.5,85.2z"/>
	<path class="st2" d="M214.9,103.7L214.9,103.7c-1.5,1.4-3.9,2.4-6.1,2.4c-5.6,0-6.7-4.7-5.9-10.5c0.8-5.7,3.5-10.5,9.1-10.5
		c2.1,0,4.1,0.8,5.4,2.3h0.1l1.2-2h4l-2.9,20.3h-5.2L214.9,103.7z M211.5,101.8c1.7,0,3.1-0.8,3.8-1.3l1.4-9.8
		c-0.6-0.5-1.7-1.2-3.4-1.2c-3.1,0-4.4,2.7-4.8,6.1C208,99.1,208.5,101.8,211.5,101.8z"/>
	<path class="st2" d="M227.2,77.5h5.2l-4,28.2h-5.2L227.2,77.5z"/>
	<path class="st2" d="M244.4,105.8h-5.2l2.8-20.2h5.2l-0.4,3.2h0.1c1.5-1.8,4.2-3.6,7.5-3.6l-0.6,5c-2.7,0-5.6,0.7-7.3,1.5
		L244.4,105.8z"/>
	<path class="st2" d="M253.5,95.7c0.9-6.3,4.2-10.5,11.3-10.5c7.1,0,9.2,4.2,8.3,10.5c-0.9,6.4-4.2,10.5-11.3,10.5
		C254.7,106.2,252.6,102,253.5,95.7z M259,95.7c-0.6,3.8,0.1,6.2,3.3,6.2c3.3,0,4.6-2.4,5.1-6.2c0.5-3.7-0.1-6.1-3.4-6.1
		C260.9,89.5,259.6,92,259,95.7z"/>
	<path class="st2" d="M278.6,77.5h5.2l-4,28.2h-5.2L278.6,77.5z"/>
	<path class="st2" d="M289.9,96.8c-0.2,3,1.2,5,4.9,5c1.7,0,3.7-0.1,6.4-0.8l0,4.2c-2.8,0.8-5.2,1-7.8,1c-7.7,0-9.9-4.1-9-10.5
		c0.9-6.3,4.2-10.5,11.9-10.5c6,0,7.7,3,7.5,6.5c0,1.5-0.4,3.3-0.8,5.1H289.9z M290.3,93.5h7.8c0.2-0.5,0.3-1.1,0.3-1.6
		c0-1.5-0.7-2.7-3.1-2.7C292.4,89.2,291,90.9,290.3,93.5z"/>
</g>
<g>
	<path class="st2" d="M314.6,91.8c1.1-7.6,4.2-13.9,13.4-13.9c3.1,0,5.7,0.4,8.8,1.4l-1,2.5c-4-1-5.7-1.2-7.9-1.2
		c-7,0-9.3,5.2-10.1,11.3c-0.9,6.5-0.1,11.7,6.9,11.7c2.3,0,4.3-0.6,6-1.7l1-7.2H326l0.4-2.7h8.7l-1.7,11.9
		c-2.6,1.1-5.4,2.3-9.4,2.3C314.8,106.2,313.5,99.7,314.6,91.8z"/>
	<path class="st2" d="M352.3,81l-3.5,24.8h-3l3.5-24.8h-7.7l0.4-2.7h18.5L360,81H352.3z"/>
	<path class="st2" d="M374.7,77.9c3.1,0,6,0.4,9.1,1.4l-1,2.5c-4-1-5.9-1.2-8.2-1.2c-7,0-9.3,5.2-10.1,11.3
		c-0.9,6.5-0.1,11.7,6.9,11.7c2.3,0,4.3-0.2,8.5-1.2l0.3,2.5c-3.4,1-6.4,1.4-9.5,1.4c-9.2,0-10.5-6.5-9.4-14.3
		C362.4,84.2,365.5,77.9,374.7,77.9z"/>
	<path class="st2" d="M391.8,104.8l0.9-2.5c4,1,6.7,1.2,9,1.2c4.6,0,6.9-2.5,7.2-5c0.5-3.7-3.6-4.7-6.4-5.4
		c-4.2-1.1-8.1-3.5-7.5-8.1c0.7-5.1,5-7.1,10.2-7.1c3,0,5.8,0.4,8.9,1.4l-1,2.5c-4-1-6-1.2-8.2-1.2c-4.6,0-6.4,2.1-6.7,4.5
		c-0.5,3.5,3.9,4.8,6.7,5.5c4.2,1,7.9,3,7.2,7.7c-0.7,5.2-5.2,7.9-10.7,7.9C398.2,106.2,394.9,105.8,391.8,104.8z"/>
	<path class="st2" d="M428,85.2c2.5,0,4.3,0.3,6.6,0.9l-0.8,2.3c-3.1-0.8-4.8-0.8-6.1-0.8c-4.8,0-7.1,3.5-7.8,8.1
		c-0.7,4.6,0.7,8.1,5.5,8.1c1.3,0,3,0,6.3-0.8l0.2,2.3c-2.5,0.6-4.4,0.9-6.9,0.9c-7.1,0-9-4.3-8.1-10.5
		C417.8,89.5,420.8,85.2,428,85.2z"/>
	<path class="st2" d="M435,95.7c0.9-6.2,3.9-10.5,10.5-10.5c6.6,0,8.4,4.3,7.6,10.5c-0.9,6.2-4,10.5-10.5,10.5
		C436,106.2,434.1,101.9,435,95.7z M438,95.7c-0.6,4.5,0.2,8.1,4.9,8.1c4.7,0,6.5-3.6,7.2-8.1c0.6-4.5-0.2-8.1-4.9-8.1
		S438.6,91.2,438,95.7z"/>
	<path class="st2" d="M460.3,87.6h-3.2l0.2-1.9l3.2-0.2l1.1-5.6h2.5l-0.8,5.6h6l-0.3,2.1h-5.9l-1.7,11.7c-0.4,2.9,0.2,4.5,3.1,4.5
		c0.6,0,1.2,0,2.2-0.2l0,2.2c-1.1,0.2-2.5,0.3-3.4,0.3c-3.9,0-5.4-1.6-4.7-6.3L460.3,87.6z"/>
	<path class="st2" d="M475.2,77.5h2.8l-4,28.2h-2.8L475.2,77.5z"/>
	<path class="st2" d="M492.9,103.7L492.9,103.7c-1.8,1.4-4.4,2.4-6.9,2.4c-5.6,0-6.8-4.6-6-10.5c0.8-5.9,3.5-10.5,9.1-10.5
		c2.4,0,4.7,0.9,6.1,2.3h0.1l0.8-2h2.2l-2.9,20.2h-2.8L492.9,103.7z M487.5,103.8c2.5,0,4.7-1.2,5.7-1.9l1.7-12.3
		c-0.8-0.8-2.7-1.9-5.2-1.9c-4.4,0-6.1,3.8-6.7,8.1C482.4,100,483.1,103.8,487.5,103.8z"/>
	<path class="st2" d="M503.2,105.8h-2.8l2.8-20.2h2.8l-0.4,2.9h0.1c2.3-2,5-3.3,7.9-3.3c4,0,5.7,2.3,5.1,6.6l-1.9,14H514l1.9-13.3
		c0.4-2.8-0.4-4.8-3.8-4.8c-2.7,0-5.3,1.7-6.7,2.7L503.2,105.8z"/>
	<path class="st2" d="M535.7,103.7C535.7,103.7,535.7,103.7,535.7,103.7c-1.8,1.4-4.4,2.4-6.9,2.4c-5.6,0-6.8-4.6-6-10.5
		c0.8-5.9,3.5-10.5,9.1-10.5c2.4,0,4.6,0.9,6,2.3c0,0,0,0,0.1,0l1.4-10h2.8l-4,28.2h-2.8L535.7,103.7z M530.2,103.8
		c2.5,0,4.7-1.2,5.7-1.9l1.7-12.3c-0.8-0.8-2.7-1.9-5.2-1.9c-4.4,0-6.1,3.8-6.7,8.1C525.1,100,525.9,103.8,530.2,103.8z"/>
	<path class="st2" d="M555.8,87.6L555.8,87.6c1.8-1.4,4.3-2.4,6.8-2.4c5.6,0,6.9,4.6,6.1,10.5c-0.8,5.9-3.5,10.5-9.2,10.5
		c-2.5,0-4.6-0.9-5.9-2.3h-0.1l-1.5,10h-2.8l4-28.2h2.8L555.8,87.6z M561.2,87.6c-2.5,0-4.7,1.2-5.7,1.9l-1.7,12.3
		c0.8,0.8,2.7,1.9,5.2,1.9c4.4,0,6.1-3.8,6.7-8.1C566.3,91.4,565.6,87.6,561.2,87.6z"/>
	<path class="st2" d="M575.8,77.5h2.8l-4,28.2h-2.8L575.8,77.5z"/>
	<path class="st2" d="M593.5,103.7L593.5,103.7c-1.8,1.4-4.4,2.4-6.9,2.4c-5.6,0-6.8-4.6-6-10.5c0.8-5.9,3.5-10.5,9.1-10.5
		c2.4,0,4.7,0.9,6.1,2.3h0.1l0.8-2h2.2l-2.9,20.2h-2.8L593.5,103.7z M588,103.8c2.5,0,4.7-1.2,5.7-1.9l1.7-12.3
		c-0.8-0.8-2.7-1.9-5.2-1.9c-4.4,0-6.1,3.8-6.7,8.1C582.9,100,583.6,103.8,588,103.8z"/>
	<path class="st2" d="M603.2,85.6h3.2l4,17.4h0.1l8.4-17.4h3l-10.8,21.6c-2.5,5-5,7-8.7,7c-0.9,0-1.9-0.1-2.7-0.3l0.6-2.4
		c0.7,0.2,1.2,0.2,1.8,0.2c3,0,4.9-3.1,6.2-5.6L603.2,85.6z"/>
	<path class="st2" d="M629.8,106.2c-3.1,0-5.9-0.3-8.3-0.9l0.8-2.3c3.1,0.8,6.1,0.9,7.5,0.9c4.3,0,5-2.7,5.2-3.5
		c0.2-1.5-0.5-2.7-4.6-3.5c-4-0.8-7.1-2.1-6.5-6.2c0.5-3.6,3.3-5.4,8-5.4c3.1,0,5.4,0.3,7.7,0.9l-0.8,2.3c-3.1-0.8-5.7-0.9-7.1-0.9
		c-4.2,0-4.9,2.4-5,3.1c-0.2,1.5,0.3,2.8,4.4,3.6c4.3,0.9,7.3,2.1,6.7,6C637.3,104,634.5,106.2,629.8,106.2z"/>
</g>
<g>
	<path class="st2" d="M123.3,134l-2.8,20.2h-2.8l2.8-20.2H123.3z M124.3,126.7l-0.6,4.8h-2.8l0.6-4.8H124.3z"/>
	<path class="st2" d="M128.2,154.2h-2.8l2.8-20.2h2.8l-0.4,2.9h0.1c2.3-2,5-3.3,7.9-3.3c4,0,5.7,2.3,5.1,6.6l-1.9,14H139l1.9-13.3
		c0.4-2.8-0.4-4.8-3.8-4.8c-2.7,0-5.3,1.7-6.7,2.7L128.2,154.2z"/>
	<path class="st2" d="M156.8,154.2H154l2.8-20.2h2.8l-0.4,2.9h0.1c1.9-1.7,4.2-3.3,7.2-3.3c2.9,0,4.7,1.2,5.1,3.6
		c2.1-2,4.9-3.6,7.8-3.6c4,0,5.7,2.3,5.1,6.6l-1.9,14h-2.8l1.9-13.3c0.4-2.8-0.4-4.8-3.8-4.8c-2.4,0-4.6,1.7-6.1,2.8
		c0,0.6-0.1,1.4-0.2,2.2l-1.9,13.2h-2.8l1.9-13.5c0.3-2.7-0.5-4.7-3.8-4.7c-2.4,0-4.5,1.6-6,2.7L156.8,154.2z"/>
	<path class="st2" d="M201.4,152.1L201.4,152.1c-1.8,1.4-4.4,2.4-6.9,2.4c-5.6,0-6.8-4.6-6-10.5c0.8-5.9,3.5-10.5,9.1-10.5
		c2.4,0,4.7,0.9,6.1,2.3h0.1l0.8-2h2.2l-2.9,20.2h-2.8L201.4,152.1z M195.9,152.2c2.5,0,4.7-1.2,5.7-1.9l1.7-12.3
		c-0.8-0.8-2.7-1.9-5.2-1.9c-4.4,0-6.1,3.8-6.7,8.1C190.8,148.4,191.6,152.2,195.9,152.2z"/>
	<path class="st2" d="M214.5,134l-2.8,20.2h-2.8l2.8-20.2H214.5z M215.5,126.7l-0.6,4.8h-2.8l0.6-4.8H215.5z"/>
	<path class="st2" d="M219.4,154.2h-2.8l2.8-20.2h2.8l-0.4,2.9h0.1c2.3-2,5-3.3,7.9-3.3c4,0,5.7,2.3,5.1,6.6l-1.9,14h-2.8l1.9-13.3
		c0.4-2.8-0.4-4.8-3.8-4.8c-2.7,0-5.3,1.7-6.7,2.7L219.4,154.2z"/>
	<path class="st2" d="M242.1,136.1H239l0.2-1.9l3.2-0.2l1.1-5.6h2.5l-0.8,5.6h6l-0.3,2.1H245l-1.7,11.7c-0.4,2.9,0.2,4.5,3.1,4.5
		c0.6,0,1.2,0,2.2-0.2l0,2.2c-1.1,0.2-2.5,0.3-3.4,0.3c-3.9,0-5.4-1.6-4.7-6.3L242.1,136.1z"/>
	<path class="st2" d="M264.8,152.1L264.8,152.1c-1.8,1.4-4.4,2.4-6.9,2.4c-5.6,0-6.8-4.6-6-10.5c0.8-5.9,3.5-10.5,9.1-10.5
		c2.4,0,4.7,0.9,6.1,2.3h0.1l0.8-2h2.2l-2.9,20.2h-2.8L264.8,152.1z M259.3,152.2c2.5,0,4.7-1.2,5.7-1.9l1.7-12.3
		c-0.8-0.8-2.7-1.9-5.2-1.9c-4.4,0-6.1,3.8-6.7,8.1C254.2,148.4,255,152.2,259.3,152.2z"/>
	<path class="st2" d="M277.9,134l-2.8,20.2h-2.8l2.8-20.2H277.9z M278.9,126.7l-0.6,4.8h-2.8l0.6-4.8H278.9z"/>
	<path class="st2" d="M282.8,154.2H280l2.8-20.2h2.8l-0.4,2.9h0.1c2.3-2,5-3.3,7.9-3.3c4,0,5.7,2.3,5.1,6.6l-1.9,14h-2.8l1.9-13.3
		c0.4-2.8-0.4-4.8-3.8-4.8c-2.7,0-5.3,1.7-6.7,2.7L282.8,154.2z"/>
	<path class="st2" d="M307,134l-2.8,20.2h-2.8l2.8-20.2H307z M308.1,126.7l-0.6,4.8h-2.8l0.6-4.8H308.1z"/>
	<path class="st2" d="M312,154.2h-2.8L312,134h2.8l-0.4,2.9h0.1c2.3-2,5-3.3,7.9-3.3c4,0,5.7,2.3,5.1,6.6l-1.9,14h-2.8l1.9-13.3
		c0.4-2.8-0.4-4.8-3.8-4.8c-2.7,0-5.3,1.7-6.7,2.7L312,154.2z"/>
	<path class="st2" d="M344.4,152.1L344.4,152.1c-1.8,1.4-4.4,2.4-6.9,2.4c-5.6,0-6.8-4.6-6-10.5c0.8-5.9,3.5-10.5,9.1-10.5
		c2.4,0,4.7,0.9,6.1,2.3h0.1l0.8-2h2.2l-2.8,19.6c-0.8,5.6-3.8,9.2-10.9,9.2c-2.5,0-4.3-0.3-6.7-0.9l0.8-2.3
		c3.1,0.8,4.8,0.8,6.1,0.8c4.8,0,7.1-2.1,7.8-6.8L344.4,152.1z M338.9,152.2c2.5,0,4.7-1.2,5.7-1.9l1.7-12.3
		c-0.8-0.8-2.7-1.9-5.2-1.9c-4.4,0-6.1,3.8-6.7,8.1C333.9,148.4,334.6,152.2,338.9,152.2z"/>
	<path class="st2" d="M373.1,152.1L373.1,152.1c-1.8,1.4-4.4,2.4-6.9,2.4c-5.6,0-6.8-4.6-6-10.5c0.8-5.9,3.5-10.5,9.1-10.5
		c2.4,0,4.7,0.9,6.1,2.3h0.1l0.8-2h2.2l-2.9,20.2h-2.8L373.1,152.1z M367.6,152.2c2.5,0,4.7-1.2,5.7-1.9l1.7-12.3
		c-0.8-0.8-2.7-1.9-5.2-1.9c-4.4,0-6.1,3.8-6.7,8.1C362.5,148.4,363.2,152.2,367.6,152.2z"/>
	<path class="st2" d="M383.4,154.2h-2.8l2.8-20.2h2.8l-0.4,2.9h0.1c2.3-2,5-3.3,7.9-3.3c4,0,5.7,2.3,5.1,6.6l-1.9,14h-2.8l1.9-13.3
		c0.4-2.8-0.4-4.8-3.8-4.8c-2.7,0-5.3,1.7-6.7,2.7L383.4,154.2z"/>
	<path class="st2" d="M415.8,152.1C415.8,152.1,415.8,152.1,415.8,152.1c-1.8,1.4-4.4,2.4-6.9,2.4c-5.6,0-6.8-4.6-6-10.5
		c0.8-5.9,3.5-10.5,9.1-10.5c2.4,0,4.6,0.9,6,2.3c0,0,0,0,0.1,0l1.4-10h2.8l-4,28.2h-2.8L415.8,152.1z M410.3,152.2
		c2.5,0,4.7-1.2,5.7-1.9l1.7-12.3c-0.8-0.8-2.7-1.9-5.2-1.9c-4.4,0-6.1,3.8-6.7,8.1C405.3,148.4,406,152.2,410.3,152.2z"/>
</g>
<g>
	<path class="st2" d="M436.3,145.2c-0.2,3,1.2,5,4.9,5c1.7,0,3.7-0.1,6.4-0.8l0,4.2c-2.8,0.8-5.2,1-7.8,1c-7.7,0-9.9-4.1-9-10.5
		c0.9-6.3,4.2-10.5,11.9-10.5c6,0,7.7,3,7.5,6.5c0,1.5-0.4,3.3-0.8,5.1H436.3z M436.8,141.9h7.8c0.2-0.5,0.3-1.1,0.3-1.6
		c0-1.5-0.7-2.7-3.1-2.7C438.9,137.6,437.4,139.3,436.8,141.9z"/>
	<path class="st2" d="M456.4,154.2h-5.2L454,134h5.2l-0.4,2.6h0.1c2-1.9,4.4-3,7-3c4,0,5.7,2.6,5.1,6.8l-1.9,13.8h-5.2l1.8-12.6
		c0.3-2.3-0.4-3.6-2.7-3.6c-1.7,0-3.4,0.9-4.5,1.5L456.4,154.2z"/>
	<path class="st2" d="M477.8,154.2h-5.2l4-28.2h5.2l-1.5,10.7h0.1c2-1.9,4.4-3,7-3c4,0,5.7,2.6,5.1,6.8l-1.9,13.8h-5.2l1.8-12.6
		c0.3-2.3-0.4-3.6-2.7-3.6c-1.7,0-3.4,0.9-4.5,1.5L477.8,154.2z"/>
	<path class="st2" d="M506.9,152.1L506.9,152.1c-1.5,1.4-3.9,2.4-6.1,2.4c-5.6,0-6.7-4.7-5.9-10.5c0.8-5.7,3.5-10.5,9.1-10.5
		c2.1,0,4.1,0.8,5.4,2.3h0.1l1.2-2h4l-2.9,20.3h-5.2L506.9,152.1z M503.6,150.2c1.7,0,3.1-0.8,3.8-1.3l1.4-9.8
		c-0.6-0.5-1.7-1.2-3.4-1.2c-3.1,0-4.4,2.7-4.8,6.1C500,147.5,500.5,150.2,503.6,150.2z"/>
	<path class="st2" d="M520.5,154.2h-5.2l2.8-20.2h5.2l-0.4,2.6h0.1c2-1.9,4.4-3,7-3c4,0,5.7,2.6,5.1,6.8l-1.9,13.8H528l1.8-12.6
		c0.3-2.3-0.4-3.6-2.7-3.6c-1.7,0-3.4,0.9-4.5,1.5L520.5,154.2z"/>
	<path class="st2" d="M549.5,133.6c2.6,0,4.6,0.4,6.9,1l-1.5,4.2c-3.2-0.8-4.5-0.8-6-0.8c-3.1,0-5.2,2.1-5.7,6.1
		c-0.6,4,0.8,6.2,4,6.2c1.5,0,2.8,0,6.2-0.8l0.4,4.2c-2.5,0.6-4.6,1-7.2,1c-7.8,0-9.8-4.1-8.9-10.5
		C538.6,137.7,541.7,133.6,549.5,133.6z"/>
	<path class="st2" d="M564.1,134l-2.8,20.2H556l2.8-20.2H564.1z M565.1,126.7l-0.8,5.6h-5.2l0.8-5.6H565.1z"/>
	<path class="st2" d="M570,154.2h-5.2l2.8-20.2h5.2l-0.4,2.6h0.1c2-1.9,4.4-3,7-3c4,0,5.7,2.6,5.1,6.8l-1.9,13.8h-5.2l1.8-12.6
		c0.3-2.3-0.4-3.6-2.7-3.6c-1.7,0-3.4,0.9-4.5,1.5L570,154.2z"/>
	<path class="st2" d="M599.1,152.1L599.1,152.1c-1.5,1.4-3.9,2.4-6.1,2.4c-5.6,0-6.7-4.7-5.9-10.5c0.8-5.7,3.5-10.5,9.1-10.5
		c2.1,0,4.1,0.8,5.4,2.3h0.1l1.2-2h4l-2.7,19.3c-0.8,5.6-3.9,9.5-11.7,9.5c-2.6,0-4.6-0.4-6.9-1l1.5-4.2c3.2,0.8,4.5,0.8,6,0.8
		c3.1,0,5.3-1.1,5.9-5.2L599.1,152.1z M595.7,150.2c1.7,0,3.1-0.8,3.8-1.3l1.4-9.8c-0.6-0.5-1.7-1.2-3.4-1.2c-3.1,0-4.4,2.7-4.8,6.1
		C592.2,147.5,592.7,150.2,595.7,150.2z"/>
</g>
<g>
	<path class="st2" d="M125.4,203c-3.3,0-6.7-0.4-9-1l1.5-4.2c3.2,0.8,6,0.9,7.5,0.9c2.5,0,3.5-1.2,3.6-1.9c0.2-1-0.8-1.5-3.2-2
		c-4.4-0.8-7.7-2.3-7-6.8c0.6-4.3,3.9-6,8.8-6c3.3,0,6,0.4,8.3,1l-1.5,4.2c-3.2-0.8-5.6-1-7.1-1c-2.4,0-3.1,1-3.3,1.7
		c-0.2,1,0.4,1.5,3,2.1c3.7,0.8,7.9,1.9,7.3,6.5C133.6,200.9,130.3,203,125.4,203z"/>
	<path class="st2" d="M140.1,186.1h-2.7l0.4-3.4l2.8-0.3l1.4-5.6h4.6l-0.8,5.6h5l-0.5,3.8h-5l-1.3,9.7c-0.3,1.9,0.4,2.9,2.5,2.9
		c0.5,0,1.1,0,1.9-0.2l-0.1,4c-1.2,0.2-3.1,0.4-4.2,0.4c-4.6,0-6.1-1.9-5.5-6.2L140.1,186.1z"/>
	<path class="st2" d="M162.8,200.5L162.8,200.5c-1.5,1.4-3.9,2.4-6.1,2.4c-5.6,0-6.7-4.7-5.9-10.5c0.8-5.7,3.5-10.5,9.1-10.5
		c2.1,0,4.1,0.8,5.4,2.3h0.1l1.2-2h4l-2.9,20.3h-5.2L162.8,200.5z M159.5,198.6c1.7,0,3.1-0.8,3.8-1.3l1.4-9.8
		c-0.6-0.5-1.7-1.2-3.4-1.2c-3.1,0-4.4,2.7-4.8,6.1C156,195.9,156.4,198.6,159.5,198.6z"/>
	<path class="st2" d="M176.5,202.6h-5.2l2.8-20.2h5.2l-0.4,2.6h0.1c2-1.9,4.4-3,7-3c4,0,5.7,2.6,5.1,6.8l-1.9,13.8h-5.2l1.8-12.6
		c0.3-2.3-0.4-3.6-2.7-3.6c-1.7,0-3.4,0.9-4.5,1.5L176.5,202.6z"/>
	<path class="st2" d="M205.6,200.5C205.6,200.5,205.6,200.5,205.6,200.5c-1.5,1.4-3.9,2.4-6.1,2.4c-5.6,0-6.7-4.7-5.9-10.5
		c0.8-5.7,3.5-10.5,9.1-10.5c2.1,0,4,0.8,5,2.3c0,0,0,0,0.1,0l1.4-9.9h5.2l-4,28.2h-5.2L205.6,200.5z M202.3,198.6
		c1.7,0,3.1-0.8,3.8-1.3l1.4-9.8c-0.6-0.5-1.7-1.2-3.4-1.2c-3.1,0-4.4,2.7-4.8,6.1C198.7,195.9,199.2,198.6,202.3,198.6z"/>
	<path class="st2" d="M227,200.5L227,200.5c-1.5,1.4-3.9,2.4-6.1,2.4c-5.6,0-6.7-4.7-5.9-10.5c0.8-5.7,3.5-10.5,9.1-10.5
		c2.1,0,4.1,0.8,5.4,2.3h0.1l1.2-2h4l-2.9,20.3h-5.2L227,200.5z M223.6,198.6c1.7,0,3.1-0.8,3.8-1.3l1.4-9.8
		c-0.6-0.5-1.7-1.2-3.4-1.2c-3.1,0-4.4,2.7-4.8,6.1C220.1,195.9,220.6,198.6,223.6,198.6z"/>
	<path class="st2" d="M240.6,202.6h-5.2l2.8-20.2h5.2l-0.4,3.2h0.1c1.5-1.8,4.2-3.6,7.5-3.6l-0.6,5c-2.7,0-5.6,0.7-7.3,1.5
		L240.6,202.6z"/>
	<path class="st2" d="M261.6,200.5C261.5,200.5,261.5,200.5,261.6,200.5c-1.5,1.4-3.9,2.4-6.1,2.4c-5.6,0-6.7-4.7-5.9-10.5
		c0.8-5.7,3.5-10.5,9.1-10.5c2.1,0,4,0.8,5,2.3c0,0,0,0,0.1,0l1.4-9.9h5.2l-4,28.2h-5.2L261.6,200.5z M258.2,198.6
		c1.7,0,3.1-0.8,3.8-1.3l1.4-9.8c-0.6-0.5-1.7-1.2-3.4-1.2c-3.1,0-4.4,2.7-4.8,6.1C254.7,195.9,255.2,198.6,258.2,198.6z"/>
	<path class="st2" d="M278.5,203c-3.3,0-6.7-0.4-9-1l1.5-4.2c3.2,0.8,6,0.9,7.5,0.9c2.5,0,3.5-1.2,3.6-1.9c0.2-1-0.8-1.5-3.2-2
		c-4.4-0.8-7.7-2.3-7-6.8c0.6-4.3,3.9-6,8.8-6c3.3,0,6,0.4,8.3,1l-1.5,4.2c-3.2-0.8-5.6-1-7.1-1c-2.4,0-3.1,1-3.3,1.7
		c-0.2,1,0.4,1.5,3,2.1c3.7,0.8,7.9,1.9,7.3,6.5C286.8,200.9,283.4,203,278.5,203z"/>
</g>
<g>
	<path class="st2" d="M311.3,200.5L311.3,200.5c-1.8,1.4-4.4,2.4-6.9,2.4c-5.6,0-6.8-4.6-6-10.5c0.8-5.9,3.5-10.5,9.1-10.5
		c2.4,0,4.7,0.9,6.1,2.3h0.1l0.8-2h2.2l-2.9,20.2H311L311.3,200.5z M305.8,200.6c2.5,0,4.7-1.2,5.7-1.9l1.7-12.3
		c-0.8-0.8-2.7-1.9-5.2-1.9c-4.4,0-6.1,3.8-6.7,8.1C300.7,196.8,301.4,200.6,305.8,200.6z"/>
	<path class="st2" d="M321.6,202.6h-2.8l2.8-20.2h2.8l-0.4,2.9h0.1c2.3-2,5-3.3,7.9-3.3c4,0,5.7,2.3,5.1,6.6l-1.9,14h-2.8l1.9-13.3
		c0.4-2.8-0.4-4.8-3.8-4.8c-2.7,0-5.3,1.7-6.7,2.7L321.6,202.6z"/>
	<path class="st2" d="M354,200.5C354,200.5,354,200.5,354,200.5c-1.8,1.4-4.4,2.4-6.9,2.4c-5.6,0-6.8-4.6-6-10.5
		c0.8-5.9,3.5-10.5,9.1-10.5c2.4,0,4.6,0.9,6,2.3c0,0,0,0,0.1,0l1.4-10h2.8l-4,28.2h-2.8L354,200.5z M348.5,200.6
		c2.5,0,4.7-1.2,5.7-1.9l1.7-12.3c-0.8-0.8-2.7-1.9-5.2-1.9c-4.4,0-6.1,3.8-6.7,8.1C343.5,196.8,344.2,200.6,348.5,200.6z"/>
	<path class="st2" d="M376.5,203c-3.1,0-5.9-0.3-8.3-0.9l0.8-2.3c3.1,0.8,6.1,0.9,7.5,0.9c4.3,0,5-2.7,5.2-3.5
		c0.2-1.5-0.5-2.7-4.6-3.5c-4-0.8-7.1-2.1-6.5-6.2c0.5-3.6,3.3-5.4,8-5.4c3.1,0,5.4,0.3,7.7,0.9l-0.8,2.3c-3.1-0.8-5.7-0.9-7.1-0.9
		c-4.2,0-4.9,2.4-5,3.1c-0.2,1.5,0.3,2.8,4.4,3.6c4.3,0.9,7.3,2.1,6.7,6C384,200.8,381.2,203,376.5,203z"/>
	<path class="st2" d="M404.6,182.4h2.8l-2.8,20.2h-2.8l0.4-2.9h-0.1c-2.3,1.9-5,3.3-8,3.3c-4,0-5.7-2.3-5.1-6.6l1.9-14h2.8
		l-1.9,13.3c-0.4,2.8,0.4,4.8,3.8,4.8c2.7,0,5.2-1.7,6.7-2.7L404.6,182.4z"/>
	<path class="st2" d="M414.9,184.4L414.9,184.4c1.8-1.4,4.3-2.4,6.8-2.4c5.6,0,6.9,4.6,6.1,10.5c-0.8,5.9-3.5,10.5-9.2,10.5
		c-2.5,0-4.6-0.9-5.9-2.3h-0.1l-1.5,10h-2.8l4-28.2h2.8L414.9,184.4z M420.3,184.4c-2.5,0-4.7,1.2-5.7,1.9l-1.7,12.3
		c0.8,0.8,2.7,1.9,5.2,1.9c4.4,0,6.1-3.8,6.7-8.1C425.4,188.2,424.7,184.4,420.3,184.4z"/>
	<path class="st2" d="M436.2,184.4L436.2,184.4c1.8-1.4,4.3-2.4,6.8-2.4c5.6,0,6.9,4.6,6.1,10.5c-0.8,5.9-3.5,10.5-9.2,10.5
		c-2.5,0-4.6-0.9-5.9-2.3H434l-1.5,10h-2.8l4-28.2h2.8L436.2,184.4z M441.7,184.4c-2.5,0-4.7,1.2-5.7,1.9l-1.7,12.3
		c0.8,0.8,2.7,1.9,5.2,1.9c4.4,0,6.1-3.8,6.7-8.1C446.8,188.2,446.1,184.4,441.7,184.4z"/>
	<path class="st2" d="M453.3,192.5c0.9-6.2,3.9-10.5,10.5-10.5c6.6,0,8.4,4.3,7.6,10.5c-0.9,6.2-4,10.5-10.5,10.5
		C454.2,203,452.4,198.7,453.3,192.5z M456.2,192.5c-0.6,4.5,0.2,8.1,4.9,8.1c4.7,0,6.5-3.6,7.2-8.1c0.6-4.5-0.2-8.1-4.9-8.1
		S456.8,188,456.2,192.5z"/>
	<path class="st2" d="M477.3,202.6h-2.8l2.8-20.2h2.8l-0.4,3.2h0.1c2.1-1.8,5.2-3.6,8.4-3.6l-0.4,2.7c-3.2,0-6.6,1.6-8.4,2.7
		L477.3,202.6z"/>
	<path class="st2" d="M493.5,184.5h-3.2l0.2-1.9l3.2-0.2l1.1-5.6h2.5l-0.8,5.6h6l-0.3,2.1h-5.9l-1.7,11.7c-0.4,2.9,0.2,4.5,3.1,4.5
		c0.6,0,1.2,0,2.2-0.2l0,2.2c-1.1,0.2-2.5,0.3-3.4,0.3c-3.9,0-5.4-1.6-4.7-6.3L493.5,184.5z"/>
	<path class="st2" d="M510.1,182.4l-2.8,20.2h-2.8l2.8-20.2H510.1z M511.1,175.1l-0.6,4.8h-2.8l0.6-4.8H511.1z"/>
	<path class="st2" d="M515.1,202.6h-2.8l2.8-20.2h2.8l-0.4,2.9h0.1c2.3-2,5-3.3,7.9-3.3c4,0,5.7,2.3,5.1,6.6l-1.9,14h-2.8l1.9-13.3
		c0.4-2.8-0.4-4.8-3.8-4.8c-2.7,0-5.3,1.7-6.7,2.7L515.1,202.6z"/>
	<path class="st2" d="M547.5,200.5L547.5,200.5c-1.8,1.4-4.4,2.4-6.9,2.4c-5.6,0-6.8-4.6-6-10.5c0.8-5.9,3.5-10.5,9.1-10.5
		c2.4,0,4.7,0.9,6.1,2.3h0.1l0.8-2h2.2l-2.8,19.6c-0.8,5.6-3.8,9.2-10.9,9.2c-2.5,0-4.3-0.3-6.7-0.9l0.8-2.3
		c3.1,0.8,4.8,0.8,6.1,0.8c4.8,0,7.1-2.1,7.8-6.8L547.5,200.5z M542,200.6c2.5,0,4.7-1.2,5.7-1.9l1.7-12.3c-0.8-0.8-2.7-1.9-5.2-1.9
		c-4.4,0-6.1,3.8-6.7,8.1C537,196.8,537.7,200.6,542,200.6z"/>
	<path class="st2" d="M566.4,184.5h-3.2l0.2-1.9l3.2-0.2l1.1-5.6h2.5l-0.8,5.6h6l-0.3,2.1h-5.9l-1.7,11.7c-0.4,2.9,0.2,4.5,3.1,4.5
		c0.6,0,1.2,0,2.2-0.2l0,2.2c-1.1,0.2-2.5,0.3-3.4,0.3c-3.9,0-5.4-1.6-4.7-6.3L566.4,184.5z"/>
	<path class="st2" d="M579.1,192.8c-0.6,4.5,0.8,7.7,6.1,7.7c2.1,0,4.1-0.1,6.4-0.8l0.1,2.3c-2.5,0.7-4.6,0.9-7.2,0.9
		c-7.3,0-9.3-4.3-8.4-10.5c0.9-6.2,4-10.5,11.1-10.5c6.3,0,7.3,3.9,6.9,7.3c-0.1,1.2-0.4,2.4-0.8,3.6H579.1z M579.4,191h11.5
		c0.3-0.8,0.4-1.6,0.5-2.4c0.2-2.3-0.9-4.4-4.5-4.4C582.2,184.2,580.2,187.2,579.4,191z"/>
	<path class="st2" d="M610.4,200.5L610.4,200.5c-1.8,1.4-4.4,2.4-6.9,2.4c-5.6,0-6.8-4.6-6-10.5c0.8-5.9,3.5-10.5,9.1-10.5
		c2.4,0,4.7,0.9,6.1,2.3h0.1l0.8-2h2.2l-2.9,20.2h-2.8L610.4,200.5z M605,200.6c2.5,0,4.7-1.2,5.7-1.9l1.7-12.3
		c-0.8-0.8-2.7-1.9-5.2-1.9c-4.4,0-6.1,3.8-6.7,8.1C599.9,196.8,600.6,200.6,605,200.6z"/>
	<path class="st2" d="M630,182c2.5,0,4.3,0.3,6.6,0.9l-0.8,2.3c-3.1-0.8-4.8-0.8-6.1-0.8c-4.8,0-7.1,3.5-7.8,8.1
		c-0.7,4.6,0.7,8.1,5.5,8.1c1.3,0,3,0,6.3-0.8l0.2,2.3c-2.5,0.6-4.4,0.9-6.9,0.9c-7.1,0-9-4.3-8.1-10.5
		C619.8,186.3,622.9,182,630,182z"/>
	<path class="st2" d="M640.1,202.6h-2.8l4-28.2h2.8l-1.5,11h0.1c2.3-2,5-3.3,7.9-3.3c4,0,5.7,2.3,5.1,6.6l-1.9,14h-2.8l1.9-13.3
		c0.4-2.8-0.4-4.8-3.8-4.8c-2.7,0-5.3,1.7-6.7,2.7L640.1,202.6z"/>
	<path class="st2" d="M662.6,192.8c-0.6,4.5,0.8,7.7,6.1,7.7c2.1,0,4.1-0.1,6.4-0.8l0.1,2.3c-2.5,0.7-4.6,0.9-7.2,0.9
		c-7.3,0-9.3-4.3-8.4-10.5c0.9-6.2,4-10.5,11.1-10.5c6.3,0,7.3,3.9,6.9,7.3c-0.1,1.2-0.4,2.4-0.8,3.6H662.6z M662.9,191h11.5
		c0.3-0.8,0.4-1.6,0.5-2.4c0.2-2.3-0.9-4.4-4.5-4.4C665.7,184.2,663.7,187.2,662.9,191z"/>
	<path class="st2" d="M682.8,202.6H680l2.8-20.2h2.8l-0.4,3.2h0.1c2.1-1.8,5.2-3.6,8.4-3.6l-0.4,2.7c-3.2,0-6.6,1.6-8.4,2.7
		L682.8,202.6z"/>
</g>
<g>
	<path class="st2" d="M123,232.8L123,232.8c1.8-1.4,4.3-2.4,6.8-2.4c5.6,0,6.9,4.6,6.1,10.5c-0.8,5.9-3.5,10.5-9.2,10.5
		c-2.5,0-4.6-0.9-5.9-2.3h-0.1l-1.5,10h-2.8l4-28.2h2.8L123,232.8z M128.4,232.8c-2.5,0-4.7,1.2-5.7,1.9l-1.7,12.3
		c0.8,0.8,2.7,1.9,5.2,1.9c4.4,0,6.1-3.8,6.7-8.1C133.5,236.6,132.8,232.8,128.4,232.8z"/>
	<path class="st2" d="M141.8,251H139l2.8-20.2h2.8l-0.4,3.2h0.1c2.1-1.8,5.2-3.6,8.4-3.6l-0.4,2.7c-3.2,0-6.6,1.6-8.4,2.7L141.8,251
		z"/>
	<path class="st2" d="M152.2,240.9c0.9-6.2,3.9-10.5,10.5-10.5c6.6,0,8.4,4.3,7.6,10.5c-0.9,6.2-4,10.5-10.5,10.5
		S151.3,247.1,152.2,240.9z M155.2,240.9c-0.6,4.5,0.2,8.1,4.9,8.1c4.7,0,6.5-3.6,7.2-8.1c0.6-4.5-0.2-8.1-4.9-8.1
		S155.8,236.4,155.2,240.9z"/>
	<path class="st2" d="M180.6,230.8h5.2l-0.3,2.1h-5.1l-3.7,26.2h-2.8l3.7-26.2h-3.2l0.2-1.9l3.2-0.2l0.4-2.7
		c0.5-3.8,2.2-5.3,6.3-5.3c0.9,0,2,0.1,3,0.3l-0.6,2.2c-0.9-0.2-1.6-0.2-2.2-0.2c-2.6,0-3.5,0.8-3.8,3.3L180.6,230.8z"/>
	<path class="st2" d="M188.8,241.2c-0.6,4.5,0.8,7.7,6.1,7.7c2.1,0,4.1-0.1,6.4-0.8l0.1,2.3c-2.5,0.7-4.6,0.9-7.2,0.9
		c-7.3,0-9.3-4.3-8.4-10.5c0.9-6.2,4-10.5,11.1-10.5c6.3,0,7.3,3.9,6.9,7.3c-0.1,1.2-0.4,2.4-0.8,3.6H188.8z M189.1,239.4h11.5
		c0.3-0.8,0.4-1.6,0.5-2.4c0.2-2.3-0.9-4.4-4.5-4.4C191.9,232.6,189.9,235.6,189.1,239.4z"/>
	<path class="st2" d="M214,251.4c-3.1,0-5.9-0.3-8.3-0.9l0.8-2.3c3.1,0.8,6.1,0.9,7.5,0.9c4.3,0,5-2.7,5.2-3.5
		c0.2-1.5-0.5-2.7-4.6-3.5c-4-0.8-7.1-2.1-6.5-6.2c0.5-3.6,3.3-5.4,8-5.4c3.1,0,5.4,0.3,7.7,0.9l-0.8,2.3c-3.1-0.8-5.7-0.9-7.1-0.9
		c-4.2,0-4.9,2.4-5,3.1c-0.2,1.5,0.3,2.8,4.4,3.6c4.3,0.9,7.3,2.1,6.7,6C221.5,249.2,218.6,251.4,214,251.4z"/>
	<path class="st2" d="M233.3,251.4c-3.1,0-5.9-0.3-8.3-0.9l0.8-2.3c3.1,0.8,6.1,0.9,7.5,0.9c4.3,0,5-2.7,5.2-3.5
		c0.2-1.5-0.5-2.7-4.6-3.5c-4-0.8-7.1-2.1-6.5-6.2c0.5-3.6,3.3-5.4,8-5.4c3.1,0,5.4,0.3,7.7,0.9l-0.8,2.3c-3.1-0.8-5.7-0.9-7.1-0.9
		c-4.2,0-4.9,2.4-5,3.1c-0.2,1.5,0.3,2.8,4.4,3.6c4.3,0.9,7.3,2.1,6.7,6C240.8,249.2,238,251.4,233.3,251.4z"/>
	<path class="st2" d="M250.6,230.8l-2.8,20.2h-2.8l2.8-20.2H250.6z M251.6,223.5l-0.6,4.8h-2.8l0.6-4.8H251.6z"/>
	<path class="st2" d="M253.7,240.9c0.9-6.2,3.9-10.5,10.5-10.5c6.6,0,8.4,4.3,7.6,10.5c-0.9,6.2-4,10.5-10.5,10.5
		S252.8,247.1,253.7,240.9z M256.7,240.9c-0.6,4.5,0.2,8.1,4.9,8.1c4.7,0,6.5-3.6,7.2-8.1c0.6-4.5-0.2-8.1-4.9-8.1
		S257.3,236.4,256.7,240.9z"/>
	<path class="st2" d="M277.7,251h-2.8l2.8-20.2h2.8l-0.4,2.9h0.1c2.3-2,5-3.3,7.9-3.3c4,0,5.7,2.3,5.1,6.6l-1.9,14h-2.8l1.9-13.3
		c0.4-2.8-0.4-4.8-3.8-4.8c-2.7,0-5.3,1.7-6.7,2.7L277.7,251z"/>
	<path class="st2" d="M310.1,248.9L310.1,248.9c-1.8,1.4-4.4,2.4-6.9,2.4c-5.6,0-6.8-4.6-6-10.5c0.8-5.9,3.5-10.5,9.1-10.5
		c2.4,0,4.7,0.9,6.1,2.3h0.1l0.8-2h2.2l-2.9,20.2h-2.8L310.1,248.9z M304.7,249c2.5,0,4.7-1.2,5.7-1.9l1.7-12.3
		c-0.8-0.8-2.7-1.9-5.2-1.9c-4.4,0-6.1,3.8-6.7,8.1C299.6,245.2,300.3,249,304.7,249z"/>
	<path class="st2" d="M321.6,222.7h2.8l-4,28.2h-2.8L321.6,222.7z"/>
	<path class="st2" d="M331,230.8l-2.8,20.2h-2.8l2.8-20.2H331z M332,223.5l-0.6,4.8h-2.8l0.6-4.8H332z"/>
	<path class="st2" d="M340.8,251.4c-3.1,0-5.9-0.3-8.3-0.9l0.8-2.3c3.1,0.8,6.1,0.9,7.5,0.9c4.3,0,5-2.7,5.2-3.5
		c0.2-1.5-0.5-2.7-4.6-3.5c-4-0.8-7.1-2.1-6.5-6.2c0.5-3.6,3.3-5.4,8-5.4c3.1,0,5.4,0.3,7.7,0.9l-0.8,2.3c-3.1-0.8-5.7-0.9-7.1-0.9
		c-4.2,0-4.9,2.4-5,3.1c-0.2,1.5,0.3,2.8,4.4,3.6c4.3,0.9,7.3,2.1,6.7,6C348.3,249.2,345.5,251.4,340.8,251.4z"/>
	<path class="st2" d="M355.3,251h-2.8l2.8-20.2h2.8l-0.4,2.9h0.1c1.9-1.7,4.2-3.3,7.2-3.3c2.9,0,4.7,1.2,5.1,3.6
		c2.1-2,4.9-3.6,7.8-3.6c4,0,5.7,2.3,5.1,6.6l-1.9,14h-2.8l1.9-13.3c0.4-2.8-0.4-4.8-3.8-4.8c-2.4,0-4.6,1.7-6.1,2.8
		c0,0.6-0.1,1.4-0.2,2.2l-1.9,13.2h-2.8l1.9-13.5c0.3-2.7-0.5-4.7-3.8-4.7c-2.4,0-4.5,1.6-6,2.7L355.3,251z"/>
</g>
<g>
	<path class="st2" d="M122.2,293.4l9.2-11.1h5.9l-8.5,10.3l8.6,14.1h-6.2l-6-10.1l-3,3.6v6.6h-4.9v-24.4h4.9V293.4z"/>
	<path class="st2" d="M157.1,286.7h-11.5v5.2h9.9v4.4h-9.9v6h11.7v4.4h-16.7v-24.4h16.5V286.7z"/>
	<path class="st2" d="M161.2,306.7v-24.4h4.9l9.8,15.3h0.1v-15.3h4.8v24.4h-4.9l-9.8-14.8H166v14.8H161.2z"/>
	<path class="st2" d="M204,298.5L204,298.5l5.8-16.2h6.5v24.4h-4.9v-15.5h-0.1l-5.8,15.5H202l-5.7-15.5h-0.1v15.5h-4.8v-24.4h6.6
		L204,298.5z"/>
	<path class="st2" d="M234.9,298.1v-15.8h4.9v15.8c0,6.4-3.8,9-9.6,9s-9.6-2.6-9.6-9v-15.8h4.9v15.8c0,2.6,0.8,4.8,4.7,4.8
		C234,302.9,234.9,300.7,234.9,298.1z"/>
	<path class="st2" d="M244,306.7v-24.4h4.9v24.4H244z"/>
	<path class="st2" d="M266.8,306.7l-5.1-8.7h-3.5v8.7h-4.9v-24.4h10.4c5.1,0,8.1,3.1,8.1,7.9c0,3.3-1.5,6.1-4.8,7l5.7,9.5H266.8z
		 M258.2,293.6h4.8c2,0,3.6-0.9,3.6-3.4c0-2.5-1.5-3.4-3.5-3.4h-4.9V293.6z"/>
	<path class="st2" d="M276.1,311.4l0.9-4.7c-0.6,0-1.3,0-1.9,0v-5.2h4.7v5.2l-2.2,4.7H276.1z"/>
</g>
<g>
	<path class="st2" d="M127.8,325c2.9,0,5.5,0.4,8.8,1.4l-1.1,4.1c-3.8-0.9-5.4-1.1-7.3-1.1c-4.5,0-6.1,3.1-6.1,8
		c0,5.2,1.5,8.4,6.1,8.4c1.9,0,3.4-0.2,7.3-1.1l1.1,4.1c-3.3,1-5.9,1.3-8.8,1.3c-8.6,0-10.9-5.7-10.9-12.7
		C116.9,330.5,119.2,325,127.8,325z"/>
	<path class="st2" d="M139.5,349.7v-24.4h4.9v9.6h9.3v-9.6h4.9v24.4h-4.9v-10.4h-9.3v10.4H139.5z"/>
	<path class="st2" d="M162.9,349.7v-24.4h4.9v24.4H162.9z"/>
	<path class="st2" d="M188.6,329.7H177v5.2h9.9v4.4H177v6h11.7v4.4h-16.7v-24.4h16.5V329.7z"/>
	<path class="st2" d="M208.8,329.7h-11.2v5.9h9.6v4.4h-9.6v9.7h-4.9v-24.4h16.1V329.7z"/>
	<path class="st2" d="M235.3,329.7h-11.5v5.2h9.9v4.4h-9.9v6h11.7v4.4h-16.7v-24.4h16.5V329.7z"/>
	<path class="st2" d="M248.8,341.1L248.8,341.1l-4.9,8.6h-5.5l7.4-12.7l-7-11.7h5.8l4.5,7.7h0.1l4.4-7.7h5.7l-7,11.7l7.6,12.7H254
		L248.8,341.1z"/>
	<path class="st2" d="M279.6,329.7h-11.5v5.2h9.9v4.4h-9.9v6h11.7v4.4h-16.7v-24.4h16.5V329.7z"/>
	<path class="st2" d="M294.2,325c2.9,0,5.5,0.4,8.8,1.4l-1.1,4.1c-3.8-0.9-5.4-1.1-7.3-1.1c-4.5,0-6.1,3.1-6.1,8
		c0,5.2,1.5,8.4,6.1,8.4c1.9,0,3.4-0.2,7.3-1.1l1.1,4.1c-3.3,1-5.9,1.3-8.8,1.3c-8.6,0-10.9-5.7-10.9-12.7
		C283.3,330.5,285.6,325,294.2,325z"/>
	<path class="st2" d="M320.7,341.1v-15.8h4.9v15.8c0,6.4-3.8,9-9.6,9s-9.6-2.6-9.6-9v-15.8h4.9v15.8c0,2.6,0.8,4.8,4.7,4.8
		C319.8,346,320.7,343.7,320.7,341.1z"/>
	<path class="st2" d="M340.5,329.7v20h-4.9v-20h-6.4v-4.4h17.8v4.4H340.5z"/>
	<path class="st2" d="M350.4,349.7v-24.4h4.9v24.4H350.4z"/>
	<path class="st2" d="M369.1,343.7l5.5-18.4h5.2l-7.8,24.6h-6l-7.9-24.6h5.5L369.1,343.7L369.1,343.7z"/>
	<path class="st2" d="M398.9,329.7h-11.5v5.2h9.9v4.4h-9.9v6h11.7v4.4h-16.7v-24.4h16.5V329.7z"/>
	<path class="st2" d="M403.4,354.4l0.9-4.7c-0.6,0-1.3,0-1.9,0v-5.2h4.7v5.2l-2.2,4.7H403.4z"/>
	<path class="st2" d="M430.7,349.7l-5.1-8.7h-3.5v8.7h-4.9v-24.4h10.4c5.1,0,8.1,3.1,8.1,7.9c0,3.3-1.5,6.1-4.8,7l5.7,9.5H430.7z
		 M422.1,336.6h4.8c2,0,3.6-0.9,3.6-3.4c0-2.5-1.5-3.4-3.5-3.4h-4.9V336.6z"/>
	<path class="st2" d="M456.2,329.7h-11.5v5.2h9.9v4.4h-9.9v6h11.7v4.4h-16.7v-24.4h16.5V329.7z"/>
	<path class="st2" d="M459.9,337.3c0-6.9,2.3-12.4,10.9-12.4c2.9,0,5.4,0.4,8.7,1.4l-1.1,4.1c-3.8-0.9-5.3-1.1-7.2-1.1
		c-4.5,0-6.1,3.1-6.1,8c0,5.2,1.5,8.4,6.1,8.4c1.3,0,2.3-0.3,3.4-0.7v-4h-3.8v-4.4h8.7v11.8c-3,1.1-5.5,1.7-8.7,1.7
		C462.2,350.1,459.9,344.3,459.9,337.3z"/>
	<path class="st2" d="M483.7,349.7v-24.4h4.9v24.4H483.7z"/>
	<path class="st2" d="M491.9,348.7l0.9-4.1c3.8,0.9,6.5,1.1,8.4,1.1c2.5,0,4-1.1,4-2.8c0-2.3-2.8-2.7-5.6-3.5
		c-4.2-1.2-7.3-3.5-7.3-7.6c0-4.9,4.1-6.8,8.9-6.8c2.8,0,5.3,0.4,8.6,1.4l-1.1,4.1c-3.8-0.9-5.6-1.1-7.5-1.1c-2.5,0-3.7,1.1-3.7,2.5
		c0,2,2.6,2.7,5.6,3.4c4.2,1,7.4,3,7.4,7.2c0,5.2-4,7.5-9.2,7.5C498.3,350.1,495.2,349.7,491.9,348.7z"/>
	<path class="st2" d="M524.2,329.7v20h-4.9v-20h-6.4v-4.4h17.8v4.4H524.2z"/>
	<path class="st2" d="M547.7,349.7l-5.1-8.7H539v8.7h-4.9v-24.4h10.4c5.1,0,8.1,3.1,8.1,7.9c0,3.3-1.5,6.1-4.8,7l5.7,9.5H547.7z
		 M539,336.6h4.8c2,0,3.6-0.9,3.6-3.4c0-2.5-1.5-3.4-3.5-3.4H539V336.6z"/>
	<path class="st2" d="M570.2,344.2h-7.7l-1.6,5.5h-5.2l7.9-24.6h6l7.8,24.6h-5.5L570.2,344.2z M566.3,331.3l-2.8,8.8h5.7
		L566.3,331.3L566.3,331.3z"/>
	<path class="st2" d="M579.9,349.7v-24.4h4.9l9.8,15.3h0.1v-15.3h4.8v24.4h-4.9l-9.8-14.8h-0.1v14.8H579.9z"/>
	<path class="st2" d="M614.4,329.7v20h-4.9v-20H603v-4.4h17.8v4.4H614.4z"/>
</g>
</svg>
