<!-- Generator: Adobe Illustrator 19.2.1, SVG Export Plug-In  -->
<svg version="1.1"
	 xmlns="http://www.w3.org/2000/svg" xmlns:xlink="http://www.w3.org/1999/xlink" xmlns:a="http://ns.adobe.com/AdobeSVGViewerExtensions/3.0/"
	 x="0px" y="0px" width="378.9px" height="73.7px" viewBox="0 0 378.9 73.7" style="enable-background:new 0 0 378.9 73.7;"
	 xml:space="preserve">
<style type="text/css">
	.st0{clip-path:url(#SVGID_2_);fill:#2B5972;}
	.st1{clip-path:url(#SVGID_4_);fill:#2B5972;}
</style>
<defs>
</defs>
<g>
	<defs>
		<rect id="SVGID_1_" width="378.9" height="73.7"/>
	</defs>
	<clipPath id="SVGID_2_">
		<use xlink:href="#SVGID_1_"  style="overflow:visible;"/>
	</clipPath>
	<path class="st0" d="M365.3,18.1c-5.1,0-9,1.8-11.4,5.8v-4.8h-11.7v38.3h12.2V36.8c0-5,2.8-7.3,6.2-7.3c3.8,0,6,2.5,6,7.1v20.8
		h12.2V32.3C378.9,23.4,372.9,18.1,365.3,18.1 M329.3,0c-4.1,0-7.3,3.2-7.3,7.3c0,4.1,3.2,7.3,7.3,7.3c4.1,0,7.3-3.2,7.3-7.3
		C336.6,3.2,333.4,0,329.3,0 M335.5,19.1h-12.2v38.3h12.2V19.1z M279.2,29.2c4.6,0,7.8,3.5,7.8,8.2s-3.2,8.2-7.8,8.2
		c-4.8,0-8-3.5-8-8.2C271.1,32.7,274.4,29.2,279.2,29.2 M276.3,18.1c-10.3,0-17.7,8.5-17.7,19.3s7.5,19.3,17.7,19.3
		c4.9,0,8.3-2,10.5-4.8v2.4c0,6.1-4.7,8.8-9.6,8.8c-4.5,0-8.5-1.2-12.3-3.9l-4.3,9.7c4.6,3.2,11.1,4.9,17.5,4.9
		c12.5,0,20.7-7.5,20.7-20V19.1H287v4C284.7,20.1,281.3,18.1,276.3,18.1 M240.4,18.1c-5.1,0-9,1.8-11.4,5.8v-4.8h-11.7v38.3h12.2
		V36.8c0-5,2.8-7.3,6.2-7.3c3.8,0,6,2.5,6,7.1v20.8H254V32.3C254,23.4,248.1,18.1,240.4,18.1 M204.5,0c-4.1,0-7.3,3.2-7.3,7.3
		c0,4.1,3.2,7.3,7.3,7.3c4.1,0,7.3-3.2,7.3-7.3C211.8,3.2,208.6,0,204.5,0 M210.6,19.1h-12.2v38.3h12.2V19.1z M169.3,1.2h-12.2v56.2
		h12.2V42.6h2.6l9.4,14.8h14.7l-14.2-20.2l14.2-18.1h-14.8l-9,12.7h-2.9V1.2z M149.9,18.1c-4.7,0-8.2,1.8-10.5,5.5v-4.4h-11.7v38.3
		h12.2V36.7c0-4.8,2.7-6.9,7-6.9c2.2,0,4.5,0.5,6.1,1l1.1-12.2C153.2,18.4,151.6,18.1,149.9,18.1 M102.2,29.4c4.8,0,8.3,3.6,8.3,8.8
		S107,47,102.2,47c-4.8,0-8.3-3.6-8.3-8.8S97.5,29.4,102.2,29.4 M102.2,18.1c-11.9,0-20.7,8.6-20.7,20.2s8.8,20.2,20.7,20.2
		c12,0,20.8-8.6,20.8-20.2S114.2,18.1,102.2,18.1 M83.5,2.8H70.2L59.8,42L48.9,2.8H34.8L23.9,41.9L13.5,2.8H0l15.9,54.6h15.5
		l10.3-35.2L52,57.4h15.5L83.5,2.8z"/>
</g>
</svg>
