<!-- Generator: Adobe Illustrator 19.2.1, SVG Export Plug-In  -->
<svg version="1.1"
	 xmlns="http://www.w3.org/2000/svg" xmlns:xlink="http://www.w3.org/1999/xlink" xmlns:a="http://ns.adobe.com/AdobeSVGViewerExtensions/3.0/"
	 x="0px" y="0px" width="46.4px" height="44.3px" viewBox="0 0 46.4 44.3" style="enable-background:new 0 0 46.4 44.3;"
	 xml:space="preserve">
<style type="text/css">
	.st0{clip-path:url(#SVGID_2_);fill:#2B5972;}
	.st1{clip-path:url(#SVGID_4_);fill:#2B5972;}
</style>
<defs>
</defs>
<g>
	<defs>
		<rect id="SVGID_1_" x="0" y="0" width="46.4" height="44.3"/>
	</defs>
	<clipPath id="SVGID_2_">
		<use xlink:href="#SVGID_1_"  style="overflow:visible;"/>
	</clipPath>
	<path class="st0" d="M46.4,17.2c0-0.8-0.9-1.2-1.6-1.3l-14-2L24.6,1.1C24.3,0.6,23.9,0,23.2,0c-0.6,0-1.1,0.6-1.4,1.1l-6.3,12.7
		l-14,2C0.9,16,0,16.3,0,17.2c0,0.5,0.4,1,0.7,1.3l10.2,9.9L8.5,42.3c0,0.2-0.1,0.4-0.1,0.6c0,0.7,0.4,1.4,1.2,1.4
		c0.4,0,0.8-0.1,1.1-0.3l12.5-6.6l12.5,6.6c0.3,0.2,0.7,0.3,1.1,0.3c0.8,0,1.1-0.7,1.1-1.4c0-0.2,0-0.4,0-0.6l-2.4-13.9l10.1-9.9
		C46.1,18.1,46.4,17.7,46.4,17.2"/>
</g>
</svg>
