<!-- Generator: Adobe Illustrator 19.2.1, SVG Export Plug-In  -->
<svg version="1.1"
	 xmlns="http://www.w3.org/2000/svg" xmlns:xlink="http://www.w3.org/1999/xlink" xmlns:a="http://ns.adobe.com/AdobeSVGViewerExtensions/3.0/"
	 x="0px" y="0px" width="643.2px" height="549.8px" viewBox="0 0 643.2 549.8" style="enable-background:new 0 0 643.2 549.8;"
	 xml:space="preserve">
<style type="text/css">
	.st0{fill:none;stroke:#FFFFFF;stroke-miterlimit:10;}
	.st1{fill:#FFFFFF;}
</style>
<defs>
</defs>
<line class="st0" x1="0" y1="211.5" x2="643.2" y2="211.5"/>
<line class="st0" x1="0" y1="319.7" x2="643.2" y2="319.7"/>
<line class="st0" x1="0" y1="549.3" x2="643.2" y2="549.3"/>
<g>
	<path class="st1" d="M12.7,16.8H29V2h9.2v38.7H29V25.4H12.7v15.2H3.5V2h9.2V16.8z"/>
	<path class="st1" d="M72,27.1c0,8.2-6.2,14.3-14.7,14.3c-8.5,0-14.7-6.1-14.7-14.3s6.2-14.3,14.7-14.3C65.7,12.8,72,18.9,72,27.1z
		 M51.4,27.1c0,3.6,2.5,6.2,5.9,6.2c3.4,0,5.9-2.6,5.9-6.2s-2.5-6.2-5.9-6.2C53.9,20.9,51.4,23.4,51.4,27.1z"/>
	<path class="st1" d="M105.9,30.8l5.3-17.3h9.1l-9.3,27.1h-9.6L96,24.4l-5.2,16.2h-9.6l-9.4-27.1H81l5.2,17.2l5.5-17.2h8.6
		L105.9,30.8z"/>
	<path class="st1" d="M166.7,30.8l5.3-17.3h9.1l-9.3,27.1h-9.6l-5.3-16.2l-5.2,16.2H142l-9.4-27.1h9.2l5.2,17.2l5.5-17.2h8.6
		L166.7,30.8z"/>
	<path class="st1" d="M208.4,27.1c0,0.9-0.1,2.1-0.2,2.7h-18.4c0.7,3,2.8,4.3,5.8,4.3c2,0,4.2-0.8,5.9-2.4l5.6,5.2
		c-2.8,2.8-6.9,4.4-11.9,4.4c-8.5,0-14.3-5.7-14.3-14.1c0-8.5,5.7-14.4,13.9-14.4C202.9,12.8,208.4,18.6,208.4,27.1z M189.9,24.3
		h9.9c-0.7-2.7-2.4-4.1-4.9-4.1C192.2,20.1,190.6,21.6,189.9,24.3z"/>
	<path class="st1" d="M222.3,0.9l-4.4,18h-7.2l2.2-18H222.3z"/>
	<path class="st1" d="M243.3,13.2l-0.8,8.6c-1.2-0.4-2.8-0.7-4.3-0.7c-3.1,0-4.9,1.5-4.9,4.9v14.6h-8.6V13.5h8.3v3.1
		c1.6-2.6,4.1-3.9,7.4-3.9C241.5,12.8,242.6,13,243.3,13.2z"/>
	<path class="st1" d="M271.7,27.1c0,0.9-0.1,2.1-0.2,2.7h-18.4c0.7,3,2.8,4.3,5.8,4.3c2,0,4.2-0.8,5.9-2.4l5.6,5.2
		c-2.8,2.8-6.9,4.4-11.9,4.4c-8.5,0-14.3-5.7-14.3-14.1c0-8.5,5.7-14.4,13.9-14.4C266.2,12.8,271.7,18.6,271.7,27.1z M253.2,24.3
		h9.9c-0.7-2.7-2.4-4.1-4.9-4.1C255.5,20.1,253.9,21.6,253.2,24.3z"/>
	<path class="st1" d="M306.3,16.4v-2.8h8.4V38c0,8.9-5.8,14.2-14.7,14.2c-4.5,0-9.1-1.2-12.4-3.5l3.1-6.9c2.7,1.9,5.5,2.8,8.7,2.8
		c3.5,0,6.8-1.9,6.8-6.2v-1.7c-1.6,2-4,3.4-7.5,3.4c-7.3,0-12.6-6-12.6-13.7s5.3-13.7,12.6-13.7C302.3,12.8,304.7,14.3,306.3,16.4z
		 M295.1,26.5c0,3.3,2.3,5.8,5.7,5.8c3.3,0,5.5-2.5,5.5-5.8s-2.3-5.8-5.5-5.8C297.4,20.7,295.1,23.2,295.1,26.5z"/>
	<path class="st1" d="M347.7,27.1c0,8.2-6.2,14.3-14.7,14.3c-8.5,0-14.7-6.1-14.7-14.3s6.2-14.3,14.7-14.3
		C341.4,12.8,347.7,18.9,347.7,27.1z M327.1,27.1c0,3.6,2.5,6.2,5.9,6.2c3.4,0,5.9-2.6,5.9-6.2s-2.5-6.2-5.9-6.2
		C329.6,20.9,327.1,23.4,327.1,27.1z"/>
	<path class="st1" d="M360.6,5.2c0,2.9-2.3,5.1-5.2,5.1c-2.9,0-5.2-2.2-5.2-5.1c0-2.9,2.2-5.2,5.2-5.2C358.3,0,360.6,2.3,360.6,5.2z
		 M359.8,40.6h-8.6V13.5h8.6V40.6z"/>
	<path class="st1" d="M390.8,22.8v17.8h-8.6V25.9c0-3.2-1.6-5-4.3-5c-2.4,0-4.4,1.6-4.4,5.1v14.6h-8.6V13.5h8.3v3.4
		c1.7-2.8,4.4-4.1,8.1-4.1C386.6,12.8,390.8,16.6,390.8,22.8z"/>
	<path class="st1" d="M414.4,16.4v-2.8h8.4V38c0,8.9-5.8,14.2-14.7,14.2c-4.5,0-9.1-1.2-12.4-3.5l3.1-6.9c2.7,1.9,5.5,2.8,8.7,2.8
		c3.5,0,6.8-1.9,6.8-6.2v-1.7c-1.6,2-4,3.4-7.5,3.4c-7.3,0-12.6-6-12.6-13.7s5.3-13.7,12.6-13.7C410.3,12.8,412.8,14.3,414.4,16.4z
		 M403.1,26.5c0,3.3,2.3,5.8,5.7,5.8c3.3,0,5.5-2.5,5.5-5.8s-2.3-5.8-5.5-5.8C405.5,20.7,403.1,23.2,403.1,26.5z"/>
	<path class="st1" d="M460.9,21.2h-9.3v7.9c0,3.1,1.7,4.2,3.8,4.2c1.6,0,3.3-0.9,4.7-1.7l3,6.7c-2.5,1.8-5.2,3-9.6,3
		c-7.3,0-10.5-4.3-10.5-11.1v-9h-5.1v-7.7h5.1V5.6h8.6v7.9h9.3V21.2z"/>
	<path class="st1" d="M493.1,27.1c0,8.2-6.2,14.3-14.7,14.3c-8.5,0-14.7-6.1-14.7-14.3s6.2-14.3,14.7-14.3
		C486.9,12.8,493.1,18.9,493.1,27.1z M472.5,27.1c0,3.6,2.5,6.2,5.9,6.2c3.4,0,5.9-2.6,5.9-6.2s-2.5-6.2-5.9-6.2
		C475,20.9,472.5,23.4,472.5,27.1z"/>
	<path class="st1" d="M527.7,16.1V0.9h8.6v39.8H528v-2.9c-1.6,2.1-4.1,3.6-7.8,3.6c-7.2,0-12.6-6.3-12.6-14.3
		c0-8,5.4-14.3,12.6-14.3C523.7,12.8,526.1,14.2,527.7,16.1z M516.5,27.1c0,3.5,2.3,6.2,5.8,6.2c3.4,0,5.8-2.6,5.8-6.2
		s-2.4-6.2-5.8-6.2C518.8,20.9,516.5,23.5,516.5,27.1z"/>
	<path class="st1" d="M569.3,27.1c0,8.2-6.2,14.3-14.7,14.3c-8.5,0-14.7-6.1-14.7-14.3s6.2-14.3,14.7-14.3
		C563.1,12.8,569.3,18.9,569.3,27.1z M548.7,27.1c0,3.6,2.5,6.2,5.9,6.2c3.4,0,5.9-2.6,5.9-6.2s-2.5-6.2-5.9-6.2
		C551.2,20.9,548.7,23.4,548.7,27.1z"/>
	<path class="st1" d="M594.7,5.2c0,2.9-2.3,5.1-5.2,5.1c-2.9,0-5.2-2.2-5.2-5.1c0-2.9,2.2-5.2,5.2-5.2C592.4,0,594.7,2.3,594.7,5.2z
		 M593.9,40.6h-8.6V13.5h8.6V40.6z"/>
	<path class="st1" d="M619.3,21.2h-9.3v7.9c0,3.1,1.7,4.2,3.8,4.2c1.6,0,3.3-0.9,4.7-1.7l3,6.7c-2.5,1.8-5.2,3-9.6,3
		c-7.3,0-10.5-4.3-10.5-11.1v-9h-5.1v-7.7h5.1V5.6h8.6v7.9h9.3V21.2z"/>
</g>
<g>
	<path class="st1" d="M1.9,105.9l0.6-2.8c3.7,0.9,6.1,1.1,8.1,1.1c3.5,0,5.1-1.8,5.1-3.8c0-2.9-3.4-3.6-6-4.3
		c-3.9-1-7.4-3.2-7.4-7.2c0-4.6,3.7-6.4,8.3-6.4c2.6,0,5.1,0.4,8.1,1.2l-0.8,2.8c-3.6-0.9-5.4-1.1-7.3-1.1c-3.5,0-4.8,1.6-4.8,3.5
		c0,2.7,3.5,3.7,6.2,4.3c3.9,0.9,7.2,2.8,7.2,6.9c0,4.8-3.7,7.1-8.7,7.1C7.9,107.1,4.9,106.7,1.9,105.9z"/>
	<path class="st1" d="M23.7,91.4h-2.6v-2.1l2.6-0.2l0.4-4.9h2.8v4.9h4.9v2.3h-4.9v9.7c0,2.3,0.7,3.5,3,3.5c0.5,0,1.1-0.1,1.8-0.2
		l0.3,2.5c-1,0.1-2.3,0.2-3.2,0.2c-3.6,0-5.1-1.5-5.1-5.5V91.4z"/>
	<path class="st1" d="M38.6,106.7h-3.2V89.1h3.2v2.8h0.1c1.4-1.6,3.8-3.2,6.6-3.2v3c-2.6,0-5.3,1.1-6.7,2V106.7z"/>
	<path class="st1" d="M51.8,82.7v4.4h-3.2v-4.4H51.8z M51.8,89.1v17.7h-3.2V89.1H51.8z"/>
	<path class="st1" d="M61.6,106.9l-6.5-17.8h3.6l4.9,14.3h0.1l5-14.3H72l-6.6,17.8H61.6z"/>
	<path class="st1" d="M77.6,98.4c0.1,3.5,1.7,6,5.8,6c1.7,0,3.5-0.1,5.5-0.7l0.4,2.6c-2.2,0.6-4.1,0.8-6.4,0.8
		c-6.5,0-8.8-3.7-8.8-9.2c0-5.5,2.3-9.2,8.7-9.2c5.4,0,6.9,3.1,7.1,6.1c0.1,1.1,0,2.4-0.2,3.6H77.6z M77.6,96.4h9
		c0.1-0.6,0.2-1.3,0.1-1.9c-0.1-1.8-1.2-3.4-4-3.4C79.1,91.2,77.8,93.5,77.6,96.4z"/>
	<path class="st1" d="M101.7,91.4H99v-2.1l2.6-0.2l0.4-4.9h2.8v4.9h4.9v2.3h-4.9v9.7c0,2.3,0.7,3.5,3,3.5c0.5,0,1.1-0.1,1.8-0.2
		l0.3,2.5c-1,0.1-2.3,0.2-3.2,0.2c-3.6,0-5.1-1.5-5.1-5.5V91.4z"/>
	<path class="st1" d="M112.4,97.9c0-5.5,2.2-9.2,8.1-9.2c5.9,0,8.1,3.7,8.1,9.2c0,5.5-2.2,9.2-8.1,9.2
		C114.6,107.1,112.4,103.4,112.4,97.9z M115.8,97.9c0,3.7,1.1,6.5,4.8,6.5c3.7,0,4.8-2.8,4.8-6.5s-1.1-6.5-4.8-6.5
		C116.9,91.4,115.8,94.2,115.8,97.9z"/>
	<path class="st1" d="M142.4,106.7h-3.2V89.1h3.2v2.5h0.1c1.4-1.5,3.3-2.8,5.8-2.8c2.5,0,4.1,1.1,4.8,3.1c1.7-1.8,3.8-3.1,6.3-3.1
		c3.5,0,5.3,2.1,5.3,5.8v12.2h-3.2V95.3c0-2.3-1-3.9-3.5-3.9c-1.8,0-3.4,1.2-4.5,2.1c0.1,0.6,0.1,1.2,0.1,1.9v11.3h-3.2V95.2
		c-0.1-2.2-1-3.8-3.5-3.8c-1.9,0-3.4,1.2-4.4,2V106.7z"/>
	<path class="st1" d="M169.7,92.1l-0.5-2.6c2.4-0.5,4.9-0.7,6.8-0.7c4.2,0,6.5,1.2,6.5,5.8v12.2h-3.2V105c0,0,0,0-0.1,0
		c-1.7,1.5-3.3,2.1-5.6,2.1c-3.5,0-5.6-2.1-5.6-5.2c0-4,3.2-5.4,7.4-5.4h3.9v-1.8c0-2.3-1.2-3.4-4.1-3.4
		C174,91.4,172.3,91.5,169.7,92.1z M179.4,98.4h-3.7c-3.3,0-4.4,1.2-4.4,3.2c0,1.9,1.4,3,3.7,3c2,0,3.6-0.8,4.4-1.5V98.4z"/>
	<path class="st1" d="M190,96.3l8.5-7.2h3.9l-6.7,6.1l7.1,11.5h-3.8l-5.5-9.7l-3.4,2.9v6.9h-3.2V82h3.2V96.3z"/>
	<path class="st1" d="M207.8,98.4c0.1,3.5,1.7,6,5.8,6c1.7,0,3.5-0.1,5.5-0.7l0.4,2.6c-2.2,0.6-4.1,0.8-6.4,0.8
		c-6.5,0-8.8-3.7-8.8-9.2c0-5.5,2.3-9.2,8.7-9.2c5.4,0,6.9,3.1,7.1,6.1c0.1,1.1,0,2.4-0.2,3.6H207.8z M207.8,96.4h9
		c0.1-0.6,0.2-1.3,0.1-1.9c-0.1-1.8-1.2-3.4-4-3.4C209.3,91.2,208.1,93.5,207.8,96.4z"/>
	<path class="st1" d="M233.5,98.4c0.1,3.5,1.7,6,5.8,6c1.7,0,3.5-0.1,5.5-0.7l0.4,2.6c-2.2,0.6-4.1,0.8-6.4,0.8
		c-6.5,0-8.8-3.7-8.8-9.2c0-5.5,2.3-9.2,8.7-9.2c5.4,0,6.9,3.1,7.1,6.1c0.1,1.1,0,2.4-0.2,3.6H233.5z M233.5,96.4h9
		c0.1-0.6,0.2-1.3,0.1-1.9c-0.1-1.8-1.2-3.4-4-3.4C235.1,91.2,233.8,93.5,233.5,96.4z"/>
	<path class="st1" d="M254,91.4v15.4h-3.2V91.4h-2.6v-2.1l2.6-0.2v-1.6c0-4,1.5-5.5,5.1-5.5c0.8,0,1.9,0.1,2.8,0.3l-0.3,2.5
		c-0.7-0.1-1.3-0.2-1.8-0.2c-2.1,0-2.6,1.2-2.6,3.5v1h7.2v-1c0-4,1.9-6,6.7-6c1.4,0,4.4,0.4,6.2,1.2l-0.4,2.3
		c-1.8-0.7-4.1-0.9-5.5-0.9c-3.2,0-3.9,1.4-3.9,3.5v1h10.4v17.7h-3.2V91.4h-7.2v15.4h-3.2V91.4H254z"/>
	<path class="st1" d="M287.3,88.7c2.2,0,3.9,0.3,6,0.8l-0.6,2.5c-2.8-0.7-4.2-0.7-5.4-0.7c-3.7,0-5.3,2.6-5.3,6.5s1.6,6.5,5.3,6.5
		c1.2,0,2.6,0,5.4-0.7l0.6,2.6c-2.1,0.5-3.8,0.8-6,0.8c-6.5,0-8.7-3.7-8.7-9.2C278.7,92.4,280.9,88.7,287.3,88.7z"/>
	<path class="st1" d="M299.5,82.7v4.4h-3.2v-4.4H299.5z M299.5,89.1v17.7h-3.2V89.1H299.5z"/>
	<path class="st1" d="M306.7,98.4c0.1,3.5,1.7,6,5.8,6c1.7,0,3.5-0.1,5.5-0.7l0.4,2.6c-2.2,0.6-4.1,0.8-6.4,0.8
		c-6.5,0-8.8-3.7-8.8-9.2c0-5.5,2.3-9.2,8.7-9.2c5.4,0,6.9,3.1,7.1,6.1c0.1,1.1,0,2.4-0.2,3.6H306.7z M306.7,96.4h9
		c0.1-0.6,0.2-1.3,0.1-1.9c-0.1-1.8-1.2-3.4-4-3.4C308.3,91.2,307,93.5,306.7,96.4z"/>
	<path class="st1" d="M325.9,106.7h-3.2V89.1h3.2v2.5h0.1c1.7-1.7,3.8-2.8,6.3-2.8c3.5,0,5.3,2.1,5.3,5.8v12.2h-3.2V95.3
		c0-2.3-0.9-3.9-3.5-3.9c-2,0-3.9,1.2-4.9,2V106.7z"/>
	<path class="st1" d="M349.9,88.7c2.2,0,3.9,0.3,6,0.8l-0.6,2.5c-2.8-0.7-4.2-0.7-5.4-0.7c-3.7,0-5.3,2.6-5.3,6.5s1.6,6.5,5.3,6.5
		c1.2,0,2.6,0,5.4-0.7l0.6,2.6c-2.1,0.5-3.8,0.8-6,0.8c-6.5,0-8.7-3.7-8.7-9.2C341.3,92.4,343.5,88.7,349.9,88.7z"/>
	<path class="st1" d="M358.6,89.1h3.6l5.1,14.4h0.1l4.8-14.4h3.4l-6.6,18.7c-1.6,4.6-3.7,6.4-7.1,6.4c-0.8,0-1.9-0.1-2.6-0.2
		l0.3-2.6c0.6,0.1,1.2,0.2,1.7,0.2c2.3,0,3.6-2.3,4.4-4.3L358.6,89.1z"/>
	<path class="st1" d="M393,107.1c-2.8,0-5.5-0.2-7.6-0.8l0.6-2.6c2.8,0.7,5.4,0.8,6.7,0.8c3.2,0,3.7-1.9,3.7-2.6c0-1.2-0.8-2-4-2.6
		c-3.7-0.7-6.6-1.9-6.6-5.6c0-3.4,2.4-4.9,6.5-4.9c2.7,0,4.9,0.3,7.1,0.8l-0.6,2.5c-2.8-0.7-5-0.8-6.3-0.8c-3.2,0-3.5,1.7-3.5,2.3
		c0,1.1,0.6,2,3.8,2.7c3.7,0.8,6.8,1.8,6.8,5.4C399.6,105.3,397.2,107.1,393,107.1z"/>
	<path class="st1" d="M404.3,92.1l-0.5-2.6c2.4-0.5,4.9-0.7,6.8-0.7c4.2,0,6.5,1.2,6.5,5.8v12.2H414V105c0,0,0,0-0.1,0
		c-1.7,1.5-3.3,2.1-5.6,2.1c-3.5,0-5.6-2.1-5.6-5.2c0-4,3.2-5.4,7.4-5.4h3.9v-1.8c0-2.3-1.2-3.4-4.1-3.4
		C408.6,91.4,406.9,91.5,404.3,92.1z M414,98.4h-3.7c-3.3,0-4.4,1.2-4.4,3.2c0,1.9,1.4,3,3.7,3c2,0,3.6-0.8,4.4-1.5V98.4z"/>
	<path class="st1" d="M426.5,106.9l-6.5-17.8h3.6l4.9,14.3h0.1l5-14.3h3.4l-6.6,17.8H426.5z"/>
	<path class="st1" d="M443.4,82.7v4.4h-3.2v-4.4H443.4z M443.4,89.1v17.7h-3.2V89.1H443.4z"/>
	<path class="st1" d="M450.9,106.7h-3.2V89.1h3.2v2.5h0.1c1.7-1.7,3.8-2.8,6.3-2.8c3.5,0,5.3,2.1,5.3,5.8v12.2h-3.2V95.3
		c0-2.3-0.9-3.9-3.5-3.9c-2,0-3.9,1.2-4.9,2V106.7z"/>
	<path class="st1" d="M468.5,105.6c-1-0.5-1.4-1.4-1.3-2.4c0-1.2,0.8-2.5,2.3-3.4v-0.1c-1.8-0.9-2.9-2.6-2.9-4.9c0-3.9,2.8-6,7.2-6
		c1,0,1.8,0.2,2.4,0.4h6.2V91H479c1.4,1,1.7,2.5,1.7,3.7c0,4-3,5.8-7,5.8c-1,0-2-0.2-2.6-0.4c-0.3,0.3-0.5,0.7-0.7,1
		c-0.5,1.1-0.4,2.3,1,2.3l6.4,0.4c3.6,0.2,5.2,1.7,5.2,4.1c0,4.1-3.2,6.2-10.2,6.2c-4.8,0-7.2-1.4-7.2-4.6
		C465.4,108,466.4,106.7,468.5,105.6L468.5,105.6z M473.3,112c3.4,0,6.3-1.1,6.3-3.5c0-1.1-0.7-2-2.9-2.1l-6.5-0.4
		c-1.1,0.8-2,1.5-2,2.9C468.1,111,469.9,112,473.3,112z M477.8,94.7c0-2.4-1.6-3.9-4.1-3.9c-2.8,0-4.2,1.5-4.2,3.9
		c0,2.4,1.6,3.7,4.2,3.7C476.2,98.4,477.8,97.1,477.8,94.7z"/>
	<path class="st1" d="M493.3,107.1c-2.8,0-5.5-0.2-7.6-0.8l0.6-2.6c2.8,0.7,5.4,0.8,6.7,0.8c3.2,0,3.7-1.9,3.7-2.6
		c0-1.2-0.8-2-4-2.6c-3.7-0.7-6.6-1.9-6.6-5.6c0-3.4,2.4-4.9,6.5-4.9c2.7,0,4.9,0.3,7.1,0.8l-0.6,2.5c-2.8-0.7-5-0.8-6.3-0.8
		c-3.2,0-3.5,1.7-3.5,2.3c0,1.1,0.6,2,3.8,2.7c3.7,0.8,6.8,1.8,6.8,5.4C499.9,105.3,497.5,107.1,493.3,107.1z"/>
</g>
<g>
	<path class="st1" d="M12.2,129.5c2.7,0,5.3,0.4,8.3,1.2l-0.8,2.8c-3.6-0.9-5.3-1.1-7.3-1.1c-5.5,0-7,4.1-7,9.2c0,5.5,1.4,9.5,7,9.5
		c1.9,0,3.6-0.2,7.3-1.1l0.8,2.8c-3,0.9-5.6,1.2-8.3,1.2c-8.2,0-10.2-5.6-10.2-12.5C1.9,135,4,129.5,12.2,129.5z"/>
	<path class="st1" d="M23.1,145c0-5.5,2.2-9.2,8.1-9.2c5.9,0,8.1,3.7,8.1,9.2c0,5.5-2.2,9.2-8.1,9.2C25.3,154.2,23.1,150.5,23.1,145
		z M26.4,145c0,3.7,1.1,6.5,4.8,6.5c3.7,0,4.8-2.8,4.8-6.5s-1.1-6.5-4.8-6.5C27.5,138.5,26.4,141.3,26.4,145z"/>
	<path class="st1" d="M46.3,153.9h-3.2v-17.7h3.2v2.5h0.1c1.7-1.7,3.8-2.8,6.3-2.8c3.5,0,5.3,2.1,5.3,5.8v12.2h-3.2v-11.5
		c0-2.3-0.9-3.9-3.5-3.9c-2,0-3.9,1.2-4.9,2V153.9z"/>
	<path class="st1" d="M63.4,138.5h-2.6v-2.1l2.6-0.2l0.4-4.9h2.8v4.9h4.9v2.3h-4.9v9.7c0,2.3,0.7,3.5,3,3.5c0.5,0,1.1-0.1,1.8-0.2
		l0.3,2.5c-1,0.1-2.3,0.2-3.2,0.2c-3.6,0-5.1-1.5-5.1-5.5V138.5z"/>
	<path class="st1" d="M78.3,129.9v4.4h-3.2v-4.4H78.3z M78.3,136.2v17.7h-3.2v-17.7H78.3z"/>
	<path class="st1" d="M85.8,153.9h-3.2v-17.7h3.2v2.5h0.1c1.7-1.7,3.8-2.8,6.3-2.8c3.5,0,5.3,2.1,5.3,5.8v12.2h-3.2v-11.5
		c0-2.3-0.9-3.9-3.5-3.9c-2,0-3.9,1.2-4.9,2V153.9z"/>
	<path class="st1" d="M113.4,136.2h3.2v17.7h-3.2v-2.5h-0.1c-1.7,1.7-3.8,2.8-6.3,2.8c-3.5,0-5.3-2.1-5.3-5.8v-12.2h3.2v11.5
		c0,2.3,1,3.9,3.5,3.9c2,0,3.9-1.2,4.9-2V136.2z"/>
	<path class="st1" d="M123.8,145.6c0.1,3.5,1.7,6,5.8,6c1.7,0,3.5-0.1,5.5-0.7l0.4,2.6c-2.2,0.6-4.1,0.8-6.4,0.8
		c-6.5,0-8.8-3.7-8.8-9.2c0-5.5,2.3-9.2,8.7-9.2c5.4,0,6.9,3.1,7.1,6.1c0.1,1.1,0,2.4-0.2,3.6H123.8z M123.8,143.6h9
		c0.1-0.6,0.2-1.3,0.1-1.9c-0.1-1.8-1.2-3.4-4-3.4C125.3,138.3,124,140.6,123.8,143.6z"/>
	<path class="st1" d="M147.9,138.5h-2.6v-2.1l2.6-0.2l0.4-4.9h2.8v4.9h4.9v2.3H151v9.7c0,2.3,0.7,3.5,3,3.5c0.5,0,1.1-0.1,1.8-0.2
		l0.3,2.5c-1,0.1-2.3,0.2-3.2,0.2c-3.6,0-5.1-1.5-5.1-5.5V138.5z"/>
	<path class="st1" d="M158.6,145c0-5.5,2.2-9.2,8.1-9.2c5.9,0,8.1,3.7,8.1,9.2c0,5.5-2.2,9.2-8.1,9.2
		C160.8,154.2,158.6,150.5,158.6,145z M162,145c0,3.7,1.1,6.5,4.8,6.5c3.7,0,4.8-2.8,4.8-6.5s-1.1-6.5-4.8-6.5
		C163,138.5,162,141.3,162,145z"/>
	<path class="st1" d="M188.6,138L188.6,138c1.3-1.2,3.4-2.1,5.5-2.1c4.9,0,6.5,4.1,6.5,9.2s-1.8,9.2-6.7,9.2c-2,0-4-0.8-5.2-2h-0.1
		v8.7h-3.2v-24.7h3.2V138z M192.9,138.5c-1.9,0-3.5,0.9-4.2,1.5v10.1c0.7,0.6,2.3,1.5,4.2,1.5c3.4,0,4.4-3,4.4-6.5
		S196.3,138.5,192.9,138.5z"/>
	<path class="st1" d="M207.7,153.9h-3.2v-17.7h3.2v2.8h0.1c1.4-1.6,3.8-3.2,6.6-3.2v3c-2.6,0-5.3,1.1-6.7,2V153.9z"/>
	<path class="st1" d="M216.9,145c0-5.5,2.2-9.2,8.1-9.2c5.9,0,8.1,3.7,8.1,9.2c0,5.5-2.2,9.2-8.1,9.2
		C219.1,154.2,216.9,150.5,216.9,145z M220.2,145c0,3.7,1.1,6.5,4.8,6.5c3.7,0,4.8-2.8,4.8-6.5s-1.1-6.5-4.8-6.5
		C221.3,138.5,220.2,141.3,220.2,145z"/>
	<path class="st1" d="M241.8,154.1l-6.5-17.8h3.6l4.9,14.3h0.1l5-14.3h3.4l-6.6,17.8H241.8z"/>
	<path class="st1" d="M258.8,129.9v4.4h-3.2v-4.4H258.8z M258.8,136.2v17.7h-3.2v-17.7H258.8z"/>
	<path class="st1" d="M274.6,152.1C274.6,152.1,274.6,152.1,274.6,152.1c-1.3,1.2-3.4,2.1-5.5,2.1c-4.9,0-6.5-4.1-6.5-9.2
		s1.8-9.2,6.7-9.2c2,0,4,0.8,5.2,2c0,0,0,0,0.1,0v-8.8h3.2v24.7h-3.2V152.1z M270.4,151.6c1.9,0,3.5-0.9,4.2-1.5V140
		c-0.7-0.6-2.3-1.5-4.2-1.5c-3.5,0-4.4,3-4.4,6.5S266.9,151.6,270.4,151.6z"/>
	<path class="st1" d="M285,145.6c0.1,3.5,1.7,6,5.8,6c1.7,0,3.5-0.1,5.5-0.7l0.4,2.6c-2.2,0.6-4.1,0.8-6.4,0.8
		c-6.5,0-8.8-3.7-8.8-9.2c0-5.5,2.3-9.2,8.7-9.2c5.4,0,6.9,3.1,7.1,6.1c0.1,1.1,0,2.4-0.2,3.6H285z M285,143.6h9
		c0.1-0.6,0.2-1.3,0.1-1.9c-0.1-1.8-1.2-3.4-4-3.4C286.5,138.3,285.3,140.6,285,143.6z"/>
	<path class="st1" d="M307.3,145c0-5.5,2.2-9.2,8.1-9.2c5.9,0,8.1,3.7,8.1,9.2c0,5.5-2.2,9.2-8.1,9.2
		C309.5,154.2,307.3,150.5,307.3,145z M310.7,145c0,3.7,1.1,6.5,4.8,6.5c3.7,0,4.8-2.8,4.8-6.5s-1.1-6.5-4.8-6.5
		C311.8,138.5,310.7,141.3,310.7,145z"/>
	<path class="st1" d="M330.6,138L330.6,138c1.3-1.2,3.4-2.1,5.5-2.1c4.9,0,6.5,4.1,6.5,9.2s-1.8,9.2-6.7,9.2c-2,0-4-0.8-5.2-2h-0.1
		v8.7h-3.2v-24.7h3.2V138z M334.8,138.5c-1.9,0-3.5,0.9-4.2,1.5v10.1c0.7,0.6,2.3,1.5,4.2,1.5c3.4,0,4.4-3,4.4-6.5
		S338.2,138.5,334.8,138.5z"/>
	<path class="st1" d="M349.3,145.6c0.1,3.5,1.7,6,5.8,6c1.7,0,3.5-0.1,5.5-0.7l0.4,2.6c-2.2,0.6-4.1,0.8-6.4,0.8
		c-6.5,0-8.8-3.7-8.8-9.2c0-5.5,2.3-9.2,8.7-9.2c5.4,0,6.9,3.1,7.1,6.1c0.1,1.1,0,2.4-0.2,3.6H349.3z M349.3,143.6h9
		c0.1-0.6,0.2-1.3,0.1-1.9c-0.1-1.8-1.2-3.4-4-3.4C350.8,138.3,349.6,140.6,349.3,143.6z"/>
	<path class="st1" d="M368.5,153.9h-3.2v-17.7h3.2v2.5h0.1c1.7-1.7,3.8-2.8,6.3-2.8c3.5,0,5.3,2.1,5.3,5.8v12.2h-3.2v-11.5
		c0-2.3-0.9-3.9-3.5-3.9c-2,0-3.9,1.2-4.9,2V153.9z"/>
	<path class="st1" d="M392.1,139.2l-0.5-2.6c2.4-0.5,4.9-0.7,6.8-0.7c4.2,0,6.5,1.2,6.5,5.8v12.2h-3.2v-1.8c0,0,0,0-0.1,0
		c-1.7,1.5-3.3,2.1-5.6,2.1c-3.5,0-5.6-2.1-5.6-5.2c0-4,3.2-5.4,7.4-5.4h3.9v-1.8c0-2.3-1.2-3.4-4.1-3.4
		C396.4,138.5,394.8,138.7,392.1,139.2z M401.8,145.6h-3.7c-3.3,0-4.4,1.2-4.4,3.2c0,1.9,1.4,3,3.7,3c2,0,3.6-0.8,4.4-1.5V145.6z"/>
	<path class="st1" d="M412.5,153.9h-3.2v-17.7h3.2v2.5h0.1c1.7-1.7,3.8-2.8,6.3-2.8c3.5,0,5.3,2.1,5.3,5.8v12.2H421v-11.5
		c0-2.3-0.9-3.9-3.5-3.9c-2,0-3.9,1.2-4.9,2V153.9z"/>
	<path class="st1" d="M440,152.1C439.9,152.1,439.9,152.1,440,152.1c-1.3,1.2-3.4,2.1-5.5,2.1c-4.9,0-6.5-4.1-6.5-9.2
		s1.8-9.2,6.7-9.2c2,0,4,0.8,5.2,2c0,0,0,0,0.1,0v-8.8h3.2v24.7H440V152.1z M435.7,151.6c1.9,0,3.5-0.9,4.2-1.5V140
		c-0.7-0.6-2.3-1.5-4.2-1.5c-3.5,0-4.4,3-4.4,6.5S432.3,151.6,435.7,151.6z"/>
	<path class="st1" d="M455.5,138.5h-2.6v-2.1l2.6-0.2l0.4-4.9h2.8v4.9h4.9v2.3h-4.9v9.7c0,2.3,0.7,3.5,3,3.5c0.5,0,1.1-0.1,1.8-0.2
		l0.3,2.5c-1,0.1-2.3,0.2-3.2,0.2c-3.6,0-5.1-1.5-5.1-5.5V138.5z"/>
	<path class="st1" d="M470.4,153.9h-3.2v-17.7h3.2v2.8h0.1c1.4-1.6,3.8-3.2,6.6-3.2v3c-2.6,0-5.3,1.1-6.7,2V153.9z"/>
	<path class="st1" d="M481.1,139.2l-0.5-2.6c2.4-0.5,4.9-0.7,6.8-0.7c4.2,0,6.5,1.2,6.5,5.8v12.2h-3.2v-1.8c0,0,0,0-0.1,0
		c-1.7,1.5-3.3,2.1-5.6,2.1c-3.5,0-5.6-2.1-5.6-5.2c0-4,3.2-5.4,7.4-5.4h3.9v-1.8c0-2.3-1.2-3.4-4.1-3.4
		C485.4,138.5,483.8,138.7,481.1,139.2z M490.8,145.6h-3.7c-3.3,0-4.4,1.2-4.4,3.2c0,1.9,1.4,3,3.7,3c2,0,3.6-0.8,4.4-1.5V145.6z"/>
	<path class="st1" d="M501.5,153.9h-3.2v-17.7h3.2v2.5h0.1c1.7-1.7,3.8-2.8,6.3-2.8c3.5,0,5.3,2.1,5.3,5.8v12.2H510v-11.5
		c0-2.3-0.9-3.9-3.5-3.9c-2,0-3.9,1.2-4.9,2V153.9z"/>
	<path class="st1" d="M524.1,154.2c-2.8,0-5.5-0.2-7.6-0.8l0.6-2.6c2.8,0.7,5.4,0.8,6.7,0.8c3.2,0,3.7-1.9,3.7-2.6
		c0-1.2-0.8-2-4-2.6c-3.7-0.7-6.6-1.9-6.6-5.6c0-3.4,2.4-4.9,6.5-4.9c2.7,0,4.9,0.3,7.1,0.8l-0.6,2.5c-2.8-0.7-5-0.8-6.3-0.8
		c-3.2,0-3.5,1.7-3.5,2.3c0,1.1,0.6,2,3.8,2.7c3.7,0.8,6.8,1.8,6.8,5.4C530.6,152.4,528.2,154.2,524.1,154.2z"/>
	<path class="st1" d="M537.2,138L537.2,138c1.3-1.2,3.4-2.1,5.5-2.1c4.9,0,6.5,4.1,6.5,9.2s-1.8,9.2-6.7,9.2c-2,0-4-0.8-5.2-2h-0.1
		v8.7h-3.2v-24.7h3.2V138z M541.5,138.5c-1.9,0-3.5,0.9-4.2,1.5v10.1c0.7,0.6,2.3,1.5,4.2,1.5c3.4,0,4.4-3,4.4-6.5
		S544.9,138.5,541.5,138.5z"/>
	<path class="st1" d="M553.9,139.2l-0.5-2.6c2.4-0.5,4.9-0.7,6.8-0.7c4.2,0,6.5,1.2,6.5,5.8v12.2h-3.2v-1.8c0,0,0,0-0.1,0
		c-1.7,1.5-3.3,2.1-5.6,2.1c-3.5,0-5.6-2.1-5.6-5.2c0-4,3.2-5.4,7.4-5.4h3.9v-1.8c0-2.3-1.2-3.4-4.1-3.4
		C558.2,138.5,556.6,138.7,553.9,139.2z M563.6,145.6h-3.7c-3.3,0-4.4,1.2-4.4,3.2c0,1.9,1.4,3,3.7,3c2,0,3.6-0.8,4.4-1.5V145.6z"/>
	<path class="st1" d="M574.3,153.9h-3.2v-17.7h3.2v2.8h0.1c1.4-1.6,3.8-3.2,6.6-3.2v3c-2.6,0-5.3,1.1-6.7,2V153.9z"/>
	<path class="st1" d="M586.9,145.6c0.1,3.5,1.7,6,5.8,6c1.7,0,3.5-0.1,5.5-0.7l0.4,2.6c-2.2,0.6-4.1,0.8-6.4,0.8
		c-6.5,0-8.8-3.7-8.8-9.2c0-5.5,2.3-9.2,8.7-9.2c5.4,0,6.9,3.1,7.1,6.1c0.1,1.1,0,2.4-0.2,3.6H586.9z M586.9,143.6h9
		c0.1-0.6,0.2-1.3,0.1-1.9c-0.1-1.8-1.2-3.4-4-3.4C588.4,138.3,587.1,140.6,586.9,143.6z"/>
	<path class="st1" d="M606,153.9h-3.2v-17.7h3.2v2.5h0.1c1.7-1.7,3.8-2.8,6.3-2.8c3.5,0,5.3,2.1,5.3,5.8v12.2h-3.2v-11.5
		c0-2.3-0.9-3.9-3.5-3.9c-2,0-3.9,1.2-4.9,2V153.9z"/>
	<path class="st1" d="M623.1,138.5h-2.6v-2.1l2.6-0.2l0.4-4.9h2.8v4.9h4.9v2.3h-4.9v9.7c0,2.3,0.7,3.5,3,3.5c0.5,0,1.1-0.1,1.8-0.2
		l0.3,2.5c-1,0.1-2.3,0.2-3.2,0.2c-3.6,0-5.1-1.5-5.1-5.5V138.5z"/>
</g>
<g>
	<path class="st1" d="M3.4,172.3c0-4,1.9-6,6.7-6c1.4,0,4.4,0.4,6.2,1.2l-0.4,2.3c-1.8-0.7-4.1-0.9-5.5-0.9c-3.2,0-3.9,1.4-3.9,3.5
		v1h10.4V191h-3.2v-15.4H6.5V191H3.4v-15.4H0.7v-2.1l2.6-0.2V172.3z"/>
	<path class="st1" d="M24.4,191h-3.2v-17.7h3.2v2.5h0.1c1.7-1.7,3.8-2.8,6.3-2.8c3.5,0,5.3,2.1,5.3,5.8V191h-3.2v-11.5
		c0-2.3-0.9-3.9-3.5-3.9c-2,0-3.9,1.2-4.9,2V191z"/>
	<path class="st1" d="M41,176.3l-0.5-2.6c2.4-0.5,4.9-0.7,6.8-0.7c4.2,0,6.5,1.2,6.5,5.8V191h-3.2v-1.8c0,0,0,0-0.1,0
		c-1.7,1.5-3.3,2.1-5.6,2.1c-3.5,0-5.6-2.1-5.6-5.2c0-4,3.2-5.4,7.4-5.4h3.9V179c0-2.3-1.2-3.4-4.1-3.4
		C45.3,175.6,43.6,175.8,41,176.3z M50.7,182.7H47c-3.3,0-4.4,1.2-4.4,3.2c0,1.9,1.4,3,3.7,3c2,0,3.6-0.8,4.4-1.5V182.7z"/>
	<path class="st1" d="M61.4,191h-3.2v-17.7h3.2v2.5h0.1c1.7-1.7,3.8-2.8,6.3-2.8c3.5,0,5.3,2.1,5.3,5.8V191h-3.2v-11.5
		c0-2.3-0.9-3.9-3.5-3.9c-2,0-3.9,1.2-4.9,2V191z"/>
	<path class="st1" d="M85.4,173c2.2,0,3.9,0.3,6,0.8l-0.6,2.5c-2.8-0.7-4.2-0.7-5.4-0.7c-3.7,0-5.3,2.6-5.3,6.5
		c0,3.9,1.6,6.5,5.3,6.5c1.2,0,2.6,0,5.4-0.7l0.6,2.6c-2.1,0.5-3.8,0.8-6,0.8c-6.5,0-8.7-3.7-8.7-9.2C76.8,176.7,79,173,85.4,173z"
		/>
	<path class="st1" d="M97.6,167v4.4h-3.2V167H97.6z M97.6,173.3V191h-3.2v-17.7H97.6z"/>
	<path class="st1" d="M102.7,176.3l-0.5-2.6c2.4-0.5,4.9-0.7,6.8-0.7c4.2,0,6.5,1.2,6.5,5.8V191h-3.2v-1.8c0,0,0,0-0.1,0
		c-1.7,1.5-3.3,2.1-5.6,2.1c-3.5,0-5.6-2.1-5.6-5.2c0-4,3.2-5.4,7.4-5.4h3.9V179c0-2.3-1.2-3.4-4.1-3.4
		C106.9,175.6,105.3,175.8,102.7,176.3z M112.3,182.7h-3.7c-3.3,0-4.4,1.2-4.4,3.2c0,1.9,1.4,3,3.7,3c2,0,3.6-0.8,4.4-1.5V182.7z"/>
	<path class="st1" d="M119.8,166.3h3.2V191h-3.2V166.3z"/>
	<path class="st1" d="M137.1,167v4.4h-3.2V167H137.1z M137.1,173.3V191h-3.2v-17.7H137.1z"/>
	<path class="st1" d="M144.6,191h-3.2v-17.7h3.2v2.5h0.1c1.7-1.7,3.8-2.8,6.3-2.8c3.5,0,5.3,2.1,5.3,5.8V191h-3.2v-11.5
		c0-2.3-0.9-3.9-3.5-3.9c-2,0-3.9,1.2-4.9,2V191z"/>
	<path class="st1" d="M164.9,173.3h4.2v2.3h-4.2V191h-3.2v-15.4h-2.6v-2.1l2.6-0.2v-2.2c0-3.4,1.2-4.9,5.1-4.9
		c0.8,0,1.9,0.1,2.8,0.3l-0.3,2.5c-0.7-0.1-1.3-0.2-1.8-0.2c-2,0-2.6,0.6-2.6,2.5V173.3z"/>
	<path class="st1" d="M171.6,182.2c0-5.5,2.2-9.2,8.1-9.2c5.9,0,8.1,3.7,8.1,9.2c0,5.5-2.2,9.2-8.1,9.2
		C173.8,191.3,171.6,187.6,171.6,182.2z M175,182.2c0,3.7,1.1,6.5,4.8,6.5c3.7,0,4.8-2.8,4.8-6.5s-1.1-6.5-4.8-6.5
		C176,175.6,175,178.4,175,182.2z"/>
	<path class="st1" d="M194.9,191h-3.2v-17.7h3.2v2.8h0.1c1.4-1.6,3.8-3.2,6.6-3.2v3c-2.6,0-5.3,1.1-6.7,2V191z"/>
	<path class="st1" d="M208,191h-3.2v-17.7h3.2v2.5h0.1c1.4-1.5,3.3-2.8,5.8-2.8c2.5,0,4.1,1.1,4.8,3.1c1.7-1.8,3.8-3.1,6.3-3.1
		c3.5,0,5.3,2.1,5.3,5.8V191h-3.2v-11.5c0-2.3-1-3.9-3.5-3.9c-1.8,0-3.4,1.2-4.5,2.1c0.1,0.6,0.1,1.2,0.1,1.9V191h-3.2v-11.6
		c-0.1-2.2-1-3.8-3.5-3.8c-1.9,0-3.4,1.2-4.4,2V191z"/>
	<path class="st1" d="M235.2,176.3l-0.5-2.6c2.4-0.5,4.9-0.7,6.8-0.7c4.2,0,6.5,1.2,6.5,5.8V191h-3.2v-1.8c0,0,0,0-0.1,0
		c-1.7,1.5-3.3,2.1-5.6,2.1c-3.5,0-5.6-2.1-5.6-5.2c0-4,3.2-5.4,7.4-5.4h3.9V179c0-2.3-1.2-3.4-4.1-3.4
		C239.5,175.6,237.9,175.8,235.2,176.3z M244.9,182.7h-3.7c-3.3,0-4.4,1.2-4.4,3.2c0,1.9,1.4,3,3.7,3c2,0,3.6-0.8,4.4-1.5V182.7z"/>
	<path class="st1" d="M253.6,175.6h-2.6v-2.1l2.6-0.2l0.4-4.9h2.8v4.9h4.9v2.3h-4.9v9.7c0,2.3,0.7,3.5,3,3.5c0.5,0,1.1-0.1,1.8-0.2
		l0.3,2.5c-1,0.1-2.3,0.2-3.2,0.2c-3.6,0-5.1-1.5-5.1-5.5V175.6z"/>
	<path class="st1" d="M268.5,167v4.4h-3.2V167H268.5z M268.5,173.3V191h-3.2v-17.7H268.5z"/>
	<path class="st1" d="M272.2,182.2c0-5.5,2.2-9.2,8.1-9.2c5.9,0,8.1,3.7,8.1,9.2c0,5.5-2.2,9.2-8.1,9.2
		C274.4,191.3,272.2,187.6,272.2,182.2z M275.6,182.2c0,3.7,1.1,6.5,4.8,6.5c3.7,0,4.8-2.8,4.8-6.5s-1.1-6.5-4.8-6.5
		C276.7,175.6,275.6,178.4,275.6,182.2z"/>
	<path class="st1" d="M295.5,191h-3.2v-17.7h3.2v2.5h0.1c1.7-1.7,3.8-2.8,6.3-2.8c3.5,0,5.3,2.1,5.3,5.8V191h-3.2v-11.5
		c0-2.3-0.9-3.9-3.5-3.9c-2,0-3.9,1.2-4.9,2V191z"/>
	<path class="st1" d="M319.4,175.6h-2.6v-2.1l2.6-0.2l0.4-4.9h2.8v4.9h4.9v2.3h-4.9v9.7c0,2.3,0.7,3.5,3,3.5c0.5,0,1.1-0.1,1.8-0.2
		l0.3,2.5c-1,0.1-2.3,0.2-3.2,0.2c-3.6,0-5.1-1.5-5.1-5.5V175.6z"/>
	<path class="st1" d="M330.2,182.2c0-5.5,2.2-9.2,8.1-9.2c5.9,0,8.1,3.7,8.1,9.2c0,5.5-2.2,9.2-8.1,9.2
		C332.4,191.3,330.2,187.6,330.2,182.2z M333.6,182.2c0,3.7,1.1,6.5,4.8,6.5c3.7,0,4.8-2.8,4.8-6.5s-1.1-6.5-4.8-6.5
		C334.6,175.6,333.6,178.4,333.6,182.2z"/>
	<path class="st1" d="M356.6,182.2c0-5.5,2.2-9.2,8.1-9.2c5.9,0,8.1,3.7,8.1,9.2c0,5.5-2.2,9.2-8.1,9.2
		C358.8,191.3,356.6,187.6,356.6,182.2z M360,182.2c0,3.7,1.1,6.5,4.8,6.5c3.7,0,4.8-2.8,4.8-6.5s-1.1-6.5-4.8-6.5
		C361,175.6,360,178.4,360,182.2z"/>
	<path class="st1" d="M388.3,173.3h3.2V191h-3.2v-2.5h-0.1c-1.7,1.7-3.8,2.8-6.3,2.8c-3.5,0-5.3-2.1-5.3-5.8v-12.2h3.2v11.5
		c0,2.3,1,3.9,3.5,3.9c2,0,3.9-1.2,4.9-2V173.3z"/>
	<path class="st1" d="M399,191h-3.2v-17.7h3.2v2.8h0.1c1.4-1.6,3.8-3.2,6.6-3.2v3c-2.6,0-5.3,1.1-6.7,2V191z"/>
	<path class="st1" d="M423,191.3c-2.8,0-5.5-0.2-7.6-0.8l0.6-2.6c2.8,0.7,5.4,0.8,6.7,0.8c3.2,0,3.7-1.9,3.7-2.6c0-1.2-0.8-2-4-2.6
		c-3.7-0.7-6.6-1.9-6.6-5.6c0-3.4,2.4-4.9,6.5-4.9c2.7,0,4.9,0.3,7.1,0.8l-0.6,2.5c-2.8-0.7-5-0.8-6.3-0.8c-3.2,0-3.5,1.7-3.5,2.3
		c0,1.1,0.6,2,3.8,2.7c3.7,0.8,6.8,1.8,6.8,5.4C429.5,189.5,427.1,191.3,423,191.3z"/>
	<path class="st1" d="M434.8,175.6h-2.6v-2.1l2.6-0.2l0.4-4.9h2.8v4.9h4.9v2.3H438v9.7c0,2.3,0.7,3.5,3,3.5c0.5,0,1.1-0.1,1.8-0.2
		l0.3,2.5c-1,0.1-2.3,0.2-3.2,0.2c-3.6,0-5.1-1.5-5.1-5.5V175.6z"/>
	<path class="st1" d="M447.6,176.3l-0.5-2.6c2.4-0.5,4.9-0.7,6.8-0.7c4.2,0,6.5,1.2,6.5,5.8V191h-3.2v-1.8c0,0,0,0-0.1,0
		c-1.7,1.5-3.3,2.1-5.6,2.1c-3.5,0-5.6-2.1-5.6-5.2c0-4,3.2-5.4,7.4-5.4h3.9V179c0-2.3-1.2-3.4-4.1-3.4
		C451.8,175.6,450.2,175.8,447.6,176.3z M457.2,182.7h-3.7c-3.3,0-4.4,1.2-4.4,3.2c0,1.9,1.4,3,3.7,3c2,0,3.6-0.8,4.4-1.5V182.7z"/>
	<path class="st1" d="M467.9,180.5l8.5-7.2h3.9l-6.7,6.1l7.1,11.5h-3.8l-5.5-9.7l-3.4,2.9v6.9h-3.2v-24.7h3.2V180.5z"/>
	<path class="st1" d="M485.7,182.7c0.1,3.5,1.7,6,5.8,6c1.7,0,3.5-0.1,5.5-0.7l0.4,2.6c-2.2,0.6-4.1,0.8-6.4,0.8
		c-6.5,0-8.8-3.7-8.8-9.2c0-5.5,2.3-9.2,8.7-9.2c5.4,0,6.9,3.1,7.1,6.1c0.1,1.1,0,2.4-0.2,3.6H485.7z M485.7,180.7h9
		c0.1-0.6,0.2-1.3,0.1-1.9c-0.1-1.8-1.2-3.4-4-3.4C487.2,175.4,485.9,177.7,485.7,180.7z"/>
	<path class="st1" d="M504.8,191h-3.2v-24.7h3.2v9.5h0.1c1.7-1.7,3.8-2.8,6.3-2.8c3.5,0,5.3,2.1,5.3,5.8V191h-3.2v-11.5
		c0-2.3-0.9-3.9-3.5-3.9c-2,0-3.9,1.2-4.9,2V191z"/>
	<path class="st1" d="M520.2,182.2c0-5.5,2.2-9.2,8.1-9.2c5.9,0,8.1,3.7,8.1,9.2c0,5.5-2.2,9.2-8.1,9.2
		C522.4,191.3,520.2,187.6,520.2,182.2z M523.6,182.2c0,3.7,1.1,6.5,4.8,6.5c3.7,0,4.8-2.8,4.8-6.5s-1.1-6.5-4.8-6.5
		C524.6,175.6,523.6,178.4,523.6,182.2z"/>
	<path class="st1" d="M540.3,166.3h3.2V191h-3.2V166.3z"/>
	<path class="st1" d="M559.3,189.2C559.3,189.2,559.3,189.2,559.3,189.2c-1.3,1.2-3.4,2.1-5.5,2.1c-4.9,0-6.5-4.1-6.5-9.2
		s1.8-9.2,6.7-9.2c2,0,4,0.8,5.2,2c0,0,0,0,0.1,0v-8.8h3.2V191h-3.2V189.2z M555.1,188.7c1.9,0,3.5-0.9,4.2-1.5v-10.1
		c-0.7-0.6-2.3-1.5-4.2-1.5c-3.5,0-4.4,3-4.4,6.5S551.7,188.7,555.1,188.7z"/>
	<path class="st1" d="M569.8,182.7c0.1,3.5,1.7,6,5.8,6c1.7,0,3.5-0.1,5.5-0.7l0.4,2.6c-2.2,0.6-4.1,0.8-6.4,0.8
		c-6.5,0-8.8-3.7-8.8-9.2c0-5.5,2.3-9.2,8.7-9.2c5.4,0,6.9,3.1,7.1,6.1c0.1,1.1,0,2.4-0.2,3.6H569.8z M569.8,180.7h9
		c0.1-0.6,0.2-1.3,0.1-1.9c-0.1-1.8-1.2-3.4-4-3.4C571.3,175.4,570,177.7,569.8,180.7z"/>
	<path class="st1" d="M588.9,191h-3.2v-17.7h3.2v2.8h0.1c1.4-1.6,3.8-3.2,6.6-3.2v3c-2.6,0-5.3,1.1-6.7,2V191z"/>
	<path class="st1" d="M605.9,191.3c-2.8,0-5.5-0.2-7.6-0.8l0.6-2.6c2.8,0.7,5.4,0.8,6.7,0.8c3.2,0,3.7-1.9,3.7-2.6
		c0-1.2-0.8-2-4-2.6c-3.7-0.7-6.6-1.9-6.6-5.6c0-3.4,2.4-4.9,6.5-4.9c2.7,0,4.9,0.3,7.1,0.8l-0.6,2.5c-2.8-0.7-5-0.8-6.3-0.8
		c-3.2,0-3.5,1.7-3.5,2.3c0,1.1,0.6,2,3.8,2.7c3.7,0.8,6.8,1.8,6.8,5.4C612.4,189.5,610,191.3,605.9,191.3z"/>
</g>
<g>
	<path class="st1" d="M2.3,262.1v-24h3.4v24H2.3z"/>
	<path class="st1" d="M13.5,262.1h-3.2v-17.7h3.2v2.5h0.1c1.7-1.7,3.8-2.8,6.3-2.8c3.5,0,5.3,2.1,5.3,5.8v12.2H22v-11.5
		c0-2.3-0.9-3.9-3.5-3.9c-2,0-3.9,1.2-4.9,2V262.1z"/>
	<path class="st1" d="M34.5,262.3L28,244.4h3.6l4.9,14.3h0.1l5-14.3h3.4l-6.6,17.8H34.5z"/>
	<path class="st1" d="M50.5,253.8c0.1,3.5,1.7,6,5.8,6c1.7,0,3.5-0.1,5.5-0.7l0.4,2.6c-2.2,0.6-4.1,0.8-6.4,0.8
		c-6.5,0-8.8-3.7-8.8-9.2s2.3-9.2,8.7-9.2c5.4,0,6.9,3.1,7.1,6.1c0.1,1.1,0,2.4-0.2,3.6H50.5z M50.5,251.8h9
		c0.1-0.6,0.2-1.3,0.1-1.9c-0.1-1.8-1.2-3.4-4-3.4C52,246.6,50.7,248.8,50.5,251.8z"/>
	<path class="st1" d="M73.3,262.4c-2.8,0-5.5-0.2-7.6-0.8l0.6-2.6c2.8,0.7,5.4,0.8,6.7,0.8c3.2,0,3.7-1.9,3.7-2.6c0-1.2-0.8-2-4-2.6
		c-3.7-0.7-6.6-1.9-6.6-5.6c0-3.4,2.4-4.9,6.5-4.9c2.7,0,4.9,0.3,7.1,0.8l-0.6,2.5c-2.8-0.7-5-0.8-6.3-0.8c-3.2,0-3.5,1.7-3.5,2.3
		c0,1.1,0.6,2,3.8,2.7c3.7,0.8,6.8,1.8,6.8,5.4C79.8,260.6,77.4,262.4,73.3,262.4z"/>
	<path class="st1" d="M85.1,246.7h-2.6v-2.1l2.6-0.2l0.4-4.9h2.8v4.9h4.9v2.3h-4.9v9.7c0,2.3,0.7,3.5,3,3.5c0.5,0,1.1-0.1,1.8-0.2
		l0.3,2.5c-1,0.1-2.3,0.2-3.2,0.2c-3.6,0-5.1-1.5-5.1-5.5V246.7z"/>
	<path class="st1" d="M107.1,238.1v4.4h-3.2v-4.4H107.1z M107.1,244.4v17.7h-3.2v-17.7H107.1z"/>
	<path class="st1" d="M114.6,262.1h-3.2v-17.7h3.2v2.5h0.1c1.7-1.7,3.8-2.8,6.3-2.8c3.5,0,5.3,2.1,5.3,5.8v12.2H123v-11.5
		c0-2.3-0.9-3.9-3.5-3.9c-2,0-3.9,1.2-4.9,2V262.1z"/>
	<path class="st1" d="M136.8,253.3c0-5.5,2.2-9.2,8.1-9.2c5.9,0,8.1,3.7,8.1,9.2s-2.2,9.2-8.1,9.2
		C139,262.4,136.8,258.7,136.8,253.3z M140.1,253.3c0,3.7,1.1,6.5,4.8,6.5c3.7,0,4.8-2.8,4.8-6.5s-1.1-6.5-4.8-6.5
		C141.2,246.7,140.1,249.6,140.1,253.3z"/>
	<path class="st1" d="M168.4,244.4h3.2v17.7h-3.2v-2.5h-0.1c-1.7,1.7-3.8,2.8-6.3,2.8c-3.5,0-5.3-2.1-5.3-5.8v-12.2h3.2v11.5
		c0,2.3,1,3.9,3.5,3.9c2,0,3.9-1.2,4.9-2V244.4z"/>
	<path class="st1" d="M179.1,262.1h-3.2v-17.7h3.2v2.8h0.1c1.4-1.6,3.8-3.2,6.6-3.2v3c-2.6,0-5.3,1.1-6.7,2V262.1z"/>
	<path class="st1" d="M196.4,262.1v-24h3.4v24H196.4z"/>
	<path class="st1" d="M213.6,241.1v21h-3.4v-21h-6.6v-3h16.6v3H213.6z"/>
	<path class="st1" d="M237.8,262.4c-2.8,0-5.5-0.2-7.6-0.8l0.6-2.6c2.8,0.7,5.4,0.8,6.7,0.8c3.2,0,3.7-1.9,3.7-2.6
		c0-1.2-0.8-2-4-2.6c-3.7-0.7-6.6-1.9-6.6-5.6c0-3.4,2.4-4.9,6.5-4.9c2.7,0,4.9,0.3,7.1,0.8l-0.6,2.5c-2.8-0.7-5-0.8-6.3-0.8
		c-3.2,0-3.5,1.7-3.5,2.3c0,1.1,0.6,2,3.8,2.7c3.7,0.8,6.8,1.8,6.8,5.4C244.4,260.6,242,262.4,237.8,262.4z"/>
	<path class="st1" d="M250.8,253.8c0.1,3.5,1.7,6,5.8,6c1.7,0,3.5-0.1,5.5-0.7l0.4,2.6c-2.2,0.6-4.1,0.8-6.4,0.8
		c-6.5,0-8.8-3.7-8.8-9.2s2.3-9.2,8.7-9.2c5.4,0,6.9,3.1,7.1,6.1c0.1,1.1,0,2.4-0.2,3.6H250.8z M250.8,251.8h9
		c0.1-0.6,0.2-1.3,0.1-1.9c-0.1-1.8-1.2-3.4-4-3.4C252.4,246.6,251.1,248.8,250.8,251.8z"/>
	<path class="st1" d="M270,262.1h-3.2v-17.7h3.2v2.8h0.1c1.4-1.6,3.8-3.2,6.6-3.2v3c-2.6,0-5.3,1.1-6.7,2V262.1z"/>
	<path class="st1" d="M286.2,262.3l-6.5-17.8h3.6l4.9,14.3h0.1l5-14.3h3.4l-6.6,17.8H286.2z"/>
	<path class="st1" d="M303.1,238.1v4.4H300v-4.4H303.1z M303.1,244.4v17.7H300v-17.7H303.1z"/>
	<path class="st1" d="M315.6,244.1c2.2,0,3.9,0.3,6,0.8l-0.6,2.5c-2.8-0.7-4.2-0.7-5.4-0.7c-3.7,0-5.3,2.6-5.3,6.5s1.6,6.5,5.3,6.5
		c1.2,0,2.6,0,5.4-0.7l0.6,2.6c-2.1,0.5-3.8,0.8-6,0.8c-6.5,0-8.7-3.7-8.7-9.2S309.1,244.1,315.6,244.1z"/>
	<path class="st1" d="M327,253.8c0.1,3.5,1.7,6,5.8,6c1.7,0,3.5-0.1,5.5-0.7l0.4,2.6c-2.2,0.6-4.1,0.8-6.4,0.8
		c-6.5,0-8.8-3.7-8.8-9.2s2.3-9.2,8.7-9.2c5.4,0,6.9,3.1,7.1,6.1c0.1,1.1,0,2.4-0.2,3.6H327z M327,251.8h9c0.1-0.6,0.2-1.3,0.1-1.9
		c-0.1-1.8-1.2-3.4-4-3.4C328.6,246.6,327.3,248.8,327,251.8z"/>
	<path class="st1" d="M349.8,262.4c-2.8,0-5.5-0.2-7.6-0.8l0.6-2.6c2.8,0.7,5.4,0.8,6.7,0.8c3.2,0,3.7-1.9,3.7-2.6
		c0-1.2-0.8-2-4-2.6c-3.7-0.7-6.6-1.9-6.6-5.6c0-3.4,2.4-4.9,6.5-4.9c2.7,0,4.9,0.3,7.1,0.8l-0.6,2.5c-2.8-0.7-5-0.8-6.3-0.8
		c-3.2,0-3.5,1.7-3.5,2.3c0,1.1,0.6,2,3.8,2.7c3.7,0.8,6.8,1.8,6.8,5.4C356.3,260.6,353.9,262.4,349.8,262.4z"/>
	<path class="st1" d="M368.1,246.7h-2.6v-2.1l2.6-0.2l0.4-4.9h2.8v4.9h4.9v2.3h-4.9v9.7c0,2.3,0.7,3.5,3,3.5c0.5,0,1.1-0.1,1.8-0.2
		l0.3,2.5c-1,0.1-2.3,0.2-3.2,0.2c-3.6,0-5.1-1.5-5.1-5.5V246.7z"/>
	<path class="st1" d="M378.9,253.3c0-5.5,2.2-9.2,8.1-9.2c5.9,0,8.1,3.7,8.1,9.2s-2.2,9.2-8.1,9.2
		C381.1,262.4,378.9,258.7,378.9,253.3z M382.3,253.3c0,3.7,1.1,6.5,4.8,6.5c3.7,0,4.8-2.8,4.8-6.5s-1.1-6.5-4.8-6.5
		C383.3,246.7,382.3,249.6,382.3,253.3z"/>
	<path class="st1" d="M408.8,253.8c0.1,3.5,1.7,6,5.8,6c1.7,0,3.5-0.1,5.5-0.7l0.4,2.6c-2.2,0.6-4.1,0.8-6.4,0.8
		c-6.5,0-8.8-3.7-8.8-9.2s2.3-9.2,8.7-9.2c5.4,0,6.9,3.1,7.1,6.1c0.1,1.1,0,2.4-0.2,3.6H408.8z M408.8,251.8h9
		c0.1-0.6,0.2-1.3,0.1-1.9c-0.1-1.8-1.2-3.4-4-3.4C410.3,246.6,409.1,248.8,408.8,251.8z"/>
	<path class="st1" d="M427.9,262.1h-3.2v-17.7h3.2v2.5h0.1c1.7-1.7,3.8-2.8,6.3-2.8c3.5,0,5.3,2.1,5.3,5.8v12.2h-3.2v-11.5
		c0-2.3-0.9-3.9-3.5-3.9c-2,0-3.9,1.2-4.9,2V262.1z"/>
	<path class="st1" d="M450.5,262.4c-2.8,0-5.5-0.2-7.6-0.8l0.6-2.6c2.8,0.7,5.4,0.8,6.7,0.8c3.2,0,3.7-1.9,3.7-2.6
		c0-1.2-0.8-2-4-2.6c-3.7-0.7-6.6-1.9-6.6-5.6c0-3.4,2.4-4.9,6.5-4.9c2.7,0,4.9,0.3,7.1,0.8l-0.6,2.5c-2.8-0.7-5-0.8-6.3-0.8
		c-3.2,0-3.5,1.7-3.5,2.3c0,1.1,0.6,2,3.8,2.7c3.7,0.8,6.8,1.8,6.8,5.4C457.1,260.6,454.7,262.4,450.5,262.4z"/>
	<path class="st1" d="M472.1,244.4h3.2v17.7h-3.2v-2.5h-0.1c-1.7,1.7-3.8,2.8-6.3,2.8c-3.5,0-5.3-2.1-5.3-5.8v-12.2h3.2v11.5
		c0,2.3,1,3.9,3.5,3.9c2,0,3.9-1.2,4.9-2V244.4z"/>
	<path class="st1" d="M482.8,262.1h-3.2v-17.7h3.2v2.8h0.1c1.4-1.6,3.8-3.2,6.6-3.2v3c-2.6,0-5.3,1.1-6.7,2V262.1z"/>
	<path class="st1" d="M495.4,253.8c0.1,3.5,1.7,6,5.8,6c1.7,0,3.5-0.1,5.5-0.7l0.4,2.6c-2.2,0.6-4.1,0.8-6.4,0.8
		c-6.5,0-8.8-3.7-8.8-9.2s2.3-9.2,8.7-9.2c5.4,0,6.9,3.1,7.1,6.1c0.1,1.1,0,2.4-0.2,3.6H495.4z M495.4,251.8h9
		c0.1-0.6,0.2-1.3,0.1-1.9c-0.1-1.8-1.2-3.4-4-3.4C497,246.6,495.7,248.8,495.4,251.8z"/>
	<path class="st1" d="M519.5,246.7h-2.6v-2.1l2.6-0.2l0.4-4.9h2.8v4.9h4.9v2.3h-4.9v9.7c0,2.3,0.7,3.5,3,3.5c0.5,0,1.1-0.1,1.8-0.2
		l0.3,2.5c-1,0.1-2.3,0.2-3.2,0.2c-3.6,0-5.1-1.5-5.1-5.5V246.7z"/>
	<path class="st1" d="M534.4,262.1h-3.2v-24.7h3.2v9.5h0.1c1.7-1.7,3.8-2.8,6.3-2.8c3.5,0,5.3,2.1,5.3,5.8v12.2h-3.2v-11.5
		c0-2.3-0.9-3.9-3.5-3.9c-2,0-3.9,1.2-4.9,2V262.1z"/>
	<path class="st1" d="M553.2,253.8c0.1,3.5,1.7,6,5.8,6c1.7,0,3.5-0.1,5.5-0.7l0.4,2.6c-2.2,0.6-4.1,0.8-6.4,0.8
		c-6.5,0-8.8-3.7-8.8-9.2s2.3-9.2,8.7-9.2c5.4,0,6.9,3.1,7.1,6.1c0.1,1.1,0,2.4-0.2,3.6H553.2z M553.2,251.8h9
		c0.1-0.6,0.2-1.3,0.1-1.9c-0.1-1.8-1.2-3.4-4-3.4C554.8,246.6,553.5,248.8,553.2,251.8z"/>
	<path class="st1" d="M567.9,244.4h3.6l5.1,14.4h0.1l4.8-14.4h3.4l-6.6,18.7c-1.6,4.6-3.7,6.4-7.1,6.4c-0.8,0-1.9-0.1-2.6-0.2
		l0.3-2.6c0.6,0.1,1.2,0.2,1.7,0.2c2.3,0,3.6-2.3,4.4-4.3L567.9,244.4z"/>
</g>
<g>
	<path class="st1" d="M3,284.5l-0.5-2.6c2.4-0.5,4.9-0.7,6.8-0.7c4.2,0,6.5,1.2,6.5,5.8v12.2h-3.2v-1.8c0,0,0,0-0.1,0
		c-1.7,1.5-3.3,2.1-5.6,2.1c-3.5,0-5.6-2.1-5.6-5.2c0-4,3.2-5.4,7.4-5.4h3.9v-1.8c0-2.3-1.2-3.4-4.1-3.4C7.3,283.8,5.6,284,3,284.5z
		 M12.7,290.9H9c-3.3,0-4.4,1.2-4.4,3.2c0,1.9,1.4,3,3.7,3c2,0,3.6-0.8,4.4-1.5V290.9z"/>
	<path class="st1" d="M23.4,299.2h-3.2v-17.7h3.2v2.8h0.1c1.4-1.6,3.8-3.2,6.6-3.2v3c-2.6,0-5.3,1.1-6.7,2V299.2z"/>
	<path class="st1" d="M36,290.9c0.1,3.5,1.7,6,5.8,6c1.7,0,3.5-0.1,5.5-0.7l0.4,2.6c-2.2,0.6-4.1,0.8-6.4,0.8
		c-6.5,0-8.8-3.7-8.8-9.2s2.3-9.2,8.7-9.2c5.4,0,6.9,3.1,7.1,6.1c0.1,1.1,0,2.4-0.2,3.6H36z M36,288.9h9c0.1-0.6,0.2-1.3,0.1-1.9
		c-0.1-1.8-1.2-3.4-4-3.4C37.5,283.7,36.2,285.9,36,288.9z"/>
	<path class="st1" d="M61.8,299.2h-3.2v-17.7h3.2v2.5h0.1c1.4-1.5,3.3-2.8,5.8-2.8c2.5,0,4.1,1.1,4.8,3.1c1.7-1.8,3.8-3.1,6.3-3.1
		c3.5,0,5.3,2.1,5.3,5.8v12.2h-3.2v-11.5c0-2.3-1-3.9-3.5-3.9c-1.8,0-3.4,1.2-4.5,2.1c0.1,0.6,0.1,1.2,0.1,1.9v11.3h-3.2v-11.6
		c-0.1-2.2-1-3.8-3.5-3.8c-1.9,0-3.4,1.2-4.4,2V299.2z"/>
	<path class="st1" d="M87.9,290.4c0-5.5,2.2-9.2,8.1-9.2c5.9,0,8.1,3.7,8.1,9.2s-2.2,9.2-8.1,9.2C90.1,299.6,87.9,295.9,87.9,290.4z
		 M91.2,290.4c0,3.7,1.1,6.5,4.8,6.5c3.7,0,4.8-2.8,4.8-6.5s-1.1-6.5-4.8-6.5C92.3,283.8,91.2,286.7,91.2,290.4z"/>
	<path class="st1" d="M119.4,297.4C119.4,297.4,119.4,297.4,119.4,297.4c-1.3,1.2-3.4,2.1-5.5,2.1c-4.9,0-6.5-4.1-6.5-9.2
		s1.8-9.2,6.7-9.2c2,0,4,0.8,5.2,2c0,0,0,0,0.1,0v-8.8h3.2v24.7h-3.2V297.4z M115.2,296.9c1.9,0,3.5-0.9,4.2-1.5v-10.1
		c-0.7-0.6-2.3-1.5-4.2-1.5c-3.5,0-4.4,3-4.4,6.5S111.7,296.9,115.2,296.9z"/>
	<path class="st1" d="M129.9,290.9c0.1,3.5,1.7,6,5.8,6c1.7,0,3.5-0.1,5.5-0.7l0.4,2.6c-2.2,0.6-4.1,0.8-6.4,0.8
		c-6.5,0-8.8-3.7-8.8-9.2s2.3-9.2,8.7-9.2c5.4,0,6.9,3.1,7.1,6.1c0.1,1.1,0,2.4-0.2,3.6H129.9z M129.9,288.9h9
		c0.1-0.6,0.2-1.3,0.1-1.9c-0.1-1.8-1.2-3.4-4-3.4C131.4,283.7,130.1,285.9,129.9,288.9z"/>
	<path class="st1" d="M149,299.2h-3.2v-17.7h3.2v2.8h0.1c1.4-1.6,3.8-3.2,6.6-3.2v3c-2.6,0-5.3,1.1-6.7,2V299.2z"/>
	<path class="st1" d="M162.1,299.2h-3.2v-17.7h3.2v2.5h0.1c1.7-1.7,3.8-2.8,6.3-2.8c3.5,0,5.3,2.1,5.3,5.8v12.2h-3.2v-11.5
		c0-2.3-0.9-3.9-3.5-3.9c-2,0-3.9,1.2-4.9,2V299.2z"/>
	<path class="st1" d="M178.8,303.8l0.7-4.6c-0.4,0-0.8,0-1.2,0v-4.6h3.2v4.6l-1.6,4.6H178.8z"/>
	<path class="st1" d="M195.4,290.9c0.1,3.5,1.7,6,5.8,6c1.7,0,3.5-0.1,5.5-0.7l0.4,2.6c-2.2,0.6-4.1,0.8-6.4,0.8
		c-6.5,0-8.8-3.7-8.8-9.2s2.3-9.2,8.7-9.2c5.4,0,6.9,3.1,7.1,6.1c0.1,1.1,0,2.4-0.2,3.6H195.4z M195.4,288.9h9
		c0.1-0.6,0.2-1.3,0.1-1.9c-0.1-1.8-1.2-3.4-4-3.4C196.9,283.7,195.7,285.9,195.4,288.9z"/>
	<path class="st1" d="M215.9,283.8v15.4h-3.2v-15.4h-2.6v-2.1l2.6-0.2V280c0-4,1.5-5.5,5.1-5.5c0.8,0,1.9,0.1,2.8,0.3l-0.3,2.5
		c-0.7-0.1-1.3-0.2-1.8-0.2c-2.1,0-2.6,1.2-2.6,3.5v1h7.2v-1c0-4,1.9-6,6.7-6c1.4,0,4.4,0.4,6.2,1.2l-0.4,2.3
		c-1.8-0.7-4.1-0.9-5.5-0.9c-3.2,0-3.9,1.4-3.9,3.5v1h10.4v17.7h-3.2v-15.4h-7.2v15.4h-3.2v-15.4H215.9z"/>
	<path class="st1" d="M249.2,281.2c2.2,0,3.9,0.3,6,0.8l-0.6,2.5c-2.8-0.7-4.2-0.7-5.4-0.7c-3.7,0-5.3,2.6-5.3,6.5s1.6,6.5,5.3,6.5
		c1.2,0,2.6,0,5.4-0.7l0.6,2.6c-2.1,0.5-3.8,0.8-6,0.8c-6.5,0-8.7-3.7-8.7-9.2S242.7,281.2,249.2,281.2z"/>
	<path class="st1" d="M261.4,275.2v4.4h-3.2v-4.4H261.4z M261.4,281.6v17.7h-3.2v-17.7H261.4z"/>
	<path class="st1" d="M268.6,290.9c0.1,3.5,1.7,6,5.8,6c1.7,0,3.5-0.1,5.5-0.7l0.4,2.6c-2.2,0.6-4.1,0.8-6.4,0.8
		c-6.5,0-8.8-3.7-8.8-9.2s2.3-9.2,8.7-9.2c5.4,0,6.9,3.1,7.1,6.1c0.1,1.1,0,2.4-0.2,3.6H268.6z M268.6,288.9h9
		c0.1-0.6,0.2-1.3,0.1-1.9c-0.1-1.8-1.2-3.4-4-3.4C270.1,283.7,268.8,285.9,268.6,288.9z"/>
	<path class="st1" d="M287.7,299.2h-3.2v-17.7h3.2v2.5h0.1c1.7-1.7,3.8-2.8,6.3-2.8c3.5,0,5.3,2.1,5.3,5.8v12.2h-3.2v-11.5
		c0-2.3-0.9-3.9-3.5-3.9c-2,0-3.9,1.2-4.9,2V299.2z"/>
	<path class="st1" d="M304.8,283.8h-2.6v-2.1l2.6-0.2l0.4-4.9h2.8v4.9h4.9v2.3H308v9.7c0,2.3,0.7,3.5,3,3.5c0.5,0,1.1-0.1,1.8-0.2
		l0.3,2.5c-1,0.1-2.3,0.2-3.2,0.2c-3.6,0-5.1-1.5-5.1-5.5V283.8z"/>
	<path class="st1" d="M324.8,284.5l-0.5-2.6c2.4-0.5,4.9-0.7,6.8-0.7c4.2,0,6.5,1.2,6.5,5.8v12.2h-3.2v-1.8c0,0,0,0-0.1,0
		c-1.7,1.5-3.3,2.1-5.6,2.1c-3.5,0-5.6-2.1-5.6-5.2c0-4,3.2-5.4,7.4-5.4h3.9v-1.8c0-2.3-1.2-3.4-4.1-3.4
		C329.1,283.8,327.4,284,324.8,284.5z M334.5,290.9h-3.7c-3.3,0-4.4,1.2-4.4,3.2c0,1.9,1.4,3,3.7,3c2,0,3.6-0.8,4.4-1.5V290.9z"/>
	<path class="st1" d="M345.1,299.2h-3.2v-17.7h3.2v2.5h0.1c1.7-1.7,3.8-2.8,6.3-2.8c3.5,0,5.3,2.1,5.3,5.8v12.2h-3.2v-11.5
		c0-2.3-0.9-3.9-3.5-3.9c-2,0-3.9,1.2-4.9,2V299.2z"/>
	<path class="st1" d="M372.6,297.4C372.6,297.4,372.6,297.4,372.6,297.4c-1.3,1.2-3.4,2.1-5.5,2.1c-4.9,0-6.5-4.1-6.5-9.2
		s1.8-9.2,6.7-9.2c2,0,4,0.8,5.2,2c0,0,0,0,0.1,0v-8.8h3.2v24.7h-3.2V297.4z M368.4,296.9c1.9,0,3.5-0.9,4.2-1.5v-10.1
		c-0.7-0.6-2.3-1.5-4.2-1.5c-3.5,0-4.4,3-4.4,6.5S364.9,296.9,368.4,296.9z"/>
	<path class="st1" d="M389.9,275.2v4.4h-3.2v-4.4H389.9z M389.9,281.6v17.7h-3.2v-17.7H389.9z"/>
	<path class="st1" d="M397.4,299.2h-3.2v-17.7h3.2v2.5h0.1c1.4-1.5,3.3-2.8,5.8-2.8c2.5,0,4.1,1.1,4.8,3.1c1.7-1.8,3.8-3.1,6.3-3.1
		c3.5,0,5.3,2.1,5.3,5.8v12.2h-3.2v-11.5c0-2.3-1-3.9-3.5-3.9c-1.8,0-3.4,1.2-4.5,2.1c0.1,0.6,0.1,1.2,0.1,1.9v11.3h-3.2v-11.6
		c-0.1-2.2-1-3.8-3.5-3.8c-1.9,0-3.4,1.2-4.4,2V299.2z"/>
	<path class="st1" d="M427.1,283.3L427.1,283.3c1.3-1.2,3.4-2.1,5.5-2.1c4.9,0,6.5,4.1,6.5,9.2s-1.8,9.2-6.7,9.2c-2,0-4-0.8-5.2-2
		h-0.1v8.7H424v-24.7h3.2V283.3z M431.4,283.8c-1.9,0-3.5,0.9-4.2,1.5v10.1c0.7,0.6,2.3,1.5,4.2,1.5c3.4,0,4.4-3,4.4-6.5
		S434.8,283.8,431.4,283.8z"/>
	<path class="st1" d="M443.8,284.5l-0.5-2.6c2.4-0.5,4.9-0.7,6.8-0.7c4.2,0,6.5,1.2,6.5,5.8v12.2h-3.2v-1.8c0,0,0,0-0.1,0
		c-1.7,1.5-3.3,2.1-5.6,2.1c-3.5,0-5.6-2.1-5.6-5.2c0-4,3.2-5.4,7.4-5.4h3.9v-1.8c0-2.3-1.2-3.4-4.1-3.4
		C448.1,283.8,446.4,284,443.8,284.5z M453.5,290.9h-3.7c-3.3,0-4.4,1.2-4.4,3.2c0,1.9,1.4,3,3.7,3c2,0,3.6-0.8,4.4-1.5V290.9z"/>
	<path class="st1" d="M469.1,281.2c2.2,0,3.9,0.3,6,0.8l-0.6,2.5c-2.8-0.7-4.2-0.7-5.4-0.7c-3.7,0-5.3,2.6-5.3,6.5s1.6,6.5,5.3,6.5
		c1.2,0,2.6,0,5.4-0.7l0.6,2.6c-2.1,0.5-3.8,0.8-6,0.8c-6.5,0-8.7-3.7-8.7-9.2S462.6,281.2,469.1,281.2z"/>
	<path class="st1" d="M480.1,283.8h-2.6v-2.1l2.6-0.2l0.4-4.9h2.8v4.9h4.9v2.3h-4.9v9.7c0,2.3,0.7,3.5,3,3.5c0.5,0,1.1-0.1,1.8-0.2
		l0.3,2.5c-1,0.1-2.3,0.2-3.2,0.2c-3.6,0-5.1-1.5-5.1-5.5V283.8z"/>
	<path class="st1" d="M497,281.6h4.2v2.3H497v15.4h-3.2v-15.4h-2.6v-2.1l2.6-0.2v-2.2c0-3.4,1.2-4.9,5.1-4.9c0.8,0,1.9,0.1,2.8,0.3
		l-0.3,2.5c-0.7-0.1-1.3-0.2-1.8-0.2c-2,0-2.6,0.6-2.6,2.5V281.6z"/>
	<path class="st1" d="M516.2,281.6h3.2v17.7h-3.2v-2.5h-0.1c-1.7,1.7-3.8,2.8-6.3,2.8c-3.5,0-5.3-2.1-5.3-5.8v-12.2h3.2V293
		c0,2.3,1,3.9,3.5,3.9c2,0,3.9-1.2,4.9-2V281.6z"/>
	<path class="st1" d="M523.7,274.5h3.2v24.7h-3.2V274.5z"/>
</g>
<g>
	<path class="st1" d="M17.7,349.3h-12v7.1h10.4v3H5.6v7.9h12.2v3H2.3v-24h15.4V349.3z"/>
	<path class="st1" d="M24.8,370.3h-3.2v-17.7h3.2v2.5h0.1c1.7-1.7,3.8-2.8,6.3-2.8c3.5,0,5.3,2.1,5.3,5.8v12.2h-3.2v-11.5
		c0-2.3-0.9-3.9-3.5-3.9c-2,0-3.9,1.2-4.9,2V370.3z"/>
	<path class="st1" d="M43.9,370.3h-3.2v-24.7h3.2v9.5H44c1.7-1.7,3.8-2.8,6.3-2.8c3.5,0,5.3,2.1,5.3,5.8v12.2h-3.2v-11.5
		c0-2.3-0.9-3.9-3.5-3.9c-2,0-3.9,1.2-4.9,2V370.3z"/>
	<path class="st1" d="M60.6,355.6l-0.5-2.6c2.4-0.5,4.9-0.7,6.8-0.7c4.2,0,6.5,1.2,6.5,5.8v12.2h-3.2v-1.8c0,0,0,0-0.1,0
		c-1.7,1.5-3.3,2.1-5.6,2.1c-3.5,0-5.6-2.1-5.6-5.2c0-4,3.2-5.4,7.4-5.4h3.9v-1.8c0-2.3-1.2-3.4-4.1-3.4
		C64.8,355,63.2,355.1,60.6,355.6z M70.2,362h-3.7c-3.3,0-4.4,1.2-4.4,3.2c0,1.9,1.4,3,3.7,3c2,0,3.6-0.8,4.4-1.5V362z"/>
	<path class="st1" d="M80.9,370.3h-3.2v-17.7h3.2v2.5H81c1.7-1.7,3.8-2.8,6.3-2.8c3.5,0,5.3,2.1,5.3,5.8v12.2h-3.2v-11.5
		c0-2.3-0.9-3.9-3.5-3.9c-2,0-3.9,1.2-4.9,2V370.3z"/>
	<path class="st1" d="M104.9,352.3c2.2,0,3.9,0.3,6,0.8l-0.6,2.5c-2.8-0.7-4.2-0.7-5.4-0.7c-3.7,0-5.3,2.6-5.3,6.5s1.6,6.5,5.3,6.5
		c1.2,0,2.6,0,5.4-0.7l0.6,2.6c-2.1,0.5-3.8,0.8-6,0.8c-6.5,0-8.7-3.7-8.7-9.2S98.5,352.3,104.9,352.3z"/>
	<path class="st1" d="M116.4,362c0.1,3.5,1.7,6,5.8,6c1.7,0,3.5-0.1,5.5-0.7l0.4,2.6c-2.2,0.6-4.1,0.8-6.4,0.8
		c-6.5,0-8.8-3.7-8.8-9.2s2.3-9.2,8.7-9.2c5.4,0,6.9,3.1,7.1,6.1c0.1,1.1,0,2.4-0.2,3.6H116.4z M116.4,360h9
		c0.1-0.6,0.2-1.3,0.1-1.9c-0.1-1.8-1.2-3.4-4-3.4C117.9,354.8,116.7,357,116.4,360z"/>
	<path class="st1" d="M140.5,355h-2.6v-2.1l2.6-0.2l0.4-4.9h2.8v4.9h4.9v2.3h-4.9v9.7c0,2.3,0.7,3.5,3,3.5c0.5,0,1.1-0.1,1.8-0.2
		l0.3,2.5c-1,0.1-2.3,0.2-3.2,0.2c-3.6,0-5.1-1.5-5.1-5.5V355z"/>
	<path class="st1" d="M155.4,370.3h-3.2v-24.7h3.2v9.5h0.1c1.7-1.7,3.8-2.8,6.3-2.8c3.5,0,5.3,2.1,5.3,5.8v12.2h-3.2v-11.5
		c0-2.3-0.9-3.9-3.5-3.9c-2,0-3.9,1.2-4.9,2V370.3z"/>
	<path class="st1" d="M174.2,362c0.1,3.5,1.7,6,5.8,6c1.7,0,3.5-0.1,5.5-0.7l0.4,2.6c-2.2,0.6-4.1,0.8-6.4,0.8
		c-6.5,0-8.8-3.7-8.8-9.2s2.3-9.2,8.7-9.2c5.4,0,6.9,3.1,7.1,6.1c0.1,1.1,0,2.4-0.2,3.6H174.2z M174.2,360h9
		c0.1-0.6,0.2-1.3,0.1-1.9c-0.1-1.8-1.2-3.4-4-3.4C175.7,354.8,174.4,357,174.2,360z"/>
	<path class="st1" d="M203.9,370.7c-2.8,0-5.5-0.2-7.6-0.8l0.6-2.6c2.8,0.7,5.4,0.8,6.7,0.8c3.2,0,3.7-1.9,3.7-2.6
		c0-1.2-0.8-2-4-2.6c-3.7-0.7-6.6-1.9-6.6-5.6c0-3.4,2.4-4.9,6.5-4.9c2.7,0,4.9,0.3,7.1,0.8l-0.6,2.5c-2.8-0.7-5-0.8-6.3-0.8
		c-3.2,0-3.5,1.7-3.5,2.3c0,1.1,0.6,2,3.8,2.7c3.7,0.8,6.8,1.8,6.8,5.4C210.5,368.8,208.1,370.7,203.9,370.7z"/>
	<path class="st1" d="M217.1,359.9l8.5-7.2h3.9l-6.7,6.1l7.1,11.5h-3.8l-5.5-9.7l-3.4,2.9v6.9H214v-24.7h3.2V359.9z"/>
	<path class="st1" d="M236.3,346.3v4.4h-3.2v-4.4H236.3z M236.3,352.7v17.7h-3.2v-17.7H236.3z"/>
	<path class="st1" d="M240.5,345.6h3.2v24.7h-3.2V345.6z"/>
	<path class="st1" d="M248,345.6h3.2v24.7H248V345.6z"/>
	<path class="st1" d="M262.1,370.7c-2.8,0-5.5-0.2-7.6-0.8l0.6-2.6c2.8,0.7,5.4,0.8,6.7,0.8c3.2,0,3.7-1.9,3.7-2.6
		c0-1.2-0.8-2-4-2.6c-3.7-0.7-6.6-1.9-6.6-5.6c0-3.4,2.4-4.9,6.5-4.9c2.7,0,4.9,0.3,7.1,0.8l-0.6,2.5c-2.8-0.7-5-0.8-6.3-0.8
		c-3.2,0-3.5,1.7-3.5,2.3c0,1.1,0.6,2,3.8,2.7c3.7,0.8,6.8,1.8,6.8,5.4C268.6,368.8,266.2,370.7,262.1,370.7z"/>
	<path class="st1" d="M278.7,361.5c0-5.5,2.2-9.2,8.1-9.2c5.9,0,8.1,3.7,8.1,9.2s-2.2,9.2-8.1,9.2
		C280.9,370.7,278.7,367,278.7,361.5z M282.1,361.5c0,3.7,1.1,6.5,4.8,6.5c3.7,0,4.8-2.8,4.8-6.5s-1.1-6.5-4.8-6.5
		C283.1,355,282.1,357.8,282.1,361.5z"/>
	<path class="st1" d="M303,352.7h4.2v2.3H303v15.4h-3.2V355h-2.6v-2.1l2.6-0.2v-2.2c0-3.4,1.2-4.9,5.1-4.9c0.8,0,1.9,0.1,2.8,0.3
		l-0.3,2.5c-0.7-0.1-1.3-0.2-1.8-0.2c-2,0-2.6,0.6-2.6,2.5V352.7z"/>
	<path class="st1" d="M317.3,361.5c0-5.5,2.2-9.2,8.1-9.2c5.9,0,8.1,3.7,8.1,9.2s-2.2,9.2-8.1,9.2
		C319.4,370.7,317.3,367,317.3,361.5z M320.6,361.5c0,3.7,1.1,6.5,4.8,6.5c3.7,0,4.8-2.8,4.8-6.5s-1.1-6.5-4.8-6.5
		C321.7,355,320.6,357.8,320.6,361.5z"/>
	<path class="st1" d="M348.9,352.7h3.2v17.7h-3.2v-2.5h-0.1c-1.7,1.7-3.8,2.8-6.3,2.8c-3.5,0-5.3-2.1-5.3-5.8v-12.2h3.2v11.5
		c0,2.3,1,3.9,3.5,3.9c2,0,3.9-1.2,4.9-2V352.7z"/>
	<path class="st1" d="M359.6,370.3h-3.2v-17.7h3.2v2.8h0.1c1.4-1.6,3.8-3.2,6.6-3.2v3c-2.6,0-5.3,1.1-6.7,2V370.3z"/>
	<path class="st1" d="M383.6,370.7c-2.8,0-5.5-0.2-7.6-0.8l0.6-2.6c2.8,0.7,5.4,0.8,6.7,0.8c3.2,0,3.7-1.9,3.7-2.6
		c0-1.2-0.8-2-4-2.6c-3.7-0.7-6.6-1.9-6.6-5.6c0-3.4,2.4-4.9,6.5-4.9c2.7,0,4.9,0.3,7.1,0.8l-0.6,2.5c-2.8-0.7-5-0.8-6.3-0.8
		c-3.2,0-3.5,1.7-3.5,2.3c0,1.1,0.6,2,3.8,2.7c3.7,0.8,6.8,1.8,6.8,5.4C390.1,368.8,387.7,370.7,383.6,370.7z"/>
	<path class="st1" d="M395.4,355h-2.6v-2.1l2.6-0.2l0.4-4.9h2.8v4.9h4.9v2.3h-4.9v9.7c0,2.3,0.7,3.5,3,3.5c0.5,0,1.1-0.1,1.8-0.2
		l0.3,2.5c-1,0.1-2.3,0.2-3.2,0.2c-3.6,0-5.1-1.5-5.1-5.5V355z"/>
	<path class="st1" d="M408.2,355.6l-0.5-2.6c2.4-0.5,4.9-0.7,6.8-0.7c4.2,0,6.5,1.2,6.5,5.8v12.2h-3.2v-1.8c0,0,0,0-0.1,0
		c-1.7,1.5-3.3,2.1-5.6,2.1c-3.5,0-5.6-2.1-5.6-5.2c0-4,3.2-5.4,7.4-5.4h3.9v-1.8c0-2.3-1.2-3.4-4.1-3.4
		C412.5,355,410.8,355.1,408.2,355.6z M417.9,362h-3.7c-3.3,0-4.4,1.2-4.4,3.2c0,1.9,1.4,3,3.7,3c2,0,3.6-0.8,4.4-1.5V362z"/>
	<path class="st1" d="M436.9,351.1c0-4,1.5-5.5,5.1-5.5c0.8,0,1.9,0.1,2.8,0.3l-0.3,2.5c-0.7-0.1-1.3-0.2-1.8-0.2
		c-2.1,0-2.6,1.2-2.6,3.5v1h4.6v2.3h-4.6v15.4h-3.2V355h-7.2v15.4h-3.2V355h-2.6v-2.1l2.6-0.2v-1.6c0-4,1.5-5.5,5.1-5.5
		c0.8,0,1.9,0.1,2.8,0.3l-0.3,2.5c-0.7-0.1-1.3-0.2-1.8-0.2c-2.1,0-2.6,1.2-2.6,3.5v1h7.2V351.1z"/>
	<path class="st1" d="M456.2,355h-2.6v-2.1l2.6-0.2l0.4-4.9h2.8v4.9h4.9v2.3h-4.9v9.7c0,2.3,0.7,3.5,3,3.5c0.5,0,1.1-0.1,1.8-0.2
		l0.3,2.5c-1,0.1-2.3,0.2-3.2,0.2c-3.6,0-5.1-1.5-5.1-5.5V355z"/>
	<path class="st1" d="M467,361.5c0-5.5,2.2-9.2,8.1-9.2c5.9,0,8.1,3.7,8.1,9.2s-2.2,9.2-8.1,9.2C469.1,370.7,467,367,467,361.5z
		 M470.3,361.5c0,3.7,1.1,6.5,4.8,6.5c3.7,0,4.8-2.8,4.8-6.5s-1.1-6.5-4.8-6.5C471.4,355,470.3,357.8,470.3,361.5z"/>
	<path class="st1" d="M496.9,362c0.1,3.5,1.7,6,5.8,6c1.7,0,3.5-0.1,5.5-0.7l0.4,2.6c-2.2,0.6-4.1,0.8-6.4,0.8
		c-6.5,0-8.8-3.7-8.8-9.2s2.3-9.2,8.7-9.2c5.4,0,6.9,3.1,7.1,6.1c0.1,1.1,0,2.4-0.2,3.6H496.9z M496.9,360h9
		c0.1-0.6,0.2-1.3,0.1-1.9c-0.1-1.8-1.2-3.4-4-3.4C498.4,354.8,497.1,357,496.9,360z"/>
	<path class="st1" d="M516,370.3h-3.2v-17.7h3.2v2.5h0.1c1.7-1.7,3.8-2.8,6.3-2.8c3.5,0,5.3,2.1,5.3,5.8v12.2h-3.2v-11.5
		c0-2.3-0.9-3.9-3.5-3.9c-2,0-3.9,1.2-4.9,2V370.3z"/>
	<path class="st1" d="M538.6,370.7c-2.8,0-5.5-0.2-7.6-0.8l0.6-2.6c2.8,0.7,5.4,0.8,6.7,0.8c3.2,0,3.7-1.9,3.7-2.6
		c0-1.2-0.8-2-4-2.6c-3.7-0.7-6.6-1.9-6.6-5.6c0-3.4,2.4-4.9,6.5-4.9c2.7,0,4.9,0.3,7.1,0.8l-0.6,2.5c-2.8-0.7-5-0.8-6.3-0.8
		c-3.2,0-3.5,1.7-3.5,2.3c0,1.1,0.6,2,3.8,2.7c3.7,0.8,6.8,1.8,6.8,5.4C545.1,368.8,542.7,370.7,538.6,370.7z"/>
	<path class="st1" d="M560.2,352.7h3.2v17.7h-3.2v-2.5h-0.1c-1.7,1.7-3.8,2.8-6.3,2.8c-3.5,0-5.3-2.1-5.3-5.8v-12.2h3.2v11.5
		c0,2.3,1,3.9,3.5,3.9c2,0,3.9-1.2,4.9-2V352.7z"/>
	<path class="st1" d="M570.9,370.3h-3.2v-17.7h3.2v2.8h0.1c1.4-1.6,3.8-3.2,6.6-3.2v3c-2.6,0-5.3,1.1-6.7,2V370.3z"/>
	<path class="st1" d="M583.5,362c0.1,3.5,1.7,6,5.8,6c1.7,0,3.5-0.1,5.5-0.7l0.4,2.6c-2.2,0.6-4.1,0.8-6.4,0.8
		c-6.5,0-8.8-3.7-8.8-9.2s2.3-9.2,8.7-9.2c5.4,0,6.9,3.1,7.1,6.1c0.1,1.1,0,2.4-0.2,3.6H583.5z M583.5,360h9
		c0.1-0.6,0.2-1.3,0.1-1.9c-0.1-1.8-1.2-3.4-4-3.4C585,354.8,583.7,357,583.5,360z"/>
</g>
<g>
	<path class="st1" d="M3.4,392.1H0.7V390l2.6-0.2l0.4-4.9h2.8v4.9h4.9v2.3H6.5v9.7c0,2.3,0.7,3.5,3,3.5c0.5,0,1.1-0.1,1.8-0.2
		l0.3,2.5c-1,0.1-2.3,0.2-3.2,0.2c-3.6,0-5.1-1.5-5.1-5.5V392.1z"/>
	<path class="st1" d="M18.3,407.4h-3.2v-24.7h3.2v9.5h0.1c1.7-1.7,3.8-2.8,6.3-2.8c3.5,0,5.3,2.1,5.3,5.8v12.2h-3.2v-11.5
		c0-2.3-0.9-3.9-3.5-3.9c-2,0-3.9,1.2-4.9,2V407.4z"/>
	<path class="st1" d="M37.1,399.1c0.1,3.5,1.7,6,5.8,6c1.7,0,3.5-0.1,5.5-0.7l0.4,2.6c-2.2,0.6-4.1,0.8-6.4,0.8
		c-6.5,0-8.8-3.7-8.8-9.2s2.3-9.2,8.7-9.2c5.4,0,6.9,3.1,7.1,6.1c0.1,1.1,0,2.4-0.2,3.6H37.1z M37.1,397.1h9
		c0.1-0.6,0.2-1.3,0.1-1.9c-0.1-1.8-1.2-3.4-4-3.4C38.6,391.9,37.3,394.1,37.1,397.1z"/>
	<path class="st1" d="M51.7,389.8h3.6l5.1,14.4h0.1l4.8-14.4h3.4L62,408.5c-1.6,4.6-3.7,6.4-7.1,6.4c-0.8,0-1.9-0.1-2.6-0.2l0.3-2.6
		c0.6,0.1,1.2,0.2,1.7,0.2c2.3,0,3.6-2.3,4.4-4.3L51.7,389.8z"/>
	<path class="st1" d="M82.2,407.4H79v-17.7h3.2v2.5h0.1c1.4-1.5,3.3-2.8,5.8-2.8c2.5,0,4.1,1.1,4.8,3.1c1.7-1.8,3.8-3.1,6.3-3.1
		c3.5,0,5.3,2.1,5.3,5.8v12.2h-3.2v-11.5c0-2.3-1-3.9-3.5-3.9c-1.8,0-3.4,1.2-4.5,2.1c0.1,0.6,0.1,1.2,0.1,1.9v11.3h-3.2v-11.6
		c-0.1-2.2-1-3.8-3.5-3.8c-1.9,0-3.4,1.2-4.4,2V407.4z"/>
	<path class="st1" d="M111.6,399.1c0.1,3.5,1.7,6,5.8,6c1.7,0,3.5-0.1,5.5-0.7l0.4,2.6c-2.2,0.6-4.1,0.8-6.4,0.8
		c-6.5,0-8.8-3.7-8.8-9.2s2.3-9.2,8.7-9.2c5.4,0,6.9,3.1,7.1,6.1c0.1,1.1,0,2.4-0.2,3.6H111.6z M111.6,397.1h9
		c0.1-0.6,0.2-1.3,0.1-1.9c-0.1-1.8-1.2-3.4-4-3.4C113.2,391.9,111.9,394.1,111.6,397.1z"/>
	<path class="st1" d="M130.5,399.1c0.1,3.5,1.7,6,5.8,6c1.7,0,3.5-0.1,5.5-0.7l0.4,2.6c-2.2,0.6-4.1,0.8-6.4,0.8
		c-6.5,0-8.8-3.7-8.8-9.2s2.3-9.2,8.7-9.2c5.4,0,6.9,3.1,7.1,6.1c0.1,1.1,0,2.4-0.2,3.6H130.5z M130.5,397.1h9
		c0.1-0.6,0.2-1.3,0.1-1.9c-0.1-1.8-1.2-3.4-4-3.4C132,391.9,130.8,394.1,130.5,397.1z"/>
	<path class="st1" d="M147.9,392.1h-2.6V390l2.6-0.2l0.4-4.9h2.8v4.9h4.9v2.3H151v9.7c0,2.3,0.7,3.5,3,3.5c0.5,0,1.1-0.1,1.8-0.2
		l0.3,2.5c-1,0.1-2.3,0.2-3.2,0.2c-3.6,0-5.1-1.5-5.1-5.5V392.1z"/>
	<path class="st1" d="M168.2,392.1h-2.6V390l2.6-0.2l0.4-4.9h2.8v4.9h4.9v2.3h-4.9v9.7c0,2.3,0.7,3.5,3,3.5c0.5,0,1.1-0.1,1.8-0.2
		l0.3,2.5c-1,0.1-2.3,0.2-3.2,0.2c-3.6,0-5.1-1.5-5.1-5.5V392.1z"/>
	<path class="st1" d="M183.1,407.4h-3.2v-24.7h3.2v9.5h0.1c1.7-1.7,3.8-2.8,6.3-2.8c3.5,0,5.3,2.1,5.3,5.8v12.2h-3.2v-11.5
		c0-2.3-0.9-3.9-3.5-3.9c-2,0-3.9,1.2-4.9,2V407.4z"/>
	<path class="st1" d="M201.9,399.1c0.1,3.5,1.7,6,5.8,6c1.7,0,3.5-0.1,5.5-0.7l0.4,2.6c-2.2,0.6-4.1,0.8-6.4,0.8
		c-6.5,0-8.8-3.7-8.8-9.2s2.3-9.2,8.7-9.2c5.4,0,6.9,3.1,7.1,6.1c0.1,1.1,0,2.4-0.2,3.6H201.9z M201.9,397.1h9
		c0.1-0.6,0.2-1.3,0.1-1.9c-0.1-1.8-1.2-3.4-4-3.4C203.4,391.9,202.1,394.1,201.9,397.1z"/>
	<path class="st1" d="M227.7,407.4h-3.2v-17.7h3.2v2.5h0.1c1.7-1.7,3.8-2.8,6.3-2.8c3.5,0,5.3,2.1,5.3,5.8v12.2h-3.2v-11.5
		c0-2.3-0.9-3.9-3.5-3.9c-2,0-3.9,1.2-4.9,2V407.4z"/>
	<path class="st1" d="M246.5,399.1c0.1,3.5,1.7,6,5.8,6c1.7,0,3.5-0.1,5.5-0.7l0.4,2.6c-2.2,0.6-4.1,0.8-6.4,0.8
		c-6.5,0-8.8-3.7-8.8-9.2s2.3-9.2,8.7-9.2c5.4,0,6.9,3.1,7.1,6.1c0.1,1.1,0,2.4-0.2,3.6H246.5z M246.5,397.1h9
		c0.1-0.6,0.2-1.3,0.1-1.9c-0.1-1.8-1.2-3.4-4-3.4C248.1,391.9,246.8,394.1,246.5,397.1z"/>
	<path class="st1" d="M265.4,399.1c0.1,3.5,1.7,6,5.8,6c1.7,0,3.5-0.1,5.5-0.7l0.4,2.6c-2.2,0.6-4.1,0.8-6.4,0.8
		c-6.5,0-8.8-3.7-8.8-9.2s2.3-9.2,8.7-9.2c5.4,0,6.9,3.1,7.1,6.1c0.1,1.1,0,2.4-0.2,3.6H265.4z M265.4,397.1h9
		c0.1-0.6,0.2-1.3,0.1-1.9c-0.1-1.8-1.2-3.4-4-3.4C266.9,391.9,265.7,394.1,265.4,397.1z"/>
	<path class="st1" d="M292.9,405.7C292.9,405.7,292.9,405.7,292.9,405.7c-1.3,1.2-3.4,2.1-5.5,2.1c-4.9,0-6.5-4.1-6.5-9.2
		s1.8-9.2,6.7-9.2c2,0,4,0.8,5.2,2c0,0,0,0,0.1,0v-8.8h3.2v24.7h-3.2V405.7z M288.7,405.1c1.9,0,3.5-0.9,4.2-1.5v-10.1
		c-0.7-0.6-2.3-1.5-4.2-1.5c-3.5,0-4.4,3-4.4,6.5S285.2,405.1,288.7,405.1z"/>
	<path class="st1" d="M307.1,407.8c-2.8,0-5.5-0.2-7.6-0.8l0.6-2.6c2.8,0.7,5.4,0.8,6.7,0.8c3.2,0,3.7-1.9,3.7-2.6
		c0-1.2-0.8-2-4-2.6c-3.7-0.7-6.6-1.9-6.6-5.6c0-3.4,2.4-4.9,6.5-4.9c2.7,0,4.9,0.3,7.1,0.8l-0.6,2.5c-2.8-0.7-5-0.8-6.3-0.8
		c-3.2,0-3.5,1.7-3.5,2.3c0,1.1,0.6,2,3.8,2.7c3.7,0.8,6.8,1.8,6.8,5.4C313.6,405.9,311.2,407.8,307.1,407.8z"/>
	<path class="st1" d="M323.6,398.6c0-5.5,2.2-9.2,8.1-9.2c5.9,0,8.1,3.7,8.1,9.2s-2.2,9.2-8.1,9.2
		C325.8,407.8,323.6,404.1,323.6,398.6z M327,398.6c0,3.7,1.1,6.5,4.8,6.5c3.7,0,4.8-2.8,4.8-6.5s-1.1-6.5-4.8-6.5
		C328.1,392.1,327,394.9,327,398.6z"/>
	<path class="st1" d="M347.9,389.8h4.2v2.3h-4.2v15.4h-3.2v-15.4h-2.6V390l2.6-0.2v-2.2c0-3.4,1.2-4.9,5.1-4.9
		c0.8,0,1.9,0.1,2.8,0.3l-0.3,2.5c-0.7-0.1-1.3-0.2-1.8-0.2c-2,0-2.6,0.6-2.6,2.5V389.8z"/>
	<path class="st1" d="M362.2,398.6c0-5.5,2.2-9.2,8.1-9.2c5.9,0,8.1,3.7,8.1,9.2s-2.2,9.2-8.1,9.2
		C364.4,407.8,362.2,404.1,362.2,398.6z M365.5,398.6c0,3.7,1.1,6.5,4.8,6.5c3.7,0,4.8-2.8,4.8-6.5s-1.1-6.5-4.8-6.5
		C366.6,392.1,365.5,394.9,365.5,398.6z"/>
	<path class="st1" d="M393.8,389.8h3.2v17.7h-3.2v-2.5h-0.1c-1.7,1.7-3.8,2.8-6.3,2.8c-3.5,0-5.3-2.1-5.3-5.8v-12.2h3.2v11.5
		c0,2.3,1,3.9,3.5,3.9c2,0,3.9-1.2,4.9-2V389.8z"/>
	<path class="st1" d="M404.5,407.4h-3.2v-17.7h3.2v2.8h0.1c1.4-1.6,3.8-3.2,6.6-3.2v3c-2.6,0-5.3,1.1-6.7,2V407.4z"/>
	<path class="st1" d="M429.7,389.4c2.2,0,3.9,0.3,6,0.8l-0.6,2.5c-2.8-0.7-4.2-0.7-5.4-0.7c-3.7,0-5.3,2.6-5.3,6.5s1.6,6.5,5.3,6.5
		c1.2,0,2.6,0,5.4-0.7l0.6,2.6c-2.1,0.5-3.8,0.8-6,0.8c-6.5,0-8.7-3.7-8.7-9.2S423.2,389.4,429.7,389.4z"/>
	<path class="st1" d="M450.4,389.8h3.2v17.7h-3.2v-2.5h-0.1c-1.7,1.7-3.8,2.8-6.3,2.8c-3.5,0-5.3-2.1-5.3-5.8v-12.2h3.2v11.5
		c0,2.3,1,3.9,3.5,3.9c2,0,3.9-1.2,4.9-2V389.8z"/>
	<path class="st1" d="M464.6,407.8c-2.8,0-5.5-0.2-7.6-0.8l0.6-2.6c2.8,0.7,5.4,0.8,6.7,0.8c3.2,0,3.7-1.9,3.7-2.6
		c0-1.2-0.8-2-4-2.6c-3.7-0.7-6.6-1.9-6.6-5.6c0-3.4,2.4-4.9,6.5-4.9c2.7,0,4.9,0.3,7.1,0.8l-0.6,2.5c-2.8-0.7-5-0.8-6.3-0.8
		c-3.2,0-3.5,1.7-3.5,2.3c0,1.1,0.6,2,3.8,2.7c3.7,0.8,6.8,1.8,6.8,5.4C471.1,405.9,468.7,407.8,464.6,407.8z"/>
	<path class="st1" d="M476.4,392.1h-2.6V390l2.6-0.2l0.4-4.9h2.8v4.9h4.9v2.3h-4.9v9.7c0,2.3,0.7,3.5,3,3.5c0.5,0,1.1-0.1,1.8-0.2
		l0.3,2.5c-1,0.1-2.3,0.2-3.2,0.2c-3.6,0-5.1-1.5-5.1-5.5V392.1z"/>
	<path class="st1" d="M487.2,398.6c0-5.5,2.2-9.2,8.1-9.2c5.9,0,8.1,3.7,8.1,9.2s-2.2,9.2-8.1,9.2
		C489.3,407.8,487.2,404.1,487.2,398.6z M490.5,398.6c0,3.7,1.1,6.5,4.8,6.5c3.7,0,4.8-2.8,4.8-6.5s-1.1-6.5-4.8-6.5
		C491.6,392.1,490.5,394.9,490.5,398.6z"/>
	<path class="st1" d="M510.4,407.4h-3.2v-17.7h3.2v2.5h0.1c1.4-1.5,3.3-2.8,5.8-2.8c2.5,0,4.1,1.1,4.8,3.1c1.7-1.8,3.8-3.1,6.3-3.1
		c3.5,0,5.3,2.1,5.3,5.8v12.2h-3.2v-11.5c0-2.3-1-3.9-3.5-3.9c-1.8,0-3.4,1.2-4.5,2.1c0.1,0.6,0.1,1.2,0.1,1.9v11.3h-3.2v-11.6
		c-0.1-2.2-1-3.8-3.5-3.8c-1.9,0-3.4,1.2-4.4,2V407.4z"/>
	<path class="st1" d="M539.8,399.1c0.1,3.5,1.7,6,5.8,6c1.7,0,3.5-0.1,5.5-0.7l0.4,2.6c-2.2,0.6-4.1,0.8-6.4,0.8
		c-6.5,0-8.8-3.7-8.8-9.2s2.3-9.2,8.7-9.2c5.4,0,6.9,3.1,7.1,6.1c0.1,1.1,0,2.4-0.2,3.6H539.8z M539.8,397.1h9
		c0.1-0.6,0.2-1.3,0.1-1.9c-0.1-1.8-1.2-3.4-4-3.4C541.3,391.9,540.1,394.1,539.8,397.1z"/>
	<path class="st1" d="M559,407.4h-3.2v-17.7h3.2v2.8h0.1c1.4-1.6,3.8-3.2,6.6-3.2v3c-2.6,0-5.3,1.1-6.7,2V407.4z"/>
	<path class="st1" d="M576,407.8c-2.8,0-5.5-0.2-7.6-0.8l0.6-2.6c2.8,0.7,5.4,0.8,6.7,0.8c3.2,0,3.7-1.9,3.7-2.6c0-1.2-0.8-2-4-2.6
		c-3.7-0.7-6.6-1.9-6.6-5.6c0-3.4,2.4-4.9,6.5-4.9c2.7,0,4.9,0.3,7.1,0.8l-0.6,2.5c-2.8-0.7-5-0.8-6.3-0.8c-3.2,0-3.5,1.7-3.5,2.3
		c0,1.1,0.6,2,3.8,2.7c3.7,0.8,6.8,1.8,6.8,5.4C582.5,405.9,580.1,407.8,576,407.8z"/>
</g>
<g>
	<path class="st1" d="M1.9,453.7l0.6-2.8c3.7,0.9,6.1,1.1,8.1,1.1c3.5,0,5.1-1.8,5.1-3.8c0-2.9-3.4-3.6-6-4.3
		c-3.9-1-7.4-3.2-7.4-7.2c0-4.6,3.7-6.4,8.3-6.4c2.6,0,5.1,0.4,8.1,1.2l-0.8,2.8c-3.6-0.9-5.4-1.1-7.3-1.1c-3.5,0-4.8,1.6-4.8,3.5
		c0,2.7,3.5,3.7,6.2,4.3c3.9,0.9,7.2,2.8,7.2,6.9c0,4.8-3.7,7.1-8.7,7.1C7.9,454.9,4.9,454.6,1.9,453.7z"/>
	<path class="st1" d="M34.7,436.9h3.2v17.7h-3.2v-2.5h-0.1c-1.7,1.7-3.8,2.8-6.3,2.8c-3.5,0-5.3-2.1-5.3-5.8v-12.2h3.2v11.5
		c0,2.3,1,3.9,3.5,3.9c2,0,3.9-1.2,4.9-2V436.9z"/>
	<path class="st1" d="M45.4,438.7L45.4,438.7c1.3-1.2,3.4-2.1,5.5-2.1c4.9,0,6.5,4.1,6.5,9.2s-1.8,9.2-6.7,9.2c-2,0-4-0.8-5.2-2
		h-0.1v8.7h-3.2v-24.7h3.2V438.7z M49.6,439.2c-1.9,0-3.5,0.9-4.2,1.5v10.1c0.7,0.6,2.3,1.5,4.2,1.5c3.4,0,4.4-3,4.4-6.5
		S53,439.2,49.6,439.2z"/>
	<path class="st1" d="M64.4,438.7L64.4,438.7c1.3-1.2,3.4-2.1,5.5-2.1c4.9,0,6.5,4.1,6.5,9.2s-1.8,9.2-6.7,9.2c-2,0-4-0.8-5.2-2
		h-0.1v8.7h-3.2v-24.7h3.2V438.7z M68.6,439.2c-1.9,0-3.5,0.9-4.2,1.5v10.1c0.7,0.6,2.3,1.5,4.2,1.5c3.4,0,4.4-3,4.4-6.5
		S72.1,439.2,68.6,439.2z"/>
	<path class="st1" d="M79.7,445.7c0-5.5,2.2-9.2,8.1-9.2c5.9,0,8.1,3.7,8.1,9.2s-2.2,9.2-8.1,9.2C81.9,454.9,79.7,451.2,79.7,445.7z
		 M83.1,445.7c0,3.7,1.1,6.5,4.8,6.5c3.7,0,4.8-2.8,4.8-6.5s-1.1-6.5-4.8-6.5C84.1,439.2,83.1,442,83.1,445.7z"/>
	<path class="st1" d="M103,454.6h-3.2v-17.7h3.2v2.8h0.1c1.4-1.6,3.8-3.2,6.6-3.2v3c-2.6,0-5.3,1.1-6.7,2V454.6z"/>
	<path class="st1" d="M115,439.2h-2.6v-2.1l2.6-0.2l0.4-4.9h2.8v4.9h4.9v2.3h-4.9v9.7c0,2.3,0.7,3.5,3,3.5c0.5,0,1.1-0.1,1.8-0.2
		l0.3,2.5c-1,0.1-2.3,0.2-3.2,0.2c-3.6,0-5.1-1.5-5.1-5.5V439.2z"/>
	<path class="st1" d="M133.5,445.7c0-5.5,2.2-9.2,8.1-9.2c5.9,0,8.1,3.7,8.1,9.2s-2.2,9.2-8.1,9.2
		C135.6,454.9,133.5,451.2,133.5,445.7z M136.8,445.7c0,3.7,1.1,6.5,4.8,6.5c3.7,0,4.8-2.8,4.8-6.5s-1.1-6.5-4.8-6.5
		C137.9,439.2,136.8,442,136.8,445.7z"/>
	<path class="st1" d="M165.1,436.9h3.2v17.7h-3.2v-2.5H165c-1.7,1.7-3.8,2.8-6.3,2.8c-3.5,0-5.3-2.1-5.3-5.8v-12.2h3.2v11.5
		c0,2.3,1,3.9,3.5,3.9c2,0,3.9-1.2,4.9-2V436.9z"/>
	<path class="st1" d="M175.8,454.6h-3.2v-17.7h3.2v2.8h0.1c1.4-1.6,3.8-3.2,6.6-3.2v3c-2.6,0-5.3,1.1-6.7,2V454.6z"/>
	<path class="st1" d="M199.8,454.9c-2.8,0-5.5-0.2-7.6-0.8l0.6-2.6c2.8,0.7,5.4,0.8,6.7,0.8c3.2,0,3.7-1.9,3.7-2.6
		c0-1.2-0.8-2-4-2.6c-3.7-0.7-6.6-1.9-6.6-5.6c0-3.4,2.4-4.9,6.5-4.9c2.7,0,4.9,0.3,7.1,0.8l-0.6,2.5c-2.8-0.7-5-0.8-6.3-0.8
		c-3.2,0-3.5,1.7-3.5,2.3c0,1.1,0.6,2,3.8,2.7c3.7,0.8,6.8,1.8,6.8,5.4C206.3,453.1,203.9,454.9,199.8,454.9z"/>
	<path class="st1" d="M211.6,439.2h-2.6v-2.1l2.6-0.2l0.4-4.9h2.8v4.9h4.9v2.3h-4.9v9.7c0,2.3,0.7,3.5,3,3.5c0.5,0,1.1-0.1,1.8-0.2
		l0.3,2.5c-1,0.1-2.3,0.2-3.2,0.2c-3.6,0-5.1-1.5-5.1-5.5V439.2z"/>
	<path class="st1" d="M224.4,439.9l-0.5-2.6c2.4-0.5,4.9-0.7,6.8-0.7c4.2,0,6.5,1.2,6.5,5.8v12.2H234v-1.8c0,0,0,0-0.1,0
		c-1.7,1.5-3.3,2.1-5.6,2.1c-3.5,0-5.6-2.1-5.6-5.2c0-4,3.2-5.4,7.4-5.4h3.9v-1.8c0-2.3-1.2-3.4-4.1-3.4
		C228.6,439.2,227,439.3,224.4,439.9z M234,446.3h-3.7c-3.3,0-4.4,1.2-4.4,3.2c0,1.9,1.4,3,3.7,3c2,0,3.6-0.8,4.4-1.5V446.3z"/>
	<path class="st1" d="M253.1,435.3c0-4,1.5-5.5,5.1-5.5c0.8,0,1.9,0.1,2.8,0.3l-0.3,2.5c-0.7-0.1-1.3-0.2-1.8-0.2
		c-2.1,0-2.6,1.2-2.6,3.5v1h4.6v2.3h-4.6v15.4h-3.2v-15.4h-7.2v15.4h-3.2v-15.4H240v-2.1l2.6-0.2v-1.6c0-4,1.5-5.5,5.1-5.5
		c0.8,0,1.9,0.1,2.8,0.3l-0.3,2.5c-0.7-0.1-1.3-0.2-1.8-0.2c-2.1,0-2.6,1.2-2.6,3.5v1h7.2V435.3z"/>
	<path class="st1" d="M272.3,439.2h-2.6v-2.1l2.6-0.2l0.4-4.9h2.8v4.9h4.9v2.3h-4.9v9.7c0,2.3,0.7,3.5,3,3.5c0.5,0,1.1-0.1,1.8-0.2
		l0.3,2.5c-1,0.1-2.3,0.2-3.2,0.2c-3.6,0-5.1-1.5-5.1-5.5V439.2z"/>
	<path class="st1" d="M283.1,445.7c0-5.5,2.2-9.2,8.1-9.2c5.9,0,8.1,3.7,8.1,9.2s-2.2,9.2-8.1,9.2
		C285.3,454.9,283.1,451.2,283.1,445.7z M286.5,445.7c0,3.7,1.1,6.5,4.8,6.5c3.7,0,4.8-2.8,4.8-6.5s-1.1-6.5-4.8-6.5
		C287.5,439.2,286.5,442,286.5,445.7z"/>
	<path class="st1" d="M311.3,439.2h-2.6v-2.1l2.6-0.2l0.4-4.9h2.8v4.9h4.9v2.3h-4.9v9.7c0,2.3,0.7,3.5,3,3.5c0.5,0,1.1-0.1,1.8-0.2
		l0.3,2.5c-1,0.1-2.3,0.2-3.2,0.2c-3.6,0-5.1-1.5-5.1-5.5V439.2z"/>
	<path class="st1" d="M326.2,454.6H323v-24.7h3.2v9.5h0.1c1.7-1.7,3.8-2.8,6.3-2.8c3.5,0,5.3,2.1,5.3,5.8v12.2h-3.2v-11.5
		c0-2.3-0.9-3.9-3.5-3.9c-2,0-3.9,1.2-4.9,2V454.6z"/>
	<path class="st1" d="M345.4,454.6h-3.2v-17.7h3.2v2.8h0.1c1.4-1.6,3.8-3.2,6.6-3.2v3c-2.6,0-5.3,1.1-6.7,2V454.6z"/>
	<path class="st1" d="M358.5,430.5v4.4h-3.2v-4.4H358.5z M358.5,436.9v17.7h-3.2v-17.7H358.5z"/>
	<path class="st1" d="M368.3,454.7l-6.5-17.8h3.6l4.9,14.3h0.1l5-14.3h3.4l-6.6,17.8H368.3z"/>
	<path class="st1" d="M384.3,446.3c0.1,3.5,1.7,6,5.8,6c1.7,0,3.5-0.1,5.5-0.7l0.4,2.6c-2.2,0.6-4.1,0.8-6.4,0.8
		c-6.5,0-8.8-3.7-8.8-9.2s2.3-9.2,8.7-9.2c5.4,0,6.9,3.1,7.1,6.1c0.1,1.1,0,2.4-0.2,3.6H384.3z M384.3,444.2h9
		c0.1-0.6,0.2-1.3,0.1-1.9c-0.1-1.8-1.2-3.4-4-3.4C385.9,439,384.6,441.3,384.3,444.2z"/>
	<path class="st1" d="M410.2,430.5v4.4H407v-4.4H410.2z M410.2,436.9v17.7H407v-17.7H410.2z"/>
	<path class="st1" d="M417.7,454.6h-3.2v-17.7h3.2v2.5h0.1c1.7-1.7,3.8-2.8,6.3-2.8c3.5,0,5.3,2.1,5.3,5.8v12.2h-3.2v-11.5
		c0-2.3-0.9-3.9-3.5-3.9c-2,0-3.9,1.2-4.9,2V454.6z"/>
	<path class="st1" d="M441.4,439.9l-0.5-2.6c2.4-0.5,4.9-0.7,6.8-0.7c4.2,0,6.5,1.2,6.5,5.8v12.2H451v-1.8c0,0,0,0-0.1,0
		c-1.7,1.5-3.3,2.1-5.6,2.1c-3.5,0-5.6-2.1-5.6-5.2c0-4,3.2-5.4,7.4-5.4h3.9v-1.8c0-2.3-1.2-3.4-4.1-3.4
		C445.6,439.2,444,439.3,441.4,439.9z M451,446.3h-3.7c-3.3,0-4.4,1.2-4.4,3.2c0,1.9,1.4,3,3.7,3c2,0,3.6-0.8,4.4-1.5V446.3z"/>
</g>
<g>
	<path class="st1" d="M10.2,473.7c2.2,0,3.9,0.3,6,0.8l-0.6,2.5c-2.8-0.7-4.2-0.7-5.4-0.7c-3.7,0-5.3,2.6-5.3,6.5s1.6,6.5,5.3,6.5
		c1.2,0,2.6,0,5.4-0.7l0.6,2.6c-2.1,0.5-3.8,0.8-6,0.8c-6.5,0-8.7-3.7-8.7-9.2S3.8,473.7,10.2,473.7z"/>
	<path class="st1" d="M22.4,491.7h-3.2V467h3.2v9.5h0.1c1.7-1.7,3.8-2.8,6.3-2.8c3.5,0,5.3,2.1,5.3,5.8v12.2h-3.2v-11.5
		c0-2.3-0.9-3.9-3.5-3.9c-2,0-3.9,1.2-4.9,2V491.7z"/>
	<path class="st1" d="M39,477l-0.5-2.6c2.4-0.5,4.9-0.7,6.8-0.7c4.2,0,6.5,1.2,6.5,5.8v12.2h-3.2v-1.8c0,0,0,0-0.1,0
		c-1.7,1.5-3.3,2.1-5.6,2.1c-3.5,0-5.6-2.1-5.6-5.2c0-4,3.2-5.4,7.4-5.4h3.9v-1.8c0-2.3-1.2-3.4-4.1-3.4
		C43.3,476.3,41.7,476.5,39,477z M48.7,483.4H45c-3.3,0-4.4,1.2-4.4,3.2c0,1.9,1.4,3,3.7,3c2,0,3.6-0.8,4.4-1.5V483.4z"/>
	<path class="st1" d="M56.2,467h3.2v24.7h-3.2V467z"/>
	<path class="st1" d="M63.7,467h3.2v24.7h-3.2V467z"/>
	<path class="st1" d="M74.1,483.4c0.1,3.5,1.7,6,5.8,6c1.7,0,3.5-0.1,5.5-0.7l0.4,2.6c-2.2,0.6-4.1,0.8-6.4,0.8
		c-6.5,0-8.8-3.7-8.8-9.2s2.3-9.2,8.7-9.2c5.4,0,6.9,3.1,7.1,6.1c0.1,1.1,0,2.4-0.2,3.6H74.1z M74.1,481.4h9
		c0.1-0.6,0.2-1.3,0.1-1.9c-0.1-1.8-1.2-3.4-4-3.4C75.6,476.1,74.3,478.4,74.1,481.4z"/>
	<path class="st1" d="M93.2,491.7H90V474h3.2v2.5h0.1c1.7-1.7,3.8-2.8,6.3-2.8c3.5,0,5.3,2.1,5.3,5.8v12.2h-3.2v-11.5
		c0-2.3-0.9-3.9-3.5-3.9c-2,0-3.9,1.2-4.9,2V491.7z"/>
	<path class="st1" d="M110.8,490.5c-1-0.5-1.4-1.4-1.3-2.4c0-1.2,0.8-2.5,2.3-3.4v-0.1c-1.8-0.9-2.9-2.6-2.9-4.9c0-3.9,2.8-6,7.2-6
		c1,0,1.8,0.2,2.4,0.4h6.2v1.9h-3.4c1.4,1,1.7,2.5,1.7,3.7c0,4-3,5.8-7,5.8c-1,0-2-0.2-2.6-0.4c-0.3,0.3-0.5,0.7-0.7,1
		c-0.5,1.1-0.4,2.3,1,2.3l6.4,0.4c3.6,0.2,5.2,1.7,5.2,4.1c0,4.1-3.2,6.2-10.2,6.2c-4.8,0-7.2-1.4-7.2-4.6
		C107.8,492.9,108.7,491.7,110.8,490.5L110.8,490.5z M115.6,497c3.4,0,6.3-1.1,6.3-3.5c0-1.1-0.7-2-2.9-2.1l-6.5-0.4
		c-1.1,0.8-2,1.5-2,2.9C110.4,495.9,112.2,497,115.6,497z M120.1,479.7c0-2.4-1.6-3.9-4.1-3.9c-2.8,0-4.2,1.5-4.2,3.9
		c0,2.4,1.6,3.7,4.2,3.7C118.5,483.4,120.1,482,120.1,479.7z"/>
	<path class="st1" d="M131.5,467.7v4.4h-3.2v-4.4H131.5z M131.5,474v17.7h-3.2V474H131.5z"/>
	<path class="st1" d="M139,491.7h-3.2V474h3.2v2.5h0.1c1.7-1.7,3.8-2.8,6.3-2.8c3.5,0,5.3,2.1,5.3,5.8v12.2h-3.2v-11.5
		c0-2.3-0.9-3.9-3.5-3.9c-2,0-3.9,1.2-4.9,2V491.7z"/>
	<path class="st1" d="M156.6,490.5c-1-0.5-1.4-1.4-1.3-2.4c0-1.2,0.8-2.5,2.3-3.4v-0.1c-1.8-0.9-2.9-2.6-2.9-4.9c0-3.9,2.8-6,7.2-6
		c1,0,1.8,0.2,2.4,0.4h6.2v1.9h-3.4c1.4,1,1.7,2.5,1.7,3.7c0,4-3,5.8-7,5.8c-1,0-2-0.2-2.6-0.4c-0.3,0.3-0.5,0.7-0.7,1
		c-0.5,1.1-0.4,2.3,1,2.3l6.4,0.4c3.6,0.2,5.2,1.7,5.2,4.1c0,4.1-3.2,6.2-10.2,6.2c-4.8,0-7.2-1.4-7.2-4.6
		C153.6,492.9,154.5,491.7,156.6,490.5L156.6,490.5z M161.4,497c3.4,0,6.3-1.1,6.3-3.5c0-1.1-0.7-2-2.9-2.1l-6.5-0.4
		c-1.1,0.8-2,1.5-2,2.9C156.2,495.9,158,497,161.4,497z M165.9,479.7c0-2.4-1.6-3.9-4.1-3.9c-2.8,0-4.2,1.5-4.2,3.9
		c0,2.4,1.6,3.7,4.2,3.7C164.3,483.4,165.9,482,165.9,479.7z"/>
	<path class="st1" d="M182.2,477l-0.5-2.6c2.4-0.5,4.9-0.7,6.8-0.7c4.2,0,6.5,1.2,6.5,5.8v12.2h-3.2v-1.8c0,0,0,0-0.1,0
		c-1.7,1.5-3.3,2.1-5.6,2.1c-3.5,0-5.6-2.1-5.6-5.2c0-4,3.2-5.4,7.4-5.4h3.9v-1.8c0-2.3-1.2-3.4-4.1-3.4
		C186.5,476.3,184.8,476.5,182.2,477z M191.9,483.4h-3.7c-3.3,0-4.4,1.2-4.4,3.2c0,1.9,1.4,3,3.7,3c2,0,3.6-0.8,4.4-1.5V483.4z"/>
	<path class="st1" d="M202.5,491.7h-3.2V474h3.2v2.5h0.1c1.7-1.7,3.8-2.8,6.3-2.8c3.5,0,5.3,2.1,5.3,5.8v12.2H211v-11.5
		c0-2.3-0.9-3.9-3.5-3.9c-2,0-3.9,1.2-4.9,2V491.7z"/>
	<path class="st1" d="M230,489.9C230,489.9,230,489.9,230,489.9c-1.3,1.2-3.4,2.1-5.5,2.1c-4.9,0-6.5-4.1-6.5-9.2s1.8-9.2,6.7-9.2
		c2,0,4,0.8,5.2,2c0,0,0,0,0.1,0V467h3.2v24.7H230V489.9z M225.8,489.4c1.9,0,3.5-0.9,4.2-1.5v-10.1c-0.7-0.6-2.3-1.5-4.2-1.5
		c-3.5,0-4.4,3-4.4,6.5S222.3,489.4,225.8,489.4z"/>
	<path class="st1" d="M252.4,473.7c2.2,0,3.9,0.3,6,0.8l-0.6,2.5c-2.8-0.7-4.2-0.7-5.4-0.7c-3.7,0-5.3,2.6-5.3,6.5s1.6,6.5,5.3,6.5
		c1.2,0,2.6,0,5.4-0.7l0.6,2.6c-2.1,0.5-3.8,0.8-6,0.8c-6.5,0-8.7-3.7-8.7-9.2S245.9,473.7,252.4,473.7z"/>
	<path class="st1" d="M262.4,477l-0.5-2.6c2.4-0.5,4.9-0.7,6.8-0.7c4.2,0,6.5,1.2,6.5,5.8v12.2h-3.2v-1.8c0,0,0,0-0.1,0
		c-1.7,1.5-3.3,2.1-5.6,2.1c-3.5,0-5.6-2.1-5.6-5.2c0-4,3.2-5.4,7.4-5.4h3.9v-1.8c0-2.3-1.2-3.4-4.1-3.4
		C266.7,476.3,265,476.5,262.4,477z M272.1,483.4h-3.7c-3.3,0-4.4,1.2-4.4,3.2c0,1.9,1.4,3,3.7,3c2,0,3.6-0.8,4.4-1.5V483.4z"/>
	<path class="st1" d="M282.7,491.7h-3.2V474h3.2v2.8h0.1c1.4-1.6,3.8-3.2,6.6-3.2v3c-2.6,0-5.3,1.1-6.7,2V491.7z"/>
	<path class="st1" d="M295.9,467.7v4.4h-3.2v-4.4H295.9z M295.9,474v17.7h-3.2V474H295.9z"/>
	<path class="st1" d="M303.3,491.7h-3.2V474h3.2v2.5h0.1c1.7-1.7,3.8-2.8,6.3-2.8c3.5,0,5.3,2.1,5.3,5.8v12.2h-3.2v-11.5
		c0-2.3-0.9-3.9-3.5-3.9c-2,0-3.9,1.2-4.9,2V491.7z"/>
	<path class="st1" d="M320.9,490.5c-1-0.5-1.4-1.4-1.3-2.4c0-1.2,0.8-2.5,2.3-3.4v-0.1c-1.8-0.9-2.9-2.6-2.9-4.9c0-3.9,2.8-6,7.2-6
		c1,0,1.8,0.2,2.4,0.4h6.2v1.9h-3.4c1.4,1,1.7,2.5,1.7,3.7c0,4-3,5.8-7,5.8c-1,0-2-0.2-2.6-0.4c-0.3,0.3-0.5,0.7-0.7,1
		c-0.5,1.1-0.4,2.3,1,2.3l6.4,0.4c3.6,0.2,5.2,1.7,5.2,4.1c0,4.1-3.2,6.2-10.2,6.2c-4.8,0-7.2-1.4-7.2-4.6
		C317.9,492.9,318.8,491.7,320.9,490.5L320.9,490.5z M325.7,497c3.4,0,6.3-1.1,6.3-3.5c0-1.1-0.7-2-2.9-2.1l-6.5-0.4
		c-1.1,0.8-2,1.5-2,2.9C320.5,495.9,322.3,497,325.7,497z M330.3,479.7c0-2.4-1.6-3.9-4.1-3.9c-2.8,0-4.2,1.5-4.2,3.9
		c0,2.4,1.6,3.7,4.2,3.7C328.7,483.4,330.3,482,330.3,479.7z"/>
	<path class="st1" d="M348.5,483.4c0.1,3.5,1.7,6,5.8,6c1.7,0,3.5-0.1,5.5-0.7l0.4,2.6c-2.2,0.6-4.1,0.8-6.4,0.8
		c-6.5,0-8.8-3.7-8.8-9.2s2.3-9.2,8.7-9.2c5.4,0,6.9,3.1,7.1,6.1c0.1,1.1,0,2.4-0.2,3.6H348.5z M348.5,481.4h9
		c0.1-0.6,0.2-1.3,0.1-1.9c-0.1-1.8-1.2-3.4-4-3.4C350,476.1,348.7,478.4,348.5,481.4z"/>
	<path class="st1" d="M367.6,491.7h-3.2V474h3.2v2.5h0.1c1.7-1.7,3.8-2.8,6.3-2.8c3.5,0,5.3,2.1,5.3,5.8v12.2h-3.2v-11.5
		c0-2.3-0.9-3.9-3.5-3.9c-2,0-3.9,1.2-4.9,2V491.7z"/>
	<path class="st1" d="M388.5,491.9L382,474h3.6l4.9,14.3h0.1l5-14.3h3.4l-6.6,17.8H388.5z"/>
	<path class="st1" d="M405.5,467.7v4.4h-3.2v-4.4H405.5z M405.5,474v17.7h-3.2V474H405.5z"/>
	<path class="st1" d="M412.9,491.7h-3.2V474h3.2v2.8h0.1c1.4-1.6,3.8-3.2,6.6-3.2v3c-2.6,0-5.3,1.1-6.7,2V491.7z"/>
	<path class="st1" d="M422.2,482.8c0-5.5,2.2-9.2,8.1-9.2c5.9,0,8.1,3.7,8.1,9.2s-2.2,9.2-8.1,9.2
		C424.3,492,422.2,488.3,422.2,482.8z M425.5,482.8c0,3.7,1.1,6.5,4.8,6.5c3.7,0,4.8-2.8,4.8-6.5s-1.1-6.5-4.8-6.5
		C426.6,476.3,425.5,479.1,425.5,482.8z"/>
	<path class="st1" d="M445.4,491.7h-3.2V474h3.2v2.5h0.1c1.7-1.7,3.8-2.8,6.3-2.8c3.5,0,5.3,2.1,5.3,5.8v12.2h-3.2v-11.5
		c0-2.3-0.9-3.9-3.5-3.9c-2,0-3.9,1.2-4.9,2V491.7z"/>
	<path class="st1" d="M464.5,491.7h-3.2V474h3.2v2.5h0.1c1.4-1.5,3.3-2.8,5.8-2.8c2.5,0,4.1,1.1,4.8,3.1c1.7-1.8,3.8-3.1,6.3-3.1
		c3.5,0,5.3,2.1,5.3,5.8v12.2h-3.2v-11.5c0-2.3-1-3.9-3.5-3.9c-1.8,0-3.4,1.2-4.5,2.1c0.1,0.6,0.1,1.2,0.1,1.9v11.3h-3.2v-11.6
		c-0.1-2.2-1-3.8-3.5-3.8c-1.9,0-3.4,1.2-4.4,2V491.7z"/>
	<path class="st1" d="M494,483.4c0.1,3.5,1.7,6,5.8,6c1.7,0,3.5-0.1,5.5-0.7l0.4,2.6c-2.2,0.6-4.1,0.8-6.4,0.8
		c-6.5,0-8.8-3.7-8.8-9.2s2.3-9.2,8.7-9.2c5.4,0,6.9,3.1,7.1,6.1c0.1,1.1,0,2.4-0.2,3.6H494z M494,481.4h9c0.1-0.6,0.2-1.3,0.1-1.9
		c-0.1-1.8-1.2-3.4-4-3.4C495.5,476.1,494.2,478.4,494,481.4z"/>
	<path class="st1" d="M513.1,491.7H510V474h3.2v2.5h0.1c1.7-1.7,3.8-2.8,6.3-2.8c3.5,0,5.3,2.1,5.3,5.8v12.2h-3.2v-11.5
		c0-2.3-0.9-3.9-3.5-3.9c-2,0-3.9,1.2-4.9,2V491.7z"/>
	<path class="st1" d="M530.3,476.3h-2.6v-2.1l2.6-0.2l0.4-4.9h2.8v4.9h4.9v2.3h-4.9v9.7c0,2.3,0.7,3.5,3,3.5c0.5,0,1.1-0.1,1.8-0.2
		l0.3,2.5c-1,0.1-2.3,0.2-3.2,0.2c-3.6,0-5.1-1.5-5.1-5.5V476.3z"/>
</g>
<g>
	<path class="st1" d="M5.1,504.8v4.4H1.9v-4.4H5.1z M5.1,511.1v17.7H1.9v-17.7H5.1z"/>
	<path class="st1" d="M12.6,528.8H9.4v-17.7h3.2v2.5h0.1c1.7-1.7,3.8-2.8,6.3-2.8c3.5,0,5.3,2.1,5.3,5.8v12.2H21v-11.5
		c0-2.3-0.9-3.9-3.5-3.9c-2,0-3.9,1.2-4.9,2V528.8z"/>
	<path class="st1" d="M35.1,504.1h3.2v24.7h-3.2V504.1z"/>
	<path class="st1" d="M45.8,504.8v4.4h-3.2v-4.4H45.8z M45.8,511.1v17.7h-3.2v-17.7H45.8z"/>
	<path class="st1" d="M53.2,528.8H50v-17.7h3.2v2.5h0.1c1.7-1.7,3.8-2.8,6.3-2.8c3.5,0,5.3,2.1,5.3,5.8v12.2h-3.2v-11.5
		c0-2.3-0.9-3.9-3.5-3.9c-2,0-3.9,1.2-4.9,2V528.8z"/>
	<path class="st1" d="M72,520.5c0.1,3.5,1.7,6,5.8,6c1.7,0,3.5-0.1,5.5-0.7l0.4,2.6c-2.2,0.6-4.1,0.8-6.4,0.8
		c-6.5,0-8.8-3.7-8.8-9.2s2.3-9.2,8.7-9.2c5.4,0,6.9,3.1,7.1,6.1c0.1,1.1,0,2.4-0.2,3.6H72z M72,518.5h9c0.1-0.6,0.2-1.3,0.1-1.9
		c-0.1-1.8-1.2-3.4-4-3.4C73.5,513.3,72.3,515.5,72,518.5z"/>
	<path class="st1" d="M106.6,516l-3.6,12.9h-3.5l-5.4-17.8h3.5l3.9,14.3h0.1l3.5-14.3h3.1l3.7,14.3h0.1l3.7-14.3h3.4l-5.3,17.8h-3.5
		L106.6,516L106.6,516z"/>
	<path class="st1" d="M125.8,504.8v4.4h-3.2v-4.4H125.8z M125.8,511.1v17.7h-3.2v-17.7H125.8z"/>
	<path class="st1" d="M131.4,513.4h-2.6v-2.1l2.6-0.2l0.4-4.9h2.8v4.9h4.9v2.3h-4.9v9.7c0,2.3,0.7,3.5,3,3.5c0.5,0,1.1-0.1,1.8-0.2
		l0.3,2.5c-1,0.1-2.3,0.2-3.2,0.2c-3.6,0-5.1-1.5-5.1-5.5V513.4z"/>
	<path class="st1" d="M146.3,528.8h-3.2v-24.7h3.2v9.5h0.1c1.7-1.7,3.8-2.8,6.3-2.8c3.5,0,5.3,2.1,5.3,5.8v12.2h-3.2v-11.5
		c0-2.3-0.9-3.9-3.5-3.9c-2,0-3.9,1.2-4.9,2V528.8z"/>
	<path class="st1" d="M168.6,520c0-5.5,2.2-9.2,8.1-9.2c5.9,0,8.1,3.7,8.1,9.2s-2.2,9.2-8.1,9.2C170.7,529.1,168.6,525.4,168.6,520z
		 M171.9,520c0,3.7,1.1,6.5,4.8,6.5c3.7,0,4.8-2.8,4.8-6.5s-1.1-6.5-4.8-6.5C173,513.4,171.9,516.3,171.9,520z"/>
	<path class="st1" d="M200.2,511.1h3.2v17.7h-3.2v-2.5h-0.1c-1.7,1.7-3.8,2.8-6.3,2.8c-3.5,0-5.3-2.1-5.3-5.8v-12.2h3.2v11.5
		c0,2.3,1,3.9,3.5,3.9c2,0,3.9-1.2,4.9-2V511.1z"/>
	<path class="st1" d="M210.9,528.8h-3.2v-17.7h3.2v2.8h0.1c1.4-1.6,3.8-3.2,6.6-3.2v3c-2.6,0-5.3,1.1-6.7,2V528.8z"/>
	<path class="st1" d="M233.8,529l-6.5-17.8h3.6l4.9,14.3h0.1l5-14.3h3.4l-6.6,17.8H233.8z"/>
	<path class="st1" d="M248.4,514.1l-0.5-2.6c2.4-0.5,4.9-0.7,6.8-0.7c4.2,0,6.5,1.2,6.5,5.8v12.2h-3.2V527c0,0,0,0-0.1,0
		c-1.7,1.5-3.3,2.1-5.6,2.1c-3.5,0-5.6-2.1-5.6-5.2c0-4,3.2-5.4,7.4-5.4h3.9v-1.8c0-2.3-1.2-3.4-4.1-3.4
		C252.6,513.4,251,513.6,248.4,514.1z M258.1,520.5h-3.7c-3.3,0-4.4,1.2-4.4,3.2c0,1.9,1.4,3,3.7,3c2,0,3.6-0.8,4.4-1.5V520.5z"/>
	<path class="st1" d="M265.5,504.1h3.2v24.7h-3.2V504.1z"/>
	<path class="st1" d="M284.6,511.1h3.2v17.7h-3.2v-2.5h-0.1c-1.7,1.7-3.8,2.8-6.3,2.8c-3.5,0-5.3-2.1-5.3-5.8v-12.2h3.2v11.5
		c0,2.3,1,3.9,3.5,3.9c2,0,3.9-1.2,4.9-2V511.1z"/>
	<path class="st1" d="M295.1,520.5c0.1,3.5,1.7,6,5.8,6c1.7,0,3.5-0.1,5.5-0.7l0.4,2.6c-2.2,0.6-4.1,0.8-6.4,0.8
		c-6.5,0-8.8-3.7-8.8-9.2s2.3-9.2,8.7-9.2c5.4,0,6.9,3.1,7.1,6.1c0.1,1.1,0,2.4-0.2,3.6H295.1z M295.1,518.5h9
		c0.1-0.6,0.2-1.3,0.1-1.9c-0.1-1.8-1.2-3.4-4-3.4C296.6,513.3,295.3,515.5,295.1,518.5z"/>
	<path class="st1" d="M317.8,529.1c-2.8,0-5.5-0.2-7.6-0.8l0.6-2.6c2.8,0.7,5.4,0.8,6.7,0.8c3.2,0,3.7-1.9,3.7-2.6
		c0-1.2-0.8-2-4-2.6c-3.7-0.7-6.6-1.9-6.6-5.6c0-3.4,2.4-4.9,6.5-4.9c2.7,0,4.9,0.3,7.1,0.8l-0.6,2.5c-2.8-0.7-5-0.8-6.3-0.8
		c-3.2,0-3.5,1.7-3.5,2.3c0,1.1,0.6,2,3.8,2.7c3.7,0.8,6.8,1.8,6.8,5.4C324.4,527.3,322,529.1,317.8,529.1z"/>
</g>
</svg>
