<!-- Generator: Adobe Illustrator 19.2.1, SVG Export Plug-In  -->
<svg version="1.1"
	 xmlns="http://www.w3.org/2000/svg" xmlns:xlink="http://www.w3.org/1999/xlink" xmlns:a="http://ns.adobe.com/AdobeSVGViewerExtensions/3.0/"
	 x="0px" y="0px" width="703.2px" height="522.7px" viewBox="0 0 703.2 522.7" style="enable-background:new 0 0 703.2 522.7;"
	 xml:space="preserve">
<style type="text/css">
	.st0{fill:none;stroke:#FFFFFF;stroke-miterlimit:10;}
	.st1{fill:#FFFFFF;}
</style>
<defs>
</defs>
<line class="st0" x1="0" y1="248.6" x2="703.2" y2="248.6"/>
<line class="st0" x1="0" y1="319.7" x2="703.2" y2="319.7"/>
<line class="st0" x1="0" y1="522.2" x2="703.2" y2="522.2"/>
<g>
	<path class="st1" d="M12.7,16.8H29V2h9.2v38.7H29V25.4H12.7v15.2H3.5V2h9.2V16.8z"/>
	<path class="st1" d="M72,27.1c0,8.2-6.2,14.3-14.7,14.3c-8.5,0-14.7-6.1-14.7-14.3s6.2-14.3,14.7-14.3C65.7,12.8,72,18.9,72,27.1z
		 M51.4,27.1c0,3.6,2.5,6.2,5.9,6.2c3.4,0,5.9-2.6,5.9-6.2s-2.5-6.2-5.9-6.2C53.9,20.9,51.4,23.4,51.4,27.1z"/>
	<path class="st1" d="M105.9,30.8l5.3-17.3h9.1l-9.3,27.1h-9.6L96,24.4l-5.2,16.2h-9.6l-9.4-27.1H81l5.2,17.2l5.5-17.2h8.6
		L105.9,30.8z"/>
	<path class="st1" d="M166.7,30.8l5.3-17.3h9.1l-9.3,27.1h-9.6l-5.3-16.2l-5.2,16.2H142l-9.4-27.1h9.2l5.2,17.2l5.5-17.2h8.6
		L166.7,30.8z"/>
	<path class="st1" d="M208.4,27.1c0,0.9-0.1,2.1-0.2,2.7h-18.4c0.7,3,2.8,4.3,5.8,4.3c2,0,4.2-0.8,5.9-2.4l5.6,5.2
		c-2.8,2.8-6.9,4.4-11.9,4.4c-8.5,0-14.3-5.7-14.3-14.1c0-8.5,5.7-14.4,13.9-14.4C202.9,12.8,208.4,18.6,208.4,27.1z M189.9,24.3
		h9.9c-0.7-2.7-2.4-4.1-4.9-4.1C192.2,20.1,190.6,21.6,189.9,24.3z"/>
	<path class="st1" d="M222.3,0.9l-4.4,18h-7.2l2.2-18H222.3z"/>
	<path class="st1" d="M243.3,13.2l-0.8,8.6c-1.2-0.4-2.8-0.7-4.3-0.7c-3.1,0-4.9,1.5-4.9,4.9v14.6h-8.6V13.5h8.3v3.1
		c1.6-2.6,4.1-3.9,7.4-3.9C241.5,12.8,242.6,13,243.3,13.2z"/>
	<path class="st1" d="M271.7,27.1c0,0.9-0.1,2.1-0.2,2.7h-18.4c0.7,3,2.8,4.3,5.8,4.3c2,0,4.2-0.8,5.9-2.4l5.6,5.2
		c-2.8,2.8-6.9,4.4-11.9,4.4c-8.5,0-14.3-5.7-14.3-14.1c0-8.5,5.7-14.4,13.9-14.4C266.2,12.8,271.7,18.6,271.7,27.1z M253.2,24.3
		h9.9c-0.7-2.7-2.4-4.1-4.9-4.1C255.5,20.1,253.9,21.6,253.2,24.3z"/>
	<path class="st1" d="M306.3,16.4v-2.8h8.4V38c0,8.9-5.8,14.2-14.7,14.2c-4.5,0-9.1-1.2-12.4-3.5l3.1-6.9c2.7,1.9,5.5,2.8,8.7,2.8
		c3.5,0,6.8-1.9,6.8-6.2v-1.7c-1.6,2-4,3.4-7.5,3.4c-7.3,0-12.6-6-12.6-13.7s5.3-13.7,12.6-13.7C302.3,12.8,304.7,14.3,306.3,16.4z
		 M295.1,26.5c0,3.3,2.3,5.8,5.7,5.8c3.3,0,5.5-2.5,5.5-5.8s-2.3-5.8-5.5-5.8C297.4,20.7,295.1,23.2,295.1,26.5z"/>
	<path class="st1" d="M347.7,27.1c0,8.2-6.2,14.3-14.7,14.3c-8.5,0-14.7-6.1-14.7-14.3s6.2-14.3,14.7-14.3
		C341.4,12.8,347.7,18.9,347.7,27.1z M327.1,27.1c0,3.6,2.5,6.2,5.9,6.2c3.4,0,5.9-2.6,5.9-6.2s-2.5-6.2-5.9-6.2
		C329.6,20.9,327.1,23.4,327.1,27.1z"/>
	<path class="st1" d="M360.6,5.2c0,2.9-2.3,5.1-5.2,5.1c-2.9,0-5.2-2.2-5.2-5.1c0-2.9,2.2-5.2,5.2-5.2C358.3,0,360.6,2.3,360.6,5.2z
		 M359.8,40.6h-8.6V13.5h8.6V40.6z"/>
	<path class="st1" d="M390.8,22.8v17.8h-8.6V25.9c0-3.2-1.6-5-4.3-5c-2.4,0-4.4,1.6-4.4,5.1v14.6h-8.6V13.5h8.3v3.4
		c1.7-2.8,4.4-4.1,8.1-4.1C386.6,12.8,390.8,16.6,390.8,22.8z"/>
	<path class="st1" d="M414.4,16.4v-2.8h8.4V38c0,8.9-5.8,14.2-14.7,14.2c-4.5,0-9.1-1.2-12.4-3.5l3.1-6.9c2.7,1.9,5.5,2.8,8.7,2.8
		c3.5,0,6.8-1.9,6.8-6.2v-1.7c-1.6,2-4,3.4-7.5,3.4c-7.3,0-12.6-6-12.6-13.7s5.3-13.7,12.6-13.7C410.3,12.8,412.8,14.3,414.4,16.4z
		 M403.1,26.5c0,3.3,2.3,5.8,5.7,5.8c3.3,0,5.5-2.5,5.5-5.8s-2.3-5.8-5.5-5.8C405.5,20.7,403.1,23.2,403.1,26.5z"/>
	<path class="st1" d="M460.9,21.2h-9.3v7.9c0,3.1,1.7,4.2,3.8,4.2c1.6,0,3.3-0.9,4.7-1.7l3,6.7c-2.5,1.8-5.2,3-9.6,3
		c-7.3,0-10.5-4.3-10.5-11.1v-9h-5.1v-7.7h5.1V5.6h8.6v7.9h9.3V21.2z"/>
	<path class="st1" d="M493.1,27.1c0,8.2-6.2,14.3-14.7,14.3c-8.5,0-14.7-6.1-14.7-14.3s6.2-14.3,14.7-14.3
		C486.9,12.8,493.1,18.9,493.1,27.1z M472.5,27.1c0,3.6,2.5,6.2,5.9,6.2c3.4,0,5.9-2.6,5.9-6.2s-2.5-6.2-5.9-6.2
		C475,20.9,472.5,23.4,472.5,27.1z"/>
	<path class="st1" d="M527.7,16.1V0.9h8.6v39.8H528v-2.9c-1.6,2.1-4.1,3.6-7.8,3.6c-7.2,0-12.6-6.3-12.6-14.3
		c0-8,5.4-14.3,12.6-14.3C523.7,12.8,526.1,14.2,527.7,16.1z M516.5,27.1c0,3.5,2.3,6.2,5.8,6.2c3.4,0,5.8-2.6,5.8-6.2
		s-2.4-6.2-5.8-6.2C518.8,20.9,516.5,23.5,516.5,27.1z"/>
	<path class="st1" d="M569.3,27.1c0,8.2-6.2,14.3-14.7,14.3c-8.5,0-14.7-6.1-14.7-14.3s6.2-14.3,14.7-14.3
		C563.1,12.8,569.3,18.9,569.3,27.1z M548.7,27.1c0,3.6,2.5,6.2,5.9,6.2c3.4,0,5.9-2.6,5.9-6.2s-2.5-6.2-5.9-6.2
		C551.2,20.9,548.7,23.4,548.7,27.1z"/>
	<path class="st1" d="M594.7,5.2c0,2.9-2.3,5.1-5.2,5.1c-2.9,0-5.2-2.2-5.2-5.1c0-2.9,2.2-5.2,5.2-5.2C592.4,0,594.7,2.3,594.7,5.2z
		 M593.9,40.6h-8.6V13.5h8.6V40.6z"/>
	<path class="st1" d="M619.3,21.2h-9.3v7.9c0,3.1,1.7,4.2,3.8,4.2c1.6,0,3.3-0.9,4.7-1.7l3,6.7c-2.5,1.8-5.2,3-9.6,3
		c-7.3,0-10.5-4.3-10.5-11.1v-9h-5.1v-7.7h5.1V5.6h8.6v7.9h9.3V21.2z"/>
</g>
<g>
	<path class="st1" d="M16.5,106.7l-5.7-9.4H5.6v9.4H2.3v-24h9.9c4.8,0,7.4,3.1,7.4,7.3c0,3.4-1.8,6.1-5.3,6.8l6.1,9.9H16.5z
		 M5.6,94.4h6c2.6,0,4.5-1.4,4.5-4.3c0-2.8-1.7-4.3-4.3-4.3H5.6V94.4z"/>
	<path class="st1" d="M26.3,98.4c0.1,3.5,1.7,6,5.8,6c1.7,0,3.5-0.1,5.5-0.7l0.4,2.6c-2.2,0.6-4.1,0.8-6.4,0.8
		c-6.5,0-8.8-3.7-8.8-9.2c0-5.5,2.3-9.2,8.7-9.2c5.4,0,6.9,3.1,7.1,6.1c0.1,1.1,0,2.4-0.2,3.6H26.3z M26.3,96.4h9
		c0.1-0.6,0.2-1.3,0.1-1.9c-0.1-1.8-1.2-3.4-4-3.4C27.8,91.2,26.6,93.5,26.3,96.4z"/>
	<path class="st1" d="M47.5,106.9L41,89.1h3.6l4.9,14.3h0.1l5-14.3h3.4l-6.6,17.8H47.5z"/>
	<path class="st1" d="M64.4,82.7v4.4h-3.2v-4.4H64.4z M64.4,89.1v17.7h-3.2V89.1H64.4z"/>
	<path class="st1" d="M71.6,98.4c0.1,3.5,1.7,6,5.8,6c1.7,0,3.5-0.1,5.5-0.7l0.4,2.6c-2.2,0.6-4.1,0.8-6.4,0.8
		c-6.5,0-8.8-3.7-8.8-9.2c0-5.5,2.3-9.2,8.7-9.2c5.4,0,6.9,3.1,7.1,6.1c0.1,1.1,0,2.4-0.2,3.6H71.6z M71.6,96.4h9
		c0.1-0.6,0.2-1.3,0.1-1.9c-0.1-1.8-1.2-3.4-4-3.4C73.2,91.2,71.9,93.5,71.6,96.4z"/>
	<path class="st1" d="M98.9,94l-3.6,12.9h-3.5l-5.4-17.8h3.5l3.9,14.3h0.1l3.5-14.3h3.1l3.7,14.3h0.1l3.7-14.3h3.4l-5.3,17.8h-3.5
		L98.9,94L98.9,94z"/>
	<path class="st1" d="M114,111.3l0.7-4.6c-0.4,0-0.8,0-1.2,0v-4.6h3.2v4.6l-1.6,4.6H114z"/>
	<path class="st1" d="M137.4,106.7h-3.2V89.1h3.2v2.8h0.1c1.4-1.6,3.8-3.2,6.6-3.2v3c-2.6,0-5.3,1.1-6.7,2V106.7z"/>
	<path class="st1" d="M150,98.4c0.1,3.5,1.7,6,5.8,6c1.7,0,3.5-0.1,5.5-0.7l0.4,2.6c-2.2,0.6-4.1,0.8-6.4,0.8
		c-6.5,0-8.8-3.7-8.8-9.2c0-5.5,2.3-9.2,8.7-9.2c5.4,0,6.9,3.1,7.1,6.1c0.1,1.1,0,2.4-0.2,3.6H150z M150,96.4h9
		c0.1-0.6,0.2-1.3,0.1-1.9c-0.1-1.8-1.2-3.4-4-3.4C151.6,91.2,150.3,93.5,150,96.4z"/>
	<path class="st1" d="M171.2,106.9l-6.5-17.8h3.6l4.9,14.3h0.1l5-14.3h3.4l-6.6,17.8H171.2z"/>
	<path class="st1" d="M188.2,82.7v4.4H185v-4.4H188.2z M188.2,89.1v17.7H185V89.1H188.2z"/>
	<path class="st1" d="M199.1,107.1c-2.8,0-5.5-0.2-7.6-0.8l0.6-2.6c2.8,0.7,5.4,0.8,6.7,0.8c3.2,0,3.7-1.9,3.7-2.6
		c0-1.2-0.8-2-4-2.6c-3.7-0.7-6.6-1.9-6.6-5.6c0-3.4,2.4-4.9,6.5-4.9c2.7,0,4.9,0.3,7.1,0.8l-0.6,2.5c-2.8-0.7-5-0.8-6.3-0.8
		c-3.2,0-3.5,1.7-3.5,2.3c0,1.1,0.6,2,3.8,2.7c3.7,0.8,6.8,1.8,6.8,5.4C205.7,105.3,203.3,107.1,199.1,107.1z"/>
	<path class="st1" d="M212.2,98.4c0.1,3.5,1.7,6,5.8,6c1.7,0,3.5-0.1,5.5-0.7l0.4,2.6c-2.2,0.6-4.1,0.8-6.4,0.8
		c-6.5,0-8.8-3.7-8.8-9.2c0-5.5,2.3-9.2,8.7-9.2c5.4,0,6.9,3.1,7.1,6.1c0.1,1.1,0,2.4-0.2,3.6H212.2z M212.2,96.4h9
		c0.1-0.6,0.2-1.3,0.1-1.9c-0.1-1.8-1.2-3.4-4-3.4C213.7,91.2,212.4,93.5,212.2,96.4z"/>
	<path class="st1" d="M235.9,92.1l-0.5-2.6c2.4-0.5,4.9-0.7,6.8-0.7c4.2,0,6.5,1.2,6.5,5.8v12.2h-3.2V105c0,0,0,0-0.1,0
		c-1.7,1.5-3.3,2.1-5.6,2.1c-3.5,0-5.6-2.1-5.6-5.2c0-4,3.2-5.4,7.4-5.4h3.9v-1.8c0-2.3-1.2-3.4-4.1-3.4
		C240.2,91.4,238.5,91.5,235.9,92.1z M245.6,98.4h-3.7c-3.3,0-4.4,1.2-4.4,3.2c0,1.9,1.4,3,3.7,3c2,0,3.6-0.8,4.4-1.5V98.4z"/>
	<path class="st1" d="M256.2,106.7h-3.2V89.1h3.2v2.5h0.1c1.7-1.7,3.8-2.8,6.3-2.8c3.5,0,5.3,2.1,5.3,5.8v12.2h-3.2V95.3
		c0-2.3-0.9-3.9-3.5-3.9c-2,0-3.9,1.2-4.9,2V106.7z"/>
	<path class="st1" d="M283.8,105C283.7,105,283.7,105,283.8,105c-1.3,1.2-3.4,2.1-5.5,2.1c-4.9,0-6.5-4.1-6.5-9.2s1.8-9.2,6.7-9.2
		c2,0,4,0.8,5.2,2c0,0,0,0,0.1,0V82h3.2v24.7h-3.2V105z M279.5,104.4c1.9,0,3.5-0.9,4.2-1.5V92.9c-0.7-0.6-2.3-1.5-4.2-1.5
		c-3.5,0-4.4,3-4.4,6.5S276.1,104.4,279.5,104.4z"/>
	<path class="st1" d="M306.1,88.7c2.2,0,3.9,0.3,6,0.8l-0.6,2.5c-2.8-0.7-4.2-0.7-5.4-0.7c-3.7,0-5.3,2.6-5.3,6.5s1.6,6.5,5.3,6.5
		c1.2,0,2.6,0,5.4-0.7l0.6,2.6c-2.1,0.5-3.8,0.8-6,0.8c-6.5,0-8.7-3.7-8.7-9.2C297.5,92.4,299.7,88.7,306.1,88.7z"/>
	<path class="st1" d="M314.2,97.9c0-5.5,2.2-9.2,8.1-9.2c5.9,0,8.1,3.7,8.1,9.2c0,5.5-2.2,9.2-8.1,9.2
		C316.4,107.1,314.2,103.4,314.2,97.9z M317.5,97.9c0,3.7,1.1,6.5,4.8,6.5c3.7,0,4.8-2.8,4.8-6.5s-1.1-6.5-4.8-6.5
		C318.6,91.4,317.5,94.2,317.5,97.9z"/>
	<path class="st1" d="M337.4,106.7h-3.2V89.1h3.2v2.5h0.1c1.7-1.7,3.8-2.8,6.3-2.8c3.5,0,5.3,2.1,5.3,5.8v12.2h-3.2V95.3
		c0-2.3-0.9-3.9-3.5-3.9c-2,0-3.9,1.2-4.9,2V106.7z"/>
	<path class="st1" d="M360,107.1c-2.8,0-5.5-0.2-7.6-0.8l0.6-2.6c2.8,0.7,5.4,0.8,6.7,0.8c3.2,0,3.7-1.9,3.7-2.6c0-1.2-0.8-2-4-2.6
		c-3.7-0.7-6.6-1.9-6.6-5.6c0-3.4,2.4-4.9,6.5-4.9c2.7,0,4.9,0.3,7.1,0.8l-0.6,2.5c-2.8-0.7-5-0.8-6.3-0.8c-3.2,0-3.5,1.7-3.5,2.3
		c0,1.1,0.6,2,3.8,2.7c3.7,0.8,6.8,1.8,6.8,5.4C366.5,105.3,364.1,107.1,360,107.1z"/>
	<path class="st1" d="M381.6,89.1h3.2v17.7h-3.2v-2.5h-0.1c-1.7,1.7-3.8,2.8-6.3,2.8c-3.5,0-5.3-2.1-5.3-5.8V89.1h3.2v11.5
		c0,2.3,1,3.9,3.5,3.9c2,0,3.9-1.2,4.9-2V89.1z"/>
	<path class="st1" d="M389.1,82h3.2v24.7h-3.2V82z"/>
	<path class="st1" d="M397.9,91.4h-2.6v-2.1l2.6-0.2l0.4-4.9h2.8v4.9h4.9v2.3h-4.9v9.7c0,2.3,0.7,3.5,3,3.5c0.5,0,1.1-0.1,1.8-0.2
		l0.3,2.5c-1,0.1-2.3,0.2-3.2,0.2c-3.6,0-5.1-1.5-5.1-5.5V91.4z"/>
	<path class="st1" d="M416.4,97.9c0-5.5,2.2-9.2,8.1-9.2c5.9,0,8.1,3.7,8.1,9.2c0,5.5-2.2,9.2-8.1,9.2
		C418.6,107.1,416.4,103.4,416.4,97.9z M419.8,97.9c0,3.7,1.1,6.5,4.8,6.5c3.7,0,4.8-2.8,4.8-6.5s-1.1-6.5-4.8-6.5
		C420.8,91.4,419.8,94.2,419.8,97.9z"/>
	<path class="st1" d="M439.7,106.7h-3.2V89.1h3.2v2.5h0.1c1.7-1.7,3.8-2.8,6.3-2.8c3.5,0,5.3,2.1,5.3,5.8v12.2h-3.2V95.3
		c0-2.3-0.9-3.9-3.5-3.9c-2,0-3.9,1.2-4.9,2V106.7z"/>
	<path class="st1" d="M463.3,92.1l-0.5-2.6c2.4-0.5,4.9-0.7,6.8-0.7c4.2,0,6.5,1.2,6.5,5.8v12.2H473V105c0,0,0,0-0.1,0
		c-1.7,1.5-3.3,2.1-5.6,2.1c-3.5,0-5.6-2.1-5.6-5.2c0-4,3.2-5.4,7.4-5.4h3.9v-1.8c0-2.3-1.2-3.4-4.1-3.4
		C467.6,91.4,465.9,91.5,463.3,92.1z M473,98.4h-3.7c-3.3,0-4.4,1.2-4.4,3.2c0,1.9,1.4,3,3.7,3c2,0,3.6-0.8,4.4-1.5V98.4z"/>
	<path class="st1" d="M483.7,106.7h-3.2V89.1h3.2v2.5h0.1c1.7-1.7,3.8-2.8,6.3-2.8c3.5,0,5.3,2.1,5.3,5.8v12.2h-3.2V95.3
		c0-2.3-0.9-3.9-3.5-3.9c-2,0-3.9,1.2-4.9,2V106.7z"/>
	<path class="st1" d="M517.9,89.1h3.2v17.7h-3.2v-2.5h-0.1c-1.7,1.7-3.8,2.8-6.3,2.8c-3.5,0-5.3-2.1-5.3-5.8V89.1h3.2v11.5
		c0,2.3,1,3.9,3.5,3.9c2,0,3.9-1.2,4.9-2V89.1z"/>
	<path class="st1" d="M528.6,90.9L528.6,90.9c1.3-1.2,3.4-2.1,5.5-2.1c4.9,0,6.5,4.1,6.5,9.2s-1.8,9.2-6.7,9.2c-2,0-4-0.8-5.2-2
		h-0.1v8.7h-3.2V89.1h3.2V90.9z M532.8,91.4c-1.9,0-3.5,0.9-4.2,1.5V103c0.7,0.6,2.3,1.5,4.2,1.5c3.4,0,4.4-3,4.4-6.5
		S536.3,91.4,532.8,91.4z"/>
	<path class="st1" d="M556,105C556,105,556,105,556,105c-1.3,1.2-3.4,2.1-5.5,2.1c-4.9,0-6.5-4.1-6.5-9.2s1.8-9.2,6.7-9.2
		c2,0,4,0.8,5.2,2c0,0,0,0,0.1,0V82h3.2v24.7H556V105z M551.8,104.4c1.9,0,3.5-0.9,4.2-1.5V92.9c-0.7-0.6-2.3-1.5-4.2-1.5
		c-3.5,0-4.4,3-4.4,6.5S548.3,104.4,551.8,104.4z"/>
	<path class="st1" d="M564.2,92.1l-0.5-2.6c2.4-0.5,4.9-0.7,6.8-0.7c4.2,0,6.5,1.2,6.5,5.8v12.2h-3.2V105c0,0,0,0-0.1,0
		c-1.7,1.5-3.3,2.1-5.6,2.1c-3.5,0-5.6-2.1-5.6-5.2c0-4,3.2-5.4,7.4-5.4h3.9v-1.8c0-2.3-1.2-3.4-4.1-3.4
		C568.5,91.4,566.8,91.5,564.2,92.1z M573.9,98.4h-3.7c-3.3,0-4.4,1.2-4.4,3.2c0,1.9,1.4,3,3.7,3c2,0,3.6-0.8,4.4-1.5V98.4z"/>
	<path class="st1" d="M582.5,91.4h-2.6v-2.1l2.6-0.2l0.4-4.9h2.8v4.9h4.9v2.3h-4.9v9.7c0,2.3,0.7,3.5,3,3.5c0.5,0,1.1-0.1,1.8-0.2
		l0.3,2.5c-1,0.1-2.3,0.2-3.2,0.2c-3.6,0-5.1-1.5-5.1-5.5V91.4z"/>
	<path class="st1" d="M596.7,98.4c0.1,3.5,1.7,6,5.8,6c1.7,0,3.5-0.1,5.5-0.7l0.4,2.6c-2.2,0.6-4.1,0.8-6.4,0.8
		c-6.5,0-8.8-3.7-8.8-9.2c0-5.5,2.3-9.2,8.7-9.2c5.4,0,6.9,3.1,7.1,6.1c0.1,1.1,0,2.4-0.2,3.6H596.7z M596.7,96.4h9
		c0.1-0.6,0.2-1.3,0.1-1.9c-0.1-1.8-1.2-3.4-4-3.4C598.2,91.2,597,93.5,596.7,96.4z"/>
	<path class="st1" d="M624.2,105C624.1,105,624.1,105,624.2,105c-1.3,1.2-3.4,2.1-5.5,2.1c-4.9,0-6.5-4.1-6.5-9.2s1.8-9.2,6.7-9.2
		c2,0,4,0.8,5.2,2c0,0,0,0,0.1,0V82h3.2v24.7h-3.2V105z M619.9,104.4c1.9,0,3.5-0.9,4.2-1.5V92.9c-0.7-0.6-2.3-1.5-4.2-1.5
		c-3.5,0-4.4,3-4.4,6.5S616.5,104.4,619.9,104.4z"/>
</g>
<g>
	<path class="st1" d="M12.2,119.5c2.7,0,5.3,0.4,8.3,1.2l-0.8,2.8c-3.6-0.9-5.3-1.1-7.3-1.1c-5.5,0-7,4.1-7,9.2c0,5.5,1.4,9.5,7,9.5
		c1.9,0,3.6-0.2,7.3-1.1l0.8,2.8c-3,0.9-5.6,1.2-8.3,1.2c-8.2,0-10.2-5.6-10.2-12.5C1.9,125,4,119.5,12.2,119.5z"/>
	<path class="st1" d="M23.1,135c0-5.5,2.2-9.2,8.1-9.2c5.9,0,8.1,3.7,8.1,9.2c0,5.5-2.2,9.2-8.1,9.2C25.3,144.2,23.1,140.5,23.1,135
		z M26.4,135c0,3.7,1.1,6.5,4.8,6.5c3.7,0,4.8-2.8,4.8-6.5s-1.1-6.5-4.8-6.5C27.5,128.5,26.4,131.3,26.4,135z"/>
	<path class="st1" d="M54.7,142.1C54.6,142.1,54.6,142.1,54.7,142.1c-1.3,1.2-3.4,2.1-5.5,2.1c-4.9,0-6.5-4.1-6.5-9.2
		s1.8-9.2,6.7-9.2c2,0,4,0.8,5.2,2c0,0,0,0,0.1,0v-8.8h3.2v24.7h-3.2V142.1z M50.4,141.6c1.9,0,3.5-0.9,4.2-1.5V130
		c-0.7-0.6-2.3-1.5-4.2-1.5c-3.5,0-4.4,3-4.4,6.5S47,141.6,50.4,141.6z"/>
	<path class="st1" d="M65.1,135.6c0.1,3.5,1.7,6,5.8,6c1.7,0,3.5-0.1,5.5-0.7l0.4,2.6c-2.2,0.6-4.1,0.8-6.4,0.8
		c-6.5,0-8.8-3.7-8.8-9.2c0-5.5,2.3-9.2,8.7-9.2c5.4,0,6.9,3.1,7.1,6.1c0.1,1.1,0,2.4-0.2,3.6H65.1z M65.1,133.5h9
		c0.1-0.6,0.2-1.3,0.1-1.9c-0.1-1.8-1.2-3.4-4-3.4C66.6,128.3,65.3,130.6,65.1,133.5z"/>
	<path class="st1" d="M87.4,135c0-5.5,2.2-9.2,8.1-9.2c5.9,0,8.1,3.7,8.1,9.2c0,5.5-2.2,9.2-8.1,9.2C89.6,144.2,87.4,140.5,87.4,135
		z M90.7,135c0,3.7,1.1,6.5,4.8,6.5c3.7,0,4.8-2.8,4.8-6.5s-1.1-6.5-4.8-6.5C91.8,128.5,90.7,131.3,90.7,135z"/>
	<path class="st1" d="M111.6,126.2h4.2v2.3h-4.2v15.4h-3.2v-15.4h-2.6v-2.1l2.6-0.2V124c0-3.4,1.2-4.9,5.1-4.9
		c0.8,0,1.9,0.1,2.8,0.3l-0.3,2.5c-0.7-0.1-1.3-0.2-1.8-0.2c-2,0-2.6,0.6-2.6,2.5V126.2z"/>
	<path class="st1" d="M130,134.3v9.5h-3.4v-24h9.9c4.8,0,7.4,3,7.4,7.2c0,4.4-2.6,7.2-7.4,7.2H130z M130,131.3h6.2
		c2.6,0,4.3-1.3,4.3-4.2c0-2.7-1.7-4.2-4.3-4.2H130V131.3z"/>
	<path class="st1" d="M150.7,143.8h-3.2v-17.7h3.2v2.8h0.1c1.4-1.6,3.8-3.2,6.6-3.2v3c-2.6,0-5.3,1.1-6.7,2V143.8z"/>
	<path class="st1" d="M159.9,135c0-5.5,2.2-9.2,8.1-9.2c5.9,0,8.1,3.7,8.1,9.2c0,5.5-2.2,9.2-8.1,9.2
		C162.1,144.2,159.9,140.5,159.9,135z M163.3,135c0,3.7,1.1,6.5,4.8,6.5c3.7,0,4.8-2.8,4.8-6.5s-1.1-6.5-4.8-6.5
		C164.3,128.5,163.3,131.3,163.3,135z"/>
	<path class="st1" d="M184.2,126.2h4.2v2.3h-4.2v15.4H181v-15.4h-2.6v-2.1l2.6-0.2V124c0-3.4,1.2-4.9,5.1-4.9c0.8,0,1.9,0.1,2.8,0.3
		l-0.3,2.5c-0.7-0.1-1.3-0.2-1.8-0.2c-2,0-2.6,0.6-2.6,2.5V126.2z"/>
	<path class="st1" d="M194.3,135.6c0.1,3.5,1.7,6,5.8,6c1.7,0,3.5-0.1,5.5-0.7l0.4,2.6c-2.2,0.6-4.1,0.8-6.4,0.8
		c-6.5,0-8.8-3.7-8.8-9.2c0-5.5,2.3-9.2,8.7-9.2c5.4,0,6.9,3.1,7.1,6.1c0.1,1.1,0,2.4-0.2,3.6H194.3z M194.3,133.5h9
		c0.1-0.6,0.2-1.3,0.1-1.9c-0.1-1.8-1.2-3.4-4-3.4C195.8,128.3,194.5,130.6,194.3,133.5z"/>
	<path class="st1" d="M217.1,144.2c-2.8,0-5.5-0.2-7.6-0.8l0.6-2.6c2.8,0.7,5.4,0.8,6.7,0.8c3.2,0,3.7-1.9,3.7-2.6
		c0-1.2-0.8-2-4-2.6c-3.7-0.7-6.6-1.9-6.6-5.6c0-3.4,2.4-4.9,6.5-4.9c2.7,0,4.9,0.3,7.1,0.8l-0.6,2.5c-2.8-0.7-5-0.8-6.3-0.8
		c-3.2,0-3.5,1.7-3.5,2.3c0,1.1,0.6,2,3.8,2.7c3.7,0.8,6.8,1.8,6.8,5.4C223.6,142.4,221.2,144.2,217.1,144.2z"/>
	<path class="st1" d="M233.9,144.2c-2.8,0-5.5-0.2-7.6-0.8l0.6-2.6c2.8,0.7,5.4,0.8,6.7,0.8c3.2,0,3.7-1.9,3.7-2.6
		c0-1.2-0.8-2-4-2.6c-3.7-0.7-6.6-1.9-6.6-5.6c0-3.4,2.4-4.9,6.5-4.9c2.7,0,4.9,0.3,7.1,0.8l-0.6,2.5c-2.8-0.7-5-0.8-6.3-0.8
		c-3.2,0-3.5,1.7-3.5,2.3c0,1.1,0.6,2,3.8,2.7c3.7,0.8,6.8,1.8,6.8,5.4C240.5,142.4,238.1,144.2,233.9,144.2z"/>
	<path class="st1" d="M247.2,119.8v4.4H244v-4.4H247.2z M247.2,126.2v17.7H244v-17.7H247.2z"/>
	<path class="st1" d="M251,135c0-5.5,2.2-9.2,8.1-9.2c5.9,0,8.1,3.7,8.1,9.2c0,5.5-2.2,9.2-8.1,9.2C253.1,144.2,251,140.5,251,135z
		 M254.3,135c0,3.7,1.1,6.5,4.8,6.5c3.7,0,4.8-2.8,4.8-6.5s-1.1-6.5-4.8-6.5C255.4,128.5,254.3,131.3,254.3,135z"/>
	<path class="st1" d="M274.2,143.8H271v-17.7h3.2v2.5h0.1c1.7-1.7,3.8-2.8,6.3-2.8c3.5,0,5.3,2.1,5.3,5.8v12.2h-3.2v-11.5
		c0-2.3-0.9-3.9-3.5-3.9c-2,0-3.9,1.2-4.9,2V143.8z"/>
	<path class="st1" d="M290.8,129.2l-0.5-2.6c2.4-0.5,4.9-0.7,6.8-0.7c4.2,0,6.5,1.2,6.5,5.8v12.2h-3.2v-1.8c0,0,0,0-0.1,0
		c-1.7,1.5-3.3,2.1-5.6,2.1c-3.5,0-5.6-2.1-5.6-5.2c0-4,3.2-5.4,7.4-5.4h3.9v-1.8c0-2.3-1.2-3.4-4.1-3.4
		C295.1,128.5,293.4,128.6,290.8,129.2z M300.5,135.6h-3.7c-3.3,0-4.4,1.2-4.4,3.2c0,1.9,1.4,3,3.7,3c2,0,3.6-0.8,4.4-1.5V135.6z"/>
	<path class="st1" d="M308,119.1h3.2v24.7H308V119.1z"/>
	<path class="st1" d="M318.6,119.8v4.4h-3.2v-4.4H318.6z M318.6,126.2v17.7h-3.2v-17.7H318.6z"/>
	<path class="st1" d="M329.5,144.2c-2.8,0-5.5-0.2-7.6-0.8l0.6-2.6c2.8,0.7,5.4,0.8,6.7,0.8c3.2,0,3.7-1.9,3.7-2.6
		c0-1.2-0.8-2-4-2.6c-3.7-0.7-6.6-1.9-6.6-5.6c0-3.4,2.4-4.9,6.5-4.9c2.7,0,4.9,0.3,7.1,0.8l-0.6,2.5c-2.8-0.7-5-0.8-6.3-0.8
		c-3.2,0-3.5,1.7-3.5,2.3c0,1.1,0.6,2,3.8,2.7c3.7,0.8,6.8,1.8,6.8,5.4C336.1,142.4,333.7,144.2,329.5,144.2z"/>
	<path class="st1" d="M342.7,143.8h-3.2v-17.7h3.2v2.5h0.1c1.4-1.5,3.3-2.8,5.8-2.8c2.5,0,4.1,1.1,4.8,3.1c1.7-1.8,3.8-3.1,6.3-3.1
		c3.5,0,5.3,2.1,5.3,5.8v12.2h-3.2v-11.5c0-2.3-1-3.9-3.5-3.9c-1.8,0-3.4,1.2-4.5,2.1c0.1,0.6,0.1,1.2,0.1,1.9v11.3h-3.2v-11.6
		c-0.1-2.2-1-3.8-3.5-3.8c-1.9,0-3.4,1.2-4.4,2V143.8z"/>
	<path class="st1" d="M377,129.2l-0.5-2.6c2.4-0.5,4.9-0.7,6.8-0.7c4.2,0,6.5,1.2,6.5,5.8v12.2h-3.2v-1.8c0,0,0,0-0.1,0
		c-1.7,1.5-3.3,2.1-5.6,2.1c-3.5,0-5.6-2.1-5.6-5.2c0-4,3.2-5.4,7.4-5.4h3.9v-1.8c0-2.3-1.2-3.4-4.1-3.4
		C381.2,128.5,379.6,128.6,377,129.2z M386.6,135.6h-3.7c-3.3,0-4.4,1.2-4.4,3.2c0,1.9,1.4,3,3.7,3c2,0,3.6-0.8,4.4-1.5V135.6z"/>
	<path class="st1" d="M397.3,143.8h-3.2v-17.7h3.2v2.5h0.1c1.7-1.7,3.8-2.8,6.3-2.8c3.5,0,5.3,2.1,5.3,5.8v12.2h-3.2v-11.5
		c0-2.3-0.9-3.9-3.5-3.9c-2,0-3.9,1.2-4.9,2V143.8z"/>
	<path class="st1" d="M424.8,142.1C424.8,142.1,424.8,142.1,424.8,142.1c-1.3,1.2-3.4,2.1-5.5,2.1c-4.9,0-6.5-4.1-6.5-9.2
		s1.8-9.2,6.7-9.2c2,0,4,0.8,5.2,2c0,0,0,0,0.1,0v-8.8h3.2v24.7h-3.2V142.1z M420.6,141.6c1.9,0,3.5-0.9,4.2-1.5V130
		c-0.7-0.6-2.3-1.5-4.2-1.5c-3.5,0-4.4,3-4.4,6.5S417.1,141.6,420.6,141.6z"/>
	<path class="st1" d="M449.2,119.5c2.7,0,5.3,0.4,8.3,1.2l-0.8,2.8c-3.6-0.9-5.3-1.1-7.3-1.1c-5.5,0-7,4.1-7,9.2
		c0,5.5,1.4,9.5,7,9.5c1.9,0,3.6-0.2,7.3-1.1l0.8,2.8c-3,0.9-5.6,1.2-8.3,1.2c-8.2,0-10.2-5.6-10.2-12.5
		C438.9,125,440.9,119.5,449.2,119.5z"/>
	<path class="st1" d="M460.1,135c0-5.5,2.2-9.2,8.1-9.2c5.9,0,8.1,3.7,8.1,9.2c0,5.5-2.2,9.2-8.1,9.2
		C462.3,144.2,460.1,140.5,460.1,135z M463.5,135c0,3.7,1.1,6.5,4.8,6.5c3.7,0,4.8-2.8,4.8-6.5s-1.1-6.5-4.8-6.5
		C464.5,128.5,463.5,131.3,463.5,135z"/>
	<path class="st1" d="M483.3,143.8h-3.2v-17.7h3.2v2.5h0.1c1.7-1.7,3.8-2.8,6.3-2.8c3.5,0,5.3,2.1,5.3,5.8v12.2h-3.2v-11.5
		c0-2.3-0.9-3.9-3.5-3.9c-2,0-3.9,1.2-4.9,2V143.8z"/>
	<path class="st1" d="M510.8,142.1C510.8,142.1,510.8,142.1,510.8,142.1c-1.3,1.2-3.4,2.1-5.5,2.1c-4.9,0-6.5-4.1-6.5-9.2
		s1.8-9.2,6.7-9.2c2,0,4,0.8,5.2,2c0,0,0,0,0.1,0v-8.8h3.2v24.7h-3.2V142.1z M506.6,141.6c1.9,0,3.5-0.9,4.2-1.5V130
		c-0.7-0.6-2.3-1.5-4.2-1.5c-3.5,0-4.4,3-4.4,6.5S503.1,141.6,506.6,141.6z"/>
	<path class="st1" d="M530,126.2h3.2v17.7H530v-2.5h-0.1c-1.7,1.7-3.8,2.8-6.3,2.8c-3.5,0-5.3-2.1-5.3-5.8v-12.2h3.2v11.5
		c0,2.3,1,3.9,3.5,3.9c2,0,3.9-1.2,4.9-2V126.2z"/>
	<path class="st1" d="M545.6,125.8c2.2,0,3.9,0.3,6,0.8l-0.6,2.5c-2.8-0.7-4.2-0.7-5.4-0.7c-3.7,0-5.3,2.6-5.3,6.5
		c0,3.9,1.6,6.5,5.3,6.5c1.2,0,2.6,0,5.4-0.7l0.6,2.6c-2.1,0.5-3.8,0.8-6,0.8c-6.5,0-8.7-3.7-8.7-9.2
		C537,129.5,539.2,125.8,545.6,125.8z"/>
	<path class="st1" d="M556.7,128.5H554v-2.1l2.6-0.2l0.4-4.9h2.8v4.9h4.9v2.3h-4.9v9.7c0,2.3,0.7,3.5,3,3.5c0.5,0,1.1-0.1,1.8-0.2
		l0.3,2.5c-1,0.1-2.3,0.2-3.2,0.2c-3.6,0-5.1-1.5-5.1-5.5V128.5z"/>
	<path class="st1" d="M581.9,114.9h2.1c-3.5,5.8-5,11.3-5,16.9c0,5.6,1.5,10.9,5,16.9h-2.1c-3.9-4.9-6.1-11.2-6.1-16.9
		C575.8,126,578,119.8,581.9,114.9z"/>
	<path class="st1" d="M595.9,119.5c2.7,0,5.3,0.4,8.3,1.2l-0.8,2.8c-3.6-0.9-5.3-1.1-7.3-1.1c-5.5,0-7,4.1-7,9.2
		c0,5.5,1.4,9.5,7,9.5c1.9,0,3.6-0.2,7.3-1.1l0.8,2.8c-3,0.9-5.6,1.2-8.3,1.2c-8.2,0-10.2-5.6-10.2-12.5
		C585.7,125,587.7,119.5,595.9,119.5z"/>
	<path class="st1" d="M606.8,135c0-5.5,2.2-9.2,8.1-9.2c5.9,0,8.1,3.7,8.1,9.2c0,5.5-2.2,9.2-8.1,9.2
		C609,144.2,606.8,140.5,606.8,135z M610.2,135c0,3.7,1.1,6.5,4.8,6.5c3.7,0,4.8-2.8,4.8-6.5s-1.1-6.5-4.8-6.5
		C611.2,128.5,610.2,131.3,610.2,135z"/>
	<path class="st1" d="M630.6,134.3v9.5h-3.4v-24h9.9c4.8,0,7.4,3,7.4,7.2c0,4.4-2.6,7.2-7.4,7.2H630.6z M630.6,131.3h6.2
		c2.6,0,4.3-1.3,4.3-4.2c0-2.7-1.7-4.2-4.3-4.2h-6.2V131.3z"/>
	<path class="st1" d="M660.2,137.8H651l-2,6.1h-3.5l8.3-24.2h4.1l8.1,24.2h-3.7L660.2,137.8z M655.6,123.9l-3.9,11.1h7.8
		L655.6,123.9L655.6,123.9z"/>
	<path class="st1" d="M678.4,119.5c2.7,0,5.3,0.4,8.3,1.2l-0.8,2.8c-3.6-0.9-5.3-1.1-7.3-1.1c-5.5,0-7,4.1-7,9.2
		c0,5.5,1.4,9.5,7,9.5c1.9,0,3.6-0.2,7.3-1.1l0.8,2.8c-3,0.9-5.6,1.2-8.3,1.2c-8.2,0-10.2-5.6-10.2-12.5
		C668.2,125,670.2,119.5,678.4,119.5z"/>
	<path class="st1" d="M690.9,148.8h-2.1c3.5-6,5-11.3,5-16.9c0-5.7-1.5-11.1-5-16.9h2.1c3.9,4.9,6.1,11.1,6.1,16.9
		C696.9,137.6,694.7,143.8,690.9,148.8z"/>
</g>
<g>
	<path class="st1" d="M2.3,191v-24h8.5c7.9,0,10.2,5.1,10.2,11.8c0,6.8-2.3,12.2-10.2,12.2H2.3z M10.8,188c5.4,0,6.6-4.1,6.6-9.2
		s-1.2-8.8-6.6-8.8H5.6v18H10.8z"/>
	<path class="st1" d="M28,182.7c0.1,3.5,1.7,6,5.8,6c1.7,0,3.5-0.1,5.5-0.7l0.4,2.6c-2.2,0.6-4.1,0.8-6.4,0.8
		c-6.5,0-8.8-3.7-8.8-9.2c0-5.5,2.3-9.2,8.7-9.2c5.4,0,6.9,3.1,7.1,6.1c0.1,1.1,0,2.4-0.2,3.6H28z M28,180.7h9
		c0.1-0.6,0.2-1.3,0.1-1.9c-0.1-1.8-1.2-3.4-4-3.4C29.6,175.4,28.3,177.7,28,180.7z"/>
	<path class="st1" d="M49.2,191.2l-6.5-17.8h3.6l4.9,14.3h0.1l5-14.3h3.4l-6.6,17.8H49.2z"/>
	<path class="st1" d="M65.2,182.7c0.1,3.5,1.7,6,5.8,6c1.7,0,3.5-0.1,5.5-0.7l0.4,2.6c-2.2,0.6-4.1,0.8-6.4,0.8
		c-6.5,0-8.8-3.7-8.8-9.2c0-5.5,2.3-9.2,8.7-9.2c5.4,0,6.9,3.1,7.1,6.1c0.1,1.1,0,2.4-0.2,3.6H65.2z M65.2,180.7h9
		c0.1-0.6,0.2-1.3,0.1-1.9c-0.1-1.8-1.2-3.4-4-3.4C66.7,175.4,65.5,177.7,65.2,180.7z"/>
	<path class="st1" d="M81.2,166.3h3.2V191h-3.2V166.3z"/>
	<path class="st1" d="M88.2,182.2c0-5.5,2.2-9.2,8.1-9.2c5.9,0,8.1,3.7,8.1,9.2c0,5.5-2.2,9.2-8.1,9.2
		C90.3,191.3,88.2,187.6,88.2,182.2z M91.5,182.2c0,3.7,1.1,6.5,4.8,6.5c3.7,0,4.8-2.8,4.8-6.5s-1.1-6.5-4.8-6.5
		C92.6,175.6,91.5,178.4,91.5,182.2z"/>
	<path class="st1" d="M111.4,175.1L111.4,175.1c1.3-1.2,3.4-2.1,5.5-2.1c4.9,0,6.5,4.1,6.5,9.2s-1.8,9.2-6.7,9.2c-2,0-4-0.8-5.2-2
		h-0.1v8.7h-3.2v-24.7h3.2V175.1z M115.6,175.6c-1.9,0-3.5,0.9-4.2,1.5v10.1c0.7,0.6,2.3,1.5,4.2,1.5c3.4,0,4.4-3,4.4-6.5
		S119.1,175.6,115.6,175.6z"/>
	<path class="st1" d="M141,191.3c-2.8,0-5.5-0.2-7.6-0.8l0.6-2.6c2.8,0.7,5.4,0.8,6.7,0.8c3.2,0,3.7-1.9,3.7-2.6c0-1.2-0.8-2-4-2.6
		c-3.7-0.7-6.6-1.9-6.6-5.6c0-3.4,2.4-4.9,6.5-4.9c2.7,0,4.9,0.3,7.1,0.8l-0.6,2.5c-2.8-0.7-5-0.8-6.3-0.8c-3.2,0-3.5,1.7-3.5,2.3
		c0,1.1,0.6,2,3.8,2.7c3.7,0.8,6.8,1.8,6.8,5.4C147.5,189.5,145.1,191.3,141,191.3z"/>
	<path class="st1" d="M152.8,175.6h-2.6v-2.1l2.6-0.2l0.4-4.9h2.8v4.9h4.9v2.3H156v9.7c0,2.3,0.7,3.5,3,3.5c0.5,0,1.1-0.1,1.8-0.2
		l0.3,2.5c-1,0.1-2.3,0.2-3.2,0.2c-3.6,0-5.1-1.5-5.1-5.5V175.6z"/>
	<path class="st1" d="M167.7,191h-3.2v-17.7h3.2v2.8h0.1c1.4-1.6,3.8-3.2,6.6-3.2v3c-2.6,0-5.3,1.1-6.7,2V191z"/>
	<path class="st1" d="M177,182.2c0-5.5,2.2-9.2,8.1-9.2c5.9,0,8.1,3.7,8.1,9.2c0,5.5-2.2,9.2-8.1,9.2
		C179.1,191.3,177,187.6,177,182.2z M180.3,182.2c0,3.7,1.1,6.5,4.8,6.5c3.7,0,4.8-2.8,4.8-6.5s-1.1-6.5-4.8-6.5
		C181.4,175.6,180.3,178.4,180.3,182.2z"/>
	<path class="st1" d="M200.2,191H197v-17.7h3.2v2.5h0.1c1.7-1.7,3.8-2.8,6.3-2.8c3.5,0,5.3,2.1,5.3,5.8V191h-3.2v-11.5
		c0-2.3-0.9-3.9-3.5-3.9c-2,0-3.9,1.2-4.9,2V191z"/>
	<path class="st1" d="M217.8,189.8c-1-0.5-1.4-1.4-1.3-2.4c0-1.2,0.8-2.5,2.3-3.4v-0.1c-1.8-0.9-2.9-2.6-2.9-4.9c0-3.9,2.8-6,7.2-6
		c1,0,1.8,0.2,2.4,0.4h6.2v1.9h-3.4c1.4,1,1.7,2.5,1.7,3.7c0,4-3,5.8-7,5.8c-1,0-2-0.2-2.6-0.4c-0.3,0.3-0.5,0.7-0.7,1
		c-0.5,1.1-0.4,2.3,1,2.3l6.4,0.4c3.6,0.2,5.2,1.7,5.2,4.1c0,4.1-3.2,6.2-10.2,6.2c-4.8,0-7.2-1.4-7.2-4.6
		C214.7,192.2,215.6,191,217.8,189.8L217.8,189.8z M222.6,196.3c3.4,0,6.3-1.1,6.3-3.5c0-1.1-0.7-2-2.9-2.1l-6.5-0.4
		c-1.1,0.8-2,1.5-2,2.9C217.4,195.2,219.2,196.3,222.6,196.3z M227.1,179c0-2.4-1.6-3.9-4.1-3.9c-2.8,0-4.2,1.5-4.2,3.9
		c0,2.4,1.6,3.7,4.2,3.7C225.5,182.7,227.1,181.3,227.1,179z"/>
	<path class="st1" d="M237.5,182.7c0.1,3.5,1.7,6,5.8,6c1.7,0,3.5-0.1,5.5-0.7l0.4,2.6c-2.2,0.6-4.1,0.8-6.4,0.8
		c-6.5,0-8.8-3.7-8.8-9.2c0-5.5,2.3-9.2,8.7-9.2c5.4,0,6.9,3.1,7.1,6.1c0.1,1.1,0,2.4-0.2,3.6H237.5z M237.5,180.7h9
		c0.1-0.6,0.2-1.3,0.1-1.9c-0.1-1.8-1.2-3.4-4-3.4C239.1,175.4,237.8,177.7,237.5,180.7z"/>
	<path class="st1" d="M256.7,191h-3.2v-17.7h3.2v2.8h0.1c1.4-1.6,3.8-3.2,6.6-3.2v3c-2.6,0-5.3,1.1-6.7,2V191z"/>
	<path class="st1" d="M285.5,178.2l-3.6,12.9h-3.5l-5.4-17.8h3.5l3.9,14.3h0.1l3.5-14.3h3.1l3.7,14.3h0.1l3.7-14.3h3.4l-5.3,17.8
		h-3.5L285.5,178.2L285.5,178.2z"/>
	<path class="st1" d="M300.5,182.2c0-5.5,2.2-9.2,8.1-9.2c5.9,0,8.1,3.7,8.1,9.2c0,5.5-2.2,9.2-8.1,9.2
		C302.6,191.3,300.5,187.6,300.5,182.2z M303.8,182.2c0,3.7,1.1,6.5,4.8,6.5c3.7,0,4.8-2.8,4.8-6.5s-1.1-6.5-4.8-6.5
		C304.9,175.6,303.8,178.4,303.8,182.2z"/>
	<path class="st1" d="M323.7,191h-3.2v-17.7h3.2v2.8h0.1c1.4-1.6,3.8-3.2,6.6-3.2v3c-2.6,0-5.3,1.1-6.7,2V191z"/>
	<path class="st1" d="M336.8,180.5l8.5-7.2h3.9l-6.7,6.1l7.1,11.5h-3.8l-5.5-9.7l-3.4,2.9v6.9h-3.2v-24.7h3.2V180.5z"/>
	<path class="st1" d="M356,167v4.4h-3.2V167H356z M356,173.3V191h-3.2v-17.7H356z"/>
	<path class="st1" d="M363.4,191h-3.2v-17.7h3.2v2.5h0.1c1.7-1.7,3.8-2.8,6.3-2.8c3.5,0,5.3,2.1,5.3,5.8V191h-3.2v-11.5
		c0-2.3-0.9-3.9-3.5-3.9c-2,0-3.9,1.2-4.9,2V191z"/>
	<path class="st1" d="M381,189.8c-1-0.5-1.4-1.4-1.3-2.4c0-1.2,0.8-2.5,2.3-3.4v-0.1c-1.8-0.9-2.9-2.6-2.9-4.9c0-3.9,2.8-6,7.2-6
		c1,0,1.8,0.2,2.4,0.4h6.2v1.9h-3.4c1.4,1,1.7,2.5,1.7,3.7c0,4-3,5.8-7,5.8c-1,0-2-0.2-2.6-0.4c-0.3,0.3-0.5,0.7-0.7,1
		c-0.5,1.1-0.4,2.3,1,2.3l6.4,0.4c3.6,0.2,5.2,1.7,5.2,4.1c0,4.1-3.2,6.2-10.2,6.2c-4.8,0-7.2-1.4-7.2-4.6
		C377.9,192.2,378.9,191,381,189.8L381,189.8z M385.8,196.3c3.4,0,6.3-1.1,6.3-3.5c0-1.1-0.7-2-2.9-2.1l-6.5-0.4
		c-1.1,0.8-2,1.5-2,2.9C380.6,195.2,382.4,196.3,385.8,196.3z M390.3,179c0-2.4-1.6-3.9-4.1-3.9c-2.8,0-4.2,1.5-4.2,3.9
		c0,2.4,1.6,3.7,4.2,3.7C388.7,182.7,390.3,181.3,390.3,179z"/>
	<path class="st1" d="M406.5,176.3l-0.5-2.6c2.4-0.5,4.9-0.7,6.8-0.7c4.2,0,6.5,1.2,6.5,5.8V191h-3.2v-1.8c0,0,0,0-0.1,0
		c-1.7,1.5-3.3,2.1-5.6,2.1c-3.5,0-5.6-2.1-5.6-5.2c0-4,3.2-5.4,7.4-5.4h3.9V179c0-2.3-1.2-3.4-4.1-3.4
		C410.8,175.6,409.2,175.8,406.5,176.3z M416.2,182.7h-3.7c-3.3,0-4.4,1.2-4.4,3.2c0,1.9,1.4,3,3.7,3c2,0,3.6-0.8,4.4-1.5V182.7z"/>
	<path class="st1" d="M426.9,191h-3.2v-17.7h3.2v2.5h0.1c1.7-1.7,3.8-2.8,6.3-2.8c3.5,0,5.3,2.1,5.3,5.8V191h-3.2v-11.5
		c0-2.3-0.9-3.9-3.5-3.9c-2,0-3.9,1.2-4.9,2V191z"/>
	<path class="st1" d="M454.4,189.2C454.4,189.2,454.4,189.2,454.4,189.2c-1.3,1.2-3.4,2.1-5.5,2.1c-4.9,0-6.5-4.1-6.5-9.2
		s1.8-9.2,6.7-9.2c2,0,4,0.8,5.2,2c0,0,0,0,0.1,0v-8.8h3.2V191h-3.2V189.2z M450.1,188.7c1.9,0,3.5-0.9,4.2-1.5v-10.1
		c-0.7-0.6-2.3-1.5-4.2-1.5c-3.5,0-4.4,3-4.4,6.5S446.7,188.7,450.1,188.7z"/>
	<path class="st1" d="M471.7,167v4.4h-3.2V167H471.7z M471.7,173.3V191h-3.2v-17.7H471.7z"/>
	<path class="st1" d="M479.1,191h-3.2v-17.7h3.2v2.5h0.1c1.7-1.7,3.8-2.8,6.3-2.8c3.5,0,5.3,2.1,5.3,5.8V191h-3.2v-11.5
		c0-2.3-0.9-3.9-3.5-3.9c-2,0-3.9,1.2-4.9,2V191z"/>
	<path class="st1" d="M499.4,173.3h4.2v2.3h-4.2V191h-3.2v-15.4h-2.6v-2.1l2.6-0.2v-2.2c0-3.4,1.2-4.9,5.1-4.9
		c0.8,0,1.9,0.1,2.8,0.3l-0.3,2.5c-0.7-0.1-1.3-0.2-1.8-0.2c-2,0-2.6,0.6-2.6,2.5V173.3z"/>
	<path class="st1" d="M506.1,182.2c0-5.5,2.2-9.2,8.1-9.2c5.9,0,8.1,3.7,8.1,9.2c0,5.5-2.2,9.2-8.1,9.2
		C508.3,191.3,506.1,187.6,506.1,182.2z M509.5,182.2c0,3.7,1.1,6.5,4.8,6.5c3.7,0,4.8-2.8,4.8-6.5s-1.1-6.5-4.8-6.5
		C510.6,175.6,509.5,178.4,509.5,182.2z"/>
	<path class="st1" d="M529.4,191h-3.2v-17.7h3.2v2.8h0.1c1.4-1.6,3.8-3.2,6.6-3.2v3c-2.6,0-5.3,1.1-6.7,2V191z"/>
	<path class="st1" d="M542.5,191h-3.2v-17.7h3.2v2.5h0.1c1.4-1.5,3.3-2.8,5.8-2.8c2.5,0,4.1,1.1,4.8,3.1c1.7-1.8,3.8-3.1,6.3-3.1
		c3.5,0,5.3,2.1,5.3,5.8V191h-3.2v-11.5c0-2.3-1-3.9-3.5-3.9c-1.8,0-3.4,1.2-4.5,2.1c0.1,0.6,0.1,1.2,0.1,1.9V191h-3.2v-11.6
		c-0.1-2.2-1-3.8-3.5-3.8c-1.9,0-3.4,1.2-4.4,2V191z"/>
	<path class="st1" d="M569.8,176.3l-0.5-2.6c2.4-0.5,4.9-0.7,6.8-0.7c4.2,0,6.5,1.2,6.5,5.8V191h-3.2v-1.8c0,0,0,0-0.1,0
		c-1.7,1.5-3.3,2.1-5.6,2.1c-3.5,0-5.6-2.1-5.6-5.2c0-4,3.2-5.4,7.4-5.4h3.9V179c0-2.3-1.2-3.4-4.1-3.4
		C574,175.6,572.4,175.8,569.8,176.3z M579.4,182.7h-3.7c-3.3,0-4.4,1.2-4.4,3.2c0,1.9,1.4,3,3.7,3c2,0,3.6-0.8,4.4-1.5V182.7z"/>
	<path class="st1" d="M588.1,175.6h-2.6v-2.1l2.6-0.2l0.4-4.9h2.8v4.9h4.9v2.3h-4.9v9.7c0,2.3,0.7,3.5,3,3.5c0.5,0,1.1-0.1,1.8-0.2
		l0.3,2.5c-1,0.1-2.3,0.2-3.2,0.2c-3.6,0-5.1-1.5-5.1-5.5V175.6z"/>
	<path class="st1" d="M603,167v4.4h-3.2V167H603z M603,173.3V191h-3.2v-17.7H603z"/>
	<path class="st1" d="M606.8,182.2c0-5.5,2.2-9.2,8.1-9.2c5.9,0,8.1,3.7,8.1,9.2c0,5.5-2.2,9.2-8.1,9.2
		C609,191.3,606.8,187.6,606.8,182.2z M610.1,182.2c0,3.7,1.1,6.5,4.8,6.5c3.7,0,4.8-2.8,4.8-6.5s-1.1-6.5-4.8-6.5
		C611.2,175.6,610.1,178.4,610.1,182.2z"/>
	<path class="st1" d="M630,191h-3.2v-17.7h3.2v2.5h0.1c1.7-1.7,3.8-2.8,6.3-2.8c3.5,0,5.3,2.1,5.3,5.8V191h-3.2v-11.5
		c0-2.3-0.9-3.9-3.5-3.9c-2,0-3.9,1.2-4.9,2V191z"/>
	<path class="st1" d="M659.8,180.3v2.6h-13.8v-2.6H659.8z"/>
</g>
<g>
	<path class="st1" d="M9,228.4c-2.8,0-5.5-0.2-7.6-0.8l0.6-2.6c2.8,0.7,5.4,0.8,6.7,0.8c3.2,0,3.7-1.9,3.7-2.6c0-1.2-0.8-2-4-2.6
		c-3.7-0.7-6.6-1.9-6.6-5.6c0-3.4,2.4-4.9,6.5-4.9c2.7,0,4.9,0.3,7.1,0.8l-0.6,2.5c-2.8-0.7-5-0.8-6.3-0.8c-3.2,0-3.5,1.7-3.5,2.3
		c0,1.1,0.6,2,3.8,2.7c3.7,0.8,6.8,1.8,6.8,5.4C15.5,226.6,13.1,228.4,9,228.4z"/>
	<path class="st1" d="M22.2,228.1H19v-24.7h3.2v9.5h0.1c1.7-1.7,3.8-2.8,6.3-2.8c3.5,0,5.3,2.1,5.3,5.8v12.2h-3.2v-11.5
		c0-2.3-0.9-3.9-3.5-3.9c-2,0-3.9,1.2-4.9,2V228.1z"/>
	<path class="st1" d="M38.8,213.4l-0.5-2.6c2.4-0.5,4.9-0.7,6.8-0.7c4.2,0,6.5,1.2,6.5,5.8v12.2h-3.2v-1.8c0,0,0,0-0.1,0
		c-1.7,1.5-3.3,2.1-5.6,2.1c-3.5,0-5.6-2.1-5.6-5.2c0-4,3.2-5.4,7.4-5.4h3.9v-1.8c0-2.3-1.2-3.4-4.1-3.4
		C43.1,212.7,41.4,212.9,38.8,213.4z M48.5,219.8h-3.7c-3.3,0-4.4,1.2-4.4,3.2c0,1.9,1.4,3,3.7,3c2,0,3.6-0.8,4.4-1.5V219.8z"/>
	<path class="st1" d="M59.1,228.1H56v-17.7h3.2v2.8h0.1c1.4-1.6,3.8-3.2,6.6-3.2v3c-2.6,0-5.3,1.1-6.7,2V228.1z"/>
	<path class="st1" d="M72.3,204.1v4.4h-3.2v-4.4H72.3z M72.3,210.4v17.7h-3.2v-17.7H72.3z"/>
	<path class="st1" d="M79.8,228.1h-3.2v-17.7h3.2v2.5h0.1c1.7-1.7,3.8-2.8,6.3-2.8c3.5,0,5.3,2.1,5.3,5.8v12.2h-3.2v-11.5
		c0-2.3-0.9-3.9-3.5-3.9c-2,0-3.9,1.2-4.9,2V228.1z"/>
	<path class="st1" d="M97.3,226.9c-1-0.5-1.4-1.4-1.3-2.4c0-1.2,0.8-2.5,2.3-3.4V221c-1.8-0.9-2.9-2.6-2.9-4.9c0-3.9,2.8-6,7.2-6
		c1,0,1.8,0.2,2.4,0.4h6.2v1.9h-3.4c1.4,1,1.7,2.5,1.7,3.7c0,4-3,5.8-7,5.8c-1,0-2-0.2-2.6-0.4c-0.3,0.3-0.5,0.7-0.7,1
		c-0.5,1.1-0.4,2.3,1,2.3l6.4,0.4c3.6,0.2,5.2,1.7,5.2,4.1c0,4.1-3.2,6.2-10.2,6.2c-4.8,0-7.2-1.4-7.2-4.6
		C94.3,229.3,95.2,228.1,97.3,226.9L97.3,226.9z M102.1,233.4c3.4,0,6.3-1.1,6.3-3.5c0-1.1-0.7-2-2.9-2.1l-6.5-0.4
		c-1.1,0.8-2,1.5-2,2.9C96.9,232.3,98.7,233.4,102.1,233.4z M106.6,216.1c0-2.4-1.6-3.9-4.1-3.9c-2.8,0-4.2,1.5-4.2,3.9
		c0,2.4,1.6,3.7,4.2,3.7C105,219.8,106.6,218.4,106.6,216.1z"/>
	<path class="st1" d="M124.9,212.2L124.9,212.2c1.3-1.2,3.4-2.1,5.5-2.1c4.9,0,6.5,4.1,6.5,9.2c0,5.1-1.8,9.2-6.7,9.2
		c-2,0-4-0.8-5.2-2h-0.1v8.7h-3.2v-24.7h3.2V212.2z M129.2,212.7c-1.9,0-3.5,0.9-4.2,1.5v10.1c0.7,0.6,2.3,1.5,4.2,1.5
		c3.4,0,4.4-3,4.4-6.5C133.6,215.7,132.6,212.7,129.2,212.7z"/>
	<path class="st1" d="M141.6,213.4l-0.5-2.6c2.4-0.5,4.9-0.7,6.8-0.7c4.2,0,6.5,1.2,6.5,5.8v12.2h-3.2v-1.8c0,0,0,0-0.1,0
		c-1.7,1.5-3.3,2.1-5.6,2.1c-3.5,0-5.6-2.1-5.6-5.2c0-4,3.2-5.4,7.4-5.4h3.9v-1.8c0-2.3-1.2-3.4-4.1-3.4
		C145.9,212.7,144.3,212.9,141.6,213.4z M151.3,219.8h-3.7c-3.3,0-4.4,1.2-4.4,3.2c0,1.9,1.4,3,3.7,3c2,0,3.6-0.8,4.4-1.5V219.8z"/>
	<path class="st1" d="M162,228.1h-3.2v-17.7h3.2v2.8h0.1c1.4-1.6,3.8-3.2,6.6-3.2v3c-2.6,0-5.3,1.1-6.7,2V228.1z"/>
	<path class="st1" d="M174,212.7h-2.6v-2.1l2.6-0.2l0.4-4.9h2.8v4.9h4.9v2.3h-4.9v9.7c0,2.3,0.7,3.5,3,3.5c0.5,0,1.1-0.1,1.8-0.2
		l0.3,2.5c-1,0.1-2.3,0.2-3.2,0.2c-3.6,0-5.1-1.5-5.1-5.5V212.7z"/>
	<path class="st1" d="M188.9,228.1h-3.2v-17.7h3.2v2.5h0.1c1.7-1.7,3.8-2.8,6.3-2.8c3.5,0,5.3,2.1,5.3,5.8v12.2h-3.2v-11.5
		c0-2.3-0.9-3.9-3.5-3.9c-2,0-3.9,1.2-4.9,2V228.1z"/>
	<path class="st1" d="M207.7,219.8c0.1,3.5,1.7,6,5.8,6c1.7,0,3.5-0.1,5.5-0.7l0.4,2.6c-2.2,0.6-4.1,0.8-6.4,0.8
		c-6.5,0-8.8-3.7-8.8-9.2c0-5.5,2.3-9.2,8.7-9.2c5.4,0,6.9,3.1,7.1,6.1c0.1,1.1,0,2.4-0.2,3.6H207.7z M207.7,217.8h9
		c0.1-0.6,0.2-1.3,0.1-1.9c-0.1-1.8-1.2-3.4-4-3.4C209.2,212.6,208,214.8,207.7,217.8z"/>
	<path class="st1" d="M226.8,228.1h-3.2v-17.7h3.2v2.8h0.1c1.4-1.6,3.8-3.2,6.6-3.2v3c-2.6,0-5.3,1.1-6.7,2V228.1z"/>
	<path class="st1" d="M243.8,228.4c-2.8,0-5.5-0.2-7.6-0.8l0.6-2.6c2.8,0.7,5.4,0.8,6.7,0.8c3.2,0,3.7-1.9,3.7-2.6
		c0-1.2-0.8-2-4-2.6c-3.7-0.7-6.6-1.9-6.6-5.6c0-3.4,2.4-4.9,6.5-4.9c2.7,0,4.9,0.3,7.1,0.8l-0.6,2.5c-2.8-0.7-5-0.8-6.3-0.8
		c-3.2,0-3.5,1.7-3.5,2.3c0,1.1,0.6,2,3.8,2.7c3.7,0.8,6.8,1.8,6.8,5.4C250.4,226.6,248,228.4,243.8,228.4z"/>
	<path class="st1" d="M257,228.1h-3.2v-24.7h3.2v9.5h0.1c1.7-1.7,3.8-2.8,6.3-2.8c3.5,0,5.3,2.1,5.3,5.8v12.2h-3.2v-11.5
		c0-2.3-0.9-3.9-3.5-3.9c-2,0-3.9,1.2-4.9,2V228.1z"/>
	<path class="st1" d="M276.2,204.1v4.4H273v-4.4H276.2z M276.2,210.4v17.7H273v-17.7H276.2z"/>
	<path class="st1" d="M283.6,212.2L283.6,212.2c1.3-1.2,3.4-2.1,5.5-2.1c4.9,0,6.5,4.1,6.5,9.2c0,5.1-1.8,9.2-6.7,9.2
		c-2,0-4-0.8-5.2-2h-0.1v8.7h-3.2v-24.7h3.2V212.2z M287.8,212.7c-1.9,0-3.5,0.9-4.2,1.5v10.1c0.7,0.6,2.3,1.5,4.2,1.5
		c3.4,0,4.4-3,4.4-6.5C292.3,215.7,291.3,212.7,287.8,212.7z"/>
	<path class="st1" d="M306.1,228.4c-2.8,0-5.5-0.2-7.6-0.8l0.6-2.6c2.8,0.7,5.4,0.8,6.7,0.8c3.2,0,3.7-1.9,3.7-2.6
		c0-1.2-0.8-2-4-2.6c-3.7-0.7-6.6-1.9-6.6-5.6c0-3.4,2.4-4.9,6.5-4.9c2.7,0,4.9,0.3,7.1,0.8l-0.6,2.5c-2.8-0.7-5-0.8-6.3-0.8
		c-3.2,0-3.5,1.7-3.5,2.3c0,1.1,0.6,2,3.8,2.7c3.7,0.8,6.8,1.8,6.8,5.4C312.6,226.6,310.2,228.4,306.1,228.4z"/>
	<path class="st1" d="M334.9,215.3l-3.6,12.9h-3.5l-5.4-17.8h3.5l3.9,14.3h0.1l3.5-14.3h3.1l3.7,14.3h0.1l3.7-14.3h3.4l-5.3,17.8
		h-3.5L334.9,215.3L334.9,215.3z"/>
	<path class="st1" d="M354.1,204.1v4.4h-3.2v-4.4H354.1z M354.1,210.4v17.7h-3.2v-17.7H354.1z"/>
	<path class="st1" d="M359.7,212.7h-2.6v-2.1l2.6-0.2l0.4-4.9h2.8v4.9h4.9v2.3h-4.9v9.7c0,2.3,0.7,3.5,3,3.5c0.5,0,1.1-0.1,1.8-0.2
		l0.3,2.5c-1,0.1-2.3,0.2-3.2,0.2c-3.6,0-5.1-1.5-5.1-5.5V212.7z"/>
	<path class="st1" d="M374.6,228.1h-3.2v-24.7h3.2v9.5h0.1c1.7-1.7,3.8-2.8,6.3-2.8c3.5,0,5.3,2.1,5.3,5.8v12.2h-3.2v-11.5
		c0-2.3-0.9-3.9-3.5-3.9c-2,0-3.9,1.2-4.9,2V228.1z"/>
	<path class="st1" d="M396.9,219.3c0-5.5,2.2-9.2,8.1-9.2c5.9,0,8.1,3.7,8.1,9.2c0,5.5-2.2,9.2-8.1,9.2
		C399.1,228.4,396.9,224.7,396.9,219.3z M400.2,219.3c0,3.7,1.1,6.5,4.8,6.5c3.7,0,4.8-2.8,4.8-6.5c0-3.7-1.1-6.5-4.8-6.5
		C401.3,212.7,400.2,215.6,400.2,219.3z"/>
	<path class="st1" d="M428.5,210.4h3.2v17.7h-3.2v-2.5h-0.1c-1.7,1.7-3.8,2.8-6.3,2.8c-3.5,0-5.3-2.1-5.3-5.8v-12.2h3.2v11.5
		c0,2.3,1,3.9,3.5,3.9c2,0,3.9-1.2,4.9-2V210.4z"/>
	<path class="st1" d="M439.2,228.1H436v-17.7h3.2v2.8h0.1c1.4-1.6,3.8-3.2,6.6-3.2v3c-2.6,0-5.3,1.1-6.7,2V228.1z"/>
	<path class="st1" d="M463.2,228.4c-2.8,0-5.5-0.2-7.6-0.8l0.6-2.6c2.8,0.7,5.4,0.8,6.7,0.8c3.2,0,3.7-1.9,3.7-2.6
		c0-1.2-0.8-2-4-2.6c-3.7-0.7-6.6-1.9-6.6-5.6c0-3.4,2.4-4.9,6.5-4.9c2.7,0,4.9,0.3,7.1,0.8l-0.6,2.5c-2.8-0.7-5-0.8-6.3-0.8
		c-3.2,0-3.5,1.7-3.5,2.3c0,1.1,0.6,2,3.8,2.7c3.7,0.8,6.8,1.8,6.8,5.4C469.7,226.6,467.3,228.4,463.2,228.4z"/>
	<path class="st1" d="M475,212.7h-2.6v-2.1l2.6-0.2l0.4-4.9h2.8v4.9h4.9v2.3h-4.9v9.7c0,2.3,0.7,3.5,3,3.5c0.5,0,1.1-0.1,1.8-0.2
		l0.3,2.5c-1,0.1-2.3,0.2-3.2,0.2c-3.6,0-5.1-1.5-5.1-5.5V212.7z"/>
	<path class="st1" d="M487.8,213.4l-0.5-2.6c2.4-0.5,4.9-0.7,6.8-0.7c4.2,0,6.5,1.2,6.5,5.8v12.2h-3.2v-1.8c0,0,0,0-0.1,0
		c-1.7,1.5-3.3,2.1-5.6,2.1c-3.5,0-5.6-2.1-5.6-5.2c0-4,3.2-5.4,7.4-5.4h3.9v-1.8c0-2.3-1.2-3.4-4.1-3.4
		C492.1,212.7,490.4,212.9,487.8,213.4z M497.5,219.8h-3.7c-3.3,0-4.4,1.2-4.4,3.2c0,1.9,1.4,3,3.7,3c2,0,3.6-0.8,4.4-1.5V219.8z"/>
	<path class="st1" d="M508.1,217.6l8.5-7.2h3.9l-6.7,6.1l7.1,11.5h-3.8l-5.5-9.7l-3.4,2.9v6.9h-3.2v-24.7h3.2V217.6z"/>
	<path class="st1" d="M525.9,219.8c0.1,3.5,1.7,6,5.8,6c1.7,0,3.5-0.1,5.5-0.7l0.4,2.6c-2.2,0.6-4.1,0.8-6.4,0.8
		c-6.5,0-8.8-3.7-8.8-9.2c0-5.5,2.3-9.2,8.7-9.2c5.4,0,6.9,3.1,7.1,6.1c0.1,1.1,0,2.4-0.2,3.6H525.9z M525.9,217.8h9
		c0.1-0.6,0.2-1.3,0.1-1.9c-0.1-1.8-1.2-3.4-4-3.4C527.4,212.6,526.2,214.8,525.9,217.8z"/>
	<path class="st1" d="M545,228.1h-3.2v-24.7h3.2v9.5h0.1c1.7-1.7,3.8-2.8,6.3-2.8c3.5,0,5.3,2.1,5.3,5.8v12.2h-3.2v-11.5
		c0-2.3-0.9-3.9-3.5-3.9c-2,0-3.9,1.2-4.9,2V228.1z"/>
	<path class="st1" d="M560.4,219.3c0-5.5,2.2-9.2,8.1-9.2c5.9,0,8.1,3.7,8.1,9.2c0,5.5-2.2,9.2-8.1,9.2
		C562.6,228.4,560.4,224.7,560.4,219.3z M563.8,219.3c0,3.7,1.1,6.5,4.8,6.5c3.7,0,4.8-2.8,4.8-6.5c0-3.7-1.1-6.5-4.8-6.5
		C564.8,212.7,563.8,215.6,563.8,219.3z"/>
	<path class="st1" d="M580.5,203.4h3.2v24.7h-3.2V203.4z"/>
	<path class="st1" d="M599.5,226.3C599.5,226.3,599.5,226.3,599.5,226.3c-1.3,1.2-3.4,2.1-5.5,2.1c-4.9,0-6.5-4.1-6.5-9.2
		c0-5.1,1.8-9.2,6.7-9.2c2,0,4,0.8,5.2,2c0,0,0,0,0.1,0v-8.8h3.2v24.7h-3.2V226.3z M595.3,225.8c1.9,0,3.5-0.9,4.2-1.5v-10.1
		c-0.7-0.6-2.3-1.5-4.2-1.5c-3.5,0-4.4,3-4.4,6.5C590.9,222.8,591.8,225.8,595.3,225.8z"/>
	<path class="st1" d="M609.9,219.8c0.1,3.5,1.7,6,5.8,6c1.7,0,3.5-0.1,5.5-0.7l0.4,2.6c-2.2,0.6-4.1,0.8-6.4,0.8
		c-6.5,0-8.8-3.7-8.8-9.2c0-5.5,2.3-9.2,8.7-9.2c5.4,0,6.9,3.1,7.1,6.1c0.1,1.1,0,2.4-0.2,3.6H609.9z M609.9,217.8h9
		c0.1-0.6,0.2-1.3,0.1-1.9c-0.1-1.8-1.2-3.4-4-3.4C611.5,212.6,610.2,214.8,609.9,217.8z"/>
	<path class="st1" d="M629.1,228.1h-3.2v-17.7h3.2v2.8h0.1c1.4-1.6,3.8-3.2,6.6-3.2v3c-2.6,0-5.3,1.1-6.7,2V228.1z"/>
	<path class="st1" d="M646.1,228.4c-2.8,0-5.5-0.2-7.6-0.8l0.6-2.6c2.8,0.7,5.4,0.8,6.7,0.8c3.2,0,3.7-1.9,3.7-2.6
		c0-1.2-0.8-2-4-2.6c-3.7-0.7-6.6-1.9-6.6-5.6c0-3.4,2.4-4.9,6.5-4.9c2.7,0,4.9,0.3,7.1,0.8l-0.6,2.5c-2.8-0.7-5-0.8-6.3-0.8
		c-3.2,0-3.5,1.7-3.5,2.3c0,1.1,0.6,2,3.8,2.7c3.7,0.8,6.8,1.8,6.8,5.4C652.6,226.6,650.2,228.4,646.1,228.4z"/>
</g>
<g>
	<path class="st1" d="M2.3,299.2v-24h3.4v24H2.3z"/>
	<path class="st1" d="M13.5,299.2h-3.2v-17.7h3.2v2.5h0.1c1.4-1.5,3.3-2.8,5.8-2.8c2.5,0,4.1,1.1,4.8,3.1c1.7-1.8,3.8-3.1,6.3-3.1
		c3.5,0,5.3,2.1,5.3,5.8v12.2h-3.2v-11.5c0-2.3-1-3.9-3.5-3.9c-1.8,0-3.4,1.2-4.5,2.1c0.1,0.6,0.1,1.2,0.1,1.9v11.3h-3.2v-11.6
		c-0.1-2.2-1-3.8-3.5-3.8c-1.9,0-3.4,1.2-4.4,2V299.2z"/>
	<path class="st1" d="M43.3,283.3L43.3,283.3c1.3-1.2,3.4-2.1,5.5-2.1c4.9,0,6.5,4.1,6.5,9.2s-1.8,9.2-6.7,9.2c-2,0-4-0.8-5.2-2
		h-0.1v8.7h-3.2v-24.7h3.2V283.3z M47.5,283.8c-1.9,0-3.5,0.9-4.2,1.5v10.1c0.7,0.6,2.3,1.5,4.2,1.5c3.4,0,4.4-3,4.4-6.5
		S50.9,283.8,47.5,283.8z"/>
	<path class="st1" d="M59.1,274.5h3.2v24.7h-3.2V274.5z"/>
	<path class="st1" d="M69.5,290.9c0.1,3.5,1.7,6,5.8,6c1.7,0,3.5-0.1,5.5-0.7l0.4,2.6c-2.2,0.6-4.1,0.8-6.4,0.8
		c-6.5,0-8.8-3.7-8.8-9.2s2.3-9.2,8.7-9.2c5.4,0,6.9,3.1,7.1,6.1c0.1,1.1,0,2.4-0.2,3.6H69.5z M69.5,288.9h9
		c0.1-0.6,0.2-1.3,0.1-1.9c-0.1-1.8-1.2-3.4-4-3.4C71,283.7,69.8,285.9,69.5,288.9z"/>
	<path class="st1" d="M88.7,299.2h-3.2v-17.7h3.2v2.5h0.1c1.4-1.5,3.3-2.8,5.8-2.8c2.5,0,4.1,1.1,4.8,3.1c1.7-1.8,3.8-3.1,6.3-3.1
		c3.5,0,5.3,2.1,5.3,5.8v12.2h-3.2v-11.5c0-2.3-1-3.9-3.5-3.9c-1.8,0-3.4,1.2-4.5,2.1c0.1,0.6,0.1,1.2,0.1,1.9v11.3h-3.2v-11.6
		c-0.1-2.2-1-3.8-3.5-3.8c-1.9,0-3.4,1.2-4.4,2V299.2z"/>
	<path class="st1" d="M118.1,290.9c0.1,3.5,1.7,6,5.8,6c1.7,0,3.5-0.1,5.5-0.7l0.4,2.6c-2.2,0.6-4.1,0.8-6.4,0.8
		c-6.5,0-8.8-3.7-8.8-9.2s2.3-9.2,8.7-9.2c5.4,0,6.9,3.1,7.1,6.1c0.1,1.1,0,2.4-0.2,3.6H118.1z M118.1,288.9h9
		c0.1-0.6,0.2-1.3,0.1-1.9c-0.1-1.8-1.2-3.4-4-3.4C119.6,283.7,118.3,285.9,118.1,288.9z"/>
	<path class="st1" d="M137.2,299.2h-3.2v-17.7h3.2v2.5h0.1c1.7-1.7,3.8-2.8,6.3-2.8c3.5,0,5.3,2.1,5.3,5.8v12.2h-3.2v-11.5
		c0-2.3-0.9-3.9-3.5-3.9c-2,0-3.9,1.2-4.9,2V299.2z"/>
	<path class="st1" d="M154.4,283.8h-2.6v-2.1l2.6-0.2l0.4-4.9h2.8v4.9h4.9v2.3h-4.9v9.7c0,2.3,0.7,3.5,3,3.5c0.5,0,1.1-0.1,1.8-0.2
		l0.3,2.5c-1,0.1-2.3,0.2-3.2,0.2c-3.6,0-5.1-1.5-5.1-5.5V283.8z"/>
	<path class="st1" d="M176.4,299.2h-3.2v-17.7h3.2v2.8h0.1c1.4-1.6,3.8-3.2,6.6-3.2v3c-2.6,0-5.3,1.1-6.7,2V299.2z"/>
	<path class="st1" d="M189,290.9c0.1,3.5,1.7,6,5.8,6c1.7,0,3.5-0.1,5.5-0.7l0.4,2.6c-2.2,0.6-4.1,0.8-6.4,0.8
		c-6.5,0-8.8-3.7-8.8-9.2s2.3-9.2,8.7-9.2c5.4,0,6.9,3.1,7.1,6.1c0.1,1.1,0,2.4-0.2,3.6H189z M189,288.9h9c0.1-0.6,0.2-1.3,0.1-1.9
		c-0.1-1.8-1.2-3.4-4-3.4C190.5,283.7,189.2,285.9,189,288.9z"/>
	<path class="st1" d="M210.2,299.4l-6.5-17.8h3.6l4.9,14.3h0.1l5-14.3h3.4l-6.6,17.8H210.2z"/>
	<path class="st1" d="M227.1,275.2v4.4h-3.2v-4.4H227.1z M227.1,281.5v17.7h-3.2v-17.7H227.1z"/>
	<path class="st1" d="M238.1,299.5c-2.8,0-5.5-0.2-7.6-0.8l0.6-2.6c2.8,0.7,5.4,0.8,6.7,0.8c3.2,0,3.7-1.9,3.7-2.6
		c0-1.2-0.8-2-4-2.6c-3.7-0.7-6.6-1.9-6.6-5.6c0-3.4,2.4-4.9,6.5-4.9c2.7,0,4.9,0.3,7.1,0.8l-0.6,2.5c-2.8-0.7-5-0.8-6.3-0.8
		c-3.2,0-3.5,1.7-3.5,2.3c0,1.1,0.6,2,3.8,2.7c3.7,0.8,6.8,1.8,6.8,5.4C244.6,297.7,242.2,299.5,238.1,299.5z"/>
	<path class="st1" d="M251.1,290.9c0.1,3.5,1.7,6,5.8,6c1.7,0,3.5-0.1,5.5-0.7l0.4,2.6c-2.2,0.6-4.1,0.8-6.4,0.8
		c-6.5,0-8.8-3.7-8.8-9.2s2.3-9.2,8.7-9.2c5.4,0,6.9,3.1,7.1,6.1c0.1,1.1,0,2.4-0.2,3.6H251.1z M251.1,288.9h9
		c0.1-0.6,0.2-1.3,0.1-1.9c-0.1-1.8-1.2-3.4-4-3.4C252.6,283.7,251.3,285.9,251.1,288.9z"/>
	<path class="st1" d="M278.6,297.4C278.5,297.4,278.5,297.4,278.6,297.4c-1.3,1.2-3.4,2.1-5.5,2.1c-4.9,0-6.5-4.1-6.5-9.2
		s1.8-9.2,6.7-9.2c2,0,4,0.8,5.2,2c0,0,0,0,0.1,0v-8.8h3.2v24.7h-3.2V297.4z M274.3,296.9c1.9,0,3.5-0.9,4.2-1.5v-10.1
		c-0.7-0.6-2.3-1.5-4.2-1.5c-3.5,0-4.4,3-4.4,6.5S270.9,296.9,274.3,296.9z"/>
	<path class="st1" d="M308,278.2h-11.7v7.8h10.1v3h-10.1v10.2H293v-24h15V278.2z"/>
	<path class="st1" d="M314.8,275.2v4.4h-3.2v-4.4H314.8z M314.8,281.5v17.7h-3.2v-17.7H314.8z"/>
	<path class="st1" d="M320.4,283.8h-2.6v-2.1l2.6-0.2l0.4-4.9h2.8v4.9h4.9v2.3h-4.9v9.7c0,2.3,0.7,3.5,3,3.5c0.5,0,1.1-0.1,1.8-0.2
		l0.3,2.5c-1,0.1-2.3,0.2-3.2,0.2c-3.6,0-5.1-1.5-5.1-5.5V283.8z"/>
	<path class="st1" d="M335.3,299.2h-3.2v-17.7h3.2v2.5h0.1c1.7-1.7,3.8-2.8,6.3-2.8c3.5,0,5.3,2.1,5.3,5.8v12.2h-3.2v-11.5
		c0-2.3-0.9-3.9-3.5-3.9c-2,0-3.9,1.2-4.9,2V299.2z"/>
	<path class="st1" d="M354.1,290.9c0.1,3.5,1.7,6,5.8,6c1.7,0,3.5-0.1,5.5-0.7l0.4,2.6c-2.2,0.6-4.1,0.8-6.4,0.8
		c-6.5,0-8.8-3.7-8.8-9.2s2.3-9.2,8.7-9.2c5.4,0,6.9,3.1,7.1,6.1c0.1,1.1,0,2.4-0.2,3.6H354.1z M354.1,288.9h9
		c0.1-0.6,0.2-1.3,0.1-1.9c-0.1-1.8-1.2-3.4-4-3.4C355.6,283.7,354.4,285.9,354.1,288.9z"/>
	<path class="st1" d="M376.9,299.5c-2.8,0-5.5-0.2-7.6-0.8l0.6-2.6c2.8,0.7,5.4,0.8,6.7,0.8c3.2,0,3.7-1.9,3.7-2.6
		c0-1.2-0.8-2-4-2.6c-3.7-0.7-6.6-1.9-6.6-5.6c0-3.4,2.4-4.9,6.5-4.9c2.7,0,4.9,0.3,7.1,0.8l-0.6,2.5c-2.8-0.7-5-0.8-6.3-0.8
		c-3.2,0-3.5,1.7-3.5,2.3c0,1.1,0.6,2,3.8,2.7c3.7,0.8,6.8,1.8,6.8,5.4C383.4,297.7,381,299.5,376.9,299.5z"/>
	<path class="st1" d="M393.8,299.5c-2.8,0-5.5-0.2-7.6-0.8l0.6-2.6c2.8,0.7,5.4,0.8,6.7,0.8c3.2,0,3.7-1.9,3.7-2.6
		c0-1.2-0.8-2-4-2.6c-3.7-0.7-6.6-1.9-6.6-5.6c0-3.4,2.4-4.9,6.5-4.9c2.7,0,4.9,0.3,7.1,0.8l-0.6,2.5c-2.8-0.7-5-0.8-6.3-0.8
		c-3.2,0-3.5,1.7-3.5,2.3c0,1.1,0.6,2,3.8,2.7c3.7,0.8,6.8,1.8,6.8,5.4C400.3,297.7,397.9,299.5,393.8,299.5z"/>
	<path class="st1" d="M412.1,283.8h-2.6v-2.1l2.6-0.2l0.4-4.9h2.8v4.9h4.9v2.3h-4.9v9.7c0,2.3,0.7,3.5,3,3.5c0.5,0,1.1-0.1,1.8-0.2
		l0.3,2.5c-1,0.1-2.3,0.2-3.2,0.2c-3.6,0-5.1-1.5-5.1-5.5V283.8z"/>
	<path class="st1" d="M422.9,290.4c0-5.5,2.2-9.2,8.1-9.2c5.9,0,8.1,3.7,8.1,9.2s-2.2,9.2-8.1,9.2
		C425,299.5,422.9,295.8,422.9,290.4z M426.2,290.4c0,3.7,1.1,6.5,4.8,6.5c3.7,0,4.8-2.8,4.8-6.5s-1.1-6.5-4.8-6.5
		C427.3,283.8,426.2,286.7,426.2,290.4z"/>
	<path class="st1" d="M459.3,278.2v21h-3.4v-21h-6.6v-3h16.6v3H459.3z"/>
	<path class="st1" d="M469.7,290.9c0.1,3.5,1.7,6,5.8,6c1.7,0,3.5-0.1,5.5-0.7l0.4,2.6c-2.2,0.6-4.1,0.8-6.4,0.8
		c-6.5,0-8.8-3.7-8.8-9.2s2.3-9.2,8.7-9.2c5.4,0,6.9,3.1,7.1,6.1c0.1,1.1,0,2.4-0.2,3.6H469.7z M469.7,288.9h9
		c0.1-0.6,0.2-1.3,0.1-1.9c-0.1-1.8-1.2-3.4-4-3.4C471.2,283.7,470,285.9,469.7,288.9z"/>
	<path class="st1" d="M486.2,284.5l-0.5-2.6c2.4-0.5,4.9-0.7,6.8-0.7c4.2,0,6.5,1.2,6.5,5.8v12.2h-3.2v-1.8c0,0,0,0-0.1,0
		c-1.7,1.5-3.3,2.1-5.6,2.1c-3.5,0-5.6-2.1-5.6-5.2c0-4,3.2-5.4,7.4-5.4h3.9v-1.8c0-2.3-1.2-3.4-4.1-3.4
		C490.5,283.8,488.8,284,486.2,284.5z M495.9,290.9h-3.7c-3.3,0-4.4,1.2-4.4,3.2c0,1.9,1.4,3,3.7,3c2,0,3.6-0.8,4.4-1.5V290.9z"/>
	<path class="st1" d="M511.5,281.2c2.2,0,3.9,0.3,6,0.8l-0.6,2.5c-2.8-0.7-4.2-0.7-5.4-0.7c-3.7,0-5.3,2.6-5.3,6.5s1.6,6.5,5.3,6.5
		c1.2,0,2.6,0,5.4-0.7l0.6,2.6c-2.1,0.5-3.8,0.8-6,0.8c-6.5,0-8.7-3.7-8.7-9.2S505,281.2,511.5,281.2z"/>
	<path class="st1" d="M523.7,299.2h-3.2v-24.7h3.2v9.5h0.1c1.7-1.7,3.8-2.8,6.3-2.8c3.5,0,5.3,2.1,5.3,5.8v12.2h-3.2v-11.5
		c0-2.3-0.9-3.9-3.5-3.9c-2,0-3.9,1.2-4.9,2V299.2z"/>
	<path class="st1" d="M560.7,299.2l-5.7-9.4h-5.1v9.4h-3.4v-24h9.9c4.8,0,7.4,3.1,7.4,7.3c0,3.4-1.8,6.1-5.3,6.8l6.1,9.9H560.7z
		 M549.9,286.8h6c2.6,0,4.5-1.4,4.5-4.3c0-2.8-1.7-4.3-4.3-4.3h-6.2V286.8z"/>
	<path class="st1" d="M579.5,281.5h3.2v17.7h-3.2v-2.5h-0.1c-1.7,1.7-3.8,2.8-6.3,2.8c-3.5,0-5.3-2.1-5.3-5.8v-12.2h3.2V293
		c0,2.3,1,3.9,3.5,3.9c2,0,3.9-1.2,4.9-2V281.5z"/>
	<path class="st1" d="M587,274.5h3.2v24.7H587V274.5z"/>
	<path class="st1" d="M597.3,290.9c0.1,3.5,1.7,6,5.8,6c1.7,0,3.5-0.1,5.5-0.7l0.4,2.6c-2.2,0.6-4.1,0.8-6.4,0.8
		c-6.5,0-8.8-3.7-8.8-9.2s2.3-9.2,8.7-9.2c5.4,0,6.9,3.1,7.1,6.1c0.1,1.1,0,2.4-0.2,3.6H597.3z M597.3,288.9h9
		c0.1-0.6,0.2-1.3,0.1-1.9c-0.1-1.8-1.2-3.4-4-3.4C598.9,283.7,597.6,285.9,597.3,288.9z"/>
	<path class="st1" d="M620.1,299.5c-2.8,0-5.5-0.2-7.6-0.8l0.6-2.6c2.8,0.7,5.4,0.8,6.7,0.8c3.2,0,3.7-1.9,3.7-2.6
		c0-1.2-0.8-2-4-2.6c-3.7-0.7-6.6-1.9-6.6-5.6c0-3.4,2.4-4.9,6.5-4.9c2.7,0,4.9,0.3,7.1,0.8l-0.6,2.5c-2.8-0.7-5-0.8-6.3-0.8
		c-3.2,0-3.5,1.7-3.5,2.3c0,1.1,0.6,2,3.8,2.7c3.7,0.8,6.8,1.8,6.8,5.4C626.6,297.7,624.2,299.5,620.1,299.5z"/>
</g>
<g>
	<path class="st1" d="M16.5,370.3l-5.7-9.4H5.6v9.4H2.3v-24h9.9c4.8,0,7.4,3.1,7.4,7.3c0,3.4-1.8,6.1-5.3,6.8l6.1,9.9H16.5z
		 M5.6,357.9h6c2.6,0,4.5-1.4,4.5-4.3c0-2.8-1.7-4.3-4.3-4.3H5.6V357.9z"/>
	<path class="st1" d="M26.3,362c0.1,3.5,1.7,6,5.8,6c1.7,0,3.5-0.1,5.5-0.7l0.4,2.6c-2.2,0.6-4.1,0.8-6.4,0.8
		c-6.5,0-8.8-3.7-8.8-9.2s2.3-9.2,8.7-9.2c5.4,0,6.9,3.1,7.1,6.1c0.1,1.1,0,2.4-0.2,3.6H26.3z M26.3,360h9c0.1-0.6,0.2-1.3,0.1-1.9
		c-0.1-1.8-1.2-3.4-4-3.4C27.8,354.8,26.6,357,26.3,360z"/>
	<path class="st1" d="M47.5,370.5L41,352.6h3.6l4.9,14.3h0.1l5-14.3h3.4l-6.6,17.8H47.5z"/>
	<path class="st1" d="M64.4,346.3v4.4h-3.2v-4.4H64.4z M64.4,352.6v17.7h-3.2v-17.7H64.4z"/>
	<path class="st1" d="M71.6,362c0.1,3.5,1.7,6,5.8,6c1.7,0,3.5-0.1,5.5-0.7l0.4,2.6c-2.2,0.6-4.1,0.8-6.4,0.8
		c-6.5,0-8.8-3.7-8.8-9.2s2.3-9.2,8.7-9.2c5.4,0,6.9,3.1,7.1,6.1c0.1,1.1,0,2.4-0.2,3.6H71.6z M71.6,360h9c0.1-0.6,0.2-1.3,0.1-1.9
		c-0.1-1.8-1.2-3.4-4-3.4C73.2,354.8,71.9,357,71.6,360z"/>
	<path class="st1" d="M98.9,357.6l-3.6,12.9h-3.5l-5.4-17.8h3.5l3.9,14.3h0.1l3.5-14.3h3.1l3.7,14.3h0.1l3.7-14.3h3.4l-5.3,17.8
		h-3.5L98.9,357.6L98.9,357.6z"/>
	<path class="st1" d="M122.9,355.6l-0.5-2.6c2.4-0.5,4.9-0.7,6.8-0.7c4.2,0,6.5,1.2,6.5,5.8v12.2h-3.2v-1.8c0,0,0,0-0.1,0
		c-1.7,1.5-3.3,2.1-5.6,2.1c-3.5,0-5.6-2.1-5.6-5.2c0-4,3.2-5.4,7.4-5.4h3.9v-1.8c0-2.3-1.2-3.4-4.1-3.4
		C127.2,354.9,125.5,355.1,122.9,355.6z M132.6,362h-3.7c-3.3,0-4.4,1.2-4.4,3.2c0,1.9,1.4,3,3.7,3c2,0,3.6-0.8,4.4-1.5V362z"/>
	<path class="st1" d="M143.3,370.3h-3.2v-17.7h3.2v2.5h0.1c1.7-1.7,3.8-2.8,6.3-2.8c3.5,0,5.3,2.1,5.3,5.8v12.2h-3.2v-11.5
		c0-2.3-0.9-3.9-3.5-3.9c-2,0-3.9,1.2-4.9,2V370.3z"/>
	<path class="st1" d="M170.8,368.5C170.7,368.5,170.7,368.5,170.8,368.5c-1.3,1.2-3.4,2.1-5.5,2.1c-4.9,0-6.5-4.1-6.5-9.2
		s1.8-9.2,6.7-9.2c2,0,4,0.8,5.2,2c0,0,0,0,0.1,0v-8.8h3.2v24.7h-3.2V368.5z M166.5,368c1.9,0,3.5-0.9,4.2-1.5v-10.1
		c-0.7-0.6-2.3-1.5-4.2-1.5c-3.5,0-4.4,3-4.4,6.5S163.1,368,166.5,368z"/>
	<path class="st1" d="M188,370.3h-3.2v-17.7h3.2v2.8h0.1c1.4-1.6,3.8-3.2,6.6-3.2v3c-2.6,0-5.3,1.1-6.7,2V370.3z"/>
	<path class="st1" d="M200.6,362c0.1,3.5,1.7,6,5.8,6c1.7,0,3.5-0.1,5.5-0.7l0.4,2.6c-2.2,0.6-4.1,0.8-6.4,0.8
		c-6.5,0-8.8-3.7-8.8-9.2s2.3-9.2,8.7-9.2c5.4,0,6.9,3.1,7.1,6.1c0.1,1.1,0,2.4-0.2,3.6H200.6z M200.6,360h9
		c0.1-0.6,0.2-1.3,0.1-1.9c-0.1-1.8-1.2-3.4-4-3.4C202.2,354.8,200.9,357,200.6,360z"/>
	<path class="st1" d="M221.8,370.5l-6.5-17.8h3.6l4.9,14.3h0.1l5-14.3h3.4l-6.6,17.8H221.8z"/>
	<path class="st1" d="M238.8,346.3v4.4h-3.2v-4.4H238.8z M238.8,352.6v17.7h-3.2v-17.7H238.8z"/>
	<path class="st1" d="M249.7,370.7c-2.8,0-5.5-0.2-7.6-0.8l0.6-2.6c2.8,0.7,5.4,0.8,6.7,0.8c3.2,0,3.7-1.9,3.7-2.6
		c0-1.2-0.8-2-4-2.6c-3.7-0.7-6.6-1.9-6.6-5.6c0-3.4,2.4-4.9,6.5-4.9c2.7,0,4.9,0.3,7.1,0.8l-0.6,2.5c-2.8-0.7-5-0.8-6.3-0.8
		c-3.2,0-3.5,1.7-3.5,2.3c0,1.1,0.6,2,3.8,2.7c3.7,0.8,6.8,1.8,6.8,5.4C256.3,368.8,253.8,370.7,249.7,370.7z"/>
	<path class="st1" d="M262.7,362c0.1,3.5,1.7,6,5.8,6c1.7,0,3.5-0.1,5.5-0.7l0.4,2.6c-2.2,0.6-4.1,0.8-6.4,0.8
		c-6.5,0-8.8-3.7-8.8-9.2s2.3-9.2,8.7-9.2c5.4,0,6.9,3.1,7.1,6.1c0.1,1.1,0,2.4-0.2,3.6H262.7z M262.7,360h9
		c0.1-0.6,0.2-1.3,0.1-1.9c-0.1-1.8-1.2-3.4-4-3.4C264.3,354.8,263,357,262.7,360z"/>
	<path class="st1" d="M285.1,361.5c0-5.5,2.2-9.2,8.1-9.2c5.9,0,8.1,3.7,8.1,9.2s-2.2,9.2-8.1,9.2
		C287.2,370.7,285.1,366.9,285.1,361.5z M288.4,361.5c0,3.7,1.1,6.5,4.8,6.5c3.7,0,4.8-2.8,4.8-6.5s-1.1-6.5-4.8-6.5
		C289.5,354.9,288.4,357.8,288.4,361.5z"/>
	<path class="st1" d="M316.7,352.6h3.2v17.7h-3.2v-2.5h-0.1c-1.7,1.7-3.8,2.8-6.3,2.8c-3.5,0-5.3-2.1-5.3-5.8v-12.2h3.2v11.5
		c0,2.3,1,3.9,3.5,3.9c2,0,3.9-1.2,4.9-2V352.6z"/>
	<path class="st1" d="M327.4,370.3h-3.2v-17.7h3.2v2.8h0.1c1.4-1.6,3.8-3.2,6.6-3.2v3c-2.6,0-5.3,1.1-6.7,2V370.3z"/>
	<path class="st1" d="M347.5,370.3h-3.2v-17.7h3.2v2.8h0.1c1.4-1.6,3.8-3.2,6.6-3.2v3c-2.6,0-5.3,1.1-6.7,2V370.3z"/>
	<path class="st1" d="M360.1,362c0.1,3.5,1.7,6,5.8,6c1.7,0,3.5-0.1,5.5-0.7l0.4,2.6c-2.2,0.6-4.1,0.8-6.4,0.8
		c-6.5,0-8.8-3.7-8.8-9.2s2.3-9.2,8.7-9.2c5.4,0,6.9,3.1,7.1,6.1c0.1,1.1,0,2.4-0.2,3.6H360.1z M360.1,360h9
		c0.1-0.6,0.2-1.3,0.1-1.9c-0.1-1.8-1.2-3.4-4-3.4C361.6,354.8,360.3,357,360.1,360z"/>
	<path class="st1" d="M377.8,369.1c-1-0.5-1.4-1.4-1.3-2.4c0-1.2,0.8-2.5,2.3-3.4v-0.1c-1.8-0.9-2.9-2.6-2.9-4.9c0-3.9,2.8-6,7.2-6
		c1,0,1.8,0.2,2.4,0.4h6.2v1.9h-3.4c1.4,1,1.7,2.5,1.7,3.7c0,4-3,5.8-7,5.8c-1,0-2-0.2-2.6-0.4c-0.3,0.3-0.5,0.7-0.7,1
		c-0.5,1.1-0.4,2.3,1,2.3l6.4,0.4c3.6,0.2,5.2,1.7,5.2,4.1c0,4.1-3.2,6.2-10.2,6.2c-4.8,0-7.2-1.4-7.2-4.6
		C374.7,371.5,375.7,370.3,377.8,369.1L377.8,369.1z M382.6,375.6c3.4,0,6.3-1.1,6.3-3.5c0-1.1-0.7-2-2.9-2.1l-6.5-0.4
		c-1.1,0.8-2,1.5-2,2.9C377.4,374.5,379.2,375.6,382.6,375.6z M387.1,358.3c0-2.4-1.6-3.9-4.1-3.9c-2.8,0-4.2,1.5-4.2,3.9
		c0,2.4,1.6,3.7,4.2,3.7C385.5,362,387.1,360.6,387.1,358.3z"/>
	<path class="st1" d="M398.5,346.3v4.4h-3.2v-4.4H398.5z M398.5,352.6v17.7h-3.2v-17.7H398.5z"/>
	<path class="st1" d="M409.5,370.7c-2.8,0-5.5-0.2-7.6-0.8l0.6-2.6c2.8,0.7,5.4,0.8,6.7,0.8c3.2,0,3.7-1.9,3.7-2.6
		c0-1.2-0.8-2-4-2.6c-3.7-0.7-6.6-1.9-6.6-5.6c0-3.4,2.4-4.9,6.5-4.9c2.7,0,4.9,0.3,7.1,0.8l-0.6,2.5c-2.8-0.7-5-0.8-6.3-0.8
		c-3.2,0-3.5,1.7-3.5,2.3c0,1.1,0.6,2,3.8,2.7c3.7,0.8,6.8,1.8,6.8,5.4C416,368.8,413.6,370.7,409.5,370.7z"/>
	<path class="st1" d="M421.3,354.9h-2.6v-2.1l2.6-0.2l0.4-4.9h2.8v4.9h4.9v2.3h-4.9v9.7c0,2.3,0.7,3.5,3,3.5c0.5,0,1.1-0.1,1.8-0.2
		l0.3,2.5c-1,0.1-2.3,0.2-3.2,0.2c-3.6,0-5.1-1.5-5.1-5.5V354.9z"/>
	<path class="st1" d="M436.2,370.3H433v-17.7h3.2v2.8h0.1c1.4-1.6,3.8-3.2,6.6-3.2v3c-2.6,0-5.3,1.1-6.7,2V370.3z"/>
	<path class="st1" d="M447,355.6l-0.5-2.6c2.4-0.5,4.9-0.7,6.8-0.7c4.2,0,6.5,1.2,6.5,5.8v12.2h-3.2v-1.8c0,0,0,0-0.1,0
		c-1.7,1.5-3.3,2.1-5.6,2.1c-3.5,0-5.6-2.1-5.6-5.2c0-4,3.2-5.4,7.4-5.4h3.9v-1.8c0-2.3-1.2-3.4-4.1-3.4
		C451.2,354.9,449.6,355.1,447,355.6z M456.6,362h-3.7c-3.3,0-4.4,1.2-4.4,3.2c0,1.9,1.4,3,3.7,3c2,0,3.6-0.8,4.4-1.5V362z"/>
	<path class="st1" d="M465.3,354.9h-2.6v-2.1l2.6-0.2l0.4-4.9h2.8v4.9h4.9v2.3h-4.9v9.7c0,2.3,0.7,3.5,3,3.5c0.5,0,1.1-0.1,1.8-0.2
		l0.3,2.5c-1,0.1-2.3,0.2-3.2,0.2c-3.6,0-5.1-1.5-5.1-5.5V354.9z"/>
	<path class="st1" d="M480.2,346.3v4.4H477v-4.4H480.2z M480.2,352.6v17.7H477v-17.7H480.2z"/>
	<path class="st1" d="M484,361.5c0-5.5,2.2-9.2,8.1-9.2c5.9,0,8.1,3.7,8.1,9.2s-2.2,9.2-8.1,9.2C486.2,370.7,484,366.9,484,361.5z
		 M487.3,361.5c0,3.7,1.1,6.5,4.8,6.5c3.7,0,4.8-2.8,4.8-6.5s-1.1-6.5-4.8-6.5C488.4,354.9,487.3,357.8,487.3,361.5z"/>
	<path class="st1" d="M507.2,370.3H504v-17.7h3.2v2.5h0.1c1.7-1.7,3.8-2.8,6.3-2.8c3.5,0,5.3,2.1,5.3,5.8v12.2h-3.2v-11.5
		c0-2.3-0.9-3.9-3.5-3.9c-2,0-3.9,1.2-4.9,2V370.3z"/>
	<path class="st1" d="M538.1,352.3c2.2,0,3.9,0.3,6,0.8l-0.6,2.5c-2.8-0.7-4.2-0.7-5.4-0.7c-3.7,0-5.3,2.6-5.3,6.5s1.6,6.5,5.3,6.5
		c1.2,0,2.6,0,5.4-0.7l0.6,2.6c-2.1,0.5-3.8,0.8-6,0.8c-6.5,0-8.7-3.7-8.7-9.2S531.6,352.3,538.1,352.3z"/>
	<path class="st1" d="M550.2,370.3h-3.2v-17.7h3.2v2.8h0.1c1.4-1.6,3.8-3.2,6.6-3.2v3c-2.6,0-5.3,1.1-6.7,2V370.3z"/>
	<path class="st1" d="M563.4,346.3v4.4h-3.2v-4.4H563.4z M563.4,352.6v17.7h-3.2v-17.7H563.4z"/>
	<path class="st1" d="M569,354.9h-2.6v-2.1l2.6-0.2l0.4-4.9h2.8v4.9h4.9v2.3h-4.9v9.7c0,2.3,0.7,3.5,3,3.5c0.5,0,1.1-0.1,1.8-0.2
		l0.3,2.5c-1,0.1-2.3,0.2-3.2,0.2c-3.6,0-5.1-1.5-5.1-5.5V354.9z"/>
	<path class="st1" d="M583.1,362c0.1,3.5,1.7,6,5.8,6c1.7,0,3.5-0.1,5.5-0.7l0.4,2.6c-2.2,0.6-4.1,0.8-6.4,0.8
		c-6.5,0-8.8-3.7-8.8-9.2s2.3-9.2,8.7-9.2c5.4,0,6.9,3.1,7.1,6.1c0.1,1.1,0,2.4-0.2,3.6H583.1z M583.1,360h9
		c0.1-0.6,0.2-1.3,0.1-1.9c-0.1-1.8-1.2-3.4-4-3.4C584.7,354.8,583.4,357,583.1,360z"/>
	<path class="st1" d="M602.3,370.3h-3.2v-17.7h3.2v2.8h0.1c1.4-1.6,3.8-3.2,6.6-3.2v3c-2.6,0-5.3,1.1-6.7,2V370.3z"/>
	<path class="st1" d="M615.4,346.3v4.4h-3.2v-4.4H615.4z M615.4,352.6v17.7h-3.2v-17.7H615.4z"/>
	<path class="st1" d="M620.5,355.6L620,353c2.4-0.5,4.9-0.7,6.8-0.7c4.2,0,6.5,1.2,6.5,5.8v12.2h-3.2v-1.8c0,0,0,0-0.1,0
		c-1.7,1.5-3.3,2.1-5.6,2.1c-3.5,0-5.6-2.1-5.6-5.2c0-4,3.2-5.4,7.4-5.4h3.9v-1.8c0-2.3-1.2-3.4-4.1-3.4
		C624.7,354.9,623.1,355.1,620.5,355.6z M630.1,362h-3.7c-3.3,0-4.4,1.2-4.4,3.2c0,1.9,1.4,3,3.7,3c2,0,3.6-0.8,4.4-1.5V362z"/>
</g>
<g>
	<path class="st1" d="M2.3,417.4v-24h3.4v24H2.3z"/>
	<path class="st1" d="M13.5,417.4h-3.2v-17.7h3.2v2.5h0.1c1.4-1.5,3.3-2.8,5.8-2.8c2.5,0,4.1,1.1,4.8,3.1c1.7-1.8,3.8-3.1,6.3-3.1
		c3.5,0,5.3,2.1,5.3,5.8v12.2h-3.2V406c0-2.3-1-3.9-3.5-3.9c-1.8,0-3.4,1.2-4.5,2.1c0.1,0.6,0.1,1.2,0.1,1.9v11.3h-3.2v-11.6
		c-0.1-2.2-1-3.8-3.5-3.8c-1.9,0-3.4,1.2-4.4,2V417.4z"/>
	<path class="st1" d="M43.3,401.5L43.3,401.5c1.3-1.2,3.4-2.1,5.5-2.1c4.9,0,6.5,4.1,6.5,9.2s-1.8,9.2-6.7,9.2c-2,0-4-0.8-5.2-2
		h-0.1v8.7h-3.2v-24.7h3.2V401.5z M47.5,402.1c-1.9,0-3.5,0.9-4.2,1.5v10.1c0.7,0.6,2.3,1.5,4.2,1.5c3.4,0,4.4-3,4.4-6.5
		S50.9,402.1,47.5,402.1z"/>
	<path class="st1" d="M62.3,417.4h-3.2v-17.7h3.2v2.8h0.1c1.4-1.6,3.8-3.2,6.6-3.2v3c-2.6,0-5.3,1.1-6.7,2V417.4z"/>
	<path class="st1" d="M71.5,408.6c0-5.5,2.2-9.2,8.1-9.2c5.9,0,8.1,3.7,8.1,9.2s-2.2,9.2-8.1,9.2C73.7,417.8,71.5,414.1,71.5,408.6z
		 M74.9,408.6c0,3.7,1.1,6.5,4.8,6.5c3.7,0,4.8-2.8,4.8-6.5s-1.1-6.5-4.8-6.5C75.9,402.1,74.9,404.9,74.9,408.6z"/>
	<path class="st1" d="M96.5,417.6l-6.5-17.8h3.6l4.9,14.3h0.1l5-14.3h3.4l-6.6,17.8H96.5z"/>
	<path class="st1" d="M112.4,409.1c0.1,3.5,1.7,6,5.8,6c1.7,0,3.5-0.1,5.5-0.7l0.4,2.6c-2.2,0.6-4.1,0.8-6.4,0.8
		c-6.5,0-8.8-3.7-8.8-9.2s2.3-9.2,8.7-9.2c5.4,0,6.9,3.1,7.1,6.1c0.1,1.1,0,2.4-0.2,3.6H112.4z M112.4,407.1h9
		c0.1-0.6,0.2-1.3,0.1-1.9c-0.1-1.8-1.2-3.4-4-3.4C114,401.9,112.7,404.2,112.4,407.1z"/>
	<path class="st1" d="M134.8,408.6c0-5.5,2.2-9.2,8.1-9.2c5.9,0,8.1,3.7,8.1,9.2s-2.2,9.2-8.1,9.2
		C137,417.8,134.8,414.1,134.8,408.6z M138.2,408.6c0,3.7,1.1,6.5,4.8,6.5c3.7,0,4.8-2.8,4.8-6.5s-1.1-6.5-4.8-6.5
		C139.2,402.1,138.2,404.9,138.2,408.6z"/>
	<path class="st1" d="M166.4,399.8h3.2v17.7h-3.2V415h-0.1c-1.7,1.7-3.8,2.8-6.3,2.8c-3.5,0-5.3-2.1-5.3-5.8v-12.2h3.2v11.5
		c0,2.3,1,3.9,3.5,3.9c2,0,3.9-1.2,4.9-2V399.8z"/>
	<path class="st1" d="M177.1,417.4H174v-17.7h3.2v2.8h0.1c1.4-1.6,3.8-3.2,6.6-3.2v3c-2.6,0-5.3,1.1-6.7,2V417.4z"/>
	<path class="st1" d="M197.2,417.4H194v-17.7h3.2v2.8h0.1c1.4-1.6,3.8-3.2,6.6-3.2v3c-2.6,0-5.3,1.1-6.7,2V417.4z"/>
	<path class="st1" d="M209.8,409.1c0.1,3.5,1.7,6,5.8,6c1.7,0,3.5-0.1,5.5-0.7l0.4,2.6c-2.2,0.6-4.1,0.8-6.4,0.8
		c-6.5,0-8.8-3.7-8.8-9.2s2.3-9.2,8.7-9.2c5.4,0,6.9,3.1,7.1,6.1c0.1,1.1,0,2.4-0.2,3.6H209.8z M209.8,407.1h9
		c0.1-0.6,0.2-1.3,0.1-1.9c-0.1-1.8-1.2-3.4-4-3.4C211.3,401.9,210.1,404.2,209.8,407.1z"/>
	<path class="st1" d="M227.5,416.3c-1-0.5-1.4-1.4-1.3-2.4c0-1.2,0.8-2.5,2.3-3.4v-0.1c-1.8-0.9-2.9-2.6-2.9-4.9c0-3.9,2.8-6,7.2-6
		c1,0,1.8,0.2,2.4,0.4h6.2v1.9H238c1.4,1,1.7,2.5,1.7,3.7c0,4-3,5.8-7,5.8c-1,0-2-0.2-2.6-0.4c-0.3,0.3-0.5,0.7-0.7,1
		c-0.5,1.1-0.4,2.3,1,2.3l6.4,0.4c3.6,0.2,5.2,1.7,5.2,4.1c0,4.1-3.2,6.2-10.2,6.2c-4.8,0-7.2-1.4-7.2-4.6
		C224.5,418.7,225.4,417.4,227.5,416.3L227.5,416.3z M232.3,422.7c3.4,0,6.3-1.1,6.3-3.5c0-1.1-0.7-2-2.9-2.1l-6.5-0.4
		c-1.1,0.8-2,1.5-2,2.9C227.1,421.7,228.9,422.7,232.3,422.7z M236.8,405.4c0-2.4-1.6-3.9-4.1-3.9c-2.8,0-4.2,1.5-4.2,3.9
		c0,2.4,1.6,3.7,4.2,3.7C235.2,409.1,236.8,407.8,236.8,405.4z"/>
	<path class="st1" d="M248.3,393.4v4.4h-3.2v-4.4H248.3z M248.3,399.8v17.7h-3.2v-17.7H248.3z"/>
	<path class="st1" d="M259.2,417.8c-2.8,0-5.5-0.2-7.6-0.8l0.6-2.6c2.8,0.7,5.4,0.8,6.7,0.8c3.2,0,3.7-1.9,3.7-2.6
		c0-1.2-0.8-2-4-2.6c-3.7-0.7-6.6-1.9-6.6-5.6c0-3.4,2.4-4.9,6.5-4.9c2.7,0,4.9,0.3,7.1,0.8l-0.6,2.5c-2.8-0.7-5-0.8-6.3-0.8
		c-3.2,0-3.5,1.7-3.5,2.3c0,1.1,0.6,2,3.8,2.7c3.7,0.8,6.8,1.8,6.8,5.4C265.7,416,263.3,417.8,259.2,417.8z"/>
	<path class="st1" d="M271,402.1h-2.6V400l2.6-0.2l0.4-4.9h2.8v4.9h4.9v2.3h-4.9v9.7c0,2.3,0.7,3.5,3,3.5c0.5,0,1.1-0.1,1.8-0.2
		l0.3,2.5c-1,0.1-2.3,0.2-3.2,0.2c-3.6,0-5.1-1.5-5.1-5.5V402.1z"/>
	<path class="st1" d="M285.9,417.4h-3.2v-17.7h3.2v2.8h0.1c1.4-1.6,3.8-3.2,6.6-3.2v3c-2.6,0-5.3,1.1-6.7,2V417.4z"/>
	<path class="st1" d="M296.7,402.7l-0.5-2.6c2.4-0.5,4.9-0.7,6.8-0.7c4.2,0,6.5,1.2,6.5,5.8v12.2h-3.2v-1.8c0,0,0,0-0.1,0
		c-1.7,1.5-3.3,2.1-5.6,2.1c-3.5,0-5.6-2.1-5.6-5.2c0-4,3.2-5.4,7.4-5.4h3.9v-1.8c0-2.3-1.2-3.4-4.1-3.4
		C301,402.1,299.3,402.2,296.7,402.7z M306.4,409.1h-3.7c-3.3,0-4.4,1.2-4.4,3.2c0,1.9,1.4,3,3.7,3c2,0,3.6-0.8,4.4-1.5V409.1z"/>
	<path class="st1" d="M315,402.1h-2.6V400l2.6-0.2l0.4-4.9h2.8v4.9h4.9v2.3h-4.9v9.7c0,2.3,0.7,3.5,3,3.5c0.5,0,1.1-0.1,1.8-0.2
		l0.3,2.5c-1,0.1-2.3,0.2-3.2,0.2c-3.6,0-5.1-1.5-5.1-5.5V402.1z"/>
	<path class="st1" d="M329.9,393.4v4.4h-3.2v-4.4H329.9z M329.9,399.8v17.7h-3.2v-17.7H329.9z"/>
	<path class="st1" d="M333.7,408.6c0-5.5,2.2-9.2,8.1-9.2c5.9,0,8.1,3.7,8.1,9.2s-2.2,9.2-8.1,9.2
		C335.9,417.8,333.7,414.1,333.7,408.6z M337.1,408.6c0,3.7,1.1,6.5,4.8,6.5c3.7,0,4.8-2.8,4.8-6.5s-1.1-6.5-4.8-6.5
		C338.1,402.1,337.1,404.9,337.1,408.6z"/>
	<path class="st1" d="M356.9,417.4h-3.2v-17.7h3.2v2.5h0.1c1.7-1.7,3.8-2.8,6.3-2.8c3.5,0,5.3,2.1,5.3,5.8v12.2h-3.2V406
		c0-2.3-0.9-3.9-3.5-3.9c-2,0-3.9,1.2-4.9,2V417.4z"/>
	<path class="st1" d="M382.7,401.5L382.7,401.5c1.3-1.2,3.4-2.1,5.5-2.1c4.9,0,6.5,4.1,6.5,9.2s-1.8,9.2-6.7,9.2c-2,0-4-0.8-5.2-2
		h-0.1v8.7h-3.2v-24.7h3.2V401.5z M387,402.1c-1.9,0-3.5,0.9-4.2,1.5v10.1c0.7,0.6,2.3,1.5,4.2,1.5c3.4,0,4.4-3,4.4-6.5
		S390.4,402.1,387,402.1z"/>
	<path class="st1" d="M401.7,417.4h-3.2v-17.7h3.2v2.8h0.1c1.4-1.6,3.8-3.2,6.6-3.2v3c-2.6,0-5.3,1.1-6.7,2V417.4z"/>
	<path class="st1" d="M411,408.6c0-5.5,2.2-9.2,8.1-9.2c5.9,0,8.1,3.7,8.1,9.2s-2.2,9.2-8.1,9.2C413.1,417.8,411,414.1,411,408.6z
		 M414.3,408.6c0,3.7,1.1,6.5,4.8,6.5c3.7,0,4.8-2.8,4.8-6.5s-1.1-6.5-4.8-6.5C415.4,402.1,414.3,404.9,414.3,408.6z"/>
	<path class="st1" d="M439.1,399.4c2.2,0,3.9,0.3,6,0.8l-0.6,2.5c-2.8-0.7-4.2-0.7-5.4-0.7c-3.7,0-5.3,2.6-5.3,6.5s1.6,6.5,5.3,6.5
		c1.2,0,2.6,0,5.4-0.7l0.6,2.6c-2.1,0.5-3.8,0.8-6,0.8c-6.5,0-8.7-3.7-8.7-9.2S432.6,399.4,439.1,399.4z"/>
	<path class="st1" d="M450.6,409.1c0.1,3.5,1.7,6,5.8,6c1.7,0,3.5-0.1,5.5-0.7l0.4,2.6c-2.2,0.6-4.1,0.8-6.4,0.8
		c-6.5,0-8.8-3.7-8.8-9.2s2.3-9.2,8.7-9.2c5.4,0,6.9,3.1,7.1,6.1c0.1,1.1,0,2.4-0.2,3.6H450.6z M450.6,407.1h9
		c0.1-0.6,0.2-1.3,0.1-1.9c-0.1-1.8-1.2-3.4-4-3.4C452.1,401.9,450.8,404.2,450.6,407.1z"/>
	<path class="st1" d="M473.3,417.8c-2.8,0-5.5-0.2-7.6-0.8l0.6-2.6c2.8,0.7,5.4,0.8,6.7,0.8c3.2,0,3.7-1.9,3.7-2.6
		c0-1.2-0.8-2-4-2.6c-3.7-0.7-6.6-1.9-6.6-5.6c0-3.4,2.4-4.9,6.5-4.9c2.7,0,4.9,0.3,7.1,0.8l-0.6,2.5c-2.8-0.7-5-0.8-6.3-0.8
		c-3.2,0-3.5,1.7-3.5,2.3c0,1.1,0.6,2,3.8,2.7c3.7,0.8,6.8,1.8,6.8,5.4C479.9,416,477.5,417.8,473.3,417.8z"/>
	<path class="st1" d="M490.2,417.8c-2.8,0-5.5-0.2-7.6-0.8l0.6-2.6c2.8,0.7,5.4,0.8,6.7,0.8c3.2,0,3.7-1.9,3.7-2.6
		c0-1.2-0.8-2-4-2.6c-3.7-0.7-6.6-1.9-6.6-5.6c0-3.4,2.4-4.9,6.5-4.9c2.7,0,4.9,0.3,7.1,0.8l-0.6,2.5c-2.8-0.7-5-0.8-6.3-0.8
		c-3.2,0-3.5,1.7-3.5,2.3c0,1.1,0.6,2,3.8,2.7c3.7,0.8,6.8,1.8,6.8,5.4C496.8,416,494.4,417.8,490.2,417.8z"/>
	<path class="st1" d="M503.2,409.1c0.1,3.5,1.7,6,5.8,6c1.7,0,3.5-0.1,5.5-0.7l0.4,2.6c-2.2,0.6-4.1,0.8-6.4,0.8
		c-6.5,0-8.8-3.7-8.8-9.2s2.3-9.2,8.7-9.2c5.4,0,6.9,3.1,7.1,6.1c0.1,1.1,0,2.4-0.2,3.6H503.2z M503.2,407.1h9
		c0.1-0.6,0.2-1.3,0.1-1.9c-0.1-1.8-1.2-3.4-4-3.4C504.8,401.9,503.5,404.2,503.2,407.1z"/>
	<path class="st1" d="M526,417.8c-2.8,0-5.5-0.2-7.6-0.8l0.6-2.6c2.8,0.7,5.4,0.8,6.7,0.8c3.2,0,3.7-1.9,3.7-2.6c0-1.2-0.8-2-4-2.6
		c-3.7-0.7-6.6-1.9-6.6-5.6c0-3.4,2.4-4.9,6.5-4.9c2.7,0,4.9,0.3,7.1,0.8l-0.6,2.5c-2.8-0.7-5-0.8-6.3-0.8c-3.2,0-3.5,1.7-3.5,2.3
		c0,1.1,0.6,2,3.8,2.7c3.7,0.8,6.8,1.8,6.8,5.4C532.6,416,530.2,417.8,526,417.8z"/>
</g>
<g>
	<path class="st1" d="M2.3,464.6v-24h3.4v24H2.3z"/>
	<path class="st1" d="M13.5,464.6h-3.2v-17.7h3.2v2.5h0.1c1.7-1.7,3.8-2.8,6.3-2.8c3.5,0,5.3,2.1,5.3,5.8v12.2H22v-11.5
		c0-2.3-0.9-3.9-3.5-3.9c-2,0-3.9,1.2-4.9,2V464.6z"/>
	<path class="st1" d="M30.6,449.2H28v-2.1l2.6-0.2L31,442h2.8v4.9h4.9v2.3h-4.9v9.7c0,2.3,0.7,3.5,3,3.5c0.5,0,1.1-0.1,1.8-0.2
		l0.3,2.5c-1,0.1-2.3,0.2-3.2,0.2c-3.6,0-5.1-1.5-5.1-5.5V449.2z"/>
	<path class="st1" d="M45.5,464.6h-3.2v-17.7h3.2v2.8h0.1c1.4-1.6,3.8-3.2,6.6-3.2v3c-2.6,0-5.3,1.1-6.7,2V464.6z"/>
	<path class="st1" d="M54.8,455.7c0-5.5,2.2-9.2,8.1-9.2c5.9,0,8.1,3.7,8.1,9.2s-2.2,9.2-8.1,9.2C56.9,464.9,54.8,461.2,54.8,455.7z
		 M58.1,455.7c0,3.7,1.1,6.5,4.8,6.5c3.7,0,4.8-2.8,4.8-6.5s-1.1-6.5-4.8-6.5C59.2,449.2,58.1,452,58.1,455.7z"/>
	<path class="st1" d="M86.3,462.8C86.3,462.8,86.3,462.8,86.3,462.8c-1.3,1.2-3.4,2.1-5.5,2.1c-4.9,0-6.5-4.1-6.5-9.2
		s1.8-9.2,6.7-9.2c2,0,4,0.8,5.2,2c0,0,0,0,0.1,0v-8.8h3.2v24.7h-3.2V462.8z M82.1,462.3c1.9,0,3.5-0.9,4.2-1.5v-10.1
		c-0.7-0.6-2.3-1.5-4.2-1.5c-3.5,0-4.4,3-4.4,6.5S78.6,462.3,82.1,462.3z"/>
	<path class="st1" d="M105.5,446.9h3.2v17.7h-3.2v-2.5h-0.1c-1.7,1.7-3.8,2.8-6.3,2.8c-3.5,0-5.3-2.1-5.3-5.8v-12.2H97v11.5
		c0,2.3,1,3.9,3.5,3.9c2,0,3.9-1.2,4.9-2V446.9z"/>
	<path class="st1" d="M121.1,446.6c2.2,0,3.9,0.3,6,0.8l-0.6,2.5c-2.8-0.7-4.2-0.7-5.4-0.7c-3.7,0-5.3,2.6-5.3,6.5s1.6,6.5,5.3,6.5
		c1.2,0,2.6,0,5.4-0.7l0.6,2.6c-2.1,0.5-3.8,0.8-6,0.8c-6.5,0-8.7-3.7-8.7-9.2S114.6,446.6,121.1,446.6z"/>
	<path class="st1" d="M132.5,456.3c0.1,3.5,1.7,6,5.8,6c1.7,0,3.5-0.1,5.5-0.7l0.4,2.6c-2.2,0.6-4.1,0.8-6.4,0.8
		c-6.5,0-8.8-3.7-8.8-9.2s2.3-9.2,8.7-9.2c5.4,0,6.9,3.1,7.1,6.1c0.1,1.1,0,2.4-0.2,3.6H132.5z M132.5,454.3h9
		c0.1-0.6,0.2-1.3,0.1-1.9c-0.1-1.8-1.2-3.4-4-3.4C134.1,449,132.8,451.3,132.5,454.3z"/>
	<path class="st1" d="M154.9,455.7c0-5.5,2.2-9.2,8.1-9.2c5.9,0,8.1,3.7,8.1,9.2s-2.2,9.2-8.1,9.2
		C157,464.9,154.9,461.2,154.9,455.7z M158.2,455.7c0,3.7,1.1,6.5,4.8,6.5c3.7,0,4.8-2.8,4.8-6.5s-1.1-6.5-4.8-6.5
		C159.3,449.2,158.2,452,158.2,455.7z"/>
	<path class="st1" d="M178.1,464.6h-3.2v-17.7h3.2v2.5h0.1c1.7-1.7,3.8-2.8,6.3-2.8c3.5,0,5.3,2.1,5.3,5.8v12.2h-3.2v-11.5
		c0-2.3-0.9-3.9-3.5-3.9c-2,0-3.9,1.2-4.9,2V464.6z"/>
	<path class="st1" d="M207.9,453.9v2.6h-13.8v-2.6H207.9z"/>
	<path class="st1" d="M212.3,439.9h3.2v24.7h-3.2V439.9z"/>
	<path class="st1" d="M222.9,440.6v4.4h-3.2v-4.4H222.9z M222.9,446.9v17.7h-3.2v-17.7H222.9z"/>
	<path class="st1" d="M230.4,464.6h-3.2v-17.7h3.2v2.5h0.1c1.7-1.7,3.8-2.8,6.3-2.8c3.5,0,5.3,2.1,5.3,5.8v12.2h-3.2v-11.5
		c0-2.3-0.9-3.9-3.5-3.9c-2,0-3.9,1.2-4.9,2V464.6z"/>
	<path class="st1" d="M249.2,456.3c0.1,3.5,1.7,6,5.8,6c1.7,0,3.5-0.1,5.5-0.7l0.4,2.6c-2.2,0.6-4.1,0.8-6.4,0.8
		c-6.5,0-8.8-3.7-8.8-9.2s2.3-9.2,8.7-9.2c5.4,0,6.9,3.1,7.1,6.1c0.1,1.1,0,2.4-0.2,3.6H249.2z M249.2,454.3h9
		c0.1-0.6,0.2-1.3,0.1-1.9c-0.1-1.8-1.2-3.4-4-3.4C250.7,449,249.5,451.3,249.2,454.3z"/>
	<path class="st1" d="M275.1,464.6h-3.2v-17.7h3.2v2.8h0.1c1.4-1.6,3.8-3.2,6.6-3.2v3c-2.6,0-5.3,1.1-6.7,2V464.6z"/>
	<path class="st1" d="M287.7,456.3c0.1,3.5,1.7,6,5.8,6c1.7,0,3.5-0.1,5.5-0.7l0.4,2.6c-2.2,0.6-4.1,0.8-6.4,0.8
		c-6.5,0-8.8-3.7-8.8-9.2s2.3-9.2,8.7-9.2c5.4,0,6.9,3.1,7.1,6.1c0.1,1.1,0,2.4-0.2,3.6H287.7z M287.7,454.3h9
		c0.1-0.6,0.2-1.3,0.1-1.9c-0.1-1.8-1.2-3.4-4-3.4C289.2,449,287.9,451.3,287.7,454.3z"/>
	<path class="st1" d="M305.4,463.4c-1-0.5-1.4-1.4-1.3-2.4c0-1.2,0.8-2.5,2.3-3.4v-0.1c-1.8-0.9-2.9-2.6-2.9-4.9c0-3.9,2.8-6,7.2-6
		c1,0,1.8,0.2,2.4,0.4h6.2v1.9h-3.4c1.4,1,1.7,2.5,1.7,3.7c0,4-3,5.8-7,5.8c-1,0-2-0.2-2.6-0.4c-0.3,0.3-0.5,0.7-0.7,1
		c-0.5,1.1-0.4,2.3,1,2.3l6.4,0.4c3.6,0.2,5.2,1.7,5.2,4.1c0,4.1-3.2,6.2-10.2,6.2c-4.8,0-7.2-1.4-7.2-4.6
		C302.3,465.8,303.2,464.6,305.4,463.4L305.4,463.4z M310.2,469.9c3.4,0,6.3-1.1,6.3-3.5c0-1.1-0.7-2-2.9-2.1L307,464
		c-1.1,0.8-2,1.5-2,2.9C305,468.8,306.8,469.9,310.2,469.9z M314.7,452.6c0-2.4-1.6-3.9-4.1-3.9c-2.8,0-4.2,1.5-4.2,3.9
		c0,2.4,1.6,3.7,4.2,3.7C313.1,456.3,314.7,454.9,314.7,452.6z"/>
	<path class="st1" d="M326.1,440.6v4.4h-3.2v-4.4H326.1z M326.1,446.9v17.7h-3.2v-17.7H326.1z"/>
	<path class="st1" d="M337.1,464.9c-2.8,0-5.5-0.2-7.6-0.8l0.6-2.6c2.8,0.7,5.4,0.8,6.7,0.8c3.2,0,3.7-1.9,3.7-2.6
		c0-1.2-0.8-2-4-2.6c-3.7-0.7-6.6-1.9-6.6-5.6c0-3.4,2.4-4.9,6.5-4.9c2.7,0,4.9,0.3,7.1,0.8l-0.6,2.5c-2.8-0.7-5-0.8-6.3-0.8
		c-3.2,0-3.5,1.7-3.5,2.3c0,1.1,0.6,2,3.8,2.7c3.7,0.8,6.8,1.8,6.8,5.4C343.6,463.1,341.2,464.9,337.1,464.9z"/>
	<path class="st1" d="M348.9,449.2h-2.6v-2.1l2.6-0.2l0.4-4.9h2.8v4.9h4.9v2.3h-4.9v9.7c0,2.3,0.7,3.5,3,3.5c0.5,0,1.1-0.1,1.8-0.2
		l0.3,2.5c-1,0.1-2.3,0.2-3.2,0.2c-3.6,0-5.1-1.5-5.1-5.5V449.2z"/>
	<path class="st1" d="M363.8,464.6h-3.2v-17.7h3.2v2.8h0.1c1.4-1.6,3.8-3.2,6.6-3.2v3c-2.6,0-5.3,1.1-6.7,2V464.6z"/>
	<path class="st1" d="M374.6,449.9l-0.5-2.6c2.4-0.5,4.9-0.7,6.8-0.7c4.2,0,6.5,1.2,6.5,5.8v12.2h-3.2v-1.8c0,0,0,0-0.1,0
		c-1.7,1.5-3.3,2.1-5.6,2.1c-3.5,0-5.6-2.1-5.6-5.2c0-4,3.2-5.4,7.4-5.4h3.9v-1.8c0-2.3-1.2-3.4-4.1-3.4
		C378.8,449.2,377.2,449.4,374.6,449.9z M384.2,456.3h-3.7c-3.3,0-4.4,1.2-4.4,3.2c0,1.9,1.4,3,3.7,3c2,0,3.6-0.8,4.4-1.5V456.3z"/>
	<path class="st1" d="M392.9,449.2h-2.6v-2.1l2.6-0.2l0.4-4.9h2.8v4.9h4.9v2.3h-4.9v9.7c0,2.3,0.7,3.5,3,3.5c0.5,0,1.1-0.1,1.8-0.2
		l0.3,2.5c-1,0.1-2.3,0.2-3.2,0.2c-3.6,0-5.1-1.5-5.1-5.5V449.2z"/>
	<path class="st1" d="M407.8,440.6v4.4h-3.2v-4.4H407.8z M407.8,446.9v17.7h-3.2v-17.7H407.8z"/>
	<path class="st1" d="M411.6,455.7c0-5.5,2.2-9.2,8.1-9.2c5.9,0,8.1,3.7,8.1,9.2s-2.2,9.2-8.1,9.2
		C413.7,464.9,411.6,461.2,411.6,455.7z M414.9,455.7c0,3.7,1.1,6.5,4.8,6.5c3.7,0,4.8-2.8,4.8-6.5s-1.1-6.5-4.8-6.5
		C416,449.2,414.9,452,414.9,455.7z"/>
	<path class="st1" d="M434.8,464.6h-3.2v-17.7h3.2v2.5h0.1c1.7-1.7,3.8-2.8,6.3-2.8c3.5,0,5.3,2.1,5.3,5.8v12.2h-3.2v-11.5
		c0-2.3-0.9-3.9-3.5-3.9c-2,0-3.9,1.2-4.9,2V464.6z"/>
	<path class="st1" d="M462,446.9h4.2v2.3H462v15.4h-3.2v-15.4h-2.6v-2.1l2.6-0.2v-2.2c0-3.4,1.2-4.9,5.1-4.9c0.8,0,1.9,0.1,2.8,0.3
		l-0.3,2.5c-0.7-0.1-1.3-0.2-1.8-0.2c-2,0-2.6,0.6-2.6,2.5V446.9z"/>
	<path class="st1" d="M468.7,455.7c0-5.5,2.2-9.2,8.1-9.2c5.9,0,8.1,3.7,8.1,9.2s-2.2,9.2-8.1,9.2
		C470.9,464.9,468.7,461.2,468.7,455.7z M472.1,455.7c0,3.7,1.1,6.5,4.8,6.5c3.7,0,4.8-2.8,4.8-6.5s-1.1-6.5-4.8-6.5
		C473.1,449.2,472.1,452,472.1,455.7z"/>
	<path class="st1" d="M492,464.6h-3.2v-17.7h3.2v2.8h0.1c1.4-1.6,3.8-3.2,6.6-3.2v3c-2.6,0-5.3,1.1-6.7,2V464.6z"/>
	<path class="st1" d="M510.3,449.2h-2.6v-2.1l2.6-0.2l0.4-4.9h2.8v4.9h4.9v2.3h-4.9v9.7c0,2.3,0.7,3.5,3,3.5c0.5,0,1.1-0.1,1.8-0.2
		l0.3,2.5c-1,0.1-2.3,0.2-3.2,0.2c-3.6,0-5.1-1.5-5.1-5.5V449.2z"/>
	<path class="st1" d="M524.5,456.3c0.1,3.5,1.7,6,5.8,6c1.7,0,3.5-0.1,5.5-0.7l0.4,2.6c-2.2,0.6-4.1,0.8-6.4,0.8
		c-6.5,0-8.8-3.7-8.8-9.2s2.3-9.2,8.7-9.2c5.4,0,6.9,3.1,7.1,6.1c0.1,1.1,0,2.4-0.2,3.6H524.5z M524.5,454.3h9
		c0.1-0.6,0.2-1.3,0.1-1.9c-0.1-1.8-1.2-3.4-4-3.4C526,449,524.7,451.3,524.5,454.3z"/>
	<path class="st1" d="M541,449.9l-0.5-2.6c2.4-0.5,4.9-0.7,6.8-0.7c4.2,0,6.5,1.2,6.5,5.8v12.2h-3.2v-1.8c0,0,0,0-0.1,0
		c-1.7,1.5-3.3,2.1-5.6,2.1c-3.5,0-5.6-2.1-5.6-5.2c0-4,3.2-5.4,7.4-5.4h3.9v-1.8c0-2.3-1.2-3.4-4.1-3.4
		C545.3,449.2,543.6,449.4,541,449.9z M550.7,456.3H547c-3.3,0-4.4,1.2-4.4,3.2c0,1.9,1.4,3,3.7,3c2,0,3.6-0.8,4.4-1.5V456.3z"/>
	<path class="st1" d="M566.2,446.6c2.2,0,3.9,0.3,6,0.8l-0.6,2.5c-2.8-0.7-4.2-0.7-5.4-0.7c-3.7,0-5.3,2.6-5.3,6.5s1.6,6.5,5.3,6.5
		c1.2,0,2.6,0,5.4-0.7l0.6,2.6c-2.1,0.5-3.8,0.8-6,0.8c-6.5,0-8.7-3.7-8.7-9.2S559.8,446.6,566.2,446.6z"/>
	<path class="st1" d="M578.4,464.6h-3.2v-24.7h3.2v9.5h0.1c1.7-1.7,3.8-2.8,6.3-2.8c3.5,0,5.3,2.1,5.3,5.8v12.2h-3.2v-11.5
		c0-2.3-0.9-3.9-3.5-3.9c-2,0-3.9,1.2-4.9,2V464.6z"/>
	<path class="st1" d="M597.2,456.3c0.1,3.5,1.7,6,5.8,6c1.7,0,3.5-0.1,5.5-0.7l0.4,2.6c-2.2,0.6-4.1,0.8-6.4,0.8
		c-6.5,0-8.8-3.7-8.8-9.2s2.3-9.2,8.7-9.2c5.4,0,6.9,3.1,7.1,6.1c0.1,1.1,0,2.4-0.2,3.6H597.2z M597.2,454.3h9
		c0.1-0.6,0.2-1.3,0.1-1.9c-0.1-1.8-1.2-3.4-4-3.4C598.8,449,597.5,451.3,597.2,454.3z"/>
	<path class="st1" d="M616.4,464.6h-3.2v-17.7h3.2v2.8h0.1c1.4-1.6,3.8-3.2,6.6-3.2v3c-2.6,0-5.3,1.1-6.7,2V464.6z"/>
	<path class="st1" d="M633.4,464.9c-2.8,0-5.5-0.2-7.6-0.8l0.6-2.6c2.8,0.7,5.4,0.8,6.7,0.8c3.2,0,3.7-1.9,3.7-2.6
		c0-1.2-0.8-2-4-2.6c-3.7-0.7-6.6-1.9-6.6-5.6c0-3.4,2.4-4.9,6.5-4.9c2.7,0,4.9,0.3,7.1,0.8l-0.6,2.5c-2.8-0.7-5-0.8-6.3-0.8
		c-3.2,0-3.5,1.7-3.5,2.3c0,1.1,0.6,2,3.8,2.7c3.7,0.8,6.8,1.8,6.8,5.4C639.9,463.1,637.5,464.9,633.4,464.9z"/>
</g>
<g>
	<path class="st1" d="M13.9,488.9l-3.6,12.9H6.8L1.4,484h3.5l3.9,14.3h0.1l3.5-14.3h3.1l3.7,14.3h0.1l3.7-14.3h3.4l-5.3,17.8h-3.5
		L13.9,488.9L13.9,488.9z"/>
	<path class="st1" d="M33,501.7h-3.2V477H33v9.5h0.1c1.7-1.7,3.8-2.8,6.3-2.8c3.5,0,5.3,2.1,5.3,5.8v12.2h-3.2v-11.5
		c0-2.3-0.9-3.9-3.5-3.9c-2,0-3.9,1.2-4.9,2V501.7z"/>
	<path class="st1" d="M48.4,492.8c0-5.5,2.2-9.2,8.1-9.2c5.9,0,8.1,3.7,8.1,9.2s-2.2,9.2-8.1,9.2C50.6,502,48.4,498.3,48.4,492.8z
		 M51.8,492.8c0,3.7,1.1,6.5,4.8,6.5c3.7,0,4.8-2.8,4.8-6.5s-1.1-6.5-4.8-6.5C52.9,486.3,51.8,489.1,51.8,492.8z"/>
	<path class="st1" d="M86.9,499.9L86.9,499.9c-1.3,1.2-3.4,2.1-5.5,2.1c-4.9,0-6.5-4.1-6.5-9.2s1.8-9.2,6.7-9.2c2,0,4.1,0.8,5.4,2
		h0.1l0.6-1.8h2.4v24.8h-3.2V499.9z M82.7,499.4c1.9,0,3.5-0.9,4.2-1.5v-10.1c-0.7-0.6-2.3-1.5-4.2-1.5c-3.5,0-4.4,3-4.4,6.5
		S79.2,499.4,82.7,499.4z"/>
	<path class="st1" d="M106,484h3.2v17.7H106v-2.5H106c-1.7,1.7-3.8,2.8-6.3,2.8c-3.5,0-5.3-2.1-5.3-5.8V484h3.2v11.5
		c0,2.3,1,3.9,3.5,3.9c2,0,3.9-1.2,4.9-2V484z"/>
	<path class="st1" d="M114.2,487l-0.5-2.6c2.4-0.5,4.9-0.7,6.8-0.7c4.2,0,6.5,1.2,6.5,5.8v12.2h-3.2v-1.8c0,0,0,0-0.1,0
		c-1.7,1.5-3.3,2.1-5.6,2.1c-3.5,0-5.6-2.1-5.6-5.2c0-4,3.2-5.4,7.4-5.4h3.9v-1.8c0-2.3-1.2-3.4-4.1-3.4
		C118.5,486.3,116.9,486.5,114.2,487z M123.9,493.4h-3.7c-3.3,0-4.4,1.2-4.4,3.2c0,1.9,1.4,3,3.7,3c2,0,3.6-0.8,4.4-1.5V493.4z"/>
	<path class="st1" d="M131.4,477h3.2v24.7h-3.2V477z"/>
	<path class="st1" d="M142,477.7v4.4h-3.2v-4.4H142z M142,484v17.7h-3.2V484H142z"/>
	<path class="st1" d="M147.6,483c0-4,1.9-6,6.7-6c1.4,0,4.4,0.4,6.2,1.2l-0.4,2.3c-1.8-0.7-4.1-0.9-5.5-0.9c-3.2,0-3.9,1.4-3.9,3.5
		v1h10.4v17.7h-3.2v-15.4h-7.2v15.4h-3.2v-15.4H145v-2.1l2.6-0.2V483z"/>
	<path class="st1" d="M168.4,493.4c0.1,3.5,1.7,6,5.8,6c1.7,0,3.5-0.1,5.5-0.7l0.4,2.6c-2.2,0.6-4.1,0.8-6.4,0.8
		c-6.5,0-8.8-3.7-8.8-9.2s2.3-9.2,8.7-9.2c5.4,0,6.9,3.1,7.1,6.1c0.1,1.1,0,2.4-0.2,3.6H168.4z M168.4,491.4h9
		c0.1-0.6,0.2-1.3,0.1-1.9c-0.1-1.8-1.2-3.4-4-3.4C170,486.1,168.7,488.4,168.4,491.4z"/>
	<path class="st1" d="M195.9,499.9C195.9,499.9,195.9,499.9,195.9,499.9c-1.3,1.2-3.4,2.1-5.5,2.1c-4.9,0-6.5-4.1-6.5-9.2
		s1.8-9.2,6.7-9.2c2,0,4,0.8,5.2,2c0,0,0,0,0.1,0V477h3.2v24.7h-3.2V499.9z M191.7,499.4c1.9,0,3.5-0.9,4.2-1.5v-10.1
		c-0.7-0.6-2.3-1.5-4.2-1.5c-3.5,0-4.4,3-4.4,6.5S188.2,499.4,191.7,499.4z"/>
	<path class="st1" d="M209.6,492.8c0-5.5,2.2-9.2,8.1-9.2c5.9,0,8.1,3.7,8.1,9.2s-2.2,9.2-8.1,9.2
		C211.8,502,209.6,498.3,209.6,492.8z M213,492.8c0,3.7,1.1,6.5,4.8,6.5c3.7,0,4.8-2.8,4.8-6.5s-1.1-6.5-4.8-6.5
		C214.1,486.3,213,489.1,213,492.8z"/>
	<path class="st1" d="M241.3,484h3.2v17.7h-3.2v-2.5h-0.1c-1.7,1.7-3.8,2.8-6.3,2.8c-3.5,0-5.3-2.1-5.3-5.8V484h3.2v11.5
		c0,2.3,1,3.9,3.5,3.9c2,0,3.9-1.2,4.9-2V484z"/>
	<path class="st1" d="M250.1,486.3h-2.6v-2.1l2.6-0.2l0.4-4.9h2.8v4.9h4.9v2.3h-4.9v9.7c0,2.3,0.7,3.5,3,3.5c0.5,0,1.1-0.1,1.8-0.2
		l0.3,2.5c-1,0.1-2.3,0.2-3.2,0.2c-3.6,0-5.1-1.5-5.1-5.5V486.3z"/>
	<path class="st1" d="M269.1,502c-2.8,0-5.5-0.2-7.6-0.8l0.6-2.6c2.8,0.7,5.4,0.8,6.7,0.8c3.2,0,3.7-1.9,3.7-2.6c0-1.2-0.8-2-4-2.6
		c-3.7-0.7-6.6-1.9-6.6-5.6c0-3.4,2.4-4.9,6.5-4.9c2.7,0,4.9,0.3,7.1,0.8l-0.6,2.5c-2.8-0.7-5-0.8-6.3-0.8c-3.2,0-3.5,1.7-3.5,2.3
		c0,1.1,0.6,2,3.8,2.7c3.7,0.8,6.8,1.8,6.8,5.4C275.7,500.2,273.3,502,269.1,502z"/>
	<path class="st1" d="M282.4,477.7v4.4h-3.2v-4.4H282.4z M282.4,484v17.7h-3.2V484H282.4z"/>
	<path class="st1" d="M298.2,499.9C298.2,499.9,298.2,499.9,298.2,499.9c-1.3,1.2-3.4,2.1-5.5,2.1c-4.9,0-6.5-4.1-6.5-9.2
		s1.8-9.2,6.7-9.2c2,0,4,0.8,5.2,2c0,0,0,0,0.1,0V477h3.2v24.7h-3.2V499.9z M294,499.4c1.9,0,3.5-0.9,4.2-1.5v-10.1
		c-0.7-0.6-2.3-1.5-4.2-1.5c-3.5,0-4.4,3-4.4,6.5S290.5,499.4,294,499.4z"/>
	<path class="st1" d="M308.6,493.4c0.1,3.5,1.7,6,5.8,6c1.7,0,3.5-0.1,5.5-0.7l0.4,2.6c-2.2,0.6-4.1,0.8-6.4,0.8
		c-6.5,0-8.8-3.7-8.8-9.2s2.3-9.2,8.7-9.2c5.4,0,6.9,3.1,7.1,6.1c0.1,1.1,0,2.4-0.2,3.6H308.6z M308.6,491.4h9
		c0.1-0.6,0.2-1.3,0.1-1.9c-0.1-1.8-1.2-3.4-4-3.4C310.2,486.1,308.9,488.4,308.6,491.4z"/>
	<path class="st1" d="M331.3,500.8l0.6-2.8c3.7,0.9,6.1,1.1,8.1,1.1c3.5,0,5.1-1.8,5.1-3.8c0-2.9-3.4-3.6-6-4.3
		c-3.9-1-7.4-3.2-7.4-7.2c0-4.6,3.7-6.4,8.3-6.4c2.6,0,5.1,0.4,8.1,1.2l-0.8,2.8c-3.6-0.9-5.4-1.1-7.3-1.1c-3.5,0-4.8,1.6-4.8,3.5
		c0,2.7,3.5,3.7,6.2,4.3c3.9,0.9,7.2,2.8,7.2,6.9c0,4.8-3.7,7.1-8.7,7.1C337.3,502,334.3,501.7,331.3,500.8z"/>
	<path class="st1" d="M360.8,483.7c2.2,0,3.9,0.3,6,0.8l-0.6,2.5c-2.8-0.7-4.2-0.7-5.4-0.7c-3.7,0-5.3,2.6-5.3,6.5s1.6,6.5,5.3,6.5
		c1.2,0,2.6,0,5.4-0.7l0.6,2.6c-2.1,0.5-3.8,0.8-6,0.8c-6.5,0-8.7-3.7-8.7-9.2S354.4,483.7,360.8,483.7z"/>
	<path class="st1" d="M368.9,492.8c0-5.5,2.2-9.2,8.1-9.2c5.9,0,8.1,3.7,8.1,9.2s-2.2,9.2-8.1,9.2
		C371.1,502,368.9,498.3,368.9,492.8z M372.2,492.8c0,3.7,1.1,6.5,4.8,6.5c3.7,0,4.8-2.8,4.8-6.5s-1.1-6.5-4.8-6.5
		C373.3,486.3,372.2,489.1,372.2,492.8z"/>
	<path class="st1" d="M390,486.3h-2.6v-2.1l2.6-0.2l0.4-4.9h2.8v4.9h4.9v2.3h-4.9v9.7c0,2.3,0.7,3.5,3,3.5c0.5,0,1.1-0.1,1.8-0.2
		l0.3,2.5c-1,0.1-2.3,0.2-3.2,0.2c-3.6,0-5.1-1.5-5.1-5.5V486.3z"/>
	<path class="st1" d="M401.7,477h3.2v24.7h-3.2V477z"/>
	<path class="st1" d="M409.9,487l-0.5-2.6c2.4-0.5,4.9-0.7,6.8-0.7c4.2,0,6.5,1.2,6.5,5.8v12.2h-3.2v-1.8c0,0,0,0-0.1,0
		c-1.7,1.5-3.3,2.1-5.6,2.1c-3.5,0-5.6-2.1-5.6-5.2c0-4,3.2-5.4,7.4-5.4h3.9v-1.8c0-2.3-1.2-3.4-4.1-3.4
		C414.2,486.3,412.5,486.5,409.9,487z M419.6,493.4h-3.7c-3.3,0-4.4,1.2-4.4,3.2c0,1.9,1.4,3,3.7,3c2,0,3.6-0.8,4.4-1.5V493.4z"/>
	<path class="st1" d="M430.2,501.7h-3.2V484h3.2v2.5h0.1c1.7-1.7,3.8-2.8,6.3-2.8c3.5,0,5.3,2.1,5.3,5.8v12.2h-3.2v-11.5
		c0-2.3-0.9-3.9-3.5-3.9c-2,0-3.9,1.2-4.9,2V501.7z"/>
	<path class="st1" d="M457.7,499.9C457.7,499.9,457.7,499.9,457.7,499.9c-1.3,1.2-3.4,2.1-5.5,2.1c-4.9,0-6.5-4.1-6.5-9.2
		s1.8-9.2,6.7-9.2c2,0,4,0.8,5.2,2c0,0,0,0,0.1,0V477h3.2v24.7h-3.2V499.9z M453.5,499.4c1.9,0,3.5-0.9,4.2-1.5v-10.1
		c-0.7-0.6-2.3-1.5-4.2-1.5c-3.5,0-4.4,3-4.4,6.5S450,499.4,453.5,499.4z"/>
</g>
</svg>
