<!-- Generator: Adobe Illustrator 19.2.1, SVG Export Plug-In  -->
<svg version="1.1"
	 xmlns="http://www.w3.org/2000/svg" xmlns:xlink="http://www.w3.org/1999/xlink" xmlns:a="http://ns.adobe.com/AdobeSVGViewerExtensions/3.0/"
	 x="0px" y="0px" width="547.7px" height="479px" viewBox="0 0 547.7 479" style="enable-background:new 0 0 547.7 479;"
	 xml:space="preserve">
<style type="text/css">
	.st0{fill:#2DA1B4;}
</style>
<defs>
</defs>
<g>
	<path class="st0" d="M82.5,23.7c5,1.5,8.4,5.2,8.4,11.2c0,7.9-5.1,12.6-14.8,12.6H55.2V1.4h19.6c9.7,0,14.8,4.4,14.8,11.8
		c0,5-2.7,8.8-7,10.4V23.7z M73.8,9.7h-9.2v10h9.2c3.9,0,5.9-1.4,5.9-5C79.7,11.3,77.7,9.7,73.8,9.7z M64.6,28.1v11.2h10
		c3.9,0,6.5-1.3,6.5-5.6c0-4.1-2.5-5.6-6.8-5.6H64.6z"/>
	<path class="st0" d="M106,32.5c0.2,5.1,3.1,8.5,9.3,8.5c2.9,0,6.2-0.1,10.6-1.4l1,7c-4.5,1.3-8.5,1.6-12.9,1.6
		c-13.1,0-17.7-6.9-17.7-17.7c0-10.7,4.6-17.7,17.5-17.7c10.2,0,13.6,5.1,14.3,11c0.3,2.6,0.1,5.5-0.3,8.6H106z M106,26.9h13.2
		c0.1-0.9,0.2-1.8,0.1-2.7c-0.3-2.6-1.8-4.6-6-4.6C108.5,19.7,106.3,22.6,106,26.9z"/>
	<path class="st0" d="M149.7,21.6l-1.3-7.1c4.8-1,9.9-1.6,14-1.6c8.6,0,13.4,2.2,13.4,11.4v23.3H167v-3.4c-0.1,0-0.1,0-0.1,0
		c-2.9,3-5.8,4.1-10.1,4.1c-6.8,0-10.5-4.6-10.5-10.5c0-8.3,7.6-10.6,14.3-10.6h6.5v-2.4c0-3.5-2.2-4.6-6.6-4.6
		C157.7,20.3,154.6,20.5,149.7,21.6z M167,32.5h-5.9c-4,0-6,1.4-6,4.6c0,3,2.4,4.4,5.3,4.4c2.8,0,5.4-1.2,6.6-2.1V32.5z"/>
	<path class="st0" d="M191.5,47.6h-8.8v-34h8.8V18h0.1c2.9-3.1,6.7-5.1,11.1-5.1c6.8,0,10.2,4.4,10.2,11.4v23.3h-8.8V26.4
		c0-3.9-1.5-6.1-5.4-6.1c-2.8,0-5.4,1.5-7.1,2.6V47.6z"/>
	<path class="st0" d="M241.9,32.5c0.2,5.1,3.1,8.5,9.3,8.5c2.9,0,6.2-0.1,10.6-1.4l1,7c-4.5,1.3-8.5,1.6-12.9,1.6
		c-13.1,0-17.7-6.9-17.7-17.7c0-10.7,4.6-17.7,17.5-17.7c10.2,0,13.6,5.1,14.3,11c0.3,2.6,0.1,5.5-0.3,8.6H241.9z M241.9,26.9h13.2
		c0.1-0.9,0.2-1.8,0.1-2.7c-0.3-2.6-1.8-4.6-6-4.6C244.3,19.7,242.2,22.6,241.9,26.9z"/>
	<path class="st0" d="M292.7,10.4c0-7.2,3-10.4,10.7-10.4c1.8,0,4,0.3,5.9,0.6l-0.7,6.8c-1.3-0.2-2.3-0.3-3.1-0.3
		c-3.1,0-3.9,1.7-3.9,4.9v1.6h7.5v6.3h-7.5v27.7h-8.8V19.9h-11.2v27.7h-8.8V19.9h-4.6v-5.8l4.6-0.5v-3.2c0-7.2,3-10.4,10.7-10.4
		c1.8,0,4,0.3,5.9,0.6l-0.7,6.8c-1.3-0.2-2.3-0.3-3.1-0.3c-3.1,0-3.9,1.7-3.9,4.9v1.6h11.2V10.4z"/>
	<path class="st0" d="M320.9,32.5c0.2,5.1,3.1,8.5,9.3,8.5c2.9,0,6.2-0.1,10.6-1.4l1,7c-4.5,1.3-8.5,1.6-12.9,1.6
		c-13.1,0-17.7-6.9-17.7-17.7c0-10.7,4.6-17.7,17.5-17.7c10.2,0,13.6,5.1,14.3,11c0.3,2.6,0.1,5.5-0.3,8.6H320.9z M320.9,26.9h13.2
		c0.1-0.9,0.2-1.8,0.1-2.7c-0.3-2.6-1.8-4.6-6-4.6C323.3,19.7,321.2,22.6,320.9,26.9z"/>
	<path class="st0" d="M365.8,12.9c4.4,0,7.8,0.6,11.9,1.6l-1.6,7.1c-5.6-1.4-7.8-1.4-10.3-1.4c-5.3,0-8.2,3.5-8.2,10.3
		c0,6.8,2.9,10.4,8.2,10.4c2.5,0,4.7,0,10.3-1.4l1.6,7c-4.1,1-7.5,1.6-11.9,1.6c-13.2,0-17.5-6.9-17.5-17.7
		C348.2,19.9,352.6,12.9,365.8,12.9z"/>
	<path class="st0" d="M385.2,19.9h-4.6v-5.8l4.6-0.5l1.1-9.5h7.8v9.5h8.5v6.3h-8.5v16.4c0,3.2,1.4,4.9,5,4.9c0.8,0,1.8-0.1,3.1-0.3
		l0.7,6.8c-1.9,0.4-5.1,0.6-6.9,0.6c-7.8,0-10.7-3.2-10.7-10.4V19.9z"/>
	<path class="st0" d="M417.8,1.4v9.4h-8.8V1.4H417.8z M417.8,13.6v34h-8.8v-34H417.8z"/>
	<path class="st0" d="M435.3,47.9l-11.9-34.3h9.9l7.6,24.6h0.1l7.7-24.6h9.4l-12,34.3H435.3z"/>
	<path class="st0" d="M469.5,32.5c0.2,5.1,3.1,8.5,9.3,8.5c2.9,0,6.2-0.1,10.6-1.4l1,7c-4.5,1.3-8.5,1.6-12.9,1.6
		c-13.1,0-17.7-6.9-17.7-17.7c0-10.7,4.6-17.7,17.5-17.7c10.2,0,13.6,5.1,14.3,11c0.3,2.6,0.1,5.5-0.3,8.6H469.5z M469.5,26.9h13.2
		c0.1-0.9,0.2-1.8,0.1-2.7c-0.3-2.6-1.8-4.6-6-4.6C472,19.7,469.9,22.6,469.5,26.9z"/>
</g>
<g>
	<path class="st0" d="M16.9,117.2H8v-34h8.8v5.4H17c2.2-3.1,6.3-6.1,11.8-6.1v8.4c-4.6,0-9.2,1.2-11.9,2.6V117.2z"/>
	<path class="st0" d="M40.4,102.1c0.2,5.1,3.1,8.5,9.3,8.5c2.9,0,6.2-0.1,10.6-1.4l1,7c-4.5,1.3-8.5,1.6-12.9,1.6
		c-13.1,0-17.7-6.9-17.7-17.7c0-10.7,4.6-17.7,17.5-17.7c10.2,0,13.6,5.1,14.3,11c0.3,2.6,0.1,5.5-0.3,8.6H40.4z M40.4,96.6h13.2
		c0.1-0.9,0.2-1.8,0.1-2.7c-0.3-2.6-1.8-4.6-6-4.6C42.8,89.3,40.7,92.2,40.4,96.6z"/>
	<path class="st0" d="M72.2,115.6c-1.8-1.1-2.7-2.9-2.7-4.7c0-2.5,1.7-5.3,5.2-7.1v-0.1c-3.4-1.7-5.5-5.2-5.5-9.5
		c0-7.8,5.6-11.6,14.3-11.6c1.8,0,3.5,0.3,4.9,0.7H101v5.3h-5.4c1.3,1.4,2,3.3,2,5.6c0,7.9-5.9,11.4-14,11.4c-2.1,0-3.7-0.5-4.4-0.7
		c-0.4,0.5-0.7,1-1,1.5c-0.6,1.6-0.5,3.3,1.7,3.5l11.6,0.8c6.9,0.5,10.4,3.1,10.4,8.5c0,8.6-6.5,12.4-20.4,12.4
		c-10.1,0-14.6-2.8-14.6-8.8c0-2.9,1.6-5.1,5.3-6.9V115.6z M83,125.7c4.9,0,9.6-1.5,9.6-5c0-1.6-1.2-2.9-4.1-3.1L76.5,117
		c-1.3,1.2-2.3,2.1-2.3,4.2C74.2,124.7,78.3,125.7,83,125.7z M89.5,94.1c0-3.8-2.4-5.8-5.9-5.8c-3.8,0-6.1,2-6.1,5.8
		s2.4,5.6,6.1,5.6C87.1,99.8,89.5,97.9,89.5,94.1z"/>
	<path class="st0" d="M128.6,83.2h8.8v34h-8.8v-4.4h-0.1c-2.9,3.1-6.7,5.1-11.1,5.1c-6.8,0-10.2-4.4-10.2-11.4V83.2h8.8v21.3
		c0,3.9,1.8,6.1,5.4,6.1c2.9,0,5.4-1.6,7.1-2.7V83.2z"/>
	<path class="st0" d="M144.2,69.6h8.8v47.6h-8.8V69.6z"/>
	<path class="st0" d="M162.2,91.2l-1.3-7.1c4.8-1,9.9-1.6,14-1.6c8.6,0,13.4,2.2,13.4,11.4v23.3h-8.8v-3.4c-0.1,0-0.1,0-0.1,0
		c-2.9,3-5.8,4.1-10.1,4.1c-6.8,0-10.5-4.6-10.5-10.5c0-8.3,7.6-10.6,14.3-10.6h6.5v-2.4c0-3.5-2.2-4.6-6.6-4.6
		C170.2,89.9,167.1,90.2,162.2,91.2z M179.5,102.1h-5.9c-4,0-6,1.4-6,4.6c0,3,2.4,4.4,5.3,4.4c2.8,0,5.4-1.2,6.6-2.1V102.1z"/>
	<path class="st0" d="M197.9,89.6h-4.6v-5.8l4.6-0.5l1.1-9.5h7.8v9.5h8.5v6.3h-8.5v16.4c0,3.2,1.4,4.9,5,4.9c0.8,0,1.8-0.1,3.1-0.3
		l0.7,6.8c-1.9,0.4-5.1,0.6-6.9,0.6c-7.8,0-10.7-3.2-10.7-10.4V89.6z"/>
	<path class="st0" d="M218.5,100.2c0-10.7,4.6-17.7,16.5-17.7s16.5,7,16.5,17.7c0,10.7-4.5,17.7-16.5,17.7S218.5,111,218.5,100.2z
		 M227.9,100.2c0,6.3,1.6,10.4,7.1,10.4c5.6,0,7.1-4.1,7.1-10.4c0-6.3-1.6-10.3-7.1-10.3C229.4,89.9,227.9,94,227.9,100.2z"/>
	<path class="st0" d="M266.4,117.2h-8.8v-34h8.8v5.4h0.1c2.2-3.1,6.3-6.1,11.8-6.1v8.4c-4.6,0-9.2,1.2-11.9,2.6V117.2z"/>
	<path class="st0" d="M299.3,91.2l-1.3-7.1c4.8-1,9.9-1.6,14-1.6c8.6,0,13.4,2.2,13.4,11.4v23.3h-8.8v-3.4c-0.1,0-0.1,0-0.1,0
		c-2.9,3-5.8,4.1-10.1,4.1c-6.8,0-10.5-4.6-10.5-10.5c0-8.3,7.6-10.6,14.3-10.6h6.5v-2.4c0-3.5-2.2-4.6-6.6-4.6
		C307.3,89.9,304.2,90.2,299.3,91.2z M316.6,102.1h-5.9c-4,0-6,1.4-6,4.6c0,3,2.4,4.4,5.3,4.4c2.8,0,5.4-1.2,6.6-2.1V102.1z"/>
	<path class="st0" d="M349.1,82.6c4.4,0,7.8,0.6,11.9,1.6l-1.6,7.1c-5.6-1.4-7.8-1.4-10.3-1.4c-5.3,0-8.2,3.5-8.2,10.3
		c0,6.8,2.9,10.4,8.2,10.4c2.5,0,4.7,0,10.3-1.4l1.6,7c-4.1,1-7.5,1.6-11.9,1.6c-13.2,0-17.5-6.9-17.5-17.7
		C331.6,89.6,335.9,82.6,349.1,82.6z"/>
	<path class="st0" d="M368.6,89.6H364v-5.8l4.6-0.5l1.1-9.5h7.8v9.5h8.5v6.3h-8.5v16.4c0,3.2,1.4,4.9,5,4.9c0.8,0,1.8-0.1,3.1-0.3
		l0.7,6.8c-1.9,0.4-5.1,0.6-6.9,0.6c-7.8,0-10.7-3.2-10.7-10.4V89.6z"/>
	<path class="st0" d="M401.1,71v9.4h-8.8V71H401.1z M401.1,83.2v34h-8.8v-34H401.1z"/>
	<path class="st0" d="M416.8,117.2h-8.8v-34h8.8v4.4h0.1c2.9-3.1,6.7-5.1,11.1-5.1c6.8,0,10.2,4.4,10.2,11.4v23.3h-8.8V96
		c0-3.9-1.5-6.1-5.4-6.1c-2.8,0-5.4,1.5-7.1,2.6V117.2z"/>
	<path class="st0" d="M447.7,115.6c-1.8-1.1-2.7-2.9-2.7-4.7c0-2.5,1.7-5.3,5.2-7.1v-0.1c-3.4-1.7-5.5-5.2-5.5-9.5
		c0-7.8,5.6-11.6,14.3-11.6c1.8,0,3.5,0.3,4.9,0.7h12.6v5.3h-5.4c1.3,1.4,2,3.3,2,5.6c0,7.9-5.9,11.4-14,11.4
		c-2.1,0-3.7-0.5-4.4-0.7c-0.4,0.5-0.7,1-1,1.5c-0.6,1.6-0.5,3.3,1.7,3.5l11.6,0.8c6.9,0.5,10.4,3.1,10.4,8.5
		c0,8.6-6.5,12.4-20.4,12.4c-10.1,0-14.6-2.8-14.6-8.8c0-2.9,1.6-5.1,5.3-6.9V115.6z M458.4,125.7c4.9,0,9.6-1.5,9.6-5
		c0-1.6-1.2-2.9-4.1-3.1L452,117c-1.3,1.2-2.3,2.1-2.3,4.2C449.7,124.7,453.8,125.7,458.4,125.7z M465,94.1c0-3.8-2.4-5.8-5.9-5.8
		c-3.8,0-6.1,2-6.1,5.8s2.4,5.6,6.1,5.6C462.6,99.8,465,97.9,465,94.1z"/>
	<path class="st0" d="M504.7,71v9.4h-8.8V71H504.7z M504.7,83.2v34h-8.8v-34H504.7z"/>
	<path class="st0" d="M520.3,117.2h-8.8v-34h8.8v4.4h0.1c2.9-3.1,6.7-5.1,11.1-5.1c6.8,0,10.2,4.4,10.2,11.4v23.3h-8.8V96
		c0-3.9-1.5-6.1-5.4-6.1c-2.8,0-5.4,1.5-7.1,2.6V117.2z"/>
</g>
<g>
	<path class="st0" d="M4.6,159.2H0v-5.8l4.6-0.5l1.1-9.5h7.8v9.5h8.5v6.3h-8.5v16.4c0,3.2,1.4,4.9,5,4.9c0.8,0,1.8-0.1,3.1-0.3
		l0.7,6.8c-1.9,0.4-5.1,0.6-6.9,0.6c-7.8,0-10.7-3.2-10.7-10.4V159.2z"/>
	<path class="st0" d="M37.2,186.9h-8.8v-47.6h8.8v18h0.1c2.9-3.1,6.7-5.1,11.1-5.1c6.8,0,10.2,4.4,10.2,11.4v23.3h-8.8v-21.2
		c0-3.9-1.5-6.1-5.4-6.1c-2.8,0-5.4,1.5-7.1,2.6V186.9z"/>
	<path class="st0" d="M74.3,171.8c0.2,5.1,3.1,8.5,9.3,8.5c2.9,0,6.2-0.1,10.6-1.4l1,7c-4.5,1.3-8.5,1.6-12.9,1.6
		c-13.1,0-17.7-6.9-17.7-17.7c0-10.7,4.6-17.7,17.5-17.7c10.2,0,13.6,5.1,14.3,11c0.3,2.6,0.1,5.5-0.3,8.6H74.3z M74.3,166.2h13.2
		c0.1-0.9,0.2-1.8,0.1-2.7c-0.3-2.6-1.8-4.6-6-4.6C76.8,159,74.7,161.8,74.3,166.2z"/>
	<path class="st0" d="M124.4,156.3h0.1c2.2-2.4,5.9-4.1,9.6-4.1c9.5,0,12.4,8,12.4,17.7c0,9.7-3.4,17.7-12.9,17.7
		c-3.4,0-6.9-1.4-9-3.8h-0.1v16.7h-8.8v-47.6h8.8V156.3z M130.6,159.5c-2.9,0-5,1.3-6.1,2.1v16.5c1.1,0.9,3.3,2.2,6.1,2.2
		c5.2,0,6.7-4.6,6.7-10.4S135.8,159.5,130.6,159.5z"/>
	<path class="st0" d="M174,152.9h8.8v34H174v-4.4h-0.1c-2.9,3.1-6.7,5.1-11.1,5.1c-6.8,0-10.2-4.4-10.2-11.4v-23.3h8.8v21.3
		c0,3.9,1.8,6.1,5.4,6.1c2.9,0,5.4-1.6,7.1-2.7V152.9z"/>
	<path class="st0" d="M198.5,156.3h0.1c2.2-2.4,5.9-4.1,9.6-4.1c9.5,0,12.4,8,12.4,17.7c0,9.7-3.4,17.7-12.9,17.7
		c-3.4,0-7.1-1.4-9.5-3.8H198l-1.6,3.4h-6.8v-47.9h8.8V156.3z M204.6,159.5c-2.9,0-5,1.3-6.1,2.1v16.5c1.1,0.9,3.3,2.2,6.1,2.2
		c5.2,0,6.7-4.6,6.7-10.4S209.8,159.5,204.6,159.5z"/>
	<path class="st0" d="M226.6,139.3h8.8v47.6h-8.8V139.3z"/>
	<path class="st0" d="M251.1,140.6v9.4h-8.8v-9.4H251.1z M251.1,152.9v34h-8.8v-34H251.1z"/>
	<path class="st0" d="M274.8,152.2c4.4,0,7.8,0.6,11.9,1.6l-1.6,7.1c-5.6-1.4-7.8-1.4-10.3-1.4c-5.3,0-8.2,3.5-8.2,10.3
		c0,6.8,2.9,10.4,8.2,10.4c2.5,0,4.7,0,10.3-1.4l1.6,7c-4.1,1-7.5,1.6-11.9,1.6c-13.2,0-17.5-6.9-17.5-17.7
		C257.2,159.2,261.6,152.2,274.8,152.2z"/>
	<path class="st0" d="M313.5,140.6v9.4h-8.8v-9.4H313.5z M313.5,152.9v34h-8.8v-34H313.5z"/>
	<path class="st0" d="M329.1,186.9h-8.8v-34h8.8v4.4h0.1c2.9-3.1,6.7-5.1,11.1-5.1c6.8,0,10.2,4.4,10.2,11.4v23.3h-8.8v-21.2
		c0-3.9-1.5-6.1-5.4-6.1c-2.8,0-5.4,1.5-7.1,2.6V186.9z"/>
	<path class="st0" d="M360,159.2h-4.6v-5.8l4.6-0.5l1.1-9.5h7.8v9.5h8.5v6.3h-8.5v16.4c0,3.2,1.4,4.9,5,4.9c0.8,0,1.8-0.1,3.1-0.3
		l0.7,6.8c-1.9,0.4-5.1,0.6-6.9,0.6c-7.8,0-10.7-3.2-10.7-10.4V159.2z"/>
	<path class="st0" d="M390.3,171.8c0.2,5.1,3.1,8.5,9.3,8.5c2.9,0,6.2-0.1,10.6-1.4l1,7c-4.5,1.3-8.5,1.6-12.9,1.6
		c-13.1,0-17.7-6.9-17.7-17.7c0-10.7,4.6-17.7,17.5-17.7c10.2,0,13.6,5.1,14.3,11c0.3,2.6,0.1,5.5-0.3,8.6H390.3z M390.3,166.2h13.2
		c0.1-0.9,0.2-1.8,0.1-2.7c-0.3-2.6-1.8-4.6-6-4.6C392.8,159,390.7,161.8,390.3,166.2z"/>
	<path class="st0" d="M427.2,186.9h-8.8v-34h8.8v5.4h0.1c2.2-3.1,6.3-6.1,11.8-6.1v8.4c-4.6,0-9.2,1.2-11.9,2.6V186.9z"/>
	<path class="st0" d="M450.7,171.8c0.2,5.1,3.1,8.5,9.3,8.5c2.9,0,6.2-0.1,10.6-1.4l1,7c-4.5,1.3-8.5,1.6-12.9,1.6
		c-13.1,0-17.7-6.9-17.7-17.7c0-10.7,4.6-17.7,17.5-17.7c10.2,0,13.6,5.1,14.3,11c0.3,2.6,0.1,5.5-0.3,8.6H450.7z M450.7,166.2h13.2
		c0.1-0.9,0.2-1.8,0.1-2.7c-0.3-2.6-1.8-4.6-6-4.6C453.1,159,451,161.8,450.7,166.2z"/>
	<path class="st0" d="M493.3,187.5c-5.5,0-11.4-0.6-15.5-1.6l1.6-7c5.6,1.4,10.3,1.6,12.9,1.6c4.4,0,5.6-2,5.6-3.3
		c0-1.7-1.8-2.5-5.8-3.3c-7.7-1.3-13.5-3.8-13.5-11.5c0-7.3,5.2-10.2,13.5-10.2c5.5,0,10.2,0.6,14.3,1.6l-1.6,7.1
		c-5.6-1.4-9.7-1.6-12.2-1.6c-4.1,0-5.1,1.7-5.1,2.9c0,1.6,1.2,2.5,5.5,3.5c6.5,1.4,13.9,3.1,13.9,11
		C506.7,184.1,501.5,187.5,493.3,187.5z"/>
	<path class="st0" d="M515.1,159.2h-4.6v-5.8l4.6-0.5l1.1-9.5h7.8v9.5h8.5v6.3h-8.5v16.4c0,3.2,1.4,4.9,5,4.9c0.8,0,1.8-0.1,3.1-0.3
		l0.7,6.8c-1.9,0.4-5.1,0.6-6.9,0.6c-7.8,0-10.7-3.2-10.7-10.4V159.2z"/>
	<path class="st0" d="M540.8,195.7l1.7-8.8c-1.2,0-2.4,0-3.6,0V177h8.8v9.9l-4.2,8.8H540.8z"/>
</g>
<g>
	<path class="st0" d="M76.7,241.4c0.2,5.1,3.1,8.5,9.3,8.5c2.9,0,6.2-0.1,10.6-1.4l1,7c-4.5,1.3-8.5,1.6-12.9,1.6
		c-13.1,0-17.7-6.9-17.7-17.7c0-10.7,4.6-17.7,17.5-17.7c10.2,0,13.6,5.1,14.3,11c0.3,2.6,0.1,5.5-0.3,8.6H76.7z M76.7,235.8h13.2
		c0.1-0.9,0.2-1.8,0.1-2.7c-0.3-2.6-1.8-4.6-6-4.6C79.2,228.6,77,231.5,76.7,235.8z"/>
	<path class="st0" d="M113.6,256.5h-8.8v-34h8.8v4.4h0.1c2.9-3.1,6.7-5.1,11.1-5.1c6.8,0,10.2,4.4,10.2,11.4v23.3h-8.8v-21.2
		c0-3.9-1.5-6.1-5.4-6.1c-2.8,0-5.4,1.5-7.1,2.6V256.5z"/>
	<path class="st0" d="M150.7,256.5h-8.8v-47.6h8.8v18h0.1c2.9-3.1,6.7-5.1,11.1-5.1c6.8,0,10.2,4.4,10.2,11.4v23.3h-8.8v-21.2
		c0-3.9-1.5-6.1-5.4-6.1c-2.8,0-5.4,1.5-7.1,2.6V256.5z"/>
	<path class="st0" d="M181.3,230.5l-1.3-7.1c4.8-1,9.9-1.6,14-1.6c8.6,0,13.4,2.2,13.4,11.4v23.3h-8.8v-3.4c-0.1,0-0.1,0-0.1,0
		c-2.9,3-5.8,4.1-10.1,4.1c-6.8,0-10.5-4.6-10.5-10.5c0-8.3,7.6-10.6,14.3-10.6h6.5v-2.4c0-3.5-2.2-4.6-6.6-4.6
		C189.2,229.2,186.2,229.4,181.3,230.5z M198.6,241.4h-5.9c-4,0-6,1.4-6,4.6c0,3,2.4,4.4,5.3,4.4c2.8,0,5.4-1.2,6.6-2.1V241.4z"/>
	<path class="st0" d="M223,256.5h-8.8v-34h8.8v4.4h0.1c2.9-3.1,6.7-5.1,11.1-5.1c6.8,0,10.2,4.4,10.2,11.4v23.3h-8.8v-21.2
		c0-3.9-1.5-6.1-5.4-6.1c-2.8,0-5.4,1.5-7.1,2.6V256.5z"/>
	<path class="st0" d="M268.1,221.8c4.4,0,7.8,0.6,11.9,1.6l-1.6,7.1c-5.6-1.4-7.8-1.4-10.3-1.4c-5.3,0-8.2,3.5-8.2,10.3
		c0,6.8,2.9,10.4,8.2,10.4c2.5,0,4.7,0,10.3-1.4l1.6,7c-4.1,1-7.5,1.6-11.9,1.6c-13.2,0-17.5-6.9-17.5-17.7
		C250.6,228.8,254.9,221.8,268.1,221.8z"/>
	<path class="st0" d="M293.7,210.3v9.4h-8.8v-9.4H293.7z M293.7,222.5v34h-8.8v-34H293.7z"/>
	<path class="st0" d="M309.3,256.5h-8.8v-34h8.8v4.4h0.1c2.9-3.1,6.7-5.1,11.1-5.1c6.8,0,10.2,4.4,10.2,11.4v23.3h-8.8v-21.2
		c0-3.9-1.5-6.1-5.4-6.1c-2.8,0-5.4,1.5-7.1,2.6V256.5z"/>
	<path class="st0" d="M340.2,254.9c-1.8-1.1-2.7-2.9-2.7-4.7c0-2.5,1.7-5.3,5.2-7.1v-0.1c-3.4-1.7-5.5-5.2-5.5-9.5
		c0-7.8,5.6-11.6,14.3-11.6c1.8,0,3.5,0.3,4.9,0.7H369v5.3h-5.4c1.3,1.4,2,3.3,2,5.6c0,7.9-5.9,11.4-14,11.4c-2.1,0-3.7-0.5-4.4-0.7
		c-0.4,0.5-0.7,1-1,1.5c-0.6,1.6-0.5,3.3,1.7,3.5l11.6,0.8c6.9,0.5,10.4,3.1,10.4,8.5c0,8.6-6.5,12.4-20.4,12.4
		c-10.1,0-14.6-2.8-14.6-8.8c0-2.9,1.6-5.1,5.3-6.9V254.9z M350.9,265c4.9,0,9.6-1.5,9.6-5c0-1.6-1.2-2.9-4.1-3.1l-11.9-0.7
		c-1.3,1.2-2.3,2.1-2.3,4.2C342.2,264,346.3,265,350.9,265z M357.5,233.4c0-3.8-2.4-5.8-5.9-5.8c-3.8,0-6.1,2-6.1,5.8
		c0,3.8,2.4,5.6,6.1,5.6C355.1,239,357.5,237.2,357.5,233.4z"/>
	<path class="st0" d="M391.1,228.8h-4.6V223l4.6-0.5l1.1-9.5h7.8v9.5h8.5v6.3h-8.5v16.4c0,3.2,1.4,4.9,5,4.9c0.8,0,1.8-0.1,3.1-0.3
		l0.7,6.8c-1.9,0.4-5.1,0.6-6.9,0.6c-7.8,0-10.7-3.2-10.7-10.4V228.8z"/>
	<path class="st0" d="M423.7,256.5h-8.8v-47.6h8.8v18h0.1c2.9-3.1,6.7-5.1,11.1-5.1c6.8,0,10.2,4.4,10.2,11.4v23.3h-8.8v-21.2
		c0-3.9-1.5-6.1-5.4-6.1c-2.8,0-5.4,1.5-7.1,2.6V256.5z"/>
	<path class="st0" d="M460.8,241.4c0.2,5.1,3.1,8.5,9.3,8.5c2.9,0,6.2-0.1,10.6-1.4l1,7c-4.5,1.3-8.5,1.6-12.9,1.6
		c-13.1,0-17.7-6.9-17.7-17.7c0-10.7,4.6-17.7,17.5-17.7c10.2,0,13.6,5.1,14.3,11c0.3,2.6,0.1,5.5-0.3,8.6H460.8z M460.8,235.8H474
		c0.1-0.9,0.2-1.8,0.1-2.7c-0.3-2.6-1.8-4.6-6-4.6C463.3,228.6,461.2,231.5,460.8,235.8z"/>
</g>
<g>
	<path class="st0" d="M35.3,326.1h-8.8v-34h8.8v5.4h0.1c2.2-3.1,6.3-6.1,11.8-6.1v8.4c-4.6,0-9.2,1.2-11.9,2.6V326.1z"/>
	<path class="st0" d="M58.8,311c0.2,5.1,3.1,8.5,9.3,8.5c2.9,0,6.2-0.1,10.6-1.4l1,7c-4.5,1.3-8.5,1.6-12.9,1.6
		c-13.1,0-17.7-6.9-17.7-17.7c0-10.7,4.6-17.7,17.5-17.7c10.2,0,13.6,5.1,14.3,11c0.3,2.6,0.1,5.5-0.3,8.6H58.8z M58.8,305.5H72
		c0.1-0.9,0.2-1.8,0.1-2.7c-0.3-2.6-1.8-4.6-6-4.6C61.3,298.2,59.2,301.1,58.8,305.5z"/>
	<path class="st0" d="M95.7,295.5h0.1c2.2-2.4,5.9-4.1,9.6-4.1c9.5,0,12.4,8,12.4,17.7c0,9.7-3.4,17.7-12.9,17.7
		c-3.4,0-6.9-1.4-9-3.8h-0.1v16.7h-8.8v-47.6h8.8V295.5z M101.8,298.8c-2.9,0-5,1.3-6.1,2.1v16.5c1.1,0.9,3.3,2.2,6.1,2.2
		c5.2,0,6.7-4.6,6.7-10.4S107,298.8,101.8,298.8z"/>
	<path class="st0" d="M145.3,292.1h8.8v34h-8.8v-4.4h-0.1c-2.9,3.1-6.7,5.1-11.1,5.1c-6.8,0-10.2-4.4-10.2-11.4v-23.3h8.8v21.3
		c0,3.9,1.8,6.1,5.4,6.1c2.9,0,5.4-1.6,7.1-2.7V292.1z"/>
	<path class="st0" d="M163.6,298.5h-4.6v-5.8l4.6-0.5l1.1-9.5h7.8v9.5h8.5v6.3h-8.5v16.4c0,3.2,1.4,4.9,5,4.9c0.8,0,1.8-0.1,3.1-0.3
		l0.7,6.8c-1.9,0.4-5.1,0.6-6.9,0.6c-7.8,0-10.7-3.2-10.7-10.4V298.5z"/>
	<path class="st0" d="M189.8,300.1l-1.3-7.1c4.8-1,9.9-1.6,14-1.6c8.6,0,13.4,2.2,13.4,11.4v23.3h-8.8v-3.4c-0.1,0-0.1,0-0.1,0
		c-2.9,3-5.8,4.1-10.1,4.1c-6.8,0-10.5-4.6-10.5-10.5c0-8.3,7.6-10.6,14.3-10.6h6.5v-2.4c0-3.5-2.2-4.6-6.6-4.6
		C197.7,298.8,194.7,299.1,189.8,300.1z M207.1,311h-5.9c-4,0-6,1.4-6,4.6c0,3,2.4,4.4,5.3,4.4c2.8,0,5.4-1.2,6.6-2.1V311z"/>
	<path class="st0" d="M225.4,298.5h-4.6v-5.8l4.6-0.5l1.1-9.5h7.8v9.5h8.5v6.3h-8.5v16.4c0,3.2,1.4,4.9,5,4.9c0.8,0,1.8-0.1,3.1-0.3
		l0.7,6.8c-1.9,0.4-5.1,0.6-6.9,0.6c-7.8,0-10.7-3.2-10.7-10.4V298.5z"/>
	<path class="st0" d="M258,279.9v9.4h-8.8v-9.4H258z M258,292.1v34h-8.8v-34H258z"/>
	<path class="st0" d="M264.1,309.1c0-10.7,4.6-17.7,16.5-17.7s16.5,7,16.5,17.7c0,10.7-4.5,17.7-16.5,17.7S264.1,319.9,264.1,309.1z
		 M273.5,309.1c0,6.3,1.6,10.4,7.1,10.4c5.6,0,7.1-4.1,7.1-10.4c0-6.3-1.6-10.3-7.1-10.3C275.1,298.8,273.5,302.9,273.5,309.1z"/>
	<path class="st0" d="M312,326.1h-8.8v-34h8.8v4.4h0.1c2.9-3.1,6.7-5.1,11.1-5.1c6.8,0,10.2,4.4,10.2,11.4v23.3h-8.8v-21.2
		c0-3.9-1.5-6.1-5.4-6.1c-2.8,0-5.4,1.5-7.1,2.6V326.1z"/>
	<path class="st0" d="M352.7,309.1c0-10.7,4.6-17.7,16.5-17.7s16.5,7,16.5,17.7c0,10.7-4.5,17.7-16.5,17.7S352.7,319.9,352.7,309.1z
		 M362.1,309.1c0,6.3,1.6,10.4,7.1,10.4c5.6,0,7.1-4.1,7.1-10.4c0-6.3-1.6-10.3-7.1-10.3C363.7,298.8,362.1,302.9,362.1,309.1z"/>
	<path class="st0" d="M403.4,292.1h7.1v6.3h-7.1v27.7h-8.8v-27.7H390v-5.8l4.6-0.5v-3.5c0-6.7,2.2-10.1,10.7-10.1
		c1.8,0,4,0.3,5.9,0.6l-0.7,6.8c-1.3-0.2-2.3-0.3-3.1-0.3c-3,0-3.9,0.7-3.9,3.7V292.1z"/>
	<path class="st0" d="M432.2,298.5h-4.6v-5.8l4.6-0.5l1.1-9.5h7.8v9.5h8.5v6.3H441v16.4c0,3.2,1.4,4.9,5,4.9c0.8,0,1.8-0.1,3.1-0.3
		l0.7,6.8c-1.9,0.4-5.1,0.6-6.9,0.6c-7.8,0-10.7-3.2-10.7-10.4V298.5z"/>
	<path class="st0" d="M464.8,326.1H456v-47.6h8.8v18h0.1c2.9-3.1,6.7-5.1,11.1-5.1c6.8,0,10.2,4.4,10.2,11.4v23.3h-8.8v-21.2
		c0-3.9-1.5-6.1-5.4-6.1c-2.8,0-5.4,1.5-7.1,2.6V326.1z"/>
	<path class="st0" d="M502,311c0.2,5.1,3.1,8.5,9.3,8.5c2.9,0,6.2-0.1,10.6-1.4l1,7c-4.5,1.3-8.5,1.6-12.9,1.6
		c-13.1,0-17.7-6.9-17.7-17.7c0-10.7,4.6-17.7,17.5-17.7c10.2,0,13.6,5.1,14.3,11c0.3,2.6,0.1,5.5-0.3,8.6H502z M502,305.5h13.2
		c0.1-0.9,0.2-1.8,0.1-2.7c-0.3-2.6-1.8-4.6-6-4.6C504.5,298.2,502.4,301.1,502,305.5z"/>
</g>
<g>
	<path class="st0" d="M17.4,393.9l1.6-7.8c7.2,1.7,12.3,2,15.9,2c4.8,0,7.6-2.2,7.6-5.2c0-4.3-5.3-5.2-10.7-6.7
		c-8-2.2-13.8-6.7-13.8-14.5c0-9.3,7.7-12.9,16.9-12.9c5.2,0,10,0.7,16.3,2.6l-2.1,7.8c-7.3-1.7-10.7-2-14.2-2c-4.8,0-7,2-7,4.8
		c0,3.8,5,5,10.5,6.4c8,1.8,13.9,5.6,13.9,13.7c0,9.9-7.6,14.3-17.5,14.3C29.6,396.4,23.7,395.8,17.4,393.9z"/>
	<path class="st0" d="M76.1,361.1c4.4,0,7.8,0.6,11.9,1.6l-1.6,7.1c-5.6-1.4-7.8-1.4-10.3-1.4c-5.3,0-8.2,3.5-8.2,10.3
		c0,6.8,2.9,10.4,8.2,10.4c2.5,0,4.7,0,10.3-1.4l1.6,7c-4.1,1-7.5,1.6-11.9,1.6c-13.2,0-17.5-6.9-17.5-17.7
		C58.5,368.1,62.9,361.1,76.1,361.1z"/>
	<path class="st0" d="M90.4,378.8c0-10.7,4.6-17.7,16.5-17.7s16.5,7,16.5,17.7c0,10.7-4.5,17.7-16.5,17.7S90.4,389.5,90.4,378.8z
		 M99.8,378.8c0,6.3,1.6,10.4,7.1,10.4c5.6,0,7.1-4.1,7.1-10.4c0-6.3-1.6-10.3-7.1-10.3C101.4,368.4,99.8,372.5,99.8,378.8z"/>
	<path class="st0" d="M132.3,368.1h-4.6v-5.8l4.6-0.5l1.1-9.5h7.8v9.5h8.5v6.3h-8.5v16.4c0,3.2,1.4,4.9,5,4.9c0.8,0,1.8-0.1,3.1-0.3
		l0.7,6.8c-1.9,0.4-5.1,0.6-6.9,0.6c-7.8,0-10.7-3.2-10.7-10.4V368.1z"/>
	<path class="st0" d="M158.8,368.1h-4.6v-5.8l4.6-0.5l1.1-9.5h7.8v9.5h8.5v6.3h-8.5v16.4c0,3.2,1.4,4.9,5,4.9c0.8,0,1.8-0.1,3.1-0.3
		l0.7,6.8c-1.9,0.4-5.1,0.6-6.9,0.6c-7.8,0-10.7-3.2-10.7-10.4V368.1z"/>
	<path class="st0" d="M191.3,349.5v9.4h-8.8v-9.4H191.3z M191.3,361.8v34h-8.8v-34H191.3z"/>
	<path class="st0" d="M212.6,396.4c-5.5,0-11.4-0.6-15.5-1.6l1.6-7c5.6,1.4,10.3,1.6,12.9,1.6c4.4,0,5.6-2,5.6-3.3
		c0-1.7-1.8-2.5-5.8-3.3c-7.7-1.3-13.5-3.8-13.5-11.5c0-7.3,5.2-10.2,13.5-10.2c5.5,0,10.2,0.6,14.3,1.6l-1.6,7.1
		c-5.6-1.4-9.7-1.6-12.2-1.6c-4.1,0-5.1,1.7-5.1,2.9c0,1.6,1.2,2.5,5.5,3.5c6.5,1.4,13.9,3.1,13.9,11
		C226,393,220.9,396.4,212.6,396.4z"/>
	<path class="st0" d="M240.6,395.8h-8.8v-47.6h8.8v18h0.1c2.9-3.1,6.7-5.1,11.1-5.1c6.8,0,10.2,4.4,10.2,11.4v23.3h-8.8v-21.2
		c0-3.9-1.5-6.1-5.4-6.1c-2.8,0-5.4,1.5-7.1,2.6V395.8z"/>
	<path class="st0" d="M284.8,368.1h-4.6v-5.8l4.6-0.5l1.1-9.5h7.8v9.5h8.5v6.3h-8.5v16.4c0,3.2,1.4,4.9,5,4.9c0.8,0,1.8-0.1,3.1-0.3
		l0.7,6.8c-1.9,0.4-5.1,0.6-6.9,0.6c-7.8,0-10.7-3.2-10.7-10.4V368.1z"/>
	<path class="st0" d="M315,380.7c0.2,5.1,3.1,8.5,9.3,8.5c2.9,0,6.2-0.1,10.6-1.4l1,7c-4.5,1.3-8.5,1.6-12.9,1.6
		c-13.1,0-17.7-6.9-17.7-17.7c0-10.7,4.6-17.7,17.5-17.7c10.2,0,13.6,5.1,14.3,11c0.3,2.6,0.1,5.5-0.3,8.6H315z M315,375.1h13.2
		c0.1-0.9,0.2-1.8,0.1-2.7c-0.3-2.6-1.8-4.6-6-4.6C317.5,367.9,315.4,370.7,315,375.1z"/>
	<path class="st0" d="M345.5,369.7l-1.3-7.1c4.8-1,9.9-1.6,14-1.6c8.6,0,13.4,2.2,13.4,11.4v23.3h-8.8v-3.4c-0.1,0-0.1,0-0.1,0
		c-2.9,3-5.8,4.1-10.1,4.1c-6.8,0-10.5-4.6-10.5-10.5c0-8.3,7.6-10.6,14.3-10.6h6.5V373c0-3.5-2.2-4.6-6.6-4.6
		C353.5,368.4,350.4,368.7,345.5,369.7z M362.8,380.7h-5.9c-4,0-6,1.4-6,4.6c0,3,2.4,4.4,5.3,4.4c2.8,0,5.4-1.2,6.6-2.1V380.7z"/>
	<path class="st0" d="M395.3,361.1c4.4,0,7.8,0.6,11.9,1.6l-1.6,7.1c-5.6-1.4-7.8-1.4-10.3-1.4c-5.3,0-8.2,3.5-8.2,10.3
		c0,6.8,2.9,10.4,8.2,10.4c2.5,0,4.7,0,10.3-1.4l1.6,7c-4.1,1-7.5,1.6-11.9,1.6c-13.2,0-17.5-6.9-17.5-17.7
		C377.7,368.1,382.1,361.1,395.3,361.1z"/>
	<path class="st0" d="M420.9,395.8h-8.8v-47.6h8.8v18h0.1c2.9-3.1,6.7-5.1,11.1-5.1c6.8,0,10.2,4.4,10.2,11.4v23.3h-8.8v-21.2
		c0-3.9-1.5-6.1-5.4-6.1c-2.8,0-5.4,1.5-7.1,2.6V395.8z"/>
	<path class="st0" d="M457.9,349.5v9.4h-8.8v-9.4H457.9z M457.9,361.8v34h-8.8v-34H457.9z"/>
	<path class="st0" d="M473.5,395.8h-8.8v-34h8.8v4.4h0.1c2.9-3.1,6.7-5.1,11.1-5.1c6.8,0,10.2,4.4,10.2,11.4v23.3h-8.8v-21.2
		c0-3.9-1.5-6.1-5.4-6.1c-2.8,0-5.4,1.5-7.1,2.6V395.8z"/>
	<path class="st0" d="M504.5,394.1c-1.8-1.1-2.7-2.9-2.7-4.7c0-2.5,1.7-5.3,5.2-7.1v-0.1c-3.4-1.7-5.5-5.2-5.5-9.5
		c0-7.8,5.6-11.6,14.3-11.6c1.8,0,3.5,0.3,4.9,0.7h12.6v5.3h-5.4c1.3,1.4,2,3.3,2,5.6c0,7.9-5.9,11.4-14,11.4
		c-2.1,0-3.7-0.5-4.4-0.7c-0.4,0.5-0.7,1-1,1.5c-0.6,1.6-0.5,3.3,1.7,3.5l11.6,0.8c6.9,0.5,10.4,3.1,10.4,8.5
		c0,8.6-6.5,12.4-20.4,12.4c-10.1,0-14.6-2.8-14.6-8.8c0-2.9,1.6-5.1,5.3-6.9V394.1z M515.2,404.3c4.9,0,9.6-1.5,9.6-5
		c0-1.6-1.2-2.9-4.1-3.1l-11.9-0.7c-1.3,1.2-2.3,2.1-2.3,4.2C506.5,403.2,510.5,404.3,515.2,404.3z M521.8,372.6
		c0-3.8-2.4-5.8-5.9-5.8c-3.8,0-6.1,2-6.1,5.8c0,3.8,2.4,5.6,6.1,5.6C519.4,378.3,521.8,376.4,521.8,372.6z"/>
</g>
<g>
	<path class="st0" d="M121.4,434.8h0.1c2.2-2.4,5.9-4.1,9.6-4.1c9.5,0,12.4,8,12.4,17.7c0,9.7-3.4,17.7-12.9,17.7
		c-3.4,0-6.9-1.4-9-3.8h-0.1V479h-8.8v-47.6h8.8V434.8z M127.6,438.1c-2.9,0-5,1.3-6.1,2.1v16.5c1.1,0.9,3.3,2.2,6.1,2.2
		c5.2,0,6.7-4.6,6.7-10.4S132.8,438.1,127.6,438.1z"/>
	<path class="st0" d="M158.5,465.4h-8.8v-34h8.8v5.4h0.1c2.2-3.1,6.3-6.1,11.8-6.1v8.4c-4.6,0-9.2,1.2-11.9,2.6V465.4z"/>
	<path class="st0" d="M172.4,448.4c0-10.7,4.6-17.7,16.5-17.7s16.5,7,16.5,17.7c0,10.7-4.5,17.7-16.5,17.7S172.4,459.1,172.4,448.4z
		 M181.8,448.4c0,6.3,1.6,10.4,7.1,10.4c5.6,0,7.1-4.1,7.1-10.4c0-6.3-1.6-10.3-7.1-10.3C183.3,438.1,181.8,442.1,181.8,448.4z"/>
	<path class="st0" d="M223,431.4h7.1v6.3H223v27.7h-8.8v-27.7h-4.6v-5.8l4.6-0.5v-3.5c0-6.7,2.2-10.1,10.7-10.1c1.8,0,4,0.3,5.9,0.6
		l-0.7,6.8c-1.3-0.2-2.3-0.3-3.1-0.3c-3,0-3.9,0.7-3.9,3.7V431.4z"/>
	<path class="st0" d="M242.3,450.3c0.2,5.1,3.1,8.5,9.3,8.5c2.9,0,6.2-0.1,10.6-1.4l1,7c-4.5,1.3-8.5,1.6-12.9,1.6
		c-13.1,0-17.7-6.9-17.7-17.7c0-10.7,4.6-17.7,17.5-17.7c10.2,0,13.6,5.1,14.3,11c0.3,2.6,0.1,5.5-0.3,8.6H242.3z M242.3,444.7h13.2
		c0.1-0.9,0.2-1.8,0.1-2.7c-0.3-2.6-1.8-4.6-6-4.6C244.8,437.5,242.7,440.4,242.3,444.7z"/>
	<path class="st0" d="M284.8,466.1c-5.5,0-11.4-0.6-15.5-1.6l1.6-7c5.6,1.4,10.3,1.6,12.9,1.6c4.4,0,5.6-2,5.6-3.3
		c0-1.7-1.8-2.5-5.8-3.3c-7.7-1.3-13.5-3.8-13.5-11.5c0-7.3,5.2-10.2,13.5-10.2c5.5,0,10.2,0.6,14.3,1.6l-1.6,7.1
		c-5.6-1.4-9.7-1.6-12.2-1.6c-4.1,0-5.1,1.7-5.1,2.9c0,1.6,1.2,2.5,5.5,3.5c6.5,1.4,13.9,3.1,13.9,11
		C298.2,462.6,293.1,466.1,284.8,466.1z"/>
	<path class="st0" d="M318.4,466.1c-5.5,0-11.4-0.6-15.5-1.6l1.6-7c5.6,1.4,10.3,1.6,12.9,1.6c4.4,0,5.6-2,5.6-3.3
		c0-1.7-1.8-2.5-5.8-3.3c-7.7-1.3-13.5-3.8-13.5-11.5c0-7.3,5.2-10.2,13.5-10.2c5.5,0,10.2,0.6,14.3,1.6l-1.6,7.1
		c-5.6-1.4-9.7-1.6-12.2-1.6c-4.1,0-5.1,1.7-5.1,2.9c0,1.6,1.2,2.5,5.5,3.5c6.5,1.4,13.9,3.1,13.9,11
		C331.8,462.6,326.7,466.1,318.4,466.1z"/>
	<path class="st0" d="M346.4,419.2v9.4h-8.8v-9.4H346.4z M346.4,431.4v34h-8.8v-34H346.4z"/>
	<path class="st0" d="M352.5,448.4c0-10.7,4.6-17.7,16.5-17.7s16.5,7,16.5,17.7c0,10.7-4.5,17.7-16.5,17.7S352.5,459.1,352.5,448.4z
		 M361.9,448.4c0,6.3,1.6,10.4,7.1,10.4c5.6,0,7.1-4.1,7.1-10.4c0-6.3-1.6-10.3-7.1-10.3C363.5,438.1,361.9,442.1,361.9,448.4z"/>
	<path class="st0" d="M400.4,465.4h-8.8v-34h8.8v4.4h0.1c2.9-3.1,6.7-5.1,11.1-5.1c6.8,0,10.2,4.4,10.2,11.4v23.3H413v-21.2
		c0-3.9-1.5-6.1-5.4-6.1c-2.8,0-5.4,1.5-7.1,2.6V465.4z"/>
	<path class="st0" d="M437.4,455.5v9.9h-8.8v-9.9H437.4z"/>
</g>
</svg>
