<!-- Generator: Adobe Illustrator 19.2.1, SVG Export Plug-In  -->
<svg version="1.1"
	 xmlns="http://www.w3.org/2000/svg" xmlns:xlink="http://www.w3.org/1999/xlink" xmlns:a="http://ns.adobe.com/AdobeSVGViewerExtensions/3.0/"
	 x="0px" y="0px" width="119.9px" height="96.2px" viewBox="0 0 119.9 96.2" style="enable-background:new 0 0 119.9 96.2;"
	 xml:space="preserve">
<style type="text/css">
	.st0{clip-path:url(#SVGID_2_);fill:#DCDCDC;}
	.st1{clip-path:url(#SVGID_4_);fill:#DCDCDC;}
</style>
<defs>
</defs>
<g>
	<defs>
		<rect id="SVGID_1_" x="0" width="119.9" height="96.2"/>
	</defs>
	<clipPath id="SVGID_2_">
		<use xlink:href="#SVGID_1_"  style="overflow:visible;"/>
	</clipPath>
	<path class="st0" d="M83.5,23.5c0-1-0.4-2-1.1-2.7L62.8,1.1C62.1,0.4,61.1,0,60,0c-1,0-2,0.4-2.7,1.1L37.7,20.7
		c-0.7,0.7-1.1,1.7-1.1,2.7c0,1,0.4,2,1.1,2.7l2.3,2.3c0.7,0.7,1.7,1.1,2.7,1.1c1,0,2-0.4,2.7-1.1l8.9-8.8v21.2
		c0,2.2,1.8,3.5,3.9,3.5H62c2,0,3.9-1.4,3.9-3.5V19.6l8.9,8.8c0.7,0.7,1.7,1.1,2.7,1.1c1,0,2-0.4,2.7-1.1l2.3-2.3
		C83.1,25.5,83.5,24.5,83.5,23.5"/>
	<path class="st0" d="M46.9,75.3c0-1-0.4-2-1.1-2.7L26.2,52.9c-0.7-0.7-1.7-1.1-2.7-1.1c-1,0-2,0.4-2.7,1.1L1.1,72.6
		C0.4,73.3,0,74.3,0,75.3s0.4,2,1.1,2.7l2.3,2.3c0.7,0.7,1.7,1.1,2.7,1.1c1,0,2-0.4,2.7-1.1l8.9-8.8v21.2c0,2.2,1.8,3.5,3.9,3.5h3.9
		c2,0,3.9-1.4,3.9-3.5V71.4l8.9,8.8c0.7,0.7,1.7,1.1,2.7,1.1c1,0,2-0.4,2.7-1.1l2.3-2.3C46.5,77.3,46.9,76.3,46.9,75.3"/>
	<path class="st0" d="M119.9,75.3c0-1-0.4-2-1.1-2.7L99.2,52.9c-0.7-0.7-1.7-1.1-2.7-1.1c-1,0-2,0.4-2.7,1.1L74.1,72.6
		c-0.7,0.7-1.1,1.7-1.1,2.7s0.4,2,1.1,2.7l2.3,2.3c0.7,0.7,1.7,1.1,2.7,1.1c1,0,2-0.4,2.7-1.1l8.9-8.8v21.2c0,2.2,1.8,3.5,3.9,3.5
		h3.9c2,0,3.9-1.4,3.9-3.5V71.4l8.9,8.8c0.7,0.7,1.7,1.1,2.7,1.1c1,0,2-0.4,2.7-1.1l2.3-2.3C119.5,77.3,119.9,76.3,119.9,75.3"/>
</g>
</svg>
