<!-- Generator: Adobe Illustrator 19.2.1, SVG Export Plug-In  -->
<svg version="1.1"
	 xmlns="http://www.w3.org/2000/svg" xmlns:xlink="http://www.w3.org/1999/xlink" xmlns:a="http://ns.adobe.com/AdobeSVGViewerExtensions/3.0/"
	 x="0px" y="0px" width="1186.6px" height="517.3px" viewBox="0 0 1186.6 517.3" style="enable-background:new 0 0 1186.6 517.3;"
	 xml:space="preserve">
<style type="text/css">
	.st0{fill:#005873;}
	.st1{fill:none;stroke:#C5C5C5;stroke-dasharray:3.999,3.999;}
	.st2{fill:none;stroke:#C5C5C5;stroke-dasharray:3.984,3.984;}
	.st3{fill:none;stroke:#C5C5C5;stroke-dasharray:3.982,3.982;}
	.st4{fill:none;stroke:#C5C5C5;stroke-dasharray:4.05,4.05;}
	.st5{fill:none;stroke:#C5C5C5;stroke-dasharray:4.024,4.024;}
	.st6{fill:none;stroke:#C5C5C5;stroke-dasharray:3.991,3.991;}
	.st7{fill:none;stroke:#C5C5C5;stroke-dasharray:3.968,3.968;}
	.st8{fill:none;stroke:#C5C5C5;stroke-dasharray:4.018,4.018;}
	.st9{fill:none;stroke:#C5C5C5;stroke-dasharray:3.976,3.976;}
	.st10{fill:none;stroke:#C5C5C5;stroke-dasharray:4.031,4.031;}
	.st11{fill:none;stroke:#C5C5C5;stroke-dasharray:4.015,4.015;}
	.st12{fill:none;stroke:#C5C5C5;stroke-dasharray:4.025,4.025;}
	.st13{fill:none;stroke:#C5C5C5;stroke-dasharray:3.983,3.983;}
	.st14{fill:none;stroke:#C5C5C5;stroke-dasharray:4.011,4.011;}
	.st15{fill:none;stroke:#C5C5C5;stroke-dasharray:4.006,4.006;}
	.st16{fill:none;stroke:#C5C5C5;stroke-dasharray:3.941,3.941;}
	.st17{fill:none;stroke:#C5C5C5;stroke-dasharray:4.028,4.028;}
	.st18{fill:none;stroke:#C5C5C5;stroke-dasharray:4.036,4.036;}
	.st19{fill:none;stroke:#C5C5C5;stroke-dasharray:4.004,4.004;}
	.st20{fill:none;stroke:#C5C5C5;stroke-dasharray:3.963,3.963;}
	.st21{fill:none;stroke:#C5C5C5;stroke-dasharray:4.012,4.012;}
	.st22{fill:none;stroke:#C5C5C5;stroke-dasharray:3.977,3.977;}
	.st23{fill:none;stroke:#C5C5C5;stroke-dasharray:4.032,4.032;}
	.st24{fill:none;stroke:#C5C5C5;stroke-dasharray:3.967,3.967;}
	.st25{fill:none;stroke:#C5C5C5;stroke-dasharray:4.003,4.003;}
	.st26{fill:#306075;}
	.st27{fill:#DF9E7B;}
	.st28{fill:#00A0B4;}
	.st29{fill:#00B0B9;}
	.st30{fill:#B0664D;}
	.st31{fill:#FEDDAC;}
	.st32{fill:#D29555;}
	.st33{fill:#00ACC2;}
	.st34{fill:#EA5479;}
	.st35{fill:#213951;}
	.st36{fill:#8DD0DC;}
	.st37{fill:#006E8B;}
	.st38{fill:#00A8B4;}
	.st39{fill:#00A1B0;}
	.st40{fill:#008494;}
	.st41{fill:#E9473C;}
	.st42{fill:#F3999A;}
	.st43{fill:#EE726B;}
	.st44{fill:#FAB200;}
	.st45{fill:#FFDF63;}
	.st46{fill:#FDC93D;}
	.st47{fill:#FFFFFF;}
	.st48{fill:#00A072;}
	.st49{fill:#F7B8A1;}
	.st50{fill:#435A6D;}
	.st51{fill:#C2E2D9;}
	.st52{fill:#F9C8BE;}
	.st53{fill:#00A6B6;}
	.st54{fill:#0097A9;}
	.st55{fill:#3C5063;}
	.st56{fill:#E84424;}
	.st57{fill:#442B04;}
	.st58{fill:#351D00;}
	.st59{fill:#EBBB74;}
	.st60{fill:#D2A15A;}
	.st61{fill:#EFC78B;}
	.st62{fill:#EAB058;}
	.st63{fill:#F7CD8F;}
	.st64{fill:#ADDAD2;}
	.st65{fill:#8BC2B9;}
	.st66{fill:#CCC9CA;}
	.st67{opacity:0.6;}
</style>
<defs>
</defs>
<g>
	<g>
		<g>
			<path class="st0" d="M975.5,464.7h-5.8v3.4h5v1.4h-5v3.8h5.9v1.4h-7.5v-11.6h7.4V464.7z"/>
			<path class="st0" d="M979.1,474.9h-1.5v-8.5h1.5v1.2h0c0.7-0.7,1.6-1.4,2.8-1.4c1.2,0,2,0.5,2.3,1.5c0.8-0.9,1.9-1.5,3-1.5
				c1.7,0,2.5,1,2.5,2.8v5.9h-1.5v-5.5c0-1.1-0.5-1.9-1.7-1.9c-0.9,0-1.6,0.6-2.2,1c0,0.3,0.1,0.6,0.1,0.9v5.5h-1.5v-5.6
				c0-1.1-0.5-1.8-1.7-1.8c-0.9,0-1.6,0.6-2.1,1V474.9z"/>
			<path class="st0" d="M993.5,467.2L993.5,467.2c0.6-0.6,1.6-1,2.6-1c2.4,0,3.1,2,3.1,4.4c0,2.5-0.8,4.4-3.2,4.4
				c-1,0-1.9-0.4-2.5-1h0v4.2H992v-11.9h1.5V467.2z M995.6,467.5c-0.9,0-1.7,0.4-2,0.7v4.8c0.3,0.3,1.1,0.7,2,0.7
				c1.6,0,2.1-1.4,2.1-3.1C997.7,468.9,997.2,467.5,995.6,467.5z"/>
			<path class="st0" d="M1001.2,463h1.5v11.9h-1.5V463z"/>
			<path class="st0" d="M1004.7,470.6c0-2.6,1.1-4.4,3.9-4.4c2.8,0,3.9,1.8,3.9,4.4s-1.1,4.4-3.9,4.4
				C1005.8,475,1004.7,473.2,1004.7,470.6z M1006.3,470.6c0,1.8,0.5,3.1,2.3,3.1c1.8,0,2.3-1.4,2.3-3.1c0-1.8-0.5-3.1-2.3-3.1
				C1006.8,467.5,1006.3,468.8,1006.3,470.6z"/>
			<path class="st0" d="M1013.7,466.4h1.7l2.5,7h0l2.3-7h1.6l-3.2,9c-0.8,2.2-1.8,3.1-3.4,3.1c-0.4,0-0.9-0.1-1.3-0.1l0.1-1.3
				c0.3,0.1,0.6,0.1,0.8,0.1c1.1,0,1.8-1.1,2.1-2.1L1013.7,466.4z"/>
			<path class="st0" d="M1024.6,470.9c0.1,1.7,0.8,2.9,2.8,2.9c0.8,0,1.7,0,2.7-0.3l0.2,1.2c-1.1,0.3-2,0.4-3.1,0.4
				c-3.1,0-4.2-1.8-4.2-4.4s1.1-4.4,4.2-4.4c2.6,0,3.3,1.5,3.4,3c0.1,0.5,0,1.1-0.1,1.7H1024.6z M1024.6,469.9h4.3
				c0.1-0.3,0.1-0.6,0.1-0.9c-0.1-0.9-0.6-1.6-1.9-1.6C1025.4,467.4,1024.8,468.5,1024.6,469.9z"/>
			<path class="st0" d="M1033.9,474.9h-1.5v-8.5h1.5v1.4h0c0.7-0.8,1.8-1.5,3.2-1.5v1.4c-1.3,0-2.5,0.5-3.2,1V474.9z"/>
			<path class="st0" d="M1042.2,475c-1.3,0-2.6-0.1-3.7-0.4l0.3-1.2c1.4,0.3,2.6,0.4,3.2,0.4c1.6,0,1.8-0.9,1.8-1.3
				c0-0.6-0.4-1-1.9-1.3c-1.8-0.3-3.2-0.9-3.2-2.7c0-1.6,1.1-2.4,3.1-2.4c1.3,0,2.4,0.1,3.4,0.4l-0.3,1.2c-1.4-0.3-2.4-0.4-3-0.4
				c-1.5,0-1.7,0.8-1.7,1.1c0,0.5,0.3,1,1.8,1.3c1.8,0.4,3.3,0.9,3.3,2.6C1045.4,474.1,1044.2,475,1042.2,475z"/>
		</g>
		<g>
			<path class="st0" d="M634.6,429.7c0-3.2,1-5.9,4.9-5.9c3.9,0,4.9,2.6,4.9,5.9c0,3.3-1,6-4.9,6
				C635.5,435.7,634.6,432.9,634.6,429.7z M636.3,429.7c0,2.5,0.5,4.7,3.2,4.7c2.8,0,3.2-2.2,3.2-4.7s-0.5-4.5-3.2-4.5
				C636.7,425.2,636.3,427.2,636.3,429.7z"/>
			<path class="st0" d="M647.3,428.1H646v-1l1.3-0.1l0.2-2.4h1.3v2.4h2.4v1.1h-2.4v4.7c0,1.1,0.3,1.7,1.4,1.7c0.2,0,0.5,0,0.9-0.1
				l0.2,1.2c-0.5,0.1-1.1,0.1-1.5,0.1c-1.8,0-2.5-0.7-2.5-2.6V428.1z"/>
			<path class="st0" d="M654.6,435.5H653v-11.9h1.5v4.6h0c0.8-0.8,1.8-1.4,3-1.4c1.7,0,2.5,1,2.5,2.8v5.9h-1.5V430
				c0-1.1-0.4-1.9-1.7-1.9c-1,0-1.9,0.6-2.4,1V435.5z"/>
			<path class="st0" d="M663.7,431.5c0.1,1.7,0.8,2.9,2.8,2.9c0.8,0,1.7,0,2.7-0.3l0.2,1.2c-1.1,0.3-2,0.4-3.1,0.4
				c-3.1,0-4.2-1.8-4.2-4.4s1.1-4.4,4.2-4.4c2.6,0,3.3,1.5,3.4,3c0.1,0.5,0,1.1-0.1,1.7H663.7z M663.7,430.6h4.3
				c0.1-0.3,0.1-0.6,0.1-0.9c-0.1-0.9-0.6-1.6-1.9-1.6C664.5,428.1,663.8,429.1,663.7,430.6z"/>
			<path class="st0" d="M673,435.5h-1.5V427h1.5v1.4h0c0.7-0.8,1.8-1.5,3.2-1.5v1.4c-1.3,0-2.5,0.5-3.2,1V435.5z"/>
		</g>
		<g>
			<path class="st0" d="M610.9,453.7c-1.3,0-2.6-0.1-3.7-0.4l0.3-1.2c1.4,0.3,2.6,0.4,3.2,0.4c1.6,0,1.8-0.9,1.8-1.3
				c0-0.6-0.4-1-1.9-1.3c-1.8-0.3-3.2-0.9-3.2-2.7c0-1.6,1.1-2.4,3.1-2.4c1.3,0,2.4,0.1,3.4,0.4l-0.3,1.2c-1.4-0.3-2.4-0.4-3-0.4
				c-1.5,0-1.7,0.8-1.7,1.1c0,0.5,0.3,1,1.8,1.3c1.8,0.4,3.3,0.9,3.3,2.6C614.1,452.8,612.9,453.7,610.9,453.7z"/>
			<path class="st0" d="M616.7,446.1h-1.3v-1l1.3-0.1l0.2-2.4h1.3v2.4h2.4v1.1h-2.4v4.7c0,1.1,0.3,1.7,1.4,1.7c0.2,0,0.5,0,0.9-0.1
				l0.2,1.2c-0.5,0.1-1.1,0.1-1.5,0.1c-1.8,0-2.5-0.7-2.5-2.6V446.1z"/>
			<path class="st0" d="M622.9,446.5l-0.2-1.2c1.2-0.2,2.3-0.4,3.3-0.4c2,0,3.1,0.6,3.1,2.8v5.9h-1.5v-0.8c0,0,0,0,0,0
				c-0.8,0.7-1.6,1-2.7,1c-1.7,0-2.7-1-2.7-2.5c0-1.9,1.6-2.6,3.6-2.6h1.9v-0.8c0-1.1-0.6-1.6-2-1.6
				C625,446.1,624.2,446.2,622.9,446.5z M627.6,449.5h-1.8c-1.6,0-2.1,0.6-2.1,1.5c0,0.9,0.7,1.4,1.8,1.4c1,0,1.7-0.4,2.1-0.7V449.5
				z"/>
			<path class="st0" d="M632.8,448.5l4.1-3.5h1.9l-3.2,2.9l3.4,5.6h-1.8l-2.7-4.7l-1.6,1.4v3.3h-1.5v-11.9h1.5V448.5z"/>
			<path class="st0" d="M641.5,449.5c0.1,1.7,0.8,2.9,2.8,2.9c0.8,0,1.7,0,2.7-0.3l0.2,1.2c-1.1,0.3-2,0.4-3.1,0.4
				c-3.1,0-4.2-1.8-4.2-4.4s1.1-4.4,4.2-4.4c2.6,0,3.3,1.5,3.4,3c0.1,0.5,0,1.1-0.1,1.7H641.5z M641.5,448.6h4.3
				c0.1-0.3,0.1-0.6,0.1-0.9c-0.1-0.9-0.6-1.6-1.9-1.6C642.3,446.1,641.6,447.1,641.5,448.6z"/>
			<path class="st0" d="M650.8,453.5h-1.5v-11.9h1.5v4.6h0c0.8-0.8,1.8-1.4,3-1.4c1.7,0,2.5,1,2.5,2.8v5.9h-1.5V448
				c0-1.1-0.4-1.9-1.7-1.9c-1,0-1.9,0.6-2.4,1V453.5z"/>
			<path class="st0" d="M658.3,449.3c0-2.6,1.1-4.4,3.9-4.4c2.8,0,3.9,1.8,3.9,4.4s-1.1,4.4-3.9,4.4
				C659.4,453.7,658.3,451.9,658.3,449.3z M660,449.3c0,1.8,0.5,3.1,2.3,3.1c1.8,0,2.3-1.4,2.3-3.1c0-1.8-0.5-3.1-2.3-3.1
				C660.5,446.1,660,447.5,660,449.3z"/>
			<path class="st0" d="M668.1,441.6h1.5v11.9h-1.5V441.6z"/>
			<path class="st0" d="M677.4,452.7C677.3,452.7,677.3,452.7,677.4,452.7c-0.6,0.6-1.6,1-2.6,1c-2.4,0-3.1-2-3.1-4.4
				c0-2.5,0.9-4.4,3.2-4.4c1,0,1.9,0.4,2.5,1c0,0,0,0,0,0v-4.2h1.5v11.9h-1.5V452.7z M675.3,452.4c0.9,0,1.7-0.4,2-0.7v-4.8
				c-0.4-0.3-1.1-0.7-2-0.7c-1.7,0-2.1,1.4-2.1,3.1C673.2,451,673.7,452.4,675.3,452.4z"/>
			<path class="st0" d="M682.5,449.5c0.1,1.7,0.8,2.9,2.8,2.9c0.8,0,1.7,0,2.7-0.3l0.2,1.2c-1.1,0.3-2,0.4-3.1,0.4
				c-3.1,0-4.2-1.8-4.2-4.4s1.1-4.4,4.2-4.4c2.6,0,3.3,1.5,3.4,3c0.1,0.5,0,1.1-0.1,1.7H682.5z M682.5,448.6h4.3
				c0.1-0.3,0.1-0.6,0.1-0.9c-0.1-0.9-0.6-1.6-1.9-1.6C683.2,446.1,682.6,447.1,682.5,448.6z"/>
			<path class="st0" d="M691.8,453.5h-1.5V445h1.5v1.4h0c0.7-0.8,1.8-1.5,3.2-1.5v1.4c-1.3,0-2.5,0.5-3.2,1V453.5z"/>
			<path class="st0" d="M700.1,453.7c-1.3,0-2.6-0.1-3.7-0.4l0.3-1.2c1.4,0.3,2.6,0.4,3.2,0.4c1.6,0,1.8-0.9,1.8-1.3
				c0-0.6-0.4-1-1.9-1.3c-1.8-0.3-3.2-0.9-3.2-2.7c0-1.6,1.1-2.4,3.1-2.4c1.3,0,2.4,0.1,3.4,0.4l-0.3,1.2c-1.4-0.3-2.4-0.4-3-0.4
				c-1.5,0-1.7,0.8-1.7,1.1c0,0.5,0.3,1,1.8,1.3c1.8,0.4,3.3,0.9,3.3,2.6C703.2,452.8,702,453.7,700.1,453.7z"/>
		</g>
		<g>
			<path class="st0" d="M714,23.2l0.3-1.4c1.8,0.4,3,0.5,3.9,0.5c1.7,0,2.5-0.9,2.5-1.8c0-1.4-1.6-1.8-2.9-2.1
				c-1.9-0.5-3.6-1.5-3.6-3.5c0-2.2,1.8-3.1,4-3.1c1.3,0,2.5,0.2,3.9,0.6l-0.4,1.4c-1.8-0.4-2.6-0.5-3.5-0.5c-1.7,0-2.3,0.8-2.3,1.7
				c0,1.3,1.7,1.8,3,2.1c1.9,0.4,3.5,1.3,3.5,3.3c0,2.3-1.8,3.4-4.2,3.4C716.9,23.8,715.4,23.6,714,23.2z"/>
			<path class="st0" d="M728.3,14.9c1.1,0,1.9,0.1,2.9,0.4l-0.3,1.2c-1.4-0.3-2-0.3-2.6-0.3c-1.8,0-2.5,1.3-2.5,3.1s0.8,3.1,2.5,3.1
				c0.6,0,1.2,0,2.6-0.3l0.3,1.2c-1,0.3-1.8,0.4-2.9,0.4c-3.1,0-4.2-1.8-4.2-4.4S725.2,14.9,728.3,14.9z"/>
			<path class="st0" d="M732.3,19.4c0-2.6,1.1-4.4,3.9-4.4c2.8,0,3.9,1.8,3.9,4.4s-1.1,4.4-3.9,4.4C733.4,23.8,732.3,22,732.3,19.4z
				 M733.9,19.4c0,1.8,0.5,3.1,2.3,3.1c1.8,0,2.3-1.4,2.3-3.1s-0.5-3.1-2.3-3.1C734.4,16.2,733.9,17.6,733.9,19.4z"/>
			<path class="st0" d="M742.5,16.2h-1.3v-1l1.3-0.1l0.2-2.4h1.3v2.4h2.4v1.1h-2.4v4.7c0,1.1,0.3,1.7,1.4,1.7c0.2,0,0.5,0,0.9-0.1
				l0.2,1.2c-0.5,0.1-1.1,0.1-1.5,0.1c-1.8,0-2.5-0.7-2.5-2.6V16.2z"/>
			<path class="st0" d="M749.2,16.2h-1.3v-1l1.3-0.1l0.2-2.4h1.3v2.4h2.4v1.1h-2.4v4.7c0,1.1,0.3,1.7,1.4,1.7c0.2,0,0.5,0,0.9-0.1
				l0.2,1.2c-0.5,0.1-1.1,0.1-1.5,0.1c-1.8,0-2.5-0.7-2.5-2.6V16.2z"/>
			<path class="st0" d="M756.4,12v2.1h-1.5V12H756.4z M756.4,15.1v8.5h-1.5v-8.5H756.4z"/>
			<path class="st0" d="M761.8,23.8c-1.3,0-2.6-0.1-3.7-0.4l0.3-1.2c1.4,0.3,2.6,0.4,3.2,0.4c1.6,0,1.8-0.9,1.8-1.3
				c0-0.6-0.4-1-1.9-1.3c-1.8-0.3-3.2-0.9-3.2-2.7c0-1.6,1.1-2.4,3.1-2.4c1.3,0,2.4,0.1,3.4,0.4l-0.3,1.2c-1.4-0.3-2.4-0.4-3-0.4
				c-1.5,0-1.7,0.8-1.7,1.1c0,0.5,0.3,1,1.8,1.3c1.8,0.4,3.3,0.9,3.3,2.6C765,22.9,763.8,23.8,761.8,23.8z"/>
			<path class="st0" d="M768.3,23.6h-1.5V11.7h1.5v4.6h0c0.8-0.8,1.8-1.4,3-1.4c1.7,0,2.5,1,2.5,2.8v5.9h-1.5v-5.5
				c0-1.1-0.4-1.9-1.7-1.9c-1,0-1.9,0.6-2.4,1V23.6z"/>
		</g>
		<g>
			<path class="st0" d="M714,35.7c0-3.2,1-5.9,4.9-5.9c1.3,0,2.5,0.2,3.9,0.6l-0.4,1.4c-1.8-0.4-2.5-0.5-3.4-0.5
				c-2.7,0-3.3,2-3.3,4.4c0,2.6,0.7,4.6,3.3,4.6c0.8,0,1.5-0.2,2.2-0.6v-2.7H719v-1.4h3.8v5.2c-1.2,0.5-2.3,0.9-3.9,0.9
				C715,41.8,714,39.1,714,35.7z"/>
			<path class="st0" d="M724.9,37.4c0-2.6,1.1-4.4,3.9-4.4c2.8,0,3.9,1.8,3.9,4.4s-1.1,4.4-3.9,4.4C726,41.8,724.9,40,724.9,37.4z
				 M726.5,37.4c0,1.8,0.5,3.1,2.3,3.1c1.8,0,2.3-1.4,2.3-3.1s-0.5-3.1-2.3-3.1C727,34.2,726.5,35.6,726.5,37.4z"/>
			<path class="st0" d="M737,41.7l-3.1-8.6h1.7L738,40h0l2.4-6.9h1.6l-3.2,8.6H737z"/>
			<path class="st0" d="M744.8,37.6c0.1,1.7,0.8,2.9,2.8,2.9c0.8,0,1.7,0,2.7-0.3l0.2,1.2c-1.1,0.3-2,0.4-3.1,0.4
				c-3.1,0-4.2-1.8-4.2-4.4s1.1-4.4,4.2-4.4c2.6,0,3.3,1.5,3.4,3c0.1,0.5,0,1.1-0.1,1.7H744.8z M744.8,36.6h4.3
				c0.1-0.3,0.1-0.6,0.1-0.9c-0.1-0.9-0.6-1.6-1.9-1.6C745.6,34.1,745,35.2,744.8,36.6z"/>
			<path class="st0" d="M754.1,41.6h-1.5v-8.5h1.5v1.4h0c0.7-0.8,1.8-1.5,3.2-1.5v1.4c-1.3,0-2.5,0.5-3.2,1V41.6z"/>
			<path class="st0" d="M760.5,41.6H759v-8.5h1.5v1.2h0c0.8-0.8,1.8-1.4,3-1.4c1.7,0,2.5,1,2.5,2.8v5.9h-1.5v-5.5
				c0-1.1-0.4-1.9-1.7-1.9c-1,0-1.9,0.6-2.4,1V41.6z"/>
			<path class="st0" d="M769.8,41.6h-1.5v-8.5h1.5v1.2h0c0.7-0.7,1.6-1.4,2.8-1.4c1.2,0,2,0.5,2.3,1.5c0.8-0.9,1.9-1.5,3-1.5
				c1.7,0,2.5,1,2.5,2.8v5.9H779v-5.5c0-1.1-0.5-1.9-1.7-1.9c-0.9,0-1.6,0.6-2.2,1c0,0.3,0.1,0.6,0.1,0.9v5.5h-1.5V36
				c0-1.1-0.5-1.8-1.7-1.8c-0.9,0-1.6,0.6-2.1,1V41.6z"/>
			<path class="st0" d="M784.1,37.6c0.1,1.7,0.8,2.9,2.8,2.9c0.8,0,1.7,0,2.7-0.3l0.2,1.2c-1.1,0.3-2,0.4-3.1,0.4
				c-3.1,0-4.2-1.8-4.2-4.4s1.1-4.4,4.2-4.4c2.6,0,3.3,1.5,3.4,3c0.1,0.5,0,1.1-0.1,1.7H784.1z M784.1,36.6h4.3
				c0.1-0.3,0.1-0.6,0.1-0.9c-0.1-0.9-0.6-1.6-1.9-1.6C784.9,34.1,784.2,35.2,784.1,36.6z"/>
			<path class="st0" d="M793.4,41.6h-1.5v-8.5h1.5v1.2h0c0.8-0.8,1.8-1.4,3-1.4c1.7,0,2.5,1,2.5,2.8v5.9h-1.5v-5.5
				c0-1.1-0.4-1.9-1.7-1.9c-1,0-1.9,0.6-2.4,1V41.6z"/>
			<path class="st0" d="M801.8,34.2h-1.3v-1l1.3-0.1l0.2-2.4h1.3v2.4h2.4v1.1h-2.4v4.7c0,1.1,0.3,1.7,1.4,1.7c0.2,0,0.5,0,0.9-0.1
				l0.2,1.2c-0.5,0.1-1.1,0.1-1.5,0.1c-1.8,0-2.5-0.7-2.5-2.6V34.2z"/>
		</g>
		<g>
			<path class="st0" d="M1101,92.9c1.3,0,2.5,0.2,4,0.6l-0.4,1.4c-1.8-0.4-2.6-0.5-3.5-0.5c-2.7,0-3.3,2-3.3,4.4
				c0,2.6,0.7,4.6,3.3,4.6c0.9,0,1.8-0.1,3.5-0.5l0.4,1.4c-1.4,0.4-2.7,0.6-4,0.6c-4,0-4.9-2.7-4.9-6
				C1096.1,95.5,1097.1,92.9,1101,92.9z"/>
			<path class="st0" d="M1106.4,100.4c0-2.6,1.1-4.4,3.9-4.4c2.8,0,3.9,1.8,3.9,4.4s-1.1,4.4-3.9,4.4
				C1107.4,104.8,1106.4,103,1106.4,100.4z M1108,100.4c0,1.8,0.5,3.1,2.3,3.1c1.8,0,2.3-1.4,2.3-3.1s-0.5-3.1-2.3-3.1
				C1108.5,97.2,1108,98.6,1108,100.4z"/>
			<path class="st0" d="M1116.2,92.7h1.5v11.9h-1.5V92.7z"/>
			<path class="st0" d="M1119.8,92.7h1.5v11.9h-1.5V92.7z"/>
			<path class="st0" d="M1124.9,100.6c0.1,1.7,0.8,2.9,2.8,2.9c0.8,0,1.7,0,2.7-0.3l0.2,1.2c-1.1,0.3-2,0.4-3.1,0.4
				c-3.1,0-4.2-1.8-4.2-4.4s1.1-4.4,4.2-4.4c2.6,0,3.3,1.5,3.4,3c0.1,0.5,0,1.1-0.1,1.7H1124.9z M1124.9,99.6h4.3
				c0.1-0.3,0.1-0.6,0.1-0.9c-0.1-0.9-0.6-1.6-1.9-1.6C1125.7,97.1,1125.1,98.2,1124.9,99.6z"/>
			<path class="st0" d="M1133.5,104c-0.5-0.3-0.7-0.7-0.6-1.2c0-0.6,0.4-1.2,1.1-1.6v0c-0.8-0.4-1.4-1.3-1.4-2.4
				c0-1.9,1.3-2.9,3.5-2.9c0.5,0,0.8,0.1,1.2,0.2h3V97h-1.6c0.7,0.5,0.8,1.2,0.8,1.8c0,1.9-1.4,2.8-3.3,2.8c-0.5,0-1-0.1-1.2-0.2
				c-0.1,0.1-0.3,0.3-0.3,0.5c-0.3,0.5-0.2,1.1,0.5,1.1l3.1,0.2c1.8,0.1,2.5,0.8,2.5,2c0,2-1.5,3-4.9,3c-2.3,0-3.5-0.7-3.5-2.2
				C1132.1,105.2,1132.5,104.6,1133.5,104L1133.5,104z M1135.9,107.2c1.6,0,3-0.5,3-1.7c0-0.5-0.3-1-1.4-1l-3.1-0.2
				c-0.5,0.4-1,0.7-1,1.4C1133.4,106.7,1134.2,107.2,1135.9,107.2z M1138,98.8c0-1.1-0.8-1.9-2-1.9c-1.3,0-2,0.7-2,1.9
				c0,1.2,0.8,1.8,2,1.8C1137.3,100.6,1138,100,1138,98.8z"/>
			<path class="st0" d="M1143.2,100.6c0.1,1.7,0.8,2.9,2.8,2.9c0.8,0,1.7,0,2.7-0.3l0.2,1.2c-1.1,0.3-2,0.4-3.1,0.4
				c-3.1,0-4.2-1.8-4.2-4.4s1.1-4.4,4.2-4.4c2.6,0,3.3,1.5,3.4,3c0.1,0.5,0,1.1-0.1,1.7H1143.2z M1143.2,99.6h4.3
				c0.1-0.3,0.1-0.6,0.1-0.9c-0.1-0.9-0.6-1.6-1.9-1.6C1143.9,97.1,1143.3,98.2,1143.2,99.6z"/>
			<path class="st0" d="M1154.2,104.8c-1.3,0-2.6-0.1-3.7-0.4l0.3-1.2c1.4,0.3,2.6,0.4,3.2,0.4c1.6,0,1.8-0.9,1.8-1.3
				c0-0.6-0.4-1-1.9-1.3c-1.8-0.3-3.2-0.9-3.2-2.7c0-1.6,1.1-2.4,3.1-2.4c1.3,0,2.4,0.1,3.4,0.4l-0.3,1.2c-1.4-0.3-2.4-0.4-3-0.4
				c-1.5,0-1.7,0.8-1.7,1.1c0,0.5,0.3,1,1.8,1.3c1.8,0.4,3.3,0.9,3.3,2.6C1157.4,103.9,1156.2,104.8,1154.2,104.8z"/>
			<path class="st0" d="M1159.6,106.8l0.3-2.2c-0.2,0-0.4,0-0.6,0v-2.2h1.5v2.2l-0.8,2.2H1159.6z"/>
		</g>
		<g>
			<path class="st0" d="M1092.5,118.5v-7.5h1.6v7.5c0,3-1.6,4.2-4.3,4.2c-2.8,0-4.3-1.3-4.3-4.2v-7.5h1.6v7.5c0,1.3,0.3,2.9,2.8,2.9
				C1092.2,121.4,1092.5,119.8,1092.5,118.5z"/>
			<path class="st0" d="M1098,122.6h-1.5v-8.5h1.5v1.2h0c0.8-0.8,1.8-1.4,3-1.4c1.7,0,2.5,1,2.5,2.8v5.9h-1.5v-5.5
				c0-1.1-0.4-1.9-1.7-1.9c-1,0-1.9,0.6-2.4,1V122.6z"/>
			<path class="st0" d="M1107.3,111.1v2.1h-1.5v-2.1H1107.3z M1107.3,114.1v8.5h-1.5v-8.5H1107.3z"/>
			<path class="st0" d="M1112.2,122.7l-3.1-8.6h1.7l2.4,6.9h0l2.4-6.9h1.6l-3.2,8.6H1112.2z"/>
			<path class="st0" d="M1120,118.6c0.1,1.7,0.8,2.9,2.8,2.9c0.8,0,1.7,0,2.7-0.3l0.2,1.2c-1.1,0.3-2,0.4-3.1,0.4
				c-3.1,0-4.2-1.8-4.2-4.4s1.1-4.4,4.2-4.4c2.6,0,3.3,1.5,3.4,3c0.1,0.5,0,1.1-0.1,1.7H1120z M1120,117.7h4.3
				c0.1-0.3,0.1-0.6,0.1-0.9c-0.1-0.9-0.6-1.6-1.9-1.6C1120.7,115.1,1120.1,116.2,1120,117.7z"/>
			<path class="st0" d="M1129.3,122.6h-1.5v-8.5h1.5v1.4h0c0.7-0.8,1.8-1.5,3.2-1.5v1.4c-1.3,0-2.5,0.5-3.2,1V122.6z"/>
			<path class="st0" d="M1137.6,122.8c-1.3,0-2.6-0.1-3.7-0.4l0.3-1.2c1.4,0.3,2.6,0.4,3.2,0.4c1.6,0,1.8-0.9,1.8-1.3
				c0-0.6-0.4-1-1.9-1.3c-1.8-0.3-3.2-0.9-3.2-2.7c0-1.6,1.1-2.4,3.1-2.4c1.3,0,2.4,0.1,3.4,0.4l-0.3,1.2c-1.4-0.3-2.4-0.4-3-0.4
				c-1.5,0-1.7,0.8-1.7,1.1c0,0.5,0.3,1,1.8,1.3c1.8,0.4,3.3,0.9,3.3,2.6C1140.7,121.9,1139.5,122.8,1137.6,122.8z"/>
			<path class="st0" d="M1144,111.1v2.1h-1.5v-2.1H1144z M1144,114.1v8.5h-1.5v-8.5H1144z"/>
			<path class="st0" d="M1146.8,115.2h-1.3v-1l1.3-0.1l0.2-2.4h1.3v2.4h2.4v1.1h-2.4v4.7c0,1.1,0.3,1.7,1.4,1.7c0.2,0,0.5,0,0.9-0.1
				l0.2,1.2c-0.5,0.1-1.1,0.1-1.5,0.1c-1.8,0-2.5-0.7-2.5-2.6V115.2z"/>
			<path class="st0" d="M1154.1,111.1v2.1h-1.5v-2.1H1154.1z M1154.1,114.1v8.5h-1.5v-8.5H1154.1z"/>
			<path class="st0" d="M1157.6,118.6c0.1,1.7,0.8,2.9,2.8,2.9c0.8,0,1.7,0,2.7-0.3l0.2,1.2c-1.1,0.3-2,0.4-3.1,0.4
				c-3.1,0-4.2-1.8-4.2-4.4s1.1-4.4,4.2-4.4c2.6,0,3.3,1.5,3.4,3c0.1,0.5,0,1.1-0.1,1.7H1157.6z M1157.6,117.7h4.3
				c0.1-0.3,0.1-0.6,0.1-0.9c-0.1-0.9-0.6-1.6-1.9-1.6C1158.4,115.1,1157.8,116.2,1157.6,117.7z"/>
			<path class="st0" d="M1168.7,122.8c-1.3,0-2.6-0.1-3.7-0.4l0.3-1.2c1.4,0.3,2.6,0.4,3.2,0.4c1.6,0,1.8-0.9,1.8-1.3
				c0-0.6-0.4-1-1.9-1.3c-1.8-0.3-3.2-0.9-3.2-2.7c0-1.6,1.1-2.4,3.1-2.4c1.3,0,2.4,0.1,3.4,0.4l-0.3,1.2c-1.4-0.3-2.4-0.4-3-0.4
				c-1.5,0-1.7,0.8-1.7,1.1c0,0.5,0.3,1,1.8,1.3c1.8,0.4,3.3,0.9,3.3,2.6C1171.8,121.9,1170.7,122.8,1168.7,122.8z"/>
		</g>
		<g>
			<path class="st0" d="M1071.1,133.5l-0.2-1.2c1.2-0.2,2.3-0.4,3.3-0.4c2,0,3.1,0.6,3.1,2.8v5.9h-1.5v-0.9c0,0,0,0,0,0
				c-0.8,0.7-1.6,1-2.7,1c-1.7,0-2.7-1-2.7-2.5c0-1.9,1.6-2.6,3.6-2.6h1.9v-0.8c0-1.1-0.6-1.6-2-1.6
				C1073.1,133.2,1072.3,133.3,1071.1,133.5z M1075.7,136.6h-1.8c-1.6,0-2.1,0.6-2.1,1.5c0,0.9,0.7,1.4,1.8,1.4c1,0,1.7-0.4,2.1-0.7
				V136.6z"/>
			<path class="st0" d="M1081,140.6h-1.5v-8.5h1.5v1.2h0c0.8-0.8,1.8-1.4,3-1.4c1.7,0,2.5,1,2.5,2.8v5.9h-1.5v-5.5
				c0-1.1-0.4-1.9-1.7-1.9c-1,0-1.9,0.6-2.4,1V140.6z"/>
			<path class="st0" d="M1094.3,139.8C1094.3,139.8,1094.3,139.8,1094.3,139.8c-0.6,0.6-1.6,1-2.6,1c-2.4,0-3.1-2-3.1-4.4
				s0.9-4.4,3.2-4.4c1,0,1.9,0.4,2.5,1c0,0,0,0,0,0v-4.2h1.5v11.9h-1.5V139.8z M1092.3,139.5c0.9,0,1.7-0.4,2-0.7V134
				c-0.4-0.3-1.1-0.7-2-0.7c-1.7,0-2.1,1.4-2.1,3.1S1090.6,139.5,1092.3,139.5z"/>
			<path class="st0" d="M1106,128.9c1.3,0,2.5,0.2,4,0.6l-0.4,1.4c-1.8-0.4-2.6-0.5-3.5-0.5c-2.7,0-3.3,2-3.3,4.4
				c0,2.6,0.7,4.6,3.3,4.6c0.9,0,1.8-0.1,3.5-0.5l0.4,1.4c-1.4,0.4-2.7,0.6-4,0.6c-4,0-4.9-2.7-4.9-6
				C1101.1,131.5,1102.1,128.9,1106,128.9z"/>
			<path class="st0" d="M1111.4,136.4c0-2.6,1.1-4.4,3.9-4.4c2.8,0,3.9,1.8,3.9,4.4s-1.1,4.4-3.9,4.4
				C1112.4,140.8,1111.4,139,1111.4,136.4z M1113,136.4c0,1.8,0.5,3.1,2.3,3.1c1.8,0,2.3-1.4,2.3-3.1s-0.5-3.1-2.3-3.1
				C1113.5,133.2,1113,134.6,1113,136.4z"/>
			<path class="st0" d="M1122.7,140.6h-1.5v-8.5h1.5v1.2h0c0.7-0.7,1.6-1.4,2.8-1.4c1.2,0,2,0.5,2.3,1.5c0.8-0.9,1.9-1.5,3-1.5
				c1.7,0,2.5,1,2.5,2.8v5.9h-1.5v-5.5c0-1.1-0.5-1.9-1.7-1.9c-0.9,0-1.6,0.6-2.2,1c0,0.3,0.1,0.6,0.1,0.9v5.5h-1.5V135
				c0-1.1-0.5-1.8-1.7-1.8c-0.9,0-1.6,0.6-2.1,1V140.6z"/>
			<path class="st0" d="M1137.1,140.6h-1.5v-8.5h1.5v1.2h0c0.7-0.7,1.6-1.4,2.8-1.4c1.2,0,2,0.5,2.3,1.5c0.8-0.9,1.9-1.5,3-1.5
				c1.7,0,2.5,1,2.5,2.8v5.9h-1.5v-5.5c0-1.1-0.5-1.9-1.7-1.9c-0.9,0-1.6,0.6-2.2,1c0,0.3,0.1,0.6,0.1,0.9v5.5h-1.5V135
				c0-1.1-0.5-1.8-1.7-1.8c-0.9,0-1.6,0.6-2.1,1V140.6z"/>
			<path class="st0" d="M1155.6,132.1h1.5v8.5h-1.5v-1.2h0c-0.8,0.8-1.8,1.4-3,1.4c-1.7,0-2.5-1-2.5-2.8v-5.9h1.5v5.5
				c0,1.1,0.5,1.9,1.7,1.9c1,0,1.9-0.6,2.4-1V132.1z"/>
			<path class="st0" d="M1160.8,140.6h-1.5v-8.5h1.5v1.2h0c0.8-0.8,1.8-1.4,3-1.4c1.7,0,2.5,1,2.5,2.8v5.9h-1.5v-5.5
				c0-1.1-0.4-1.9-1.7-1.9c-1,0-1.9,0.6-2.4,1V140.6z"/>
			<path class="st0" d="M1170.1,129.1v2.1h-1.5v-2.1H1170.1z M1170.1,132.1v8.5h-1.5v-8.5H1170.1z"/>
			<path class="st0" d="M1172.9,133.2h-1.3v-1l1.3-0.1l0.2-2.4h1.3v2.4h2.4v1.1h-2.4v4.7c0,1.1,0.3,1.7,1.4,1.7c0.2,0,0.5,0,0.9-0.1
				l0.2,1.2c-0.5,0.1-1.1,0.1-1.5,0.1c-1.8,0-2.5-0.7-2.5-2.6V133.2z"/>
			<path class="st0" d="M1178.5,132.1h1.7l2.5,7h0l2.3-7h1.6l-3.2,9c-0.8,2.2-1.8,3.1-3.4,3.1c-0.4,0-0.9-0.1-1.3-0.1l0.1-1.3
				c0.3,0.1,0.6,0.1,0.8,0.1c1.1,0,1.8-1.1,2.1-2.1L1178.5,132.1z"/>
		</g>
		<g>
			<path class="st0" d="M1083.5,147.1v10.1h5.7v1.4h-7.3v-11.6H1083.5z"/>
			<path class="st0" d="M1092.3,154.6c0.1,1.7,0.8,2.9,2.8,2.9c0.8,0,1.7,0,2.7-0.3l0.2,1.2c-1.1,0.3-2,0.4-3.1,0.4
				c-3.1,0-4.2-1.8-4.2-4.4s1.1-4.4,4.2-4.4c2.6,0,3.3,1.5,3.4,3c0.1,0.5,0,1.1-0.1,1.7H1092.3z M1092.3,153.7h4.3
				c0.1-0.3,0.1-0.6,0.1-0.9c-0.1-0.9-0.6-1.6-1.9-1.6C1093,151.1,1092.4,152.2,1092.3,153.7z"/>
			<path class="st0" d="M1100.4,151.5l-0.2-1.2c1.2-0.2,2.3-0.4,3.3-0.4c2,0,3.1,0.6,3.1,2.8v5.9h-1.5v-0.9c0,0,0,0,0,0
				c-0.8,0.7-1.6,1-2.7,1c-1.7,0-2.7-1-2.7-2.5c0-1.9,1.6-2.6,3.6-2.6h1.9v-0.8c0-1.1-0.6-1.6-2-1.6
				C1102.4,151.2,1101.6,151.3,1100.4,151.5z M1105,154.6h-1.8c-1.6,0-2.1,0.6-2.1,1.5c0,0.9,0.7,1.4,1.8,1.4c1,0,1.7-0.4,2.1-0.7
				V154.6z"/>
			<path class="st0" d="M1110.3,158.6h-1.5v-8.5h1.5v1.4h0c0.7-0.8,1.8-1.5,3.2-1.5v1.4c-1.3,0-2.5,0.5-3.2,1V158.6z"/>
			<path class="st0" d="M1116.7,158.6h-1.5v-8.5h1.5v1.2h0c0.8-0.8,1.8-1.4,3-1.4c1.7,0,2.5,1,2.5,2.8v5.9h-1.5v-5.5
				c0-1.1-0.4-1.9-1.7-1.9c-1,0-1.9,0.6-2.4,1V158.6z"/>
			<path class="st0" d="M1126,147.1v2.1h-1.5v-2.1H1126z M1126,150.1v8.5h-1.5v-8.5H1126z"/>
			<path class="st0" d="M1129.7,158.6h-1.5v-8.5h1.5v1.2h0c0.8-0.8,1.8-1.4,3-1.4c1.7,0,2.5,1,2.5,2.8v5.9h-1.5v-5.5
				c0-1.1-0.4-1.9-1.7-1.9c-1,0-1.9,0.6-2.4,1V158.6z"/>
			<path class="st0" d="M1138.2,158.1c-0.5-0.3-0.7-0.7-0.6-1.2c0-0.6,0.4-1.2,1.1-1.6v0c-0.8-0.4-1.4-1.3-1.4-2.4
				c0-1.9,1.3-2.9,3.5-2.9c0.5,0,0.8,0.1,1.2,0.2h3v0.9h-1.6c0.7,0.5,0.8,1.2,0.8,1.8c0,1.9-1.4,2.8-3.3,2.8c-0.5,0-1-0.1-1.2-0.2
				c-0.1,0.1-0.3,0.3-0.3,0.5c-0.3,0.5-0.2,1.1,0.5,1.1l3.1,0.2c1.8,0.1,2.5,0.8,2.5,2c0,2-1.5,3-4.9,3c-2.3,0-3.5-0.7-3.5-2.2
				C1136.7,159.2,1137.2,158.6,1138.2,158.1L1138.2,158.1z M1140.5,161.2c1.6,0,3-0.5,3-1.7c0-0.5-0.3-1-1.4-1l-3.1-0.2
				c-0.5,0.4-1,0.7-1,1.4C1138,160.7,1138.9,161.2,1140.5,161.2z M1142.7,152.8c0-1.1-0.8-1.9-2-1.9c-1.3,0-2,0.7-2,1.9
				c0,1.2,0.8,1.8,2,1.8C1141.9,154.6,1142.7,154,1142.7,152.8z"/>
			<path class="st0" d="M1150.5,151.5l-0.2-1.2c1.2-0.2,2.3-0.4,3.3-0.4c2,0,3.1,0.6,3.1,2.8v5.9h-1.5v-0.9c0,0,0,0,0,0
				c-0.8,0.7-1.6,1-2.7,1c-1.7,0-2.7-1-2.7-2.5c0-1.9,1.6-2.6,3.6-2.6h1.9v-0.8c0-1.1-0.6-1.6-2-1.6
				C1152.5,151.2,1151.7,151.3,1150.5,151.5z M1155.1,154.6h-1.8c-1.6,0-2.1,0.6-2.1,1.5c0,0.9,0.7,1.4,1.8,1.4c1,0,1.7-0.4,2.1-0.7
				V154.6z"/>
			<path class="st0" d="M1160.4,158.6h-1.5v-8.5h1.5v1.2h0c0.8-0.8,1.8-1.4,3-1.4c1.7,0,2.5,1,2.5,2.8v5.9h-1.5v-5.5
				c0-1.1-0.4-1.9-1.7-1.9c-1,0-1.9,0.6-2.4,1V158.6z"/>
			<path class="st0" d="M1173.7,157.8C1173.7,157.8,1173.7,157.8,1173.7,157.8c-0.6,0.6-1.6,1-2.6,1c-2.4,0-3.1-2-3.1-4.4
				s0.9-4.4,3.2-4.4c1,0,1.9,0.4,2.5,1c0,0,0,0,0,0v-4.2h1.5v11.9h-1.5V157.8z M1171.7,157.5c0.9,0,1.7-0.4,2-0.7V152
				c-0.4-0.3-1.1-0.7-2-0.7c-1.7,0-2.1,1.4-2.1,3.1S1170,157.5,1171.7,157.5z"/>
		</g>
		<g>
			<path class="st0" d="M1079.5,176.6v-11.6h4.1c3.8,0,4.9,2.5,4.9,5.7c0,3.3-1.1,5.9-4.9,5.9H1079.5z M1083.6,175.2
				c2.6,0,3.2-2,3.2-4.4c0-2.5-0.6-4.2-3.2-4.2h-2.5v8.7H1083.6z"/>
			<path class="st0" d="M1092,172.6c0.1,1.7,0.8,2.9,2.8,2.9c0.8,0,1.7,0,2.7-0.3l0.2,1.2c-1.1,0.3-2,0.4-3.1,0.4
				c-3.1,0-4.2-1.8-4.2-4.4s1.1-4.4,4.2-4.4c2.6,0,3.3,1.5,3.4,3c0.1,0.5,0,1.1-0.1,1.7H1092z M1092,171.7h4.3
				c0.1-0.3,0.1-0.6,0.1-0.9c-0.1-0.9-0.6-1.6-1.9-1.6C1092.7,169.1,1092.1,170.2,1092,171.7z"/>
			<path class="st0" d="M1102.3,176.7l-3.1-8.6h1.7l2.4,6.9h0l2.4-6.9h1.6l-3.2,8.6H1102.3z"/>
			<path class="st0" d="M1110.1,172.6c0.1,1.7,0.8,2.9,2.8,2.9c0.8,0,1.7,0,2.7-0.3l0.2,1.2c-1.1,0.3-2,0.4-3.1,0.4
				c-3.1,0-4.2-1.8-4.2-4.4s1.1-4.4,4.2-4.4c2.6,0,3.3,1.5,3.4,3c0.1,0.5,0,1.1-0.1,1.7H1110.1z M1110.1,171.7h4.3
				c0.1-0.3,0.1-0.6,0.1-0.9c-0.1-0.9-0.6-1.6-1.9-1.6C1110.8,169.1,1110.2,170.2,1110.1,171.7z"/>
			<path class="st0" d="M1117.9,164.7h1.5v11.9h-1.5V164.7z"/>
			<path class="st0" d="M1121.3,172.4c0-2.6,1.1-4.4,3.9-4.4c2.8,0,3.9,1.8,3.9,4.4s-1.1,4.4-3.9,4.4
				C1122.4,176.8,1121.3,175,1121.3,172.4z M1123,172.4c0,1.8,0.5,3.1,2.3,3.1c1.8,0,2.3-1.4,2.3-3.1s-0.5-3.1-2.3-3.1
				C1123.5,169.2,1123,170.6,1123,172.4z"/>
			<path class="st0" d="M1132.6,169L1132.6,169c0.6-0.6,1.6-1,2.6-1c2.4,0,3.1,2,3.1,4.4s-0.8,4.4-3.2,4.4c-1,0-1.9-0.4-2.5-1h0v4.2
				h-1.5v-11.9h1.5V169z M1134.6,169.2c-0.9,0-1.7,0.4-2,0.7v4.8c0.3,0.3,1.1,0.7,2,0.7c1.6,0,2.1-1.4,2.1-3.1
				S1136.3,169.2,1134.6,169.2z"/>
			<path class="st0" d="M1141.9,176.6h-1.5v-8.5h1.5v1.2h0c0.7-0.7,1.6-1.4,2.8-1.4c1.2,0,2,0.5,2.3,1.5c0.8-0.9,1.9-1.5,3-1.5
				c1.7,0,2.5,1,2.5,2.8v5.9h-1.5v-5.5c0-1.1-0.5-1.9-1.7-1.9c-0.9,0-1.6,0.6-2.2,1c0,0.3,0.1,0.6,0.1,0.9v5.5h-1.5V171
				c0-1.1-0.5-1.8-1.7-1.8c-0.9,0-1.6,0.6-2.1,1V176.6z"/>
			<path class="st0" d="M1156.2,172.6c0.1,1.7,0.8,2.9,2.8,2.9c0.8,0,1.7,0,2.7-0.3l0.2,1.2c-1.1,0.3-2,0.4-3.1,0.4
				c-3.1,0-4.2-1.8-4.2-4.4s1.1-4.4,4.2-4.4c2.6,0,3.3,1.5,3.4,3c0.1,0.5,0,1.1-0.1,1.7H1156.2z M1156.2,171.7h4.3
				c0.1-0.3,0.1-0.6,0.1-0.9c-0.1-0.9-0.6-1.6-1.9-1.6C1156.9,169.1,1156.3,170.2,1156.2,171.7z"/>
			<path class="st0" d="M1165.5,176.6h-1.5v-8.5h1.5v1.2h0c0.8-0.8,1.8-1.4,3-1.4c1.7,0,2.5,1,2.5,2.8v5.9h-1.5v-5.5
				c0-1.1-0.4-1.9-1.7-1.9c-1,0-1.9,0.6-2.4,1V176.6z"/>
			<path class="st0" d="M1173.8,169.2h-1.3v-1l1.3-0.1l0.2-2.4h1.3v2.4h2.4v1.1h-2.4v4.7c0,1.1,0.3,1.7,1.4,1.7c0.2,0,0.5,0,0.9-0.1
				l0.2,1.2c-0.5,0.1-1.1,0.1-1.5,0.1c-1.8,0-2.5-0.7-2.5-2.6V169.2z"/>
		</g>
		<g>
			<path class="st0" d="M1011.8,32.7v4.6h-1.6V25.7h4.8c2.3,0,3.6,1.4,3.6,3.5c0,2.1-1.3,3.5-3.6,3.5H1011.8z M1011.8,31.2h3
				c1.3,0,2.1-0.6,2.1-2c0-1.3-0.8-2-2.1-2h-3V31.2z"/>
			<path class="st0" d="M1021.8,37.3h-1.5v-8.5h1.5v1.4h0c0.7-0.8,1.8-1.5,3.2-1.5V30c-1.3,0-2.5,0.5-3.2,1V37.3z"/>
			<path class="st0" d="M1028,33.3c0.1,1.7,0.8,2.9,2.8,2.9c0.8,0,1.7,0,2.7-0.3l0.2,1.2c-1.1,0.3-2,0.4-3.1,0.4
				c-3.1,0-4.2-1.8-4.2-4.4s1.1-4.4,4.2-4.4c2.6,0,3.3,1.5,3.4,3c0.1,0.5,0,1.1-0.1,1.7H1028z M1028,32.3h4.3
				c0.1-0.3,0.1-0.6,0.1-0.9c-0.1-0.9-0.6-1.6-1.9-1.6C1028.7,29.8,1028.1,30.9,1028,32.3z"/>
			<path class="st0" d="M1042.5,32.1v1.3h-6.6v-1.3H1042.5z"/>
			<path class="st0" d="M1047.8,37.4c-1.3,0-2.6-0.1-3.7-0.4l0.3-1.2c1.4,0.3,2.6,0.4,3.2,0.4c1.6,0,1.8-0.9,1.8-1.3
				c0-0.6-0.4-1-1.9-1.3c-1.8-0.3-3.2-0.9-3.2-2.7c0-1.6,1.1-2.4,3.1-2.4c1.3,0,2.4,0.1,3.4,0.4l-0.3,1.2c-1.4-0.3-2.4-0.4-3-0.4
				c-1.5,0-1.7,0.8-1.7,1.1c0,0.5,0.3,1,1.8,1.3c1.8,0.4,3.3,0.9,3.3,2.6C1050.9,36.5,1049.8,37.4,1047.8,37.4z"/>
			<path class="st0" d="M1056.7,28.6c1.1,0,1.9,0.1,2.9,0.4l-0.3,1.2c-1.4-0.3-2-0.3-2.6-0.3c-1.8,0-2.5,1.3-2.5,3.1
				c0,1.9,0.8,3.1,2.5,3.1c0.6,0,1.2,0,2.6-0.3l0.3,1.2c-1,0.3-1.8,0.4-2.9,0.4c-3.1,0-4.2-1.8-4.2-4.4S1053.6,28.6,1056.7,28.6z"/>
			<path class="st0" d="M1062.6,37.3h-1.5V25.4h1.5v4.6h0c0.8-0.8,1.8-1.4,3-1.4c1.7,0,2.5,1,2.5,2.8v5.9h-1.5v-5.5
				c0-1.1-0.4-1.9-1.7-1.9c-1,0-1.9,0.6-2.4,1V37.3z"/>
			<path class="st0" d="M1070.1,33c0-2.6,1.1-4.4,3.9-4.4c2.8,0,3.9,1.8,3.9,4.4s-1.1,4.4-3.9,4.4
				C1071.2,37.4,1070.1,35.6,1070.1,33z M1071.7,33c0,1.8,0.5,3.1,2.3,3.1c1.8,0,2.3-1.4,2.3-3.1s-0.5-3.1-2.3-3.1
				C1072.3,29.9,1071.7,31.2,1071.7,33z"/>
			<path class="st0" d="M1079.6,33c0-2.6,1.1-4.4,3.9-4.4c2.8,0,3.9,1.8,3.9,4.4s-1.1,4.4-3.9,4.4
				C1080.7,37.4,1079.6,35.6,1079.6,33z M1081.2,33c0,1.8,0.5,3.1,2.3,3.1c1.8,0,2.3-1.4,2.3-3.1s-0.5-3.1-2.3-3.1
				C1081.7,29.9,1081.2,31.2,1081.2,33z"/>
			<path class="st0" d="M1089.4,25.4h1.5v11.9h-1.5V25.4z"/>
		</g>
		<g>
			<path class="st0" d="M1010.5,48.2l-0.2-1.2c1.2-0.2,2.3-0.4,3.3-0.4c2,0,3.1,0.6,3.1,2.8v5.9h-1.5v-0.9c0,0,0,0,0,0
				c-0.8,0.7-1.6,1-2.7,1c-1.7,0-2.7-1-2.7-2.5c0-1.9,1.6-2.6,3.6-2.6h1.9v-0.8c0-1.1-0.6-1.6-2-1.6
				C1012.6,47.9,1011.8,47.9,1010.5,48.2z M1015.2,51.3h-1.8c-1.6,0-2.1,0.6-2.1,1.5c0,0.9,0.7,1.4,1.8,1.4c1,0,1.7-0.4,2.1-0.7
				V51.3z"/>
			<path class="st0" d="M1020.4,55.3h-1.5v-8.5h1.5V48h0c0.8-0.8,1.8-1.4,3-1.4c1.7,0,2.5,1,2.5,2.8v5.9h-1.5v-5.5
				c0-1.1-0.4-1.9-1.7-1.9c-1,0-1.9,0.6-2.4,1V55.3z"/>
			<path class="st0" d="M1033.7,54.4C1033.7,54.4,1033.7,54.4,1033.7,54.4c-0.6,0.6-1.6,1-2.6,1c-2.4,0-3.1-2-3.1-4.4
				s0.9-4.4,3.2-4.4c1,0,1.9,0.4,2.5,1c0,0,0,0,0,0v-4.2h1.5v11.9h-1.5V54.4z M1031.7,54.2c0.9,0,1.7-0.4,2-0.7v-4.8
				c-0.4-0.3-1.1-0.7-2-0.7c-1.7,0-2.1,1.4-2.1,3.1S1030,54.2,1031.7,54.2z"/>
			<path class="st0" d="M1043.9,55.4c-1.3,0-2.6-0.1-3.7-0.4l0.3-1.2c1.4,0.3,2.6,0.4,3.2,0.4c1.6,0,1.8-0.9,1.8-1.3
				c0-0.6-0.4-1-1.9-1.3c-1.8-0.3-3.2-0.9-3.2-2.7c0-1.6,1.1-2.4,3.1-2.4c1.3,0,2.4,0.1,3.4,0.4l-0.3,1.2c-1.4-0.3-2.4-0.4-3-0.4
				c-1.5,0-1.7,0.8-1.7,1.1c0,0.5,0.3,1,1.8,1.3c1.8,0.4,3.3,0.9,3.3,2.6C1047,54.5,1045.9,55.4,1043.9,55.4z"/>
			<path class="st0" d="M1052.8,46.6c1.1,0,1.9,0.1,2.9,0.4l-0.3,1.2c-1.4-0.3-2-0.3-2.6-0.3c-1.8,0-2.5,1.3-2.5,3.1
				c0,1.9,0.8,3.1,2.5,3.1c0.6,0,1.2,0,2.6-0.3l0.3,1.2c-1,0.3-1.8,0.4-2.9,0.4c-3.1,0-4.2-1.8-4.2-4.4S1049.7,46.6,1052.8,46.6z"/>
			<path class="st0" d="M1058.7,55.3h-1.5V43.4h1.5V48h0c0.8-0.8,1.8-1.4,3-1.4c1.7,0,2.5,1,2.5,2.8v5.9h-1.5v-5.5
				c0-1.1-0.4-1.9-1.7-1.9c-1,0-1.9,0.6-2.4,1V55.3z"/>
			<path class="st0" d="M1066.3,51c0-2.6,1.1-4.4,3.9-4.4c2.8,0,3.9,1.8,3.9,4.4s-1.1,4.4-3.9,4.4
				C1067.3,55.4,1066.3,53.6,1066.3,51z M1067.9,51c0,1.8,0.5,3.1,2.3,3.1c1.8,0,2.3-1.4,2.3-3.1s-0.5-3.1-2.3-3.1
				C1068.4,47.9,1067.9,49.2,1067.9,51z"/>
			<path class="st0" d="M1075.7,51c0-2.6,1.1-4.4,3.9-4.4c2.8,0,3.9,1.8,3.9,4.4s-1.1,4.4-3.9,4.4
				C1076.8,55.4,1075.7,53.6,1075.7,51z M1077.4,51c0,1.8,0.5,3.1,2.3,3.1c1.8,0,2.3-1.4,2.3-3.1s-0.5-3.1-2.3-3.1
				C1077.9,47.9,1077.4,49.2,1077.4,51z"/>
			<path class="st0" d="M1085.5,43.4h1.5v11.9h-1.5V43.4z"/>
			<path class="st0" d="M1092.4,55.4c-1.3,0-2.6-0.1-3.7-0.4l0.3-1.2c1.4,0.3,2.6,0.4,3.2,0.4c1.6,0,1.8-0.9,1.8-1.3
				c0-0.6-0.4-1-1.9-1.3c-1.8-0.3-3.2-0.9-3.2-2.7c0-1.6,1.1-2.4,3.1-2.4c1.3,0,2.4,0.1,3.4,0.4l-0.3,1.2c-1.4-0.3-2.4-0.4-3-0.4
				c-1.5,0-1.7,0.8-1.7,1.1c0,0.5,0.3,1,1.8,1.3c1.8,0.4,3.3,0.9,3.3,2.6C1095.5,54.5,1094.4,55.4,1092.4,55.4z"/>
		</g>
		<g>
			<path class="st0" d="M1.6,396.7v4.6H0v-11.6h4.8c2.3,0,3.6,1.4,3.6,3.5c0,2.1-1.3,3.5-3.6,3.5H1.6z M1.6,395.3h3
				c1.3,0,2.1-0.6,2.1-2c0-1.3-0.8-2-2.1-2h-3V395.3z"/>
			<path class="st0" d="M15.8,392.8h1.5v8.5h-1.5v-1.2h0c-0.8,0.8-1.8,1.4-3,1.4c-1.7,0-2.5-1-2.5-2.8v-5.9h1.5v5.5
				c0,1.1,0.5,1.9,1.7,1.9c1,0,1.9-0.6,2.4-1V392.8z"/>
			<path class="st0" d="M21,393.6L21,393.6c0.6-0.6,1.6-1,2.6-1c2.4,0,3.1,2,3.1,4.4c0,2.5-0.9,4.4-3.2,4.4c-1,0-2-0.4-2.6-1h0
				l-0.3,0.8h-1.2v-11.9H21V393.6z M23.1,393.9c-0.9,0-1.7,0.4-2,0.7v4.8c0.3,0.3,1.1,0.7,2,0.7c1.6,0,2.1-1.4,2.1-3.1
				C25.2,395.3,24.7,393.9,23.1,393.9z"/>
			<path class="st0" d="M28.7,389.4h1.5v11.9h-1.5V389.4z"/>
			<path class="st0" d="M34,389.7v2.1h-1.5v-2.1H34z M34,392.8v8.5h-1.5v-8.5H34z"/>
			<path class="st0" d="M40.1,392.6c1.1,0,1.9,0.1,2.9,0.4l-0.3,1.2c-1.4-0.3-2-0.3-2.6-0.3c-1.8,0-2.5,1.3-2.5,3.1
				c0,1.9,0.8,3.1,2.5,3.1c0.6,0,1.2,0,2.6-0.3l0.3,1.2c-1,0.3-1.8,0.4-2.9,0.4c-3.1,0-4.2-1.8-4.2-4.4S36.9,392.6,40.1,392.6z"/>
			<path class="st0" d="M48.1,394.2l-0.2-1.2c1.2-0.2,2.3-0.4,3.3-0.4c2,0,3.1,0.6,3.1,2.8v5.9h-1.5v-0.8c0,0,0,0,0,0
				c-0.8,0.7-1.6,1-2.7,1c-1.7,0-2.7-1-2.7-2.5c0-1.9,1.6-2.6,3.6-2.6h1.9v-0.8c0-1.1-0.6-1.6-2-1.6C50.2,393.9,49.4,394,48.1,394.2
				z M52.8,397.3H51c-1.6,0-2.1,0.6-2.1,1.5c0,0.9,0.7,1.4,1.8,1.4c1,0,1.7-0.4,2.1-0.7V397.3z"/>
			<path class="st0" d="M58,401.3h-1.5v-8.5H58v1.2h0c0.8-0.8,1.8-1.4,3-1.4c1.7,0,2.5,1,2.5,2.8v5.9h-1.5v-5.5
				c0-1.1-0.4-1.9-1.7-1.9c-1,0-1.9,0.6-2.4,1V401.3z"/>
			<path class="st0" d="M71.3,400.4C71.3,400.4,71.3,400.4,71.3,400.4c-0.6,0.6-1.6,1-2.6,1c-2.4,0-3.1-2-3.1-4.4
				c0-2.5,0.8-4.4,3.2-4.4c1,0,1.9,0.4,2.5,1c0,0,0,0,0,0v-4.2h1.5v11.9h-1.5V400.4z M69.3,400.2c0.9,0,1.7-0.4,2-0.7v-4.8
				c-0.4-0.3-1.1-0.7-2-0.7c-1.7,0-2.1,1.4-2.1,3.1C67.2,398.7,67.6,400.2,69.3,400.2z"/>
		</g>
		<g>
			<path class="st0" d="M18.9,411.6L18.9,411.6c0.6-0.6,1.6-1,2.6-1c2.4,0,3.1,2,3.1,4.4c0,2.5-0.9,4.4-3.2,4.4c-1,0-1.9-0.4-2.5-1
				h0v4.2h-1.5v-11.9h1.5V411.6z M21,411.9c-0.9,0-1.7,0.4-2,0.7v4.8c0.3,0.3,1.1,0.7,2,0.7c1.6,0,2.1-1.4,2.1-3.1
				C23.1,413.3,22.6,411.9,21,411.9z"/>
			<path class="st0" d="M27.1,412.2l-0.2-1.2c1.2-0.2,2.3-0.4,3.3-0.4c2,0,3.1,0.6,3.1,2.8v5.9h-1.5v-0.8c0,0,0,0,0,0
				c-0.8,0.7-1.6,1-2.7,1c-1.7,0-2.7-1-2.7-2.5c0-1.9,1.6-2.6,3.6-2.6h1.9v-0.8c0-1.1-0.6-1.6-2-1.6C29.1,411.9,28.3,412,27.1,412.2
				z M31.7,415.3h-1.8c-1.6,0-2.1,0.6-2.1,1.5c0,0.9,0.7,1.4,1.8,1.4c1,0,1.7-0.4,2.1-0.7V415.3z"/>
			<path class="st0" d="M37,419.3h-1.5v-8.5H37v1.4h0c0.7-0.8,1.8-1.5,3.2-1.5v1.4c-1.3,0-2.5,0.5-3.2,1V419.3z"/>
			<path class="st0" d="M43.1,415.3c0.1,1.7,0.8,2.9,2.8,2.9c0.8,0,1.7,0,2.7-0.3l0.2,1.2c-1.1,0.3-2,0.4-3.1,0.4
				c-3.1,0-4.2-1.8-4.2-4.4s1.1-4.4,4.2-4.4c2.6,0,3.3,1.5,3.4,3c0.1,0.5,0,1.1-0.1,1.7H43.1z M43.1,414.3h4.3
				c0.1-0.3,0.1-0.6,0.1-0.9c-0.1-0.9-0.6-1.6-1.9-1.6C43.9,411.8,43.2,412.9,43.1,414.3z"/>
			<path class="st0" d="M52.4,419.3h-1.5v-8.5h1.5v1.2h0c0.8-0.8,1.8-1.4,3-1.4c1.7,0,2.5,1,2.5,2.8v5.9h-1.5v-5.5
				c0-1.1-0.4-1.9-1.7-1.9c-1,0-1.9,0.6-2.4,1V419.3z"/>
			<path class="st0" d="M60.8,411.9h-1.3v-1l1.3-0.1l0.2-2.4h1.3v2.4h2.4v1.1h-2.4v4.7c0,1.1,0.3,1.7,1.4,1.7c0.2,0,0.5,0,0.9-0.1
				l0.2,1.2c-0.5,0.1-1.1,0.1-1.5,0.1c-1.8,0-2.5-0.7-2.5-2.6V411.9z"/>
			<path class="st0" d="M70,419.5c-1.3,0-2.6-0.1-3.7-0.4l0.3-1.2c1.4,0.3,2.6,0.4,3.2,0.4c1.6,0,1.8-0.9,1.8-1.3
				c0-0.6-0.4-1-1.9-1.3c-1.8-0.3-3.2-0.9-3.2-2.7c0-1.6,1.1-2.4,3.1-2.4c1.3,0,2.4,0.1,3.4,0.4l-0.3,1.2c-1.4-0.3-2.4-0.4-3-0.4
				c-1.5,0-1.7,0.8-1.7,1.1c0,0.5,0.3,1,1.8,1.3c1.8,0.4,3.3,0.9,3.3,2.6C73.2,418.6,72,419.5,70,419.5z"/>
		</g>
		<g>
			<path class="st0" d="M43.4,162.1v10.1H49v1.4h-7.3v-11.6H43.4z"/>
			<path class="st0" d="M52.2,169.6c0.1,1.7,0.8,2.9,2.8,2.9c0.8,0,1.7,0,2.7-0.3l0.2,1.2c-1.1,0.3-2,0.4-3.1,0.4
				c-3.1,0-4.2-1.8-4.2-4.4s1.1-4.4,4.2-4.4c2.6,0,3.3,1.5,3.4,3c0.1,0.5,0,1.1-0.1,1.7H52.2z M52.2,168.7h4.3
				c0.1-0.3,0.1-0.6,0.1-0.9c-0.1-0.9-0.6-1.6-1.9-1.6C52.9,166.2,52.3,167.2,52.2,168.7z"/>
			<path class="st0" d="M60.2,166.6l-0.2-1.2c1.2-0.2,2.3-0.4,3.3-0.4c2,0,3.1,0.6,3.1,2.8v5.9h-1.5v-0.9c0,0,0,0,0,0
				c-0.8,0.7-1.6,1-2.7,1c-1.7,0-2.7-1-2.7-2.5c0-1.9,1.6-2.6,3.6-2.6h1.9v-0.8c0-1.1-0.6-1.6-2-1.6
				C62.3,166.2,61.5,166.3,60.2,166.6z M64.9,169.6h-1.8c-1.6,0-2.1,0.6-2.1,1.5c0,0.9,0.7,1.4,1.8,1.4c1,0,1.7-0.4,2.1-0.7V169.6z"
				/>
			<path class="st0" d="M70.1,173.6h-1.5v-8.5h1.5v1.4h0c0.7-0.8,1.8-1.5,3.2-1.5v1.4c-1.3,0-2.5,0.5-3.2,1V173.6z"/>
			<path class="st0" d="M76.6,173.6H75v-8.5h1.5v1.2h0c0.8-0.8,1.8-1.4,3-1.4c1.7,0,2.5,1,2.5,2.8v5.9h-1.5v-5.5
				c0-1.1-0.4-1.9-1.7-1.9c-1,0-1.9,0.6-2.4,1V173.6z"/>
			<path class="st0" d="M85.7,169.6c0.1,1.7,0.8,2.9,2.8,2.9c0.8,0,1.7,0,2.7-0.3l0.2,1.2c-1.1,0.3-2,0.4-3.1,0.4
				c-3.1,0-4.2-1.8-4.2-4.4s1.1-4.4,4.2-4.4c2.6,0,3.3,1.5,3.4,3c0.1,0.5,0,1.1-0.1,1.7H85.7z M85.7,168.7H90
				c0.1-0.3,0.1-0.6,0.1-0.9c-0.1-0.9-0.6-1.6-1.9-1.6C86.4,166.2,85.8,167.2,85.7,168.7z"/>
			<path class="st0" d="M95,173.6h-1.5v-8.5H95v1.4h0c0.7-0.8,1.8-1.5,3.2-1.5v1.4c-1.3,0-2.5,0.5-3.2,1V173.6z"/>
			<path class="st0" d="M103.3,173.8c-1.3,0-2.6-0.1-3.7-0.4l0.3-1.2c1.4,0.3,2.6,0.4,3.2,0.4c1.6,0,1.8-0.9,1.8-1.3
				c0-0.6-0.4-1-1.9-1.3c-1.8-0.3-3.2-0.9-3.2-2.7c0-1.6,1.1-2.4,3.1-2.4c1.3,0,2.4,0.1,3.4,0.4l-0.3,1.2c-1.4-0.3-2.4-0.4-3-0.4
				c-1.5,0-1.7,0.8-1.7,1.1c0,0.5,0.3,1,1.8,1.3c1.8,0.4,3.3,0.9,3.3,2.6C106.5,172.9,105.3,173.8,103.3,173.8z"/>
		</g>
		<g>
			<path class="st0" d="M301.8,477.5v10.1h-1.6v-10.1H297v-1.4h8v1.4H301.8z"/>
			<path class="st0" d="M307,483.6c0.1,1.7,0.8,2.9,2.8,2.9c0.8,0,1.7,0,2.7-0.3l0.2,1.2c-1.1,0.3-2,0.4-3.1,0.4
				c-3.1,0-4.2-1.8-4.2-4.4s1.1-4.4,4.2-4.4c2.6,0,3.3,1.5,3.4,3c0.1,0.5,0,1.1-0.1,1.7H307z M307,482.7h4.3
				c0.1-0.3,0.1-0.6,0.1-0.9c-0.1-0.9-0.6-1.6-1.9-1.6C307.7,480.2,307.1,481.2,307,482.7z"/>
			<path class="st0" d="M315,480.6l-0.2-1.2c1.2-0.2,2.3-0.4,3.3-0.4c2,0,3.1,0.6,3.1,2.8v5.9h-1.5v-0.8c0,0,0,0,0,0
				c-0.8,0.7-1.6,1-2.7,1c-1.7,0-2.7-1-2.7-2.5c0-1.9,1.6-2.6,3.6-2.6h1.9v-0.8c0-1.1-0.6-1.6-2-1.6
				C317.1,480.2,316.3,480.3,315,480.6z M319.7,483.6h-1.8c-1.6,0-2.1,0.6-2.1,1.5c0,0.9,0.7,1.4,1.8,1.4c1,0,1.7-0.4,2.1-0.7V483.6
				z"/>
			<path class="st0" d="M327.3,479c1.1,0,1.9,0.1,2.9,0.4l-0.3,1.2c-1.4-0.3-2-0.3-2.6-0.3c-1.8,0-2.5,1.3-2.5,3.1
				c0,1.9,0.8,3.1,2.5,3.1c0.6,0,1.2,0,2.6-0.3l0.3,1.2c-1,0.3-1.8,0.4-2.9,0.4c-3.1,0-4.2-1.8-4.2-4.4S324.2,479,327.3,479z"/>
			<path class="st0" d="M333.3,487.6h-1.5v-11.9h1.5v4.6h0c0.8-0.8,1.8-1.4,3-1.4c1.7,0,2.5,1,2.5,2.8v5.9h-1.5v-5.5
				c0-1.1-0.4-1.9-1.7-1.9c-1,0-1.9,0.6-2.4,1V487.6z"/>
			<path class="st0" d="M342.4,483.6c0.1,1.7,0.8,2.9,2.8,2.9c0.8,0,1.7,0,2.7-0.3l0.2,1.2c-1.1,0.3-2,0.4-3.1,0.4
				c-3.1,0-4.2-1.8-4.2-4.4s1.1-4.4,4.2-4.4c2.6,0,3.3,1.5,3.4,3c0.1,0.5,0,1.1-0.1,1.7H342.4z M342.4,482.7h4.3
				c0.1-0.3,0.1-0.6,0.1-0.9c-0.1-0.9-0.6-1.6-1.9-1.6C343.2,480.2,342.5,481.2,342.4,482.7z"/>
			<path class="st0" d="M351.7,487.6h-1.5v-8.5h1.5v1.4h0c0.7-0.8,1.8-1.5,3.2-1.5v1.4c-1.3,0-2.5,0.5-3.2,1V487.6z"/>
			<path class="st0" d="M360,487.8c-1.3,0-2.6-0.1-3.7-0.4l0.3-1.2c1.4,0.3,2.6,0.4,3.2,0.4c1.6,0,1.8-0.9,1.8-1.3
				c0-0.6-0.4-1-1.9-1.3c-1.8-0.3-3.2-0.9-3.2-2.7c0-1.6,1.1-2.4,3.1-2.4c1.3,0,2.4,0.1,3.4,0.4l-0.3,1.2c-1.4-0.3-2.4-0.4-3-0.4
				c-1.5,0-1.7,0.8-1.7,1.1c0,0.5,0.3,1,1.8,1.3c1.8,0.4,3.3,0.9,3.3,2.6C363.2,486.9,362,487.8,360,487.8z"/>
		</g>
		<line class="st1" x1="430.8" y1="462.3" x2="144.8" y2="403.5"/>
		<line class="st2" x1="654.4" y1="349" x2="431" y2="463.2"/>
		<line class="st3" x1="144.6" y1="407.7" x2="686.4" y2="344.8"/>
		<line class="st4" x1="428.3" y1="454.9" x2="428.9" y2="215.9"/>
		<line class="st5" x1="654.6" y1="352" x2="1122.3" y2="248.7"/>
		<line class="st6" x1="143.9" y1="428.6" x2="86.9" y2="208.3"/>
		<line class="st7" x1="139" y1="428" x2="511.9" y2="208.9"/>
		<line class="st7" x1="75.2" y1="236.9" x2="412.5" y2="231.3"/>
		<line class="st8" x1="82.1" y1="242.5" x2="661.9" y2="355.4"/>
		<line class="st9" x1="411.8" y1="228.3" x2="892.8" y2="231.6"/>
		<line class="st1" x1="652.3" y1="66.7" x2="892.8" y2="232.2"/>
		<line class="st10" x1="654.4" y1="66" x2="940.6" y2="58.7"/>
		<line class="st11" x1="940.6" y1="57.8" x2="1129.9" y2="248.9"/>
		<line class="st12" x1="892.8" y1="231.3" x2="1129.5" y2="250.5"/>
		<line class="st13" x1="654.4" y1="350.2" x2="1014.2" y2="394.5"/>
		<line class="st14" x1="655" y1="66.9" x2="1130.5" y2="249.6"/>
		<line class="st15" x1="651.8" y1="66.9" x2="1015.1" y2="399.8"/>
		<line class="st16" x1="1015.1" y1="394.5" x2="1129.5" y2="248.9"/>
		<line class="st17" x1="412.5" y1="229.4" x2="654.3" y2="349.3"/>
		<line class="st18" x1="419.1" y1="229.4" x2="654.4" y2="66"/>
		<line class="st19" x1="75.2" y1="242.5" x2="661.9" y2="66.2"/>
		<line class="st20" x1="654.4" y1="350.2" x2="892.7" y2="233"/>
		<line class="st21" x1="1014.3" y1="394.5" x2="892.7" y2="230"/>
		<line class="st22" x1="653.1" y1="349.3" x2="654" y2="66.9"/>
		<line class="st23" x1="892" y1="232.2" x2="939.9" y2="57.1"/>
		<line class="st24" x1="1015.7" y1="395.5" x2="939.9" y2="58.7"/>
		<line class="st9" x1="1014.2" y1="395.7" x2="412.5" y2="229.4"/>
		<line class="st25" x1="412.5" y1="233.3" x2="940.8" y2="58.7"/>
		<g>
			<path class="st26" d="M710.6,65.9c0,30.9-25.1,56-56,56c-30.9,0-56-25.1-56-56c0-30.9,25.1-56,56-56
				C685.6,9.9,710.6,34.9,710.6,65.9"/>
			<path class="st27" d="M673.4,66.8l-0.1,0.2c-0.1,0.1-0.2,0.3-0.2,0.4c-0.1,0.1-0.2,0.3-0.3,0.4l-0.1,0.2
				c-2.9,4.7-7.4,8.3-12.6,10.2c-0.4,0.2-0.9,0.3-1.3,0.4c-5.8,1.7-11.9,1.1-17.3-1.5l24.2-41.9c5.2,3.5,8.7,8.8,10.1,14.8
				c0.1,0.4,0.2,0.9,0.3,1.4C676.8,56.8,675.9,62.1,673.4,66.8 M679.4,50.9c-0.1-0.6-0.2-1.1-0.3-1.6c-1.6-7.1-5.7-13.1-11.7-17.1
				c-0.2-0.1-0.4-0.3-0.6-0.4l-0.2-0.1l0,0c-1.2-0.7-2.7-0.3-3.4,0.9l-25.3,43.7c-0.7,1.2-0.3,2.7,0.9,3.4l0.2,0.1
				c0.1,0,0.1,0.1,0.2,0.1l0.1,0.1c0.1,0,0.1,0.1,0.2,0.1c3.3,1.7,6.8,2.6,10.4,2.9v11.9h3.5V83c2.1-0.1,4.2-0.5,6.2-1
				c0.5-0.1,1-0.3,1.5-0.5c6-2.1,11.1-6.2,14.4-11.6l0.1-0.2c0.1-0.2,0.2-0.3,0.3-0.5c0.1-0.2,0.2-0.4,0.3-0.5l0.1-0.2
				C679.4,63.1,680.4,57,679.4,50.9"/>
			<path class="st28" d="M632.8,43.5c2.7-4.4,6.7-7.5,11.2-9.2c0.4-0.2,0.8-0.3,1.2-0.4c5.3-1.7,11.2-1.4,16.6,1.2
				c0.2,0.1,0.3,0.2,0.5,0.2c0.2,0.1,0.3,0.2,0.5,0.3c0.2,0.1,0.4,0.2,0.6,0.3s0.4,0.2,0.6,0.3c0,0,0.1,0.1,0.1,0.1
				c0.2,0.1,0.3,0.2,0.5,0.3c5,3.3,8.3,8.4,9.6,13.9c0.1,0.4,0.2,0.9,0.2,1.3c0.8,4.7,0,9.8-2.4,14.3c-0.1,0.2-0.2,0.4-0.3,0.6
				c-0.1,0.2-0.2,0.4-0.3,0.6c-2.8,4.6-7,7.8-11.7,9.5c-0.4,0.1-0.8,0.3-1.2,0.4c-5.3,1.5-11.2,1.1-16.4-1.6c-0.1,0-0.2-0.1-0.3-0.1
				c-0.1,0-0.2-0.1-0.3-0.1c-0.2-0.1-0.4-0.2-0.6-0.3c-0.2-0.1-0.4-0.2-0.6-0.3c-0.2-0.1-0.4-0.2-0.5-0.3c-0.1-0.1-0.2-0.1-0.3-0.2
				c-4.8-3.2-7.9-8-9.2-13.2c-0.1-0.4-0.2-0.9-0.3-1.3c-0.9-4.9-0.2-10.2,2.3-14.9c0.1-0.2,0.2-0.4,0.3-0.6
				C632.6,43.8,632.7,43.7,632.8,43.5"/>
			<path class="st29" d="M642,50.3l9.1,5.3l-4.3,7.5c-2.6-1.4-5.4-2.5-8.1-3.1C639.2,56.7,640.3,53.4,642,50.3 M638.6,61.3
				c2.6,0.6,5.1,1.5,7.6,2.9l-5.5,9.5C638.9,70.1,638.2,65.7,638.6,61.3 M648,63.7l4.3-7.5l8.8,5.1c-1.8,3-4.1,5.6-6.6,7.6
				C652.6,66.9,650.5,65.2,648,63.7 M647.3,64.8c2.3,1.4,4.4,3.1,6.1,4.9c-3.5,2.6-7.5,4.1-11.5,4.4L647.3,64.8z M661.8,60.2
				l-8.8-5.1l3.9-6.8c2.6,1.4,5.3,2.4,8,3C664.3,54.3,663.3,57.3,661.8,60.2 M665,50c-2.5-0.6-5.1-1.5-7.5-2.9l5.6-9.8
				C664.9,41.1,665.6,45.5,665,50 M662.2,36.5l-5.8,10c-2.5-1.5-4.6-3.3-6.4-5.3C653.7,38.4,658,36.8,662.2,36.5 M648.9,42
				c1.9,2.1,4.2,4,6.8,5.6l-3.9,6.8l-9.1-5.3C644.4,46.3,646.6,43.9,648.9,42 M640.9,49.6c-1.8,3.3-3,6.7-3.5,10.1
				c-2.6-0.4-5.1-0.5-7.6-0.2c0.1,0.4,0.2,0.9,0.3,1.3c2.3-0.3,4.7-0.2,7.1,0.2c-0.5,4.6,0.3,9.1,2.1,13c0.1,0.1,0.2,0.1,0.3,0.2
				c0.2,0.1,0.3,0.2,0.5,0.3c0.2,0.1,0.4,0.2,0.6,0.3c0.2,0.1,0.4,0.2,0.6,0.3c0.1,0,0.2,0.1,0.3,0.1c0.1,0,0.2,0.1,0.3,0.1
				c4.3-0.3,8.6-2,12.4-4.8c1.7,2,3,4.1,4,6.3c0.4-0.1,0.8-0.3,1.2-0.4c-1-2.4-2.4-4.6-4.2-6.7c2.6-2.1,5-4.8,6.9-8l9,5.2
				c0.1-0.2,0.2-0.4,0.3-0.6c0.1-0.2,0.2-0.4,0.3-0.6l-9-5.2c1.6-3,2.7-6.1,3.2-9.3c2.8,0.5,5.6,0.5,8.2,0.2
				c-0.1-0.4-0.1-0.9-0.2-1.3c-2.5,0.3-5.1,0.3-7.8-0.2c0.6-4.9-0.1-9.7-2.1-13.8c0-0.1-0.1-0.2-0.1-0.3c0,0-0.1-0.1-0.1-0.1
				c-0.2-0.1-0.4-0.2-0.6-0.3c-0.2-0.1-0.4-0.2-0.6-0.3c-0.2-0.1-0.3-0.2-0.5-0.3c-0.1,0-0.2,0-0.3,0c-4.5,0.3-8.9,2-12.9,5
				c-1.6-2-2.9-4.2-3.9-6.4c-0.4,0.1-0.8,0.3-1.2,0.4c1,2.4,2.3,4.7,4.1,6.8c-2.5,2-4.7,4.5-6.5,7.5l-8.7-5
				c-0.1,0.2-0.2,0.4-0.3,0.6s-0.2,0.4-0.3,0.6L640.9,49.6z"/>
			<path class="st30" d="M662,94.9h-2.3v-1.3c0-0.8-0.5-1.5-1-1.5h-14c-0.6,0-1,0.7-1,1.5v1.3h-2.3c-0.8,0-1.5,0.7-1.5,1.5v2.5
				c0,0.8,0.7,1.5,1.5,1.5H662c0.8,0,1.5-0.7,1.5-1.5v-2.5C663.5,95.5,662.8,94.9,662,94.9"/>
			<path class="st26" d="M951.5,231.3c0,32.6-26.3,59-58.7,59s-58.7-26.4-58.7-59s26.3-59,58.7-59S951.5,198.7,951.5,231.3"/>
		</g>
		<path class="st31" d="M901.8,214.3V254h-26.3L901.8,214.3z M909.2,189.7l-0.3,0.5l-0.4,0.6l-0.5,0.7l-0.4,0.6l-0.5,0.7l-0.4,0.6
			l-45.5,68.8h48.1v-68.8v-0.6v-0.7v-0.6v-0.7v-0.6V189.7z"/>
		<rect x="906.4" y="261" class="st32" width="2.8" height="0.6"/>
		<rect x="906.4" y="259.6" class="st32" width="2.8" height="0.6"/>
		<rect x="906.4" y="258.2" class="st32" width="2.8" height="0.6"/>
		<rect x="906.4" y="256.9" class="st32" width="2.8" height="0.6"/>
		<rect x="906.4" y="255.5" class="st32" width="2.8" height="0.6"/>
		<rect x="906.4" y="254.1" class="st32" width="2.8" height="0.6"/>
		<rect x="906.4" y="252.8" class="st32" width="2.8" height="0.6"/>
		<rect x="906.4" y="251.4" class="st32" width="2.8" height="0.6"/>
		<rect x="906.4" y="250.1" class="st32" width="2.8" height="0.6"/>
		<rect x="906.4" y="248.7" class="st32" width="2.8" height="0.6"/>
		<rect x="906.4" y="247.3" class="st32" width="2.8" height="0.6"/>
		<rect x="906.4" y="246" class="st32" width="2.8" height="0.6"/>
		<rect x="906.4" y="244.6" class="st32" width="2.8" height="0.6"/>
		<rect x="906.4" y="243.3" class="st32" width="2.8" height="0.6"/>
		<rect x="906.4" y="241.9" class="st32" width="2.8" height="0.6"/>
		<rect x="906.4" y="240.5" class="st32" width="2.8" height="0.6"/>
		<rect x="906.4" y="239.2" class="st32" width="2.8" height="0.6"/>
		<rect x="906.4" y="237.8" class="st32" width="2.8" height="0.6"/>
		<rect x="906.4" y="236.5" class="st32" width="2.8" height="0.6"/>
		<rect x="906.4" y="235.1" class="st32" width="2.8" height="0.6"/>
		<rect x="906.4" y="233.7" class="st32" width="2.8" height="0.6"/>
		<rect x="906.4" y="232.4" class="st32" width="2.8" height="0.6"/>
		<rect x="906.4" y="231" class="st32" width="2.8" height="0.6"/>
		<rect x="906.4" y="229.7" class="st32" width="2.8" height="0.6"/>
		<rect x="906.4" y="228.3" class="st32" width="2.8" height="0.6"/>
		<rect x="906.4" y="226.9" class="st32" width="2.8" height="0.6"/>
		<rect x="906.4" y="225.6" class="st32" width="2.8" height="0.6"/>
		<rect x="906.4" y="224.2" class="st32" width="2.8" height="0.6"/>
		<rect x="906.4" y="222.9" class="st32" width="2.8" height="0.6"/>
		<rect x="906.4" y="221.5" class="st32" width="2.8" height="0.6"/>
		<rect x="906.4" y="220.1" class="st32" width="2.8" height="0.6"/>
		<rect x="906.4" y="218.8" class="st32" width="2.8" height="0.6"/>
		<rect x="906.4" y="217.4" class="st32" width="2.8" height="0.6"/>
		<rect x="906.4" y="216.1" class="st32" width="2.8" height="0.6"/>
		<rect x="906.4" y="214.7" class="st32" width="2.8" height="0.6"/>
		<rect x="906.4" y="213.3" class="st32" width="2.8" height="0.6"/>
		<rect x="906.4" y="212" class="st32" width="2.8" height="0.6"/>
		<rect x="906.4" y="210.6" class="st32" width="2.8" height="0.6"/>
		<rect x="906.4" y="209.3" class="st32" width="2.8" height="0.6"/>
		<rect x="906.4" y="207.9" class="st32" width="2.8" height="0.6"/>
		<rect x="906.4" y="206.5" class="st32" width="2.8" height="0.6"/>
		<rect x="906.4" y="205.2" class="st32" width="2.8" height="0.6"/>
		<rect x="906.4" y="203.8" class="st32" width="2.8" height="0.6"/>
		<rect x="906.4" y="202.5" class="st32" width="2.8" height="0.6"/>
		<rect x="906.4" y="201.1" class="st32" width="2.8" height="0.6"/>
		<rect x="906.4" y="199.7" class="st32" width="2.8" height="0.6"/>
		<rect x="906.4" y="198.4" class="st32" width="2.8" height="0.6"/>
		<rect x="906.4" y="197" class="st32" width="2.8" height="0.6"/>
		<rect x="906.4" y="195.7" class="st32" width="2.8" height="0.6"/>
		<rect x="906.4" y="194.3" class="st32" width="2.8" height="0.6"/>
		<polygon class="st32" points="907,192.9 906.6,193.6 909.2,193.6 909.2,192.9 		"/>
		<polygon class="st32" points="907.9,191.6 907.5,192.2 909.2,192.2 909.2,191.6 		"/>
		<polygon class="st32" points="908.8,190.2 908.4,190.8 909.2,190.8 909.2,190.2 		"/>
		<g>
			<path class="st33" d="M1184.5,248.7c0,32.4-26.3,58.7-58.7,58.7s-58.7-26.3-58.7-58.7s26.3-58.7,58.7-58.7
				S1184.5,216.3,1184.5,248.7"/>
			<path class="st34" d="M1158.8,222.5c-3.7-4.9-10.6-5.9-15.4-2.2c-4.4,3.3-5.6,9.2-3.2,13.9l2.2,2.9c3.8,3.6,9.8,4.1,14.2,0.8
				C1161.4,234.3,1162.4,227.4,1158.8,222.5"/>
			<path class="st35" d="M1136.3,236.4l2.2,3l3.6-2c0.1,0,0.1-0.1,0.2-0.1c0,0,0.1-0.1,0.1-0.1l-2.2-2.9L1136.3,236.4z"/>
			<path class="st36" d="M1136.3,236.4c-2.1-2.1-4.9-3.4-7.7-3.6c0,0,0,0,0-0.1l-3.7,0.4c-1.6,0.4-3.1,1.1-4.5,2.1
				c-1.8,1.3-3.1,3-3.9,4.9l-0.9,3.6c-0.3,2.9,0.5,5.8,2.4,8.3c1.9,2.6,4.7,4.1,7.6,4.6l3.7,0c1.9-0.3,3.8-1,5.5-2.3
				c4.7-3.5,6.1-9.9,3.5-15L1136.3,236.4z"/>
			<path class="st35" d="M1115.4,269.4l-4.3,1l0.7,3.6l4.4-1c0.1,0,0.1,0,0.1-0.1l-0.8-3.6C1115.5,269.4,1115.4,269.4,1115.4,269.4"
				/>
			<path class="st35" d="M1125.7,257.7l3.7,0.3c0-0.1,0-0.3,0-0.4l0-0.9l-3.7,0L1125.7,257.7z"/>
			<path class="st34" d="M1135.4,262.1c-1.5-2.1-3.7-3.4-6-4l-3.7-0.3c-2,0.2-4,0.9-5.8,2.2c-3.1,2.3-4.6,5.9-4.4,9.5l0.8,3.6
				c0.3,0.8,0.8,1.6,1.4,2.4c3.7,4.9,10.6,5.9,15.4,2.2C1138,273.8,1139,266.9,1135.4,262.1"/>
			<path class="st36" d="M1110,268.5c-3-4-8.8-4.8-12.8-1.8c-4,3-4.8,8.8-1.8,12.8c3,4,8.8,4.8,12.8,1.8c2.4-1.8,3.6-4.5,3.6-7.3
				l-0.7-3.6C1110.8,269.7,1110.5,269.1,1110,268.5"/>
			<path class="st35" d="M1128.5,232.5l-0.3-2.5l-3.7,0.6l0.3,2.4c0,0,0,0,0,0.1l3.7-0.4C1128.5,232.7,1128.5,232.6,1128.5,232.5"/>
			<path class="st37" d="M1131.7,217.5c-2.7-3.6-7.8-4.3-11.4-1.6s-4.3,7.8-1.6,11.4c1.5,2,3.7,3.1,5.9,3.2l3.7-0.6
				c0.6-0.3,1.3-0.6,1.8-1C1133.7,226.3,1134.4,221.1,1131.7,217.5"/>
			<path class="st35" d="M1112.8,239.3c-0.1,0-0.1,0-0.2,0l-0.7,3.6c0,0,0.1,0,0.1,0l3.6,0.7l0.9-3.6L1112.8,239.3z"/>
			<path class="st37" d="M1110.5,232.4c-3.7-4.9-10.6-5.9-15.4-2.2c-4.9,3.7-5.9,10.6-2.2,15.4c3.7,4.9,10.6,5.9,15.4,2.2
				c1.7-1.3,3-3,3.7-4.9l0.7-3.6C1112.7,236.9,1112,234.4,1110.5,232.4"/>
			<path class="st33" d="M999.9,58.7c0,32.4-26.3,58.7-58.7,58.7s-58.7-26.3-58.7-58.7c0-32.4,26.3-58.7,58.7-58.7
				S999.9,26.3,999.9,58.7"/>
			<path class="st37" d="M925,22.7c-0.1-0.3-0.5-0.3-0.6,0l-3.1,6.9h6.8L925,22.7z"/>
			<path class="st31" d="M928.1,29.7h-6.8L918,37c-0.1,0.2,0.2,0.5,0.4,0.5h6.3h6.3c0.3,0,0.5-0.3,0.4-0.5L928.1,29.7z"/>
			<path class="st38" d="M922.4,37.8c0-1.2-1-2.3-2.3-2.3h0c-1.2,0-2.3,1-2.3,2.3V95h4.6V37.8z"/>
			<path class="st39" d="M927,95V37.8c0-1.2-1-2.3-2.3-2.3h0c-1.2,0-2.3,1-2.3,2.3V95H927z"/>
			<path class="st40" d="M931.5,95V37.8c0-1.2-1-2.3-2.3-2.3h0c-1.2,0-2.3,1-2.3,2.3V95H931.5z"/>
			<path class="st41" d="M941.8,22.7c-0.1-0.3-0.5-0.3-0.6,0l-3.1,6.9h6.8L941.8,22.7z"/>
			<path class="st31" d="M944.8,29.7H938l-3.3,7.4c-0.1,0.2,0.2,0.5,0.4,0.5h6.3h6.3c0.3,0,0.5-0.3,0.4-0.5L944.8,29.7z"/>
			<path class="st42" d="M939.2,37.8c0-1.2-1-2.3-2.3-2.3h0c-1.2,0-2.3,1-2.3,2.3V95h4.6V37.8z"/>
			<path class="st43" d="M943.7,95V37.8c0-1.2-1-2.3-2.3-2.3h0c-1.2,0-2.3,1-2.3,2.3V95H943.7z"/>
			<path class="st41" d="M948.3,95V37.8c0-1.2-1-2.3-2.3-2.3h0c-1.2,0-2.3,1-2.3,2.3V95H948.3z"/>
			<path class="st44" d="M957.9,22.7c-0.1-0.3-0.5-0.3-0.6,0l-3.1,6.9h6.8L957.9,22.7z"/>
			<path class="st31" d="M961,29.7h-6.8l-3.3,7.4c-0.1,0.2,0.2,0.5,0.4,0.5h6.3h6.3c0.3,0,0.5-0.3,0.4-0.5L961,29.7z"/>
			<path class="st45" d="M955.3,37.8c0-1.2-1-2.3-2.3-2.3h0c-1.2,0-2.3,1-2.3,2.3V95h4.6V37.8z"/>
			<path class="st46" d="M959.8,95V37.8c0-1.2-1-2.3-2.3-2.3h0c-1.2,0-2.3,1-2.3,2.3V95H959.8z"/>
			<path class="st44" d="M964.4,95V37.8c0-1.2-1-2.3-2.3-2.3h0c-1.2,0-2.3,1-2.3,2.3V95H964.4z"/>
			<path class="st33" d="M713.2,349c0,32.4-26.3,58.7-58.7,58.7s-58.7-26.3-58.7-58.7s26.3-58.7,58.7-58.7S713.2,316.6,713.2,349"/>
			<path class="st47" d="M639.2,379.5c-1.8,0-3.5-0.8-4.5-2.3c-1.1-1.5-1.4-3.3-0.8-5l10.1-32.6c0.4-1.4,1-4.5,1-5.6v-11
				c-0.1-0.3-0.3-0.9-0.8-2.2c-0.2-0.6-0.1-1.2,0.3-1.6c0.4-0.5,0.9-0.7,1.5-0.7h16.9c0.6,0,1.1,0.3,1.5,0.7
				c0.3,0.5,0.5,1.1,0.3,1.6c-0.4,1.3-0.7,1.9-0.8,2.2v11c0,1.1,0.6,4.2,1,5.6l10.1,32.6c0.5,1.7,0.2,3.6-0.8,5
				c-1.1,1.5-2.7,2.3-4.5,2.3H639.2z"/>
			<path class="st48" d="M635.8,371.9c-0.9,2.9,1.3,5.9,4.4,5.9h28.6c3.1,0,5.3-3,4.4-5.9l-5.6-17.8h-26.2L635.8,371.9z"/>
			<path class="st34" d="M1066.1,391.6c0,32.4-26.3,58.7-58.7,58.7s-58.7-26.3-58.7-58.7s26.3-58.7,58.7-58.7
				S1066.1,359.2,1066.1,391.6"/>
		</g>
		
			<rect x="1032.4" y="419.5" transform="matrix(0.978 -0.2087 0.2087 0.978 -64.8742 225.4908)" class="st47" width="7" height="1.2"/>
		<rect x="982.2" y="420.8" class="st49" width="7" height="1.2"/>
		<g>
			<path class="st33" d="M1044,424.2l-13.7,2.9c-0.8,0.2-1.7-0.4-1.9-1.2l-14.1-66.2c-0.2-0.8,0.4-1.7,1.2-1.9l13.7-2.9
				c0.8-0.2,1.7,0.4,1.9,1.2l14.1,66.2C1045.4,423.2,1044.8,424,1044,424.2"/>
		</g>
		
			<rect x="1018.1" y="369" transform="matrix(0.978 -0.2088 0.2088 0.978 -55.9962 222.615)" class="st47" width="17.2" height="15.2"/>
		<g>
			<path class="st50" d="M992.7,427h-14c-0.9,0-1.6-0.7-1.6-1.6v-67.7c0-0.9,0.7-1.6,1.6-1.6h14c0.9,0,1.6,0.7,1.6,1.6v67.7
				C994.3,426.3,993.6,427,992.7,427"/>
		</g>
		<rect x="977.1" y="369.3" class="st51" width="17.2" height="4.1"/>
		<rect x="977.1" y="376.6" class="st51" width="17.2" height="4.1"/>
		<g>
			<path class="st50" d="M1012.1,427h-14c-0.9,0-1.6-0.7-1.6-1.6v-67.7c0-0.9,0.7-1.6,1.6-1.6h14c0.9,0,1.6,0.7,1.6,1.6v67.7
				C1013.7,426.3,1013,427,1012.1,427"/>
		</g>
		<rect x="996.5" y="369.3" class="st52" width="17.2" height="4.1"/>
		<rect x="996.5" y="383.7" class="st52" width="17.2" height="4.1"/>
		<rect x="996.5" y="398.4" class="st52" width="17.2" height="4.1"/>
		<rect x="1001.6" y="420.8" class="st49" width="7" height="1.2"/>
		<g>
			<path class="st36" d="M134,243c0,32.4-26.3,58.7-58.7,58.7S16.5,275.4,16.5,243s26.3-58.7,58.7-58.7S134,210.5,134,243"/>
			<path class="st39" d="M52.7,273.7H47c-2.7,0-5-2.2-5-5v-12.9c0-2.7,2.2-5,5-5h5.8c2.7,0,5,2.2,5,5v12.9
				C57.7,271.5,55.5,273.7,52.7,273.7"/>
		</g>
		<rect x="42" y="255.9" class="st37" width="13.7" height="2.3"/>
		<g>
			<path class="st39" d="M103.5,273.7h-5.7c-2.8,0-5-2.2-5-5v-12.8c0-2.8,2.2-5,5-5h5.7c2.8,0,5,2.2,5,5v12.8
				C108.5,271.5,106.2,273.7,103.5,273.7"/>
		</g>
		<rect x="94.8" y="255.9" class="st37" width="13.7" height="2.3"/>
		<g>
			<path class="st53" d="M100.2,222.4c-0.1-2.5-2.2-4.4-4.6-4.4h-0.1v9.4c0,5.5-4.5,10-10,10H65.7c-5.5,0-10-4.5-10-10V218
				c-2.2,0.2-4,2-4.2,4.3l-2.9,50.9c-0.2,2.7,2,4.9,4.6,4.9h44.8c2.6,0,4.7-2.2,4.6-4.8L100.2,222.4z"/>
			<path class="st37" d="M70.4,213.4c0-2.8,2.3-5,5-5h0.2c2.8,0,5,2.3,5,5v4.6h2.6v-4.6c0-4.2-3.4-7.6-7.6-7.6h-0.2
				c-4.2,0-7.6,3.4-7.6,7.6v4.6h2.6V213.4z"/>
			<path class="st54" d="M83.2,218h-2.6H70.4h-2.6H56.1c-0.2,0-0.3,0-0.5,0v9.4c0,5.5,4.5,10,10,10h19.7c5.5,0,10-4.5,10-10V218
				H83.2z"/>
			<path class="st37" d="M95.5,218H83.2h-2.6H70.4h-2.6H56.1c-0.2,0-0.3,0-0.5,0v9.4c0,5.5,4.5,10,10,10h19.7c5.5,0,10-4.5,10-10
				V218z M93.6,219.9v7.6c0,4.5-3.7,8.2-8.2,8.2H65.7c-4.5,0-8.2-3.7-8.2-8.2v-7.6h10.4h2.6h10.2h2.6H93.6z"/>
			<path class="st54" d="M67.9,278.2h2.6h10.2h2.6H95c0.2,0,0.3,0,0.5,0V265c0-7.8-4.5-14.1-10-14.1H65.7c-5.5,0-10,6.3-10,14.1
				v13.2H67.9z"/>
			<path class="st37" d="M85.4,250.9H65.7c-5.5,0-10,6.3-10,14.1v13.2h12.2h2.6h10.2h2.6H95c0.2,0,0.3,0,0.5,0V265
				C95.5,257.2,91,250.9,85.4,250.9 M85.4,252.8c2.1,0,4,1.2,5.6,3.3c1.7,2.3,2.6,5.5,2.6,8.9v11.3H83.2h-2.6H70.4h-2.6H57.5V265
				c0-3.4,0.9-6.5,2.6-8.9c1.5-2.2,3.5-3.3,5.6-3.3H85.4z"/>
			<path class="st55" d="M75.2,240.6h-1c-0.1,0-0.2-0.1-0.2-0.2v-2.7c0-0.1,0.1-0.2,0.2-0.2h1c0.1,0,0.2,0.1,0.2,0.2v2.7
				C75.4,240.5,75.3,240.6,75.2,240.6"/>
			<path class="st55" d="M76.8,240.6H76c-0.1,0-0.2-0.1-0.2-0.2v-2.6c0-0.1,0.1-0.2,0.2-0.2h0.9c0.1,0,0.2,0.1,0.2,0.2v2.6
				C77.1,240.5,77,240.6,76.8,240.6"/>
			<path class="st56" d="M144.8,462.3c-32.4,0-58.7-26.3-58.7-58.7c0-32.4,26.3-58.7,58.7-58.7c32.4,0,58.7,26.3,58.7,58.7
				C203.5,436,177.2,462.3,144.8,462.3"/>
			<g>
				<g>
					<defs>
						<rect id="SVGID_1_" x="96.8" y="359.2" width="123" height="123"/>
					</defs>
					<clipPath id="SVGID_2_">
						<use xlink:href="#SVGID_1_"  style="overflow:visible;"/>
					</clipPath>
				</g>
			</g>
			<path class="st57" d="M166.4,368.4c5.4-0.5,11.9,1,14.5,9c1.4,4.1,0.9,7.9,0.4,12.4c-0.9,7.3-0.3,14.4-0.1,19.3
				c-2.5-0.4-5.5-1.2-8.5-2c-1.1,0.9-2.2,1.6-3.4,2.3c-4.2,2.5-6.2,2.5-10.4,0c-1.2-0.7-2.3-1.5-3.4-2.3c-3,0.8-6.5,1.5-9,2
				c0.1-4.8,1-10.9,0.4-19.3c-0.4-4.5-1-8.2,0.4-12.4C149.8,369.2,161.8,366.8,166.4,368.4"/>
			<path class="st58" d="M166.4,368.4c5.4-0.5,11.9,1,14.5,9c1.4,4.1,0.9,7.9,0.4,12.4c-0.9,7.3-0.3,14.4-0.1,19.3
				c-2.5-0.4-5.5-1.2-8.5-2c-1.1,0.9-2.2,1.6-3.4,2.3c-2.1,1.2-3.6,1.8-5.2,1.8V368C164.9,368,165.7,368.2,166.4,368.4"/>
			<path class="st59" d="M155.8,406.2c1.1-1,1.9-2.2,2.2-3.7h6h6c0.3,1.4,1.1,2.7,2.2,3.7l-8.2,5.9L155.8,406.2z"/>
			<path class="st60" d="M164,402.5h6c0.3,1.4,1.1,2.7,2.2,3.7l-8.2,5.9V402.5z"/>
			<path class="st61" d="M140.9,420.3l1.9-7.9c1.1-4,8.4-5.6,12.3-7.1c0.6,0.5,0.5,0.4,1.2,0.8c2.3,1.5,5.1,2.3,7.8,2.3v11.8H140.9z
				"/>
			<path class="st62" d="M187.1,420.3l-1.9-7.9c-1.1-4-8.4-5.6-12.3-7.1c-0.6,0.5-0.5,0.4-1.2,0.8c-2.3,1.5-5.1,2.3-7.8,2.3v11.8
				H187.1z"/>
			<path class="st63" d="M176.3,393.7c1-0.4,1.8-1.8,1.8-3.3c0-1.3-0.6-2.3-1.4-2.5c-0.2,0-0.3-0.1-0.3-0.3c0-0.2,0-0.4-0.1-0.6
				c-0.1-0.8-0.6-1-1.3-1c-2.1,0-6-0.4-7.5-4.7c-2.6,3.4-8.6,4.5-13.8,4.7c-1.3,0.1-1.9,0.6-2,1.5c0,0.1,0,0.2,0,0.3
				c0,0.1-0.1,0.2-0.3,0.2c-0.8,0.2-1.5,1.1-1.5,2.5c0,1.5,0.8,2.9,1.8,3.3c0.1,0,0.2,0.1,0.2,0.3c0.4,1.9,1.3,3.8,2.7,5.5
				c1.4,1.7,3.2,3.1,5.5,4.5c3.4,2,4.5,2,7.9,0c2.3-1.3,4.1-2.8,5.5-4.5c1.4-1.7,2.2-3.5,2.7-5.5
				C176.1,393.8,176.2,393.8,176.3,393.7"/>
			<path class="st59" d="M176.3,393.7c1-0.4,1.8-1.8,1.8-3.3c0-1.3-0.6-2.3-1.4-2.5c-0.2,0-0.3-0.1-0.3-0.3c0-0.2,0-0.4-0.1-0.6
				c-0.1-0.8-0.6-1-1.3-1c-2.1,0-6-0.4-7.5-4.7c-0.9,1.1-2.1,2-3.5,2.6v21.4c1.1,0,2.3-0.5,4-1.5c2.3-1.3,4.1-2.8,5.5-4.5
				c1.4-1.7,2.2-3.5,2.7-5.5C176.1,393.8,176.2,393.8,176.3,393.7"/>
			<path class="st57" d="M113.3,406.9c-1.5-1.7-2.6-5.1-2.2-10.8c0.1-1.5,0.1-3,0.1-4.6c0-1.1,0.3-2.8,0.4-3.1
				c0.4-1.3,2.2-2.5,2.8-3.1c0.2-0.2,0.3-0.3,0-0.2c-0.1,0-0.2,0-0.3,0c-0.2-0.7,4.8-2.7,7.9-2.8c3-1.5,7.3-1.3,11,0
				c1,0.5,0.4,0.4,0,0.4c-0.6,0.2,6.4,1.5,8,4.4c0.4,0.9,0.7,2.3,0.5,3.7c-0.1,1.4,0,4.2,0.2,5.4c0.2,1.9,0.5,3.7,0.3,5.3
				c-0.4,3.6-2.1,5.7-4.2,6.9h-22.3C114.6,408.2,113.9,407.8,113.3,406.9"/>
			<path class="st58" d="M126.7,381.2c2.1-0.1,4.3,0.3,6.3,1.1c1,0.5,0.4,0.4,0,0.4c-0.6,0.2,6.4,1.5,8,4.4c0.4,0.9,0.7,2.3,0.5,3.7
				c-0.1,1.4,0,4.2,0.2,5.4c0.2,1.9,0.5,3.7,0.3,5.3c-0.4,3.6-2.1,5.7-4.2,6.9h-11.1V381.2z"/>
			<path class="st59" d="M118.3,418.3c1.2-1,1.9-2.3,2.3-3.8h6.1h6.1c0.4,1.5,1.1,2.7,2.3,3.8l-8.4,6L118.3,418.3z"/>
			<path class="st60" d="M126.7,414.6h6.1c0.4,1.5,1.1,2.7,2.3,3.8l-8.4,6V414.6z"/>
			<path class="st64" d="M102.4,432.8l2.4-9.3c0.6-2.3,3.2-4.2,5.6-4.6l7-1.4c0.6,0.5,0.6,0.4,1.2,0.9c2.4,1.6,5.2,2.4,8,2.4v12.1
				H102.4z"/>
			<path class="st65" d="M150.9,432.8l-2.4-9.3c-0.6-2.3-3.2-4.2-5.6-4.6l-7-1.4c-0.6,0.5-0.6,0.4-1.2,0.9c-2.4,1.6-5.2,2.4-8,2.4
				v12.1H150.9z"/>
			<path class="st63" d="M121.8,415.6c-4-2.6-6.2-5.4-7.3-9.9c-1.1-0.4-2-1.9-2-3.6c0-1.8,1-3,2.2-2.7c1.3,0.3,1.6,1.5,1.7,2.6
				c0.5,0.1,0.9,0,0.9-0.6c-0.2-2.3,4.9-5.4,3.2-2.9c1.4,0.9,5.8-1.8,6.1-1.7c0.2,0-0.5,1-3.6,2.3c0.8,0.2,1.6,0.3,2.4,0.1
				c2.5-0.4,5.6-1.7,7.4-3.4c1.9-1.8,1-3.3,1.3-3.3c0.1,0,0.4,0.5,1,1.8c0.9,1.8,1.6,4.6,1,6.9c-0.1,0.5,0.6,0.8,1.2,0.6
				c-0.1-0.7,0.4-2.4,1.3-2.6c1.2-0.3,2.2,0.9,2.2,2.7c0,1.7-0.9,3.3-2.1,3.6c-1.1,4.5-3.2,7.2-7.3,9.9
				C128.6,417.4,124.6,417.4,121.8,415.6"/>
			<path class="st59" d="M126.7,399c2.2-0.6,4.7-1.7,6.1-3.1c1.9-1.8,1-3.3,1.3-3.3c0.1,0,0.4,0.5,1,1.8c0.9,1.8,1.6,4.6,1,6.9
				c-0.1,0.5,0.6,0.8,1.2,0.6c-0.1-0.7,0.4-2.4,1.3-2.6c1.2-0.3,2.2,0.9,2.2,2.7c0,1.7-0.9,3.3-2.1,3.6c-1.1,4.5-3.2,7.2-7.3,9.9
				c-1.4,0.9-3,1.3-4.7,1.4V399z"/>
			<path class="st0" d="M414.1,338.6c58.9,0,106.7-47.8,106.7-106.7S473,125.3,414.1,125.3S307.4,173.1,307.4,232
				S355.2,338.6,414.1,338.6"/>
			<path class="st47" d="M380.5,211.5c0-8.1-3.1-17.5-12.8-17.5c-9.8,0-12.5,9.5-12.5,17.5c0,7.6,3.1,17,12.3,17
				C377.3,228.5,380.5,219.7,380.5,211.5 M371.6,241.4c13,1,26.8,1.5,26.8,18.6c0,16.1-15.1,21.4-29,21.4
				c-10.6,0-26.8-3.7-26.8-16.9c0-5.2,4-10.6,9.5-10.6c2.2,0,3.8,0.9,5.4,2.3c-4.2,0.8-6.6,5.1-6.6,9c0,11.1,11.4,13.2,20.3,13.2
				c9,0,18.7-3.8,18.7-14.1c0-12.5-14.1-11.8-22.9-12.3c-8.4-0.3-20.1,0-20.1-11.4c0-6.1,5.8-10.2,11.3-10.9v-0.3
				c-7.4-2.4-13.7-9.4-13.7-17.5c0-13.5,11.5-20.7,24-20.7c5.9,0,11.9,1.8,16.2,5.7c1,1,1.5,1.6,2.2,2.3c3.1,3.4,4.6,7.9,4.6,12.5
				c0,15-11.4,19.3-24.5,20c-3.8,0.1-13.7,0.1-13.7,5.3c0,4.4,7,3.9,9.8,4.2L371.6,241.4z"/>
			<path class="st47" d="M390.5,196.6v-3.4c4.2,0,12.2-3.9,13.9-14.9h3.5v14.9h14.6v3.4h-14.6v36.2c0,5.7,1.1,11.7,7.9,11.7
				c4.5,0,6.8-2.5,9.2-5.7l2.3,1.7c-2.3,6.1-8.7,8.1-14.8,8.1c-9.2,0-15.5-3.6-15.5-13.1v-38.9H390.5z"/>
			<path class="st47" d="M468.4,238.8c-5.4,6.6-14.2,9.8-22.5,9.8c-15.9,0-27.5-11.2-27.5-26.9c0-17.8,13.5-30.6,31.3-30.6
				c5,0,16.6,1.5,16.6,8.5c0,2.3-1.9,4.7-4.2,4.7c-3.1,0-4.7-2.5-5.6-5c-1.5-3.8-2.6-4.8-7.3-4.8c-13.8,0-18,14-18,25.2
				c0,12.2,4,24.9,18.4,24.9c6.4,0,12-3.3,16.1-8L468.4,238.8z"/>
			<path class="st47" d="M414.9,263.6h-0.3c-0.2-1.3-1.4-2.7-2.8-2.7c-0.8,0-1.7,0.4-1.7,1.3c0,2,5.4,2.1,5.4,5.4
				c0,1.9-1.6,3.1-3.4,3.1c-0.8,0-1.3-0.1-2-0.5c-0.2-0.1-0.4-0.1-0.6-0.1c-0.3,0-0.6,0.3-0.8,0.6h-0.3v-3.7h0.3
				c0.2,1.6,1.5,3.2,3.2,3.2c0.9,0,1.8-0.5,1.8-1.5c0-2.3-5.3-2.2-5.3-5.6c0-1.7,1.5-2.8,3.1-2.8c0.7,0,1.2,0.1,1.8,0.5
				c0.2,0.1,0.4,0.2,0.7,0.2c0.4,0,0.4-0.4,0.5-0.7h0.3V263.6z"/>
			<path class="st47" d="M426.2,263.7h-0.3c-0.3-1.6-1.6-2.8-3.2-2.8c-2,0-3.3,1.8-3.3,4.4c0,3.3,1.3,4.6,3.3,4.6
				c1.5,0,2.5-0.8,3.4-1.8v0.9c-1.1,1.2-2.3,1.6-3.9,1.6c-3.3,0-5.4-2.1-5.4-5c0-3,2.5-5.4,5.5-5.4c0.8,0,1.5,0.2,2.2,0.5
				c0.2,0.1,0.6,0.3,0.9,0.3c0.4,0,0.6-0.4,0.6-0.7h0.3V263.7z"/>
			<path class="st47" d="M435.5,265.5c0-1.8-0.3-4.6-2.7-4.6c-2.3,0-2.6,2.9-2.6,4.6c0,1.8,0.3,4.6,2.6,4.6
				C435.2,270.1,435.5,267.2,435.5,265.5 M427.5,265.5c0-3.1,2.3-5.2,5.3-5.2c3,0,5.3,2.1,5.3,5.2c0,3.1-2.3,5.2-5.3,5.2
				C429.8,270.6,427.5,268.5,427.5,265.5"/>
			<path class="st47" d="M444.3,261.1v7.5c0,1.2,0,1.6,1.4,1.6v0.3h-5.2v-0.3c1.4,0,1.4-0.4,1.4-1.6v-7.5h-0.8
				c-1.1,0-1.8,0.4-2.2,2.1h-0.3v-2.7h8.9v2.7h-0.3c-0.4-1.8-1-2.1-2.2-2.1H444.3z"/>
			<path class="st47" d="M457.3,270.4h-8.9v-0.3c1.4,0,1.4-0.4,1.4-1.6v-6.2c0-1.2,0-1.6-1.4-1.6v-0.3h5.3v0.3
				c-1.5,0-1.5,0.4-1.5,1.6v6c0,1.5,0.1,1.5,1.7,1.5c2,0,2.6-0.3,3.4-2.9h0.3L457.3,270.4z"/>
			<path class="st47" d="M462.8,263.6l-1.5,3.4h3L462.8,263.6z M461,267.6l-0.3,0.8c-0.2,0.4-0.3,0.7-0.3,0.9c0,0.7,0.6,0.8,1.3,0.8
				v0.3h-3.3v-0.3c1-0.1,1.5-1.3,1.8-2.1l3.5-7.8h0.2l3.7,8.3c0.3,0.6,0.6,1.6,1.5,1.6v0.3h-4.8v-0.3c0.4,0,1.2,0,1.2-0.5
				c0-0.3-0.1-0.4-0.1-0.6l-0.7-1.5H461z"/>
			<path class="st47" d="M477.7,266.6L477.7,266.6l0-4.6c0-0.8-0.4-1.2-1.4-1.2v-0.3h3.4v0.3c-1,0-1.4,0.4-1.4,1.2v8.6h-0.2
				l-6.7-8.2h0v6.5c0,0.8,0.4,1.2,1.4,1.2v0.3h-3.4v-0.3c1,0,1.4-0.4,1.4-1.2v-7.2c-0.5-0.6-0.7-0.9-1.4-0.9v-0.3h3.5L477.7,266.6z"
				/>
			<path class="st47" d="M484.1,269.2c0,0.6,0.3,0.7,0.8,0.7c2.4,0,2.8-2.4,2.8-4.3c0-3.5-1.5-4.5-3-4.5h-0.6V269.2z M481.7,262.4
				c0-1.2,0-1.6-1.4-1.6v-0.3h4.7c4.5,0,5.4,3.1,5.4,5c0,2.4-1.3,5-5.5,5h-4.6v-0.3c1.4,0,1.4-0.4,1.4-1.6V262.4z"/>
			<path class="st0" d="M489.5,458.6c0,32.4-26.3,58.7-58.7,58.7S372,491,372,458.6s26.3-58.7,58.7-58.7S489.5,426.2,489.5,458.6"/>
			<path class="st66" d="M489.5,458.5L489.5,458.5L489.5,458.5 M489.5,458.5C489.5,458.5,489.5,458.5,489.5,458.5
				C489.5,458.5,489.5,458.5,489.5,458.5 M489.5,458.6L489.5,458.6L489.5,458.6 M489.5,458.6L489.5,458.6L489.5,458.6 M489.5,458.7
				C489.5,458.7,489.5,458.7,489.5,458.7C489.5,458.7,489.5,458.7,489.5,458.7 M489.5,458.7L489.5,458.7L489.5,458.7 M489.5,458.7
				C489.5,458.8,489.5,458.8,489.5,458.7C489.5,458.8,489.5,458.8,489.5,458.7 M489.5,458.8C489.5,458.8,489.5,458.8,489.5,458.8
				C489.5,458.8,489.5,458.8,489.5,458.8 M489.5,458.8C489.5,458.9,489.5,458.9,489.5,458.8C489.5,458.9,489.5,458.9,489.5,458.8
				 M489.5,458.9C489.5,458.9,489.5,458.9,489.5,458.9C489.5,458.9,489.5,458.9,489.5,458.9 M489.5,458.9
				C489.5,459,489.5,459,489.5,458.9C489.5,459,489.5,458.9,489.5,458.9 M489.5,459C489.5,459,489.5,459,489.5,459
				C489.5,459,489.5,459,489.5,459 M489.5,459C489.5,459,489.5,459,489.5,459C489.5,459.1,489.5,459,489.5,459 M489.5,459.1
				C489.5,459.1,489.5,459.1,489.5,459.1C489.5,459.1,489.5,459.1,489.5,459.1 M489.5,459.1C489.5,459.1,489.5,459.1,489.5,459.1
				C489.5,459.2,489.5,459.1,489.5,459.1 M489.5,459.2C489.5,459.2,489.5,459.2,489.5,459.2C489.5,459.2,489.5,459.2,489.5,459.2
				 M489.5,459.2C489.5,459.2,489.5,459.2,489.5,459.2C489.5,459.2,489.5,459.2,489.5,459.2 M489.5,459.3
				C489.5,459.3,489.5,459.3,489.5,459.3C489.5,459.3,489.5,459.3,489.5,459.3 M489.5,459.3C489.5,459.3,489.5,459.3,489.5,459.3
				C489.5,459.3,489.5,459.3,489.5,459.3 M489.5,459.4C489.5,459.4,489.5,459.4,489.5,459.4C489.5,459.4,489.5,459.4,489.5,459.4
				 M489.5,459.4C489.5,459.4,489.5,459.4,489.5,459.4C489.5,459.4,489.5,459.4,489.5,459.4 M489.5,459.5
				C489.5,459.5,489.5,459.5,489.5,459.5C489.5,459.5,489.5,459.5,489.5,459.5 M489.5,459.5C489.5,459.5,489.5,459.5,489.5,459.5
				C489.5,459.5,489.5,459.5,489.5,459.5 M489.5,459.6C489.5,459.6,489.5,459.6,489.5,459.6C489.5,459.6,489.5,459.6,489.5,459.6
				 M489.5,459.6C489.5,459.6,489.5,459.6,489.5,459.6C489.5,459.6,489.5,459.6,489.5,459.6 M489.5,459.6
				C489.5,459.7,489.5,459.7,489.5,459.6C489.5,459.7,489.5,459.7,489.5,459.6 M489.5,459.7C489.5,459.7,489.5,459.7,489.5,459.7
				C489.5,459.7,489.5,459.7,489.5,459.7 M489.5,459.8C489.5,459.8,489.5,459.8,489.5,459.8C489.5,459.8,489.5,459.8,489.5,459.8
				 M489.5,459.8C489.5,459.8,489.5,459.8,489.5,459.8C489.5,459.8,489.5,459.8,489.5,459.8 M489.5,459.8
				C489.5,459.9,489.5,459.9,489.5,459.8C489.5,459.9,489.5,459.8,489.5,459.8 M489.5,459.9C489.5,459.9,489.5,459.9,489.5,459.9
				C489.5,459.9,489.5,459.9,489.5,459.9 M489.5,459.9C489.5,459.9,489.5,459.9,489.5,459.9C489.5,459.9,489.5,459.9,489.5,459.9
				 M489.5,460C489.5,460,489.5,460.1,489.5,460C489.5,460.1,489.5,460,489.5,460 M489.5,460.1C489.5,460.1,489.5,460.1,489.5,460.1
				C489.5,460.1,489.5,460.1,489.5,460.1 M489.5,460.1C489.5,460.1,489.5,460.1,489.5,460.1C489.5,460.1,489.5,460.1,489.5,460.1
				 M489.5,460.2C489.5,460.2,489.5,460.2,489.5,460.2C489.5,460.2,489.5,460.2,489.5,460.2 M489.5,460.2
				C489.5,460.2,489.5,460.2,489.5,460.2C489.5,460.2,489.5,460.2,489.5,460.2 M489.5,460.3C489.5,460.3,489.5,460.3,489.5,460.3
				C489.5,460.3,489.5,460.3,489.5,460.3 M489.5,460.4C489.5,460.4,489.5,460.4,489.5,460.4C489.5,460.4,489.5,460.4,489.5,460.4
				 M489.5,460.4C489.5,460.4,489.5,460.4,489.5,460.4C489.5,460.4,489.5,460.4,489.5,460.4 M489.5,460.5
				C489.5,460.5,489.5,460.5,489.5,460.5C489.5,460.5,489.5,460.5,489.5,460.5 M489.5,460.6C489.5,460.6,489.5,460.6,489.5,460.6
				C489.5,460.6,489.5,460.6,489.5,460.6 M489.5,460.7C489.5,460.7,489.5,460.7,489.5,460.7C489.5,460.7,489.5,460.7,489.5,460.7
				 M489.5,460.7C489.5,460.7,489.5,460.7,489.5,460.7C489.5,460.7,489.5,460.7,489.5,460.7 M489.5,460.7
				C489.5,460.7,489.5,460.7,489.5,460.7C489.5,460.7,489.5,460.7,489.5,460.7 M489.5,460.9C489.5,460.9,489.5,460.9,489.5,460.9
				L489.5,460.9z M489.5,461L489.5,461L489.5,461z"/>
			<g class="st67">
				<g>
					<defs>
						<rect id="SVGID_3_" x="392.6" y="418.6" width="97.9" height="98.1"/>
					</defs>
					<clipPath id="SVGID_4_">
						<use xlink:href="#SVGID_3_"  style="overflow:visible;"/>
					</clipPath>
				</g>
			</g>
			<path class="st66" d="M423.5,496.8l-0.7-5.3c0,0-0.1-3-5.9-1.7c-5.8,1.2-12.2,2.4-15.6-0.7c0,0-1.9-1.3-1.2-4.9
				c0,0,0.7-2.8-0.1-3.8c-0.8-1-2.7-2-1-4.1l-0.7-1.4c0,0-0.6-1.1,0.2-2c0,0,1.8-2.4,0.7-3.5c0,0-2.6-1.5-4.2-1.7
				c0,0-2.2-0.6-1.2-3.4c0,0,4.9-6.5,5.9-8.2c0,0,1.7-1.4,1.3-3.2c-0.4-1.7-4-14.6,6.8-25.1c0,0,8.6-8.3,21.2-8.1
				c7.1,0.1,14.7,1,22.3,6.6c1,0.8,3.6,3.3,4.4,4.5c0,0,11.7,14,3.3,36c-8.4,22-3.8,26.6-4.5,30L423.5,496.8z"/>
			<path class="st39" d="M409.3,437.3c-0.1-0.5-0.2-1-0.2-1.5c0-3.6,2.9-6.4,6.4-6.4c0.9,0,1.7,0.2,2.4,0.5c1-2.3,3.3-4,5.9-4
				c2.2,0,4.1,1.1,5.2,2.7c1.1-1.9,3.2-3.3,5.6-3.3c2.9,0,5.3,1.9,6.2,4.5c1-0.7,2.2-1,3.5-1c3.6,0,6.4,2.9,6.4,6.4
				c0,0.4,0,0.7-0.1,1c0,0,0.1,0,0.1,0c3.6,0,6.4,2.9,6.4,6.4c0,1.7-0.7,3.3-1.7,4.4c1.1,1.2,1.7,2.7,1.7,4.4c0,3.6-2.9,6.4-6.4,6.4
				c-3,0-5.5-2-6.2-4.8c-1.2,1.5-3,2.4-5,2.4c-3.6,0-6.4-2.9-6.4-6.4c0-0.1,0-0.1,0-0.2c-0.5,0.1-1.1,0.2-1.6,0.2
				c-1.9,0-3.7-0.9-4.8-2.2c-1.2,1.3-2.9,2.2-4.8,2.2c-1.8,0-3.4-0.7-4.5-1.9c-1.2,1.2-2.8,1.9-4.5,1.9c-3.6,0-6.4-2.9-6.4-6.4
				C406.4,440.5,407.5,438.5,409.3,437.3"/>
		</g>
		<g>
			<path class="st0" d="M735.5,210.8v4.6h-1.6v-11.6h4.8c2.3,0,3.6,1.4,3.6,3.5c0,2.1-1.3,3.5-3.6,3.5H735.5z M735.5,209.4h3
				c1.3,0,2.1-0.6,2.1-2c0-1.3-0.8-2-2.1-2h-3V209.4z"/>
			<path class="st0" d="M745.6,215.4h-1.5v-8.5h1.5v1.4h0c0.7-0.8,1.8-1.5,3.2-1.5v1.4c-1.3,0-2.5,0.5-3.2,1V215.4z"/>
			<path class="st0" d="M750.1,211.2c0-2.6,1.1-4.4,3.9-4.4c2.8,0,3.9,1.8,3.9,4.4s-1.1,4.4-3.9,4.4
				C751.2,215.6,750.1,213.8,750.1,211.2z M751.7,211.2c0,1.8,0.5,3.1,2.3,3.1c1.8,0,2.3-1.4,2.3-3.1s-0.5-3.1-2.3-3.1
				C752.3,208,751.7,209.4,751.7,211.2z"/>
			<path class="st0" d="M761.9,206.9h2v1.1h-2v7.4h-1.5V208h-1.3v-1l1.3-0.1v-1.1c0-1.6,0.6-2.3,2.5-2.3c0.4,0,0.9,0.1,1.4,0.1
				l-0.2,1.2c-0.4-0.1-0.6-0.1-0.9-0.1c-1,0-1.3,0.3-1.3,1.2V206.9z"/>
			<path class="st0" d="M766.9,211.4c0.1,1.7,0.8,2.9,2.8,2.9c0.8,0,1.7,0,2.7-0.3l0.2,1.2c-1.1,0.3-2,0.4-3.1,0.4
				c-3.1,0-4.2-1.8-4.2-4.4s1.1-4.4,4.2-4.4c2.6,0,3.3,1.5,3.4,3c0.1,0.5,0,1.1-0.1,1.7H766.9z M766.9,210.5h4.3
				c0.1-0.3,0.1-0.6,0.1-0.9c-0.1-0.9-0.6-1.6-1.9-1.6C767.6,207.9,767,209,766.9,210.5z"/>
			<path class="st0" d="M777.9,215.6c-1.3,0-2.6-0.1-3.7-0.4l0.3-1.2c1.4,0.3,2.6,0.4,3.2,0.4c1.6,0,1.8-0.9,1.8-1.3
				c0-0.6-0.4-1-1.9-1.3c-1.8-0.3-3.2-0.9-3.2-2.7c0-1.6,1.1-2.4,3.1-2.4c1.3,0,2.4,0.1,3.4,0.4l-0.3,1.2c-1.4-0.3-2.4-0.4-3-0.4
				c-1.5,0-1.7,0.8-1.7,1.1c0,0.5,0.3,1,1.8,1.3c1.8,0.4,3.3,0.9,3.3,2.6C781.1,214.7,779.9,215.6,777.9,215.6z"/>
			<path class="st0" d="M786.1,215.6c-1.3,0-2.6-0.1-3.7-0.4l0.3-1.2c1.4,0.3,2.6,0.4,3.2,0.4c1.6,0,1.8-0.9,1.8-1.3
				c0-0.6-0.4-1-1.9-1.3c-1.8-0.3-3.2-0.9-3.2-2.7c0-1.6,1.1-2.4,3.1-2.4c1.3,0,2.4,0.1,3.4,0.4l-0.3,1.2c-1.4-0.3-2.4-0.4-3-0.4
				c-1.5,0-1.7,0.8-1.7,1.1c0,0.5,0.3,1,1.8,1.3c1.8,0.4,3.3,0.9,3.3,2.6C789.3,214.7,788.1,215.6,786.1,215.6z"/>
			<path class="st0" d="M792.6,203.9v2.1H791v-2.1H792.6z M792.6,206.9v8.5H791v-8.5H792.6z"/>
			<path class="st0" d="M794.5,211.2c0-2.6,1.1-4.4,3.9-4.4c2.8,0,3.9,1.8,3.9,4.4s-1.1,4.4-3.9,4.4
				C795.6,215.6,794.5,213.8,794.5,211.2z M796.1,211.2c0,1.8,0.5,3.1,2.3,3.1c1.8,0,2.3-1.4,2.3-3.1s-0.5-3.1-2.3-3.1
				C796.6,208,796.1,209.4,796.1,211.2z"/>
			<path class="st0" d="M805.8,215.4h-1.5v-8.5h1.5v1.2h0c0.8-0.8,1.8-1.4,3-1.4c1.7,0,2.5,1,2.5,2.8v5.9h-1.5v-5.5
				c0-1.1-0.4-1.9-1.7-1.9c-1,0-1.9,0.6-2.4,1V215.4z"/>
			<path class="st0" d="M813.9,208.3l-0.2-1.2c1.2-0.2,2.3-0.4,3.3-0.4c2,0,3.1,0.6,3.1,2.8v5.9h-1.5v-0.9c0,0,0,0,0,0
				c-0.8,0.7-1.6,1-2.7,1c-1.7,0-2.7-1-2.7-2.5c0-1.9,1.6-2.6,3.6-2.6h1.9v-0.8c0-1.1-0.6-1.6-2-1.6
				C815.9,208,815.1,208.1,813.9,208.3z M818.5,211.4h-1.8c-1.6,0-2.1,0.6-2.1,1.5c0,0.9,0.7,1.4,1.8,1.4c1,0,1.7-0.4,2.1-0.7V211.4
				z"/>
			<path class="st0" d="M822.2,203.5h1.5v11.9h-1.5V203.5z"/>
		</g>
		<g>
			<path class="st0" d="M706.8,230.5h-4.4l-1,2.9h-1.7l4-11.6h2l3.9,11.6h-1.8L706.8,230.5z M704.7,223.8l-1.9,5.3h3.7L704.7,223.8
				L704.7,223.8z"/>
			<path class="st0" d="M714.9,233.6c-1.3,0-2.6-0.1-3.7-0.4l0.3-1.2c1.4,0.3,2.6,0.4,3.2,0.4c1.6,0,1.8-0.9,1.8-1.3
				c0-0.6-0.4-1-1.9-1.3c-1.8-0.3-3.2-0.9-3.2-2.7c0-1.6,1.1-2.4,3.1-2.4c1.3,0,2.4,0.1,3.4,0.4l-0.3,1.2c-1.4-0.3-2.4-0.4-3-0.4
				c-1.5,0-1.7,0.8-1.7,1.1c0,0.5,0.3,1,1.8,1.3c1.8,0.4,3.3,0.9,3.3,2.6C718,232.7,716.9,233.6,714.9,233.6z"/>
			<path class="st0" d="M723.1,233.6c-1.3,0-2.6-0.1-3.7-0.4l0.3-1.2c1.4,0.3,2.6,0.4,3.2,0.4c1.6,0,1.8-0.9,1.8-1.3
				c0-0.6-0.4-1-1.9-1.3c-1.8-0.3-3.2-0.9-3.2-2.7c0-1.6,1.1-2.4,3.1-2.4c1.3,0,2.4,0.1,3.4,0.4l-0.3,1.2c-1.4-0.3-2.4-0.4-3-0.4
				c-1.5,0-1.7,0.8-1.7,1.1c0,0.5,0.3,1,1.8,1.3c1.8,0.4,3.3,0.9,3.3,2.6C726.2,232.7,725.1,233.6,723.1,233.6z"/>
			<path class="st0" d="M727.8,229.2c0-2.6,1.1-4.4,3.9-4.4c2.8,0,3.9,1.8,3.9,4.4s-1.1,4.4-3.9,4.4
				C728.9,233.6,727.8,231.8,727.8,229.2z M729.4,229.2c0,1.8,0.5,3.1,2.3,3.1c1.8,0,2.3-1.4,2.3-3.1s-0.5-3.1-2.3-3.1
				C729.9,226,729.4,227.4,729.4,229.2z"/>
			<path class="st0" d="M741.5,224.8c1.1,0,1.9,0.1,2.9,0.4l-0.3,1.2c-1.4-0.3-2-0.3-2.6-0.3c-1.8,0-2.5,1.3-2.5,3.1
				c0,1.9,0.8,3.1,2.5,3.1c0.6,0,1.2,0,2.6-0.3l0.3,1.2c-1,0.3-1.8,0.4-2.9,0.4c-3.1,0-4.2-1.8-4.2-4.4S738.3,224.8,741.5,224.8z"/>
			<path class="st0" d="M747.4,221.9v2.1h-1.5v-2.1H747.4z M747.4,224.9v8.5h-1.5v-8.5H747.4z"/>
			<path class="st0" d="M749.9,226.4l-0.2-1.2c1.2-0.2,2.3-0.4,3.3-0.4c2,0,3.1,0.6,3.1,2.8v5.9h-1.5v-0.9c0,0,0,0,0,0
				c-0.8,0.7-1.6,1-2.7,1c-1.7,0-2.7-1-2.7-2.5c0-1.9,1.6-2.6,3.6-2.6h1.9v-0.8c0-1.1-0.6-1.6-2-1.6
				C752,226,751.2,226.1,749.9,226.4z M754.6,229.4h-1.8c-1.6,0-2.1,0.6-2.1,1.5c0,0.9,0.7,1.4,1.8,1.4c1,0,1.7-0.4,2.1-0.7V229.4z"
				/>
			<path class="st0" d="M758.9,226h-1.3v-1l1.3-0.1l0.2-2.4h1.3v2.4h2.4v1.1h-2.4v4.7c0,1.1,0.3,1.7,1.4,1.7c0.2,0,0.5,0,0.9-0.1
				l0.2,1.2c-0.5,0.1-1.1,0.1-1.5,0.1c-1.8,0-2.5-0.7-2.5-2.6V226z"/>
			<path class="st0" d="M766.1,221.9v2.1h-1.5v-2.1H766.1z M766.1,224.9v8.5h-1.5v-8.5H766.1z"/>
			<path class="st0" d="M768,229.2c0-2.6,1.1-4.4,3.9-4.4c2.8,0,3.9,1.8,3.9,4.4s-1.1,4.4-3.9,4.4C769.1,233.6,768,231.8,768,229.2z
				 M769.7,229.2c0,1.8,0.5,3.1,2.3,3.1c1.8,0,2.3-1.4,2.3-3.1s-0.5-3.1-2.3-3.1C770.2,226,769.7,227.4,769.7,229.2z"/>
			<path class="st0" d="M779.3,233.4h-1.5v-8.5h1.5v1.2h0c0.8-0.8,1.8-1.4,3-1.4c1.7,0,2.5,1,2.5,2.8v5.9h-1.5v-5.5
				c0-1.1-0.4-1.9-1.7-1.9c-1,0-1.9,0.6-2.4,1V233.4z"/>
			<path class="st0" d="M790.3,233.6c-1.3,0-2.6-0.1-3.7-0.4l0.3-1.2c1.4,0.3,2.6,0.4,3.2,0.4c1.6,0,1.8-0.9,1.8-1.3
				c0-0.6-0.4-1-1.9-1.3c-1.8-0.3-3.2-0.9-3.2-2.7c0-1.6,1.1-2.4,3.1-2.4c1.3,0,2.4,0.1,3.4,0.4l-0.3,1.2c-1.4-0.3-2.4-0.4-3-0.4
				c-1.5,0-1.7,0.8-1.7,1.1c0,0.5,0.3,1,1.8,1.3c1.8,0.4,3.3,0.9,3.3,2.6C793.4,232.7,792.3,233.6,790.3,233.6z"/>
			<path class="st0" d="M799,226.4l-0.2-1.2c1.2-0.2,2.3-0.4,3.3-0.4c2,0,3.1,0.6,3.1,2.8v5.9h-1.5v-0.9c0,0,0,0,0,0
				c-0.8,0.7-1.6,1-2.7,1c-1.7,0-2.7-1-2.7-2.5c0-1.9,1.6-2.6,3.6-2.6h1.9v-0.8c0-1.1-0.6-1.6-2-1.6C801,226,800.2,226.1,799,226.4z
				 M803.6,229.4h-1.8c-1.6,0-2.1,0.6-2.1,1.5c0,0.9,0.7,1.4,1.8,1.4c1,0,1.7-0.4,2.1-0.7V229.4z"/>
			<path class="st0" d="M808.8,233.4h-1.5v-8.5h1.5v1.2h0c0.8-0.8,1.8-1.4,3-1.4c1.7,0,2.5,1,2.5,2.8v5.9h-1.5v-5.5
				c0-1.1-0.4-1.9-1.7-1.9c-1,0-1.9,0.6-2.4,1V233.4z"/>
			<path class="st0" d="M822.2,232.6C822.2,232.6,822.2,232.6,822.2,232.6c-0.6,0.6-1.6,1-2.6,1c-2.4,0-3.1-2-3.1-4.4
				s0.9-4.4,3.2-4.4c1,0,1.9,0.4,2.5,1c0,0,0,0,0,0v-4.2h1.5v11.9h-1.5V232.6z M820.2,232.3c0.9,0,1.7-0.4,2-0.7v-4.8
				c-0.4-0.3-1.1-0.7-2-0.7c-1.7,0-2.1,1.4-2.1,3.1S818.5,232.3,820.2,232.3z"/>
		</g>
		<g>
			<path class="st0" d="M718,251.6c-1.3,0-2.6-0.1-3.7-0.4l0.3-1.2c1.4,0.3,2.6,0.4,3.2,0.4c1.6,0,1.8-0.9,1.8-1.3
				c0-0.6-0.4-1-1.9-1.3c-1.8-0.3-3.2-0.9-3.2-2.7c0-1.6,1.1-2.4,3.1-2.4c1.3,0,2.4,0.1,3.4,0.4l-0.3,1.2c-1.4-0.3-2.4-0.4-3-0.4
				c-1.5,0-1.7,0.8-1.7,1.1c0,0.5,0.3,1,1.8,1.3c1.8,0.4,3.3,0.9,3.3,2.6C721.1,250.7,720,251.6,718,251.6z"/>
			<path class="st0" d="M728.5,242.9h1.5v8.5h-1.5v-1.2h0c-0.8,0.8-1.8,1.4-3,1.4c-1.7,0-2.5-1-2.5-2.8v-5.9h1.5v5.5
				c0,1.1,0.5,1.9,1.7,1.9c1,0,1.9-0.6,2.4-1V242.9z"/>
			<path class="st0" d="M733.7,243.8L733.7,243.8c0.6-0.6,1.6-1,2.6-1c2.4,0,3.1,2,3.1,4.4c0,2.5-0.8,4.4-3.2,4.4
				c-1,0-1.9-0.4-2.5-1h0v4.2h-1.5v-11.9h1.5V243.8z M735.7,244c-0.9,0-1.7,0.4-2,0.7v4.8c0.3,0.3,1.1,0.7,2,0.7
				c1.6,0,2.1-1.4,2.1-3.1S737.4,244,735.7,244z"/>
			<path class="st0" d="M743,243.8L743,243.8c0.6-0.6,1.6-1,2.6-1c2.4,0,3.1,2,3.1,4.4c0,2.5-0.8,4.4-3.2,4.4c-1,0-1.9-0.4-2.5-1h0
				v4.2h-1.5v-11.9h1.5V243.8z M745,244c-0.9,0-1.7,0.4-2,0.7v4.8c0.3,0.3,1.1,0.7,2,0.7c1.6,0,2.1-1.4,2.1-3.1S746.6,244,745,244z"
				/>
			<path class="st0" d="M750.4,247.2c0-2.6,1.1-4.4,3.9-4.4c2.8,0,3.9,1.8,3.9,4.4c0,2.6-1.1,4.4-3.9,4.4
				C751.5,251.6,750.4,249.8,750.4,247.2z M752.1,247.2c0,1.8,0.5,3.1,2.3,3.1c1.8,0,2.3-1.4,2.3-3.1s-0.5-3.1-2.3-3.1
				C752.6,244,752.1,245.4,752.1,247.2z"/>
			<path class="st0" d="M761.7,251.4h-1.5v-8.5h1.5v1.4h0c0.7-0.8,1.8-1.5,3.2-1.5v1.4c-1.3,0-2.5,0.5-3.2,1V251.4z"/>
			<path class="st0" d="M767.6,244h-1.3v-1l1.3-0.1l0.2-2.4h1.3v2.4h2.4v1.1h-2.4v4.7c0,1.1,0.3,1.7,1.4,1.7c0.2,0,0.5,0,0.9-0.1
				l0.2,1.2c-0.5,0.1-1.1,0.1-1.5,0.1c-1.8,0-2.5-0.7-2.5-2.6V244z"/>
			<path class="st0" d="M778.2,243.8L778.2,243.8c0.6-0.6,1.6-1,2.6-1c2.4,0,3.1,2,3.1,4.4c0,2.5-0.8,4.4-3.2,4.4c-1,0-2-0.4-2.6-1
				h0l-0.3,0.8h-1.2v-11.9h1.5V243.8z M780.2,244c-0.9,0-1.7,0.4-2,0.7v4.8c0.3,0.3,1.1,0.7,2,0.7c1.6,0,2.1-1.4,2.1-3.1
				S781.9,244,780.2,244z"/>
			<path class="st0" d="M785.6,247.2c0-2.6,1.1-4.4,3.9-4.4c2.8,0,3.9,1.8,3.9,4.4c0,2.6-1.1,4.4-3.9,4.4
				C786.7,251.6,785.6,249.8,785.6,247.2z M787.3,247.2c0,1.8,0.5,3.1,2.3,3.1c1.8,0,2.3-1.4,2.3-3.1s-0.5-3.1-2.3-3.1
				C787.8,244,787.3,245.4,787.3,247.2z"/>
			<path class="st0" d="M800.9,250.6C800.9,250.6,800.9,250.6,800.9,250.6c-0.6,0.6-1.6,1-2.6,1c-2.4,0-3.1-2-3.1-4.4
				c0-2.5,0.9-4.4,3.2-4.4c1,0,1.9,0.4,2.5,1c0,0,0,0,0,0v-4.2h1.5v11.9h-1.5V250.6z M798.9,250.3c0.9,0,1.7-0.4,2-0.7v-4.8
				c-0.4-0.3-1.1-0.7-2-0.7c-1.7,0-2.1,1.4-2.1,3.1S797.2,250.3,798.9,250.3z"/>
			<path class="st0" d="M806.2,239.9v2.1h-1.5v-2.1H806.2z M806.2,242.9v8.5h-1.5v-8.5H806.2z"/>
			<path class="st0" d="M809.8,247.4c0.1,1.7,0.8,2.9,2.8,2.9c0.8,0,1.7,0,2.7-0.3l0.2,1.2c-1.1,0.3-2,0.4-3.1,0.4
				c-3.1,0-4.2-1.8-4.2-4.4c0-2.6,1.1-4.4,4.2-4.4c2.6,0,3.3,1.5,3.4,3c0.1,0.5,0,1.1-0.1,1.7H809.8z M809.8,246.5h4.3
				c0.1-0.3,0.1-0.6,0.1-0.9c-0.1-0.9-0.6-1.6-1.9-1.6C810.5,243.9,809.9,245,809.8,246.5z"/>
			<path class="st0" d="M820.8,251.6c-1.3,0-2.6-0.1-3.7-0.4l0.3-1.2c1.4,0.3,2.6,0.4,3.2,0.4c1.6,0,1.8-0.9,1.8-1.3
				c0-0.6-0.4-1-1.9-1.3c-1.8-0.3-3.2-0.9-3.2-2.7c0-1.6,1.1-2.4,3.1-2.4c1.3,0,2.4,0.1,3.4,0.4l-0.3,1.2c-1.4-0.3-2.4-0.4-3-0.4
				c-1.5,0-1.7,0.8-1.7,1.1c0,0.5,0.3,1,1.8,1.3c1.8,0.4,3.3,0.9,3.3,2.6C824,250.7,822.8,251.6,820.8,251.6z"/>
		</g>
	</g>
</g>
</svg>
