<!-- Generator: Adobe Illustrator 19.2.1, SVG Export Plug-In  -->
<svg version="1.1"
	 xmlns="http://www.w3.org/2000/svg" xmlns:xlink="http://www.w3.org/1999/xlink" xmlns:a="http://ns.adobe.com/AdobeSVGViewerExtensions/3.0/"
	 x="0px" y="0px" width="1016.8px" height="350.3px" viewBox="0 0 1016.8 350.3" style="enable-background:new 0 0 1016.8 350.3;"
	 xml:space="preserve">
<style type="text/css">
	.st0{clip-path:url(#SVGID_2_);fill:#DC932F;}
	.st1{fill:#DC932F;}
	.st2{fill:#FFFFFF;}
	.st3{clip-path:url(#SVGID_4_);fill:#DC932F;}
</style>
<defs>
</defs>
<g>
	<defs>
		<rect id="SVGID_1_" width="1016.8" height="350.3"/>
	</defs>
	<clipPath id="SVGID_2_">
		<use xlink:href="#SVGID_1_"  style="overflow:visible;"/>
	</clipPath>
	<path class="st0" d="M131.6,0c0,0-50.8,0-50.8,50.8v248.7c0,0,0,50.8,50.8,50.8h833.7c0,0,50.8,0,50.8-50.8V50.8
		c0,0,0-50.8-50.8-50.8H131.6z"/>
</g>
<polygon class="st1" points="0,223.1 81.7,291.1 81.7,223.1 "/>
<path class="st2" d="M157.8,72.7h-2.8l3.5-24.8h-9.8l-3.5,24.8h-3l3.5-24.8h-7.7l0.4-2.7h23.4l-1.4,10.2h0.1c2.3-2,5-3.3,7.9-3.3
	c4,0,5.7,2.3,5.1,6.6l-1.9,14h-2.8l1.9-13.3c0.4-2.8-0.4-4.8-3.8-4.8c-2.7,0-5.3,1.7-6.7,2.7L157.8,72.7z M180.3,62.9
	c-0.6,4.5,0.8,7.7,6.1,7.7c2.1,0,4.1-0.1,6.4-0.8l0.1,2.3c-2.5,0.7-4.6,0.9-7.2,0.9c-7.3,0-9.3-4.3-8.4-10.5s4-10.5,11.1-10.5
	c6.3,0,7.3,3.9,6.9,7.3c-0.1,1.2-0.4,2.4-0.8,3.6H180.3z M180.6,61.1H192c0.3-0.8,0.4-1.6,0.5-2.4c0.2-2.3-0.9-4.4-4.5-4.4
	C183.4,54.3,181.4,57.3,180.6,61.1z M200.5,72.7h-2.8l2.8-20.2h2.8l-0.4,3.2h0.1c2.1-1.8,5.2-3.6,8.4-3.6l-0.4,2.7
	c-3.2,0-6.6,1.6-8.4,2.7L200.5,72.7z M213.9,62.9c-0.6,4.5,0.8,7.7,6.1,7.7c2.1,0,4.1-0.1,6.4-0.8l0.1,2.3c-2.5,0.7-4.6,0.9-7.2,0.9
	c-7.3,0-9.3-4.3-8.4-10.5s4-10.5,11.1-10.5c6.3,0,7.3,3.9,6.9,7.3c-0.1,1.2-0.4,2.4-0.8,3.6H213.9z M214.1,61.1h11.5
	c0.3-0.8,0.4-1.6,0.5-2.4c0.2-2.3-0.9-4.4-4.5-4.4C216.9,54.3,215,57.3,214.1,61.1z M244.2,52.5l-2.8,20.2h-2.8l2.8-20.2H244.2z
	 M245.2,45.2l-0.6,4.8h-2.8l0.6-4.8H245.2z M254,73.1c-3.1,0-5.9-0.3-8.3-0.9l0.8-2.3c3.1,0.8,6.1,0.9,7.5,0.9c4.3,0,5-2.7,5.2-3.5
	c0.2-1.5-0.5-2.7-4.6-3.5c-4-0.8-7.1-2.1-6.5-6.2c0.5-3.6,3.3-5.4,8-5.4c3.1,0,5.4,0.3,7.7,0.9l-0.8,2.3c-3.1-0.8-5.7-0.9-7.1-0.9
	c-4.2,0-4.9,2.4-5,3.1c-0.2,1.5,0.3,2.8,4.4,3.6c4.3,0.9,7.3,2.1,6.7,6C261.5,70.9,258.7,73.1,254,73.1z M286.8,70.7L286.8,70.7
	c-1.8,1.4-4.4,2.4-6.9,2.4c-5.6,0-6.8-4.6-6-10.5s3.5-10.5,9.1-10.5c2.4,0,4.7,0.9,6.1,2.3h0.1l0.8-2h2.2l-2.9,20.2h-2.8L286.8,70.7
	z M281.3,70.7c2.5,0,4.7-1.2,5.7-1.9l1.7-12.3c-0.8-0.8-2.7-1.9-5.2-1.9c-4.4,0-6.1,3.8-6.7,8.1C276.2,66.9,277,70.7,281.3,70.7z
	 M297.1,72.7h-2.8l2.8-20.2h2.8l-0.4,2.9h0.1c2.3-2,5-3.3,7.9-3.3c4,0,5.7,2.3,5.1,6.6l-1.9,14h-2.8l1.9-13.3
	c0.4-2.8-0.4-4.8-3.8-4.8c-2.7,0-5.3,1.7-6.7,2.7L297.1,72.7z M328.5,52.5l-2.8,20.2h-2.8l2.8-20.2H328.5z M329.6,45.2l-0.6,4.8
	h-2.8l0.6-4.8H329.6z M333.5,72.7h-2.8l2.8-20.2h2.8l-0.4,2.9h0.1c2.3-2,5-3.3,7.9-3.3c4,0,5.7,2.3,5.1,6.6l-1.9,14h-2.8l1.9-13.3
	c0.4-2.8-0.4-4.8-3.8-4.8c-2.7,0-5.3,1.7-6.7,2.7L333.5,72.7z M359.8,73.1c-3.1,0-5.9-0.3-8.3-0.9l0.8-2.3c3.1,0.8,6.1,0.9,7.5,0.9
	c4.3,0,5-2.7,5.2-3.5c0.2-1.5-0.5-2.7-4.6-3.5c-4-0.8-7.1-2.1-6.5-6.2c0.5-3.6,3.3-5.4,8-5.4c3.1,0,5.4,0.3,7.7,0.9l-0.8,2.3
	c-3.1-0.8-5.7-0.9-7.1-0.9c-4.2,0-4.9,2.4-5,3.1c-0.2,1.5,0.3,2.8,4.4,3.6c4.3,0.9,7.3,2.1,6.7,6C367.3,70.9,364.4,73.1,359.8,73.1z
	 M376.7,54.5L376.7,54.5c1.8-1.4,4.3-2.4,6.8-2.4c5.6,0,6.9,4.6,6.1,10.5c-0.8,5.9-3.5,10.5-9.2,10.5c-2.5,0-4.6-0.9-5.9-2.3h-0.1
	l-1.5,10h-2.8l4-28.2h2.8L376.7,54.5z M382.2,54.5c-2.5,0-4.7,1.2-5.7,1.9l-1.7,12.3c0.8,0.8,2.7,1.9,5.2,1.9c4.4,0,6.1-3.8,6.7-8.1
	C387.3,58.3,386.6,54.5,382.2,54.5z M398.4,52.5l-2.8,20.2h-2.8l2.8-20.2H398.4z M399.4,45.2l-0.6,4.8h-2.8l0.6-4.8H399.4z
	 M403.3,72.7h-2.8l2.8-20.2h2.8l-0.4,3.2h0.1c2.1-1.8,5.2-3.6,8.4-3.6l-0.4,2.7c-3.2,0-6.6,1.6-8.4,2.7L403.3,72.7z M421.1,52.5
	l-2.8,20.2h-2.8l2.8-20.2H421.1z M422.1,45.2l-0.6,4.8h-2.8l0.6-4.8H422.1z M426,72.7h-2.8l2.8-20.2h2.8l-0.4,2.9h0.1
	c2.3-2,5-3.3,7.9-3.3c4,0,5.7,2.3,5.1,6.6l-1.9,14h-2.8l1.9-13.3c0.4-2.8-0.4-4.8-3.8-4.8c-2.7,0-5.3,1.7-6.7,2.7L426,72.7z
	 M458.5,70.7L458.5,70.7c-1.8,1.4-4.4,2.4-6.9,2.4c-5.6,0-6.8-4.6-6-10.5s3.5-10.5,9.1-10.5c2.4,0,4.7,0.9,6.1,2.3h0.1l0.8-2h2.2
	L461,72c-0.8,5.6-3.8,9.2-10.9,9.2c-2.5,0-4.3-0.3-6.7-0.9l0.8-2.3c3.1,0.8,4.8,0.8,6.1,0.8c4.8,0,7.1-2.1,7.8-6.8L458.5,70.7z
	 M453,70.7c2.5,0,4.7-1.2,5.7-1.9l1.7-12.3c-0.8-0.8-2.7-1.9-5.2-1.9c-4.4,0-6.1,3.8-6.7,8.1C447.9,66.9,448.6,70.7,453,70.7z
	 M480.9,73.1c-3.1,0-5.9-0.3-8.3-0.9l0.8-2.3c3.1,0.8,6.1,0.9,7.5,0.9c4.3,0,5-2.7,5.2-3.5c0.2-1.5-0.5-2.7-4.6-3.5
	c-4-0.8-7.1-2.1-6.5-6.2c0.5-3.6,3.3-5.4,8-5.4c3.1,0,5.4,0.3,7.7,0.9l-0.8,2.3c-3.1-0.8-5.7-0.9-7.1-0.9c-4.2,0-4.9,2.4-5,3.1
	c-0.2,1.5,0.3,2.8,4.4,3.6c4.3,0.9,7.3,2.1,6.7,6C488.4,70.9,485.6,73.1,480.9,73.1z M496.5,62.9c-0.6,4.5,0.8,7.7,6.1,7.7
	c2.1,0,4.1-0.1,6.4-0.8l0.1,2.3c-2.5,0.7-4.6,0.9-7.2,0.9c-7.3,0-9.3-4.3-8.4-10.5s4-10.5,11.1-10.5c6.3,0,7.3,3.9,6.9,7.3
	c-0.1,1.2-0.4,2.4-0.8,3.6H496.5z M496.8,61.1h11.5c0.3-0.8,0.4-1.6,0.5-2.4c0.2-2.3-0.9-4.4-4.5-4.4
	C499.6,54.3,497.6,57.3,496.8,61.1z M518.1,54.6h-3.2l0.2-1.9l3.2-0.2l1.1-5.6h2.5l-0.8,5.6h6l-0.3,2.1h-5.9l-1.7,11.7
	c-0.4,2.9,0.2,4.5,3.1,4.5c0.6,0,1.3,0,2.2-0.2l0,2.2c-1.1,0.2-2.5,0.3-3.4,0.3c-3.9,0-5.4-1.6-4.7-6.3L518.1,54.6z M537.3,62.6
	c0.9-6.2,3.9-10.5,10.5-10.5c6.6,0,8.4,4.3,7.6,10.5c-0.9,6.2-4,10.5-10.5,10.5C538.3,73.1,536.4,68.8,537.3,62.6z M540.3,62.6
	c-0.6,4.5,0.2,8.1,4.9,8.1c4.7,0,6.5-3.6,7.2-8.1c0.6-4.5-0.2-8.1-4.9-8.1C542.8,54.5,540.9,58.1,540.3,62.6z M565.8,52.5h5.2
	l-0.3,2.1h-5.1l-3.7,26.2h-2.8l3.7-26.2h-3.2l0.2-1.9l3.2-0.2l0.4-2.7c0.5-3.8,2.2-5.3,6.3-5.3c0.9,0,2,0.1,3,0.3l-0.6,2.2
	c-0.9-0.2-1.6-0.2-2.2-0.2c-2.6,0-3.5,0.8-3.8,3.3L565.8,52.5z M585,54.5L585,54.5c1.8-1.4,4.3-2.4,6.8-2.4c5.6,0,6.9,4.6,6.1,10.5
	c-0.8,5.9-3.5,10.5-9.2,10.5c-2.5,0-4.6-0.9-5.9-2.3h-0.1l-1.5,10h-2.8l4-28.2h2.8L585,54.5z M590.5,54.5c-2.5,0-4.7,1.2-5.7,1.9
	l-1.7,12.3c0.8,0.8,2.7,1.9,5.2,1.9c4.4,0,6.1-3.8,6.7-8.1C595.6,58.3,594.9,54.5,590.5,54.5z M603.9,72.7H601l2.8-20.2h2.8
	l-0.4,3.2h0.1c2.1-1.8,5.2-3.6,8.4-3.6l-0.4,2.7c-3.2,0-6.6,1.6-8.4,2.7L603.9,72.7z M614.2,62.6c0.9-6.2,3.9-10.5,10.5-10.5
	c6.6,0,8.4,4.3,7.6,10.5c-0.9,6.2-4,10.5-10.5,10.5C615.2,73.1,613.4,68.8,614.2,62.6z M617.2,62.6c-0.6,4.5,0.2,8.1,4.9,8.1
	c4.7,0,6.5-3.6,7.2-8.1c0.6-4.5-0.2-8.1-4.9-8.1C619.7,54.5,617.8,58.1,617.2,62.6z M642.7,52.5h5.2l-0.3,2.1h-5.1l-3.7,26.2h-2.8
	l3.7-26.2h-3.2l0.2-1.9l3.2-0.2l0.4-2.7c0.5-3.8,2.2-5.3,6.3-5.3c0.9,0,2,0.1,3,0.3l-0.6,2.2c-0.9-0.2-1.6-0.2-2.2-0.2
	c-2.6,0-3.5,0.8-3.8,3.3L642.7,52.5z M650.8,62.9c-0.6,4.5,0.8,7.7,6.1,7.7c2.1,0,4.1-0.1,6.4-0.8l0.1,2.3c-2.5,0.7-4.6,0.9-7.2,0.9
	c-7.3,0-9.3-4.3-8.4-10.5c0.9-6.2,4-10.5,11.1-10.5c6.3,0,7.3,3.9,6.9,7.3c-0.1,1.2-0.4,2.4-0.8,3.6H650.8z M651.1,61.1h11.5
	c0.3-0.8,0.4-1.6,0.5-2.4c0.2-2.3-0.9-4.4-4.5-4.4C653.9,54.3,651.9,57.3,651.1,61.1z M676,73.1c-3.1,0-5.9-0.3-8.3-0.9l0.8-2.3
	c3.1,0.8,6.1,0.9,7.5,0.9c4.3,0,5-2.7,5.2-3.5c0.2-1.5-0.5-2.7-4.6-3.5c-4-0.8-7.1-2.1-6.5-6.2c0.5-3.6,3.3-5.4,8-5.4
	c3.1,0,5.4,0.3,7.7,0.9l-0.8,2.3c-3.1-0.8-5.7-0.9-7.1-0.9c-4.2,0-4.9,2.4-5,3.1c-0.2,1.5,0.3,2.8,4.4,3.6c4.3,0.9,7.3,2.1,6.7,6
	C683.5,70.9,680.6,73.1,676,73.1z M695.3,73.1c-3.1,0-5.9-0.3-8.3-0.9l0.8-2.3c3.1,0.8,6.1,0.9,7.5,0.9c4.3,0,5-2.7,5.2-3.5
	c0.2-1.5-0.5-2.7-4.6-3.5c-4-0.8-7.1-2.1-6.5-6.2c0.5-3.6,3.3-5.4,8-5.4c3.1,0,5.4,0.3,7.7,0.9l-0.8,2.3c-3.1-0.8-5.7-0.9-7.1-0.9
	c-4.2,0-4.9,2.4-5,3.1c-0.2,1.5,0.3,2.8,4.4,3.6c4.3,0.9,7.3,2.1,6.7,6C702.8,70.9,700,73.1,695.3,73.1z M712.6,52.5l-2.8,20.2h-2.8
	l2.8-20.2H712.6z M713.6,45.2l-0.6,4.8h-2.8l0.6-4.8H713.6z M715.7,62.6c0.9-6.2,3.9-10.5,10.5-10.5c6.6,0,8.4,4.3,7.6,10.5
	c-0.9,6.2-4,10.5-10.5,10.5C716.6,73.1,714.8,68.8,715.7,62.6z M718.7,62.6c-0.6,4.5,0.2,8.1,4.9,8.1c4.7,0,6.5-3.6,7.2-8.1
	c0.6-4.5-0.2-8.1-4.9-8.1C721.2,54.5,719.3,58.1,718.7,62.6z M739.7,72.7h-2.8l2.8-20.2h2.8l-0.4,2.9h0.1c2.3-2,5-3.3,7.9-3.3
	c4,0,5.7,2.3,5.1,6.6l-1.9,14h-2.8l1.9-13.3c0.4-2.8-0.4-4.8-3.8-4.8c-2.7,0-5.3,1.7-6.7,2.7L739.7,72.7z M772.1,70.7L772.1,70.7
	c-1.8,1.4-4.4,2.4-6.9,2.4c-5.6,0-6.8-4.6-6-10.5c0.8-5.9,3.5-10.5,9.1-10.5c2.4,0,4.7,0.9,6.1,2.3h0.1l0.8-2h2.2l-2.9,20.2h-2.8
	L772.1,70.7z M766.7,70.7c2.5,0,4.7-1.2,5.7-1.9l1.7-12.3c-0.8-0.8-2.7-1.9-5.2-1.9c-4.4,0-6.1,3.8-6.7,8.1
	C761.6,66.9,762.3,70.7,766.7,70.7z M783.6,44.4h2.8l-4,28.2h-2.8L783.6,44.4z"/>
<g>
	<path class="st2" d="M142.5,121.5c-3.1,0-5.9-0.3-8.3-0.9l0.8-2.3c3.1,0.8,6.1,0.9,7.5,0.9c4.3,0,5-2.7,5.2-3.5
		c0.2-1.5-0.5-2.7-4.6-3.5c-4-0.8-7.1-2.1-6.5-6.2c0.5-3.6,3.3-5.4,8-5.4c3.1,0,5.4,0.3,7.7,0.9l-0.8,2.3c-3.1-0.8-5.7-0.9-7.1-0.9
		c-4.2,0-4.9,2.4-5,3.1c-0.2,1.5,0.3,2.8,4.4,3.6c4.3,0.9,7.3,2.1,6.7,6C150,119.3,147.2,121.5,142.5,121.5z"/>
	<path class="st2" d="M158.3,103h-3.2l0.2-1.9l3.2-0.2l1.1-5.6h2.5l-0.8,5.6h6L167,103h-5.9l-1.7,11.7c-0.4,2.9,0.2,4.5,3.1,4.5
		c0.6,0,1.2,0,2.2-0.2l0,2.2c-1.1,0.2-2.5,0.3-3.4,0.3c-3.9,0-5.4-1.6-4.7-6.3L158.3,103z"/>
	<path class="st2" d="M181,119.1L181,119.1c-1.8,1.4-4.4,2.4-6.9,2.4c-5.6,0-6.8-4.6-6-10.5c0.8-5.9,3.5-10.5,9.1-10.5
		c2.4,0,4.7,0.9,6.1,2.3h0.1l0.8-2h2.2l-2.9,20.2h-2.8L181,119.1z M175.5,119.1c2.5,0,4.7-1.2,5.7-1.9l1.7-12.3
		c-0.8-0.8-2.7-1.9-5.2-1.9c-4.4,0-6.1,3.8-6.7,8.1C170.4,115.3,171.2,119.1,175.5,119.1z"/>
	<path class="st2" d="M191.3,121.1h-2.8l2.8-20.2h2.8l-0.4,2.9h0.1c2.3-2,5-3.3,7.9-3.3c4,0,5.7,2.3,5.1,6.6l-1.9,14h-2.8l1.9-13.3
		c0.4-2.8-0.4-4.8-3.8-4.8c-2.7,0-5.3,1.7-6.7,2.7L191.3,121.1z"/>
	<path class="st2" d="M223.8,119.1C223.7,119.1,223.7,119.1,223.8,119.1c-1.8,1.4-4.4,2.4-6.9,2.4c-5.6,0-6.8-4.6-6-10.5
		c0.8-5.9,3.5-10.5,9.1-10.5c2.4,0,4.6,0.9,6,2.3c0,0,0,0,0.1,0l1.4-10h2.8l-4,28.2h-2.8L223.8,119.1z M218.3,119.1
		c2.5,0,4.7-1.2,5.7-1.9l1.7-12.3c-0.8-0.8-2.7-1.9-5.2-1.9c-4.4,0-6.1,3.8-6.7,8.1C213.2,115.3,213.9,119.1,218.3,119.1z"/>
	<path class="st2" d="M245.1,119.1L245.1,119.1c-1.8,1.4-4.4,2.4-6.9,2.4c-5.6,0-6.8-4.6-6-10.5c0.8-5.9,3.5-10.5,9.1-10.5
		c2.4,0,4.7,0.9,6.1,2.3h0.1l0.8-2h2.2l-2.9,20.2h-2.8L245.1,119.1z M239.6,119.1c2.5,0,4.7-1.2,5.7-1.9l1.7-12.3
		c-0.8-0.8-2.7-1.9-5.2-1.9c-4.4,0-6.1,3.8-6.7,8.1C234.6,115.3,235.3,119.1,239.6,119.1z"/>
	<path class="st2" d="M255.4,121.1h-2.8l2.8-20.2h2.8l-0.4,3.2h0.1c2.1-1.8,5.2-3.6,8.4-3.6l-0.4,2.7c-3.2,0-6.6,1.6-8.4,2.7
		L255.4,121.1z"/>
	<path class="st2" d="M278.7,119.1C278.6,119.1,278.6,119.1,278.7,119.1c-1.8,1.4-4.4,2.4-6.9,2.4c-5.6,0-6.8-4.6-6-10.5
		c0.8-5.9,3.5-10.5,9.1-10.5c2.4,0,4.6,0.9,6,2.3c0,0,0,0,0.1,0l1.4-10h2.8l-4,28.2h-2.8L278.7,119.1z M273.2,119.1
		c2.5,0,4.7-1.2,5.7-1.9l1.7-12.3c-0.8-0.8-2.7-1.9-5.2-1.9c-4.4,0-6.1,3.8-6.7,8.1C268.1,115.3,268.8,119.1,273.2,119.1z"/>
	<path class="st2" d="M293.9,121.5c-3.1,0-5.9-0.3-8.3-0.9l0.8-2.3c3.1,0.8,6.1,0.9,7.5,0.9c4.3,0,5-2.7,5.2-3.5
		c0.2-1.5-0.5-2.7-4.6-3.5c-4-0.8-7.1-2.1-6.5-6.2c0.5-3.6,3.3-5.4,8-5.4c3.1,0,5.4,0.3,7.7,0.9l-0.8,2.3c-3.1-0.8-5.7-0.9-7.1-0.9
		c-4.2,0-4.9,2.4-5,3.1c-0.2,1.5,0.3,2.8,4.4,3.6c4.3,0.9,7.3,2.1,6.7,6C301.4,119.3,298.6,121.5,293.9,121.5z"/>
	<path class="st2" d="M326.7,119.1C326.6,119.1,326.6,119.1,326.7,119.1c-1.8,1.4-4.4,2.4-6.9,2.4c-5.6,0-6.8-4.6-6-10.5
		c0.8-5.9,3.5-10.5,9.1-10.5c2.4,0,4.6,0.9,6,2.3c0,0,0,0,0.1,0l1.4-10h2.8l-4,28.2h-2.8L326.7,119.1z M321.2,119.1
		c2.5,0,4.7-1.2,5.7-1.9l1.7-12.3c-0.8-0.8-2.7-1.9-5.2-1.9c-4.4,0-6.1,3.8-6.7,8.1C316.1,115.3,316.8,119.1,321.2,119.1z"/>
	<path class="st2" d="M338.1,111.3c-0.6,4.5,0.8,7.7,6.1,7.7c2.1,0,4.1-0.1,6.4-0.8l0.1,2.3c-2.5,0.7-4.6,0.9-7.2,0.9
		c-7.3,0-9.3-4.3-8.4-10.5s4-10.5,11.1-10.5c6.3,0,7.3,3.9,6.9,7.3c-0.1,1.2-0.4,2.4-0.8,3.6H338.1z M338.4,109.5h11.5
		c0.3-0.8,0.4-1.6,0.5-2.4c0.2-2.3-0.9-4.4-4.5-4.4C341.2,102.7,339.2,105.7,338.4,109.5z"/>
	<path class="st2" d="M360.1,99.6c0.7-4.7,3.3-6.8,8.2-6.8c1.4,0,4.5,0.4,6.6,1.3l-0.6,2.1c-2.2-0.9-4.6-1.1-6-1.1
		c-3.8,0-5,1.7-5.4,4.5l-0.2,1.3h11.9l-2.8,20.2H369l2.5-18.1h-9.1l-3.7,26.2H356l3.7-26.2h-3.2l0.2-1.9l3.2-0.2L360.1,99.6z"/>
	<path class="st2" d="M379.6,121.1h-2.8l2.8-20.2h2.8l-0.4,2.9h0.1c2.3-2,5-3.3,7.9-3.3c4,0,5.7,2.3,5.1,6.6l-1.9,14h-2.8l1.9-13.3
		c0.4-2.8-0.4-4.8-3.8-4.8c-2.7,0-5.3,1.7-6.7,2.7L379.6,121.1z"/>
	<path class="st2" d="M402.2,111.3c-0.6,4.5,0.8,7.7,6.1,7.7c2.1,0,4.1-0.1,6.4-0.8l0.1,2.3c-2.5,0.7-4.6,0.9-7.2,0.9
		c-7.3,0-9.3-4.3-8.4-10.5s4-10.5,11.1-10.5c6.3,0,7.3,3.9,6.9,7.3c-0.1,1.2-0.4,2.4-0.8,3.6H402.2z M402.4,109.5h11.5
		c0.3-0.8,0.4-1.6,0.5-2.4c0.2-2.3-0.9-4.4-4.5-4.4C405.2,102.7,403.2,105.7,402.4,109.5z"/>
	<path class="st2" d="M433.5,119.1C433.4,119.1,433.4,119.1,433.5,119.1c-1.8,1.4-4.4,2.4-6.9,2.4c-5.6,0-6.8-4.6-6-10.5
		c0.8-5.9,3.5-10.5,9.1-10.5c2.4,0,4.6,0.9,6,2.3c0,0,0,0,0.1,0l1.4-10h2.8l-4,28.2h-2.8L433.5,119.1z M428,119.1
		c2.5,0,4.7-1.2,5.7-1.9l1.7-12.3c-0.8-0.8-2.7-1.9-5.2-1.9c-4.4,0-6.1,3.8-6.7,8.1C422.9,115.3,423.6,119.1,428,119.1z"/>
	<path class="st2" d="M453.5,102.9L453.5,102.9c1.8-1.4,4.3-2.4,6.8-2.4c5.6,0,6.9,4.6,6.1,10.5c-0.8,5.9-3.5,10.5-9.2,10.5
		c-2.5,0-4.7-0.9-6.1-2.3h-0.1l-0.8,2h-2.2l4-28.3h2.8L453.5,102.9z M459,102.9c-2.5,0-4.7,1.2-5.7,1.9l-1.7,12.3
		c0.8,0.8,2.7,1.9,5.2,1.9c4.4,0,6.1-3.8,6.7-8.1C464.1,106.7,463.4,102.9,459,102.9z"/>
	<path class="st2" d="M469.4,100.9h3.2l4,17.4h0.1l8.4-17.4h3l-10.8,21.6c-2.5,5-5,7-8.7,7c-0.9,0-1.9-0.1-2.7-0.3l0.6-2.4
		c0.7,0.2,1.3,0.2,1.8,0.2c3,0,4.9-3.1,6.2-5.6L469.4,100.9z"/>
	<path class="st2" d="M501.1,103h-3.2l0.2-1.9l3.2-0.2l1.1-5.6h2.5l-0.8,5.6h6l-0.3,2.1h-5.9l-1.7,11.7c-0.4,2.9,0.2,4.5,3.1,4.5
		c0.6,0,1.2,0,2.2-0.2l0,2.2c-1.1,0.2-2.5,0.3-3.4,0.3c-3.9,0-5.4-1.6-4.7-6.3L501.1,103z"/>
	<path class="st2" d="M514.9,121.1h-2.8l4-28.2h2.8l-1.5,11h0.1c2.3-2,5-3.3,7.9-3.3c4,0,5.7,2.3,5.1,6.6l-1.9,14h-2.8l1.9-13.3
		c0.4-2.8-0.4-4.8-3.8-4.8c-2.7,0-5.3,1.7-6.7,2.7L514.9,121.1z"/>
	<path class="st2" d="M537.4,111.3c-0.6,4.5,0.8,7.7,6.1,7.7c2.1,0,4.1-0.1,6.4-0.8l0.1,2.3c-2.5,0.7-4.6,0.9-7.2,0.9
		c-7.3,0-9.3-4.3-8.4-10.5c0.9-6.2,4-10.5,11.1-10.5c6.3,0,7.3,3.9,6.9,7.3c-0.1,1.2-0.4,2.4-0.8,3.6H537.4z M537.7,109.5h11.5
		c0.3-0.8,0.4-1.6,0.5-2.4c0.2-2.3-0.9-4.4-4.5-4.4C540.5,102.7,538.5,105.7,537.7,109.5z"/>
	<path class="st2" d="M564,107.2c1.1-7.6,4.2-13.9,13.4-13.9c3.1,0,5.7,0.4,8.8,1.4l-1,2.5c-4-1-5.7-1.2-7.9-1.2
		c-7,0-9.3,5.2-10.1,11.3c-0.9,6.5-0.1,11.7,6.9,11.7c2.3,0,4.3-0.6,6-1.7l1-7.2h-5.7l0.4-2.7h8.7l-1.7,11.9
		c-2.6,1.1-5.4,2.3-9.4,2.3C564.2,121.5,562.9,115,564,107.2z"/>
	<path class="st2" d="M591.9,111.3c-0.6,4.5,0.8,7.7,6.1,7.7c2.1,0,4.1-0.1,6.4-0.8l0.1,2.3c-2.5,0.7-4.6,0.9-7.2,0.9
		c-7.3,0-9.3-4.3-8.4-10.5c0.9-6.2,4-10.5,11.1-10.5c6.3,0,7.3,3.9,6.9,7.3c-0.1,1.2-0.4,2.4-0.8,3.6H591.9z M592.1,109.5h11.5
		c0.3-0.8,0.4-1.6,0.5-2.4c0.2-2.3-0.9-4.4-4.5-4.4C595,102.7,593,105.7,592.1,109.5z"/>
	<path class="st2" d="M612.1,121.1h-2.8l2.8-20.2h2.8l-0.4,2.9h0.1c2.3-2,5-3.3,7.9-3.3c4,0,5.7,2.3,5.1,6.6l-1.9,14h-2.8l1.9-13.3
		c0.4-2.8-0.4-4.8-3.8-4.8c-2.7,0-5.3,1.7-6.7,2.7L612.1,121.1z"/>
	<path class="st2" d="M634.6,111.3c-0.6,4.5,0.8,7.7,6.1,7.7c2.1,0,4.1-0.1,6.4-0.8l0.1,2.3c-2.5,0.7-4.6,0.9-7.2,0.9
		c-7.3,0-9.3-4.3-8.4-10.5s4-10.5,11.1-10.5c6.3,0,7.3,3.9,6.9,7.3c-0.1,1.2-0.4,2.4-0.8,3.6H634.6z M634.9,109.5h11.5
		c0.3-0.8,0.4-1.6,0.5-2.4c0.2-2.3-0.9-4.4-4.5-4.4C637.7,102.7,635.7,105.7,634.9,109.5z"/>
	<path class="st2" d="M654.9,121.1H652l2.8-20.2h2.8l-0.4,3.2h0.1c2.1-1.8,5.2-3.6,8.4-3.6l-0.4,2.7c-3.2,0-6.6,1.6-8.4,2.7
		L654.9,121.1z"/>
	<path class="st2" d="M678.2,119.1L678.2,119.1c-1.8,1.4-4.4,2.4-6.9,2.4c-5.6,0-6.8-4.6-6-10.5c0.8-5.9,3.5-10.5,9.1-10.5
		c2.4,0,4.7,0.9,6.1,2.3h0.1l0.8-2h2.2l-2.9,20.2h-2.8L678.2,119.1z M672.7,119.1c2.5,0,4.7-1.2,5.7-1.9l1.7-12.3
		c-0.8-0.8-2.7-1.9-5.2-1.9c-4.4,0-6.1,3.8-6.7,8.1C667.6,115.3,668.3,119.1,672.7,119.1z"/>
	<path class="st2" d="M689.6,92.8h2.8l-4,28.2h-2.8L689.6,92.8z"/>
</g>
<g>
	<path class="st2" d="M148.6,144.7l-3.5,24.8h-3l3.5-24.8h-7.7l0.4-2.7h18.5l-0.4,2.7H148.6z"/>
	<path class="st2" d="M154.6,159.8c-0.6,4.5,0.8,7.7,6.1,7.7c2.1,0,4.1-0.1,6.4-0.8l0.1,2.3c-2.5,0.7-4.6,0.9-7.2,0.9
		c-7.3,0-9.3-4.3-8.4-10.5s4-10.5,11.1-10.5c6.3,0,7.3,3.9,6.9,7.3c-0.1,1.2-0.4,2.4-0.8,3.6H154.6z M154.9,157.9h11.5
		c0.3-0.8,0.4-1.6,0.5-2.4c0.2-2.3-0.9-4.4-4.5-4.4C157.7,151.1,155.7,154.1,154.9,157.9z"/>
	<path class="st2" d="M185.9,167.5L185.9,167.5c-1.8,1.4-4.4,2.4-6.9,2.4c-5.6,0-6.8-4.6-6-10.5c0.8-5.9,3.5-10.5,9.1-10.5
		c2.4,0,4.7,0.9,6.1,2.3h0.1l0.8-2h2.2l-2.9,20.2h-2.8L185.9,167.5z M180.4,167.5c2.5,0,4.7-1.2,5.7-1.9l1.7-12.3
		c-0.8-0.8-2.7-1.9-5.2-1.9c-4.4,0-6.1,3.8-6.7,8.1C175.4,163.7,176.1,167.5,180.4,167.5z"/>
	<path class="st2" d="M205.5,148.9c2.5,0,4.3,0.3,6.6,0.9l-0.8,2.3c-3.1-0.8-4.8-0.8-6.1-0.8c-4.8,0-7.1,3.5-7.8,8.1
		c-0.7,4.6,0.7,8.1,5.5,8.1c1.3,0,3,0,6.3-0.8l0.2,2.3c-2.5,0.6-4.4,0.9-6.9,0.9c-7.1,0-9-4.3-8.1-10.5S198.3,148.9,205.5,148.9z"/>
	<path class="st2" d="M215.6,169.5h-2.8l4-28.2h2.8l-1.5,11h0.1c2.3-2,5-3.3,7.9-3.3c4,0,5.7,2.3,5.1,6.6l-1.9,14h-2.8l1.9-13.3
		c0.4-2.8-0.4-4.8-3.8-4.8c-2.7,0-5.3,1.7-6.7,2.7L215.6,169.5z"/>
	<path class="st2" d="M239.8,149.3l-2.8,20.2h-2.8l2.8-20.2H239.8z M240.8,142l-0.6,4.8h-2.8l0.6-4.8H240.8z"/>
	<path class="st2" d="M244.7,169.5h-2.8l2.8-20.2h2.8l-0.4,2.9h0.1c2.3-2,5-3.3,7.9-3.3c4,0,5.7,2.3,5.1,6.6l-1.9,14h-2.8l1.9-13.3
		c0.4-2.8-0.4-4.8-3.8-4.8c-2.7,0-5.3,1.7-6.7,2.7L244.7,169.5z"/>
	<path class="st2" d="M277.2,167.5L277.2,167.5c-1.8,1.4-4.4,2.4-6.9,2.4c-5.6,0-6.8-4.6-6-10.5c0.8-5.9,3.5-10.5,9.1-10.5
		c2.4,0,4.7,0.9,6.1,2.3h0.1l0.8-2h2.2l-2.8,19.6c-0.8,5.6-3.8,9.2-10.9,9.2c-2.5,0-4.3-0.3-6.7-0.9l0.8-2.3
		c3.1,0.8,4.8,0.8,6.1,0.8c4.8,0,7.1-2.1,7.8-6.8L277.2,167.5z M271.7,167.5c2.5,0,4.7-1.2,5.7-1.9l1.7-12.3
		c-0.8-0.8-2.7-1.9-5.2-1.9c-4.4,0-6.1,3.8-6.7,8.1C266.6,163.7,267.3,167.5,271.7,167.5z"/>
	<path class="st2" d="M307.2,141.6c3.1,0,6,0.4,9.1,1.4l-1,2.5c-4-1-5.9-1.2-8.2-1.2c-7,0-9.3,5.2-10.1,11.3
		c-0.9,6.5-0.1,11.7,6.9,11.7c2.3,0,4.3-0.2,8.5-1.2l0.3,2.5c-3.4,1-6.4,1.4-9.5,1.4c-9.2,0-10.5-6.5-9.4-14.3
		C294.9,147.9,298,141.6,307.2,141.6z"/>
	<path class="st2" d="M315.9,159.4c0.9-6.2,3.9-10.5,10.5-10.5c6.6,0,8.4,4.3,7.6,10.5c-0.9,6.2-4,10.5-10.5,10.5
		S315,165.6,315.9,159.4z M318.9,159.4c-0.6,4.5,0.2,8.1,4.9,8.1c4.7,0,6.5-3.6,7.2-8.1c0.6-4.5-0.2-8.1-4.9-8.1
		S319.5,154.9,318.9,159.4z"/>
	<path class="st2" d="M353.5,149.3h2.8l-2.8,20.2h-2.8l0.4-2.9H351c-2.3,1.9-5,3.3-8,3.3c-4,0-5.7-2.3-5.1-6.6l1.9-14h2.8l-1.9,13.3
		c-0.4,2.8,0.4,4.8,3.8,4.8c2.7,0,5.2-1.7,6.7-2.7L353.5,149.3z"/>
	<path class="st2" d="M361.3,169.5h-2.8l2.8-20.2h2.8l-0.4,2.9h0.1c2.3-2,5-3.3,7.9-3.3c4,0,5.7,2.3,5.1,6.6l-1.9,14h-2.8l1.9-13.3
		c0.4-2.8-0.4-4.8-3.8-4.8c-2.7,0-5.3,1.7-6.7,2.7L361.3,169.5z"/>
	<path class="st2" d="M391.9,148.9c2.5,0,4.3,0.3,6.6,0.9l-0.8,2.3c-3.1-0.8-4.8-0.8-6.1-0.8c-4.8,0-7.1,3.5-7.8,8.1
		c-0.7,4.6,0.7,8.1,5.5,8.1c1.3,0,3,0,6.3-0.8l0.2,2.3c-2.5,0.6-4.4,0.9-6.9,0.9c-7.1,0-9-4.3-8.1-10.5S384.8,148.9,391.9,148.9z"/>
	<path class="st2" d="M404.8,149.3l-2.8,20.2h-2.8l2.8-20.2H404.8z M405.8,142l-0.6,4.8h-2.8l0.6-4.8H405.8z"/>
	<path class="st2" d="M410.9,141.2h2.8l-4,28.2h-2.8L410.9,141.2z"/>
	<path class="st2" d="M429.2,149.3h5.2l-0.3,2.1h-5.1l-3.7,26.2h-2.8l3.7-26.2h-3.2l0.2-1.9l3.2-0.2l0.4-2.7
		c0.5-3.8,2.2-5.3,6.3-5.3c0.9,0,2,0.1,3,0.3l-0.6,2.2c-0.9-0.2-1.6-0.2-2.2-0.2c-2.6,0-3.5,0.8-3.8,3.3L429.2,149.3z"/>
	<path class="st2" d="M434.4,159.4c0.9-6.2,3.9-10.5,10.5-10.5c6.6,0,8.4,4.3,7.6,10.5c-0.9,6.2-4,10.5-10.5,10.5
		S433.5,165.6,434.4,159.4z M437.4,159.4c-0.6,4.5,0.2,8.1,4.9,8.1c4.7,0,6.5-3.6,7.2-8.1c0.6-4.5-0.2-8.1-4.9-8.1
		S438,154.9,437.4,159.4z"/>
	<path class="st2" d="M458.4,169.5h-2.8l2.8-20.2h2.8l-0.4,3.2h0.1c2.1-1.8,5.2-3.6,8.4-3.6l-0.4,2.7c-3.2,0-6.6,1.6-8.4,2.7
		L458.4,169.5z"/>
	<path class="st2" d="M477.9,168.5l0.9-2.5c4,1,6.7,1.2,9,1.2c4.6,0,6.9-2.5,7.2-5c0.5-3.7-3.6-4.7-6.4-5.4
		c-4.2-1.1-8.1-3.5-7.5-8.1c0.7-5.1,5-7.1,10.2-7.1c3,0,5.8,0.4,8.9,1.4l-1,2.5c-4-1-6-1.2-8.2-1.2c-4.6,0-6.4,2.1-6.7,4.5
		c-0.5,3.5,3.9,4.8,6.7,5.5c4.2,1,7.9,3,7.2,7.7c-0.7,5.2-5.2,7.9-10.7,7.9C484.3,169.9,481,169.5,477.9,168.5z"/>
	<path class="st2" d="M514,148.9c2.5,0,4.3,0.3,6.6,0.9l-0.8,2.3c-3.1-0.8-4.8-0.8-6.1-0.8c-4.8,0-7.1,3.5-7.8,8.1
		c-0.7,4.6,0.7,8.1,5.5,8.1c1.3,0,3,0,6.3-0.8l0.2,2.3c-2.5,0.6-4.4,0.9-6.9,0.9c-7.1,0-9-4.3-8.1-10.5S506.9,148.9,514,148.9z"/>
	<path class="st2" d="M521.1,159.4c0.9-6.2,3.9-10.5,10.5-10.5s8.4,4.3,7.6,10.5c-0.9,6.2-4,10.5-10.5,10.5
		C522,169.9,520.2,165.6,521.1,159.4z M524,159.4c-0.6,4.5,0.2,8.1,4.9,8.1s6.5-3.6,7.2-8.1c0.6-4.5-0.2-8.1-4.9-8.1
		S524.7,154.9,524,159.4z"/>
	<path class="st2" d="M546.4,151.4h-3.2l0.2-1.9l3.2-0.2l1.1-5.6h2.5l-0.8,5.6h6l-0.3,2.1h-5.9l-1.7,11.7c-0.4,2.9,0.2,4.5,3.1,4.5
		c0.6,0,1.2,0,2.2-0.2l0,2.2c-1.1,0.2-2.5,0.3-3.4,0.3c-3.9,0-5.4-1.6-4.7-6.3L546.4,151.4z"/>
	<path class="st2" d="M561.3,141.2h2.8l-4,28.2h-2.8L561.3,141.2z"/>
	<path class="st2" d="M579,167.5L579,167.5c-1.8,1.4-4.4,2.4-6.9,2.4c-5.6,0-6.8-4.6-6-10.5c0.8-5.9,3.5-10.5,9.1-10.5
		c2.4,0,4.7,0.9,6.1,2.3h0.1l0.8-2h2.2l-2.9,20.2h-2.8L579,167.5z M573.5,167.5c2.5,0,4.7-1.2,5.7-1.9l1.7-12.3
		c-0.8-0.8-2.7-1.9-5.2-1.9c-4.4,0-6.1,3.8-6.7,8.1C568.5,163.7,569.2,167.5,573.5,167.5z"/>
	<path class="st2" d="M589.3,169.5h-2.8l2.8-20.2h2.8l-0.4,2.9h0.1c2.3-2,5-3.3,7.9-3.3c4,0,5.7,2.3,5.1,6.6l-1.9,14h-2.8l1.9-13.3
		c0.4-2.8-0.4-4.8-3.8-4.8c-2.7,0-5.3,1.7-6.7,2.7L589.3,169.5z"/>
	<path class="st2" d="M621.8,167.5C621.7,167.5,621.7,167.5,621.8,167.5c-1.8,1.4-4.4,2.4-6.9,2.4c-5.6,0-6.8-4.6-6-10.5
		c0.8-5.9,3.5-10.5,9.1-10.5c2.4,0,4.6,0.9,6,2.3c0,0,0,0,0.1,0l1.4-10h2.8l-4,28.2h-2.8L621.8,167.5z M616.3,167.5
		c2.5,0,4.7-1.2,5.7-1.9l1.7-12.3c-0.8-0.8-2.7-1.9-5.2-1.9c-4.4,0-6.1,3.8-6.7,8.1C611.2,163.7,611.9,167.5,616.3,167.5z"/>
	<path class="st2" d="M632.7,164.6l-0.7,4.9h-2.8l0.7-4.9H632.7z"/>
</g>
<g>
	<path class="st2" d="M134.4,225.2v-24.4h4.9v24.4H134.4z"/>
	<path class="st2" d="M156.2,217L156.2,217l5.8-16.2h6.5v24.4h-4.9v-15.5h-0.1l-5.8,15.5h-3.6l-5.7-15.5h-0.1v15.5h-4.8v-24.4h6.6
		L156.2,217z"/>
	<path class="st2" d="M177.7,216.6v8.6h-4.9v-24.4h10.4c5.1,0,8.1,3.2,8.1,7.9c0,4.8-2.9,7.9-8.1,7.9H177.7z M177.7,212.2h4.9
		c2.1,0,3.5-1,3.5-3.5c0-2.5-1.5-3.5-3.5-3.5h-4.9V212.2z"/>
	<path class="st2" d="M208.4,225.2l-5.1-8.7h-3.5v8.7h-4.9v-24.4h10.4c5.1,0,8.1,3.1,8.1,7.9c0,3.3-1.5,6.1-4.8,7l5.7,9.5H208.4z
		 M199.8,212.1h4.8c2,0,3.6-0.9,3.6-3.4c0-2.5-1.5-3.4-3.5-3.4h-4.9V212.1z"/>
	<path class="st2" d="M216.4,212.8c0-6.9,2.3-12.4,10.9-12.4s10.8,5.5,10.8,12.4c0,7-2.3,12.7-10.8,12.7S216.4,219.8,216.4,212.8z
		 M221.6,212.8c0,4.8,0.9,8.6,5.7,8.6s5.6-3.8,5.6-8.6s-0.8-8.2-5.6-8.2S221.6,208,221.6,212.8z"/>
	<path class="st2" d="M250.2,219.2l5.5-18.4h5.2l-7.8,24.6h-6l-7.9-24.6h5.5L250.2,219.2L250.2,219.2z"/>
	<path class="st2" d="M263.5,225.2v-24.4h4.9v24.4H263.5z"/>
	<path class="st2" d="M272.7,225.2v-24.4h4.9l9.8,15.3h0.1v-15.3h4.8v24.4h-4.9l-9.8-14.8h-0.1v14.8H272.7z"/>
	<path class="st2" d="M295.7,212.8c0-6.9,2.3-12.4,10.9-12.4c2.9,0,5.4,0.4,8.7,1.4l-1.1,4.1c-3.8-0.9-5.3-1.1-7.2-1.1
		c-4.5,0-6.1,3.1-6.1,8c0,5.2,1.5,8.4,6.1,8.4c1.3,0,2.3-0.3,3.4-0.7v-4h-3.8v-4.4h8.7v11.8c-3,1.1-5.5,1.7-8.7,1.7
		C298,225.6,295.7,219.8,295.7,212.8z"/>
	<path class="st2" d="M325.6,224.2l0.9-4.1c3.8,0.9,6.5,1.1,8.4,1.1c2.5,0,4-1.1,4-2.8c0-2.3-2.8-2.7-5.6-3.5
		c-4.2-1.2-7.3-3.5-7.3-7.6c0-4.9,4.1-6.8,8.9-6.8c2.8,0,5.3,0.4,8.6,1.4l-1.1,4.1c-3.8-0.9-5.6-1.1-7.5-1.1c-2.5,0-3.7,1.1-3.7,2.5
		c0,2,2.6,2.7,5.6,3.4c4.2,1,7.4,3,7.4,7.2c0,5.2-4,7.5-9.2,7.5C332,225.6,328.9,225.2,325.6,224.2z"/>
	<path class="st2" d="M357.9,200.5c2.9,0,5.5,0.4,8.8,1.4l-1.1,4.1c-3.8-0.9-5.4-1.1-7.3-1.1c-4.5,0-6.1,3.1-6.1,8
		c0,5.2,1.5,8.4,6.1,8.4c1.9,0,3.4-0.2,7.3-1.1l1.1,4.1c-3.3,1-5.9,1.3-8.8,1.3c-8.6,0-10.9-5.7-10.9-12.7
		C347.1,205.9,349.4,200.5,357.9,200.5z"/>
	<path class="st2" d="M369.6,225.2v-24.4h4.9v9.6h9.3v-9.6h4.9v24.4h-4.9v-10.4h-9.3v10.4H369.6z"/>
	<path class="st2" d="M392.2,212.8c0-6.9,2.3-12.4,10.9-12.4s10.8,5.5,10.8,12.4c0,7-2.3,12.7-10.8,12.7S392.2,219.8,392.2,212.8z
		 M397.4,212.8c0,4.8,0.9,8.6,5.7,8.6s5.6-3.8,5.6-8.6s-0.8-8.2-5.6-8.2S397.4,208,397.4,212.8z"/>
	<path class="st2" d="M417.5,212.8c0-6.9,2.3-12.4,10.9-12.4c8.6,0,10.8,5.5,10.8,12.4c0,7-2.3,12.7-10.8,12.7
		C419.7,225.6,417.5,219.8,417.5,212.8z M422.7,212.8c0,4.8,0.9,8.6,5.7,8.6s5.6-3.8,5.6-8.6s-0.8-8.2-5.6-8.2
		S422.7,208,422.7,212.8z"/>
	<path class="st2" d="M447.6,200.8v20h11.4v4.4h-16.3v-24.4H447.6z"/>
	<path class="st2" d="M462.1,224.2l0.9-4.1c3.8,0.9,6.5,1.1,8.4,1.1c2.5,0,4-1.1,4-2.8c0-2.3-2.8-2.7-5.6-3.5
		c-4.2-1.2-7.3-3.5-7.3-7.6c0-4.9,4.1-6.8,8.9-6.8c2.8,0,5.3,0.4,8.6,1.4l-1.1,4.1c-3.8-0.9-5.6-1.1-7.5-1.1c-2.5,0-3.7,1.1-3.7,2.5
		c0,2,2.6,2.7,5.6,3.4c4.2,1,7.4,3,7.4,7.2c0,5.2-4,7.5-9.2,7.5C468.5,225.6,465.4,225.2,462.1,224.2z"/>
	<path class="st2" d="M490.9,225.2v-24.4h4.9v24.4H490.9z"/>
	<path class="st2" d="M500.1,225.2v-24.4h4.9l9.8,15.3h0.1v-15.3h4.8v24.4h-4.9l-9.8-14.8h-0.1v14.8H500.1z"/>
	<path class="st2" d="M529.9,224.2l0.9-4.1c3.8,0.9,6.5,1.1,8.4,1.1c2.5,0,4-1.1,4-2.8c0-2.3-2.8-2.7-5.6-3.5
		c-4.2-1.2-7.3-3.5-7.3-7.6c0-4.9,4.1-6.8,8.9-6.8c2.8,0,5.3,0.4,8.6,1.4l-1.1,4.1c-3.8-0.9-5.6-1.1-7.5-1.1c-2.5,0-3.7,1.1-3.7,2.5
		c0,2,2.6,2.7,5.6,3.4c4.2,1,7.4,3,7.4,7.2c0,5.2-4,7.5-9.2,7.5C536.4,225.6,533.3,225.2,529.9,224.2z"/>
	<path class="st2" d="M562.3,200.5c2.9,0,5.5,0.4,8.8,1.4l-1.1,4.1c-3.8-0.9-5.4-1.1-7.3-1.1c-4.5,0-6.1,3.1-6.1,8
		c0,5.2,1.5,8.4,6.1,8.4c1.9,0,3.4-0.2,7.3-1.1l1.1,4.1c-3.3,1-5.9,1.3-8.8,1.3c-8.6,0-10.9-5.7-10.9-12.7
		C551.4,205.9,553.7,200.5,562.3,200.5z"/>
	<path class="st2" d="M572.7,212.8c0-6.9,2.3-12.4,10.9-12.4s10.8,5.5,10.8,12.4c0,7-2.3,12.7-10.8,12.7S572.7,219.8,572.7,212.8z
		 M577.9,212.8c0,4.8,0.9,8.6,5.7,8.6s5.6-3.8,5.6-8.6s-0.8-8.2-5.6-8.2S577.9,208,577.9,212.8z"/>
	<path class="st2" d="M608.1,205.2v20h-4.9v-20h-6.4v-4.4h17.8v4.4H608.1z"/>
	<path class="st2" d="M623,200.8v20h11.4v4.4H618v-24.4H623z"/>
	<path class="st2" d="M651.4,219.7h-7.7l-1.6,5.5h-5.2l7.9-24.6h6l7.8,24.6H653L651.4,219.7z M647.5,206.8l-2.8,8.8h5.7L647.5,206.8
		L647.5,206.8z"/>
	<path class="st2" d="M661.1,225.2v-24.4h4.9l9.8,15.3h0.1v-15.3h4.8v24.4h-4.9l-9.8-14.8H666v14.8H661.1z"/>
	<path class="st2" d="M685,225.2v-24.4h9.1c8.4,0,10.8,5.1,10.8,12c0,7-2.4,12.4-10.8,12.4H685z M694.1,220.8c4.6,0,5.6-3.2,5.6-8
		s-1-7.6-5.6-7.6h-4.2v15.6H694.1z"/>
	<path class="st2" d="M712.8,208.7v5.2h-4.7v-5.2H712.8z M712.8,220v5.2h-4.7V220H712.8z"/>
	<path class="st2" d="M736.4,219.7h-7.7l-1.6,5.5h-5.2l7.9-24.6h6l7.8,24.6H738L736.4,219.7z M732.5,206.8l-2.8,8.8h5.7L732.5,206.8
		L732.5,206.8z"/>
	<path class="st2" d="M746.2,225.2v-24.4h4.9l9.8,15.3h0.1v-15.3h4.8v24.4h-4.9l-9.8-14.8H751v14.8H746.2z"/>
</g>
<g>
	<path class="st2" d="M134.1,255.9c0-6.9,2.3-12.4,10.9-12.4c8.6,0,10.8,5.5,10.8,12.4c0,7-2.3,12.7-10.8,12.7
		C136.4,268.6,134.1,262.8,134.1,255.9z M139.3,255.9c0,4.8,0.9,8.6,5.7,8.6s5.6-3.8,5.6-8.6s-0.8-8.2-5.6-8.2
		S139.3,251,139.3,255.9z"/>
	<path class="st2" d="M175.7,248.3h-11.5v5.2h9.9v4.4h-9.9v6h11.7v4.4h-16.7v-24.4h16.5V248.3z"/>
	<path class="st2" d="M190.3,243.5c2.9,0,5.5,0.4,8.8,1.4L198,249c-3.8-0.9-5.4-1.1-7.3-1.1c-4.5,0-6.1,3.1-6.1,8
		c0,5.2,1.5,8.4,6.1,8.4c1.9,0,3.4-0.2,7.3-1.1l1.1,4.1c-3.3,1-5.9,1.3-8.8,1.3c-8.6,0-10.9-5.7-10.9-12.7
		C179.5,249,181.8,243.5,190.3,243.5z"/>
	<path class="st2" d="M202,268.2v-24.4h9.1c8.4,0,10.8,5.1,10.8,12c0,7-2.4,12.4-10.8,12.4H202z M211.1,263.8c4.6,0,5.6-3.2,5.6-8
		s-1-7.6-5.6-7.6h-4.2v15.6H211.1z"/>
	<path class="st2" d="M237.2,259.6v8.6h-4.9v-24.4h10.4c5.1,0,8.1,3.2,8.1,7.9c0,4.8-2.9,7.9-8.1,7.9H237.2z M237.2,255.2h4.9
		c2.1,0,3.5-1,3.5-3.5c0-2.5-1.5-3.5-3.5-3.5h-4.9V255.2z"/>
	<path class="st2" d="M270.7,248.3h-11.5v5.2h9.9v4.4h-9.9v6h11.7v4.4h-16.7v-24.4h16.5V248.3z"/>
	<path class="st2" d="M288.4,268.2l-5.1-8.7h-3.5v8.7h-4.9v-24.4h10.4c5.1,0,8.1,3.1,8.1,7.9c0,3.3-1.5,6.1-4.8,7l5.7,9.5H288.4z
		 M279.7,255.1h4.8c2,0,3.6-0.9,3.6-3.4c0-2.5-1.5-3.4-3.5-3.4h-4.9V255.1z"/>
	<path class="st2" d="M296.4,267.3l0.9-4.1c3.8,0.9,6.5,1.1,8.4,1.1c2.5,0,4-1.1,4-2.8c0-2.3-2.8-2.7-5.6-3.5
		c-4.2-1.2-7.3-3.5-7.3-7.6c0-4.9,4.1-6.8,8.9-6.8c2.8,0,5.3,0.4,8.6,1.4l-1.1,4.1c-3.8-0.9-5.6-1.1-7.5-1.1c-2.5,0-3.7,1.1-3.7,2.5
		c0,2,2.6,2.7,5.6,3.4c4.2,1,7.4,3,7.4,7.2c0,5.2-4,7.5-9.2,7.5C302.8,268.6,299.7,268.2,296.4,267.3z"/>
	<path class="st2" d="M323.1,259.6v8.6h-4.9v-24.4h10.4c5.1,0,8.1,3.2,8.1,7.9c0,4.8-2.9,7.9-8.1,7.9H323.1z M323.1,255.2h4.9
		c2.1,0,3.5-1,3.5-3.5c0-2.5-1.5-3.5-3.5-3.5h-4.9V255.2z"/>
	<path class="st2" d="M356.6,248.3h-11.5v5.2h9.9v4.4h-9.9v6h11.7v4.4h-16.7v-24.4h16.5V248.3z"/>
	<path class="st2" d="M371.2,243.5c2.9,0,5.5,0.4,8.8,1.4l-1.1,4.1c-3.8-0.9-5.4-1.1-7.3-1.1c-4.5,0-6.1,3.1-6.1,8
		c0,5.2,1.5,8.4,6.1,8.4c1.9,0,3.4-0.2,7.3-1.1l1.1,4.1c-3.3,1-5.9,1.3-8.8,1.3c-8.6,0-10.9-5.7-10.9-12.7
		C360.3,249,362.6,243.5,371.2,243.5z"/>
	<path class="st2" d="M394,248.3v20h-4.9v-20h-6.4v-4.4h17.8v4.4H394z"/>
	<path class="st2" d="M403.9,268.2v-24.4h4.9v24.4H403.9z"/>
	<path class="st2" d="M422.6,262.2l5.5-18.4h5.2l-7.8,24.6h-6l-7.9-24.6h5.5L422.6,262.2L422.6,262.2z"/>
	<path class="st2" d="M452.4,248.3h-11.5v5.2h9.9v4.4h-9.9v6h11.7v4.4h-16.7v-24.4h16.5V248.3z"/>
	<path class="st2" d="M456.9,272.9l0.9-4.7c-0.6,0-1.3,0-1.9,0V263h4.7v5.2l-2.2,4.7H456.9z"/>
	<path class="st2" d="M471.5,249l-1.4-3.7c2.9-1.2,5.1-1.8,8.2-1.8c5.5,0,8.1,3.3,8.1,7.4c0,5-3.6,8.9-9.7,13.2v0.1h10.1v4.1h-16.7
		v-4.4c9.5-6,11.4-9.3,11.4-11.9c0-3.7-2.8-4.1-4.3-4.1C475.5,247.7,474,248,471.5,249z"/>
	<path class="st2" d="M489.8,255.9c0-6.9,1.8-12.4,9.1-12.4s9,5.5,9,12.4c0,7-1.7,12.7-9,12.7S489.8,262.8,489.8,255.9z
		 M494.7,255.9c0,4.8,0.9,8.9,4.1,8.9s4.1-4.1,4.1-8.9s-0.9-8.5-4.1-8.5S494.7,251,494.7,255.9z"/>
	<path class="st2" d="M511.2,251.5l-1.2-3.9c2.8-1.1,5.8-2.5,7.6-3.9h3.4v24.6h-4.7v-19.1L511.2,251.5z"/>
	<path class="st2" d="M524.5,266.8l1.4-3.6c2.5,1.2,4.4,1.5,6.5,1.5c3.1,0,4.6-1.9,4.6-4.3c0-1.9-0.9-4.2-3.9-4.2
		c-1.4,0-2.8,0.6-3.9,1.7l-3.3-0.3l0.5-13.8h14.2v4.1h-10.1l-0.3,6l0.1,0c1.1-1,2.9-1.7,4.6-1.7c4.3,0,7.2,2.7,7.2,7.9
		c0,5.6-3.5,8.4-9.2,8.4C529.9,268.6,527.5,268.1,524.5,266.8z"/>
	<path class="st2" d="M546,272.9l0.9-4.7c-0.6,0-1.3,0-1.9,0V263h4.7v5.2l-2.2,4.7H546z"/>
	<path class="st2" d="M573.2,262.7h-7.7l-1.6,5.5h-5.2l7.9-24.6h6l7.8,24.6h-5.4L573.2,262.7z M569.4,249.8l-2.8,8.8h5.7
		L569.4,249.8L569.4,249.8z"/>
	<path class="st2" d="M594.9,259.6v8.6h-4.9v-24.4h10.4c5.1,0,8.1,3.2,8.1,7.9c0,4.8-2.9,7.9-8.1,7.9H594.9z M594.9,255.2h4.9
		c2.1,0,3.6-1,3.6-3.5c0-2.5-1.5-3.5-3.6-3.5h-4.9V255.2z"/>
	<path class="st2" d="M611.6,255.9c0-6.9,2.3-12.4,10.9-12.4c8.6,0,10.8,5.5,10.8,12.4c0,7-2.3,12.7-10.8,12.7
		C613.9,268.6,611.6,262.8,611.6,255.9z M616.8,255.9c0,4.8,0.9,8.6,5.7,8.6c4.8,0,5.6-3.8,5.6-8.6s-0.8-8.2-5.6-8.2
		C617.7,247.6,616.8,251,616.8,255.9z"/>
	<path class="st2" d="M641.7,243.8v20h11.4v4.4h-16.3v-24.4H641.7z"/>
	<path class="st2" d="M656.6,268.2v-24.4h4.9v24.4H656.6z"/>
	<path class="st2" d="M675.9,243.5c2.9,0,5.5,0.4,8.8,1.4l-1.1,4.1c-3.8-0.9-5.4-1.1-7.3-1.1c-4.5,0-6.1,3.1-6.1,8
		c0,5.2,1.5,8.4,6.1,8.4c1.9,0,3.4-0.2,7.3-1.1l1.1,4.1c-3.3,1-5.9,1.3-8.8,1.3c-8.6,0-10.9-5.7-10.9-12.7
		C665,249,667.3,243.5,675.9,243.5z"/>
	<path class="st2" d="M697.5,254.6l4.8-10.8h5.3l-7.8,15.8v8.6h-4.9v-8.6l-7.9-15.8h5.6L697.5,254.6L697.5,254.6z"/>
	<path class="st2" d="M730.8,268.2l-5.1-8.7h-3.5v8.7h-4.9v-24.4h10.4c5.1,0,8.1,3.1,8.1,7.9c0,3.3-1.5,6.1-4.8,7l5.7,9.5H730.8z
		 M722.2,255.1h4.8c2,0,3.6-0.9,3.6-3.4c0-2.5-1.5-3.4-3.5-3.4h-4.9V255.1z"/>
	<path class="st2" d="M756.3,248.3h-11.5v5.2h9.9v4.4h-9.9v6h11.7v4.4h-16.7v-24.4h16.5V248.3z"/>
	<path class="st2" d="M770.3,262.2l5.5-18.4h5.2l-7.8,24.6h-6l-7.9-24.6h5.5L770.3,262.2L770.3,262.2z"/>
	<path class="st2" d="M783.7,268.2v-24.4h4.9v24.4H783.7z"/>
	<path class="st2" d="M809.3,248.3h-11.5v5.2h9.9v4.4h-9.9v6h11.7v4.4h-16.7v-24.4h16.5V248.3z"/>
	<path class="st2" d="M828.3,251.8l-3.7,16.6h-6.3l-6-24.6h5.5l3.9,18.3h0l3.9-18.3h5.8l4,18.3h0l3.8-18.3h5.2l-6,24.6h-6.3
		L828.3,251.8L828.3,251.8z"/>
</g>
<g>
	<path class="st2" d="M144.9,286.5c2.9,0,5.5,0.4,8.8,1.4l-1.1,4.1c-3.8-0.9-5.4-1.1-7.3-1.1c-4.5,0-6.1,3.1-6.1,8
		c0,5.2,1.5,8.4,6.1,8.4c1.9,0,3.4-0.2,7.3-1.1l1.1,4.1c-3.3,1-5.9,1.3-8.8,1.3c-8.6,0-10.9-5.7-10.9-12.7
		C134.1,292,136.4,286.5,144.9,286.5z"/>
	<path class="st2" d="M155.3,298.9c0-6.9,2.3-12.4,10.9-12.4S177,292,177,298.9c0,7-2.3,12.7-10.8,12.7S155.3,305.8,155.3,298.9z
		 M160.5,298.9c0,4.8,0.9,8.6,5.7,8.6s5.6-3.8,5.6-8.6s-0.8-8.2-5.6-8.2S160.5,294,160.5,298.9z"/>
	<path class="st2" d="M193.1,303L193.1,303l5.8-16.2h6.5v24.4h-4.9v-15.5h-0.1l-5.8,15.5H191l-5.7-15.5h-0.1v15.5h-4.8v-24.4h6.6
		L193.1,303z"/>
	<path class="st2" d="M222.3,303L222.3,303l5.8-16.2h6.5v24.4h-4.9v-15.5h-0.1l-5.8,15.5h-3.6l-5.7-15.5h-0.1v15.5h-4.8v-24.4h6.6
		L222.3,303z"/>
	<path class="st2" d="M238.9,311.2v-24.4h4.9v24.4H238.9z"/>
	<path class="st2" d="M247.1,310.3l0.9-4.1c3.8,0.9,6.5,1.1,8.4,1.1c2.5,0,4-1.1,4-2.8c0-2.3-2.8-2.7-5.6-3.5
		c-4.2-1.2-7.3-3.5-7.3-7.6c0-4.9,4.1-6.8,8.9-6.8c2.8,0,5.3,0.4,8.6,1.4l-1.1,4.1c-3.8-0.9-5.6-1.1-7.5-1.1c-2.5,0-3.7,1.1-3.7,2.5
		c0,2,2.6,2.7,5.6,3.4c4.2,1,7.4,3,7.4,7.2c0,5.2-4,7.5-9.2,7.5C253.5,311.6,250.4,311.2,247.1,310.3z"/>
	<path class="st2" d="M268.1,310.3l0.9-4.1c3.8,0.9,6.5,1.1,8.4,1.1c2.5,0,4-1.1,4-2.8c0-2.3-2.8-2.7-5.6-3.5
		c-4.2-1.2-7.3-3.5-7.3-7.6c0-4.9,4.1-6.8,8.9-6.8c2.8,0,5.3,0.4,8.6,1.4l-1.1,4.1c-3.8-0.9-5.6-1.1-7.5-1.1c-2.5,0-3.7,1.1-3.7,2.5
		c0,2,2.6,2.7,5.6,3.4c4.2,1,7.4,3,7.4,7.2c0,5.2-4,7.5-9.2,7.5C274.5,311.6,271.4,311.2,268.1,310.3z"/>
	<path class="st2" d="M289.9,311.2v-24.4h4.9v24.4H289.9z"/>
	<path class="st2" d="M298.2,298.9c0-6.9,2.3-12.4,10.9-12.4c8.6,0,10.8,5.5,10.8,12.4c0,7-2.3,12.7-10.8,12.7
		C300.5,311.6,298.2,305.8,298.2,298.9z M303.4,298.9c0,4.8,0.9,8.6,5.7,8.6s5.6-3.8,5.6-8.6s-0.8-8.2-5.6-8.2
		S303.4,294,303.4,298.9z"/>
	<path class="st2" d="M323.4,311.2v-24.4h4.9l9.8,15.3h0.1v-15.3h4.8v24.4H338l-9.8-14.8h-0.1v14.8H323.4z"/>
	<path class="st2" d="M363.6,291.3h-11.5v5.2h9.9v4.4h-9.9v6h11.7v4.4h-16.7v-24.4h16.5V291.3z"/>
	<path class="st2" d="M367.7,311.2v-24.4h9.1c8.4,0,10.8,5.1,10.8,12c0,7-2.4,12.4-10.8,12.4H367.7z M376.8,306.9
		c4.6,0,5.6-3.2,5.6-8s-1-7.6-5.6-7.6h-4.2v15.6H376.8z"/>
	<path class="st2" d="M412.4,298.7c2.7,0.8,4.4,2.8,4.4,5.9c0,4.2-2.7,6.7-7.8,6.7h-11v-24.4h10.3c5.1,0,7.8,2.3,7.8,6.2
		C416.1,295.7,414.6,297.8,412.4,298.7L412.4,298.7z M407.7,291.3h-4.8v5.3h4.8c2,0,3.1-0.8,3.1-2.7
		C410.9,292.1,409.8,291.3,407.7,291.3z M402.9,301v5.9h5.3c2.1,0,3.4-0.7,3.4-3c0-2.2-1.3-2.9-3.6-2.9H402.9z"/>
	<path class="st2" d="M428.1,297.7l4.8-10.8h5.3l-7.8,15.8v8.6h-4.9v-8.6l-7.9-15.8h5.6L428.1,297.7L428.1,297.7z"/>
	<path class="st2" d="M458.5,291.3v20h-4.9v-20h-6.4v-4.4h17.8v4.4H458.5z"/>
	<path class="st2" d="M468.4,311.2v-24.4h4.9v9.6h9.3v-9.6h4.9v24.4h-4.9v-10.4h-9.3v10.4H468.4z"/>
	<path class="st2" d="M508.3,291.3h-11.5v5.2h9.9v4.4h-9.9v6h11.7v4.4h-16.7v-24.4h16.5V291.3z"/>
	<path class="st2" d="M518.5,310.3l0.9-4.1c3.8,0.9,6.5,1.1,8.4,1.1c2.5,0,4-1.1,4-2.8c0-2.3-2.8-2.7-5.6-3.5
		c-4.2-1.2-7.3-3.5-7.3-7.6c0-4.9,4.1-6.8,8.9-6.8c2.8,0,5.3,0.4,8.6,1.4l-1.1,4.1c-3.8-0.9-5.6-1.1-7.5-1.1c-2.5,0-3.7,1.1-3.7,2.5
		c0,2,2.6,2.7,5.6,3.4c4.2,1,7.4,3,7.4,7.2c0,5.2-4,7.5-9.2,7.5C524.9,311.6,521.8,311.2,518.5,310.3z"/>
	<path class="st2" d="M550.8,286.5c2.9,0,5.4,0.4,8.8,1.4l-1.1,4.1c-3.8-0.9-5.4-1.1-7.3-1.1c-4.5,0-6.1,3.1-6.1,8
		c0,5.2,1.5,8.4,6.1,8.4c1.9,0,3.4-0.2,7.3-1.1l1.1,4.1c-3.3,1-5.9,1.3-8.8,1.3c-8.6,0-10.9-5.7-10.9-12.7
		C540,292,542.3,286.5,550.8,286.5z"/>
	<path class="st2" d="M561.2,298.9c0-6.9,2.3-12.4,10.9-12.4s10.8,5.5,10.8,12.4c0,7-2.3,12.7-10.8,12.7S561.2,305.8,561.2,298.9z
		 M566.4,298.9c0,4.8,0.9,8.6,5.7,8.6s5.6-3.8,5.6-8.6s-0.8-8.2-5.6-8.2S566.4,294,566.4,298.9z"/>
	<path class="st2" d="M596.6,291.3v20h-4.9v-20h-6.4v-4.4H603v4.4H596.6z"/>
	<path class="st2" d="M617.2,291.3v20h-4.9v-20h-6.4v-4.4h17.8v4.4H617.2z"/>
	<path class="st2" d="M627.1,311.2v-24.4h4.9v24.4H627.1z"/>
	<path class="st2" d="M635.3,310.3l0.9-4.1c3.8,0.9,6.5,1.1,8.4,1.1c2.5,0,4-1.1,4-2.8c0-2.3-2.8-2.7-5.6-3.5
		c-4.2-1.2-7.3-3.5-7.3-7.6c0-4.9,4.1-6.8,8.9-6.8c2.8,0,5.3,0.4,8.6,1.4L652,292c-3.8-0.9-5.6-1.1-7.5-1.1c-2.5,0-3.7,1.1-3.7,2.5
		c0,2,2.6,2.7,5.6,3.4c4.2,1,7.4,3,7.4,7.2c0,5.2-4,7.5-9.2,7.5C641.8,311.6,638.6,311.2,635.3,310.3z"/>
	<path class="st2" d="M657.1,311.2v-24.4h4.9v9.6h9.3v-9.6h4.9v24.4h-4.9v-10.4H662v10.4H657.1z"/>
	<path class="st2" d="M686.6,298.9c0-6.9,2.3-12.4,10.9-12.4c2.9,0,5.4,0.4,8.7,1.4L705,292c-3.8-0.9-5.3-1.1-7.2-1.1
		c-4.5,0-6.1,3.1-6.1,8c0,5.2,1.5,8.4,6.1,8.4c1.3,0,2.3-0.3,3.4-0.7v-4h-3.8v-4.4h8.7v11.8c-3,1.1-5.5,1.7-8.7,1.7
		C688.9,311.6,686.6,305.9,686.6,298.9z"/>
	<path class="st2" d="M710,298.9c0-6.9,2.3-12.4,10.9-12.4s10.8,5.5,10.8,12.4c0,7-2.3,12.7-10.8,12.7S710,305.8,710,298.9z
		 M715.2,298.9c0,4.8,0.9,8.6,5.7,8.6s5.6-3.8,5.6-8.6s-0.8-8.2-5.6-8.2S715.2,294,715.2,298.9z"/>
	<path class="st2" d="M743.8,305.3l5.5-18.4h5.2l-7.8,24.6h-6l-7.9-24.6h5.5L743.8,305.3L743.8,305.3z"/>
	<path class="st2" d="M773.6,291.3H762v5.2h9.9v4.4H762v6h11.7v4.4h-16.7v-24.4h16.5V291.3z"/>
	<path class="st2" d="M791.3,311.2l-5.1-8.7h-3.5v8.7h-4.9v-24.4h10.4c5.1,0,8.1,3.1,8.1,7.9c0,3.3-1.5,6.1-4.8,7l5.7,9.5H791.3z
		 M782.6,298.2h4.8c2,0,3.6-0.9,3.6-3.4c0-2.5-1.5-3.4-3.5-3.4h-4.9V298.2z"/>
	<path class="st2" d="M800.2,311.2v-24.4h4.9l9.8,15.3h0.1v-15.3h4.8v24.4h-4.9l-9.8-14.8H805v14.8H800.2z"/>
	<path class="st2" d="M836.6,303L836.6,303l5.8-16.2h6.5v24.4H844v-15.5H844l-5.8,15.5h-3.6l-5.7-15.5h-0.1v15.5H824v-24.4h6.6
		L836.6,303z"/>
	<path class="st2" d="M869.7,291.3h-11.5v5.2h9.9v4.4h-9.9v6h11.7v4.4h-16.7v-24.4h16.5V291.3z"/>
	<path class="st2" d="M873.8,311.2v-24.4h4.9l9.8,15.3h0.1v-15.3h4.8v24.4h-4.9l-9.8-14.8h-0.1v14.8H873.8z"/>
	<path class="st2" d="M908.2,291.3v20h-4.9v-20h-6.4v-4.4h17.8v4.4H908.2z"/>
</g>
</svg>
