<!-- Generator: Adobe Illustrator 19.2.1, SVG Export Plug-In  -->
<svg version="1.1"
	 xmlns="http://www.w3.org/2000/svg" xmlns:xlink="http://www.w3.org/1999/xlink" xmlns:a="http://ns.adobe.com/AdobeSVGViewerExtensions/3.0/"
	 x="0px" y="0px" width="268px" height="258px" viewBox="0 0 268 258" style="enable-background:new 0 0 268 258;"
	 xml:space="preserve">
<style type="text/css">
	.st0{clip-path:url(#SVGID_2_);fill:#EAB82A;}
	.st1{clip-path:url(#SVGID_2_);fill:#FFFFFF;}
	.st2{clip-path:url(#SVGID_4_);fill:#EAB82A;}
	.st3{clip-path:url(#SVGID_4_);fill:#FFFFFF;}
</style>
<defs>
</defs>
<g>
	<defs>
		<rect id="SVGID_1_" width="268" height="258"/>
	</defs>
	<clipPath id="SVGID_2_">
		<use xlink:href="#SVGID_1_"  style="overflow:visible;"/>
	</clipPath>
	<path class="st0" d="M134,257c69,0,125-56,125-125C259,63,203,7,134,7S9,63,9,132C9,201,65,257,134,257"/>
	<path class="st1" d="M213.1,143.8c-0.6,1.7-1.8,2.9-3.3,2.9c-0.3,0-1-0.1-1.5-0.2l-0.4,3.3c0.8,0.2,2,0.3,2.8,0.3
		c3.4,0,5.4-1.5,6.9-6l5.5-16.1h-4.3l-3.4,11.3h-0.1l-3.5-11.3h-4.5L213.1,143.8z M197.5,139.2c0,3.3,1.4,4.7,4.9,4.7
		c0.8,0,2.3-0.1,3.2-0.3l-0.3-3.1c-0.6,0.1-1.1,0.2-1.4,0.2c-1.6,0-2.3-0.8-2.3-2.2V131h3.9v-2.9h-3.9v-4.3H198l-0.5,4.3l-2.1,0.2
		v2.6h2.1V139.2z M189.6,126.8h4v-4.3h-4V126.8z M189.6,143.6h4v-15.5h-4V143.6z M182.9,143.6h4v-21.7h-4V143.6z M176.2,126.8h4
		v-4.3h-4V126.8z M176.2,143.6h4v-15.5h-4V143.6z M169.7,135.9c0,2.6-0.7,4.7-3,4.7c-1.3,0-2.3-0.6-2.8-1v-7.5c0.5-0.4,1.5-1,2.8-1
		C169,131.2,169.7,133.2,169.7,135.9 M163.8,121.9h-4v21.8h3.1l0.7-1.5h0.1c1.1,1.1,2.8,1.7,4.3,1.7c4.3,0,5.9-3.6,5.9-8.1
		c0-4.4-1.3-8.1-5.6-8.1c-1.7,0-3.4,0.8-4.4,1.9h-0.1V121.9z M150.1,131.2c2,0,3,0.5,3,2.1v1.1h-2.9c-3,0-6.5,1.1-6.5,4.8
		c0,2.7,1.7,4.8,4.8,4.8c2,0,3.3-0.5,4.6-1.9h0.1v1.5h4V133c0-4.2-2.2-5.2-6.1-5.2c-1.9,0-4.2,0.3-6.4,0.7l0.6,3.2
		C147.5,131.3,148.9,131.2,150.1,131.2 M153.1,139.9c-0.6,0.4-1.7,1-3,1c-1.3,0-2.4-0.7-2.4-2c0-1.4,0.9-2.1,2.7-2.1h2.7V139.9z
		 M131.7,132.3c0.8-0.5,2-1.2,3.3-1.2c1.8,0,2.5,1,2.5,2.8v9.7h4V133c0-3.2-1.6-5.2-4.6-5.2c-2,0-3.7,0.9-5.1,2.3h-0.1v-2h-4v15.5h4
		V132.3z M121.1,126.8h4v-4.3h-4V126.8z M121.1,143.6h4v-15.5h-4V143.6z M111.4,131.2c2,0,3,0.5,3,2.1v1.1h-2.9
		c-3,0-6.5,1.1-6.5,4.8c0,2.7,1.7,4.8,4.8,4.8c2,0,3.3-0.5,4.6-1.9h0.1v1.5h4V133c0-4.2-2.2-5.2-6.1-5.2c-1.9,0-4.2,0.3-6.4,0.7
		l0.6,3.2C108.7,131.3,110.1,131.2,111.4,131.2 M114.4,139.9c-0.6,0.4-1.7,1-3,1c-1.3,0-2.4-0.7-2.4-2c0-1.4,0.9-2.1,2.7-2.1h2.7
		V139.9z M95,139.2c0,3.3,1.4,4.7,4.9,4.7c0.8,0,2.3-0.1,3.2-0.3l-0.3-3.1c-0.6,0.1-1.1,0.2-1.4,0.2c-1.6,0-2.3-0.8-2.3-2.2V131h3.9
		v-2.9H99v-4.3h-3.5l-0.5,4.3l-2.1,0.2v2.6H95V139.2z M91.6,138.9c0-3.6-3.4-4.4-6.3-5c-2-0.4-2.5-0.8-2.5-1.6
		c0-0.5,0.5-1.3,2.3-1.3c1.2,0,3,0.1,5.6,0.7l0.7-3.2c-1.9-0.5-4-0.7-6.5-0.7c-3.8,0-6.1,1.3-6.1,4.6c0,3.5,2.7,4.6,6.2,5.2
		c1.9,0.4,2.7,0.7,2.7,1.5c0,0.6-0.6,1.5-2.5,1.5c-1.2,0-3.3-0.1-5.9-0.7l-0.7,3.2c1.9,0.5,4.6,0.7,7.1,0.7
		C89.2,143.9,91.6,142.4,91.6,138.9 M72.2,139.4c-0.8,0.5-2,1.2-3.3,1.2c-1.6,0-2.5-1-2.5-2.8v-9.7h-4v10.6c0,3.2,1.5,5.2,4.6,5.2
		c2,0,3.7-0.9,5.1-2.3h0.1v2h4v-15.5h-4V139.4z M51.9,143.9c4.5,0,8-2,8-6.5c0-3.7-2.7-5.4-6.4-6.3c-2.5-0.6-4.8-1.2-4.8-2.9
		c0-1.3,1-2.2,3.2-2.2c1.6,0,3.2,0.2,6.5,0.9l1-3.6c-2.9-0.9-5.1-1.2-7.4-1.2c-4.2,0-7.7,1.6-7.7,5.9c0,3.6,2.6,5.6,6.3,6.6
		c2.4,0.7,4.9,1.1,4.9,3c0,1.4-1.3,2.4-3.5,2.4c-1.6,0-4-0.2-7.3-0.9l-0.7,3.6C46.7,143.6,49.4,143.9,51.9,143.9"/>
</g>
</svg>
