<!-- Generator: Adobe Illustrator 19.2.1, SVG Export Plug-In  -->
<svg version="1.1"
	 xmlns="http://www.w3.org/2000/svg" xmlns:xlink="http://www.w3.org/1999/xlink" xmlns:a="http://ns.adobe.com/AdobeSVGViewerExtensions/3.0/"
	 x="0px" y="0px" width="608px" height="598px" viewBox="0 0 608 598" style="enable-background:new 0 0 608 598;"
	 xml:space="preserve">
<style type="text/css">
	.st0{clip-path:url(#SVGID_2_);fill:#1C303D;}
	.st1{fill:#FFFFFF;}
	.st2{clip-path:url(#SVGID_4_);fill:#1C303D;}
</style>
<defs>
</defs>
<g>
	<defs>
		<rect id="SVGID_1_" width="608" height="598"/>
	</defs>
	<clipPath id="SVGID_2_">
		<use xlink:href="#SVGID_1_"  style="overflow:visible;"/>
	</clipPath>
	<path class="st0" d="M304,597c162.9,0,295-132.1,295-295S466.9,7,304,7S9,139.1,9,302S141.1,597,304,597"/>
</g>
<g>
	<path class="st1" d="M186.7,144.5h-37.4v-17.5h59v14c-12.1,21.5-23.8,43.1-29,75.6h-22.1c4-22.8,15.7-51,29.5-71.8V144.5z"/>
	<path class="st1" d="M209.9,233.7l3.6-17.1c-2.6,0-5.4,0-8,0v-20h19.8v20l-9.4,17.1H209.9z"/>
	<path class="st1" d="M236.4,211.3l5.8-15.2c9.4,4.1,15.9,5.4,23.8,5.4c10.7,0,15-6.3,15-13.8c0-6.1-2.8-13.6-12.9-13.6
		c-4.5,0-9.1,1.6-12.6,5.1l-14-1.2l1.4-51.1h53.8v17.5h-36.6l-0.9,17.8l0.3,0.1c4.1-3,10.3-5.1,15.9-5.1c15.7,0,26.6,10,26.6,29.4
		c0,20.7-13,31.2-34.8,31.2C256.7,217.8,247.7,216.4,236.4,211.3z"/>
	<path class="st1" d="M310.4,171.1c0-25.6,6.6-45.5,34.1-45.5c27.5,0,34.1,19.9,34.1,45.5c0,25.6-6.6,46.8-34.1,46.8
		C317,217.8,310.4,196.6,310.4,171.1z M331.4,171.1c0,17.1,2.9,30.4,13.2,30.4c10.3,0,13.2-13.3,13.2-30.4
		c0-17.1-2.9-29.1-13.2-29.1C334.3,142,331.4,153.9,331.4,171.1z"/>
	<path class="st1" d="M388.2,171.1c0-25.6,6.6-45.5,34.1-45.5c27.5,0,34.1,19.9,34.1,45.5c0,25.6-6.6,46.8-34.1,46.8
		C394.7,217.8,388.2,196.6,388.2,171.1z M409.1,171.1c0,17.1,2.9,30.4,13.2,30.4c10.3,0,13.2-13.3,13.2-30.4
		c0-17.1-2.9-29.1-13.2-29.1C412,142,409.1,153.9,409.1,171.1z"/>
</g>
<g>
	<path class="st1" d="M146,265.3h-5.2v-9.5l5.2-0.9l1.7-12.1h13v12.1h9.5v10.4h-9.5v18c0,2.6,1.7,4,5.2,4c0.9,0,2.2-0.2,3.5-0.4
		l1.3,11.2c-2.6,0.5-7.3,0.9-9.9,0.9c-10.8,0-14.7-4.5-14.7-13V265.3z"/>
	<path class="st1" d="M188.7,279.9c0.4,4.3,3.8,6.9,9.5,6.9c3.2,0,7.3,0,13.4-1.7l1.7,11.7c-6,1.7-11.7,2.2-17.3,2.2
		c-17.3,0-23.3-8.6-23.3-22.5c0-13.8,6-22.5,23.3-22.5c12.7,0,17.6,5.2,19,12.9c0.7,3.8,0.4,8.3-0.2,13H188.7z M188.7,270.9h11.7
		c0.1-0.9,0.1-1.6,0-2.3c-0.3-2.1-1.6-3.3-5.2-3.3C191.3,265.3,189.1,267,188.7,270.9z"/>
	<path class="st1" d="M222.4,267.9l-2.2-11.7c6.5-1.3,13.4-2.2,19-2.2c11.7,0,18.1,2.6,18.1,14.7v29.4h-14.7v-4.3
		c-0.1,0-0.1,0-0.2,0c-3.3,3.9-6.7,5.2-11.9,5.2c-8.6,0-13-6.5-13-13.8c0-11.4,11.2-13.8,18.1-13.8h6.9v-1.7c0-3.2-2.7-3.5-6.9-3.5
		C232.3,266.1,228.5,266.6,222.4,267.9z M242.7,279.9h-6c-2.2,0-4.3,0.9-4.3,3.9c0,3,2.6,3.9,4.3,3.9c2.2,0,4.7-0.8,6-1.7V279.9z"/>
	<path class="st1" d="M285.1,254c5.6,0,10.4,0.9,15.5,2.2l-2.6,11.7c-7.3-1.7-9.5-1.7-13-1.7c-4.3,0-7.8,2.6-7.8,10.4
		s3.5,10.4,7.8,10.4c3.5,0,5.6,0,13-1.7l2.6,11.7c-5.2,1.3-9.9,2.2-15.5,2.2c-17.7,0-23.3-8.6-23.3-22.5
		C261.8,262.7,267.4,254,285.1,254z"/>
	<path class="st1" d="M319,298.1h-14.7v-60.4H319v22.5h0.2c3.3-3.9,7.6-6,12.8-6c8.6,0,13,6,13,14.7v29.4h-14.7v-25.9
		c0-4.3-1.7-6-5.2-6c-2.2,0-4.3,0.9-6,1.7V298.1z"/>
	<path class="st1" d="M365.3,279.9c0.4,4.3,3.8,6.9,9.5,6.9c3.2,0,7.3,0,13.4-1.7l1.7,11.7c-6,1.7-11.7,2.2-17.3,2.2
		c-17.3,0-23.3-8.6-23.3-22.5c0-13.8,6-22.5,23.3-22.5c12.7,0,17.6,5.2,19,12.9c0.7,3.8,0.4,8.3-0.2,13H365.3z M365.3,270.9h11.7
		c0.1-0.9,0.1-1.6,0-2.3c-0.3-2.1-1.6-3.3-5.2-3.3C367.9,265.3,365.7,267,365.3,270.9z"/>
	<path class="st1" d="M411,298.1h-14.7v-43.2H411v6.9h0.2c2-3.9,6.7-7.8,13.6-7.8v13.8c-5.2,0-10.4,0.3-13.8,1.7V298.1z"/>
	<path class="st1" d="M447.6,298.9c-7.3,0-15.5-0.9-20.7-2.2l2.6-11.7c7.3,1.7,13,2.2,16.4,2.2c3,0,5.2-0.4,5.2-2
		c0-1.5-2.6-1.5-5.2-1.9c-10.4-1.7-18.1-5.2-18.1-15.5c0-10.4,7.3-13.8,18.1-13.8c7.3,0,13.8,0.9,19,2.2l-2.6,11.7
		c-7.3-1.7-12.1-2.2-15.5-2.2c-2.6,0-4.3,0.3-4.3,1.7c0,1.3,1.4,1.4,4.8,2.2c7.3,1.7,18.6,3.5,18.6,14.7
		C465.8,294.6,458.4,298.9,447.6,298.9z"/>
</g>
<g>
	<path class="st1" d="M168.2,338.2h0.1c1.9-1.8,4.9-3,8-3c7,0,9.4,5.7,9.4,13s-2.5,13-9.5,13c-3.1,0-5.9-1.2-7.8-2.9h-0.1v12.4h-3.5
		v-35.1h3.5V338.2z M175,338.2c-3.1,0-5.6,1.5-6.8,2.4v15.4c1.2,1,3.7,2.4,6.8,2.4c5.4,0,7-4.7,7-10.1
		C182,342.9,180.4,338.2,175,338.2z"/>
	<path class="st1" d="M191.4,325.7h3.5v35.1h-3.5V325.7z"/>
	<path class="st1" d="M202.2,339.1l-0.6-2.9c3.3-0.7,6.7-1,9.3-1c5.8,0,9,1.8,9,8.2v17.4h-3.5v-2.5c-0.1,0-0.1,0-0.1,0
		c-2.6,2.1-4.9,3-8.2,3c-5,0-8.2-2.8-8.2-7.2c0-5.4,4.2-7.6,10.5-7.6h5.9v-2.9c0-3.7-1.7-5.5-6.2-5.5
		C208.4,338.2,206,338.3,202.2,339.1z M216.4,348.7h-5.7c-5.5,0-7.2,2-7.2,5.1c0,2.9,2.2,4.8,6,4.8c3.3,0,5.7-1.4,7-2.4V348.7z"/>
	<path class="st1" d="M237.6,335.2c3.1,0,5.4,0.4,8.4,1.1l-0.7,2.9c-3.9-1-6-1-7.7-1c-6,0-8.3,4.3-8.3,10.1s2.3,10.1,8.3,10.1
		c1.7,0,3.8,0,7.7-1l0.7,2.9c-3,0.8-5.3,1.1-8.4,1.1c-8.9,0-12-5.3-12-13C225.6,340.5,228.7,335.2,237.6,335.2z"/>
	<path class="st1" d="M252.8,348.7c0.1,5.6,2.4,9.6,9,9.6c2.6,0,5-0.2,7.8-1l0.5,2.9c-3,0.9-5.5,1.1-8.8,1.1
		c-9.1,0-12.3-5.3-12.3-13c0-7.7,3.2-13,12-13c7.8,0,9.7,4.8,9.8,9c0.1,1.5-0.1,3-0.4,4.5H252.8z M252.8,346.4H267
		c0.2-1,0.3-2,0.2-3c-0.2-2.9-1.9-5.5-6.4-5.5C255,338,253.1,341.7,252.8,346.4z"/>
	<path class="st1" d="M293,358.3c-0.1,0-0.1,0-0.1,0c-1.9,1.8-4.9,3-8,3c-7,0-9.3-5.7-9.3-13s2.5-13,9.5-13c3,0,5.9,1.2,7.8,2.9
		c0.1,0,0.1,0,0.1,0v-12.4h3.5v35.1H293V358.3z M286.3,358.4c3.1,0,5.6-1.5,6.8-2.4v-15.4c-1.2-1-3.7-2.4-6.8-2.4
		c-5.4,0-7,4.7-7,10.1C279.3,353.7,280.8,358.4,286.3,358.4z"/>
	<path class="st1" d="M312.2,348.3c0-7.7,3.1-13,11.2-13s11.2,5.3,11.2,13c0,7.7-3.1,13-11.2,13S312.2,356,312.2,348.3z
		 M315.9,348.3c0,5.6,1.7,10.1,7.5,10.1s7.5-4.5,7.5-10.1c0-5.6-1.7-10.1-7.5-10.1S315.9,342.7,315.9,348.3z"/>
	<path class="st1" d="M343.8,360.8h-3.5v-25.1h3.5v3.7h0.1c2.6-2.5,5.7-4.2,9.3-4.2c5,0,7.5,2.9,7.5,8.2v17.4h-3.5v-16.6
		c0-3.5-1.4-6-5.5-6c-3.3,0-6.3,2.1-7.9,3.4V360.8z"/>
	<path class="st1" d="M378.8,338.3h-4V336l4-0.3l0.5-7h3.1v7h7.4v2.6h-7.4v14.6c0,3.7,1,5.6,4.6,5.6c0.8,0,1.6-0.1,2.8-0.3l0.4,2.8
		c-1.3,0.2-3.1,0.4-4.2,0.4c-4.9,0-7-2-7-7.9V338.3z"/>
	<path class="st1" d="M398.7,360.8h-3.5v-35.1h3.5v13.7h0.1c2.6-2.5,5.7-4.2,9.3-4.2c5,0,7.5,2.9,7.5,8.2v17.4h-3.5v-16.6
		c0-3.5-1.4-6-5.5-6c-3.3,0-6.3,2.1-7.9,3.4V360.8z"/>
	<path class="st1" d="M425.1,348.7c0.1,5.6,2.4,9.6,9,9.6c2.6,0,5-0.2,7.8-1l0.5,2.9c-3,0.9-5.5,1.1-8.8,1.1
		c-9.1,0-12.3-5.3-12.3-13c0-7.7,3.2-13,12-13c7.8,0,9.7,4.8,9.8,9c0.1,1.5-0.1,3-0.4,4.5H425.1z M425.1,346.4h14.2
		c0.2-1,0.3-2,0.2-3c-0.2-2.9-1.9-5.5-6.4-5.5C427.4,338,425.5,341.7,425.1,346.4z"/>
</g>
<g>
	<path class="st1" d="M129.5,392.7v30.8h-3.7v-30.8h-9.6v-3.3h23v3.3H129.5z"/>
	<path class="st1" d="M143.4,411.5c0.1,5.6,2.4,9.6,9,9.6c2.6,0,5-0.2,7.8-1l0.5,2.9c-3,0.9-5.5,1.1-8.8,1.1
		c-9.1,0-12.3-5.3-12.3-13s3.2-13,12-13c7.8,0,9.7,4.8,9.8,9c0.1,1.5-0.1,3-0.4,4.5H143.4z M143.4,409.1h14.2c0.2-1,0.3-2,0.2-3
		c-0.2-2.9-1.9-5.5-6.4-5.5C145.6,400.7,143.7,404.5,143.4,409.1z"/>
	<path class="st1" d="M167.5,401.8l-0.6-2.9c3.3-0.7,6.7-1,9.3-1c5.8,0,9,1.8,9,8.2v17.4h-3.5V421c-0.1,0-0.1,0-0.1,0
		c-2.6,2.1-4.9,3-8.2,3c-5,0-8.2-2.8-8.2-7.2c0-5.4,4.2-7.6,10.5-7.6h5.9v-2.9c0-3.7-1.7-5.5-6.2-5.5
		C173.6,400.9,171.2,401.1,167.5,401.8z M181.7,411.5H176c-5.5,0-7.2,2-7.2,5.1c0,2.9,2.2,4.8,6,4.8c3.3,0,5.7-1.4,7-2.4V411.5z"/>
	<path class="st1" d="M202.8,398c3.1,0,5.4,0.4,8.4,1.1l-0.7,2.9c-3.9-1-6-1-7.7-1c-6,0-8.3,4.3-8.3,10.1s2.3,10.1,8.3,10.1
		c1.7,0,3.8,0,7.7-1l0.7,2.9c-3,0.8-5.3,1.1-8.4,1.1c-8.9,0-12-5.3-12-13S194,398,202.8,398z"/>
	<path class="st1" d="M219.3,423.5h-3.5v-35.1h3.5v13.7h0.1c2.6-2.5,5.7-4.2,9.3-4.2c5,0,7.5,2.9,7.5,8.2v17.4h-3.5v-16.6
		c0-3.5-1.4-6-5.5-6c-3.3,0-6.3,2.1-7.9,3.4V423.5z"/>
	<path class="st1" d="M245.7,411.5c0.1,5.6,2.4,9.6,9,9.6c2.6,0,5-0.2,7.8-1l0.5,2.9c-3,0.9-5.5,1.1-8.8,1.1
		c-9.1,0-12.3-5.3-12.3-13s3.2-13,12-13c7.8,0,9.7,4.8,9.8,9c0.1,1.5-0.1,3-0.4,4.5H245.7z M245.7,409.1h14.2c0.2-1,0.3-2,0.2-3
		c-0.2-2.9-1.9-5.5-6.4-5.5C247.9,400.7,246,404.5,245.7,409.1z"/>
	<path class="st1" d="M272.5,423.5h-3.5v-25.1h3.5v4h0.1c2.3-2.3,5.8-4.5,9.8-4.5v3.3c-4,0-7.9,2-9.9,3.4V423.5z"/>
	<path class="st1" d="M298,423.5v-34.1h3.7v34.1H298z"/>
	<path class="st1" d="M312.2,423.5h-3.5v-25.1h3.5v3.7h0.1c2.6-2.5,5.7-4.2,9.3-4.2c5,0,7.5,2.9,7.5,8.2v17.4h-3.5v-16.6
		c0-3.5-1.4-6-5.5-6c-3.3,0-6.3,2.1-7.9,3.4V423.5z"/>
	<path class="st1" d="M352.3,421c0,0,0,0-0.1,0c-1.9,1.8-4.9,3-8,3c-7,0-9.3-5.7-9.3-13s2.5-13,9.5-13c3,0,5.9,1.2,7.8,2.9
		c0.1,0,0.1,0,0.1,0v-12.4h3.5v35.1h-3.5V421z M345.5,421.1c3.1,0,5.6-1.5,6.8-2.4v-15.4c-1.2-1-3.7-2.4-6.8-2.4
		c-5.4,0-7,4.7-7,10.1C338.5,416.4,340.1,421.1,345.5,421.1z"/>
	<path class="st1" d="M379.1,398.5h3.5v25.1h-3.5v-3.6H379c-2.6,2.4-5.7,4.1-9.3,4.1c-5,0-7.5-2.9-7.5-8.2v-17.4h3.5v16.6
		c0,3.5,1.4,6,5.5,6c3.3,0,6.3-2.1,7.9-3.4V398.5z"/>
	<path class="st1" d="M400.2,398c3.1,0,5.4,0.4,8.4,1.1l-0.7,2.9c-3.9-1-6-1-7.7-1c-6,0-8.3,4.3-8.3,10.1s2.3,10.1,8.3,10.1
		c1.7,0,3.8,0,7.7-1l0.7,2.9c-3,0.8-5.3,1.1-8.4,1.1c-8.9,0-12-5.3-12-13S391.3,398,400.2,398z"/>
	<path class="st1" d="M416.2,401h-4v-2.3l4-0.3l0.5-7h3.1v7h7.4v2.6h-7.4v14.6c0,3.7,1,5.6,4.6,5.6c0.8,0,1.6-0.1,2.8-0.3l0.4,2.8
		c-1.3,0.2-3.1,0.4-4.2,0.4c-4.9,0-7-2-7-7.9V401z"/>
	<path class="st1" d="M436.1,389.4v6h-3.5v-6H436.1z M436.1,398.5v25.1h-3.5v-25.1H436.1z"/>
	<path class="st1" d="M441.7,411c0-7.7,3.1-13,11.2-13c8.2,0,11.2,5.3,11.2,13s-3.1,13-11.2,13C444.8,424,441.7,418.7,441.7,411z
		 M445.4,411c0,5.6,1.7,10.1,7.5,10.1c5.8,0,7.5-4.5,7.5-10.1c0-5.6-1.7-10.1-7.5-10.1C447.2,400.9,445.4,405.4,445.4,411z"/>
	<path class="st1" d="M473.4,423.5h-3.5v-25.1h3.5v3.7h0.1c2.6-2.5,5.7-4.2,9.3-4.2c5,0,7.5,2.9,7.5,8.2v17.4h-3.5v-16.6
		c0-3.5-1.4-6-5.5-6c-3.3,0-6.3,2.1-7.9,3.4V423.5z"/>
</g>
<g>
	<path class="st1" d="M218.7,485.1l0.7-3.1c5.1,1.3,8.5,1.5,11.3,1.5c5.8,0,8.1-3.2,8.1-6.2c0-4.6-5.3-5.8-8.8-6.8
		c-5.4-1.4-10.7-4.3-10.7-10.1c0-6.3,5.1-8.8,11.5-8.8c3.7,0,7.2,0.5,11.3,1.7l-0.9,3.1c-5.1-1.3-7.6-1.5-10.4-1.5
		c-5.8,0-7.6,2.7-7.6,5.6c0,4.4,5.7,6,9.3,6.9c5.4,1.2,10.3,3.7,10.3,9.6c0,6.5-5.1,9.8-12,9.8C227,486.8,222.8,486.3,218.7,485.1z"
		/>
	<path class="st1" d="M260.1,460.7c3.1,0,5.4,0.4,8.4,1.1l-0.7,2.9c-3.9-1-6-1-7.7-1c-6,0-8.3,4.3-8.3,10.1s2.3,10.1,8.3,10.1
		c1.7,0,3.8,0,7.7-1l0.7,2.9c-3,0.8-5.3,1.1-8.4,1.1c-8.9,0-12-5.3-12-13S251.2,460.7,260.1,460.7z"/>
	<path class="st1" d="M276.5,486.3H273v-35.1h3.5v13.7h0.1c2.6-2.5,5.7-4.2,9.3-4.2c5,0,7.5,2.9,7.5,8.2v17.4H290v-16.6
		c0-3.5-1.4-6-5.5-6c-3.3,0-6.3,2.1-7.9,3.4V486.3z"/>
	<path class="st1" d="M302.9,474.2c0.1,5.6,2.4,9.6,9,9.6c2.6,0,5-0.2,7.8-1l0.5,2.9c-3,0.9-5.5,1.1-8.8,1.1
		c-9.1,0-12.3-5.3-12.3-13s3.2-13,12-13c7.8,0,9.7,4.8,9.8,9c0.1,1.5-0.1,3-0.4,4.5H302.9z M302.9,471.9h14.2c0.2-1,0.3-2,0.2-3
		c-0.2-2.9-1.9-5.5-6.4-5.5C305.2,463.4,303.3,467.2,302.9,471.9z"/>
	<path class="st1" d="M329.7,486.3h-3.5v-25.1h3.5v3.7h0.1c2.1-2.1,4.7-4.2,8.4-4.2s6,1.6,6.9,4.5c2.3-2.5,5.5-4.5,9.1-4.5
		c5,0,7.5,2.9,7.5,8.2v17.4h-3.5v-16.6c0-3.5-1.4-6-5.5-6c-3,0-5.5,2.1-7.1,3.5c0.1,0.8,0.2,1.7,0.2,2.7v16.5h-3.5v-16.8
		c0-3.4-1.5-5.9-5.5-5.9c-3,0-5.3,2-7,3.4V486.3z"/>
	<path class="st1" d="M371.2,474.2c0.1,5.6,2.4,9.6,9,9.6c2.6,0,5-0.2,7.8-1l0.5,2.9c-3,0.9-5.5,1.1-8.8,1.1
		c-9.1,0-12.3-5.3-12.3-13s3.2-13,12-13c7.8,0,9.7,4.8,9.8,9c0.1,1.5-0.1,3-0.4,4.5H371.2z M371.2,471.9h14.2c0.2-1,0.3-2,0.2-3
		c-0.2-2.9-1.9-5.5-6.4-5.5C373.4,463.4,371.5,467.2,371.2,471.9z"/>
</g>
</svg>
