<!-- Generator: Adobe Illustrator 19.2.1, SVG Export Plug-In  -->
<svg version="1.1"
	 xmlns="http://www.w3.org/2000/svg" xmlns:xlink="http://www.w3.org/1999/xlink" xmlns:a="http://ns.adobe.com/AdobeSVGViewerExtensions/3.0/"
	 x="0px" y="0px" width="148.4px" height="119.1px" viewBox="0 0 148.4 119.1" style="enable-background:new 0 0 148.4 119.1;"
	 xml:space="preserve">
<style type="text/css">
	.st0{clip-path:url(#SVGID_2_);fill:#2B5972;}
	.st1{clip-path:url(#SVGID_4_);fill:#2B5972;}
</style>
<defs>
</defs>
<g>
	<defs>
		<rect id="SVGID_1_" y="0" width="148.4" height="119.1"/>
	</defs>
	<clipPath id="SVGID_2_">
		<use xlink:href="#SVGID_1_"  style="overflow:visible;"/>
	</clipPath>
	<path class="st0" d="M143.2,29.5v80.5H84.7l-5.2,3.9H68.8l-5.2-3.9H5.2V29.5h8.4v73.1h40.7c6.6,0,13,1.8,18.6,5.2l1.3,0.8l1.3-0.8
		c5.6-3.4,12-5.2,18.6-5.2h40.7V29.5H143.2z M134.8,17.9h-16.7c1,1.7,1.8,3.4,2.6,5.2h8.9v74.4H94.1c-6.5,0-14.2,1.9-20,4.9
		c-5.8-3-13.4-4.9-20-4.9H18.7V23.1h7.9c0.8-1.8,1.7-3.5,2.6-5.2l-15.7,0v6.5H0v90.8h61.5l5.2,3.9h15l5.2-3.9h61.5V24.4h-13.5V17.9z
		"/>
	<path class="st0" d="M40,20.2c4-5.7,9.4-10.4,15.7-13.4l7.2-3.5l-5,6.2c-1.4,1.7-2.8,3.6-4.1,6.2h2.8C59.8,9,64.3,4.8,70,3.1
		l2.3-0.7v13.2h2.6V2.5L77,3c5.7,1.5,10.4,5.8,13.7,12.6h2.8c-1.2-2.6-2.7-4.5-4.1-6.2l-5-6.2l7.2,3.5c6.2,3.1,11.7,7.7,15.7,13.4
		l2,2.8H38L40,20.2z M114.8,42.4H32.6l0.2-1.9c0.4-4.8,1.6-9.5,3.6-13.8l0.5-1h14l-0.5,2.2c-0.5,2.4-1,4.6-1.3,7.5h2.6
		c0.3-3.2,0.9-5.7,1.6-8.3l0.3-1.3h18.8v9.7h2.6v-9.7h19.1l0.3,1.4c0.7,2.6,1.2,5.1,1.6,8.3h2.6c-0.3-2.9-0.8-5.1-1.3-7.5l-0.5-2.2
		h14l0.5,1c2,4.4,3.2,9,3.6,13.8L114.8,42.4z M114.6,46.9c-0.4,4.8-1.6,9.5-3.6,13.8l-0.5,1h-14l0.5-2.2c0.5-2.4,1-4.6,1.3-7.5h-2.6
		c-0.3,3.2-0.9,5.7-1.6,8.3l-0.3,1.3H75.1v-9.7h-2.6v9.7H53.5l-0.3-1.4c-0.7-2.6-1.2-5.1-1.6-8.3h-2.6c0.3,2.9,0.8,5.1,1.3,7.5
		l0.5,2.2h-14l-0.5-1c-2-4.4-3.2-9-3.6-13.8L32.6,45h82.2L114.6,46.9z M107.4,67.2c-4,5.7-9.4,10.4-15.7,13.4l-7.2,3.5l5-6.2
		c1.4-1.7,2.8-3.6,4.1-6.2h-2.8c-3.2,6.7-7.7,10.9-13.3,12.5l-2.3,0.6V71.7h-2.6v13.2l-2.2-0.6c-5.7-1.5-10.4-5.8-13.7-12.6h-2.8
		c1.2,2.6,2.7,4.5,4,6.2l5,6.2l-7.2-3.5C49.4,77.5,44,72.9,40,67.2l-2-2.8h71.3L107.4,67.2z M30,43.7c0,24.1,19.6,43.7,43.7,43.7
		c24.1,0,43.7-19.6,43.7-43.7C117.4,19.6,97.8,0,73.7,0C49.6,0,30,19.6,30,43.7"/>
</g>
</svg>
