<!-- Generator: Adobe Illustrator 19.2.1, SVG Export Plug-In  -->
<svg version="1.1"
	 xmlns="http://www.w3.org/2000/svg" xmlns:xlink="http://www.w3.org/1999/xlink" xmlns:a="http://ns.adobe.com/AdobeSVGViewerExtensions/3.0/"
	 x="0px" y="0px" width="439.7px" height="135.3px" viewBox="0 0 439.7 135.3" style="enable-background:new 0 0 439.7 135.3;"
	 xml:space="preserve">
<style type="text/css">
	.st0{fill:#2B5972;}
</style>
<defs>
</defs>
<g>
	<path class="st0" d="M40.4,18.3c-3.9-2.3-9.2-4.6-15.6-4.6c-5,0-8.6,1.7-8.6,4.9c0,3.4,5.2,4.3,11.2,5.3l2.3,0.4
		C40.2,26.1,46.9,31,46.9,40c0,13-11.2,18.4-22.9,18.4c-9.1,0-18-2.4-24-6.9l6.5-10.6c4.2,2.8,9.9,5.7,17.6,5.7
		c4.9,0,8.7-1.7,8.7-5.1c0-3.3-3.7-4.2-10.8-5.3l-2.7-0.4C8,34,2,28.9,2.1,19.1c0.2-10.6,9.2-17.3,22-17.3c7.4,0,13.8,1.2,22,5.8
		L40.4,18.3z"/>
	<path class="st0" d="M89,41c0,12-8.3,17.4-18.4,17.4C60.3,58.4,52,53,52,41V19.1h12.2v20.8c0,4.9,2.6,7.1,6.3,7.1
		c3.6,0,6.3-2.2,6.3-7.1V19.1H89V41z"/>
	<path class="st0" d="M130.2,26.4l-9.6,6.7c-1.9-2.5-4.1-3.7-7.1-3.7c-4.3,0-7.9,3.3-7.9,8.8c0,5.5,3.5,8.8,7.8,8.8
		c2.9,0,5.3-1.3,7.2-3.7l9.5,6.8c-3.7,5.2-9.3,8.3-16.4,8.3c-12.2,0-20.6-8.5-20.6-20.2c0-11.7,8.4-20.2,20.6-20.2
		C120.9,18.1,126.5,21.2,130.2,26.4z"/>
	<path class="st0" d="M167.9,26.4l-9.6,6.7c-1.9-2.5-4.1-3.7-7.1-3.7c-4.3,0-7.9,3.3-7.9,8.8c0,5.5,3.5,8.8,7.8,8.8
		c2.9,0,5.3-1.3,7.2-3.7l9.5,6.8c-3.7,5.2-9.3,8.3-16.4,8.3c-12.2,0-20.6-8.5-20.6-20.2c0-11.7,8.4-20.2,20.6-20.2
		C158.6,18.1,164.2,21.2,167.9,26.4z"/>
	<path class="st0" d="M207.4,38.2c0,1.2-0.1,3-0.2,3.8h-25.9c1,4.2,4,6.1,8.2,6.1c2.8,0,5.9-1.2,8.3-3.4l7.9,7.3
		c-4,4-9.8,6.3-16.8,6.3c-12,0-20.2-8-20.2-19.9c0-12.1,8-20.4,19.6-20.4C199.6,18.1,207.4,26.2,207.4,38.2z M181.3,34.3h13.9
		c-1-3.8-3.4-5.9-6.9-5.9C184.5,28.4,182.2,30.5,181.3,34.3z"/>
	<path class="st0" d="M240.6,30.9c-3.8-1.6-8.7-2.9-12.6-3c-3.2,0-4.4,0.9-4.4,2.3c0,1.6,2.4,2,6.2,2.6l2.8,0.4
		c8.2,1.2,12.5,5.2,12.5,11.6c0,8.4-6.6,13.4-17.7,13.4c-6.6,0-13.3-1.2-17.7-4l4.3-9.4c3.8,2.3,8.2,3.6,13.5,3.6
		c3.8,0,5.3-0.9,5.3-2.5c0-1.5-1.7-2.1-6-2.7l-2.2-0.3c-9.2-1.4-13.5-5.2-13.5-12.1c0-8.2,6.1-12.8,16.5-12.8
		c6.2,0,10.2,0.9,16.5,3.3L240.6,30.9z"/>
	<path class="st0" d="M278.3,30.9c-3.8-1.6-8.7-2.9-12.6-3c-3.2,0-4.4,0.9-4.4,2.3c0,1.6,2.4,2,6.2,2.6l2.8,0.4
		c8.2,1.2,12.5,5.2,12.5,11.6c0,8.4-6.6,13.4-17.7,13.4c-6.6,0-13.3-1.2-17.7-4l4.3-9.4c3.8,2.3,8.2,3.6,13.5,3.6
		c3.8,0,5.3-0.9,5.3-2.5c0-1.5-1.7-2.1-6-2.7l-2.2-0.3c-9.2-1.4-13.5-5.2-13.5-12.1c0-8.2,6.1-12.8,16.5-12.8
		c6.2,0,10.2,0.9,16.5,3.3L278.3,30.9z"/>
	<path class="st0" d="M324,38.2c0,1.2-0.1,3-0.2,3.8h-25.9c1,4.2,4,6.1,8.2,6.1c2.8,0,5.9-1.2,8.3-3.4l7.9,7.3
		c-4,4-9.8,6.3-16.8,6.3c-12,0-20.2-8-20.2-19.9c0-12.1,8-20.4,19.6-20.4C316.2,18.1,324,26.2,324,38.2z M297.9,34.3h13.9
		c-1-3.8-3.4-5.9-6.9-5.9C301.1,28.4,298.8,30.5,297.9,34.3z"/>
	<path class="st0" d="M357.2,30.9c-3.8-1.6-8.7-2.9-12.6-3c-3.2,0-4.4,0.9-4.4,2.3c0,1.6,2.4,2,6.2,2.6l2.8,0.4
		c8.2,1.2,12.5,5.2,12.5,11.6c0,8.4-6.6,13.4-17.7,13.4c-6.6,0-13.3-1.2-17.7-4l4.3-9.4c3.8,2.3,8.2,3.6,13.5,3.6
		c3.8,0,5.3-0.9,5.3-2.5c0-1.5-1.7-2.1-6-2.7l-2.2-0.3c-9.2-1.4-13.5-5.2-13.5-12.1c0-8.2,6.1-12.8,16.5-12.8
		c6.2,0,10.2,0.9,16.5,3.3L357.2,30.9z"/>
	<path class="st0" d="M397.4,7.3c0,4.1-3.2,7.3-7.3,7.3c-4.1,0-7.3-3.2-7.3-7.3c0-4.1,3.2-7.3,7.3-7.3C394.2,0,397.4,3.2,397.4,7.3z
		 M396.3,57.4h-12.2V19.1h12.2V57.4z"/>
	<path class="st0" d="M439.7,32.3v25.1h-12.2V36.6c0-4.5-2.3-7.1-6-7.1c-3.4,0-6.2,2.3-6.2,7.3v20.6H403V19.1h11.7v4.8
		c2.4-4,6.3-5.9,11.4-5.9C433.8,18.1,439.7,23.4,439.7,32.3z"/>
</g>
<g>
	<path class="st0" d="M86.8,88.4c3.4-4.1,9.5-9.6,19.9-9.6c11.5,0,19,7,19,17.6c0,6.5-2.5,10.6-8.2,16.3l-9.9,9.9h19.3v11.7H89.6
		v-9.9l18.9-18.5c2.7-2.6,4-5.3,4-8.2c0-4.1-3-6.8-7.1-6.8c-5,0-8.2,2.9-11.1,6.1L86.8,88.4z"/>
	<path class="st0" d="M178.6,107.1c0,17.7-10.6,28.3-24.1,28.3c-13.4,0-24-10.6-24-28.3c0-17.7,10.6-28.3,24-28.3
		C167.9,78.8,178.6,89.3,178.6,107.1z M143.6,107.1c0,10.6,4.8,16.2,10.9,16.2c6.2,0,10.9-5.6,10.9-16.2s-4.8-16.2-10.9-16.2
		C148.4,90.9,143.6,96.4,143.6,107.1z"/>
	<path class="st0" d="M206.4,134.4h-12.6v-38l-12.2,4.6V88.5l24.8-9.6V134.4z"/>
	<path class="st0" d="M248,113.3h6.9V125H248v9.3h-12.6V125h-24.1v-8.9l17.8-36.4H243l-16.6,33.5h9v-5.6l4.2-8.7h8.4V113.3z"/>
	<path class="st0" d="M284.1,118.8h-23.4v-10.4h23.4V118.8z"/>
	<path class="st0" d="M309.7,134.4h-12.6v-38l-12.2,4.6V88.5l24.8-9.6V134.4z"/>
	<path class="st0" d="M354.2,89.7l-21.5,44.7h-15.1l21.5-42.9h-24.5V79.8h39.5V89.7z"/>
</g>
</svg>
