<!-- Generator: Adobe Illustrator 19.2.1, SVG Export Plug-In  -->
<svg version="1.1"
	 xmlns="http://www.w3.org/2000/svg" xmlns:xlink="http://www.w3.org/1999/xlink" xmlns:a="http://ns.adobe.com/AdobeSVGViewerExtensions/3.0/"
	 x="0px" y="0px" width="299px" height="106.6px" viewBox="0 0 299 106.6" style="enable-background:new 0 0 299 106.6;"
	 xml:space="preserve">
<style type="text/css">
	.st0{fill:#FFFFFF;}
</style>
<defs>
</defs>
<g>
	<path class="st0" d="M47.8,39.8h-11l-7.3-24.9l-7.3,24.9h-11L0,1.1h9.5l7.4,27.7l7.7-27.7h10l7.7,27.8l7.4-27.8h9.4L47.8,39.8z"/>
	<path class="st0" d="M70.2,15.5c1.7-2.5,4.3-3.6,7.7-3.6c5.4,0,9.6,3.8,9.6,10.1v17.8h-8.6V25.1c0-3.2-1.6-5-4.3-5
		c-2.4,0-4.4,1.6-4.4,5.1v14.6h-8.6V0h8.6V15.5z"/>
	<path class="st0" d="M119.7,39.8h-8.4v-2.9c-1.6,2.1-4.1,3.6-7.8,3.6c-7.2,0-12.6-6.3-12.6-14.3c0-8,5.4-14.3,12.6-14.3
		c3.6,0,6.1,1.5,7.8,3.7v-2.9h8.4V39.8z M99.9,26.2c0,3.5,2.3,6.2,5.8,6.2c3.4,0,5.8-2.6,5.8-6.2c0-3.6-2.4-6.2-5.8-6.2
		C102.2,20,99.9,22.7,99.9,26.2z"/>
	<path class="st0" d="M145.5,20.4h-9.3v7.9c0,3.1,1.7,4.2,3.8,4.2c1.6,0,3.3-0.9,4.7-1.7l3,6.7c-2.5,1.8-5.2,3-9.6,3
		c-7.3,0-10.5-4.3-10.5-11.1v-9h-5.1v-7.7h5.1V4.8h8.6v7.9h9.3V20.4z"/>
	<path class="st0" d="M194,30l5.3-17.3h9.1l-9.3,27.1h-9.6l-5.3-16.2l-5.2,16.2h-9.6L160,12.7h9.2l5.2,17.2l5.5-17.2h8.6L194,30z"/>
	<path class="st0" d="M235.7,26.2c0,0.9-0.1,2.1-0.2,2.7h-18.4c0.7,3,2.8,4.3,5.8,4.3c2,0,4.2-0.8,5.9-2.4l5.6,5.2
		c-2.8,2.8-6.9,4.4-11.9,4.4c-8.5,0-14.3-5.7-14.3-14.1c0-8.5,5.7-14.4,13.9-14.4C230.2,12,235.7,17.8,235.7,26.2z M217.2,23.4h9.9
		c-0.7-2.7-2.4-4.1-4.9-4.1C219.5,19.3,217.9,20.8,217.2,23.4z"/>
	<path class="st0" d="M249.6,0l-4.4,18H238l2.2-18H249.6z"/>
	<path class="st0" d="M270.6,12.4l-0.8,8.6c-1.2-0.4-2.8-0.7-4.3-0.7c-3.1,0-4.9,1.5-4.9,4.9v14.6h-8.6V12.7h8.3v3.1
		c1.6-2.6,4.1-3.9,7.4-3.9C268.8,12,269.9,12.2,270.6,12.4z"/>
	<path class="st0" d="M299,26.2c0,0.9-0.1,2.1-0.2,2.7h-18.4c0.7,3,2.8,4.3,5.8,4.3c2,0,4.2-0.8,5.9-2.4l5.6,5.2
		c-2.8,2.8-6.9,4.4-11.9,4.4c-8.5,0-14.3-5.7-14.3-14.1c0-8.5,5.7-14.4,13.9-14.4C293.5,12,299,17.8,299,26.2z M280.5,23.4h9.9
		c-0.7-2.7-2.4-4.1-4.9-4.1C282.8,19.3,281.1,20.8,280.5,23.4z"/>
</g>
<g>
	<path class="st0" d="M21.2,70.8v-2.8h8.4v24.5c0,8.9-5.8,14.2-14.7,14.2c-4.5,0-9.1-1.2-12.4-3.5l3.1-6.9c2.7,1.9,5.5,2.8,8.7,2.8
		c3.5,0,6.8-1.9,6.8-6.2v-1.7c-1.6,2-4,3.4-7.5,3.4c-7.3,0-12.6-6-12.6-13.7s5.3-13.7,12.6-13.7C17.2,67.2,19.6,68.7,21.2,70.8z
		 M10,80.9c0,3.3,2.3,5.8,5.7,5.8c3.3,0,5.5-2.5,5.5-5.8s-2.3-5.8-5.5-5.8C12.3,75.1,10,77.6,10,80.9z"/>
	<path class="st0" d="M62.6,81.5c0,8.2-6.2,14.3-14.7,14.3c-8.5,0-14.7-6.1-14.7-14.3c0-8.2,6.2-14.3,14.7-14.3
		C56.3,67.2,62.6,73.3,62.6,81.5z M42,81.5c0,3.6,2.5,6.2,5.9,6.2c3.4,0,5.9-2.6,5.9-6.2s-2.5-6.2-5.9-6.2
		C44.5,75.3,42,77.8,42,81.5z"/>
	<path class="st0" d="M75.5,59.6c0,2.9-2.3,5.1-5.2,5.1c-2.9,0-5.2-2.2-5.2-5.1c0-2.9,2.2-5.2,5.2-5.2
		C73.2,54.4,75.5,56.7,75.5,59.6z M74.7,95H66V67.9h8.6V95z"/>
	<path class="st0" d="M105.6,77.3V95H97V80.3c0-3.2-1.6-5-4.3-5c-2.4,0-4.4,1.6-4.4,5.1V95h-8.6V67.9H88v3.4
		c1.7-2.8,4.4-4.1,8.1-4.1C101.4,67.2,105.6,71,105.6,77.3z"/>
	<path class="st0" d="M129.2,70.8v-2.8h8.4v24.5c0,8.9-5.8,14.2-14.7,14.2c-4.5,0-9.1-1.2-12.4-3.5l3.1-6.9c2.7,1.9,5.5,2.8,8.7,2.8
		c3.5,0,6.8-1.9,6.8-6.2v-1.7c-1.6,2-4,3.4-7.5,3.4c-7.3,0-12.6-6-12.6-13.7s5.3-13.7,12.6-13.7C125.2,67.2,127.6,68.7,129.2,70.8z
		 M118,80.9c0,3.3,2.3,5.8,5.7,5.8c3.3,0,5.5-2.5,5.5-5.8s-2.3-5.8-5.5-5.8C120.3,75.1,118,77.6,118,80.9z"/>
	<path class="st0" d="M175.8,75.6h-9.3v7.9c0,3.1,1.7,4.2,3.8,4.2c1.6,0,3.3-0.9,4.7-1.7l3,6.7c-2.5,1.8-5.2,3-9.6,3
		c-7.3,0-10.6-4.3-10.6-11.1v-9h-5.1v-7.7h5.1V60h8.6v7.9h9.3V75.6z"/>
	<path class="st0" d="M208,81.5c0,8.2-6.2,14.3-14.7,14.3c-8.5,0-14.7-6.1-14.7-14.3c0-8.2,6.2-14.3,14.7-14.3
		C201.8,67.2,208,73.3,208,81.5z M187.5,81.5c0,3.6,2.5,6.2,5.9,6.2c3.4,0,5.9-2.6,5.9-6.2s-2.5-6.2-5.9-6.2
		C189.9,75.3,187.5,77.8,187.5,81.5z"/>
	<path class="st0" d="M242.6,70.5V55.3h8.6V95h-8.3v-2.9c-1.6,2.1-4.1,3.6-7.8,3.6c-7.2,0-12.6-6.3-12.6-14.3
		c0-8,5.4-14.3,12.6-14.3C238.6,67.2,241,68.6,242.6,70.5z M231.4,81.5c0,3.5,2.3,6.2,5.8,6.2c3.4,0,5.8-2.6,5.8-6.2
		c0-3.6-2.4-6.2-5.8-6.2C233.7,75.3,231.4,77.9,231.4,81.5z"/>
	<path class="st0" d="M284.2,81.5c0,8.2-6.2,14.3-14.7,14.3c-8.5,0-14.7-6.1-14.7-14.3c0-8.2,6.2-14.3,14.7-14.3
		C278,67.2,284.2,73.3,284.2,81.5z M263.7,81.5c0,3.6,2.5,6.2,5.9,6.2c3.4,0,5.9-2.6,5.9-6.2s-2.5-6.2-5.9-6.2
		C266.1,75.3,263.7,77.8,263.7,81.5z"/>
</g>
</svg>
