<!-- Generator: Adobe Illustrator 19.2.1, SVG Export Plug-In  -->
<svg version="1.1"
	 xmlns="http://www.w3.org/2000/svg" xmlns:xlink="http://www.w3.org/1999/xlink" xmlns:a="http://ns.adobe.com/AdobeSVGViewerExtensions/3.0/"
	 x="0px" y="0px" width="982.7px" height="130.8px" viewBox="0 0 982.7 130.8" style="enable-background:new 0 0 982.7 130.8;"
	 xml:space="preserve">
<style type="text/css">
	.st0{fill:#2DA1B4;}
</style>
<defs>
</defs>
<g>
	<path class="st0" d="M157.4,9.7v37.9H148V9.7h-12.2V1.4h33.7v8.4H157.4z"/>
	<path class="st0" d="M164.8,30.6c0-10.7,4.6-17.7,16.5-17.7s16.5,7,16.5,17.7c0,10.7-4.5,17.7-16.5,17.7S164.8,41.3,164.8,30.6z
		 M174.2,30.6c0,6.3,1.6,10.4,7.1,10.4c5.6,0,7.1-4.1,7.1-10.4c0-6.3-1.6-10.3-7.1-10.3C175.8,20.3,174.2,24.3,174.2,30.6z"/>
	<path class="st0" d="M226,47.6h-8.8v-34h8.8V18h0.1c2.7-3,6.2-5.1,10.6-5.1c4.6,0,7.7,2,9.1,5.6c3.5-3.9,7.4-5.6,11.8-5.6
		c6.8,0,10.2,4.4,10.2,11.4v23.3h-8.8V26.4c0-3.9-1.8-6.1-5.4-6.1c-2.6,0-5,1.5-6.7,2.7c0,1.2,0.1,2.4,0.1,3.9v20.8h-8.8V26
		c-0.1-3.6-1.9-5.7-5.4-5.7c-2.7,0-5,1.5-6.7,2.6V47.6z"/>
	<path class="st0" d="M277,21.6l-1.3-7.1c4.8-1,9.9-1.6,14-1.6c8.6,0,13.4,2.2,13.4,11.4v23.3h-8.8v-3.4c-0.1,0-0.1,0-0.1,0
		c-2.9,3-5.8,4.1-10.1,4.1c-6.8,0-10.5-4.6-10.5-10.5c0-8.3,7.6-10.6,14.3-10.6h6.5v-2.4c0-3.5-2.2-4.6-6.6-4.6
		C285,20.3,281.9,20.5,277,21.6z M294.3,32.5h-5.9c-4,0-6,1.4-6,4.6c0,3,2.4,4.4,5.3,4.4c2.8,0,5.4-1.2,6.6-2.1V32.5z"/>
	<path class="st0" d="M318.8,1.4v9.4h-8.8V1.4H318.8z M318.8,13.6v34h-8.8v-34H318.8z"/>
	<path class="st0" d="M334.4,47.6h-8.8v-34h8.8V18h0.1c2.9-3.1,6.7-5.1,11.1-5.1c6.8,0,10.2,4.4,10.2,11.4v23.3H347V26.4
		c0-3.9-1.5-6.1-5.4-6.1c-2.8,0-5.4,1.5-7.1,2.6V47.6z"/>
	<path class="st0" d="M365.4,19.9h-4.6v-5.8l4.6-0.5l1.1-9.5h7.8v9.5h8.5v6.3h-8.5v16.4c0,3.2,1.4,4.9,5,4.9c0.8,0,1.8-0.1,3.1-0.3
		l0.7,6.8c-1.9,0.4-5.1,0.6-6.9,0.6c-7.8,0-10.7-3.2-10.7-10.4V19.9z"/>
	<path class="st0" d="M391.5,21.6l-1.3-7.1c4.8-1,9.9-1.6,14-1.6c8.6,0,13.4,2.2,13.4,11.4v23.3h-8.8v-3.4c-0.1,0-0.1,0-0.1,0
		c-2.9,3-5.8,4.1-10.1,4.1c-6.8,0-10.5-4.6-10.5-10.5c0-8.3,7.6-10.6,14.3-10.6h6.5v-2.4c0-3.5-2.2-4.6-6.6-4.6
		C399.5,20.3,396.4,20.5,391.5,21.6z M408.8,32.5h-5.9c-4,0-6,1.4-6,4.6c0,3,2.4,4.4,5.3,4.4c2.8,0,5.4-1.2,6.6-2.1V32.5z"/>
	<path class="st0" d="M433.3,1.4v9.4h-8.8V1.4H433.3z M433.3,13.6v34h-8.8v-34H433.3z"/>
	<path class="st0" d="M448.9,47.6H440v-34h8.8V18h0.1c2.9-3.1,6.7-5.1,11.1-5.1c6.8,0,10.2,4.4,10.2,11.4v23.3h-8.8V26.4
		c0-3.9-1.5-6.1-5.4-6.1c-2.8,0-5.4,1.5-7.1,2.6V47.6z"/>
	<path class="st0" d="M492.7,21.6l-1.3-7.1c4.8-1,9.9-1.6,14-1.6c8.6,0,13.4,2.2,13.4,11.4v23.3H510v-3.4c-0.1,0-0.1,0-0.1,0
		c-2.9,3-5.8,4.1-10.1,4.1c-6.8,0-10.5-4.6-10.5-10.5c0-8.3,7.6-10.6,14.3-10.6h6.5v-2.4c0-3.5-2.2-4.6-6.6-4.6
		C500.7,20.3,497.6,20.5,492.7,21.6z M510,32.5h-5.9c-4,0-6,1.4-6,4.6c0,3,2.4,4.4,5.3,4.4c2.8,0,5.4-1.2,6.6-2.1V32.5z"/>
	<path class="st0" d="M534.5,47.6h-8.8v-34h8.8V18h0.1c2.9-3.1,6.7-5.1,11.1-5.1c6.8,0,10.2,4.4,10.2,11.4v23.3h-8.8V26.4
		c0-3.9-1.5-6.1-5.4-6.1c-2.8,0-5.4,1.5-7.1,2.6V47.6z"/>
	<path class="st0" d="M584,44.2c-0.1,0-0.1,0-0.1,0c-2.1,2.4-5.8,4.1-9.5,4.1c-9.5,0-12.4-8-12.4-17.7c0-9.7,3.4-17.7,12.9-17.7
		c3.5,0,6.9,1.4,9,3.8c0.1,0,0.1,0,0.1,0V0h8.8v47.6H584V44.2z M577.9,41c2.9,0,5.1-1.3,6.1-2.2V22.4c-1-0.8-3.2-2.1-6.1-2.1
		c-5.2,0-6.6,4.6-6.6,10.3S572.8,41,577.9,41z"/>
	<path class="st0" d="M621.7,1.4v9.4h-8.8V1.4H621.7z M621.7,13.6v34h-8.8v-34H621.7z"/>
	<path class="st0" d="M637.4,47.6h-8.8v-34h8.8V18h0.1c2.7-3,6.2-5.1,10.6-5.1c4.6,0,7.7,2,9.1,5.6c3.5-3.9,7.4-5.6,11.8-5.6
		c6.8,0,10.2,4.4,10.2,11.4v23.3h-8.8V26.4c0-3.9-1.8-6.1-5.4-6.1c-2.6,0-5,1.5-6.7,2.7c0,1.2,0.1,2.4,0.1,3.9v20.8h-8.8V26
		c-0.1-3.6-1.9-5.7-5.4-5.7c-2.7,0-5,1.5-6.7,2.6V47.6z"/>
	<path class="st0" d="M694.8,17h0.1c2.2-2.4,5.9-4.1,9.6-4.1c9.5,0,12.4,8,12.4,17.7c0,9.7-3.4,17.7-12.9,17.7c-3.4,0-6.9-1.4-9-3.8
		h-0.1v16.7H686V13.6h8.8V17z M700.9,20.3c-2.9,0-5,1.3-6.1,2.1v16.5c1.1,0.9,3.3,2.2,6.1,2.2c5.2,0,6.7-4.6,6.7-10.4
		S706.2,20.3,700.9,20.3z"/>
	<path class="st0" d="M731.9,47.6H723v-34h8.8V19h0.1c2.2-3.1,6.3-6.1,11.8-6.1v8.4c-4.6,0-9.2,1.2-11.9,2.6V47.6z"/>
	<path class="st0" d="M745.7,30.6c0-10.7,4.6-17.7,16.5-17.7s16.5,7,16.5,17.7c0,10.7-4.5,17.7-16.5,17.7S745.7,41.3,745.7,30.6z
		 M755.1,30.6c0,6.3,1.6,10.4,7.1,10.4s7.1-4.1,7.1-10.4c0-6.3-1.6-10.3-7.1-10.3S755.1,24.3,755.1,30.6z"/>
	<path class="st0" d="M792.5,47.9l-11.9-34.3h9.9l7.6,24.6h0.1l7.7-24.6h9.4l-12,34.3H792.5z"/>
	<path class="st0" d="M826.7,32.5c0.2,5.1,3.1,8.5,9.3,8.5c2.9,0,6.2-0.1,10.6-1.4l1,7c-4.5,1.3-8.5,1.6-12.9,1.6
		c-13.1,0-17.7-6.9-17.7-17.7c0-10.7,4.6-17.7,17.5-17.7c10.2,0,13.6,5.1,14.3,11c0.3,2.6,0.1,5.5-0.3,8.6H826.7z M826.7,26.9h13.2
		c0.1-0.9,0.2-1.8,0.1-2.7c-0.3-2.6-1.8-4.6-6-4.6C829.1,19.7,827,22.6,826.7,26.9z"/>
</g>
<g>
	<path class="st0" d="M4.6,89.6H0v-5.8l4.6-0.5l1.1-9.5h7.8v9.5h8.5v6.3h-8.5v16.4c0,3.2,1.4,4.9,5,4.9c0.8,0,1.8-0.1,3.1-0.3
		l0.7,6.8c-1.9,0.4-5.1,0.6-6.9,0.6c-7.8,0-10.7-3.2-10.7-10.4V89.6z"/>
	<path class="st0" d="M34.8,102.1c0.2,5.1,3.1,8.5,9.3,8.5c2.9,0,6.2-0.1,10.6-1.4l1,7c-4.5,1.3-8.5,1.6-12.9,1.6
		c-13.1,0-17.7-6.9-17.7-17.7c0-10.7,4.6-17.7,17.5-17.7c10.2,0,13.6,5.1,14.3,11c0.3,2.6,0.1,5.5-0.3,8.6H34.8z M34.8,96.6H48
		c0.1-0.9,0.2-1.8,0.1-2.7c-0.3-2.6-1.8-4.6-6-4.6C37.3,89.3,35.2,92.2,34.8,96.6z"/>
	<path class="st0" d="M65.3,91.2l-1.3-7.1c4.8-1,9.9-1.6,14-1.6c8.6,0,13.4,2.2,13.4,11.4v23.3h-8.8v-3.4c-0.1,0-0.1,0-0.1,0
		c-2.9,3-5.8,4.1-10.1,4.1c-6.8,0-10.5-4.6-10.5-10.5c0-8.3,7.6-10.6,14.3-10.6h6.5v-2.4c0-3.5-2.2-4.6-6.6-4.6
		C73.3,89.9,70.2,90.2,65.3,91.2z M82.6,102.1h-5.9c-4,0-6,1.4-6,4.6c0,3,2.4,4.4,5.3,4.4c2.8,0,5.4-1.2,6.6-2.1V102.1z"/>
	<path class="st0" d="M115.1,82.5c4.4,0,7.8,0.6,11.9,1.6l-1.6,7.1c-5.6-1.4-7.8-1.4-10.3-1.4c-5.3,0-8.2,3.5-8.2,10.3
		c0,6.8,2.9,10.4,8.2,10.4c2.5,0,4.7,0,10.3-1.4l1.6,7c-4.1,1-7.5,1.6-11.9,1.6c-13.2,0-17.5-6.9-17.5-17.7
		C97.6,89.6,101.9,82.5,115.1,82.5z"/>
	<path class="st0" d="M140.8,117.2h-8.8V69.6h8.8v18h0.1c2.9-3.1,6.7-5.1,11.1-5.1c6.8,0,10.2,4.4,10.2,11.4v23.3h-8.8V96
		c0-3.9-1.5-6.1-5.4-6.1c-2.8,0-5.4,1.5-7.1,2.6V117.2z"/>
	<path class="st0" d="M177.9,102.1c0.2,5.1,3.1,8.5,9.3,8.5c2.9,0,6.2-0.1,10.6-1.4l1,7c-4.5,1.3-8.5,1.6-12.9,1.6
		c-13.1,0-17.7-6.9-17.7-17.7c0-10.7,4.6-17.7,17.5-17.7c10.2,0,13.6,5.1,14.3,11c0.3,2.6,0.1,5.5-0.3,8.6H177.9z M177.9,96.6h13.2
		c0.1-0.9,0.2-1.8,0.1-2.7c-0.3-2.6-1.8-4.6-6-4.6C180.3,89.3,178.2,92.2,177.9,96.6z"/>
	<path class="st0" d="M214.8,117.2H206v-34h8.8v5.4h0.1c2.2-3.1,6.3-6.1,11.8-6.1v8.4c-4.6,0-9.2,1.2-11.9,2.6V117.2z"/>
	<path class="st0" d="M246.6,117.9c-5.5,0-11.4-0.6-15.5-1.6l1.6-7c5.6,1.4,10.3,1.6,12.9,1.6c4.4,0,5.6-2,5.6-3.3
		c0-1.7-1.8-2.5-5.8-3.3c-7.7-1.3-13.5-3.8-13.5-11.5c0-7.3,5.2-10.2,13.5-10.2c5.5,0,10.2,0.6,14.3,1.6l-1.6,7.1
		c-5.6-1.4-9.7-1.6-12.2-1.6c-4.1,0-5.1,1.7-5.1,2.9c0,1.6,1.2,2.5,5.5,3.5c6.5,1.4,13.9,3.1,13.9,11
		C260,114.4,254.8,117.9,246.6,117.9z"/>
	<path class="st0" d="M267.6,89.7l1.7-8.8c-1.2,0-2.4,0-3.6,0V71h8.8v9.9l-4.2,8.8H267.6z"/>
	<path class="st0" d="M303.3,86.6h0.1c2.2-2.4,5.9-4.1,9.6-4.1c9.5,0,12.4,8,12.4,17.7c0,9.7-3.4,17.7-12.9,17.7
		c-3.4,0-6.9-1.4-9-3.8h-0.1v16.7h-8.8V83.2h8.8V86.6z M309.4,89.9c-2.9,0-5,1.3-6.1,2.1v16.5c1.1,0.9,3.3,2.2,6.1,2.2
		c5.2,0,6.7-4.6,6.7-10.4S314.6,89.9,309.4,89.9z"/>
	<path class="st0" d="M340.3,117.2h-8.8v-34h8.8v5.4h0.1c2.2-3.1,6.3-6.1,11.8-6.1v8.4c-4.6,0-9.2,1.2-11.9,2.6V117.2z"/>
	<path class="st0" d="M354.1,100.2c0-10.7,4.6-17.7,16.5-17.7s16.5,7,16.5,17.7c0,10.7-4.5,17.7-16.5,17.7S354.1,111,354.1,100.2z
		 M363.5,100.2c0,6.3,1.6,10.4,7.1,10.4c5.6,0,7.1-4.1,7.1-10.4c0-6.3-1.6-10.3-7.1-10.3C365.1,89.9,363.5,94,363.5,100.2z"/>
	<path class="st0" d="M404.8,83.2h7.1v6.3h-7.1v27.7H396V89.6h-4.6v-5.8l4.6-0.5v-3.5c0-6.7,2.2-10.1,10.7-10.1c1.8,0,4,0.3,5.9,0.6
		l-0.7,6.8c-1.3-0.2-2.3-0.3-3.1-0.3c-3,0-3.9,0.7-3.9,3.7V83.2z"/>
	<path class="st0" d="M424.1,102.1c0.2,5.1,3.1,8.5,9.3,8.5c2.9,0,6.2-0.1,10.6-1.4l1,7c-4.5,1.3-8.5,1.6-12.9,1.6
		c-13.1,0-17.7-6.9-17.7-17.7c0-10.7,4.6-17.7,17.5-17.7c10.2,0,13.6,5.1,14.3,11c0.3,2.6,0.1,5.5-0.3,8.6H424.1z M424.1,96.6h13.2
		c0.1-0.9,0.2-1.8,0.1-2.7c-0.3-2.6-1.8-4.6-6-4.6C426.6,89.3,424.5,92.2,424.1,96.6z"/>
	<path class="st0" d="M466.7,117.9c-5.5,0-11.4-0.6-15.5-1.6l1.6-7c5.6,1.4,10.3,1.6,12.9,1.6c4.4,0,5.6-2,5.6-3.3
		c0-1.7-1.8-2.5-5.8-3.3c-7.7-1.3-13.5-3.8-13.5-11.5c0-7.3,5.2-10.2,13.5-10.2c5.5,0,10.2,0.6,14.3,1.6l-1.6,7.1
		c-5.6-1.4-9.7-1.6-12.2-1.6c-4.1,0-5.1,1.7-5.1,2.9c0,1.6,1.2,2.5,5.5,3.5c6.5,1.4,13.9,3.1,13.9,11
		C480.1,114.4,474.9,117.9,466.7,117.9z"/>
	<path class="st0" d="M500.3,117.9c-5.5,0-11.4-0.6-15.5-1.6l1.6-7c5.6,1.4,10.3,1.6,12.9,1.6c4.4,0,5.6-2,5.6-3.3
		c0-1.7-1.8-2.5-5.8-3.3c-7.7-1.3-13.5-3.8-13.5-11.5c0-7.3,5.2-10.2,13.5-10.2c5.5,0,10.2,0.6,14.3,1.6l-1.6,7.1
		c-5.6-1.4-9.7-1.6-12.2-1.6c-4.1,0-5.1,1.7-5.1,2.9c0,1.6,1.2,2.5,5.5,3.5c6.5,1.4,13.9,3.1,13.9,11
		C513.7,114.4,508.5,117.9,500.3,117.9z"/>
	<path class="st0" d="M528.3,71v9.4h-8.8V71H528.3z M528.3,83.2v34h-8.8v-34H528.3z"/>
	<path class="st0" d="M534.3,100.2c0-10.7,4.6-17.7,16.5-17.7s16.5,7,16.5,17.7c0,10.7-4.5,17.7-16.5,17.7S534.3,111,534.3,100.2z
		 M543.7,100.2c0,6.3,1.6,10.4,7.1,10.4s7.1-4.1,7.1-10.4c0-6.3-1.6-10.3-7.1-10.3S543.7,94,543.7,100.2z"/>
	<path class="st0" d="M582.3,117.2h-8.8v-34h8.8v4.4h0.1c2.9-3.1,6.7-5.1,11.1-5.1c6.8,0,10.2,4.4,10.2,11.4v23.3h-8.8V96
		c0-3.9-1.5-6.1-5.4-6.1c-2.8,0-5.4,1.5-7.1,2.6V117.2z"/>
	<path class="st0" d="M612.9,91.2l-1.3-7.1c4.8-1,9.9-1.6,14-1.6c8.6,0,13.4,2.2,13.4,11.4v23.3h-8.8v-3.4c-0.1,0-0.1,0-0.1,0
		c-2.9,3-5.8,4.1-10.1,4.1c-6.8,0-10.5-4.6-10.5-10.5c0-8.3,7.6-10.6,14.3-10.6h6.5v-2.4c0-3.5-2.2-4.6-6.6-4.6
		C620.9,89.9,617.8,90.2,612.9,91.2z M630.2,102.1h-5.9c-4,0-6,1.4-6,4.6c0,3,2.4,4.4,5.3,4.4c2.8,0,5.4-1.2,6.6-2.1V102.1z"/>
	<path class="st0" d="M645.9,69.6h8.8v47.6h-8.8V69.6z"/>
	<path class="st0" d="M689.2,117.9c-5.5,0-11.4-0.6-15.5-1.6l1.6-7c5.6,1.4,10.3,1.6,12.9,1.6c4.4,0,5.6-2,5.6-3.3
		c0-1.7-1.8-2.5-5.8-3.3c-7.7-1.3-13.5-3.8-13.5-11.5c0-7.3,5.2-10.2,13.5-10.2c5.5,0,10.2,0.6,14.3,1.6l-1.6,7.1
		c-5.6-1.4-9.7-1.6-12.2-1.6c-4.1,0-5.1,1.7-5.1,2.9c0,1.6,1.2,2.5,5.5,3.5c6.5,1.4,13.9,3.1,13.9,11
		C702.6,114.4,697.5,117.9,689.2,117.9z"/>
	<path class="st0" d="M711.1,89.6h-4.6v-5.8l4.6-0.5l1.1-9.5h7.8v9.5h8.5v6.3H720v16.4c0,3.2,1.4,4.9,5,4.9c0.8,0,1.8-0.1,3.1-0.3
		l0.7,6.8c-1.9,0.4-5.1,0.6-6.9,0.6c-7.8,0-10.7-3.2-10.7-10.4V89.6z"/>
	<path class="st0" d="M737.4,91.2l-1.3-7.1c4.8-1,9.9-1.6,14-1.6c8.6,0,13.4,2.2,13.4,11.4v23.3h-8.8v-3.4c-0.1,0-0.1,0-0.1,0
		c-2.9,3-5.8,4.1-10.1,4.1c-6.8,0-10.5-4.6-10.5-10.5c0-8.3,7.6-10.6,14.3-10.6h6.5v-2.4c0-3.5-2.2-4.6-6.6-4.6
		C745.3,89.9,742.3,90.2,737.4,91.2z M754.7,102.1h-5.9c-4,0-6,1.4-6,4.6c0,3,2.4,4.4,5.3,4.4c2.8,0,5.4-1.2,6.6-2.1V102.1z"/>
	<path class="st0" d="M779.1,117.2h-8.8v-34h8.8v4.4h0.1c2.9-3.1,6.7-5.1,11.1-5.1c6.8,0,10.2,4.4,10.2,11.4v23.3h-8.8V96
		c0-3.9-1.5-6.1-5.4-6.1c-2.8,0-5.4,1.5-7.1,2.6V117.2z"/>
	<path class="st0" d="M828.8,113.8c-0.1,0-0.1,0-0.1,0c-2.1,2.4-5.8,4.1-9.5,4.1c-9.5,0-12.4-8-12.4-17.7c0-9.7,3.4-17.7,12.9-17.7
		c3.5,0,6.9,1.4,9,3.8c0.1,0,0.1,0,0.1,0V69.6h8.8v47.6h-8.8V113.8z M822.7,110.6c2.9,0,5.1-1.3,6.1-2.2V92c-1-0.8-3.2-2.1-6.1-2.1
		c-5.2,0-6.6,4.6-6.6,10.3S817.5,110.6,822.7,110.6z"/>
	<path class="st0" d="M846.9,91.2l-1.3-7.1c4.8-1,9.9-1.6,14-1.6c8.6,0,13.4,2.2,13.4,11.4v23.3h-8.8v-3.4c-0.1,0-0.1,0-0.1,0
		c-2.9,3-5.8,4.1-10.1,4.1c-6.8,0-10.5-4.6-10.5-10.5c0-8.3,7.6-10.6,14.3-10.6h6.5v-2.4c0-3.5-2.2-4.6-6.6-4.6
		C854.8,89.9,851.8,90.2,846.9,91.2z M864.1,102.1h-5.9c-4,0-6,1.4-6,4.6c0,3,2.4,4.4,5.3,4.4c2.8,0,5.4-1.2,6.6-2.1V102.1z"/>
	<path class="st0" d="M888.6,117.2h-8.8v-34h8.8v5.4h0.1c2.2-3.1,6.3-6.1,11.8-6.1v8.4c-4.6,0-9.2,1.2-11.9,2.6V117.2z"/>
	<path class="st0" d="M924.6,113.8c-0.1,0-0.1,0-0.1,0c-2.1,2.4-5.8,4.1-9.5,4.1c-9.5,0-12.4-8-12.4-17.7c0-9.7,3.4-17.7,12.9-17.7
		c3.5,0,6.9,1.4,9,3.8c0.1,0,0.1,0,0.1,0V69.6h8.8v47.6h-8.8V113.8z M918.5,110.6c2.9,0,5.1-1.3,6.1-2.2V92c-1-0.8-3.2-2.1-6.1-2.1
		c-5.2,0-6.6,4.6-6.6,10.3S913.3,110.6,918.5,110.6z"/>
	<path class="st0" d="M954.7,117.9c-5.5,0-11.4-0.6-15.5-1.6l1.6-7c5.6,1.4,10.3,1.6,12.9,1.6c4.4,0,5.6-2,5.6-3.3
		c0-1.7-1.8-2.5-5.8-3.3c-7.7-1.3-13.5-3.8-13.5-11.5c0-7.3,5.2-10.2,13.5-10.2c5.5,0,10.2,0.6,14.3,1.6l-1.6,7.1
		c-5.6-1.4-9.7-1.6-12.2-1.6c-4.1,0-5.1,1.7-5.1,2.9c0,1.6,1.2,2.5,5.5,3.5c6.5,1.4,13.9,3.1,13.9,11
		C968.1,114.4,962.9,117.9,954.7,117.9z"/>
	<path class="st0" d="M982.7,107.4v9.9h-8.8v-9.9H982.7z"/>
</g>
</svg>
